%TF.GenerationSoftware,KiCad,Pcbnew,9.0.4*%
%TF.CreationDate,2026-04-30T20:13:39-06:00*%
%TF.ProjectId,ADCS_V3,41444353-5f56-4332-9e6b-696361645f70,v0.1*%
%TF.SameCoordinates,Original*%
%TF.FileFunction,Soldermask,Top*%
%TF.FilePolarity,Negative*%
%FSLAX46Y46*%
G04 Gerber Fmt 4.6, Leading zero omitted, Abs format (unit mm)*
G04 Created by KiCad (PCBNEW 9.0.4) date 2026-04-30 20:13:39*
%MOMM*%
%LPD*%
G01*
G04 APERTURE LIST*
G04 Aperture macros list*
%AMRoundRect*
0 Rectangle with rounded corners*
0 $1 Rounding radius*
0 $2 $3 $4 $5 $6 $7 $8 $9 X,Y pos of 4 corners*
0 Add a 4 corners polygon primitive as box body*
4,1,4,$2,$3,$4,$5,$6,$7,$8,$9,$2,$3,0*
0 Add four circle primitives for the rounded corners*
1,1,$1+$1,$2,$3*
1,1,$1+$1,$4,$5*
1,1,$1+$1,$6,$7*
1,1,$1+$1,$8,$9*
0 Add four rect primitives between the rounded corners*
20,1,$1+$1,$2,$3,$4,$5,0*
20,1,$1+$1,$4,$5,$6,$7,0*
20,1,$1+$1,$6,$7,$8,$9,0*
20,1,$1+$1,$8,$9,$2,$3,0*%
G04 Aperture macros list end*
%ADD10C,0.010000*%
%ADD11R,0.450000X1.475000*%
%ADD12RoundRect,0.100000X-0.100000X0.217500X-0.100000X-0.217500X0.100000X-0.217500X0.100000X0.217500X0*%
%ADD13R,0.350000X0.600000*%
%ADD14R,1.700000X1.100000*%
%ADD15RoundRect,0.150000X-0.150000X0.825000X-0.150000X-0.825000X0.150000X-0.825000X0.150000X0.825000X0*%
%ADD16RoundRect,0.250000X-0.337500X-0.475000X0.337500X-0.475000X0.337500X0.475000X-0.337500X0.475000X0*%
%ADD17RoundRect,0.237500X-0.237500X0.300000X-0.237500X-0.300000X0.237500X-0.300000X0.237500X0.300000X0*%
%ADD18RoundRect,0.225000X0.225000X0.250000X-0.225000X0.250000X-0.225000X-0.250000X0.225000X-0.250000X0*%
%ADD19R,1.473200X0.533400*%
%ADD20RoundRect,0.250000X0.450000X-0.350000X0.450000X0.350000X-0.450000X0.350000X-0.450000X-0.350000X0*%
%ADD21R,0.600000X0.350000*%
%ADD22R,1.100000X1.700000*%
%ADD23R,0.254000X0.812800*%
%ADD24R,0.812800X0.254000*%
%ADD25R,1.676400X1.676400*%
%ADD26RoundRect,0.062500X-0.187500X-0.062500X0.187500X-0.062500X0.187500X0.062500X-0.187500X0.062500X0*%
%ADD27R,0.900000X1.600000*%
%ADD28RoundRect,0.225000X-0.225000X-0.250000X0.225000X-0.250000X0.225000X0.250000X-0.225000X0.250000X0*%
%ADD29R,1.700000X1.700000*%
%ADD30C,1.700000*%
%ADD31RoundRect,0.102000X0.500000X-0.450000X0.500000X0.450000X-0.500000X0.450000X-0.500000X-0.450000X0*%
%ADD32RoundRect,0.102000X0.275000X-0.850000X0.275000X0.850000X-0.275000X0.850000X-0.275000X-0.850000X0*%
%ADD33RoundRect,0.062500X0.187500X0.062500X-0.187500X0.062500X-0.187500X-0.062500X0.187500X-0.062500X0*%
%ADD34RoundRect,0.237500X0.300000X0.237500X-0.300000X0.237500X-0.300000X-0.237500X0.300000X-0.237500X0*%
%ADD35RoundRect,0.250000X-0.350000X-0.450000X0.350000X-0.450000X0.350000X0.450000X-0.350000X0.450000X0*%
%ADD36RoundRect,0.250000X0.650000X-1.000000X0.650000X1.000000X-0.650000X1.000000X-0.650000X-1.000000X0*%
%ADD37RoundRect,0.237500X-0.237500X0.250000X-0.237500X-0.250000X0.237500X-0.250000X0.237500X0.250000X0*%
%ADD38RoundRect,0.237500X0.237500X-0.300000X0.237500X0.300000X-0.237500X0.300000X-0.237500X-0.300000X0*%
%ADD39RoundRect,0.237500X-0.300000X-0.237500X0.300000X-0.237500X0.300000X0.237500X-0.300000X0.237500X0*%
%ADD40C,1.400000*%
%ADD41RoundRect,0.150000X-0.587500X-0.150000X0.587500X-0.150000X0.587500X0.150000X-0.587500X0.150000X0*%
%ADD42RoundRect,0.102000X0.695000X0.695000X-0.695000X0.695000X-0.695000X-0.695000X0.695000X-0.695000X0*%
%ADD43C,1.594000*%
%ADD44RoundRect,0.237500X0.237500X-0.250000X0.237500X0.250000X-0.237500X0.250000X-0.237500X-0.250000X0*%
%ADD45RoundRect,0.250000X-0.450000X0.350000X-0.450000X-0.350000X0.450000X-0.350000X0.450000X0.350000X0*%
%ADD46RoundRect,0.150000X0.512500X0.150000X-0.512500X0.150000X-0.512500X-0.150000X0.512500X-0.150000X0*%
%ADD47RoundRect,0.225000X-0.250000X0.225000X-0.250000X-0.225000X0.250000X-0.225000X0.250000X0.225000X0*%
%ADD48RoundRect,0.150000X0.587500X0.150000X-0.587500X0.150000X-0.587500X-0.150000X0.587500X-0.150000X0*%
%ADD49RoundRect,0.075000X-0.700000X-0.075000X0.700000X-0.075000X0.700000X0.075000X-0.700000X0.075000X0*%
%ADD50RoundRect,0.075000X-0.075000X-0.700000X0.075000X-0.700000X0.075000X0.700000X-0.075000X0.700000X0*%
%ADD51RoundRect,0.200000X0.275000X-0.200000X0.275000X0.200000X-0.275000X0.200000X-0.275000X-0.200000X0*%
%ADD52RoundRect,0.250000X0.350000X0.450000X-0.350000X0.450000X-0.350000X-0.450000X0.350000X-0.450000X0*%
%ADD53C,4.000000*%
G04 APERTURE END LIST*
D10*
%TO.C,U9*%
X104718000Y-130686000D02*
X104720000Y-130686000D01*
X104723000Y-130687000D01*
X104725000Y-130687000D01*
X104728000Y-130688000D01*
X104730000Y-130689000D01*
X104733000Y-130690000D01*
X104735000Y-130692000D01*
X104737000Y-130693000D01*
X104739000Y-130695000D01*
X104741000Y-130696000D01*
X104743000Y-130698000D01*
X104745000Y-130700000D01*
X104747000Y-130702000D01*
X104749000Y-130704000D01*
X104750000Y-130706000D01*
X104752000Y-130708000D01*
X104753000Y-130710000D01*
X104755000Y-130712000D01*
X104756000Y-130715000D01*
X104757000Y-130717000D01*
X104758000Y-130720000D01*
X104758000Y-130722000D01*
X104759000Y-130725000D01*
X104759000Y-130727000D01*
X104760000Y-130730000D01*
X104760000Y-130732000D01*
X104760000Y-130735000D01*
X104760000Y-131015000D01*
X104760000Y-131018000D01*
X104760000Y-131020000D01*
X104759000Y-131023000D01*
X104759000Y-131025000D01*
X104758000Y-131028000D01*
X104758000Y-131030000D01*
X104757000Y-131033000D01*
X104756000Y-131035000D01*
X104755000Y-131038000D01*
X104753000Y-131040000D01*
X104752000Y-131042000D01*
X104750000Y-131044000D01*
X104749000Y-131046000D01*
X104747000Y-131048000D01*
X104745000Y-131050000D01*
X104743000Y-131052000D01*
X104741000Y-131054000D01*
X104739000Y-131055000D01*
X104737000Y-131057000D01*
X104735000Y-131058000D01*
X104733000Y-131060000D01*
X104730000Y-131061000D01*
X104728000Y-131062000D01*
X104725000Y-131063000D01*
X104723000Y-131063000D01*
X104720000Y-131064000D01*
X104718000Y-131064000D01*
X104715000Y-131065000D01*
X104713000Y-131065000D01*
X104710000Y-131065000D01*
X104070000Y-131065000D01*
X104067000Y-131065000D01*
X104065000Y-131065000D01*
X104062000Y-131064000D01*
X104060000Y-131064000D01*
X104057000Y-131063000D01*
X104055000Y-131063000D01*
X104052000Y-131062000D01*
X104050000Y-131061000D01*
X104047000Y-131060000D01*
X104045000Y-131058000D01*
X104043000Y-131057000D01*
X104041000Y-131055000D01*
X104039000Y-131054000D01*
X104037000Y-131052000D01*
X104035000Y-131050000D01*
X104033000Y-131048000D01*
X104031000Y-131046000D01*
X104030000Y-131044000D01*
X104028000Y-131042000D01*
X104027000Y-131040000D01*
X104025000Y-131038000D01*
X104024000Y-131035000D01*
X104023000Y-131033000D01*
X104022000Y-131030000D01*
X104022000Y-131028000D01*
X104021000Y-131025000D01*
X104021000Y-131023000D01*
X104020000Y-131020000D01*
X104020000Y-131018000D01*
X104020000Y-131015000D01*
X104020000Y-130735000D01*
X104020000Y-130732000D01*
X104020000Y-130730000D01*
X104021000Y-130727000D01*
X104021000Y-130725000D01*
X104022000Y-130722000D01*
X104022000Y-130720000D01*
X104023000Y-130717000D01*
X104024000Y-130715000D01*
X104025000Y-130712000D01*
X104027000Y-130710000D01*
X104028000Y-130708000D01*
X104030000Y-130706000D01*
X104031000Y-130704000D01*
X104033000Y-130702000D01*
X104035000Y-130700000D01*
X104037000Y-130698000D01*
X104039000Y-130696000D01*
X104041000Y-130695000D01*
X104043000Y-130693000D01*
X104045000Y-130692000D01*
X104047000Y-130690000D01*
X104050000Y-130689000D01*
X104052000Y-130688000D01*
X104055000Y-130687000D01*
X104057000Y-130687000D01*
X104060000Y-130686000D01*
X104062000Y-130686000D01*
X104065000Y-130685000D01*
X104067000Y-130685000D01*
X104070000Y-130685000D01*
X104710000Y-130685000D01*
X104713000Y-130685000D01*
X104715000Y-130685000D01*
X104718000Y-130686000D01*
G36*
X104718000Y-130686000D02*
G01*
X104720000Y-130686000D01*
X104723000Y-130687000D01*
X104725000Y-130687000D01*
X104728000Y-130688000D01*
X104730000Y-130689000D01*
X104733000Y-130690000D01*
X104735000Y-130692000D01*
X104737000Y-130693000D01*
X104739000Y-130695000D01*
X104741000Y-130696000D01*
X104743000Y-130698000D01*
X104745000Y-130700000D01*
X104747000Y-130702000D01*
X104749000Y-130704000D01*
X104750000Y-130706000D01*
X104752000Y-130708000D01*
X104753000Y-130710000D01*
X104755000Y-130712000D01*
X104756000Y-130715000D01*
X104757000Y-130717000D01*
X104758000Y-130720000D01*
X104758000Y-130722000D01*
X104759000Y-130725000D01*
X104759000Y-130727000D01*
X104760000Y-130730000D01*
X104760000Y-130732000D01*
X104760000Y-130735000D01*
X104760000Y-131015000D01*
X104760000Y-131018000D01*
X104760000Y-131020000D01*
X104759000Y-131023000D01*
X104759000Y-131025000D01*
X104758000Y-131028000D01*
X104758000Y-131030000D01*
X104757000Y-131033000D01*
X104756000Y-131035000D01*
X104755000Y-131038000D01*
X104753000Y-131040000D01*
X104752000Y-131042000D01*
X104750000Y-131044000D01*
X104749000Y-131046000D01*
X104747000Y-131048000D01*
X104745000Y-131050000D01*
X104743000Y-131052000D01*
X104741000Y-131054000D01*
X104739000Y-131055000D01*
X104737000Y-131057000D01*
X104735000Y-131058000D01*
X104733000Y-131060000D01*
X104730000Y-131061000D01*
X104728000Y-131062000D01*
X104725000Y-131063000D01*
X104723000Y-131063000D01*
X104720000Y-131064000D01*
X104718000Y-131064000D01*
X104715000Y-131065000D01*
X104713000Y-131065000D01*
X104710000Y-131065000D01*
X104070000Y-131065000D01*
X104067000Y-131065000D01*
X104065000Y-131065000D01*
X104062000Y-131064000D01*
X104060000Y-131064000D01*
X104057000Y-131063000D01*
X104055000Y-131063000D01*
X104052000Y-131062000D01*
X104050000Y-131061000D01*
X104047000Y-131060000D01*
X104045000Y-131058000D01*
X104043000Y-131057000D01*
X104041000Y-131055000D01*
X104039000Y-131054000D01*
X104037000Y-131052000D01*
X104035000Y-131050000D01*
X104033000Y-131048000D01*
X104031000Y-131046000D01*
X104030000Y-131044000D01*
X104028000Y-131042000D01*
X104027000Y-131040000D01*
X104025000Y-131038000D01*
X104024000Y-131035000D01*
X104023000Y-131033000D01*
X104022000Y-131030000D01*
X104022000Y-131028000D01*
X104021000Y-131025000D01*
X104021000Y-131023000D01*
X104020000Y-131020000D01*
X104020000Y-131018000D01*
X104020000Y-131015000D01*
X104020000Y-130735000D01*
X104020000Y-130732000D01*
X104020000Y-130730000D01*
X104021000Y-130727000D01*
X104021000Y-130725000D01*
X104022000Y-130722000D01*
X104022000Y-130720000D01*
X104023000Y-130717000D01*
X104024000Y-130715000D01*
X104025000Y-130712000D01*
X104027000Y-130710000D01*
X104028000Y-130708000D01*
X104030000Y-130706000D01*
X104031000Y-130704000D01*
X104033000Y-130702000D01*
X104035000Y-130700000D01*
X104037000Y-130698000D01*
X104039000Y-130696000D01*
X104041000Y-130695000D01*
X104043000Y-130693000D01*
X104045000Y-130692000D01*
X104047000Y-130690000D01*
X104050000Y-130689000D01*
X104052000Y-130688000D01*
X104055000Y-130687000D01*
X104057000Y-130687000D01*
X104060000Y-130686000D01*
X104062000Y-130686000D01*
X104065000Y-130685000D01*
X104067000Y-130685000D01*
X104070000Y-130685000D01*
X104710000Y-130685000D01*
X104713000Y-130685000D01*
X104715000Y-130685000D01*
X104718000Y-130686000D01*
G37*
X104718000Y-131186000D02*
X104720000Y-131186000D01*
X104723000Y-131187000D01*
X104725000Y-131187000D01*
X104728000Y-131188000D01*
X104730000Y-131189000D01*
X104733000Y-131190000D01*
X104735000Y-131192000D01*
X104737000Y-131193000D01*
X104739000Y-131195000D01*
X104741000Y-131196000D01*
X104743000Y-131198000D01*
X104745000Y-131200000D01*
X104747000Y-131202000D01*
X104749000Y-131204000D01*
X104750000Y-131206000D01*
X104752000Y-131208000D01*
X104753000Y-131210000D01*
X104755000Y-131212000D01*
X104756000Y-131215000D01*
X104757000Y-131217000D01*
X104758000Y-131220000D01*
X104758000Y-131222000D01*
X104759000Y-131225000D01*
X104759000Y-131227000D01*
X104760000Y-131230000D01*
X104760000Y-131232000D01*
X104760000Y-131235000D01*
X104760000Y-131515000D01*
X104760000Y-131518000D01*
X104760000Y-131520000D01*
X104759000Y-131523000D01*
X104759000Y-131525000D01*
X104758000Y-131528000D01*
X104758000Y-131530000D01*
X104757000Y-131533000D01*
X104756000Y-131535000D01*
X104755000Y-131538000D01*
X104753000Y-131540000D01*
X104752000Y-131542000D01*
X104750000Y-131544000D01*
X104749000Y-131546000D01*
X104747000Y-131548000D01*
X104745000Y-131550000D01*
X104743000Y-131552000D01*
X104741000Y-131554000D01*
X104739000Y-131555000D01*
X104737000Y-131557000D01*
X104735000Y-131558000D01*
X104733000Y-131560000D01*
X104730000Y-131561000D01*
X104728000Y-131562000D01*
X104725000Y-131563000D01*
X104723000Y-131563000D01*
X104720000Y-131564000D01*
X104718000Y-131564000D01*
X104715000Y-131565000D01*
X104713000Y-131565000D01*
X104710000Y-131565000D01*
X104070000Y-131565000D01*
X104067000Y-131565000D01*
X104065000Y-131565000D01*
X104062000Y-131564000D01*
X104060000Y-131564000D01*
X104057000Y-131563000D01*
X104055000Y-131563000D01*
X104052000Y-131562000D01*
X104050000Y-131561000D01*
X104047000Y-131560000D01*
X104045000Y-131558000D01*
X104043000Y-131557000D01*
X104041000Y-131555000D01*
X104039000Y-131554000D01*
X104037000Y-131552000D01*
X104035000Y-131550000D01*
X104033000Y-131548000D01*
X104031000Y-131546000D01*
X104030000Y-131544000D01*
X104028000Y-131542000D01*
X104027000Y-131540000D01*
X104025000Y-131538000D01*
X104024000Y-131535000D01*
X104023000Y-131533000D01*
X104022000Y-131530000D01*
X104022000Y-131528000D01*
X104021000Y-131525000D01*
X104021000Y-131523000D01*
X104020000Y-131520000D01*
X104020000Y-131518000D01*
X104020000Y-131515000D01*
X104020000Y-131235000D01*
X104020000Y-131232000D01*
X104020000Y-131230000D01*
X104021000Y-131227000D01*
X104021000Y-131225000D01*
X104022000Y-131222000D01*
X104022000Y-131220000D01*
X104023000Y-131217000D01*
X104024000Y-131215000D01*
X104025000Y-131212000D01*
X104027000Y-131210000D01*
X104028000Y-131208000D01*
X104030000Y-131206000D01*
X104031000Y-131204000D01*
X104033000Y-131202000D01*
X104035000Y-131200000D01*
X104037000Y-131198000D01*
X104039000Y-131196000D01*
X104041000Y-131195000D01*
X104043000Y-131193000D01*
X104045000Y-131192000D01*
X104047000Y-131190000D01*
X104050000Y-131189000D01*
X104052000Y-131188000D01*
X104055000Y-131187000D01*
X104057000Y-131187000D01*
X104060000Y-131186000D01*
X104062000Y-131186000D01*
X104065000Y-131185000D01*
X104067000Y-131185000D01*
X104070000Y-131185000D01*
X104710000Y-131185000D01*
X104713000Y-131185000D01*
X104715000Y-131185000D01*
X104718000Y-131186000D01*
G36*
X104718000Y-131186000D02*
G01*
X104720000Y-131186000D01*
X104723000Y-131187000D01*
X104725000Y-131187000D01*
X104728000Y-131188000D01*
X104730000Y-131189000D01*
X104733000Y-131190000D01*
X104735000Y-131192000D01*
X104737000Y-131193000D01*
X104739000Y-131195000D01*
X104741000Y-131196000D01*
X104743000Y-131198000D01*
X104745000Y-131200000D01*
X104747000Y-131202000D01*
X104749000Y-131204000D01*
X104750000Y-131206000D01*
X104752000Y-131208000D01*
X104753000Y-131210000D01*
X104755000Y-131212000D01*
X104756000Y-131215000D01*
X104757000Y-131217000D01*
X104758000Y-131220000D01*
X104758000Y-131222000D01*
X104759000Y-131225000D01*
X104759000Y-131227000D01*
X104760000Y-131230000D01*
X104760000Y-131232000D01*
X104760000Y-131235000D01*
X104760000Y-131515000D01*
X104760000Y-131518000D01*
X104760000Y-131520000D01*
X104759000Y-131523000D01*
X104759000Y-131525000D01*
X104758000Y-131528000D01*
X104758000Y-131530000D01*
X104757000Y-131533000D01*
X104756000Y-131535000D01*
X104755000Y-131538000D01*
X104753000Y-131540000D01*
X104752000Y-131542000D01*
X104750000Y-131544000D01*
X104749000Y-131546000D01*
X104747000Y-131548000D01*
X104745000Y-131550000D01*
X104743000Y-131552000D01*
X104741000Y-131554000D01*
X104739000Y-131555000D01*
X104737000Y-131557000D01*
X104735000Y-131558000D01*
X104733000Y-131560000D01*
X104730000Y-131561000D01*
X104728000Y-131562000D01*
X104725000Y-131563000D01*
X104723000Y-131563000D01*
X104720000Y-131564000D01*
X104718000Y-131564000D01*
X104715000Y-131565000D01*
X104713000Y-131565000D01*
X104710000Y-131565000D01*
X104070000Y-131565000D01*
X104067000Y-131565000D01*
X104065000Y-131565000D01*
X104062000Y-131564000D01*
X104060000Y-131564000D01*
X104057000Y-131563000D01*
X104055000Y-131563000D01*
X104052000Y-131562000D01*
X104050000Y-131561000D01*
X104047000Y-131560000D01*
X104045000Y-131558000D01*
X104043000Y-131557000D01*
X104041000Y-131555000D01*
X104039000Y-131554000D01*
X104037000Y-131552000D01*
X104035000Y-131550000D01*
X104033000Y-131548000D01*
X104031000Y-131546000D01*
X104030000Y-131544000D01*
X104028000Y-131542000D01*
X104027000Y-131540000D01*
X104025000Y-131538000D01*
X104024000Y-131535000D01*
X104023000Y-131533000D01*
X104022000Y-131530000D01*
X104022000Y-131528000D01*
X104021000Y-131525000D01*
X104021000Y-131523000D01*
X104020000Y-131520000D01*
X104020000Y-131518000D01*
X104020000Y-131515000D01*
X104020000Y-131235000D01*
X104020000Y-131232000D01*
X104020000Y-131230000D01*
X104021000Y-131227000D01*
X104021000Y-131225000D01*
X104022000Y-131222000D01*
X104022000Y-131220000D01*
X104023000Y-131217000D01*
X104024000Y-131215000D01*
X104025000Y-131212000D01*
X104027000Y-131210000D01*
X104028000Y-131208000D01*
X104030000Y-131206000D01*
X104031000Y-131204000D01*
X104033000Y-131202000D01*
X104035000Y-131200000D01*
X104037000Y-131198000D01*
X104039000Y-131196000D01*
X104041000Y-131195000D01*
X104043000Y-131193000D01*
X104045000Y-131192000D01*
X104047000Y-131190000D01*
X104050000Y-131189000D01*
X104052000Y-131188000D01*
X104055000Y-131187000D01*
X104057000Y-131187000D01*
X104060000Y-131186000D01*
X104062000Y-131186000D01*
X104065000Y-131185000D01*
X104067000Y-131185000D01*
X104070000Y-131185000D01*
X104710000Y-131185000D01*
X104713000Y-131185000D01*
X104715000Y-131185000D01*
X104718000Y-131186000D01*
G37*
X104718000Y-131686000D02*
X104720000Y-131686000D01*
X104723000Y-131687000D01*
X104725000Y-131687000D01*
X104728000Y-131688000D01*
X104730000Y-131689000D01*
X104733000Y-131690000D01*
X104735000Y-131692000D01*
X104737000Y-131693000D01*
X104739000Y-131695000D01*
X104741000Y-131696000D01*
X104743000Y-131698000D01*
X104745000Y-131700000D01*
X104747000Y-131702000D01*
X104749000Y-131704000D01*
X104750000Y-131706000D01*
X104752000Y-131708000D01*
X104753000Y-131710000D01*
X104755000Y-131712000D01*
X104756000Y-131715000D01*
X104757000Y-131717000D01*
X104758000Y-131720000D01*
X104758000Y-131722000D01*
X104759000Y-131725000D01*
X104759000Y-131727000D01*
X104760000Y-131730000D01*
X104760000Y-131732000D01*
X104760000Y-131735000D01*
X104760000Y-132015000D01*
X104760000Y-132018000D01*
X104760000Y-132020000D01*
X104759000Y-132023000D01*
X104759000Y-132025000D01*
X104758000Y-132028000D01*
X104758000Y-132030000D01*
X104757000Y-132033000D01*
X104756000Y-132035000D01*
X104755000Y-132038000D01*
X104753000Y-132040000D01*
X104752000Y-132042000D01*
X104750000Y-132044000D01*
X104749000Y-132046000D01*
X104747000Y-132048000D01*
X104745000Y-132050000D01*
X104743000Y-132052000D01*
X104741000Y-132054000D01*
X104739000Y-132055000D01*
X104737000Y-132057000D01*
X104735000Y-132058000D01*
X104733000Y-132060000D01*
X104730000Y-132061000D01*
X104728000Y-132062000D01*
X104725000Y-132063000D01*
X104723000Y-132063000D01*
X104720000Y-132064000D01*
X104718000Y-132064000D01*
X104715000Y-132065000D01*
X104713000Y-132065000D01*
X104710000Y-132065000D01*
X104070000Y-132065000D01*
X104067000Y-132065000D01*
X104065000Y-132065000D01*
X104062000Y-132064000D01*
X104060000Y-132064000D01*
X104057000Y-132063000D01*
X104055000Y-132063000D01*
X104052000Y-132062000D01*
X104050000Y-132061000D01*
X104047000Y-132060000D01*
X104045000Y-132058000D01*
X104043000Y-132057000D01*
X104041000Y-132055000D01*
X104039000Y-132054000D01*
X104037000Y-132052000D01*
X104035000Y-132050000D01*
X104033000Y-132048000D01*
X104031000Y-132046000D01*
X104030000Y-132044000D01*
X104028000Y-132042000D01*
X104027000Y-132040000D01*
X104025000Y-132038000D01*
X104024000Y-132035000D01*
X104023000Y-132033000D01*
X104022000Y-132030000D01*
X104022000Y-132028000D01*
X104021000Y-132025000D01*
X104021000Y-132023000D01*
X104020000Y-132020000D01*
X104020000Y-132018000D01*
X104020000Y-132015000D01*
X104020000Y-131735000D01*
X104020000Y-131732000D01*
X104020000Y-131730000D01*
X104021000Y-131727000D01*
X104021000Y-131725000D01*
X104022000Y-131722000D01*
X104022000Y-131720000D01*
X104023000Y-131717000D01*
X104024000Y-131715000D01*
X104025000Y-131712000D01*
X104027000Y-131710000D01*
X104028000Y-131708000D01*
X104030000Y-131706000D01*
X104031000Y-131704000D01*
X104033000Y-131702000D01*
X104035000Y-131700000D01*
X104037000Y-131698000D01*
X104039000Y-131696000D01*
X104041000Y-131695000D01*
X104043000Y-131693000D01*
X104045000Y-131692000D01*
X104047000Y-131690000D01*
X104050000Y-131689000D01*
X104052000Y-131688000D01*
X104055000Y-131687000D01*
X104057000Y-131687000D01*
X104060000Y-131686000D01*
X104062000Y-131686000D01*
X104065000Y-131685000D01*
X104067000Y-131685000D01*
X104070000Y-131685000D01*
X104710000Y-131685000D01*
X104713000Y-131685000D01*
X104715000Y-131685000D01*
X104718000Y-131686000D01*
G36*
X104718000Y-131686000D02*
G01*
X104720000Y-131686000D01*
X104723000Y-131687000D01*
X104725000Y-131687000D01*
X104728000Y-131688000D01*
X104730000Y-131689000D01*
X104733000Y-131690000D01*
X104735000Y-131692000D01*
X104737000Y-131693000D01*
X104739000Y-131695000D01*
X104741000Y-131696000D01*
X104743000Y-131698000D01*
X104745000Y-131700000D01*
X104747000Y-131702000D01*
X104749000Y-131704000D01*
X104750000Y-131706000D01*
X104752000Y-131708000D01*
X104753000Y-131710000D01*
X104755000Y-131712000D01*
X104756000Y-131715000D01*
X104757000Y-131717000D01*
X104758000Y-131720000D01*
X104758000Y-131722000D01*
X104759000Y-131725000D01*
X104759000Y-131727000D01*
X104760000Y-131730000D01*
X104760000Y-131732000D01*
X104760000Y-131735000D01*
X104760000Y-132015000D01*
X104760000Y-132018000D01*
X104760000Y-132020000D01*
X104759000Y-132023000D01*
X104759000Y-132025000D01*
X104758000Y-132028000D01*
X104758000Y-132030000D01*
X104757000Y-132033000D01*
X104756000Y-132035000D01*
X104755000Y-132038000D01*
X104753000Y-132040000D01*
X104752000Y-132042000D01*
X104750000Y-132044000D01*
X104749000Y-132046000D01*
X104747000Y-132048000D01*
X104745000Y-132050000D01*
X104743000Y-132052000D01*
X104741000Y-132054000D01*
X104739000Y-132055000D01*
X104737000Y-132057000D01*
X104735000Y-132058000D01*
X104733000Y-132060000D01*
X104730000Y-132061000D01*
X104728000Y-132062000D01*
X104725000Y-132063000D01*
X104723000Y-132063000D01*
X104720000Y-132064000D01*
X104718000Y-132064000D01*
X104715000Y-132065000D01*
X104713000Y-132065000D01*
X104710000Y-132065000D01*
X104070000Y-132065000D01*
X104067000Y-132065000D01*
X104065000Y-132065000D01*
X104062000Y-132064000D01*
X104060000Y-132064000D01*
X104057000Y-132063000D01*
X104055000Y-132063000D01*
X104052000Y-132062000D01*
X104050000Y-132061000D01*
X104047000Y-132060000D01*
X104045000Y-132058000D01*
X104043000Y-132057000D01*
X104041000Y-132055000D01*
X104039000Y-132054000D01*
X104037000Y-132052000D01*
X104035000Y-132050000D01*
X104033000Y-132048000D01*
X104031000Y-132046000D01*
X104030000Y-132044000D01*
X104028000Y-132042000D01*
X104027000Y-132040000D01*
X104025000Y-132038000D01*
X104024000Y-132035000D01*
X104023000Y-132033000D01*
X104022000Y-132030000D01*
X104022000Y-132028000D01*
X104021000Y-132025000D01*
X104021000Y-132023000D01*
X104020000Y-132020000D01*
X104020000Y-132018000D01*
X104020000Y-132015000D01*
X104020000Y-131735000D01*
X104020000Y-131732000D01*
X104020000Y-131730000D01*
X104021000Y-131727000D01*
X104021000Y-131725000D01*
X104022000Y-131722000D01*
X104022000Y-131720000D01*
X104023000Y-131717000D01*
X104024000Y-131715000D01*
X104025000Y-131712000D01*
X104027000Y-131710000D01*
X104028000Y-131708000D01*
X104030000Y-131706000D01*
X104031000Y-131704000D01*
X104033000Y-131702000D01*
X104035000Y-131700000D01*
X104037000Y-131698000D01*
X104039000Y-131696000D01*
X104041000Y-131695000D01*
X104043000Y-131693000D01*
X104045000Y-131692000D01*
X104047000Y-131690000D01*
X104050000Y-131689000D01*
X104052000Y-131688000D01*
X104055000Y-131687000D01*
X104057000Y-131687000D01*
X104060000Y-131686000D01*
X104062000Y-131686000D01*
X104065000Y-131685000D01*
X104067000Y-131685000D01*
X104070000Y-131685000D01*
X104710000Y-131685000D01*
X104713000Y-131685000D01*
X104715000Y-131685000D01*
X104718000Y-131686000D01*
G37*
X104718000Y-132186000D02*
X104720000Y-132186000D01*
X104723000Y-132187000D01*
X104725000Y-132187000D01*
X104728000Y-132188000D01*
X104730000Y-132189000D01*
X104733000Y-132190000D01*
X104735000Y-132192000D01*
X104737000Y-132193000D01*
X104739000Y-132195000D01*
X104741000Y-132196000D01*
X104743000Y-132198000D01*
X104745000Y-132200000D01*
X104747000Y-132202000D01*
X104749000Y-132204000D01*
X104750000Y-132206000D01*
X104752000Y-132208000D01*
X104753000Y-132210000D01*
X104755000Y-132212000D01*
X104756000Y-132215000D01*
X104757000Y-132217000D01*
X104758000Y-132220000D01*
X104758000Y-132222000D01*
X104759000Y-132225000D01*
X104759000Y-132227000D01*
X104760000Y-132230000D01*
X104760000Y-132232000D01*
X104760000Y-132235000D01*
X104760000Y-132515000D01*
X104760000Y-132518000D01*
X104760000Y-132520000D01*
X104759000Y-132523000D01*
X104759000Y-132525000D01*
X104758000Y-132528000D01*
X104758000Y-132530000D01*
X104757000Y-132533000D01*
X104756000Y-132535000D01*
X104755000Y-132538000D01*
X104753000Y-132540000D01*
X104752000Y-132542000D01*
X104750000Y-132544000D01*
X104749000Y-132546000D01*
X104747000Y-132548000D01*
X104745000Y-132550000D01*
X104743000Y-132552000D01*
X104741000Y-132554000D01*
X104739000Y-132555000D01*
X104737000Y-132557000D01*
X104735000Y-132558000D01*
X104733000Y-132560000D01*
X104730000Y-132561000D01*
X104728000Y-132562000D01*
X104725000Y-132563000D01*
X104723000Y-132563000D01*
X104720000Y-132564000D01*
X104718000Y-132564000D01*
X104715000Y-132565000D01*
X104713000Y-132565000D01*
X104710000Y-132565000D01*
X104070000Y-132565000D01*
X104067000Y-132565000D01*
X104065000Y-132565000D01*
X104062000Y-132564000D01*
X104060000Y-132564000D01*
X104057000Y-132563000D01*
X104055000Y-132563000D01*
X104052000Y-132562000D01*
X104050000Y-132561000D01*
X104047000Y-132560000D01*
X104045000Y-132558000D01*
X104043000Y-132557000D01*
X104041000Y-132555000D01*
X104039000Y-132554000D01*
X104037000Y-132552000D01*
X104035000Y-132550000D01*
X104033000Y-132548000D01*
X104031000Y-132546000D01*
X104030000Y-132544000D01*
X104028000Y-132542000D01*
X104027000Y-132540000D01*
X104025000Y-132538000D01*
X104024000Y-132535000D01*
X104023000Y-132533000D01*
X104022000Y-132530000D01*
X104022000Y-132528000D01*
X104021000Y-132525000D01*
X104021000Y-132523000D01*
X104020000Y-132520000D01*
X104020000Y-132518000D01*
X104020000Y-132515000D01*
X104020000Y-132235000D01*
X104020000Y-132232000D01*
X104020000Y-132230000D01*
X104021000Y-132227000D01*
X104021000Y-132225000D01*
X104022000Y-132222000D01*
X104022000Y-132220000D01*
X104023000Y-132217000D01*
X104024000Y-132215000D01*
X104025000Y-132212000D01*
X104027000Y-132210000D01*
X104028000Y-132208000D01*
X104030000Y-132206000D01*
X104031000Y-132204000D01*
X104033000Y-132202000D01*
X104035000Y-132200000D01*
X104037000Y-132198000D01*
X104039000Y-132196000D01*
X104041000Y-132195000D01*
X104043000Y-132193000D01*
X104045000Y-132192000D01*
X104047000Y-132190000D01*
X104050000Y-132189000D01*
X104052000Y-132188000D01*
X104055000Y-132187000D01*
X104057000Y-132187000D01*
X104060000Y-132186000D01*
X104062000Y-132186000D01*
X104065000Y-132185000D01*
X104067000Y-132185000D01*
X104070000Y-132185000D01*
X104710000Y-132185000D01*
X104713000Y-132185000D01*
X104715000Y-132185000D01*
X104718000Y-132186000D01*
G36*
X104718000Y-132186000D02*
G01*
X104720000Y-132186000D01*
X104723000Y-132187000D01*
X104725000Y-132187000D01*
X104728000Y-132188000D01*
X104730000Y-132189000D01*
X104733000Y-132190000D01*
X104735000Y-132192000D01*
X104737000Y-132193000D01*
X104739000Y-132195000D01*
X104741000Y-132196000D01*
X104743000Y-132198000D01*
X104745000Y-132200000D01*
X104747000Y-132202000D01*
X104749000Y-132204000D01*
X104750000Y-132206000D01*
X104752000Y-132208000D01*
X104753000Y-132210000D01*
X104755000Y-132212000D01*
X104756000Y-132215000D01*
X104757000Y-132217000D01*
X104758000Y-132220000D01*
X104758000Y-132222000D01*
X104759000Y-132225000D01*
X104759000Y-132227000D01*
X104760000Y-132230000D01*
X104760000Y-132232000D01*
X104760000Y-132235000D01*
X104760000Y-132515000D01*
X104760000Y-132518000D01*
X104760000Y-132520000D01*
X104759000Y-132523000D01*
X104759000Y-132525000D01*
X104758000Y-132528000D01*
X104758000Y-132530000D01*
X104757000Y-132533000D01*
X104756000Y-132535000D01*
X104755000Y-132538000D01*
X104753000Y-132540000D01*
X104752000Y-132542000D01*
X104750000Y-132544000D01*
X104749000Y-132546000D01*
X104747000Y-132548000D01*
X104745000Y-132550000D01*
X104743000Y-132552000D01*
X104741000Y-132554000D01*
X104739000Y-132555000D01*
X104737000Y-132557000D01*
X104735000Y-132558000D01*
X104733000Y-132560000D01*
X104730000Y-132561000D01*
X104728000Y-132562000D01*
X104725000Y-132563000D01*
X104723000Y-132563000D01*
X104720000Y-132564000D01*
X104718000Y-132564000D01*
X104715000Y-132565000D01*
X104713000Y-132565000D01*
X104710000Y-132565000D01*
X104070000Y-132565000D01*
X104067000Y-132565000D01*
X104065000Y-132565000D01*
X104062000Y-132564000D01*
X104060000Y-132564000D01*
X104057000Y-132563000D01*
X104055000Y-132563000D01*
X104052000Y-132562000D01*
X104050000Y-132561000D01*
X104047000Y-132560000D01*
X104045000Y-132558000D01*
X104043000Y-132557000D01*
X104041000Y-132555000D01*
X104039000Y-132554000D01*
X104037000Y-132552000D01*
X104035000Y-132550000D01*
X104033000Y-132548000D01*
X104031000Y-132546000D01*
X104030000Y-132544000D01*
X104028000Y-132542000D01*
X104027000Y-132540000D01*
X104025000Y-132538000D01*
X104024000Y-132535000D01*
X104023000Y-132533000D01*
X104022000Y-132530000D01*
X104022000Y-132528000D01*
X104021000Y-132525000D01*
X104021000Y-132523000D01*
X104020000Y-132520000D01*
X104020000Y-132518000D01*
X104020000Y-132515000D01*
X104020000Y-132235000D01*
X104020000Y-132232000D01*
X104020000Y-132230000D01*
X104021000Y-132227000D01*
X104021000Y-132225000D01*
X104022000Y-132222000D01*
X104022000Y-132220000D01*
X104023000Y-132217000D01*
X104024000Y-132215000D01*
X104025000Y-132212000D01*
X104027000Y-132210000D01*
X104028000Y-132208000D01*
X104030000Y-132206000D01*
X104031000Y-132204000D01*
X104033000Y-132202000D01*
X104035000Y-132200000D01*
X104037000Y-132198000D01*
X104039000Y-132196000D01*
X104041000Y-132195000D01*
X104043000Y-132193000D01*
X104045000Y-132192000D01*
X104047000Y-132190000D01*
X104050000Y-132189000D01*
X104052000Y-132188000D01*
X104055000Y-132187000D01*
X104057000Y-132187000D01*
X104060000Y-132186000D01*
X104062000Y-132186000D01*
X104065000Y-132185000D01*
X104067000Y-132185000D01*
X104070000Y-132185000D01*
X104710000Y-132185000D01*
X104713000Y-132185000D01*
X104715000Y-132185000D01*
X104718000Y-132186000D01*
G37*
X104718000Y-132686000D02*
X104720000Y-132686000D01*
X104723000Y-132687000D01*
X104725000Y-132687000D01*
X104728000Y-132688000D01*
X104730000Y-132689000D01*
X104733000Y-132690000D01*
X104735000Y-132692000D01*
X104737000Y-132693000D01*
X104739000Y-132695000D01*
X104741000Y-132696000D01*
X104743000Y-132698000D01*
X104745000Y-132700000D01*
X104747000Y-132702000D01*
X104749000Y-132704000D01*
X104750000Y-132706000D01*
X104752000Y-132708000D01*
X104753000Y-132710000D01*
X104755000Y-132712000D01*
X104756000Y-132715000D01*
X104757000Y-132717000D01*
X104758000Y-132720000D01*
X104758000Y-132722000D01*
X104759000Y-132725000D01*
X104759000Y-132727000D01*
X104760000Y-132730000D01*
X104760000Y-132732000D01*
X104760000Y-132735000D01*
X104760000Y-133015000D01*
X104760000Y-133018000D01*
X104760000Y-133020000D01*
X104759000Y-133023000D01*
X104759000Y-133025000D01*
X104758000Y-133028000D01*
X104758000Y-133030000D01*
X104757000Y-133033000D01*
X104756000Y-133035000D01*
X104755000Y-133038000D01*
X104753000Y-133040000D01*
X104752000Y-133042000D01*
X104750000Y-133044000D01*
X104749000Y-133046000D01*
X104747000Y-133048000D01*
X104745000Y-133050000D01*
X104743000Y-133052000D01*
X104741000Y-133054000D01*
X104739000Y-133055000D01*
X104737000Y-133057000D01*
X104735000Y-133058000D01*
X104733000Y-133060000D01*
X104730000Y-133061000D01*
X104728000Y-133062000D01*
X104725000Y-133063000D01*
X104723000Y-133063000D01*
X104720000Y-133064000D01*
X104718000Y-133064000D01*
X104715000Y-133065000D01*
X104713000Y-133065000D01*
X104710000Y-133065000D01*
X104070000Y-133065000D01*
X104067000Y-133065000D01*
X104065000Y-133065000D01*
X104062000Y-133064000D01*
X104060000Y-133064000D01*
X104057000Y-133063000D01*
X104055000Y-133063000D01*
X104052000Y-133062000D01*
X104050000Y-133061000D01*
X104047000Y-133060000D01*
X104045000Y-133058000D01*
X104043000Y-133057000D01*
X104041000Y-133055000D01*
X104039000Y-133054000D01*
X104037000Y-133052000D01*
X104035000Y-133050000D01*
X104033000Y-133048000D01*
X104031000Y-133046000D01*
X104030000Y-133044000D01*
X104028000Y-133042000D01*
X104027000Y-133040000D01*
X104025000Y-133038000D01*
X104024000Y-133035000D01*
X104023000Y-133033000D01*
X104022000Y-133030000D01*
X104022000Y-133028000D01*
X104021000Y-133025000D01*
X104021000Y-133023000D01*
X104020000Y-133020000D01*
X104020000Y-133018000D01*
X104020000Y-133015000D01*
X104020000Y-132735000D01*
X104020000Y-132732000D01*
X104020000Y-132730000D01*
X104021000Y-132727000D01*
X104021000Y-132725000D01*
X104022000Y-132722000D01*
X104022000Y-132720000D01*
X104023000Y-132717000D01*
X104024000Y-132715000D01*
X104025000Y-132712000D01*
X104027000Y-132710000D01*
X104028000Y-132708000D01*
X104030000Y-132706000D01*
X104031000Y-132704000D01*
X104033000Y-132702000D01*
X104035000Y-132700000D01*
X104037000Y-132698000D01*
X104039000Y-132696000D01*
X104041000Y-132695000D01*
X104043000Y-132693000D01*
X104045000Y-132692000D01*
X104047000Y-132690000D01*
X104050000Y-132689000D01*
X104052000Y-132688000D01*
X104055000Y-132687000D01*
X104057000Y-132687000D01*
X104060000Y-132686000D01*
X104062000Y-132686000D01*
X104065000Y-132685000D01*
X104067000Y-132685000D01*
X104070000Y-132685000D01*
X104710000Y-132685000D01*
X104713000Y-132685000D01*
X104715000Y-132685000D01*
X104718000Y-132686000D01*
G36*
X104718000Y-132686000D02*
G01*
X104720000Y-132686000D01*
X104723000Y-132687000D01*
X104725000Y-132687000D01*
X104728000Y-132688000D01*
X104730000Y-132689000D01*
X104733000Y-132690000D01*
X104735000Y-132692000D01*
X104737000Y-132693000D01*
X104739000Y-132695000D01*
X104741000Y-132696000D01*
X104743000Y-132698000D01*
X104745000Y-132700000D01*
X104747000Y-132702000D01*
X104749000Y-132704000D01*
X104750000Y-132706000D01*
X104752000Y-132708000D01*
X104753000Y-132710000D01*
X104755000Y-132712000D01*
X104756000Y-132715000D01*
X104757000Y-132717000D01*
X104758000Y-132720000D01*
X104758000Y-132722000D01*
X104759000Y-132725000D01*
X104759000Y-132727000D01*
X104760000Y-132730000D01*
X104760000Y-132732000D01*
X104760000Y-132735000D01*
X104760000Y-133015000D01*
X104760000Y-133018000D01*
X104760000Y-133020000D01*
X104759000Y-133023000D01*
X104759000Y-133025000D01*
X104758000Y-133028000D01*
X104758000Y-133030000D01*
X104757000Y-133033000D01*
X104756000Y-133035000D01*
X104755000Y-133038000D01*
X104753000Y-133040000D01*
X104752000Y-133042000D01*
X104750000Y-133044000D01*
X104749000Y-133046000D01*
X104747000Y-133048000D01*
X104745000Y-133050000D01*
X104743000Y-133052000D01*
X104741000Y-133054000D01*
X104739000Y-133055000D01*
X104737000Y-133057000D01*
X104735000Y-133058000D01*
X104733000Y-133060000D01*
X104730000Y-133061000D01*
X104728000Y-133062000D01*
X104725000Y-133063000D01*
X104723000Y-133063000D01*
X104720000Y-133064000D01*
X104718000Y-133064000D01*
X104715000Y-133065000D01*
X104713000Y-133065000D01*
X104710000Y-133065000D01*
X104070000Y-133065000D01*
X104067000Y-133065000D01*
X104065000Y-133065000D01*
X104062000Y-133064000D01*
X104060000Y-133064000D01*
X104057000Y-133063000D01*
X104055000Y-133063000D01*
X104052000Y-133062000D01*
X104050000Y-133061000D01*
X104047000Y-133060000D01*
X104045000Y-133058000D01*
X104043000Y-133057000D01*
X104041000Y-133055000D01*
X104039000Y-133054000D01*
X104037000Y-133052000D01*
X104035000Y-133050000D01*
X104033000Y-133048000D01*
X104031000Y-133046000D01*
X104030000Y-133044000D01*
X104028000Y-133042000D01*
X104027000Y-133040000D01*
X104025000Y-133038000D01*
X104024000Y-133035000D01*
X104023000Y-133033000D01*
X104022000Y-133030000D01*
X104022000Y-133028000D01*
X104021000Y-133025000D01*
X104021000Y-133023000D01*
X104020000Y-133020000D01*
X104020000Y-133018000D01*
X104020000Y-133015000D01*
X104020000Y-132735000D01*
X104020000Y-132732000D01*
X104020000Y-132730000D01*
X104021000Y-132727000D01*
X104021000Y-132725000D01*
X104022000Y-132722000D01*
X104022000Y-132720000D01*
X104023000Y-132717000D01*
X104024000Y-132715000D01*
X104025000Y-132712000D01*
X104027000Y-132710000D01*
X104028000Y-132708000D01*
X104030000Y-132706000D01*
X104031000Y-132704000D01*
X104033000Y-132702000D01*
X104035000Y-132700000D01*
X104037000Y-132698000D01*
X104039000Y-132696000D01*
X104041000Y-132695000D01*
X104043000Y-132693000D01*
X104045000Y-132692000D01*
X104047000Y-132690000D01*
X104050000Y-132689000D01*
X104052000Y-132688000D01*
X104055000Y-132687000D01*
X104057000Y-132687000D01*
X104060000Y-132686000D01*
X104062000Y-132686000D01*
X104065000Y-132685000D01*
X104067000Y-132685000D01*
X104070000Y-132685000D01*
X104710000Y-132685000D01*
X104713000Y-132685000D01*
X104715000Y-132685000D01*
X104718000Y-132686000D01*
G37*
X107518000Y-130686000D02*
X107520000Y-130686000D01*
X107523000Y-130687000D01*
X107525000Y-130687000D01*
X107528000Y-130688000D01*
X107530000Y-130689000D01*
X107533000Y-130690000D01*
X107535000Y-130692000D01*
X107537000Y-130693000D01*
X107539000Y-130695000D01*
X107541000Y-130696000D01*
X107543000Y-130698000D01*
X107545000Y-130700000D01*
X107547000Y-130702000D01*
X107549000Y-130704000D01*
X107550000Y-130706000D01*
X107552000Y-130708000D01*
X107553000Y-130710000D01*
X107555000Y-130712000D01*
X107556000Y-130715000D01*
X107557000Y-130717000D01*
X107558000Y-130720000D01*
X107558000Y-130722000D01*
X107559000Y-130725000D01*
X107559000Y-130727000D01*
X107560000Y-130730000D01*
X107560000Y-130732000D01*
X107560000Y-130735000D01*
X107560000Y-131015000D01*
X107560000Y-131018000D01*
X107560000Y-131020000D01*
X107559000Y-131023000D01*
X107559000Y-131025000D01*
X107558000Y-131028000D01*
X107558000Y-131030000D01*
X107557000Y-131033000D01*
X107556000Y-131035000D01*
X107555000Y-131038000D01*
X107553000Y-131040000D01*
X107552000Y-131042000D01*
X107550000Y-131044000D01*
X107549000Y-131046000D01*
X107547000Y-131048000D01*
X107545000Y-131050000D01*
X107543000Y-131052000D01*
X107541000Y-131054000D01*
X107539000Y-131055000D01*
X107537000Y-131057000D01*
X107535000Y-131058000D01*
X107533000Y-131060000D01*
X107530000Y-131061000D01*
X107528000Y-131062000D01*
X107525000Y-131063000D01*
X107523000Y-131063000D01*
X107520000Y-131064000D01*
X107518000Y-131064000D01*
X107515000Y-131065000D01*
X107513000Y-131065000D01*
X107510000Y-131065000D01*
X106870000Y-131065000D01*
X106867000Y-131065000D01*
X106865000Y-131065000D01*
X106862000Y-131064000D01*
X106860000Y-131064000D01*
X106857000Y-131063000D01*
X106855000Y-131063000D01*
X106852000Y-131062000D01*
X106850000Y-131061000D01*
X106847000Y-131060000D01*
X106845000Y-131058000D01*
X106843000Y-131057000D01*
X106841000Y-131055000D01*
X106839000Y-131054000D01*
X106837000Y-131052000D01*
X106835000Y-131050000D01*
X106833000Y-131048000D01*
X106831000Y-131046000D01*
X106830000Y-131044000D01*
X106828000Y-131042000D01*
X106827000Y-131040000D01*
X106825000Y-131038000D01*
X106824000Y-131035000D01*
X106823000Y-131033000D01*
X106822000Y-131030000D01*
X106822000Y-131028000D01*
X106821000Y-131025000D01*
X106821000Y-131023000D01*
X106820000Y-131020000D01*
X106820000Y-131018000D01*
X106820000Y-131015000D01*
X106820000Y-130735000D01*
X106820000Y-130732000D01*
X106820000Y-130730000D01*
X106821000Y-130727000D01*
X106821000Y-130725000D01*
X106822000Y-130722000D01*
X106822000Y-130720000D01*
X106823000Y-130717000D01*
X106824000Y-130715000D01*
X106825000Y-130712000D01*
X106827000Y-130710000D01*
X106828000Y-130708000D01*
X106830000Y-130706000D01*
X106831000Y-130704000D01*
X106833000Y-130702000D01*
X106835000Y-130700000D01*
X106837000Y-130698000D01*
X106839000Y-130696000D01*
X106841000Y-130695000D01*
X106843000Y-130693000D01*
X106845000Y-130692000D01*
X106847000Y-130690000D01*
X106850000Y-130689000D01*
X106852000Y-130688000D01*
X106855000Y-130687000D01*
X106857000Y-130687000D01*
X106860000Y-130686000D01*
X106862000Y-130686000D01*
X106865000Y-130685000D01*
X106867000Y-130685000D01*
X106870000Y-130685000D01*
X107510000Y-130685000D01*
X107513000Y-130685000D01*
X107515000Y-130685000D01*
X107518000Y-130686000D01*
G36*
X107518000Y-130686000D02*
G01*
X107520000Y-130686000D01*
X107523000Y-130687000D01*
X107525000Y-130687000D01*
X107528000Y-130688000D01*
X107530000Y-130689000D01*
X107533000Y-130690000D01*
X107535000Y-130692000D01*
X107537000Y-130693000D01*
X107539000Y-130695000D01*
X107541000Y-130696000D01*
X107543000Y-130698000D01*
X107545000Y-130700000D01*
X107547000Y-130702000D01*
X107549000Y-130704000D01*
X107550000Y-130706000D01*
X107552000Y-130708000D01*
X107553000Y-130710000D01*
X107555000Y-130712000D01*
X107556000Y-130715000D01*
X107557000Y-130717000D01*
X107558000Y-130720000D01*
X107558000Y-130722000D01*
X107559000Y-130725000D01*
X107559000Y-130727000D01*
X107560000Y-130730000D01*
X107560000Y-130732000D01*
X107560000Y-130735000D01*
X107560000Y-131015000D01*
X107560000Y-131018000D01*
X107560000Y-131020000D01*
X107559000Y-131023000D01*
X107559000Y-131025000D01*
X107558000Y-131028000D01*
X107558000Y-131030000D01*
X107557000Y-131033000D01*
X107556000Y-131035000D01*
X107555000Y-131038000D01*
X107553000Y-131040000D01*
X107552000Y-131042000D01*
X107550000Y-131044000D01*
X107549000Y-131046000D01*
X107547000Y-131048000D01*
X107545000Y-131050000D01*
X107543000Y-131052000D01*
X107541000Y-131054000D01*
X107539000Y-131055000D01*
X107537000Y-131057000D01*
X107535000Y-131058000D01*
X107533000Y-131060000D01*
X107530000Y-131061000D01*
X107528000Y-131062000D01*
X107525000Y-131063000D01*
X107523000Y-131063000D01*
X107520000Y-131064000D01*
X107518000Y-131064000D01*
X107515000Y-131065000D01*
X107513000Y-131065000D01*
X107510000Y-131065000D01*
X106870000Y-131065000D01*
X106867000Y-131065000D01*
X106865000Y-131065000D01*
X106862000Y-131064000D01*
X106860000Y-131064000D01*
X106857000Y-131063000D01*
X106855000Y-131063000D01*
X106852000Y-131062000D01*
X106850000Y-131061000D01*
X106847000Y-131060000D01*
X106845000Y-131058000D01*
X106843000Y-131057000D01*
X106841000Y-131055000D01*
X106839000Y-131054000D01*
X106837000Y-131052000D01*
X106835000Y-131050000D01*
X106833000Y-131048000D01*
X106831000Y-131046000D01*
X106830000Y-131044000D01*
X106828000Y-131042000D01*
X106827000Y-131040000D01*
X106825000Y-131038000D01*
X106824000Y-131035000D01*
X106823000Y-131033000D01*
X106822000Y-131030000D01*
X106822000Y-131028000D01*
X106821000Y-131025000D01*
X106821000Y-131023000D01*
X106820000Y-131020000D01*
X106820000Y-131018000D01*
X106820000Y-131015000D01*
X106820000Y-130735000D01*
X106820000Y-130732000D01*
X106820000Y-130730000D01*
X106821000Y-130727000D01*
X106821000Y-130725000D01*
X106822000Y-130722000D01*
X106822000Y-130720000D01*
X106823000Y-130717000D01*
X106824000Y-130715000D01*
X106825000Y-130712000D01*
X106827000Y-130710000D01*
X106828000Y-130708000D01*
X106830000Y-130706000D01*
X106831000Y-130704000D01*
X106833000Y-130702000D01*
X106835000Y-130700000D01*
X106837000Y-130698000D01*
X106839000Y-130696000D01*
X106841000Y-130695000D01*
X106843000Y-130693000D01*
X106845000Y-130692000D01*
X106847000Y-130690000D01*
X106850000Y-130689000D01*
X106852000Y-130688000D01*
X106855000Y-130687000D01*
X106857000Y-130687000D01*
X106860000Y-130686000D01*
X106862000Y-130686000D01*
X106865000Y-130685000D01*
X106867000Y-130685000D01*
X106870000Y-130685000D01*
X107510000Y-130685000D01*
X107513000Y-130685000D01*
X107515000Y-130685000D01*
X107518000Y-130686000D01*
G37*
X107518000Y-131186000D02*
X107520000Y-131186000D01*
X107523000Y-131187000D01*
X107525000Y-131187000D01*
X107528000Y-131188000D01*
X107530000Y-131189000D01*
X107533000Y-131190000D01*
X107535000Y-131192000D01*
X107537000Y-131193000D01*
X107539000Y-131195000D01*
X107541000Y-131196000D01*
X107543000Y-131198000D01*
X107545000Y-131200000D01*
X107547000Y-131202000D01*
X107549000Y-131204000D01*
X107550000Y-131206000D01*
X107552000Y-131208000D01*
X107553000Y-131210000D01*
X107555000Y-131212000D01*
X107556000Y-131215000D01*
X107557000Y-131217000D01*
X107558000Y-131220000D01*
X107558000Y-131222000D01*
X107559000Y-131225000D01*
X107559000Y-131227000D01*
X107560000Y-131230000D01*
X107560000Y-131232000D01*
X107560000Y-131235000D01*
X107560000Y-131515000D01*
X107560000Y-131518000D01*
X107560000Y-131520000D01*
X107559000Y-131523000D01*
X107559000Y-131525000D01*
X107558000Y-131528000D01*
X107558000Y-131530000D01*
X107557000Y-131533000D01*
X107556000Y-131535000D01*
X107555000Y-131538000D01*
X107553000Y-131540000D01*
X107552000Y-131542000D01*
X107550000Y-131544000D01*
X107549000Y-131546000D01*
X107547000Y-131548000D01*
X107545000Y-131550000D01*
X107543000Y-131552000D01*
X107541000Y-131554000D01*
X107539000Y-131555000D01*
X107537000Y-131557000D01*
X107535000Y-131558000D01*
X107533000Y-131560000D01*
X107530000Y-131561000D01*
X107528000Y-131562000D01*
X107525000Y-131563000D01*
X107523000Y-131563000D01*
X107520000Y-131564000D01*
X107518000Y-131564000D01*
X107515000Y-131565000D01*
X107513000Y-131565000D01*
X107510000Y-131565000D01*
X106870000Y-131565000D01*
X106867000Y-131565000D01*
X106865000Y-131565000D01*
X106862000Y-131564000D01*
X106860000Y-131564000D01*
X106857000Y-131563000D01*
X106855000Y-131563000D01*
X106852000Y-131562000D01*
X106850000Y-131561000D01*
X106847000Y-131560000D01*
X106845000Y-131558000D01*
X106843000Y-131557000D01*
X106841000Y-131555000D01*
X106839000Y-131554000D01*
X106837000Y-131552000D01*
X106835000Y-131550000D01*
X106833000Y-131548000D01*
X106831000Y-131546000D01*
X106830000Y-131544000D01*
X106828000Y-131542000D01*
X106827000Y-131540000D01*
X106825000Y-131538000D01*
X106824000Y-131535000D01*
X106823000Y-131533000D01*
X106822000Y-131530000D01*
X106822000Y-131528000D01*
X106821000Y-131525000D01*
X106821000Y-131523000D01*
X106820000Y-131520000D01*
X106820000Y-131518000D01*
X106820000Y-131515000D01*
X106820000Y-131235000D01*
X106820000Y-131232000D01*
X106820000Y-131230000D01*
X106821000Y-131227000D01*
X106821000Y-131225000D01*
X106822000Y-131222000D01*
X106822000Y-131220000D01*
X106823000Y-131217000D01*
X106824000Y-131215000D01*
X106825000Y-131212000D01*
X106827000Y-131210000D01*
X106828000Y-131208000D01*
X106830000Y-131206000D01*
X106831000Y-131204000D01*
X106833000Y-131202000D01*
X106835000Y-131200000D01*
X106837000Y-131198000D01*
X106839000Y-131196000D01*
X106841000Y-131195000D01*
X106843000Y-131193000D01*
X106845000Y-131192000D01*
X106847000Y-131190000D01*
X106850000Y-131189000D01*
X106852000Y-131188000D01*
X106855000Y-131187000D01*
X106857000Y-131187000D01*
X106860000Y-131186000D01*
X106862000Y-131186000D01*
X106865000Y-131185000D01*
X106867000Y-131185000D01*
X106870000Y-131185000D01*
X107510000Y-131185000D01*
X107513000Y-131185000D01*
X107515000Y-131185000D01*
X107518000Y-131186000D01*
G36*
X107518000Y-131186000D02*
G01*
X107520000Y-131186000D01*
X107523000Y-131187000D01*
X107525000Y-131187000D01*
X107528000Y-131188000D01*
X107530000Y-131189000D01*
X107533000Y-131190000D01*
X107535000Y-131192000D01*
X107537000Y-131193000D01*
X107539000Y-131195000D01*
X107541000Y-131196000D01*
X107543000Y-131198000D01*
X107545000Y-131200000D01*
X107547000Y-131202000D01*
X107549000Y-131204000D01*
X107550000Y-131206000D01*
X107552000Y-131208000D01*
X107553000Y-131210000D01*
X107555000Y-131212000D01*
X107556000Y-131215000D01*
X107557000Y-131217000D01*
X107558000Y-131220000D01*
X107558000Y-131222000D01*
X107559000Y-131225000D01*
X107559000Y-131227000D01*
X107560000Y-131230000D01*
X107560000Y-131232000D01*
X107560000Y-131235000D01*
X107560000Y-131515000D01*
X107560000Y-131518000D01*
X107560000Y-131520000D01*
X107559000Y-131523000D01*
X107559000Y-131525000D01*
X107558000Y-131528000D01*
X107558000Y-131530000D01*
X107557000Y-131533000D01*
X107556000Y-131535000D01*
X107555000Y-131538000D01*
X107553000Y-131540000D01*
X107552000Y-131542000D01*
X107550000Y-131544000D01*
X107549000Y-131546000D01*
X107547000Y-131548000D01*
X107545000Y-131550000D01*
X107543000Y-131552000D01*
X107541000Y-131554000D01*
X107539000Y-131555000D01*
X107537000Y-131557000D01*
X107535000Y-131558000D01*
X107533000Y-131560000D01*
X107530000Y-131561000D01*
X107528000Y-131562000D01*
X107525000Y-131563000D01*
X107523000Y-131563000D01*
X107520000Y-131564000D01*
X107518000Y-131564000D01*
X107515000Y-131565000D01*
X107513000Y-131565000D01*
X107510000Y-131565000D01*
X106870000Y-131565000D01*
X106867000Y-131565000D01*
X106865000Y-131565000D01*
X106862000Y-131564000D01*
X106860000Y-131564000D01*
X106857000Y-131563000D01*
X106855000Y-131563000D01*
X106852000Y-131562000D01*
X106850000Y-131561000D01*
X106847000Y-131560000D01*
X106845000Y-131558000D01*
X106843000Y-131557000D01*
X106841000Y-131555000D01*
X106839000Y-131554000D01*
X106837000Y-131552000D01*
X106835000Y-131550000D01*
X106833000Y-131548000D01*
X106831000Y-131546000D01*
X106830000Y-131544000D01*
X106828000Y-131542000D01*
X106827000Y-131540000D01*
X106825000Y-131538000D01*
X106824000Y-131535000D01*
X106823000Y-131533000D01*
X106822000Y-131530000D01*
X106822000Y-131528000D01*
X106821000Y-131525000D01*
X106821000Y-131523000D01*
X106820000Y-131520000D01*
X106820000Y-131518000D01*
X106820000Y-131515000D01*
X106820000Y-131235000D01*
X106820000Y-131232000D01*
X106820000Y-131230000D01*
X106821000Y-131227000D01*
X106821000Y-131225000D01*
X106822000Y-131222000D01*
X106822000Y-131220000D01*
X106823000Y-131217000D01*
X106824000Y-131215000D01*
X106825000Y-131212000D01*
X106827000Y-131210000D01*
X106828000Y-131208000D01*
X106830000Y-131206000D01*
X106831000Y-131204000D01*
X106833000Y-131202000D01*
X106835000Y-131200000D01*
X106837000Y-131198000D01*
X106839000Y-131196000D01*
X106841000Y-131195000D01*
X106843000Y-131193000D01*
X106845000Y-131192000D01*
X106847000Y-131190000D01*
X106850000Y-131189000D01*
X106852000Y-131188000D01*
X106855000Y-131187000D01*
X106857000Y-131187000D01*
X106860000Y-131186000D01*
X106862000Y-131186000D01*
X106865000Y-131185000D01*
X106867000Y-131185000D01*
X106870000Y-131185000D01*
X107510000Y-131185000D01*
X107513000Y-131185000D01*
X107515000Y-131185000D01*
X107518000Y-131186000D01*
G37*
X107518000Y-131686000D02*
X107520000Y-131686000D01*
X107523000Y-131687000D01*
X107525000Y-131687000D01*
X107528000Y-131688000D01*
X107530000Y-131689000D01*
X107533000Y-131690000D01*
X107535000Y-131692000D01*
X107537000Y-131693000D01*
X107539000Y-131695000D01*
X107541000Y-131696000D01*
X107543000Y-131698000D01*
X107545000Y-131700000D01*
X107547000Y-131702000D01*
X107549000Y-131704000D01*
X107550000Y-131706000D01*
X107552000Y-131708000D01*
X107553000Y-131710000D01*
X107555000Y-131712000D01*
X107556000Y-131715000D01*
X107557000Y-131717000D01*
X107558000Y-131720000D01*
X107558000Y-131722000D01*
X107559000Y-131725000D01*
X107559000Y-131727000D01*
X107560000Y-131730000D01*
X107560000Y-131732000D01*
X107560000Y-131735000D01*
X107560000Y-132015000D01*
X107560000Y-132018000D01*
X107560000Y-132020000D01*
X107559000Y-132023000D01*
X107559000Y-132025000D01*
X107558000Y-132028000D01*
X107558000Y-132030000D01*
X107557000Y-132033000D01*
X107556000Y-132035000D01*
X107555000Y-132038000D01*
X107553000Y-132040000D01*
X107552000Y-132042000D01*
X107550000Y-132044000D01*
X107549000Y-132046000D01*
X107547000Y-132048000D01*
X107545000Y-132050000D01*
X107543000Y-132052000D01*
X107541000Y-132054000D01*
X107539000Y-132055000D01*
X107537000Y-132057000D01*
X107535000Y-132058000D01*
X107533000Y-132060000D01*
X107530000Y-132061000D01*
X107528000Y-132062000D01*
X107525000Y-132063000D01*
X107523000Y-132063000D01*
X107520000Y-132064000D01*
X107518000Y-132064000D01*
X107515000Y-132065000D01*
X107513000Y-132065000D01*
X107510000Y-132065000D01*
X106870000Y-132065000D01*
X106867000Y-132065000D01*
X106865000Y-132065000D01*
X106862000Y-132064000D01*
X106860000Y-132064000D01*
X106857000Y-132063000D01*
X106855000Y-132063000D01*
X106852000Y-132062000D01*
X106850000Y-132061000D01*
X106847000Y-132060000D01*
X106845000Y-132058000D01*
X106843000Y-132057000D01*
X106841000Y-132055000D01*
X106839000Y-132054000D01*
X106837000Y-132052000D01*
X106835000Y-132050000D01*
X106833000Y-132048000D01*
X106831000Y-132046000D01*
X106830000Y-132044000D01*
X106828000Y-132042000D01*
X106827000Y-132040000D01*
X106825000Y-132038000D01*
X106824000Y-132035000D01*
X106823000Y-132033000D01*
X106822000Y-132030000D01*
X106822000Y-132028000D01*
X106821000Y-132025000D01*
X106821000Y-132023000D01*
X106820000Y-132020000D01*
X106820000Y-132018000D01*
X106820000Y-132015000D01*
X106820000Y-131735000D01*
X106820000Y-131732000D01*
X106820000Y-131730000D01*
X106821000Y-131727000D01*
X106821000Y-131725000D01*
X106822000Y-131722000D01*
X106822000Y-131720000D01*
X106823000Y-131717000D01*
X106824000Y-131715000D01*
X106825000Y-131712000D01*
X106827000Y-131710000D01*
X106828000Y-131708000D01*
X106830000Y-131706000D01*
X106831000Y-131704000D01*
X106833000Y-131702000D01*
X106835000Y-131700000D01*
X106837000Y-131698000D01*
X106839000Y-131696000D01*
X106841000Y-131695000D01*
X106843000Y-131693000D01*
X106845000Y-131692000D01*
X106847000Y-131690000D01*
X106850000Y-131689000D01*
X106852000Y-131688000D01*
X106855000Y-131687000D01*
X106857000Y-131687000D01*
X106860000Y-131686000D01*
X106862000Y-131686000D01*
X106865000Y-131685000D01*
X106867000Y-131685000D01*
X106870000Y-131685000D01*
X107510000Y-131685000D01*
X107513000Y-131685000D01*
X107515000Y-131685000D01*
X107518000Y-131686000D01*
G36*
X107518000Y-131686000D02*
G01*
X107520000Y-131686000D01*
X107523000Y-131687000D01*
X107525000Y-131687000D01*
X107528000Y-131688000D01*
X107530000Y-131689000D01*
X107533000Y-131690000D01*
X107535000Y-131692000D01*
X107537000Y-131693000D01*
X107539000Y-131695000D01*
X107541000Y-131696000D01*
X107543000Y-131698000D01*
X107545000Y-131700000D01*
X107547000Y-131702000D01*
X107549000Y-131704000D01*
X107550000Y-131706000D01*
X107552000Y-131708000D01*
X107553000Y-131710000D01*
X107555000Y-131712000D01*
X107556000Y-131715000D01*
X107557000Y-131717000D01*
X107558000Y-131720000D01*
X107558000Y-131722000D01*
X107559000Y-131725000D01*
X107559000Y-131727000D01*
X107560000Y-131730000D01*
X107560000Y-131732000D01*
X107560000Y-131735000D01*
X107560000Y-132015000D01*
X107560000Y-132018000D01*
X107560000Y-132020000D01*
X107559000Y-132023000D01*
X107559000Y-132025000D01*
X107558000Y-132028000D01*
X107558000Y-132030000D01*
X107557000Y-132033000D01*
X107556000Y-132035000D01*
X107555000Y-132038000D01*
X107553000Y-132040000D01*
X107552000Y-132042000D01*
X107550000Y-132044000D01*
X107549000Y-132046000D01*
X107547000Y-132048000D01*
X107545000Y-132050000D01*
X107543000Y-132052000D01*
X107541000Y-132054000D01*
X107539000Y-132055000D01*
X107537000Y-132057000D01*
X107535000Y-132058000D01*
X107533000Y-132060000D01*
X107530000Y-132061000D01*
X107528000Y-132062000D01*
X107525000Y-132063000D01*
X107523000Y-132063000D01*
X107520000Y-132064000D01*
X107518000Y-132064000D01*
X107515000Y-132065000D01*
X107513000Y-132065000D01*
X107510000Y-132065000D01*
X106870000Y-132065000D01*
X106867000Y-132065000D01*
X106865000Y-132065000D01*
X106862000Y-132064000D01*
X106860000Y-132064000D01*
X106857000Y-132063000D01*
X106855000Y-132063000D01*
X106852000Y-132062000D01*
X106850000Y-132061000D01*
X106847000Y-132060000D01*
X106845000Y-132058000D01*
X106843000Y-132057000D01*
X106841000Y-132055000D01*
X106839000Y-132054000D01*
X106837000Y-132052000D01*
X106835000Y-132050000D01*
X106833000Y-132048000D01*
X106831000Y-132046000D01*
X106830000Y-132044000D01*
X106828000Y-132042000D01*
X106827000Y-132040000D01*
X106825000Y-132038000D01*
X106824000Y-132035000D01*
X106823000Y-132033000D01*
X106822000Y-132030000D01*
X106822000Y-132028000D01*
X106821000Y-132025000D01*
X106821000Y-132023000D01*
X106820000Y-132020000D01*
X106820000Y-132018000D01*
X106820000Y-132015000D01*
X106820000Y-131735000D01*
X106820000Y-131732000D01*
X106820000Y-131730000D01*
X106821000Y-131727000D01*
X106821000Y-131725000D01*
X106822000Y-131722000D01*
X106822000Y-131720000D01*
X106823000Y-131717000D01*
X106824000Y-131715000D01*
X106825000Y-131712000D01*
X106827000Y-131710000D01*
X106828000Y-131708000D01*
X106830000Y-131706000D01*
X106831000Y-131704000D01*
X106833000Y-131702000D01*
X106835000Y-131700000D01*
X106837000Y-131698000D01*
X106839000Y-131696000D01*
X106841000Y-131695000D01*
X106843000Y-131693000D01*
X106845000Y-131692000D01*
X106847000Y-131690000D01*
X106850000Y-131689000D01*
X106852000Y-131688000D01*
X106855000Y-131687000D01*
X106857000Y-131687000D01*
X106860000Y-131686000D01*
X106862000Y-131686000D01*
X106865000Y-131685000D01*
X106867000Y-131685000D01*
X106870000Y-131685000D01*
X107510000Y-131685000D01*
X107513000Y-131685000D01*
X107515000Y-131685000D01*
X107518000Y-131686000D01*
G37*
X107518000Y-132186000D02*
X107520000Y-132186000D01*
X107523000Y-132187000D01*
X107525000Y-132187000D01*
X107528000Y-132188000D01*
X107530000Y-132189000D01*
X107533000Y-132190000D01*
X107535000Y-132192000D01*
X107537000Y-132193000D01*
X107539000Y-132195000D01*
X107541000Y-132196000D01*
X107543000Y-132198000D01*
X107545000Y-132200000D01*
X107547000Y-132202000D01*
X107549000Y-132204000D01*
X107550000Y-132206000D01*
X107552000Y-132208000D01*
X107553000Y-132210000D01*
X107555000Y-132212000D01*
X107556000Y-132215000D01*
X107557000Y-132217000D01*
X107558000Y-132220000D01*
X107558000Y-132222000D01*
X107559000Y-132225000D01*
X107559000Y-132227000D01*
X107560000Y-132230000D01*
X107560000Y-132232000D01*
X107560000Y-132235000D01*
X107560000Y-132515000D01*
X107560000Y-132518000D01*
X107560000Y-132520000D01*
X107559000Y-132523000D01*
X107559000Y-132525000D01*
X107558000Y-132528000D01*
X107558000Y-132530000D01*
X107557000Y-132533000D01*
X107556000Y-132535000D01*
X107555000Y-132538000D01*
X107553000Y-132540000D01*
X107552000Y-132542000D01*
X107550000Y-132544000D01*
X107549000Y-132546000D01*
X107547000Y-132548000D01*
X107545000Y-132550000D01*
X107543000Y-132552000D01*
X107541000Y-132554000D01*
X107539000Y-132555000D01*
X107537000Y-132557000D01*
X107535000Y-132558000D01*
X107533000Y-132560000D01*
X107530000Y-132561000D01*
X107528000Y-132562000D01*
X107525000Y-132563000D01*
X107523000Y-132563000D01*
X107520000Y-132564000D01*
X107518000Y-132564000D01*
X107515000Y-132565000D01*
X107513000Y-132565000D01*
X107510000Y-132565000D01*
X106870000Y-132565000D01*
X106867000Y-132565000D01*
X106865000Y-132565000D01*
X106862000Y-132564000D01*
X106860000Y-132564000D01*
X106857000Y-132563000D01*
X106855000Y-132563000D01*
X106852000Y-132562000D01*
X106850000Y-132561000D01*
X106847000Y-132560000D01*
X106845000Y-132558000D01*
X106843000Y-132557000D01*
X106841000Y-132555000D01*
X106839000Y-132554000D01*
X106837000Y-132552000D01*
X106835000Y-132550000D01*
X106833000Y-132548000D01*
X106831000Y-132546000D01*
X106830000Y-132544000D01*
X106828000Y-132542000D01*
X106827000Y-132540000D01*
X106825000Y-132538000D01*
X106824000Y-132535000D01*
X106823000Y-132533000D01*
X106822000Y-132530000D01*
X106822000Y-132528000D01*
X106821000Y-132525000D01*
X106821000Y-132523000D01*
X106820000Y-132520000D01*
X106820000Y-132518000D01*
X106820000Y-132515000D01*
X106820000Y-132235000D01*
X106820000Y-132232000D01*
X106820000Y-132230000D01*
X106821000Y-132227000D01*
X106821000Y-132225000D01*
X106822000Y-132222000D01*
X106822000Y-132220000D01*
X106823000Y-132217000D01*
X106824000Y-132215000D01*
X106825000Y-132212000D01*
X106827000Y-132210000D01*
X106828000Y-132208000D01*
X106830000Y-132206000D01*
X106831000Y-132204000D01*
X106833000Y-132202000D01*
X106835000Y-132200000D01*
X106837000Y-132198000D01*
X106839000Y-132196000D01*
X106841000Y-132195000D01*
X106843000Y-132193000D01*
X106845000Y-132192000D01*
X106847000Y-132190000D01*
X106850000Y-132189000D01*
X106852000Y-132188000D01*
X106855000Y-132187000D01*
X106857000Y-132187000D01*
X106860000Y-132186000D01*
X106862000Y-132186000D01*
X106865000Y-132185000D01*
X106867000Y-132185000D01*
X106870000Y-132185000D01*
X107510000Y-132185000D01*
X107513000Y-132185000D01*
X107515000Y-132185000D01*
X107518000Y-132186000D01*
G36*
X107518000Y-132186000D02*
G01*
X107520000Y-132186000D01*
X107523000Y-132187000D01*
X107525000Y-132187000D01*
X107528000Y-132188000D01*
X107530000Y-132189000D01*
X107533000Y-132190000D01*
X107535000Y-132192000D01*
X107537000Y-132193000D01*
X107539000Y-132195000D01*
X107541000Y-132196000D01*
X107543000Y-132198000D01*
X107545000Y-132200000D01*
X107547000Y-132202000D01*
X107549000Y-132204000D01*
X107550000Y-132206000D01*
X107552000Y-132208000D01*
X107553000Y-132210000D01*
X107555000Y-132212000D01*
X107556000Y-132215000D01*
X107557000Y-132217000D01*
X107558000Y-132220000D01*
X107558000Y-132222000D01*
X107559000Y-132225000D01*
X107559000Y-132227000D01*
X107560000Y-132230000D01*
X107560000Y-132232000D01*
X107560000Y-132235000D01*
X107560000Y-132515000D01*
X107560000Y-132518000D01*
X107560000Y-132520000D01*
X107559000Y-132523000D01*
X107559000Y-132525000D01*
X107558000Y-132528000D01*
X107558000Y-132530000D01*
X107557000Y-132533000D01*
X107556000Y-132535000D01*
X107555000Y-132538000D01*
X107553000Y-132540000D01*
X107552000Y-132542000D01*
X107550000Y-132544000D01*
X107549000Y-132546000D01*
X107547000Y-132548000D01*
X107545000Y-132550000D01*
X107543000Y-132552000D01*
X107541000Y-132554000D01*
X107539000Y-132555000D01*
X107537000Y-132557000D01*
X107535000Y-132558000D01*
X107533000Y-132560000D01*
X107530000Y-132561000D01*
X107528000Y-132562000D01*
X107525000Y-132563000D01*
X107523000Y-132563000D01*
X107520000Y-132564000D01*
X107518000Y-132564000D01*
X107515000Y-132565000D01*
X107513000Y-132565000D01*
X107510000Y-132565000D01*
X106870000Y-132565000D01*
X106867000Y-132565000D01*
X106865000Y-132565000D01*
X106862000Y-132564000D01*
X106860000Y-132564000D01*
X106857000Y-132563000D01*
X106855000Y-132563000D01*
X106852000Y-132562000D01*
X106850000Y-132561000D01*
X106847000Y-132560000D01*
X106845000Y-132558000D01*
X106843000Y-132557000D01*
X106841000Y-132555000D01*
X106839000Y-132554000D01*
X106837000Y-132552000D01*
X106835000Y-132550000D01*
X106833000Y-132548000D01*
X106831000Y-132546000D01*
X106830000Y-132544000D01*
X106828000Y-132542000D01*
X106827000Y-132540000D01*
X106825000Y-132538000D01*
X106824000Y-132535000D01*
X106823000Y-132533000D01*
X106822000Y-132530000D01*
X106822000Y-132528000D01*
X106821000Y-132525000D01*
X106821000Y-132523000D01*
X106820000Y-132520000D01*
X106820000Y-132518000D01*
X106820000Y-132515000D01*
X106820000Y-132235000D01*
X106820000Y-132232000D01*
X106820000Y-132230000D01*
X106821000Y-132227000D01*
X106821000Y-132225000D01*
X106822000Y-132222000D01*
X106822000Y-132220000D01*
X106823000Y-132217000D01*
X106824000Y-132215000D01*
X106825000Y-132212000D01*
X106827000Y-132210000D01*
X106828000Y-132208000D01*
X106830000Y-132206000D01*
X106831000Y-132204000D01*
X106833000Y-132202000D01*
X106835000Y-132200000D01*
X106837000Y-132198000D01*
X106839000Y-132196000D01*
X106841000Y-132195000D01*
X106843000Y-132193000D01*
X106845000Y-132192000D01*
X106847000Y-132190000D01*
X106850000Y-132189000D01*
X106852000Y-132188000D01*
X106855000Y-132187000D01*
X106857000Y-132187000D01*
X106860000Y-132186000D01*
X106862000Y-132186000D01*
X106865000Y-132185000D01*
X106867000Y-132185000D01*
X106870000Y-132185000D01*
X107510000Y-132185000D01*
X107513000Y-132185000D01*
X107515000Y-132185000D01*
X107518000Y-132186000D01*
G37*
X107518000Y-132686000D02*
X107520000Y-132686000D01*
X107523000Y-132687000D01*
X107525000Y-132687000D01*
X107528000Y-132688000D01*
X107530000Y-132689000D01*
X107533000Y-132690000D01*
X107535000Y-132692000D01*
X107537000Y-132693000D01*
X107539000Y-132695000D01*
X107541000Y-132696000D01*
X107543000Y-132698000D01*
X107545000Y-132700000D01*
X107547000Y-132702000D01*
X107549000Y-132704000D01*
X107550000Y-132706000D01*
X107552000Y-132708000D01*
X107553000Y-132710000D01*
X107555000Y-132712000D01*
X107556000Y-132715000D01*
X107557000Y-132717000D01*
X107558000Y-132720000D01*
X107558000Y-132722000D01*
X107559000Y-132725000D01*
X107559000Y-132727000D01*
X107560000Y-132730000D01*
X107560000Y-132732000D01*
X107560000Y-132735000D01*
X107560000Y-133015000D01*
X107560000Y-133018000D01*
X107560000Y-133020000D01*
X107559000Y-133023000D01*
X107559000Y-133025000D01*
X107558000Y-133028000D01*
X107558000Y-133030000D01*
X107557000Y-133033000D01*
X107556000Y-133035000D01*
X107555000Y-133038000D01*
X107553000Y-133040000D01*
X107552000Y-133042000D01*
X107550000Y-133044000D01*
X107549000Y-133046000D01*
X107547000Y-133048000D01*
X107545000Y-133050000D01*
X107543000Y-133052000D01*
X107541000Y-133054000D01*
X107539000Y-133055000D01*
X107537000Y-133057000D01*
X107535000Y-133058000D01*
X107533000Y-133060000D01*
X107530000Y-133061000D01*
X107528000Y-133062000D01*
X107525000Y-133063000D01*
X107523000Y-133063000D01*
X107520000Y-133064000D01*
X107518000Y-133064000D01*
X107515000Y-133065000D01*
X107513000Y-133065000D01*
X107510000Y-133065000D01*
X106870000Y-133065000D01*
X106867000Y-133065000D01*
X106865000Y-133065000D01*
X106862000Y-133064000D01*
X106860000Y-133064000D01*
X106857000Y-133063000D01*
X106855000Y-133063000D01*
X106852000Y-133062000D01*
X106850000Y-133061000D01*
X106847000Y-133060000D01*
X106845000Y-133058000D01*
X106843000Y-133057000D01*
X106841000Y-133055000D01*
X106839000Y-133054000D01*
X106837000Y-133052000D01*
X106835000Y-133050000D01*
X106833000Y-133048000D01*
X106831000Y-133046000D01*
X106830000Y-133044000D01*
X106828000Y-133042000D01*
X106827000Y-133040000D01*
X106825000Y-133038000D01*
X106824000Y-133035000D01*
X106823000Y-133033000D01*
X106822000Y-133030000D01*
X106822000Y-133028000D01*
X106821000Y-133025000D01*
X106821000Y-133023000D01*
X106820000Y-133020000D01*
X106820000Y-133018000D01*
X106820000Y-133015000D01*
X106820000Y-132735000D01*
X106820000Y-132732000D01*
X106820000Y-132730000D01*
X106821000Y-132727000D01*
X106821000Y-132725000D01*
X106822000Y-132722000D01*
X106822000Y-132720000D01*
X106823000Y-132717000D01*
X106824000Y-132715000D01*
X106825000Y-132712000D01*
X106827000Y-132710000D01*
X106828000Y-132708000D01*
X106830000Y-132706000D01*
X106831000Y-132704000D01*
X106833000Y-132702000D01*
X106835000Y-132700000D01*
X106837000Y-132698000D01*
X106839000Y-132696000D01*
X106841000Y-132695000D01*
X106843000Y-132693000D01*
X106845000Y-132692000D01*
X106847000Y-132690000D01*
X106850000Y-132689000D01*
X106852000Y-132688000D01*
X106855000Y-132687000D01*
X106857000Y-132687000D01*
X106860000Y-132686000D01*
X106862000Y-132686000D01*
X106865000Y-132685000D01*
X106867000Y-132685000D01*
X106870000Y-132685000D01*
X107510000Y-132685000D01*
X107513000Y-132685000D01*
X107515000Y-132685000D01*
X107518000Y-132686000D01*
G36*
X107518000Y-132686000D02*
G01*
X107520000Y-132686000D01*
X107523000Y-132687000D01*
X107525000Y-132687000D01*
X107528000Y-132688000D01*
X107530000Y-132689000D01*
X107533000Y-132690000D01*
X107535000Y-132692000D01*
X107537000Y-132693000D01*
X107539000Y-132695000D01*
X107541000Y-132696000D01*
X107543000Y-132698000D01*
X107545000Y-132700000D01*
X107547000Y-132702000D01*
X107549000Y-132704000D01*
X107550000Y-132706000D01*
X107552000Y-132708000D01*
X107553000Y-132710000D01*
X107555000Y-132712000D01*
X107556000Y-132715000D01*
X107557000Y-132717000D01*
X107558000Y-132720000D01*
X107558000Y-132722000D01*
X107559000Y-132725000D01*
X107559000Y-132727000D01*
X107560000Y-132730000D01*
X107560000Y-132732000D01*
X107560000Y-132735000D01*
X107560000Y-133015000D01*
X107560000Y-133018000D01*
X107560000Y-133020000D01*
X107559000Y-133023000D01*
X107559000Y-133025000D01*
X107558000Y-133028000D01*
X107558000Y-133030000D01*
X107557000Y-133033000D01*
X107556000Y-133035000D01*
X107555000Y-133038000D01*
X107553000Y-133040000D01*
X107552000Y-133042000D01*
X107550000Y-133044000D01*
X107549000Y-133046000D01*
X107547000Y-133048000D01*
X107545000Y-133050000D01*
X107543000Y-133052000D01*
X107541000Y-133054000D01*
X107539000Y-133055000D01*
X107537000Y-133057000D01*
X107535000Y-133058000D01*
X107533000Y-133060000D01*
X107530000Y-133061000D01*
X107528000Y-133062000D01*
X107525000Y-133063000D01*
X107523000Y-133063000D01*
X107520000Y-133064000D01*
X107518000Y-133064000D01*
X107515000Y-133065000D01*
X107513000Y-133065000D01*
X107510000Y-133065000D01*
X106870000Y-133065000D01*
X106867000Y-133065000D01*
X106865000Y-133065000D01*
X106862000Y-133064000D01*
X106860000Y-133064000D01*
X106857000Y-133063000D01*
X106855000Y-133063000D01*
X106852000Y-133062000D01*
X106850000Y-133061000D01*
X106847000Y-133060000D01*
X106845000Y-133058000D01*
X106843000Y-133057000D01*
X106841000Y-133055000D01*
X106839000Y-133054000D01*
X106837000Y-133052000D01*
X106835000Y-133050000D01*
X106833000Y-133048000D01*
X106831000Y-133046000D01*
X106830000Y-133044000D01*
X106828000Y-133042000D01*
X106827000Y-133040000D01*
X106825000Y-133038000D01*
X106824000Y-133035000D01*
X106823000Y-133033000D01*
X106822000Y-133030000D01*
X106822000Y-133028000D01*
X106821000Y-133025000D01*
X106821000Y-133023000D01*
X106820000Y-133020000D01*
X106820000Y-133018000D01*
X106820000Y-133015000D01*
X106820000Y-132735000D01*
X106820000Y-132732000D01*
X106820000Y-132730000D01*
X106821000Y-132727000D01*
X106821000Y-132725000D01*
X106822000Y-132722000D01*
X106822000Y-132720000D01*
X106823000Y-132717000D01*
X106824000Y-132715000D01*
X106825000Y-132712000D01*
X106827000Y-132710000D01*
X106828000Y-132708000D01*
X106830000Y-132706000D01*
X106831000Y-132704000D01*
X106833000Y-132702000D01*
X106835000Y-132700000D01*
X106837000Y-132698000D01*
X106839000Y-132696000D01*
X106841000Y-132695000D01*
X106843000Y-132693000D01*
X106845000Y-132692000D01*
X106847000Y-132690000D01*
X106850000Y-132689000D01*
X106852000Y-132688000D01*
X106855000Y-132687000D01*
X106857000Y-132687000D01*
X106860000Y-132686000D01*
X106862000Y-132686000D01*
X106865000Y-132685000D01*
X106867000Y-132685000D01*
X106870000Y-132685000D01*
X107510000Y-132685000D01*
X107513000Y-132685000D01*
X107515000Y-132685000D01*
X107518000Y-132686000D01*
G37*
X105693000Y-130106000D02*
X105695000Y-130106000D01*
X105698000Y-130107000D01*
X105700000Y-130107000D01*
X105703000Y-130108000D01*
X105705000Y-130109000D01*
X105708000Y-130110000D01*
X105710000Y-130112000D01*
X105712000Y-130113000D01*
X105714000Y-130115000D01*
X105716000Y-130116000D01*
X105718000Y-130118000D01*
X105720000Y-130120000D01*
X105722000Y-130122000D01*
X105724000Y-130124000D01*
X105725000Y-130126000D01*
X105727000Y-130128000D01*
X105728000Y-130130000D01*
X105730000Y-130132000D01*
X105731000Y-130135000D01*
X105732000Y-130137000D01*
X105733000Y-130140000D01*
X105733000Y-130142000D01*
X105734000Y-130145000D01*
X105734000Y-130147000D01*
X105735000Y-130150000D01*
X105735000Y-130152000D01*
X105735000Y-130155000D01*
X105735000Y-130605000D01*
X105845000Y-130605000D01*
X105845000Y-130155000D01*
X105845000Y-130152000D01*
X105845000Y-130150000D01*
X105846000Y-130147000D01*
X105846000Y-130145000D01*
X105847000Y-130142000D01*
X105847000Y-130140000D01*
X105848000Y-130137000D01*
X105849000Y-130135000D01*
X105850000Y-130132000D01*
X105852000Y-130130000D01*
X105853000Y-130128000D01*
X105855000Y-130126000D01*
X105856000Y-130124000D01*
X105858000Y-130122000D01*
X105860000Y-130120000D01*
X105862000Y-130118000D01*
X105864000Y-130116000D01*
X105866000Y-130115000D01*
X105868000Y-130113000D01*
X105870000Y-130112000D01*
X105872000Y-130110000D01*
X105875000Y-130109000D01*
X105877000Y-130108000D01*
X105880000Y-130107000D01*
X105882000Y-130107000D01*
X105885000Y-130106000D01*
X105887000Y-130106000D01*
X105890000Y-130105000D01*
X105892000Y-130105000D01*
X105895000Y-130105000D01*
X106185000Y-130105000D01*
X106188000Y-130105000D01*
X106190000Y-130105000D01*
X106193000Y-130106000D01*
X106195000Y-130106000D01*
X106198000Y-130107000D01*
X106200000Y-130107000D01*
X106203000Y-130108000D01*
X106205000Y-130109000D01*
X106208000Y-130110000D01*
X106210000Y-130112000D01*
X106212000Y-130113000D01*
X106214000Y-130115000D01*
X106216000Y-130116000D01*
X106218000Y-130118000D01*
X106220000Y-130120000D01*
X106222000Y-130122000D01*
X106224000Y-130124000D01*
X106225000Y-130126000D01*
X106227000Y-130128000D01*
X106228000Y-130130000D01*
X106230000Y-130132000D01*
X106231000Y-130135000D01*
X106232000Y-130137000D01*
X106233000Y-130140000D01*
X106233000Y-130142000D01*
X106234000Y-130145000D01*
X106234000Y-130147000D01*
X106235000Y-130150000D01*
X106235000Y-130152000D01*
X106235000Y-130155000D01*
X106235000Y-130605000D01*
X106635000Y-130605000D01*
X106638000Y-130605000D01*
X106640000Y-130605000D01*
X106643000Y-130606000D01*
X106645000Y-130606000D01*
X106648000Y-130607000D01*
X106650000Y-130607000D01*
X106653000Y-130608000D01*
X106655000Y-130609000D01*
X106658000Y-130610000D01*
X106660000Y-130612000D01*
X106662000Y-130613000D01*
X106664000Y-130615000D01*
X106666000Y-130616000D01*
X106668000Y-130618000D01*
X106670000Y-130620000D01*
X106672000Y-130622000D01*
X106674000Y-130624000D01*
X106675000Y-130626000D01*
X106677000Y-130628000D01*
X106678000Y-130630000D01*
X106680000Y-130632000D01*
X106681000Y-130635000D01*
X106682000Y-130637000D01*
X106683000Y-130640000D01*
X106683000Y-130642000D01*
X106684000Y-130645000D01*
X106684000Y-130647000D01*
X106685000Y-130650000D01*
X106685000Y-130652000D01*
X106685000Y-130655000D01*
X106685000Y-133095000D01*
X106685000Y-133098000D01*
X106685000Y-133100000D01*
X106684000Y-133103000D01*
X106684000Y-133105000D01*
X106683000Y-133108000D01*
X106683000Y-133110000D01*
X106682000Y-133113000D01*
X106681000Y-133115000D01*
X106680000Y-133118000D01*
X106678000Y-133120000D01*
X106677000Y-133122000D01*
X106675000Y-133124000D01*
X106674000Y-133126000D01*
X106672000Y-133128000D01*
X106670000Y-133130000D01*
X106668000Y-133132000D01*
X106666000Y-133134000D01*
X106664000Y-133135000D01*
X106662000Y-133137000D01*
X106660000Y-133138000D01*
X106658000Y-133140000D01*
X106655000Y-133141000D01*
X106653000Y-133142000D01*
X106650000Y-133143000D01*
X106648000Y-133143000D01*
X106645000Y-133144000D01*
X106643000Y-133144000D01*
X106640000Y-133145000D01*
X106638000Y-133145000D01*
X106635000Y-133145000D01*
X106235000Y-133145000D01*
X106235000Y-133595000D01*
X106235000Y-133598000D01*
X106235000Y-133600000D01*
X106234000Y-133603000D01*
X106234000Y-133605000D01*
X106233000Y-133608000D01*
X106233000Y-133610000D01*
X106232000Y-133613000D01*
X106231000Y-133615000D01*
X106230000Y-133618000D01*
X106228000Y-133620000D01*
X106227000Y-133622000D01*
X106225000Y-133624000D01*
X106224000Y-133626000D01*
X106222000Y-133628000D01*
X106220000Y-133630000D01*
X106218000Y-133632000D01*
X106216000Y-133634000D01*
X106214000Y-133635000D01*
X106212000Y-133637000D01*
X106210000Y-133638000D01*
X106208000Y-133640000D01*
X106205000Y-133641000D01*
X106203000Y-133642000D01*
X106200000Y-133643000D01*
X106198000Y-133643000D01*
X106195000Y-133644000D01*
X106193000Y-133644000D01*
X106190000Y-133645000D01*
X106188000Y-133645000D01*
X106185000Y-133645000D01*
X105895000Y-133645000D01*
X105892000Y-133645000D01*
X105890000Y-133645000D01*
X105887000Y-133644000D01*
X105885000Y-133644000D01*
X105882000Y-133643000D01*
X105880000Y-133643000D01*
X105877000Y-133642000D01*
X105875000Y-133641000D01*
X105872000Y-133640000D01*
X105870000Y-133638000D01*
X105868000Y-133637000D01*
X105866000Y-133635000D01*
X105864000Y-133634000D01*
X105862000Y-133632000D01*
X105860000Y-133630000D01*
X105858000Y-133628000D01*
X105856000Y-133626000D01*
X105855000Y-133624000D01*
X105853000Y-133622000D01*
X105852000Y-133620000D01*
X105850000Y-133618000D01*
X105849000Y-133615000D01*
X105848000Y-133613000D01*
X105847000Y-133610000D01*
X105847000Y-133608000D01*
X105846000Y-133605000D01*
X105846000Y-133603000D01*
X105845000Y-133600000D01*
X105845000Y-133598000D01*
X105845000Y-133595000D01*
X105845000Y-133145000D01*
X105735000Y-133145000D01*
X105735000Y-133595000D01*
X105735000Y-133598000D01*
X105735000Y-133600000D01*
X105734000Y-133603000D01*
X105734000Y-133605000D01*
X105733000Y-133608000D01*
X105733000Y-133610000D01*
X105732000Y-133613000D01*
X105731000Y-133615000D01*
X105730000Y-133618000D01*
X105728000Y-133620000D01*
X105727000Y-133622000D01*
X105725000Y-133624000D01*
X105724000Y-133626000D01*
X105722000Y-133628000D01*
X105720000Y-133630000D01*
X105718000Y-133632000D01*
X105716000Y-133634000D01*
X105714000Y-133635000D01*
X105712000Y-133637000D01*
X105710000Y-133638000D01*
X105708000Y-133640000D01*
X105705000Y-133641000D01*
X105703000Y-133642000D01*
X105700000Y-133643000D01*
X105698000Y-133643000D01*
X105695000Y-133644000D01*
X105693000Y-133644000D01*
X105690000Y-133645000D01*
X105688000Y-133645000D01*
X105685000Y-133645000D01*
X105395000Y-133645000D01*
X105392000Y-133645000D01*
X105390000Y-133645000D01*
X105387000Y-133644000D01*
X105385000Y-133644000D01*
X105382000Y-133643000D01*
X105380000Y-133643000D01*
X105377000Y-133642000D01*
X105375000Y-133641000D01*
X105372000Y-133640000D01*
X105370000Y-133638000D01*
X105368000Y-133637000D01*
X105366000Y-133635000D01*
X105364000Y-133634000D01*
X105362000Y-133632000D01*
X105360000Y-133630000D01*
X105358000Y-133628000D01*
X105356000Y-133626000D01*
X105355000Y-133624000D01*
X105353000Y-133622000D01*
X105352000Y-133620000D01*
X105350000Y-133618000D01*
X105349000Y-133615000D01*
X105348000Y-133613000D01*
X105347000Y-133610000D01*
X105347000Y-133608000D01*
X105346000Y-133605000D01*
X105346000Y-133603000D01*
X105345000Y-133600000D01*
X105345000Y-133598000D01*
X105345000Y-133595000D01*
X105345000Y-133145000D01*
X104945000Y-133145000D01*
X104942000Y-133145000D01*
X104940000Y-133145000D01*
X104937000Y-133144000D01*
X104935000Y-133144000D01*
X104932000Y-133143000D01*
X104930000Y-133143000D01*
X104927000Y-133142000D01*
X104925000Y-133141000D01*
X104922000Y-133140000D01*
X104920000Y-133138000D01*
X104918000Y-133137000D01*
X104916000Y-133135000D01*
X104914000Y-133134000D01*
X104912000Y-133132000D01*
X104910000Y-133130000D01*
X104908000Y-133128000D01*
X104906000Y-133126000D01*
X104905000Y-133124000D01*
X104903000Y-133122000D01*
X104902000Y-133120000D01*
X104900000Y-133118000D01*
X104899000Y-133115000D01*
X104898000Y-133113000D01*
X104897000Y-133110000D01*
X104897000Y-133108000D01*
X104896000Y-133105000D01*
X104896000Y-133103000D01*
X104895000Y-133100000D01*
X104895000Y-133098000D01*
X104895000Y-133095000D01*
X104895000Y-130655000D01*
X104895000Y-130652000D01*
X104895000Y-130650000D01*
X104896000Y-130647000D01*
X104896000Y-130645000D01*
X104897000Y-130642000D01*
X104897000Y-130640000D01*
X104898000Y-130637000D01*
X104899000Y-130635000D01*
X104900000Y-130632000D01*
X104902000Y-130630000D01*
X104903000Y-130628000D01*
X104905000Y-130626000D01*
X104906000Y-130624000D01*
X104908000Y-130622000D01*
X104910000Y-130620000D01*
X104912000Y-130618000D01*
X104914000Y-130616000D01*
X104916000Y-130615000D01*
X104918000Y-130613000D01*
X104920000Y-130612000D01*
X104922000Y-130610000D01*
X104925000Y-130609000D01*
X104927000Y-130608000D01*
X104930000Y-130607000D01*
X104932000Y-130607000D01*
X104935000Y-130606000D01*
X104937000Y-130606000D01*
X104940000Y-130605000D01*
X104942000Y-130605000D01*
X104945000Y-130605000D01*
X105345000Y-130605000D01*
X105345000Y-130155000D01*
X105345000Y-130152000D01*
X105345000Y-130150000D01*
X105346000Y-130147000D01*
X105346000Y-130145000D01*
X105347000Y-130142000D01*
X105347000Y-130140000D01*
X105348000Y-130137000D01*
X105349000Y-130135000D01*
X105350000Y-130132000D01*
X105352000Y-130130000D01*
X105353000Y-130128000D01*
X105355000Y-130126000D01*
X105356000Y-130124000D01*
X105358000Y-130122000D01*
X105360000Y-130120000D01*
X105362000Y-130118000D01*
X105364000Y-130116000D01*
X105366000Y-130115000D01*
X105368000Y-130113000D01*
X105370000Y-130112000D01*
X105372000Y-130110000D01*
X105375000Y-130109000D01*
X105377000Y-130108000D01*
X105380000Y-130107000D01*
X105382000Y-130107000D01*
X105385000Y-130106000D01*
X105387000Y-130106000D01*
X105390000Y-130105000D01*
X105392000Y-130105000D01*
X105395000Y-130105000D01*
X105685000Y-130105000D01*
X105688000Y-130105000D01*
X105690000Y-130105000D01*
X105693000Y-130106000D01*
G36*
X105693000Y-130106000D02*
G01*
X105695000Y-130106000D01*
X105698000Y-130107000D01*
X105700000Y-130107000D01*
X105703000Y-130108000D01*
X105705000Y-130109000D01*
X105708000Y-130110000D01*
X105710000Y-130112000D01*
X105712000Y-130113000D01*
X105714000Y-130115000D01*
X105716000Y-130116000D01*
X105718000Y-130118000D01*
X105720000Y-130120000D01*
X105722000Y-130122000D01*
X105724000Y-130124000D01*
X105725000Y-130126000D01*
X105727000Y-130128000D01*
X105728000Y-130130000D01*
X105730000Y-130132000D01*
X105731000Y-130135000D01*
X105732000Y-130137000D01*
X105733000Y-130140000D01*
X105733000Y-130142000D01*
X105734000Y-130145000D01*
X105734000Y-130147000D01*
X105735000Y-130150000D01*
X105735000Y-130152000D01*
X105735000Y-130155000D01*
X105735000Y-130605000D01*
X105845000Y-130605000D01*
X105845000Y-130155000D01*
X105845000Y-130152000D01*
X105845000Y-130150000D01*
X105846000Y-130147000D01*
X105846000Y-130145000D01*
X105847000Y-130142000D01*
X105847000Y-130140000D01*
X105848000Y-130137000D01*
X105849000Y-130135000D01*
X105850000Y-130132000D01*
X105852000Y-130130000D01*
X105853000Y-130128000D01*
X105855000Y-130126000D01*
X105856000Y-130124000D01*
X105858000Y-130122000D01*
X105860000Y-130120000D01*
X105862000Y-130118000D01*
X105864000Y-130116000D01*
X105866000Y-130115000D01*
X105868000Y-130113000D01*
X105870000Y-130112000D01*
X105872000Y-130110000D01*
X105875000Y-130109000D01*
X105877000Y-130108000D01*
X105880000Y-130107000D01*
X105882000Y-130107000D01*
X105885000Y-130106000D01*
X105887000Y-130106000D01*
X105890000Y-130105000D01*
X105892000Y-130105000D01*
X105895000Y-130105000D01*
X106185000Y-130105000D01*
X106188000Y-130105000D01*
X106190000Y-130105000D01*
X106193000Y-130106000D01*
X106195000Y-130106000D01*
X106198000Y-130107000D01*
X106200000Y-130107000D01*
X106203000Y-130108000D01*
X106205000Y-130109000D01*
X106208000Y-130110000D01*
X106210000Y-130112000D01*
X106212000Y-130113000D01*
X106214000Y-130115000D01*
X106216000Y-130116000D01*
X106218000Y-130118000D01*
X106220000Y-130120000D01*
X106222000Y-130122000D01*
X106224000Y-130124000D01*
X106225000Y-130126000D01*
X106227000Y-130128000D01*
X106228000Y-130130000D01*
X106230000Y-130132000D01*
X106231000Y-130135000D01*
X106232000Y-130137000D01*
X106233000Y-130140000D01*
X106233000Y-130142000D01*
X106234000Y-130145000D01*
X106234000Y-130147000D01*
X106235000Y-130150000D01*
X106235000Y-130152000D01*
X106235000Y-130155000D01*
X106235000Y-130605000D01*
X106635000Y-130605000D01*
X106638000Y-130605000D01*
X106640000Y-130605000D01*
X106643000Y-130606000D01*
X106645000Y-130606000D01*
X106648000Y-130607000D01*
X106650000Y-130607000D01*
X106653000Y-130608000D01*
X106655000Y-130609000D01*
X106658000Y-130610000D01*
X106660000Y-130612000D01*
X106662000Y-130613000D01*
X106664000Y-130615000D01*
X106666000Y-130616000D01*
X106668000Y-130618000D01*
X106670000Y-130620000D01*
X106672000Y-130622000D01*
X106674000Y-130624000D01*
X106675000Y-130626000D01*
X106677000Y-130628000D01*
X106678000Y-130630000D01*
X106680000Y-130632000D01*
X106681000Y-130635000D01*
X106682000Y-130637000D01*
X106683000Y-130640000D01*
X106683000Y-130642000D01*
X106684000Y-130645000D01*
X106684000Y-130647000D01*
X106685000Y-130650000D01*
X106685000Y-130652000D01*
X106685000Y-130655000D01*
X106685000Y-133095000D01*
X106685000Y-133098000D01*
X106685000Y-133100000D01*
X106684000Y-133103000D01*
X106684000Y-133105000D01*
X106683000Y-133108000D01*
X106683000Y-133110000D01*
X106682000Y-133113000D01*
X106681000Y-133115000D01*
X106680000Y-133118000D01*
X106678000Y-133120000D01*
X106677000Y-133122000D01*
X106675000Y-133124000D01*
X106674000Y-133126000D01*
X106672000Y-133128000D01*
X106670000Y-133130000D01*
X106668000Y-133132000D01*
X106666000Y-133134000D01*
X106664000Y-133135000D01*
X106662000Y-133137000D01*
X106660000Y-133138000D01*
X106658000Y-133140000D01*
X106655000Y-133141000D01*
X106653000Y-133142000D01*
X106650000Y-133143000D01*
X106648000Y-133143000D01*
X106645000Y-133144000D01*
X106643000Y-133144000D01*
X106640000Y-133145000D01*
X106638000Y-133145000D01*
X106635000Y-133145000D01*
X106235000Y-133145000D01*
X106235000Y-133595000D01*
X106235000Y-133598000D01*
X106235000Y-133600000D01*
X106234000Y-133603000D01*
X106234000Y-133605000D01*
X106233000Y-133608000D01*
X106233000Y-133610000D01*
X106232000Y-133613000D01*
X106231000Y-133615000D01*
X106230000Y-133618000D01*
X106228000Y-133620000D01*
X106227000Y-133622000D01*
X106225000Y-133624000D01*
X106224000Y-133626000D01*
X106222000Y-133628000D01*
X106220000Y-133630000D01*
X106218000Y-133632000D01*
X106216000Y-133634000D01*
X106214000Y-133635000D01*
X106212000Y-133637000D01*
X106210000Y-133638000D01*
X106208000Y-133640000D01*
X106205000Y-133641000D01*
X106203000Y-133642000D01*
X106200000Y-133643000D01*
X106198000Y-133643000D01*
X106195000Y-133644000D01*
X106193000Y-133644000D01*
X106190000Y-133645000D01*
X106188000Y-133645000D01*
X106185000Y-133645000D01*
X105895000Y-133645000D01*
X105892000Y-133645000D01*
X105890000Y-133645000D01*
X105887000Y-133644000D01*
X105885000Y-133644000D01*
X105882000Y-133643000D01*
X105880000Y-133643000D01*
X105877000Y-133642000D01*
X105875000Y-133641000D01*
X105872000Y-133640000D01*
X105870000Y-133638000D01*
X105868000Y-133637000D01*
X105866000Y-133635000D01*
X105864000Y-133634000D01*
X105862000Y-133632000D01*
X105860000Y-133630000D01*
X105858000Y-133628000D01*
X105856000Y-133626000D01*
X105855000Y-133624000D01*
X105853000Y-133622000D01*
X105852000Y-133620000D01*
X105850000Y-133618000D01*
X105849000Y-133615000D01*
X105848000Y-133613000D01*
X105847000Y-133610000D01*
X105847000Y-133608000D01*
X105846000Y-133605000D01*
X105846000Y-133603000D01*
X105845000Y-133600000D01*
X105845000Y-133598000D01*
X105845000Y-133595000D01*
X105845000Y-133145000D01*
X105735000Y-133145000D01*
X105735000Y-133595000D01*
X105735000Y-133598000D01*
X105735000Y-133600000D01*
X105734000Y-133603000D01*
X105734000Y-133605000D01*
X105733000Y-133608000D01*
X105733000Y-133610000D01*
X105732000Y-133613000D01*
X105731000Y-133615000D01*
X105730000Y-133618000D01*
X105728000Y-133620000D01*
X105727000Y-133622000D01*
X105725000Y-133624000D01*
X105724000Y-133626000D01*
X105722000Y-133628000D01*
X105720000Y-133630000D01*
X105718000Y-133632000D01*
X105716000Y-133634000D01*
X105714000Y-133635000D01*
X105712000Y-133637000D01*
X105710000Y-133638000D01*
X105708000Y-133640000D01*
X105705000Y-133641000D01*
X105703000Y-133642000D01*
X105700000Y-133643000D01*
X105698000Y-133643000D01*
X105695000Y-133644000D01*
X105693000Y-133644000D01*
X105690000Y-133645000D01*
X105688000Y-133645000D01*
X105685000Y-133645000D01*
X105395000Y-133645000D01*
X105392000Y-133645000D01*
X105390000Y-133645000D01*
X105387000Y-133644000D01*
X105385000Y-133644000D01*
X105382000Y-133643000D01*
X105380000Y-133643000D01*
X105377000Y-133642000D01*
X105375000Y-133641000D01*
X105372000Y-133640000D01*
X105370000Y-133638000D01*
X105368000Y-133637000D01*
X105366000Y-133635000D01*
X105364000Y-133634000D01*
X105362000Y-133632000D01*
X105360000Y-133630000D01*
X105358000Y-133628000D01*
X105356000Y-133626000D01*
X105355000Y-133624000D01*
X105353000Y-133622000D01*
X105352000Y-133620000D01*
X105350000Y-133618000D01*
X105349000Y-133615000D01*
X105348000Y-133613000D01*
X105347000Y-133610000D01*
X105347000Y-133608000D01*
X105346000Y-133605000D01*
X105346000Y-133603000D01*
X105345000Y-133600000D01*
X105345000Y-133598000D01*
X105345000Y-133595000D01*
X105345000Y-133145000D01*
X104945000Y-133145000D01*
X104942000Y-133145000D01*
X104940000Y-133145000D01*
X104937000Y-133144000D01*
X104935000Y-133144000D01*
X104932000Y-133143000D01*
X104930000Y-133143000D01*
X104927000Y-133142000D01*
X104925000Y-133141000D01*
X104922000Y-133140000D01*
X104920000Y-133138000D01*
X104918000Y-133137000D01*
X104916000Y-133135000D01*
X104914000Y-133134000D01*
X104912000Y-133132000D01*
X104910000Y-133130000D01*
X104908000Y-133128000D01*
X104906000Y-133126000D01*
X104905000Y-133124000D01*
X104903000Y-133122000D01*
X104902000Y-133120000D01*
X104900000Y-133118000D01*
X104899000Y-133115000D01*
X104898000Y-133113000D01*
X104897000Y-133110000D01*
X104897000Y-133108000D01*
X104896000Y-133105000D01*
X104896000Y-133103000D01*
X104895000Y-133100000D01*
X104895000Y-133098000D01*
X104895000Y-133095000D01*
X104895000Y-130655000D01*
X104895000Y-130652000D01*
X104895000Y-130650000D01*
X104896000Y-130647000D01*
X104896000Y-130645000D01*
X104897000Y-130642000D01*
X104897000Y-130640000D01*
X104898000Y-130637000D01*
X104899000Y-130635000D01*
X104900000Y-130632000D01*
X104902000Y-130630000D01*
X104903000Y-130628000D01*
X104905000Y-130626000D01*
X104906000Y-130624000D01*
X104908000Y-130622000D01*
X104910000Y-130620000D01*
X104912000Y-130618000D01*
X104914000Y-130616000D01*
X104916000Y-130615000D01*
X104918000Y-130613000D01*
X104920000Y-130612000D01*
X104922000Y-130610000D01*
X104925000Y-130609000D01*
X104927000Y-130608000D01*
X104930000Y-130607000D01*
X104932000Y-130607000D01*
X104935000Y-130606000D01*
X104937000Y-130606000D01*
X104940000Y-130605000D01*
X104942000Y-130605000D01*
X104945000Y-130605000D01*
X105345000Y-130605000D01*
X105345000Y-130155000D01*
X105345000Y-130152000D01*
X105345000Y-130150000D01*
X105346000Y-130147000D01*
X105346000Y-130145000D01*
X105347000Y-130142000D01*
X105347000Y-130140000D01*
X105348000Y-130137000D01*
X105349000Y-130135000D01*
X105350000Y-130132000D01*
X105352000Y-130130000D01*
X105353000Y-130128000D01*
X105355000Y-130126000D01*
X105356000Y-130124000D01*
X105358000Y-130122000D01*
X105360000Y-130120000D01*
X105362000Y-130118000D01*
X105364000Y-130116000D01*
X105366000Y-130115000D01*
X105368000Y-130113000D01*
X105370000Y-130112000D01*
X105372000Y-130110000D01*
X105375000Y-130109000D01*
X105377000Y-130108000D01*
X105380000Y-130107000D01*
X105382000Y-130107000D01*
X105385000Y-130106000D01*
X105387000Y-130106000D01*
X105390000Y-130105000D01*
X105392000Y-130105000D01*
X105395000Y-130105000D01*
X105685000Y-130105000D01*
X105688000Y-130105000D01*
X105690000Y-130105000D01*
X105693000Y-130106000D01*
G37*
%TO.C,U10*%
X162605500Y-130836000D02*
X162607500Y-130836000D01*
X162610500Y-130837000D01*
X162612500Y-130837000D01*
X162615500Y-130838000D01*
X162617500Y-130839000D01*
X162620500Y-130840000D01*
X162622500Y-130842000D01*
X162624500Y-130843000D01*
X162626500Y-130845000D01*
X162628500Y-130846000D01*
X162630500Y-130848000D01*
X162632500Y-130850000D01*
X162634500Y-130852000D01*
X162636500Y-130854000D01*
X162637500Y-130856000D01*
X162639500Y-130858000D01*
X162640500Y-130860000D01*
X162642500Y-130862000D01*
X162643500Y-130865000D01*
X162644500Y-130867000D01*
X162645500Y-130870000D01*
X162645500Y-130872000D01*
X162646500Y-130875000D01*
X162646500Y-130877000D01*
X162647500Y-130880000D01*
X162647500Y-130882000D01*
X162647500Y-130885000D01*
X162647500Y-131165000D01*
X162647500Y-131168000D01*
X162647500Y-131170000D01*
X162646500Y-131173000D01*
X162646500Y-131175000D01*
X162645500Y-131178000D01*
X162645500Y-131180000D01*
X162644500Y-131183000D01*
X162643500Y-131185000D01*
X162642500Y-131188000D01*
X162640500Y-131190000D01*
X162639500Y-131192000D01*
X162637500Y-131194000D01*
X162636500Y-131196000D01*
X162634500Y-131198000D01*
X162632500Y-131200000D01*
X162630500Y-131202000D01*
X162628500Y-131204000D01*
X162626500Y-131205000D01*
X162624500Y-131207000D01*
X162622500Y-131208000D01*
X162620500Y-131210000D01*
X162617500Y-131211000D01*
X162615500Y-131212000D01*
X162612500Y-131213000D01*
X162610500Y-131213000D01*
X162607500Y-131214000D01*
X162605500Y-131214000D01*
X162602500Y-131215000D01*
X162600500Y-131215000D01*
X162597500Y-131215000D01*
X161957500Y-131215000D01*
X161954500Y-131215000D01*
X161952500Y-131215000D01*
X161949500Y-131214000D01*
X161947500Y-131214000D01*
X161944500Y-131213000D01*
X161942500Y-131213000D01*
X161939500Y-131212000D01*
X161937500Y-131211000D01*
X161934500Y-131210000D01*
X161932500Y-131208000D01*
X161930500Y-131207000D01*
X161928500Y-131205000D01*
X161926500Y-131204000D01*
X161924500Y-131202000D01*
X161922500Y-131200000D01*
X161920500Y-131198000D01*
X161918500Y-131196000D01*
X161917500Y-131194000D01*
X161915500Y-131192000D01*
X161914500Y-131190000D01*
X161912500Y-131188000D01*
X161911500Y-131185000D01*
X161910500Y-131183000D01*
X161909500Y-131180000D01*
X161909500Y-131178000D01*
X161908500Y-131175000D01*
X161908500Y-131173000D01*
X161907500Y-131170000D01*
X161907500Y-131168000D01*
X161907500Y-131165000D01*
X161907500Y-130885000D01*
X161907500Y-130882000D01*
X161907500Y-130880000D01*
X161908500Y-130877000D01*
X161908500Y-130875000D01*
X161909500Y-130872000D01*
X161909500Y-130870000D01*
X161910500Y-130867000D01*
X161911500Y-130865000D01*
X161912500Y-130862000D01*
X161914500Y-130860000D01*
X161915500Y-130858000D01*
X161917500Y-130856000D01*
X161918500Y-130854000D01*
X161920500Y-130852000D01*
X161922500Y-130850000D01*
X161924500Y-130848000D01*
X161926500Y-130846000D01*
X161928500Y-130845000D01*
X161930500Y-130843000D01*
X161932500Y-130842000D01*
X161934500Y-130840000D01*
X161937500Y-130839000D01*
X161939500Y-130838000D01*
X161942500Y-130837000D01*
X161944500Y-130837000D01*
X161947500Y-130836000D01*
X161949500Y-130836000D01*
X161952500Y-130835000D01*
X161954500Y-130835000D01*
X161957500Y-130835000D01*
X162597500Y-130835000D01*
X162600500Y-130835000D01*
X162602500Y-130835000D01*
X162605500Y-130836000D01*
G36*
X162605500Y-130836000D02*
G01*
X162607500Y-130836000D01*
X162610500Y-130837000D01*
X162612500Y-130837000D01*
X162615500Y-130838000D01*
X162617500Y-130839000D01*
X162620500Y-130840000D01*
X162622500Y-130842000D01*
X162624500Y-130843000D01*
X162626500Y-130845000D01*
X162628500Y-130846000D01*
X162630500Y-130848000D01*
X162632500Y-130850000D01*
X162634500Y-130852000D01*
X162636500Y-130854000D01*
X162637500Y-130856000D01*
X162639500Y-130858000D01*
X162640500Y-130860000D01*
X162642500Y-130862000D01*
X162643500Y-130865000D01*
X162644500Y-130867000D01*
X162645500Y-130870000D01*
X162645500Y-130872000D01*
X162646500Y-130875000D01*
X162646500Y-130877000D01*
X162647500Y-130880000D01*
X162647500Y-130882000D01*
X162647500Y-130885000D01*
X162647500Y-131165000D01*
X162647500Y-131168000D01*
X162647500Y-131170000D01*
X162646500Y-131173000D01*
X162646500Y-131175000D01*
X162645500Y-131178000D01*
X162645500Y-131180000D01*
X162644500Y-131183000D01*
X162643500Y-131185000D01*
X162642500Y-131188000D01*
X162640500Y-131190000D01*
X162639500Y-131192000D01*
X162637500Y-131194000D01*
X162636500Y-131196000D01*
X162634500Y-131198000D01*
X162632500Y-131200000D01*
X162630500Y-131202000D01*
X162628500Y-131204000D01*
X162626500Y-131205000D01*
X162624500Y-131207000D01*
X162622500Y-131208000D01*
X162620500Y-131210000D01*
X162617500Y-131211000D01*
X162615500Y-131212000D01*
X162612500Y-131213000D01*
X162610500Y-131213000D01*
X162607500Y-131214000D01*
X162605500Y-131214000D01*
X162602500Y-131215000D01*
X162600500Y-131215000D01*
X162597500Y-131215000D01*
X161957500Y-131215000D01*
X161954500Y-131215000D01*
X161952500Y-131215000D01*
X161949500Y-131214000D01*
X161947500Y-131214000D01*
X161944500Y-131213000D01*
X161942500Y-131213000D01*
X161939500Y-131212000D01*
X161937500Y-131211000D01*
X161934500Y-131210000D01*
X161932500Y-131208000D01*
X161930500Y-131207000D01*
X161928500Y-131205000D01*
X161926500Y-131204000D01*
X161924500Y-131202000D01*
X161922500Y-131200000D01*
X161920500Y-131198000D01*
X161918500Y-131196000D01*
X161917500Y-131194000D01*
X161915500Y-131192000D01*
X161914500Y-131190000D01*
X161912500Y-131188000D01*
X161911500Y-131185000D01*
X161910500Y-131183000D01*
X161909500Y-131180000D01*
X161909500Y-131178000D01*
X161908500Y-131175000D01*
X161908500Y-131173000D01*
X161907500Y-131170000D01*
X161907500Y-131168000D01*
X161907500Y-131165000D01*
X161907500Y-130885000D01*
X161907500Y-130882000D01*
X161907500Y-130880000D01*
X161908500Y-130877000D01*
X161908500Y-130875000D01*
X161909500Y-130872000D01*
X161909500Y-130870000D01*
X161910500Y-130867000D01*
X161911500Y-130865000D01*
X161912500Y-130862000D01*
X161914500Y-130860000D01*
X161915500Y-130858000D01*
X161917500Y-130856000D01*
X161918500Y-130854000D01*
X161920500Y-130852000D01*
X161922500Y-130850000D01*
X161924500Y-130848000D01*
X161926500Y-130846000D01*
X161928500Y-130845000D01*
X161930500Y-130843000D01*
X161932500Y-130842000D01*
X161934500Y-130840000D01*
X161937500Y-130839000D01*
X161939500Y-130838000D01*
X161942500Y-130837000D01*
X161944500Y-130837000D01*
X161947500Y-130836000D01*
X161949500Y-130836000D01*
X161952500Y-130835000D01*
X161954500Y-130835000D01*
X161957500Y-130835000D01*
X162597500Y-130835000D01*
X162600500Y-130835000D01*
X162602500Y-130835000D01*
X162605500Y-130836000D01*
G37*
X162605500Y-131336000D02*
X162607500Y-131336000D01*
X162610500Y-131337000D01*
X162612500Y-131337000D01*
X162615500Y-131338000D01*
X162617500Y-131339000D01*
X162620500Y-131340000D01*
X162622500Y-131342000D01*
X162624500Y-131343000D01*
X162626500Y-131345000D01*
X162628500Y-131346000D01*
X162630500Y-131348000D01*
X162632500Y-131350000D01*
X162634500Y-131352000D01*
X162636500Y-131354000D01*
X162637500Y-131356000D01*
X162639500Y-131358000D01*
X162640500Y-131360000D01*
X162642500Y-131362000D01*
X162643500Y-131365000D01*
X162644500Y-131367000D01*
X162645500Y-131370000D01*
X162645500Y-131372000D01*
X162646500Y-131375000D01*
X162646500Y-131377000D01*
X162647500Y-131380000D01*
X162647500Y-131382000D01*
X162647500Y-131385000D01*
X162647500Y-131665000D01*
X162647500Y-131668000D01*
X162647500Y-131670000D01*
X162646500Y-131673000D01*
X162646500Y-131675000D01*
X162645500Y-131678000D01*
X162645500Y-131680000D01*
X162644500Y-131683000D01*
X162643500Y-131685000D01*
X162642500Y-131688000D01*
X162640500Y-131690000D01*
X162639500Y-131692000D01*
X162637500Y-131694000D01*
X162636500Y-131696000D01*
X162634500Y-131698000D01*
X162632500Y-131700000D01*
X162630500Y-131702000D01*
X162628500Y-131704000D01*
X162626500Y-131705000D01*
X162624500Y-131707000D01*
X162622500Y-131708000D01*
X162620500Y-131710000D01*
X162617500Y-131711000D01*
X162615500Y-131712000D01*
X162612500Y-131713000D01*
X162610500Y-131713000D01*
X162607500Y-131714000D01*
X162605500Y-131714000D01*
X162602500Y-131715000D01*
X162600500Y-131715000D01*
X162597500Y-131715000D01*
X161957500Y-131715000D01*
X161954500Y-131715000D01*
X161952500Y-131715000D01*
X161949500Y-131714000D01*
X161947500Y-131714000D01*
X161944500Y-131713000D01*
X161942500Y-131713000D01*
X161939500Y-131712000D01*
X161937500Y-131711000D01*
X161934500Y-131710000D01*
X161932500Y-131708000D01*
X161930500Y-131707000D01*
X161928500Y-131705000D01*
X161926500Y-131704000D01*
X161924500Y-131702000D01*
X161922500Y-131700000D01*
X161920500Y-131698000D01*
X161918500Y-131696000D01*
X161917500Y-131694000D01*
X161915500Y-131692000D01*
X161914500Y-131690000D01*
X161912500Y-131688000D01*
X161911500Y-131685000D01*
X161910500Y-131683000D01*
X161909500Y-131680000D01*
X161909500Y-131678000D01*
X161908500Y-131675000D01*
X161908500Y-131673000D01*
X161907500Y-131670000D01*
X161907500Y-131668000D01*
X161907500Y-131665000D01*
X161907500Y-131385000D01*
X161907500Y-131382000D01*
X161907500Y-131380000D01*
X161908500Y-131377000D01*
X161908500Y-131375000D01*
X161909500Y-131372000D01*
X161909500Y-131370000D01*
X161910500Y-131367000D01*
X161911500Y-131365000D01*
X161912500Y-131362000D01*
X161914500Y-131360000D01*
X161915500Y-131358000D01*
X161917500Y-131356000D01*
X161918500Y-131354000D01*
X161920500Y-131352000D01*
X161922500Y-131350000D01*
X161924500Y-131348000D01*
X161926500Y-131346000D01*
X161928500Y-131345000D01*
X161930500Y-131343000D01*
X161932500Y-131342000D01*
X161934500Y-131340000D01*
X161937500Y-131339000D01*
X161939500Y-131338000D01*
X161942500Y-131337000D01*
X161944500Y-131337000D01*
X161947500Y-131336000D01*
X161949500Y-131336000D01*
X161952500Y-131335000D01*
X161954500Y-131335000D01*
X161957500Y-131335000D01*
X162597500Y-131335000D01*
X162600500Y-131335000D01*
X162602500Y-131335000D01*
X162605500Y-131336000D01*
G36*
X162605500Y-131336000D02*
G01*
X162607500Y-131336000D01*
X162610500Y-131337000D01*
X162612500Y-131337000D01*
X162615500Y-131338000D01*
X162617500Y-131339000D01*
X162620500Y-131340000D01*
X162622500Y-131342000D01*
X162624500Y-131343000D01*
X162626500Y-131345000D01*
X162628500Y-131346000D01*
X162630500Y-131348000D01*
X162632500Y-131350000D01*
X162634500Y-131352000D01*
X162636500Y-131354000D01*
X162637500Y-131356000D01*
X162639500Y-131358000D01*
X162640500Y-131360000D01*
X162642500Y-131362000D01*
X162643500Y-131365000D01*
X162644500Y-131367000D01*
X162645500Y-131370000D01*
X162645500Y-131372000D01*
X162646500Y-131375000D01*
X162646500Y-131377000D01*
X162647500Y-131380000D01*
X162647500Y-131382000D01*
X162647500Y-131385000D01*
X162647500Y-131665000D01*
X162647500Y-131668000D01*
X162647500Y-131670000D01*
X162646500Y-131673000D01*
X162646500Y-131675000D01*
X162645500Y-131678000D01*
X162645500Y-131680000D01*
X162644500Y-131683000D01*
X162643500Y-131685000D01*
X162642500Y-131688000D01*
X162640500Y-131690000D01*
X162639500Y-131692000D01*
X162637500Y-131694000D01*
X162636500Y-131696000D01*
X162634500Y-131698000D01*
X162632500Y-131700000D01*
X162630500Y-131702000D01*
X162628500Y-131704000D01*
X162626500Y-131705000D01*
X162624500Y-131707000D01*
X162622500Y-131708000D01*
X162620500Y-131710000D01*
X162617500Y-131711000D01*
X162615500Y-131712000D01*
X162612500Y-131713000D01*
X162610500Y-131713000D01*
X162607500Y-131714000D01*
X162605500Y-131714000D01*
X162602500Y-131715000D01*
X162600500Y-131715000D01*
X162597500Y-131715000D01*
X161957500Y-131715000D01*
X161954500Y-131715000D01*
X161952500Y-131715000D01*
X161949500Y-131714000D01*
X161947500Y-131714000D01*
X161944500Y-131713000D01*
X161942500Y-131713000D01*
X161939500Y-131712000D01*
X161937500Y-131711000D01*
X161934500Y-131710000D01*
X161932500Y-131708000D01*
X161930500Y-131707000D01*
X161928500Y-131705000D01*
X161926500Y-131704000D01*
X161924500Y-131702000D01*
X161922500Y-131700000D01*
X161920500Y-131698000D01*
X161918500Y-131696000D01*
X161917500Y-131694000D01*
X161915500Y-131692000D01*
X161914500Y-131690000D01*
X161912500Y-131688000D01*
X161911500Y-131685000D01*
X161910500Y-131683000D01*
X161909500Y-131680000D01*
X161909500Y-131678000D01*
X161908500Y-131675000D01*
X161908500Y-131673000D01*
X161907500Y-131670000D01*
X161907500Y-131668000D01*
X161907500Y-131665000D01*
X161907500Y-131385000D01*
X161907500Y-131382000D01*
X161907500Y-131380000D01*
X161908500Y-131377000D01*
X161908500Y-131375000D01*
X161909500Y-131372000D01*
X161909500Y-131370000D01*
X161910500Y-131367000D01*
X161911500Y-131365000D01*
X161912500Y-131362000D01*
X161914500Y-131360000D01*
X161915500Y-131358000D01*
X161917500Y-131356000D01*
X161918500Y-131354000D01*
X161920500Y-131352000D01*
X161922500Y-131350000D01*
X161924500Y-131348000D01*
X161926500Y-131346000D01*
X161928500Y-131345000D01*
X161930500Y-131343000D01*
X161932500Y-131342000D01*
X161934500Y-131340000D01*
X161937500Y-131339000D01*
X161939500Y-131338000D01*
X161942500Y-131337000D01*
X161944500Y-131337000D01*
X161947500Y-131336000D01*
X161949500Y-131336000D01*
X161952500Y-131335000D01*
X161954500Y-131335000D01*
X161957500Y-131335000D01*
X162597500Y-131335000D01*
X162600500Y-131335000D01*
X162602500Y-131335000D01*
X162605500Y-131336000D01*
G37*
X162605500Y-131836000D02*
X162607500Y-131836000D01*
X162610500Y-131837000D01*
X162612500Y-131837000D01*
X162615500Y-131838000D01*
X162617500Y-131839000D01*
X162620500Y-131840000D01*
X162622500Y-131842000D01*
X162624500Y-131843000D01*
X162626500Y-131845000D01*
X162628500Y-131846000D01*
X162630500Y-131848000D01*
X162632500Y-131850000D01*
X162634500Y-131852000D01*
X162636500Y-131854000D01*
X162637500Y-131856000D01*
X162639500Y-131858000D01*
X162640500Y-131860000D01*
X162642500Y-131862000D01*
X162643500Y-131865000D01*
X162644500Y-131867000D01*
X162645500Y-131870000D01*
X162645500Y-131872000D01*
X162646500Y-131875000D01*
X162646500Y-131877000D01*
X162647500Y-131880000D01*
X162647500Y-131882000D01*
X162647500Y-131885000D01*
X162647500Y-132165000D01*
X162647500Y-132168000D01*
X162647500Y-132170000D01*
X162646500Y-132173000D01*
X162646500Y-132175000D01*
X162645500Y-132178000D01*
X162645500Y-132180000D01*
X162644500Y-132183000D01*
X162643500Y-132185000D01*
X162642500Y-132188000D01*
X162640500Y-132190000D01*
X162639500Y-132192000D01*
X162637500Y-132194000D01*
X162636500Y-132196000D01*
X162634500Y-132198000D01*
X162632500Y-132200000D01*
X162630500Y-132202000D01*
X162628500Y-132204000D01*
X162626500Y-132205000D01*
X162624500Y-132207000D01*
X162622500Y-132208000D01*
X162620500Y-132210000D01*
X162617500Y-132211000D01*
X162615500Y-132212000D01*
X162612500Y-132213000D01*
X162610500Y-132213000D01*
X162607500Y-132214000D01*
X162605500Y-132214000D01*
X162602500Y-132215000D01*
X162600500Y-132215000D01*
X162597500Y-132215000D01*
X161957500Y-132215000D01*
X161954500Y-132215000D01*
X161952500Y-132215000D01*
X161949500Y-132214000D01*
X161947500Y-132214000D01*
X161944500Y-132213000D01*
X161942500Y-132213000D01*
X161939500Y-132212000D01*
X161937500Y-132211000D01*
X161934500Y-132210000D01*
X161932500Y-132208000D01*
X161930500Y-132207000D01*
X161928500Y-132205000D01*
X161926500Y-132204000D01*
X161924500Y-132202000D01*
X161922500Y-132200000D01*
X161920500Y-132198000D01*
X161918500Y-132196000D01*
X161917500Y-132194000D01*
X161915500Y-132192000D01*
X161914500Y-132190000D01*
X161912500Y-132188000D01*
X161911500Y-132185000D01*
X161910500Y-132183000D01*
X161909500Y-132180000D01*
X161909500Y-132178000D01*
X161908500Y-132175000D01*
X161908500Y-132173000D01*
X161907500Y-132170000D01*
X161907500Y-132168000D01*
X161907500Y-132165000D01*
X161907500Y-131885000D01*
X161907500Y-131882000D01*
X161907500Y-131880000D01*
X161908500Y-131877000D01*
X161908500Y-131875000D01*
X161909500Y-131872000D01*
X161909500Y-131870000D01*
X161910500Y-131867000D01*
X161911500Y-131865000D01*
X161912500Y-131862000D01*
X161914500Y-131860000D01*
X161915500Y-131858000D01*
X161917500Y-131856000D01*
X161918500Y-131854000D01*
X161920500Y-131852000D01*
X161922500Y-131850000D01*
X161924500Y-131848000D01*
X161926500Y-131846000D01*
X161928500Y-131845000D01*
X161930500Y-131843000D01*
X161932500Y-131842000D01*
X161934500Y-131840000D01*
X161937500Y-131839000D01*
X161939500Y-131838000D01*
X161942500Y-131837000D01*
X161944500Y-131837000D01*
X161947500Y-131836000D01*
X161949500Y-131836000D01*
X161952500Y-131835000D01*
X161954500Y-131835000D01*
X161957500Y-131835000D01*
X162597500Y-131835000D01*
X162600500Y-131835000D01*
X162602500Y-131835000D01*
X162605500Y-131836000D01*
G36*
X162605500Y-131836000D02*
G01*
X162607500Y-131836000D01*
X162610500Y-131837000D01*
X162612500Y-131837000D01*
X162615500Y-131838000D01*
X162617500Y-131839000D01*
X162620500Y-131840000D01*
X162622500Y-131842000D01*
X162624500Y-131843000D01*
X162626500Y-131845000D01*
X162628500Y-131846000D01*
X162630500Y-131848000D01*
X162632500Y-131850000D01*
X162634500Y-131852000D01*
X162636500Y-131854000D01*
X162637500Y-131856000D01*
X162639500Y-131858000D01*
X162640500Y-131860000D01*
X162642500Y-131862000D01*
X162643500Y-131865000D01*
X162644500Y-131867000D01*
X162645500Y-131870000D01*
X162645500Y-131872000D01*
X162646500Y-131875000D01*
X162646500Y-131877000D01*
X162647500Y-131880000D01*
X162647500Y-131882000D01*
X162647500Y-131885000D01*
X162647500Y-132165000D01*
X162647500Y-132168000D01*
X162647500Y-132170000D01*
X162646500Y-132173000D01*
X162646500Y-132175000D01*
X162645500Y-132178000D01*
X162645500Y-132180000D01*
X162644500Y-132183000D01*
X162643500Y-132185000D01*
X162642500Y-132188000D01*
X162640500Y-132190000D01*
X162639500Y-132192000D01*
X162637500Y-132194000D01*
X162636500Y-132196000D01*
X162634500Y-132198000D01*
X162632500Y-132200000D01*
X162630500Y-132202000D01*
X162628500Y-132204000D01*
X162626500Y-132205000D01*
X162624500Y-132207000D01*
X162622500Y-132208000D01*
X162620500Y-132210000D01*
X162617500Y-132211000D01*
X162615500Y-132212000D01*
X162612500Y-132213000D01*
X162610500Y-132213000D01*
X162607500Y-132214000D01*
X162605500Y-132214000D01*
X162602500Y-132215000D01*
X162600500Y-132215000D01*
X162597500Y-132215000D01*
X161957500Y-132215000D01*
X161954500Y-132215000D01*
X161952500Y-132215000D01*
X161949500Y-132214000D01*
X161947500Y-132214000D01*
X161944500Y-132213000D01*
X161942500Y-132213000D01*
X161939500Y-132212000D01*
X161937500Y-132211000D01*
X161934500Y-132210000D01*
X161932500Y-132208000D01*
X161930500Y-132207000D01*
X161928500Y-132205000D01*
X161926500Y-132204000D01*
X161924500Y-132202000D01*
X161922500Y-132200000D01*
X161920500Y-132198000D01*
X161918500Y-132196000D01*
X161917500Y-132194000D01*
X161915500Y-132192000D01*
X161914500Y-132190000D01*
X161912500Y-132188000D01*
X161911500Y-132185000D01*
X161910500Y-132183000D01*
X161909500Y-132180000D01*
X161909500Y-132178000D01*
X161908500Y-132175000D01*
X161908500Y-132173000D01*
X161907500Y-132170000D01*
X161907500Y-132168000D01*
X161907500Y-132165000D01*
X161907500Y-131885000D01*
X161907500Y-131882000D01*
X161907500Y-131880000D01*
X161908500Y-131877000D01*
X161908500Y-131875000D01*
X161909500Y-131872000D01*
X161909500Y-131870000D01*
X161910500Y-131867000D01*
X161911500Y-131865000D01*
X161912500Y-131862000D01*
X161914500Y-131860000D01*
X161915500Y-131858000D01*
X161917500Y-131856000D01*
X161918500Y-131854000D01*
X161920500Y-131852000D01*
X161922500Y-131850000D01*
X161924500Y-131848000D01*
X161926500Y-131846000D01*
X161928500Y-131845000D01*
X161930500Y-131843000D01*
X161932500Y-131842000D01*
X161934500Y-131840000D01*
X161937500Y-131839000D01*
X161939500Y-131838000D01*
X161942500Y-131837000D01*
X161944500Y-131837000D01*
X161947500Y-131836000D01*
X161949500Y-131836000D01*
X161952500Y-131835000D01*
X161954500Y-131835000D01*
X161957500Y-131835000D01*
X162597500Y-131835000D01*
X162600500Y-131835000D01*
X162602500Y-131835000D01*
X162605500Y-131836000D01*
G37*
X162605500Y-132336000D02*
X162607500Y-132336000D01*
X162610500Y-132337000D01*
X162612500Y-132337000D01*
X162615500Y-132338000D01*
X162617500Y-132339000D01*
X162620500Y-132340000D01*
X162622500Y-132342000D01*
X162624500Y-132343000D01*
X162626500Y-132345000D01*
X162628500Y-132346000D01*
X162630500Y-132348000D01*
X162632500Y-132350000D01*
X162634500Y-132352000D01*
X162636500Y-132354000D01*
X162637500Y-132356000D01*
X162639500Y-132358000D01*
X162640500Y-132360000D01*
X162642500Y-132362000D01*
X162643500Y-132365000D01*
X162644500Y-132367000D01*
X162645500Y-132370000D01*
X162645500Y-132372000D01*
X162646500Y-132375000D01*
X162646500Y-132377000D01*
X162647500Y-132380000D01*
X162647500Y-132382000D01*
X162647500Y-132385000D01*
X162647500Y-132665000D01*
X162647500Y-132668000D01*
X162647500Y-132670000D01*
X162646500Y-132673000D01*
X162646500Y-132675000D01*
X162645500Y-132678000D01*
X162645500Y-132680000D01*
X162644500Y-132683000D01*
X162643500Y-132685000D01*
X162642500Y-132688000D01*
X162640500Y-132690000D01*
X162639500Y-132692000D01*
X162637500Y-132694000D01*
X162636500Y-132696000D01*
X162634500Y-132698000D01*
X162632500Y-132700000D01*
X162630500Y-132702000D01*
X162628500Y-132704000D01*
X162626500Y-132705000D01*
X162624500Y-132707000D01*
X162622500Y-132708000D01*
X162620500Y-132710000D01*
X162617500Y-132711000D01*
X162615500Y-132712000D01*
X162612500Y-132713000D01*
X162610500Y-132713000D01*
X162607500Y-132714000D01*
X162605500Y-132714000D01*
X162602500Y-132715000D01*
X162600500Y-132715000D01*
X162597500Y-132715000D01*
X161957500Y-132715000D01*
X161954500Y-132715000D01*
X161952500Y-132715000D01*
X161949500Y-132714000D01*
X161947500Y-132714000D01*
X161944500Y-132713000D01*
X161942500Y-132713000D01*
X161939500Y-132712000D01*
X161937500Y-132711000D01*
X161934500Y-132710000D01*
X161932500Y-132708000D01*
X161930500Y-132707000D01*
X161928500Y-132705000D01*
X161926500Y-132704000D01*
X161924500Y-132702000D01*
X161922500Y-132700000D01*
X161920500Y-132698000D01*
X161918500Y-132696000D01*
X161917500Y-132694000D01*
X161915500Y-132692000D01*
X161914500Y-132690000D01*
X161912500Y-132688000D01*
X161911500Y-132685000D01*
X161910500Y-132683000D01*
X161909500Y-132680000D01*
X161909500Y-132678000D01*
X161908500Y-132675000D01*
X161908500Y-132673000D01*
X161907500Y-132670000D01*
X161907500Y-132668000D01*
X161907500Y-132665000D01*
X161907500Y-132385000D01*
X161907500Y-132382000D01*
X161907500Y-132380000D01*
X161908500Y-132377000D01*
X161908500Y-132375000D01*
X161909500Y-132372000D01*
X161909500Y-132370000D01*
X161910500Y-132367000D01*
X161911500Y-132365000D01*
X161912500Y-132362000D01*
X161914500Y-132360000D01*
X161915500Y-132358000D01*
X161917500Y-132356000D01*
X161918500Y-132354000D01*
X161920500Y-132352000D01*
X161922500Y-132350000D01*
X161924500Y-132348000D01*
X161926500Y-132346000D01*
X161928500Y-132345000D01*
X161930500Y-132343000D01*
X161932500Y-132342000D01*
X161934500Y-132340000D01*
X161937500Y-132339000D01*
X161939500Y-132338000D01*
X161942500Y-132337000D01*
X161944500Y-132337000D01*
X161947500Y-132336000D01*
X161949500Y-132336000D01*
X161952500Y-132335000D01*
X161954500Y-132335000D01*
X161957500Y-132335000D01*
X162597500Y-132335000D01*
X162600500Y-132335000D01*
X162602500Y-132335000D01*
X162605500Y-132336000D01*
G36*
X162605500Y-132336000D02*
G01*
X162607500Y-132336000D01*
X162610500Y-132337000D01*
X162612500Y-132337000D01*
X162615500Y-132338000D01*
X162617500Y-132339000D01*
X162620500Y-132340000D01*
X162622500Y-132342000D01*
X162624500Y-132343000D01*
X162626500Y-132345000D01*
X162628500Y-132346000D01*
X162630500Y-132348000D01*
X162632500Y-132350000D01*
X162634500Y-132352000D01*
X162636500Y-132354000D01*
X162637500Y-132356000D01*
X162639500Y-132358000D01*
X162640500Y-132360000D01*
X162642500Y-132362000D01*
X162643500Y-132365000D01*
X162644500Y-132367000D01*
X162645500Y-132370000D01*
X162645500Y-132372000D01*
X162646500Y-132375000D01*
X162646500Y-132377000D01*
X162647500Y-132380000D01*
X162647500Y-132382000D01*
X162647500Y-132385000D01*
X162647500Y-132665000D01*
X162647500Y-132668000D01*
X162647500Y-132670000D01*
X162646500Y-132673000D01*
X162646500Y-132675000D01*
X162645500Y-132678000D01*
X162645500Y-132680000D01*
X162644500Y-132683000D01*
X162643500Y-132685000D01*
X162642500Y-132688000D01*
X162640500Y-132690000D01*
X162639500Y-132692000D01*
X162637500Y-132694000D01*
X162636500Y-132696000D01*
X162634500Y-132698000D01*
X162632500Y-132700000D01*
X162630500Y-132702000D01*
X162628500Y-132704000D01*
X162626500Y-132705000D01*
X162624500Y-132707000D01*
X162622500Y-132708000D01*
X162620500Y-132710000D01*
X162617500Y-132711000D01*
X162615500Y-132712000D01*
X162612500Y-132713000D01*
X162610500Y-132713000D01*
X162607500Y-132714000D01*
X162605500Y-132714000D01*
X162602500Y-132715000D01*
X162600500Y-132715000D01*
X162597500Y-132715000D01*
X161957500Y-132715000D01*
X161954500Y-132715000D01*
X161952500Y-132715000D01*
X161949500Y-132714000D01*
X161947500Y-132714000D01*
X161944500Y-132713000D01*
X161942500Y-132713000D01*
X161939500Y-132712000D01*
X161937500Y-132711000D01*
X161934500Y-132710000D01*
X161932500Y-132708000D01*
X161930500Y-132707000D01*
X161928500Y-132705000D01*
X161926500Y-132704000D01*
X161924500Y-132702000D01*
X161922500Y-132700000D01*
X161920500Y-132698000D01*
X161918500Y-132696000D01*
X161917500Y-132694000D01*
X161915500Y-132692000D01*
X161914500Y-132690000D01*
X161912500Y-132688000D01*
X161911500Y-132685000D01*
X161910500Y-132683000D01*
X161909500Y-132680000D01*
X161909500Y-132678000D01*
X161908500Y-132675000D01*
X161908500Y-132673000D01*
X161907500Y-132670000D01*
X161907500Y-132668000D01*
X161907500Y-132665000D01*
X161907500Y-132385000D01*
X161907500Y-132382000D01*
X161907500Y-132380000D01*
X161908500Y-132377000D01*
X161908500Y-132375000D01*
X161909500Y-132372000D01*
X161909500Y-132370000D01*
X161910500Y-132367000D01*
X161911500Y-132365000D01*
X161912500Y-132362000D01*
X161914500Y-132360000D01*
X161915500Y-132358000D01*
X161917500Y-132356000D01*
X161918500Y-132354000D01*
X161920500Y-132352000D01*
X161922500Y-132350000D01*
X161924500Y-132348000D01*
X161926500Y-132346000D01*
X161928500Y-132345000D01*
X161930500Y-132343000D01*
X161932500Y-132342000D01*
X161934500Y-132340000D01*
X161937500Y-132339000D01*
X161939500Y-132338000D01*
X161942500Y-132337000D01*
X161944500Y-132337000D01*
X161947500Y-132336000D01*
X161949500Y-132336000D01*
X161952500Y-132335000D01*
X161954500Y-132335000D01*
X161957500Y-132335000D01*
X162597500Y-132335000D01*
X162600500Y-132335000D01*
X162602500Y-132335000D01*
X162605500Y-132336000D01*
G37*
X162605500Y-132836000D02*
X162607500Y-132836000D01*
X162610500Y-132837000D01*
X162612500Y-132837000D01*
X162615500Y-132838000D01*
X162617500Y-132839000D01*
X162620500Y-132840000D01*
X162622500Y-132842000D01*
X162624500Y-132843000D01*
X162626500Y-132845000D01*
X162628500Y-132846000D01*
X162630500Y-132848000D01*
X162632500Y-132850000D01*
X162634500Y-132852000D01*
X162636500Y-132854000D01*
X162637500Y-132856000D01*
X162639500Y-132858000D01*
X162640500Y-132860000D01*
X162642500Y-132862000D01*
X162643500Y-132865000D01*
X162644500Y-132867000D01*
X162645500Y-132870000D01*
X162645500Y-132872000D01*
X162646500Y-132875000D01*
X162646500Y-132877000D01*
X162647500Y-132880000D01*
X162647500Y-132882000D01*
X162647500Y-132885000D01*
X162647500Y-133165000D01*
X162647500Y-133168000D01*
X162647500Y-133170000D01*
X162646500Y-133173000D01*
X162646500Y-133175000D01*
X162645500Y-133178000D01*
X162645500Y-133180000D01*
X162644500Y-133183000D01*
X162643500Y-133185000D01*
X162642500Y-133188000D01*
X162640500Y-133190000D01*
X162639500Y-133192000D01*
X162637500Y-133194000D01*
X162636500Y-133196000D01*
X162634500Y-133198000D01*
X162632500Y-133200000D01*
X162630500Y-133202000D01*
X162628500Y-133204000D01*
X162626500Y-133205000D01*
X162624500Y-133207000D01*
X162622500Y-133208000D01*
X162620500Y-133210000D01*
X162617500Y-133211000D01*
X162615500Y-133212000D01*
X162612500Y-133213000D01*
X162610500Y-133213000D01*
X162607500Y-133214000D01*
X162605500Y-133214000D01*
X162602500Y-133215000D01*
X162600500Y-133215000D01*
X162597500Y-133215000D01*
X161957500Y-133215000D01*
X161954500Y-133215000D01*
X161952500Y-133215000D01*
X161949500Y-133214000D01*
X161947500Y-133214000D01*
X161944500Y-133213000D01*
X161942500Y-133213000D01*
X161939500Y-133212000D01*
X161937500Y-133211000D01*
X161934500Y-133210000D01*
X161932500Y-133208000D01*
X161930500Y-133207000D01*
X161928500Y-133205000D01*
X161926500Y-133204000D01*
X161924500Y-133202000D01*
X161922500Y-133200000D01*
X161920500Y-133198000D01*
X161918500Y-133196000D01*
X161917500Y-133194000D01*
X161915500Y-133192000D01*
X161914500Y-133190000D01*
X161912500Y-133188000D01*
X161911500Y-133185000D01*
X161910500Y-133183000D01*
X161909500Y-133180000D01*
X161909500Y-133178000D01*
X161908500Y-133175000D01*
X161908500Y-133173000D01*
X161907500Y-133170000D01*
X161907500Y-133168000D01*
X161907500Y-133165000D01*
X161907500Y-132885000D01*
X161907500Y-132882000D01*
X161907500Y-132880000D01*
X161908500Y-132877000D01*
X161908500Y-132875000D01*
X161909500Y-132872000D01*
X161909500Y-132870000D01*
X161910500Y-132867000D01*
X161911500Y-132865000D01*
X161912500Y-132862000D01*
X161914500Y-132860000D01*
X161915500Y-132858000D01*
X161917500Y-132856000D01*
X161918500Y-132854000D01*
X161920500Y-132852000D01*
X161922500Y-132850000D01*
X161924500Y-132848000D01*
X161926500Y-132846000D01*
X161928500Y-132845000D01*
X161930500Y-132843000D01*
X161932500Y-132842000D01*
X161934500Y-132840000D01*
X161937500Y-132839000D01*
X161939500Y-132838000D01*
X161942500Y-132837000D01*
X161944500Y-132837000D01*
X161947500Y-132836000D01*
X161949500Y-132836000D01*
X161952500Y-132835000D01*
X161954500Y-132835000D01*
X161957500Y-132835000D01*
X162597500Y-132835000D01*
X162600500Y-132835000D01*
X162602500Y-132835000D01*
X162605500Y-132836000D01*
G36*
X162605500Y-132836000D02*
G01*
X162607500Y-132836000D01*
X162610500Y-132837000D01*
X162612500Y-132837000D01*
X162615500Y-132838000D01*
X162617500Y-132839000D01*
X162620500Y-132840000D01*
X162622500Y-132842000D01*
X162624500Y-132843000D01*
X162626500Y-132845000D01*
X162628500Y-132846000D01*
X162630500Y-132848000D01*
X162632500Y-132850000D01*
X162634500Y-132852000D01*
X162636500Y-132854000D01*
X162637500Y-132856000D01*
X162639500Y-132858000D01*
X162640500Y-132860000D01*
X162642500Y-132862000D01*
X162643500Y-132865000D01*
X162644500Y-132867000D01*
X162645500Y-132870000D01*
X162645500Y-132872000D01*
X162646500Y-132875000D01*
X162646500Y-132877000D01*
X162647500Y-132880000D01*
X162647500Y-132882000D01*
X162647500Y-132885000D01*
X162647500Y-133165000D01*
X162647500Y-133168000D01*
X162647500Y-133170000D01*
X162646500Y-133173000D01*
X162646500Y-133175000D01*
X162645500Y-133178000D01*
X162645500Y-133180000D01*
X162644500Y-133183000D01*
X162643500Y-133185000D01*
X162642500Y-133188000D01*
X162640500Y-133190000D01*
X162639500Y-133192000D01*
X162637500Y-133194000D01*
X162636500Y-133196000D01*
X162634500Y-133198000D01*
X162632500Y-133200000D01*
X162630500Y-133202000D01*
X162628500Y-133204000D01*
X162626500Y-133205000D01*
X162624500Y-133207000D01*
X162622500Y-133208000D01*
X162620500Y-133210000D01*
X162617500Y-133211000D01*
X162615500Y-133212000D01*
X162612500Y-133213000D01*
X162610500Y-133213000D01*
X162607500Y-133214000D01*
X162605500Y-133214000D01*
X162602500Y-133215000D01*
X162600500Y-133215000D01*
X162597500Y-133215000D01*
X161957500Y-133215000D01*
X161954500Y-133215000D01*
X161952500Y-133215000D01*
X161949500Y-133214000D01*
X161947500Y-133214000D01*
X161944500Y-133213000D01*
X161942500Y-133213000D01*
X161939500Y-133212000D01*
X161937500Y-133211000D01*
X161934500Y-133210000D01*
X161932500Y-133208000D01*
X161930500Y-133207000D01*
X161928500Y-133205000D01*
X161926500Y-133204000D01*
X161924500Y-133202000D01*
X161922500Y-133200000D01*
X161920500Y-133198000D01*
X161918500Y-133196000D01*
X161917500Y-133194000D01*
X161915500Y-133192000D01*
X161914500Y-133190000D01*
X161912500Y-133188000D01*
X161911500Y-133185000D01*
X161910500Y-133183000D01*
X161909500Y-133180000D01*
X161909500Y-133178000D01*
X161908500Y-133175000D01*
X161908500Y-133173000D01*
X161907500Y-133170000D01*
X161907500Y-133168000D01*
X161907500Y-133165000D01*
X161907500Y-132885000D01*
X161907500Y-132882000D01*
X161907500Y-132880000D01*
X161908500Y-132877000D01*
X161908500Y-132875000D01*
X161909500Y-132872000D01*
X161909500Y-132870000D01*
X161910500Y-132867000D01*
X161911500Y-132865000D01*
X161912500Y-132862000D01*
X161914500Y-132860000D01*
X161915500Y-132858000D01*
X161917500Y-132856000D01*
X161918500Y-132854000D01*
X161920500Y-132852000D01*
X161922500Y-132850000D01*
X161924500Y-132848000D01*
X161926500Y-132846000D01*
X161928500Y-132845000D01*
X161930500Y-132843000D01*
X161932500Y-132842000D01*
X161934500Y-132840000D01*
X161937500Y-132839000D01*
X161939500Y-132838000D01*
X161942500Y-132837000D01*
X161944500Y-132837000D01*
X161947500Y-132836000D01*
X161949500Y-132836000D01*
X161952500Y-132835000D01*
X161954500Y-132835000D01*
X161957500Y-132835000D01*
X162597500Y-132835000D01*
X162600500Y-132835000D01*
X162602500Y-132835000D01*
X162605500Y-132836000D01*
G37*
X165405500Y-130836000D02*
X165407500Y-130836000D01*
X165410500Y-130837000D01*
X165412500Y-130837000D01*
X165415500Y-130838000D01*
X165417500Y-130839000D01*
X165420500Y-130840000D01*
X165422500Y-130842000D01*
X165424500Y-130843000D01*
X165426500Y-130845000D01*
X165428500Y-130846000D01*
X165430500Y-130848000D01*
X165432500Y-130850000D01*
X165434500Y-130852000D01*
X165436500Y-130854000D01*
X165437500Y-130856000D01*
X165439500Y-130858000D01*
X165440500Y-130860000D01*
X165442500Y-130862000D01*
X165443500Y-130865000D01*
X165444500Y-130867000D01*
X165445500Y-130870000D01*
X165445500Y-130872000D01*
X165446500Y-130875000D01*
X165446500Y-130877000D01*
X165447500Y-130880000D01*
X165447500Y-130882000D01*
X165447500Y-130885000D01*
X165447500Y-131165000D01*
X165447500Y-131168000D01*
X165447500Y-131170000D01*
X165446500Y-131173000D01*
X165446500Y-131175000D01*
X165445500Y-131178000D01*
X165445500Y-131180000D01*
X165444500Y-131183000D01*
X165443500Y-131185000D01*
X165442500Y-131188000D01*
X165440500Y-131190000D01*
X165439500Y-131192000D01*
X165437500Y-131194000D01*
X165436500Y-131196000D01*
X165434500Y-131198000D01*
X165432500Y-131200000D01*
X165430500Y-131202000D01*
X165428500Y-131204000D01*
X165426500Y-131205000D01*
X165424500Y-131207000D01*
X165422500Y-131208000D01*
X165420500Y-131210000D01*
X165417500Y-131211000D01*
X165415500Y-131212000D01*
X165412500Y-131213000D01*
X165410500Y-131213000D01*
X165407500Y-131214000D01*
X165405500Y-131214000D01*
X165402500Y-131215000D01*
X165400500Y-131215000D01*
X165397500Y-131215000D01*
X164757500Y-131215000D01*
X164754500Y-131215000D01*
X164752500Y-131215000D01*
X164749500Y-131214000D01*
X164747500Y-131214000D01*
X164744500Y-131213000D01*
X164742500Y-131213000D01*
X164739500Y-131212000D01*
X164737500Y-131211000D01*
X164734500Y-131210000D01*
X164732500Y-131208000D01*
X164730500Y-131207000D01*
X164728500Y-131205000D01*
X164726500Y-131204000D01*
X164724500Y-131202000D01*
X164722500Y-131200000D01*
X164720500Y-131198000D01*
X164718500Y-131196000D01*
X164717500Y-131194000D01*
X164715500Y-131192000D01*
X164714500Y-131190000D01*
X164712500Y-131188000D01*
X164711500Y-131185000D01*
X164710500Y-131183000D01*
X164709500Y-131180000D01*
X164709500Y-131178000D01*
X164708500Y-131175000D01*
X164708500Y-131173000D01*
X164707500Y-131170000D01*
X164707500Y-131168000D01*
X164707500Y-131165000D01*
X164707500Y-130885000D01*
X164707500Y-130882000D01*
X164707500Y-130880000D01*
X164708500Y-130877000D01*
X164708500Y-130875000D01*
X164709500Y-130872000D01*
X164709500Y-130870000D01*
X164710500Y-130867000D01*
X164711500Y-130865000D01*
X164712500Y-130862000D01*
X164714500Y-130860000D01*
X164715500Y-130858000D01*
X164717500Y-130856000D01*
X164718500Y-130854000D01*
X164720500Y-130852000D01*
X164722500Y-130850000D01*
X164724500Y-130848000D01*
X164726500Y-130846000D01*
X164728500Y-130845000D01*
X164730500Y-130843000D01*
X164732500Y-130842000D01*
X164734500Y-130840000D01*
X164737500Y-130839000D01*
X164739500Y-130838000D01*
X164742500Y-130837000D01*
X164744500Y-130837000D01*
X164747500Y-130836000D01*
X164749500Y-130836000D01*
X164752500Y-130835000D01*
X164754500Y-130835000D01*
X164757500Y-130835000D01*
X165397500Y-130835000D01*
X165400500Y-130835000D01*
X165402500Y-130835000D01*
X165405500Y-130836000D01*
G36*
X165405500Y-130836000D02*
G01*
X165407500Y-130836000D01*
X165410500Y-130837000D01*
X165412500Y-130837000D01*
X165415500Y-130838000D01*
X165417500Y-130839000D01*
X165420500Y-130840000D01*
X165422500Y-130842000D01*
X165424500Y-130843000D01*
X165426500Y-130845000D01*
X165428500Y-130846000D01*
X165430500Y-130848000D01*
X165432500Y-130850000D01*
X165434500Y-130852000D01*
X165436500Y-130854000D01*
X165437500Y-130856000D01*
X165439500Y-130858000D01*
X165440500Y-130860000D01*
X165442500Y-130862000D01*
X165443500Y-130865000D01*
X165444500Y-130867000D01*
X165445500Y-130870000D01*
X165445500Y-130872000D01*
X165446500Y-130875000D01*
X165446500Y-130877000D01*
X165447500Y-130880000D01*
X165447500Y-130882000D01*
X165447500Y-130885000D01*
X165447500Y-131165000D01*
X165447500Y-131168000D01*
X165447500Y-131170000D01*
X165446500Y-131173000D01*
X165446500Y-131175000D01*
X165445500Y-131178000D01*
X165445500Y-131180000D01*
X165444500Y-131183000D01*
X165443500Y-131185000D01*
X165442500Y-131188000D01*
X165440500Y-131190000D01*
X165439500Y-131192000D01*
X165437500Y-131194000D01*
X165436500Y-131196000D01*
X165434500Y-131198000D01*
X165432500Y-131200000D01*
X165430500Y-131202000D01*
X165428500Y-131204000D01*
X165426500Y-131205000D01*
X165424500Y-131207000D01*
X165422500Y-131208000D01*
X165420500Y-131210000D01*
X165417500Y-131211000D01*
X165415500Y-131212000D01*
X165412500Y-131213000D01*
X165410500Y-131213000D01*
X165407500Y-131214000D01*
X165405500Y-131214000D01*
X165402500Y-131215000D01*
X165400500Y-131215000D01*
X165397500Y-131215000D01*
X164757500Y-131215000D01*
X164754500Y-131215000D01*
X164752500Y-131215000D01*
X164749500Y-131214000D01*
X164747500Y-131214000D01*
X164744500Y-131213000D01*
X164742500Y-131213000D01*
X164739500Y-131212000D01*
X164737500Y-131211000D01*
X164734500Y-131210000D01*
X164732500Y-131208000D01*
X164730500Y-131207000D01*
X164728500Y-131205000D01*
X164726500Y-131204000D01*
X164724500Y-131202000D01*
X164722500Y-131200000D01*
X164720500Y-131198000D01*
X164718500Y-131196000D01*
X164717500Y-131194000D01*
X164715500Y-131192000D01*
X164714500Y-131190000D01*
X164712500Y-131188000D01*
X164711500Y-131185000D01*
X164710500Y-131183000D01*
X164709500Y-131180000D01*
X164709500Y-131178000D01*
X164708500Y-131175000D01*
X164708500Y-131173000D01*
X164707500Y-131170000D01*
X164707500Y-131168000D01*
X164707500Y-131165000D01*
X164707500Y-130885000D01*
X164707500Y-130882000D01*
X164707500Y-130880000D01*
X164708500Y-130877000D01*
X164708500Y-130875000D01*
X164709500Y-130872000D01*
X164709500Y-130870000D01*
X164710500Y-130867000D01*
X164711500Y-130865000D01*
X164712500Y-130862000D01*
X164714500Y-130860000D01*
X164715500Y-130858000D01*
X164717500Y-130856000D01*
X164718500Y-130854000D01*
X164720500Y-130852000D01*
X164722500Y-130850000D01*
X164724500Y-130848000D01*
X164726500Y-130846000D01*
X164728500Y-130845000D01*
X164730500Y-130843000D01*
X164732500Y-130842000D01*
X164734500Y-130840000D01*
X164737500Y-130839000D01*
X164739500Y-130838000D01*
X164742500Y-130837000D01*
X164744500Y-130837000D01*
X164747500Y-130836000D01*
X164749500Y-130836000D01*
X164752500Y-130835000D01*
X164754500Y-130835000D01*
X164757500Y-130835000D01*
X165397500Y-130835000D01*
X165400500Y-130835000D01*
X165402500Y-130835000D01*
X165405500Y-130836000D01*
G37*
X165405500Y-131336000D02*
X165407500Y-131336000D01*
X165410500Y-131337000D01*
X165412500Y-131337000D01*
X165415500Y-131338000D01*
X165417500Y-131339000D01*
X165420500Y-131340000D01*
X165422500Y-131342000D01*
X165424500Y-131343000D01*
X165426500Y-131345000D01*
X165428500Y-131346000D01*
X165430500Y-131348000D01*
X165432500Y-131350000D01*
X165434500Y-131352000D01*
X165436500Y-131354000D01*
X165437500Y-131356000D01*
X165439500Y-131358000D01*
X165440500Y-131360000D01*
X165442500Y-131362000D01*
X165443500Y-131365000D01*
X165444500Y-131367000D01*
X165445500Y-131370000D01*
X165445500Y-131372000D01*
X165446500Y-131375000D01*
X165446500Y-131377000D01*
X165447500Y-131380000D01*
X165447500Y-131382000D01*
X165447500Y-131385000D01*
X165447500Y-131665000D01*
X165447500Y-131668000D01*
X165447500Y-131670000D01*
X165446500Y-131673000D01*
X165446500Y-131675000D01*
X165445500Y-131678000D01*
X165445500Y-131680000D01*
X165444500Y-131683000D01*
X165443500Y-131685000D01*
X165442500Y-131688000D01*
X165440500Y-131690000D01*
X165439500Y-131692000D01*
X165437500Y-131694000D01*
X165436500Y-131696000D01*
X165434500Y-131698000D01*
X165432500Y-131700000D01*
X165430500Y-131702000D01*
X165428500Y-131704000D01*
X165426500Y-131705000D01*
X165424500Y-131707000D01*
X165422500Y-131708000D01*
X165420500Y-131710000D01*
X165417500Y-131711000D01*
X165415500Y-131712000D01*
X165412500Y-131713000D01*
X165410500Y-131713000D01*
X165407500Y-131714000D01*
X165405500Y-131714000D01*
X165402500Y-131715000D01*
X165400500Y-131715000D01*
X165397500Y-131715000D01*
X164757500Y-131715000D01*
X164754500Y-131715000D01*
X164752500Y-131715000D01*
X164749500Y-131714000D01*
X164747500Y-131714000D01*
X164744500Y-131713000D01*
X164742500Y-131713000D01*
X164739500Y-131712000D01*
X164737500Y-131711000D01*
X164734500Y-131710000D01*
X164732500Y-131708000D01*
X164730500Y-131707000D01*
X164728500Y-131705000D01*
X164726500Y-131704000D01*
X164724500Y-131702000D01*
X164722500Y-131700000D01*
X164720500Y-131698000D01*
X164718500Y-131696000D01*
X164717500Y-131694000D01*
X164715500Y-131692000D01*
X164714500Y-131690000D01*
X164712500Y-131688000D01*
X164711500Y-131685000D01*
X164710500Y-131683000D01*
X164709500Y-131680000D01*
X164709500Y-131678000D01*
X164708500Y-131675000D01*
X164708500Y-131673000D01*
X164707500Y-131670000D01*
X164707500Y-131668000D01*
X164707500Y-131665000D01*
X164707500Y-131385000D01*
X164707500Y-131382000D01*
X164707500Y-131380000D01*
X164708500Y-131377000D01*
X164708500Y-131375000D01*
X164709500Y-131372000D01*
X164709500Y-131370000D01*
X164710500Y-131367000D01*
X164711500Y-131365000D01*
X164712500Y-131362000D01*
X164714500Y-131360000D01*
X164715500Y-131358000D01*
X164717500Y-131356000D01*
X164718500Y-131354000D01*
X164720500Y-131352000D01*
X164722500Y-131350000D01*
X164724500Y-131348000D01*
X164726500Y-131346000D01*
X164728500Y-131345000D01*
X164730500Y-131343000D01*
X164732500Y-131342000D01*
X164734500Y-131340000D01*
X164737500Y-131339000D01*
X164739500Y-131338000D01*
X164742500Y-131337000D01*
X164744500Y-131337000D01*
X164747500Y-131336000D01*
X164749500Y-131336000D01*
X164752500Y-131335000D01*
X164754500Y-131335000D01*
X164757500Y-131335000D01*
X165397500Y-131335000D01*
X165400500Y-131335000D01*
X165402500Y-131335000D01*
X165405500Y-131336000D01*
G36*
X165405500Y-131336000D02*
G01*
X165407500Y-131336000D01*
X165410500Y-131337000D01*
X165412500Y-131337000D01*
X165415500Y-131338000D01*
X165417500Y-131339000D01*
X165420500Y-131340000D01*
X165422500Y-131342000D01*
X165424500Y-131343000D01*
X165426500Y-131345000D01*
X165428500Y-131346000D01*
X165430500Y-131348000D01*
X165432500Y-131350000D01*
X165434500Y-131352000D01*
X165436500Y-131354000D01*
X165437500Y-131356000D01*
X165439500Y-131358000D01*
X165440500Y-131360000D01*
X165442500Y-131362000D01*
X165443500Y-131365000D01*
X165444500Y-131367000D01*
X165445500Y-131370000D01*
X165445500Y-131372000D01*
X165446500Y-131375000D01*
X165446500Y-131377000D01*
X165447500Y-131380000D01*
X165447500Y-131382000D01*
X165447500Y-131385000D01*
X165447500Y-131665000D01*
X165447500Y-131668000D01*
X165447500Y-131670000D01*
X165446500Y-131673000D01*
X165446500Y-131675000D01*
X165445500Y-131678000D01*
X165445500Y-131680000D01*
X165444500Y-131683000D01*
X165443500Y-131685000D01*
X165442500Y-131688000D01*
X165440500Y-131690000D01*
X165439500Y-131692000D01*
X165437500Y-131694000D01*
X165436500Y-131696000D01*
X165434500Y-131698000D01*
X165432500Y-131700000D01*
X165430500Y-131702000D01*
X165428500Y-131704000D01*
X165426500Y-131705000D01*
X165424500Y-131707000D01*
X165422500Y-131708000D01*
X165420500Y-131710000D01*
X165417500Y-131711000D01*
X165415500Y-131712000D01*
X165412500Y-131713000D01*
X165410500Y-131713000D01*
X165407500Y-131714000D01*
X165405500Y-131714000D01*
X165402500Y-131715000D01*
X165400500Y-131715000D01*
X165397500Y-131715000D01*
X164757500Y-131715000D01*
X164754500Y-131715000D01*
X164752500Y-131715000D01*
X164749500Y-131714000D01*
X164747500Y-131714000D01*
X164744500Y-131713000D01*
X164742500Y-131713000D01*
X164739500Y-131712000D01*
X164737500Y-131711000D01*
X164734500Y-131710000D01*
X164732500Y-131708000D01*
X164730500Y-131707000D01*
X164728500Y-131705000D01*
X164726500Y-131704000D01*
X164724500Y-131702000D01*
X164722500Y-131700000D01*
X164720500Y-131698000D01*
X164718500Y-131696000D01*
X164717500Y-131694000D01*
X164715500Y-131692000D01*
X164714500Y-131690000D01*
X164712500Y-131688000D01*
X164711500Y-131685000D01*
X164710500Y-131683000D01*
X164709500Y-131680000D01*
X164709500Y-131678000D01*
X164708500Y-131675000D01*
X164708500Y-131673000D01*
X164707500Y-131670000D01*
X164707500Y-131668000D01*
X164707500Y-131665000D01*
X164707500Y-131385000D01*
X164707500Y-131382000D01*
X164707500Y-131380000D01*
X164708500Y-131377000D01*
X164708500Y-131375000D01*
X164709500Y-131372000D01*
X164709500Y-131370000D01*
X164710500Y-131367000D01*
X164711500Y-131365000D01*
X164712500Y-131362000D01*
X164714500Y-131360000D01*
X164715500Y-131358000D01*
X164717500Y-131356000D01*
X164718500Y-131354000D01*
X164720500Y-131352000D01*
X164722500Y-131350000D01*
X164724500Y-131348000D01*
X164726500Y-131346000D01*
X164728500Y-131345000D01*
X164730500Y-131343000D01*
X164732500Y-131342000D01*
X164734500Y-131340000D01*
X164737500Y-131339000D01*
X164739500Y-131338000D01*
X164742500Y-131337000D01*
X164744500Y-131337000D01*
X164747500Y-131336000D01*
X164749500Y-131336000D01*
X164752500Y-131335000D01*
X164754500Y-131335000D01*
X164757500Y-131335000D01*
X165397500Y-131335000D01*
X165400500Y-131335000D01*
X165402500Y-131335000D01*
X165405500Y-131336000D01*
G37*
X165405500Y-131836000D02*
X165407500Y-131836000D01*
X165410500Y-131837000D01*
X165412500Y-131837000D01*
X165415500Y-131838000D01*
X165417500Y-131839000D01*
X165420500Y-131840000D01*
X165422500Y-131842000D01*
X165424500Y-131843000D01*
X165426500Y-131845000D01*
X165428500Y-131846000D01*
X165430500Y-131848000D01*
X165432500Y-131850000D01*
X165434500Y-131852000D01*
X165436500Y-131854000D01*
X165437500Y-131856000D01*
X165439500Y-131858000D01*
X165440500Y-131860000D01*
X165442500Y-131862000D01*
X165443500Y-131865000D01*
X165444500Y-131867000D01*
X165445500Y-131870000D01*
X165445500Y-131872000D01*
X165446500Y-131875000D01*
X165446500Y-131877000D01*
X165447500Y-131880000D01*
X165447500Y-131882000D01*
X165447500Y-131885000D01*
X165447500Y-132165000D01*
X165447500Y-132168000D01*
X165447500Y-132170000D01*
X165446500Y-132173000D01*
X165446500Y-132175000D01*
X165445500Y-132178000D01*
X165445500Y-132180000D01*
X165444500Y-132183000D01*
X165443500Y-132185000D01*
X165442500Y-132188000D01*
X165440500Y-132190000D01*
X165439500Y-132192000D01*
X165437500Y-132194000D01*
X165436500Y-132196000D01*
X165434500Y-132198000D01*
X165432500Y-132200000D01*
X165430500Y-132202000D01*
X165428500Y-132204000D01*
X165426500Y-132205000D01*
X165424500Y-132207000D01*
X165422500Y-132208000D01*
X165420500Y-132210000D01*
X165417500Y-132211000D01*
X165415500Y-132212000D01*
X165412500Y-132213000D01*
X165410500Y-132213000D01*
X165407500Y-132214000D01*
X165405500Y-132214000D01*
X165402500Y-132215000D01*
X165400500Y-132215000D01*
X165397500Y-132215000D01*
X164757500Y-132215000D01*
X164754500Y-132215000D01*
X164752500Y-132215000D01*
X164749500Y-132214000D01*
X164747500Y-132214000D01*
X164744500Y-132213000D01*
X164742500Y-132213000D01*
X164739500Y-132212000D01*
X164737500Y-132211000D01*
X164734500Y-132210000D01*
X164732500Y-132208000D01*
X164730500Y-132207000D01*
X164728500Y-132205000D01*
X164726500Y-132204000D01*
X164724500Y-132202000D01*
X164722500Y-132200000D01*
X164720500Y-132198000D01*
X164718500Y-132196000D01*
X164717500Y-132194000D01*
X164715500Y-132192000D01*
X164714500Y-132190000D01*
X164712500Y-132188000D01*
X164711500Y-132185000D01*
X164710500Y-132183000D01*
X164709500Y-132180000D01*
X164709500Y-132178000D01*
X164708500Y-132175000D01*
X164708500Y-132173000D01*
X164707500Y-132170000D01*
X164707500Y-132168000D01*
X164707500Y-132165000D01*
X164707500Y-131885000D01*
X164707500Y-131882000D01*
X164707500Y-131880000D01*
X164708500Y-131877000D01*
X164708500Y-131875000D01*
X164709500Y-131872000D01*
X164709500Y-131870000D01*
X164710500Y-131867000D01*
X164711500Y-131865000D01*
X164712500Y-131862000D01*
X164714500Y-131860000D01*
X164715500Y-131858000D01*
X164717500Y-131856000D01*
X164718500Y-131854000D01*
X164720500Y-131852000D01*
X164722500Y-131850000D01*
X164724500Y-131848000D01*
X164726500Y-131846000D01*
X164728500Y-131845000D01*
X164730500Y-131843000D01*
X164732500Y-131842000D01*
X164734500Y-131840000D01*
X164737500Y-131839000D01*
X164739500Y-131838000D01*
X164742500Y-131837000D01*
X164744500Y-131837000D01*
X164747500Y-131836000D01*
X164749500Y-131836000D01*
X164752500Y-131835000D01*
X164754500Y-131835000D01*
X164757500Y-131835000D01*
X165397500Y-131835000D01*
X165400500Y-131835000D01*
X165402500Y-131835000D01*
X165405500Y-131836000D01*
G36*
X165405500Y-131836000D02*
G01*
X165407500Y-131836000D01*
X165410500Y-131837000D01*
X165412500Y-131837000D01*
X165415500Y-131838000D01*
X165417500Y-131839000D01*
X165420500Y-131840000D01*
X165422500Y-131842000D01*
X165424500Y-131843000D01*
X165426500Y-131845000D01*
X165428500Y-131846000D01*
X165430500Y-131848000D01*
X165432500Y-131850000D01*
X165434500Y-131852000D01*
X165436500Y-131854000D01*
X165437500Y-131856000D01*
X165439500Y-131858000D01*
X165440500Y-131860000D01*
X165442500Y-131862000D01*
X165443500Y-131865000D01*
X165444500Y-131867000D01*
X165445500Y-131870000D01*
X165445500Y-131872000D01*
X165446500Y-131875000D01*
X165446500Y-131877000D01*
X165447500Y-131880000D01*
X165447500Y-131882000D01*
X165447500Y-131885000D01*
X165447500Y-132165000D01*
X165447500Y-132168000D01*
X165447500Y-132170000D01*
X165446500Y-132173000D01*
X165446500Y-132175000D01*
X165445500Y-132178000D01*
X165445500Y-132180000D01*
X165444500Y-132183000D01*
X165443500Y-132185000D01*
X165442500Y-132188000D01*
X165440500Y-132190000D01*
X165439500Y-132192000D01*
X165437500Y-132194000D01*
X165436500Y-132196000D01*
X165434500Y-132198000D01*
X165432500Y-132200000D01*
X165430500Y-132202000D01*
X165428500Y-132204000D01*
X165426500Y-132205000D01*
X165424500Y-132207000D01*
X165422500Y-132208000D01*
X165420500Y-132210000D01*
X165417500Y-132211000D01*
X165415500Y-132212000D01*
X165412500Y-132213000D01*
X165410500Y-132213000D01*
X165407500Y-132214000D01*
X165405500Y-132214000D01*
X165402500Y-132215000D01*
X165400500Y-132215000D01*
X165397500Y-132215000D01*
X164757500Y-132215000D01*
X164754500Y-132215000D01*
X164752500Y-132215000D01*
X164749500Y-132214000D01*
X164747500Y-132214000D01*
X164744500Y-132213000D01*
X164742500Y-132213000D01*
X164739500Y-132212000D01*
X164737500Y-132211000D01*
X164734500Y-132210000D01*
X164732500Y-132208000D01*
X164730500Y-132207000D01*
X164728500Y-132205000D01*
X164726500Y-132204000D01*
X164724500Y-132202000D01*
X164722500Y-132200000D01*
X164720500Y-132198000D01*
X164718500Y-132196000D01*
X164717500Y-132194000D01*
X164715500Y-132192000D01*
X164714500Y-132190000D01*
X164712500Y-132188000D01*
X164711500Y-132185000D01*
X164710500Y-132183000D01*
X164709500Y-132180000D01*
X164709500Y-132178000D01*
X164708500Y-132175000D01*
X164708500Y-132173000D01*
X164707500Y-132170000D01*
X164707500Y-132168000D01*
X164707500Y-132165000D01*
X164707500Y-131885000D01*
X164707500Y-131882000D01*
X164707500Y-131880000D01*
X164708500Y-131877000D01*
X164708500Y-131875000D01*
X164709500Y-131872000D01*
X164709500Y-131870000D01*
X164710500Y-131867000D01*
X164711500Y-131865000D01*
X164712500Y-131862000D01*
X164714500Y-131860000D01*
X164715500Y-131858000D01*
X164717500Y-131856000D01*
X164718500Y-131854000D01*
X164720500Y-131852000D01*
X164722500Y-131850000D01*
X164724500Y-131848000D01*
X164726500Y-131846000D01*
X164728500Y-131845000D01*
X164730500Y-131843000D01*
X164732500Y-131842000D01*
X164734500Y-131840000D01*
X164737500Y-131839000D01*
X164739500Y-131838000D01*
X164742500Y-131837000D01*
X164744500Y-131837000D01*
X164747500Y-131836000D01*
X164749500Y-131836000D01*
X164752500Y-131835000D01*
X164754500Y-131835000D01*
X164757500Y-131835000D01*
X165397500Y-131835000D01*
X165400500Y-131835000D01*
X165402500Y-131835000D01*
X165405500Y-131836000D01*
G37*
X165405500Y-132336000D02*
X165407500Y-132336000D01*
X165410500Y-132337000D01*
X165412500Y-132337000D01*
X165415500Y-132338000D01*
X165417500Y-132339000D01*
X165420500Y-132340000D01*
X165422500Y-132342000D01*
X165424500Y-132343000D01*
X165426500Y-132345000D01*
X165428500Y-132346000D01*
X165430500Y-132348000D01*
X165432500Y-132350000D01*
X165434500Y-132352000D01*
X165436500Y-132354000D01*
X165437500Y-132356000D01*
X165439500Y-132358000D01*
X165440500Y-132360000D01*
X165442500Y-132362000D01*
X165443500Y-132365000D01*
X165444500Y-132367000D01*
X165445500Y-132370000D01*
X165445500Y-132372000D01*
X165446500Y-132375000D01*
X165446500Y-132377000D01*
X165447500Y-132380000D01*
X165447500Y-132382000D01*
X165447500Y-132385000D01*
X165447500Y-132665000D01*
X165447500Y-132668000D01*
X165447500Y-132670000D01*
X165446500Y-132673000D01*
X165446500Y-132675000D01*
X165445500Y-132678000D01*
X165445500Y-132680000D01*
X165444500Y-132683000D01*
X165443500Y-132685000D01*
X165442500Y-132688000D01*
X165440500Y-132690000D01*
X165439500Y-132692000D01*
X165437500Y-132694000D01*
X165436500Y-132696000D01*
X165434500Y-132698000D01*
X165432500Y-132700000D01*
X165430500Y-132702000D01*
X165428500Y-132704000D01*
X165426500Y-132705000D01*
X165424500Y-132707000D01*
X165422500Y-132708000D01*
X165420500Y-132710000D01*
X165417500Y-132711000D01*
X165415500Y-132712000D01*
X165412500Y-132713000D01*
X165410500Y-132713000D01*
X165407500Y-132714000D01*
X165405500Y-132714000D01*
X165402500Y-132715000D01*
X165400500Y-132715000D01*
X165397500Y-132715000D01*
X164757500Y-132715000D01*
X164754500Y-132715000D01*
X164752500Y-132715000D01*
X164749500Y-132714000D01*
X164747500Y-132714000D01*
X164744500Y-132713000D01*
X164742500Y-132713000D01*
X164739500Y-132712000D01*
X164737500Y-132711000D01*
X164734500Y-132710000D01*
X164732500Y-132708000D01*
X164730500Y-132707000D01*
X164728500Y-132705000D01*
X164726500Y-132704000D01*
X164724500Y-132702000D01*
X164722500Y-132700000D01*
X164720500Y-132698000D01*
X164718500Y-132696000D01*
X164717500Y-132694000D01*
X164715500Y-132692000D01*
X164714500Y-132690000D01*
X164712500Y-132688000D01*
X164711500Y-132685000D01*
X164710500Y-132683000D01*
X164709500Y-132680000D01*
X164709500Y-132678000D01*
X164708500Y-132675000D01*
X164708500Y-132673000D01*
X164707500Y-132670000D01*
X164707500Y-132668000D01*
X164707500Y-132665000D01*
X164707500Y-132385000D01*
X164707500Y-132382000D01*
X164707500Y-132380000D01*
X164708500Y-132377000D01*
X164708500Y-132375000D01*
X164709500Y-132372000D01*
X164709500Y-132370000D01*
X164710500Y-132367000D01*
X164711500Y-132365000D01*
X164712500Y-132362000D01*
X164714500Y-132360000D01*
X164715500Y-132358000D01*
X164717500Y-132356000D01*
X164718500Y-132354000D01*
X164720500Y-132352000D01*
X164722500Y-132350000D01*
X164724500Y-132348000D01*
X164726500Y-132346000D01*
X164728500Y-132345000D01*
X164730500Y-132343000D01*
X164732500Y-132342000D01*
X164734500Y-132340000D01*
X164737500Y-132339000D01*
X164739500Y-132338000D01*
X164742500Y-132337000D01*
X164744500Y-132337000D01*
X164747500Y-132336000D01*
X164749500Y-132336000D01*
X164752500Y-132335000D01*
X164754500Y-132335000D01*
X164757500Y-132335000D01*
X165397500Y-132335000D01*
X165400500Y-132335000D01*
X165402500Y-132335000D01*
X165405500Y-132336000D01*
G36*
X165405500Y-132336000D02*
G01*
X165407500Y-132336000D01*
X165410500Y-132337000D01*
X165412500Y-132337000D01*
X165415500Y-132338000D01*
X165417500Y-132339000D01*
X165420500Y-132340000D01*
X165422500Y-132342000D01*
X165424500Y-132343000D01*
X165426500Y-132345000D01*
X165428500Y-132346000D01*
X165430500Y-132348000D01*
X165432500Y-132350000D01*
X165434500Y-132352000D01*
X165436500Y-132354000D01*
X165437500Y-132356000D01*
X165439500Y-132358000D01*
X165440500Y-132360000D01*
X165442500Y-132362000D01*
X165443500Y-132365000D01*
X165444500Y-132367000D01*
X165445500Y-132370000D01*
X165445500Y-132372000D01*
X165446500Y-132375000D01*
X165446500Y-132377000D01*
X165447500Y-132380000D01*
X165447500Y-132382000D01*
X165447500Y-132385000D01*
X165447500Y-132665000D01*
X165447500Y-132668000D01*
X165447500Y-132670000D01*
X165446500Y-132673000D01*
X165446500Y-132675000D01*
X165445500Y-132678000D01*
X165445500Y-132680000D01*
X165444500Y-132683000D01*
X165443500Y-132685000D01*
X165442500Y-132688000D01*
X165440500Y-132690000D01*
X165439500Y-132692000D01*
X165437500Y-132694000D01*
X165436500Y-132696000D01*
X165434500Y-132698000D01*
X165432500Y-132700000D01*
X165430500Y-132702000D01*
X165428500Y-132704000D01*
X165426500Y-132705000D01*
X165424500Y-132707000D01*
X165422500Y-132708000D01*
X165420500Y-132710000D01*
X165417500Y-132711000D01*
X165415500Y-132712000D01*
X165412500Y-132713000D01*
X165410500Y-132713000D01*
X165407500Y-132714000D01*
X165405500Y-132714000D01*
X165402500Y-132715000D01*
X165400500Y-132715000D01*
X165397500Y-132715000D01*
X164757500Y-132715000D01*
X164754500Y-132715000D01*
X164752500Y-132715000D01*
X164749500Y-132714000D01*
X164747500Y-132714000D01*
X164744500Y-132713000D01*
X164742500Y-132713000D01*
X164739500Y-132712000D01*
X164737500Y-132711000D01*
X164734500Y-132710000D01*
X164732500Y-132708000D01*
X164730500Y-132707000D01*
X164728500Y-132705000D01*
X164726500Y-132704000D01*
X164724500Y-132702000D01*
X164722500Y-132700000D01*
X164720500Y-132698000D01*
X164718500Y-132696000D01*
X164717500Y-132694000D01*
X164715500Y-132692000D01*
X164714500Y-132690000D01*
X164712500Y-132688000D01*
X164711500Y-132685000D01*
X164710500Y-132683000D01*
X164709500Y-132680000D01*
X164709500Y-132678000D01*
X164708500Y-132675000D01*
X164708500Y-132673000D01*
X164707500Y-132670000D01*
X164707500Y-132668000D01*
X164707500Y-132665000D01*
X164707500Y-132385000D01*
X164707500Y-132382000D01*
X164707500Y-132380000D01*
X164708500Y-132377000D01*
X164708500Y-132375000D01*
X164709500Y-132372000D01*
X164709500Y-132370000D01*
X164710500Y-132367000D01*
X164711500Y-132365000D01*
X164712500Y-132362000D01*
X164714500Y-132360000D01*
X164715500Y-132358000D01*
X164717500Y-132356000D01*
X164718500Y-132354000D01*
X164720500Y-132352000D01*
X164722500Y-132350000D01*
X164724500Y-132348000D01*
X164726500Y-132346000D01*
X164728500Y-132345000D01*
X164730500Y-132343000D01*
X164732500Y-132342000D01*
X164734500Y-132340000D01*
X164737500Y-132339000D01*
X164739500Y-132338000D01*
X164742500Y-132337000D01*
X164744500Y-132337000D01*
X164747500Y-132336000D01*
X164749500Y-132336000D01*
X164752500Y-132335000D01*
X164754500Y-132335000D01*
X164757500Y-132335000D01*
X165397500Y-132335000D01*
X165400500Y-132335000D01*
X165402500Y-132335000D01*
X165405500Y-132336000D01*
G37*
X165405500Y-132836000D02*
X165407500Y-132836000D01*
X165410500Y-132837000D01*
X165412500Y-132837000D01*
X165415500Y-132838000D01*
X165417500Y-132839000D01*
X165420500Y-132840000D01*
X165422500Y-132842000D01*
X165424500Y-132843000D01*
X165426500Y-132845000D01*
X165428500Y-132846000D01*
X165430500Y-132848000D01*
X165432500Y-132850000D01*
X165434500Y-132852000D01*
X165436500Y-132854000D01*
X165437500Y-132856000D01*
X165439500Y-132858000D01*
X165440500Y-132860000D01*
X165442500Y-132862000D01*
X165443500Y-132865000D01*
X165444500Y-132867000D01*
X165445500Y-132870000D01*
X165445500Y-132872000D01*
X165446500Y-132875000D01*
X165446500Y-132877000D01*
X165447500Y-132880000D01*
X165447500Y-132882000D01*
X165447500Y-132885000D01*
X165447500Y-133165000D01*
X165447500Y-133168000D01*
X165447500Y-133170000D01*
X165446500Y-133173000D01*
X165446500Y-133175000D01*
X165445500Y-133178000D01*
X165445500Y-133180000D01*
X165444500Y-133183000D01*
X165443500Y-133185000D01*
X165442500Y-133188000D01*
X165440500Y-133190000D01*
X165439500Y-133192000D01*
X165437500Y-133194000D01*
X165436500Y-133196000D01*
X165434500Y-133198000D01*
X165432500Y-133200000D01*
X165430500Y-133202000D01*
X165428500Y-133204000D01*
X165426500Y-133205000D01*
X165424500Y-133207000D01*
X165422500Y-133208000D01*
X165420500Y-133210000D01*
X165417500Y-133211000D01*
X165415500Y-133212000D01*
X165412500Y-133213000D01*
X165410500Y-133213000D01*
X165407500Y-133214000D01*
X165405500Y-133214000D01*
X165402500Y-133215000D01*
X165400500Y-133215000D01*
X165397500Y-133215000D01*
X164757500Y-133215000D01*
X164754500Y-133215000D01*
X164752500Y-133215000D01*
X164749500Y-133214000D01*
X164747500Y-133214000D01*
X164744500Y-133213000D01*
X164742500Y-133213000D01*
X164739500Y-133212000D01*
X164737500Y-133211000D01*
X164734500Y-133210000D01*
X164732500Y-133208000D01*
X164730500Y-133207000D01*
X164728500Y-133205000D01*
X164726500Y-133204000D01*
X164724500Y-133202000D01*
X164722500Y-133200000D01*
X164720500Y-133198000D01*
X164718500Y-133196000D01*
X164717500Y-133194000D01*
X164715500Y-133192000D01*
X164714500Y-133190000D01*
X164712500Y-133188000D01*
X164711500Y-133185000D01*
X164710500Y-133183000D01*
X164709500Y-133180000D01*
X164709500Y-133178000D01*
X164708500Y-133175000D01*
X164708500Y-133173000D01*
X164707500Y-133170000D01*
X164707500Y-133168000D01*
X164707500Y-133165000D01*
X164707500Y-132885000D01*
X164707500Y-132882000D01*
X164707500Y-132880000D01*
X164708500Y-132877000D01*
X164708500Y-132875000D01*
X164709500Y-132872000D01*
X164709500Y-132870000D01*
X164710500Y-132867000D01*
X164711500Y-132865000D01*
X164712500Y-132862000D01*
X164714500Y-132860000D01*
X164715500Y-132858000D01*
X164717500Y-132856000D01*
X164718500Y-132854000D01*
X164720500Y-132852000D01*
X164722500Y-132850000D01*
X164724500Y-132848000D01*
X164726500Y-132846000D01*
X164728500Y-132845000D01*
X164730500Y-132843000D01*
X164732500Y-132842000D01*
X164734500Y-132840000D01*
X164737500Y-132839000D01*
X164739500Y-132838000D01*
X164742500Y-132837000D01*
X164744500Y-132837000D01*
X164747500Y-132836000D01*
X164749500Y-132836000D01*
X164752500Y-132835000D01*
X164754500Y-132835000D01*
X164757500Y-132835000D01*
X165397500Y-132835000D01*
X165400500Y-132835000D01*
X165402500Y-132835000D01*
X165405500Y-132836000D01*
G36*
X165405500Y-132836000D02*
G01*
X165407500Y-132836000D01*
X165410500Y-132837000D01*
X165412500Y-132837000D01*
X165415500Y-132838000D01*
X165417500Y-132839000D01*
X165420500Y-132840000D01*
X165422500Y-132842000D01*
X165424500Y-132843000D01*
X165426500Y-132845000D01*
X165428500Y-132846000D01*
X165430500Y-132848000D01*
X165432500Y-132850000D01*
X165434500Y-132852000D01*
X165436500Y-132854000D01*
X165437500Y-132856000D01*
X165439500Y-132858000D01*
X165440500Y-132860000D01*
X165442500Y-132862000D01*
X165443500Y-132865000D01*
X165444500Y-132867000D01*
X165445500Y-132870000D01*
X165445500Y-132872000D01*
X165446500Y-132875000D01*
X165446500Y-132877000D01*
X165447500Y-132880000D01*
X165447500Y-132882000D01*
X165447500Y-132885000D01*
X165447500Y-133165000D01*
X165447500Y-133168000D01*
X165447500Y-133170000D01*
X165446500Y-133173000D01*
X165446500Y-133175000D01*
X165445500Y-133178000D01*
X165445500Y-133180000D01*
X165444500Y-133183000D01*
X165443500Y-133185000D01*
X165442500Y-133188000D01*
X165440500Y-133190000D01*
X165439500Y-133192000D01*
X165437500Y-133194000D01*
X165436500Y-133196000D01*
X165434500Y-133198000D01*
X165432500Y-133200000D01*
X165430500Y-133202000D01*
X165428500Y-133204000D01*
X165426500Y-133205000D01*
X165424500Y-133207000D01*
X165422500Y-133208000D01*
X165420500Y-133210000D01*
X165417500Y-133211000D01*
X165415500Y-133212000D01*
X165412500Y-133213000D01*
X165410500Y-133213000D01*
X165407500Y-133214000D01*
X165405500Y-133214000D01*
X165402500Y-133215000D01*
X165400500Y-133215000D01*
X165397500Y-133215000D01*
X164757500Y-133215000D01*
X164754500Y-133215000D01*
X164752500Y-133215000D01*
X164749500Y-133214000D01*
X164747500Y-133214000D01*
X164744500Y-133213000D01*
X164742500Y-133213000D01*
X164739500Y-133212000D01*
X164737500Y-133211000D01*
X164734500Y-133210000D01*
X164732500Y-133208000D01*
X164730500Y-133207000D01*
X164728500Y-133205000D01*
X164726500Y-133204000D01*
X164724500Y-133202000D01*
X164722500Y-133200000D01*
X164720500Y-133198000D01*
X164718500Y-133196000D01*
X164717500Y-133194000D01*
X164715500Y-133192000D01*
X164714500Y-133190000D01*
X164712500Y-133188000D01*
X164711500Y-133185000D01*
X164710500Y-133183000D01*
X164709500Y-133180000D01*
X164709500Y-133178000D01*
X164708500Y-133175000D01*
X164708500Y-133173000D01*
X164707500Y-133170000D01*
X164707500Y-133168000D01*
X164707500Y-133165000D01*
X164707500Y-132885000D01*
X164707500Y-132882000D01*
X164707500Y-132880000D01*
X164708500Y-132877000D01*
X164708500Y-132875000D01*
X164709500Y-132872000D01*
X164709500Y-132870000D01*
X164710500Y-132867000D01*
X164711500Y-132865000D01*
X164712500Y-132862000D01*
X164714500Y-132860000D01*
X164715500Y-132858000D01*
X164717500Y-132856000D01*
X164718500Y-132854000D01*
X164720500Y-132852000D01*
X164722500Y-132850000D01*
X164724500Y-132848000D01*
X164726500Y-132846000D01*
X164728500Y-132845000D01*
X164730500Y-132843000D01*
X164732500Y-132842000D01*
X164734500Y-132840000D01*
X164737500Y-132839000D01*
X164739500Y-132838000D01*
X164742500Y-132837000D01*
X164744500Y-132837000D01*
X164747500Y-132836000D01*
X164749500Y-132836000D01*
X164752500Y-132835000D01*
X164754500Y-132835000D01*
X164757500Y-132835000D01*
X165397500Y-132835000D01*
X165400500Y-132835000D01*
X165402500Y-132835000D01*
X165405500Y-132836000D01*
G37*
X163580500Y-130256000D02*
X163582500Y-130256000D01*
X163585500Y-130257000D01*
X163587500Y-130257000D01*
X163590500Y-130258000D01*
X163592500Y-130259000D01*
X163595500Y-130260000D01*
X163597500Y-130262000D01*
X163599500Y-130263000D01*
X163601500Y-130265000D01*
X163603500Y-130266000D01*
X163605500Y-130268000D01*
X163607500Y-130270000D01*
X163609500Y-130272000D01*
X163611500Y-130274000D01*
X163612500Y-130276000D01*
X163614500Y-130278000D01*
X163615500Y-130280000D01*
X163617500Y-130282000D01*
X163618500Y-130285000D01*
X163619500Y-130287000D01*
X163620500Y-130290000D01*
X163620500Y-130292000D01*
X163621500Y-130295000D01*
X163621500Y-130297000D01*
X163622500Y-130300000D01*
X163622500Y-130302000D01*
X163622500Y-130305000D01*
X163622500Y-130755000D01*
X163732500Y-130755000D01*
X163732500Y-130305000D01*
X163732500Y-130302000D01*
X163732500Y-130300000D01*
X163733500Y-130297000D01*
X163733500Y-130295000D01*
X163734500Y-130292000D01*
X163734500Y-130290000D01*
X163735500Y-130287000D01*
X163736500Y-130285000D01*
X163737500Y-130282000D01*
X163739500Y-130280000D01*
X163740500Y-130278000D01*
X163742500Y-130276000D01*
X163743500Y-130274000D01*
X163745500Y-130272000D01*
X163747500Y-130270000D01*
X163749500Y-130268000D01*
X163751500Y-130266000D01*
X163753500Y-130265000D01*
X163755500Y-130263000D01*
X163757500Y-130262000D01*
X163759500Y-130260000D01*
X163762500Y-130259000D01*
X163764500Y-130258000D01*
X163767500Y-130257000D01*
X163769500Y-130257000D01*
X163772500Y-130256000D01*
X163774500Y-130256000D01*
X163777500Y-130255000D01*
X163779500Y-130255000D01*
X163782500Y-130255000D01*
X164072500Y-130255000D01*
X164075500Y-130255000D01*
X164077500Y-130255000D01*
X164080500Y-130256000D01*
X164082500Y-130256000D01*
X164085500Y-130257000D01*
X164087500Y-130257000D01*
X164090500Y-130258000D01*
X164092500Y-130259000D01*
X164095500Y-130260000D01*
X164097500Y-130262000D01*
X164099500Y-130263000D01*
X164101500Y-130265000D01*
X164103500Y-130266000D01*
X164105500Y-130268000D01*
X164107500Y-130270000D01*
X164109500Y-130272000D01*
X164111500Y-130274000D01*
X164112500Y-130276000D01*
X164114500Y-130278000D01*
X164115500Y-130280000D01*
X164117500Y-130282000D01*
X164118500Y-130285000D01*
X164119500Y-130287000D01*
X164120500Y-130290000D01*
X164120500Y-130292000D01*
X164121500Y-130295000D01*
X164121500Y-130297000D01*
X164122500Y-130300000D01*
X164122500Y-130302000D01*
X164122500Y-130305000D01*
X164122500Y-130755000D01*
X164522500Y-130755000D01*
X164525500Y-130755000D01*
X164527500Y-130755000D01*
X164530500Y-130756000D01*
X164532500Y-130756000D01*
X164535500Y-130757000D01*
X164537500Y-130757000D01*
X164540500Y-130758000D01*
X164542500Y-130759000D01*
X164545500Y-130760000D01*
X164547500Y-130762000D01*
X164549500Y-130763000D01*
X164551500Y-130765000D01*
X164553500Y-130766000D01*
X164555500Y-130768000D01*
X164557500Y-130770000D01*
X164559500Y-130772000D01*
X164561500Y-130774000D01*
X164562500Y-130776000D01*
X164564500Y-130778000D01*
X164565500Y-130780000D01*
X164567500Y-130782000D01*
X164568500Y-130785000D01*
X164569500Y-130787000D01*
X164570500Y-130790000D01*
X164570500Y-130792000D01*
X164571500Y-130795000D01*
X164571500Y-130797000D01*
X164572500Y-130800000D01*
X164572500Y-130802000D01*
X164572500Y-130805000D01*
X164572500Y-133245000D01*
X164572500Y-133248000D01*
X164572500Y-133250000D01*
X164571500Y-133253000D01*
X164571500Y-133255000D01*
X164570500Y-133258000D01*
X164570500Y-133260000D01*
X164569500Y-133263000D01*
X164568500Y-133265000D01*
X164567500Y-133268000D01*
X164565500Y-133270000D01*
X164564500Y-133272000D01*
X164562500Y-133274000D01*
X164561500Y-133276000D01*
X164559500Y-133278000D01*
X164557500Y-133280000D01*
X164555500Y-133282000D01*
X164553500Y-133284000D01*
X164551500Y-133285000D01*
X164549500Y-133287000D01*
X164547500Y-133288000D01*
X164545500Y-133290000D01*
X164542500Y-133291000D01*
X164540500Y-133292000D01*
X164537500Y-133293000D01*
X164535500Y-133293000D01*
X164532500Y-133294000D01*
X164530500Y-133294000D01*
X164527500Y-133295000D01*
X164525500Y-133295000D01*
X164522500Y-133295000D01*
X164122500Y-133295000D01*
X164122500Y-133745000D01*
X164122500Y-133748000D01*
X164122500Y-133750000D01*
X164121500Y-133753000D01*
X164121500Y-133755000D01*
X164120500Y-133758000D01*
X164120500Y-133760000D01*
X164119500Y-133763000D01*
X164118500Y-133765000D01*
X164117500Y-133768000D01*
X164115500Y-133770000D01*
X164114500Y-133772000D01*
X164112500Y-133774000D01*
X164111500Y-133776000D01*
X164109500Y-133778000D01*
X164107500Y-133780000D01*
X164105500Y-133782000D01*
X164103500Y-133784000D01*
X164101500Y-133785000D01*
X164099500Y-133787000D01*
X164097500Y-133788000D01*
X164095500Y-133790000D01*
X164092500Y-133791000D01*
X164090500Y-133792000D01*
X164087500Y-133793000D01*
X164085500Y-133793000D01*
X164082500Y-133794000D01*
X164080500Y-133794000D01*
X164077500Y-133795000D01*
X164075500Y-133795000D01*
X164072500Y-133795000D01*
X163782500Y-133795000D01*
X163779500Y-133795000D01*
X163777500Y-133795000D01*
X163774500Y-133794000D01*
X163772500Y-133794000D01*
X163769500Y-133793000D01*
X163767500Y-133793000D01*
X163764500Y-133792000D01*
X163762500Y-133791000D01*
X163759500Y-133790000D01*
X163757500Y-133788000D01*
X163755500Y-133787000D01*
X163753500Y-133785000D01*
X163751500Y-133784000D01*
X163749500Y-133782000D01*
X163747500Y-133780000D01*
X163745500Y-133778000D01*
X163743500Y-133776000D01*
X163742500Y-133774000D01*
X163740500Y-133772000D01*
X163739500Y-133770000D01*
X163737500Y-133768000D01*
X163736500Y-133765000D01*
X163735500Y-133763000D01*
X163734500Y-133760000D01*
X163734500Y-133758000D01*
X163733500Y-133755000D01*
X163733500Y-133753000D01*
X163732500Y-133750000D01*
X163732500Y-133748000D01*
X163732500Y-133745000D01*
X163732500Y-133295000D01*
X163622500Y-133295000D01*
X163622500Y-133745000D01*
X163622500Y-133748000D01*
X163622500Y-133750000D01*
X163621500Y-133753000D01*
X163621500Y-133755000D01*
X163620500Y-133758000D01*
X163620500Y-133760000D01*
X163619500Y-133763000D01*
X163618500Y-133765000D01*
X163617500Y-133768000D01*
X163615500Y-133770000D01*
X163614500Y-133772000D01*
X163612500Y-133774000D01*
X163611500Y-133776000D01*
X163609500Y-133778000D01*
X163607500Y-133780000D01*
X163605500Y-133782000D01*
X163603500Y-133784000D01*
X163601500Y-133785000D01*
X163599500Y-133787000D01*
X163597500Y-133788000D01*
X163595500Y-133790000D01*
X163592500Y-133791000D01*
X163590500Y-133792000D01*
X163587500Y-133793000D01*
X163585500Y-133793000D01*
X163582500Y-133794000D01*
X163580500Y-133794000D01*
X163577500Y-133795000D01*
X163575500Y-133795000D01*
X163572500Y-133795000D01*
X163282500Y-133795000D01*
X163279500Y-133795000D01*
X163277500Y-133795000D01*
X163274500Y-133794000D01*
X163272500Y-133794000D01*
X163269500Y-133793000D01*
X163267500Y-133793000D01*
X163264500Y-133792000D01*
X163262500Y-133791000D01*
X163259500Y-133790000D01*
X163257500Y-133788000D01*
X163255500Y-133787000D01*
X163253500Y-133785000D01*
X163251500Y-133784000D01*
X163249500Y-133782000D01*
X163247500Y-133780000D01*
X163245500Y-133778000D01*
X163243500Y-133776000D01*
X163242500Y-133774000D01*
X163240500Y-133772000D01*
X163239500Y-133770000D01*
X163237500Y-133768000D01*
X163236500Y-133765000D01*
X163235500Y-133763000D01*
X163234500Y-133760000D01*
X163234500Y-133758000D01*
X163233500Y-133755000D01*
X163233500Y-133753000D01*
X163232500Y-133750000D01*
X163232500Y-133748000D01*
X163232500Y-133745000D01*
X163232500Y-133295000D01*
X162832500Y-133295000D01*
X162829500Y-133295000D01*
X162827500Y-133295000D01*
X162824500Y-133294000D01*
X162822500Y-133294000D01*
X162819500Y-133293000D01*
X162817500Y-133293000D01*
X162814500Y-133292000D01*
X162812500Y-133291000D01*
X162809500Y-133290000D01*
X162807500Y-133288000D01*
X162805500Y-133287000D01*
X162803500Y-133285000D01*
X162801500Y-133284000D01*
X162799500Y-133282000D01*
X162797500Y-133280000D01*
X162795500Y-133278000D01*
X162793500Y-133276000D01*
X162792500Y-133274000D01*
X162790500Y-133272000D01*
X162789500Y-133270000D01*
X162787500Y-133268000D01*
X162786500Y-133265000D01*
X162785500Y-133263000D01*
X162784500Y-133260000D01*
X162784500Y-133258000D01*
X162783500Y-133255000D01*
X162783500Y-133253000D01*
X162782500Y-133250000D01*
X162782500Y-133248000D01*
X162782500Y-133245000D01*
X162782500Y-130805000D01*
X162782500Y-130802000D01*
X162782500Y-130800000D01*
X162783500Y-130797000D01*
X162783500Y-130795000D01*
X162784500Y-130792000D01*
X162784500Y-130790000D01*
X162785500Y-130787000D01*
X162786500Y-130785000D01*
X162787500Y-130782000D01*
X162789500Y-130780000D01*
X162790500Y-130778000D01*
X162792500Y-130776000D01*
X162793500Y-130774000D01*
X162795500Y-130772000D01*
X162797500Y-130770000D01*
X162799500Y-130768000D01*
X162801500Y-130766000D01*
X162803500Y-130765000D01*
X162805500Y-130763000D01*
X162807500Y-130762000D01*
X162809500Y-130760000D01*
X162812500Y-130759000D01*
X162814500Y-130758000D01*
X162817500Y-130757000D01*
X162819500Y-130757000D01*
X162822500Y-130756000D01*
X162824500Y-130756000D01*
X162827500Y-130755000D01*
X162829500Y-130755000D01*
X162832500Y-130755000D01*
X163232500Y-130755000D01*
X163232500Y-130305000D01*
X163232500Y-130302000D01*
X163232500Y-130300000D01*
X163233500Y-130297000D01*
X163233500Y-130295000D01*
X163234500Y-130292000D01*
X163234500Y-130290000D01*
X163235500Y-130287000D01*
X163236500Y-130285000D01*
X163237500Y-130282000D01*
X163239500Y-130280000D01*
X163240500Y-130278000D01*
X163242500Y-130276000D01*
X163243500Y-130274000D01*
X163245500Y-130272000D01*
X163247500Y-130270000D01*
X163249500Y-130268000D01*
X163251500Y-130266000D01*
X163253500Y-130265000D01*
X163255500Y-130263000D01*
X163257500Y-130262000D01*
X163259500Y-130260000D01*
X163262500Y-130259000D01*
X163264500Y-130258000D01*
X163267500Y-130257000D01*
X163269500Y-130257000D01*
X163272500Y-130256000D01*
X163274500Y-130256000D01*
X163277500Y-130255000D01*
X163279500Y-130255000D01*
X163282500Y-130255000D01*
X163572500Y-130255000D01*
X163575500Y-130255000D01*
X163577500Y-130255000D01*
X163580500Y-130256000D01*
G36*
X163580500Y-130256000D02*
G01*
X163582500Y-130256000D01*
X163585500Y-130257000D01*
X163587500Y-130257000D01*
X163590500Y-130258000D01*
X163592500Y-130259000D01*
X163595500Y-130260000D01*
X163597500Y-130262000D01*
X163599500Y-130263000D01*
X163601500Y-130265000D01*
X163603500Y-130266000D01*
X163605500Y-130268000D01*
X163607500Y-130270000D01*
X163609500Y-130272000D01*
X163611500Y-130274000D01*
X163612500Y-130276000D01*
X163614500Y-130278000D01*
X163615500Y-130280000D01*
X163617500Y-130282000D01*
X163618500Y-130285000D01*
X163619500Y-130287000D01*
X163620500Y-130290000D01*
X163620500Y-130292000D01*
X163621500Y-130295000D01*
X163621500Y-130297000D01*
X163622500Y-130300000D01*
X163622500Y-130302000D01*
X163622500Y-130305000D01*
X163622500Y-130755000D01*
X163732500Y-130755000D01*
X163732500Y-130305000D01*
X163732500Y-130302000D01*
X163732500Y-130300000D01*
X163733500Y-130297000D01*
X163733500Y-130295000D01*
X163734500Y-130292000D01*
X163734500Y-130290000D01*
X163735500Y-130287000D01*
X163736500Y-130285000D01*
X163737500Y-130282000D01*
X163739500Y-130280000D01*
X163740500Y-130278000D01*
X163742500Y-130276000D01*
X163743500Y-130274000D01*
X163745500Y-130272000D01*
X163747500Y-130270000D01*
X163749500Y-130268000D01*
X163751500Y-130266000D01*
X163753500Y-130265000D01*
X163755500Y-130263000D01*
X163757500Y-130262000D01*
X163759500Y-130260000D01*
X163762500Y-130259000D01*
X163764500Y-130258000D01*
X163767500Y-130257000D01*
X163769500Y-130257000D01*
X163772500Y-130256000D01*
X163774500Y-130256000D01*
X163777500Y-130255000D01*
X163779500Y-130255000D01*
X163782500Y-130255000D01*
X164072500Y-130255000D01*
X164075500Y-130255000D01*
X164077500Y-130255000D01*
X164080500Y-130256000D01*
X164082500Y-130256000D01*
X164085500Y-130257000D01*
X164087500Y-130257000D01*
X164090500Y-130258000D01*
X164092500Y-130259000D01*
X164095500Y-130260000D01*
X164097500Y-130262000D01*
X164099500Y-130263000D01*
X164101500Y-130265000D01*
X164103500Y-130266000D01*
X164105500Y-130268000D01*
X164107500Y-130270000D01*
X164109500Y-130272000D01*
X164111500Y-130274000D01*
X164112500Y-130276000D01*
X164114500Y-130278000D01*
X164115500Y-130280000D01*
X164117500Y-130282000D01*
X164118500Y-130285000D01*
X164119500Y-130287000D01*
X164120500Y-130290000D01*
X164120500Y-130292000D01*
X164121500Y-130295000D01*
X164121500Y-130297000D01*
X164122500Y-130300000D01*
X164122500Y-130302000D01*
X164122500Y-130305000D01*
X164122500Y-130755000D01*
X164522500Y-130755000D01*
X164525500Y-130755000D01*
X164527500Y-130755000D01*
X164530500Y-130756000D01*
X164532500Y-130756000D01*
X164535500Y-130757000D01*
X164537500Y-130757000D01*
X164540500Y-130758000D01*
X164542500Y-130759000D01*
X164545500Y-130760000D01*
X164547500Y-130762000D01*
X164549500Y-130763000D01*
X164551500Y-130765000D01*
X164553500Y-130766000D01*
X164555500Y-130768000D01*
X164557500Y-130770000D01*
X164559500Y-130772000D01*
X164561500Y-130774000D01*
X164562500Y-130776000D01*
X164564500Y-130778000D01*
X164565500Y-130780000D01*
X164567500Y-130782000D01*
X164568500Y-130785000D01*
X164569500Y-130787000D01*
X164570500Y-130790000D01*
X164570500Y-130792000D01*
X164571500Y-130795000D01*
X164571500Y-130797000D01*
X164572500Y-130800000D01*
X164572500Y-130802000D01*
X164572500Y-130805000D01*
X164572500Y-133245000D01*
X164572500Y-133248000D01*
X164572500Y-133250000D01*
X164571500Y-133253000D01*
X164571500Y-133255000D01*
X164570500Y-133258000D01*
X164570500Y-133260000D01*
X164569500Y-133263000D01*
X164568500Y-133265000D01*
X164567500Y-133268000D01*
X164565500Y-133270000D01*
X164564500Y-133272000D01*
X164562500Y-133274000D01*
X164561500Y-133276000D01*
X164559500Y-133278000D01*
X164557500Y-133280000D01*
X164555500Y-133282000D01*
X164553500Y-133284000D01*
X164551500Y-133285000D01*
X164549500Y-133287000D01*
X164547500Y-133288000D01*
X164545500Y-133290000D01*
X164542500Y-133291000D01*
X164540500Y-133292000D01*
X164537500Y-133293000D01*
X164535500Y-133293000D01*
X164532500Y-133294000D01*
X164530500Y-133294000D01*
X164527500Y-133295000D01*
X164525500Y-133295000D01*
X164522500Y-133295000D01*
X164122500Y-133295000D01*
X164122500Y-133745000D01*
X164122500Y-133748000D01*
X164122500Y-133750000D01*
X164121500Y-133753000D01*
X164121500Y-133755000D01*
X164120500Y-133758000D01*
X164120500Y-133760000D01*
X164119500Y-133763000D01*
X164118500Y-133765000D01*
X164117500Y-133768000D01*
X164115500Y-133770000D01*
X164114500Y-133772000D01*
X164112500Y-133774000D01*
X164111500Y-133776000D01*
X164109500Y-133778000D01*
X164107500Y-133780000D01*
X164105500Y-133782000D01*
X164103500Y-133784000D01*
X164101500Y-133785000D01*
X164099500Y-133787000D01*
X164097500Y-133788000D01*
X164095500Y-133790000D01*
X164092500Y-133791000D01*
X164090500Y-133792000D01*
X164087500Y-133793000D01*
X164085500Y-133793000D01*
X164082500Y-133794000D01*
X164080500Y-133794000D01*
X164077500Y-133795000D01*
X164075500Y-133795000D01*
X164072500Y-133795000D01*
X163782500Y-133795000D01*
X163779500Y-133795000D01*
X163777500Y-133795000D01*
X163774500Y-133794000D01*
X163772500Y-133794000D01*
X163769500Y-133793000D01*
X163767500Y-133793000D01*
X163764500Y-133792000D01*
X163762500Y-133791000D01*
X163759500Y-133790000D01*
X163757500Y-133788000D01*
X163755500Y-133787000D01*
X163753500Y-133785000D01*
X163751500Y-133784000D01*
X163749500Y-133782000D01*
X163747500Y-133780000D01*
X163745500Y-133778000D01*
X163743500Y-133776000D01*
X163742500Y-133774000D01*
X163740500Y-133772000D01*
X163739500Y-133770000D01*
X163737500Y-133768000D01*
X163736500Y-133765000D01*
X163735500Y-133763000D01*
X163734500Y-133760000D01*
X163734500Y-133758000D01*
X163733500Y-133755000D01*
X163733500Y-133753000D01*
X163732500Y-133750000D01*
X163732500Y-133748000D01*
X163732500Y-133745000D01*
X163732500Y-133295000D01*
X163622500Y-133295000D01*
X163622500Y-133745000D01*
X163622500Y-133748000D01*
X163622500Y-133750000D01*
X163621500Y-133753000D01*
X163621500Y-133755000D01*
X163620500Y-133758000D01*
X163620500Y-133760000D01*
X163619500Y-133763000D01*
X163618500Y-133765000D01*
X163617500Y-133768000D01*
X163615500Y-133770000D01*
X163614500Y-133772000D01*
X163612500Y-133774000D01*
X163611500Y-133776000D01*
X163609500Y-133778000D01*
X163607500Y-133780000D01*
X163605500Y-133782000D01*
X163603500Y-133784000D01*
X163601500Y-133785000D01*
X163599500Y-133787000D01*
X163597500Y-133788000D01*
X163595500Y-133790000D01*
X163592500Y-133791000D01*
X163590500Y-133792000D01*
X163587500Y-133793000D01*
X163585500Y-133793000D01*
X163582500Y-133794000D01*
X163580500Y-133794000D01*
X163577500Y-133795000D01*
X163575500Y-133795000D01*
X163572500Y-133795000D01*
X163282500Y-133795000D01*
X163279500Y-133795000D01*
X163277500Y-133795000D01*
X163274500Y-133794000D01*
X163272500Y-133794000D01*
X163269500Y-133793000D01*
X163267500Y-133793000D01*
X163264500Y-133792000D01*
X163262500Y-133791000D01*
X163259500Y-133790000D01*
X163257500Y-133788000D01*
X163255500Y-133787000D01*
X163253500Y-133785000D01*
X163251500Y-133784000D01*
X163249500Y-133782000D01*
X163247500Y-133780000D01*
X163245500Y-133778000D01*
X163243500Y-133776000D01*
X163242500Y-133774000D01*
X163240500Y-133772000D01*
X163239500Y-133770000D01*
X163237500Y-133768000D01*
X163236500Y-133765000D01*
X163235500Y-133763000D01*
X163234500Y-133760000D01*
X163234500Y-133758000D01*
X163233500Y-133755000D01*
X163233500Y-133753000D01*
X163232500Y-133750000D01*
X163232500Y-133748000D01*
X163232500Y-133745000D01*
X163232500Y-133295000D01*
X162832500Y-133295000D01*
X162829500Y-133295000D01*
X162827500Y-133295000D01*
X162824500Y-133294000D01*
X162822500Y-133294000D01*
X162819500Y-133293000D01*
X162817500Y-133293000D01*
X162814500Y-133292000D01*
X162812500Y-133291000D01*
X162809500Y-133290000D01*
X162807500Y-133288000D01*
X162805500Y-133287000D01*
X162803500Y-133285000D01*
X162801500Y-133284000D01*
X162799500Y-133282000D01*
X162797500Y-133280000D01*
X162795500Y-133278000D01*
X162793500Y-133276000D01*
X162792500Y-133274000D01*
X162790500Y-133272000D01*
X162789500Y-133270000D01*
X162787500Y-133268000D01*
X162786500Y-133265000D01*
X162785500Y-133263000D01*
X162784500Y-133260000D01*
X162784500Y-133258000D01*
X162783500Y-133255000D01*
X162783500Y-133253000D01*
X162782500Y-133250000D01*
X162782500Y-133248000D01*
X162782500Y-133245000D01*
X162782500Y-130805000D01*
X162782500Y-130802000D01*
X162782500Y-130800000D01*
X162783500Y-130797000D01*
X162783500Y-130795000D01*
X162784500Y-130792000D01*
X162784500Y-130790000D01*
X162785500Y-130787000D01*
X162786500Y-130785000D01*
X162787500Y-130782000D01*
X162789500Y-130780000D01*
X162790500Y-130778000D01*
X162792500Y-130776000D01*
X162793500Y-130774000D01*
X162795500Y-130772000D01*
X162797500Y-130770000D01*
X162799500Y-130768000D01*
X162801500Y-130766000D01*
X162803500Y-130765000D01*
X162805500Y-130763000D01*
X162807500Y-130762000D01*
X162809500Y-130760000D01*
X162812500Y-130759000D01*
X162814500Y-130758000D01*
X162817500Y-130757000D01*
X162819500Y-130757000D01*
X162822500Y-130756000D01*
X162824500Y-130756000D01*
X162827500Y-130755000D01*
X162829500Y-130755000D01*
X162832500Y-130755000D01*
X163232500Y-130755000D01*
X163232500Y-130305000D01*
X163232500Y-130302000D01*
X163232500Y-130300000D01*
X163233500Y-130297000D01*
X163233500Y-130295000D01*
X163234500Y-130292000D01*
X163234500Y-130290000D01*
X163235500Y-130287000D01*
X163236500Y-130285000D01*
X163237500Y-130282000D01*
X163239500Y-130280000D01*
X163240500Y-130278000D01*
X163242500Y-130276000D01*
X163243500Y-130274000D01*
X163245500Y-130272000D01*
X163247500Y-130270000D01*
X163249500Y-130268000D01*
X163251500Y-130266000D01*
X163253500Y-130265000D01*
X163255500Y-130263000D01*
X163257500Y-130262000D01*
X163259500Y-130260000D01*
X163262500Y-130259000D01*
X163264500Y-130258000D01*
X163267500Y-130257000D01*
X163269500Y-130257000D01*
X163272500Y-130256000D01*
X163274500Y-130256000D01*
X163277500Y-130255000D01*
X163279500Y-130255000D01*
X163282500Y-130255000D01*
X163572500Y-130255000D01*
X163575500Y-130255000D01*
X163577500Y-130255000D01*
X163580500Y-130256000D01*
G37*
%TD*%
D11*
%TO.C,IC11*%
X142595000Y-127998000D03*
X143245000Y-127998000D03*
X143895000Y-127998000D03*
X144545000Y-127998000D03*
X145195000Y-127998000D03*
X145845000Y-127998000D03*
X146495000Y-127998000D03*
X147145000Y-127998000D03*
X147145000Y-122122000D03*
X146495000Y-122122000D03*
X145845000Y-122122000D03*
X145195000Y-122122000D03*
X144545000Y-122122000D03*
X143895000Y-122122000D03*
X143245000Y-122122000D03*
X142595000Y-122122000D03*
%TD*%
D12*
%TO.C,D6*%
X169440000Y-105147500D03*
X169440000Y-105962500D03*
%TD*%
D13*
%TO.C,IC3*%
X103625000Y-94500000D03*
X104275000Y-94500000D03*
X104925000Y-94500000D03*
X104925000Y-92400000D03*
X104275000Y-92400000D03*
X103625000Y-92400000D03*
D14*
X104275000Y-93450000D03*
%TD*%
D15*
%TO.C,U11*%
X153070000Y-71310000D03*
X151800000Y-71310000D03*
X150530000Y-71310000D03*
X149260000Y-71310000D03*
X149260000Y-76260000D03*
X150530000Y-76260000D03*
X151800000Y-76260000D03*
X153070000Y-76260000D03*
%TD*%
D16*
%TO.C,C49*%
X168972500Y-124020000D03*
X171047500Y-124020000D03*
%TD*%
D17*
%TO.C,C27*%
X159925000Y-130987500D03*
X159925000Y-132712500D03*
%TD*%
D18*
%TO.C,C18*%
X127357500Y-97270000D03*
X125807500Y-97270000D03*
%TD*%
D11*
%TO.C,IC2*%
X147037500Y-110910000D03*
X146387500Y-110910000D03*
X145737500Y-110910000D03*
X145087500Y-110910000D03*
X144437500Y-110910000D03*
X143787500Y-110910000D03*
X143137500Y-110910000D03*
X142487500Y-110910000D03*
X142487500Y-116786000D03*
X143137500Y-116786000D03*
X143787500Y-116786000D03*
X144437500Y-116786000D03*
X145087500Y-116786000D03*
X145737500Y-116786000D03*
X146387500Y-116786000D03*
X147037500Y-116786000D03*
%TD*%
D19*
%TO.C,U16*%
X99216800Y-68741600D03*
X99216800Y-70011600D03*
X99216800Y-71281600D03*
X99216800Y-72551600D03*
X106709800Y-72551600D03*
X106709800Y-71281600D03*
X106709800Y-70011600D03*
X106709800Y-68741600D03*
%TD*%
D20*
%TO.C,R2_FAULT1*%
X152200000Y-80920000D03*
X152200000Y-78920000D03*
%TD*%
D18*
%TO.C,C16*%
X134802500Y-88445600D03*
X133252500Y-88445600D03*
%TD*%
D21*
%TO.C,IC5*%
X148050000Y-79195000D03*
X148050000Y-79845000D03*
X148050000Y-80495000D03*
X150150000Y-80495000D03*
X150150000Y-79845000D03*
X150150000Y-79195000D03*
D22*
X149100000Y-79845000D03*
%TD*%
D19*
%TO.C,U15*%
X99596800Y-77851600D03*
X99596800Y-79121600D03*
X99596800Y-80391600D03*
X99596800Y-81661600D03*
X107089800Y-81661600D03*
X107089800Y-80391600D03*
X107089800Y-79121600D03*
X107089800Y-77851600D03*
%TD*%
D23*
%TO.C,U8*%
X125707499Y-101895000D03*
X126207500Y-101895000D03*
X126707500Y-101895000D03*
X127207501Y-101895000D03*
D24*
X127905300Y-101197201D03*
X127905300Y-100697200D03*
X127905300Y-100197200D03*
X127905300Y-99697199D03*
D23*
X127207501Y-98999400D03*
X126707500Y-98999400D03*
X126207500Y-98999400D03*
X125707499Y-98999400D03*
D24*
X125009700Y-99697199D03*
X125009700Y-100197200D03*
X125009700Y-100697200D03*
X125009700Y-101197201D03*
D25*
X126457500Y-100447200D03*
%TD*%
D26*
%TO.C,U19*%
X156080000Y-123060000D03*
X156080000Y-123560000D03*
X156080000Y-124060000D03*
X156080000Y-124560000D03*
X157980000Y-124560000D03*
X157980000Y-124060000D03*
X157980000Y-123560000D03*
X157980000Y-123060000D03*
D27*
X157030000Y-123810000D03*
%TD*%
D28*
%TO.C,C20*%
X140949700Y-97284999D03*
X142499700Y-97284999D03*
%TD*%
D29*
%TO.C,J2*%
X172700000Y-96960000D03*
D30*
X172700000Y-99500000D03*
X172700000Y-102040000D03*
X172700000Y-104580000D03*
X172700000Y-107120000D03*
%TD*%
D19*
%TO.C,U17*%
X99013800Y-59441600D03*
X99013800Y-60711600D03*
X99013800Y-61981600D03*
X99013800Y-63251600D03*
X106506800Y-63251600D03*
X106506800Y-61981600D03*
X106506800Y-60711600D03*
X106506800Y-59441600D03*
%TD*%
D31*
%TO.C,SW2*%
X153960000Y-137320000D03*
X155560000Y-137320000D03*
X155560000Y-133220000D03*
X153960000Y-133220000D03*
D32*
X153335000Y-135270000D03*
%TD*%
D33*
%TO.C,U18*%
X116520000Y-124270000D03*
X116520000Y-123770000D03*
X116520000Y-123270000D03*
X116520000Y-122770000D03*
X114620000Y-122770000D03*
X114620000Y-123270000D03*
X114620000Y-123770000D03*
X114620000Y-124270000D03*
D27*
X115570000Y-123520000D03*
%TD*%
D34*
%TO.C,C3_RETRY1*%
X164487500Y-91060000D03*
X162762500Y-91060000D03*
%TD*%
D20*
%TO.C,R33*%
X126430000Y-73060000D03*
X126430000Y-71060000D03*
%TD*%
D35*
%TO.C,R3_FAULT1*%
X162525000Y-96250000D03*
X164525000Y-96250000D03*
%TD*%
D20*
%TO.C,R19*%
X160060000Y-103735000D03*
X160060000Y-101735000D03*
%TD*%
D29*
%TO.C,J4*%
X94210000Y-115060000D03*
D30*
X96750000Y-115060000D03*
%TD*%
D20*
%TO.C,R1_ILIM1*%
X106660000Y-94590000D03*
X106660000Y-92590000D03*
%TD*%
D15*
%TO.C,U12*%
X162945000Y-71335000D03*
X161675000Y-71335000D03*
X160405000Y-71335000D03*
X159135000Y-71335000D03*
X159135000Y-76285000D03*
X160405000Y-76285000D03*
X161675000Y-76285000D03*
X162945000Y-76285000D03*
%TD*%
D29*
%TO.C,J5*%
X153495000Y-114720000D03*
D30*
X156035000Y-114720000D03*
%TD*%
D36*
%TO.C,D7*%
X116270000Y-75920000D03*
X116270000Y-71920000D03*
%TD*%
D18*
%TO.C,C1*%
X136350000Y-98500000D03*
X134800000Y-98500000D03*
%TD*%
D12*
%TO.C,D5*%
X110310000Y-105170000D03*
X110310000Y-105985000D03*
%TD*%
D37*
%TO.C,R27*%
X139167500Y-124097500D03*
X139167500Y-125922500D03*
%TD*%
D12*
%TO.C,D3*%
X167480000Y-105087500D03*
X167480000Y-105902500D03*
%TD*%
D20*
%TO.C,R11*%
X158750000Y-137275000D03*
X158750000Y-135275000D03*
%TD*%
D38*
%TO.C,C25*%
X158350000Y-132637500D03*
X158350000Y-130912500D03*
%TD*%
D31*
%TO.C,SW1*%
X114300000Y-137250000D03*
X115900000Y-137250000D03*
X115900000Y-133150000D03*
X114300000Y-133150000D03*
D32*
X113675000Y-135200000D03*
%TD*%
D37*
%TO.C,R26*%
X137637500Y-124067500D03*
X137637500Y-125892500D03*
%TD*%
D38*
%TO.C,C24*%
X110745000Y-132587500D03*
X110745000Y-130862500D03*
%TD*%
D39*
%TO.C,C4_RETRY1*%
X162717500Y-82735000D03*
X164442500Y-82735000D03*
%TD*%
D34*
%TO.C,C51*%
X155892500Y-130630000D03*
X154167500Y-130630000D03*
%TD*%
D40*
%TO.C,JP2*%
X167725000Y-136975000D03*
X165185000Y-136975000D03*
%TD*%
D34*
%TO.C,C1_RETRY1*%
X104742500Y-90940000D03*
X103017500Y-90940000D03*
%TD*%
D38*
%TO.C,C23*%
X161965000Y-94462500D03*
X161965000Y-92737500D03*
%TD*%
D41*
%TO.C,Q2*%
X160812500Y-135287500D03*
X160812500Y-137187500D03*
X162687500Y-136237500D03*
%TD*%
D20*
%TO.C,R15*%
X169630000Y-132920000D03*
X169630000Y-130920000D03*
%TD*%
D35*
%TO.C,R4_ILIM1*%
X158855000Y-82835000D03*
X160855000Y-82835000D03*
%TD*%
D42*
%TO.C,J1*%
X110057500Y-66347500D03*
D43*
X110057500Y-68887500D03*
X112597500Y-66347500D03*
X112597500Y-68887500D03*
X115137500Y-66347500D03*
X115137500Y-68887500D03*
X117677500Y-66347500D03*
X117677500Y-68887500D03*
X120217500Y-66347500D03*
X120217500Y-68887500D03*
X122757500Y-66347500D03*
X122757500Y-68887500D03*
X125297500Y-66347500D03*
X125297500Y-68887500D03*
X127837500Y-66347500D03*
X127837500Y-68887500D03*
X130377500Y-66347500D03*
X130377500Y-68887500D03*
X132917500Y-66347500D03*
X132917500Y-68887500D03*
X135457500Y-66347500D03*
X135457500Y-68887500D03*
X137997500Y-66347500D03*
X137997500Y-68887500D03*
X140537500Y-66347500D03*
X140537500Y-68887500D03*
X143077500Y-66347500D03*
X143077500Y-68887500D03*
X145617500Y-66347500D03*
X145617500Y-68887500D03*
X148157500Y-66347500D03*
X148157500Y-68887500D03*
X150697500Y-66347500D03*
X150697500Y-68887500D03*
X153237500Y-66347500D03*
X153237500Y-68887500D03*
X155777500Y-66347500D03*
X155777500Y-68887500D03*
X158317500Y-66347500D03*
X158317500Y-68887500D03*
%TD*%
D44*
%TO.C,R28*%
X159485000Y-124635000D03*
X159485000Y-122810000D03*
%TD*%
D20*
%TO.C,R4_FAULT1*%
X162530000Y-80885000D03*
X162530000Y-78885000D03*
%TD*%
D11*
%TO.C,IC13*%
X121185000Y-127968000D03*
X121835000Y-127968000D03*
X122485000Y-127968000D03*
X123135000Y-127968000D03*
X123785000Y-127968000D03*
X124435000Y-127968000D03*
X125085000Y-127968000D03*
X125735000Y-127968000D03*
X125735000Y-122092000D03*
X125085000Y-122092000D03*
X124435000Y-122092000D03*
X123785000Y-122092000D03*
X123135000Y-122092000D03*
X122485000Y-122092000D03*
X121835000Y-122092000D03*
X121185000Y-122092000D03*
%TD*%
%TO.C,IC12*%
X125640000Y-110872000D03*
X124990000Y-110872000D03*
X124340000Y-110872000D03*
X123690000Y-110872000D03*
X123040000Y-110872000D03*
X122390000Y-110872000D03*
X121740000Y-110872000D03*
X121090000Y-110872000D03*
X121090000Y-116748000D03*
X121740000Y-116748000D03*
X122390000Y-116748000D03*
X123040000Y-116748000D03*
X123690000Y-116748000D03*
X124340000Y-116748000D03*
X124990000Y-116748000D03*
X125640000Y-116748000D03*
%TD*%
D45*
%TO.C,R10*%
X110270000Y-135225000D03*
X110270000Y-137225000D03*
%TD*%
D20*
%TO.C,R16*%
X108220000Y-103715000D03*
X108220000Y-101715000D03*
%TD*%
%TO.C,R20*%
X110330000Y-103750000D03*
X110330000Y-101750000D03*
%TD*%
D46*
%TO.C,U3*%
X135125000Y-96800000D03*
X135125000Y-95850000D03*
X135125000Y-94900000D03*
X132850000Y-94900000D03*
X132850000Y-95850000D03*
X132850000Y-96800000D03*
%TD*%
D17*
%TO.C,C54*%
X140657500Y-124127500D03*
X140657500Y-125852500D03*
%TD*%
D47*
%TO.C,C7*%
X131050000Y-95075000D03*
X131050000Y-96625000D03*
%TD*%
D28*
%TO.C,C17*%
X140924700Y-95609999D03*
X142474700Y-95609999D03*
%TD*%
D17*
%TO.C,C59*%
X126340000Y-74777500D03*
X126340000Y-76502500D03*
%TD*%
D23*
%TO.C,U6*%
X133227500Y-93270600D03*
X133727501Y-93270600D03*
X134227501Y-93270600D03*
X134727502Y-93270600D03*
D24*
X135425301Y-92572801D03*
X135425301Y-92072800D03*
X135425301Y-91572800D03*
X135425301Y-91072799D03*
D23*
X134727502Y-90375000D03*
X134227501Y-90375000D03*
X133727501Y-90375000D03*
X133227500Y-90375000D03*
D24*
X132529701Y-91072799D03*
X132529701Y-91572800D03*
X132529701Y-92072800D03*
X132529701Y-92572801D03*
D25*
X133977501Y-91822800D03*
%TD*%
D48*
%TO.C,Q1*%
X107970000Y-137300000D03*
X107970000Y-135400000D03*
X106095000Y-136350000D03*
%TD*%
D12*
%TO.C,D2*%
X100720000Y-105102500D03*
X100720000Y-105917500D03*
%TD*%
%TO.C,D1*%
X108180000Y-105110000D03*
X108180000Y-105925000D03*
%TD*%
D45*
%TO.C,R13*%
X99795000Y-130890000D03*
X99795000Y-132890000D03*
%TD*%
D28*
%TO.C,C6*%
X131750000Y-98500000D03*
X133300000Y-98500000D03*
%TD*%
D17*
%TO.C,C52*%
X154075000Y-79132500D03*
X154075000Y-80857500D03*
%TD*%
D20*
%TO.C,R17*%
X100740000Y-103725000D03*
X100740000Y-101725000D03*
%TD*%
D17*
%TO.C,C26*%
X109165000Y-130837500D03*
X109165000Y-132562500D03*
%TD*%
%TO.C,C53*%
X164530000Y-78960000D03*
X164530000Y-80685000D03*
%TD*%
D35*
%TO.C,R2_ILIM1*%
X148350000Y-82795000D03*
X150350000Y-82795000D03*
%TD*%
D39*
%TO.C,C36*%
X95985000Y-112430000D03*
X97710000Y-112430000D03*
%TD*%
D11*
%TO.C,IC10*%
X131712500Y-127978000D03*
X132362500Y-127978000D03*
X133012500Y-127978000D03*
X133662500Y-127978000D03*
X134312500Y-127978000D03*
X134962500Y-127978000D03*
X135612500Y-127978000D03*
X136262500Y-127978000D03*
X136262500Y-122102000D03*
X135612500Y-122102000D03*
X134962500Y-122102000D03*
X134312500Y-122102000D03*
X133662500Y-122102000D03*
X133012500Y-122102000D03*
X132362500Y-122102000D03*
X131712500Y-122102000D03*
%TD*%
D49*
%TO.C,U13*%
X100795000Y-111250000D03*
X100795000Y-111750000D03*
X100795000Y-112250000D03*
X100795000Y-112750000D03*
X100795000Y-113250000D03*
X100795000Y-113750000D03*
X100795000Y-114250000D03*
X100795000Y-114750000D03*
X100795000Y-115250000D03*
X100795000Y-115750000D03*
X100795000Y-116250000D03*
X100795000Y-116750000D03*
X100795000Y-117250000D03*
X100795000Y-117750000D03*
X100795000Y-118250000D03*
X100795000Y-118750000D03*
D50*
X102720000Y-120675000D03*
X103220000Y-120675000D03*
X103720000Y-120675000D03*
X104220000Y-120675000D03*
X104720000Y-120675000D03*
X105220000Y-120675000D03*
X105720000Y-120675000D03*
X106220000Y-120675000D03*
X106720000Y-120675000D03*
X107220000Y-120675000D03*
X107720000Y-120675000D03*
X108220000Y-120675000D03*
X108720000Y-120675000D03*
X109220000Y-120675000D03*
X109720000Y-120675000D03*
X110220000Y-120675000D03*
D49*
X112145000Y-118750000D03*
X112145000Y-118250000D03*
X112145000Y-117750000D03*
X112145000Y-117250000D03*
X112145000Y-116750000D03*
X112145000Y-116250000D03*
X112145000Y-115750000D03*
X112145000Y-115250000D03*
X112145000Y-114750000D03*
X112145000Y-114250000D03*
X112145000Y-113750000D03*
X112145000Y-113250000D03*
X112145000Y-112750000D03*
X112145000Y-112250000D03*
X112145000Y-111750000D03*
X112145000Y-111250000D03*
D50*
X110220000Y-109325000D03*
X109720000Y-109325000D03*
X109220000Y-109325000D03*
X108720000Y-109325000D03*
X108220000Y-109325000D03*
X107720000Y-109325000D03*
X107220000Y-109325000D03*
X106720000Y-109325000D03*
X106220000Y-109325000D03*
X105720000Y-109325000D03*
X105220000Y-109325000D03*
X104720000Y-109325000D03*
X104220000Y-109325000D03*
X103720000Y-109325000D03*
X103220000Y-109325000D03*
X102720000Y-109325000D03*
%TD*%
D39*
%TO.C,C2_RETRY1*%
X152237500Y-82870000D03*
X153962500Y-82870000D03*
%TD*%
D17*
%TO.C,C58*%
X113660000Y-74840000D03*
X113660000Y-76565000D03*
%TD*%
D40*
%TO.C,JP1*%
X101025000Y-136850000D03*
X103565000Y-136850000D03*
%TD*%
D18*
%TO.C,C19*%
X134802500Y-86820600D03*
X133252500Y-86820600D03*
%TD*%
D11*
%TO.C,IC1*%
X136422500Y-110892000D03*
X135772500Y-110892000D03*
X135122500Y-110892000D03*
X134472500Y-110892000D03*
X133822500Y-110892000D03*
X133172500Y-110892000D03*
X132522500Y-110892000D03*
X131872500Y-110892000D03*
X131872500Y-116768000D03*
X132522500Y-116768000D03*
X133172500Y-116768000D03*
X133822500Y-116768000D03*
X134472500Y-116768000D03*
X135122500Y-116768000D03*
X135772500Y-116768000D03*
X136422500Y-116768000D03*
%TD*%
D16*
%TO.C,C48*%
X109702500Y-124050000D03*
X111777500Y-124050000D03*
%TD*%
D35*
%TO.C,R1_FAULT1*%
X102710000Y-96210000D03*
X104710000Y-96210000D03*
%TD*%
D39*
%TO.C,C50*%
X112707500Y-130640000D03*
X114432500Y-130640000D03*
%TD*%
D45*
%TO.C,R12*%
X102020000Y-130890000D03*
X102020000Y-132890000D03*
%TD*%
D51*
%TO.C,R1*%
X136900000Y-96675000D03*
X136900000Y-95025000D03*
%TD*%
D20*
%TO.C,R18*%
X167030000Y-103715000D03*
X167030000Y-101715000D03*
%TD*%
D36*
%TO.C,D8*%
X119940000Y-75890000D03*
X119940000Y-71890000D03*
%TD*%
D39*
%TO.C,C39*%
X155307500Y-111970000D03*
X157032500Y-111970000D03*
%TD*%
D29*
%TO.C,J3*%
X114570000Y-97030000D03*
D30*
X114570000Y-99570000D03*
X114570000Y-102110000D03*
X114570000Y-104650000D03*
X114570000Y-107190000D03*
%TD*%
D38*
%TO.C,C22*%
X102180000Y-94332500D03*
X102180000Y-92607500D03*
%TD*%
D52*
%TO.C,R22*%
X105310000Y-124080000D03*
X103310000Y-124080000D03*
%TD*%
D36*
%TO.C,D9*%
X123730000Y-75890000D03*
X123730000Y-71890000D03*
%TD*%
D23*
%TO.C,U7*%
X140997499Y-101882800D03*
X141497500Y-101882800D03*
X141997500Y-101882800D03*
X142497501Y-101882800D03*
D24*
X143195300Y-101185001D03*
X143195300Y-100685000D03*
X143195300Y-100185000D03*
X143195300Y-99684999D03*
D23*
X142497501Y-98987200D03*
X141997500Y-98987200D03*
X141497500Y-98987200D03*
X140997499Y-98987200D03*
D24*
X140299700Y-99684999D03*
X140299700Y-100185000D03*
X140299700Y-100685000D03*
X140299700Y-101185001D03*
D25*
X141747500Y-100435000D03*
%TD*%
D52*
%TO.C,R23*%
X164740000Y-123930000D03*
X162740000Y-123930000D03*
%TD*%
D18*
%TO.C,C21*%
X127357500Y-95545000D03*
X125807500Y-95545000D03*
%TD*%
D20*
%TO.C,R14*%
X167560000Y-132930000D03*
X167560000Y-130930000D03*
%TD*%
%TO.C,R21*%
X169050000Y-103750000D03*
X169050000Y-101750000D03*
%TD*%
D49*
%TO.C,U14*%
X160120000Y-111200000D03*
X160120000Y-111700000D03*
X160120000Y-112200000D03*
X160120000Y-112700000D03*
X160120000Y-113200000D03*
X160120000Y-113700000D03*
X160120000Y-114200000D03*
X160120000Y-114700000D03*
X160120000Y-115200000D03*
X160120000Y-115700000D03*
X160120000Y-116200000D03*
X160120000Y-116700000D03*
X160120000Y-117200000D03*
X160120000Y-117700000D03*
X160120000Y-118200000D03*
X160120000Y-118700000D03*
D50*
X162045000Y-120625000D03*
X162545000Y-120625000D03*
X163045000Y-120625000D03*
X163545000Y-120625000D03*
X164045000Y-120625000D03*
X164545000Y-120625000D03*
X165045000Y-120625000D03*
X165545000Y-120625000D03*
X166045000Y-120625000D03*
X166545000Y-120625000D03*
X167045000Y-120625000D03*
X167545000Y-120625000D03*
X168045000Y-120625000D03*
X168545000Y-120625000D03*
X169045000Y-120625000D03*
X169545000Y-120625000D03*
D49*
X171470000Y-118700000D03*
X171470000Y-118200000D03*
X171470000Y-117700000D03*
X171470000Y-117200000D03*
X171470000Y-116700000D03*
X171470000Y-116200000D03*
X171470000Y-115700000D03*
X171470000Y-115200000D03*
X171470000Y-114700000D03*
X171470000Y-114200000D03*
X171470000Y-113700000D03*
X171470000Y-113200000D03*
X171470000Y-112700000D03*
X171470000Y-112200000D03*
X171470000Y-111700000D03*
X171470000Y-111200000D03*
D50*
X169545000Y-109275000D03*
X169045000Y-109275000D03*
X168545000Y-109275000D03*
X168045000Y-109275000D03*
X167545000Y-109275000D03*
X167045000Y-109275000D03*
X166545000Y-109275000D03*
X166045000Y-109275000D03*
X165545000Y-109275000D03*
X165045000Y-109275000D03*
X164545000Y-109275000D03*
X164045000Y-109275000D03*
X163545000Y-109275000D03*
X163045000Y-109275000D03*
X162545000Y-109275000D03*
X162045000Y-109275000D03*
%TD*%
D21*
%TO.C,IC6*%
X158555000Y-79135000D03*
X158555000Y-79785000D03*
X158555000Y-80435000D03*
X160655000Y-80435000D03*
X160655000Y-79785000D03*
X160655000Y-79135000D03*
D22*
X159605000Y-79785000D03*
%TD*%
D20*
%TO.C,R3_ILIM1*%
X166475000Y-94480000D03*
X166475000Y-92480000D03*
%TD*%
D12*
%TO.C,D4*%
X160060000Y-105135000D03*
X160060000Y-105950000D03*
%TD*%
D13*
%TO.C,IC4*%
X163395000Y-94590000D03*
X164045000Y-94590000D03*
X164695000Y-94590000D03*
X164695000Y-92490000D03*
X164045000Y-92490000D03*
X163395000Y-92490000D03*
D14*
X164045000Y-93540000D03*
%TD*%
D53*
X179650000Y-65750000D02*
X179650000Y-126400000D01*
X88650000Y-65600000D02*
X88650000Y-126250000D01*
M02*
