%TF.GenerationSoftware,KiCad,Pcbnew,9.0.4*%
%TF.CreationDate,2026-03-02T15:41:38-07:00*%
%TF.ProjectId,Motor_Board_V2,4d6f746f-725f-4426-9f61-72645f56322e,v0.1*%
%TF.SameCoordinates,Original*%
%TF.FileFunction,Legend,Bot*%
%TF.FilePolarity,Positive*%
%FSLAX46Y46*%
G04 Gerber Fmt 4.6, Leading zero omitted, Abs format (unit mm)*
G04 Created by KiCad (PCBNEW 9.0.4) date 2026-03-02 15:41:38*
%MOMM*%
%LPD*%
G01*
G04 APERTURE LIST*
%ADD10C,0.100000*%
%ADD11C,0.300000*%
%ADD12C,0.150000*%
%ADD13C,0.200000*%
%ADD14C,0.120000*%
%ADD15C,0.127000*%
%ADD16C,0.152400*%
%ADD17C,0.000000*%
G04 APERTURE END LIST*
D10*
X99687500Y-67637500D02*
X101262500Y-67637500D01*
X101262500Y-69162500D01*
X99687500Y-69162500D01*
X99687500Y-67637500D01*
G36*
X99687500Y-67637500D02*
G01*
X101262500Y-67637500D01*
X101262500Y-69162500D01*
X99687500Y-69162500D01*
X99687500Y-67637500D01*
G37*
X99650000Y-69562500D02*
X101225000Y-69562500D01*
X101225000Y-71087500D01*
X99650000Y-71087500D01*
X99650000Y-69562500D01*
G36*
X99650000Y-69562500D02*
G01*
X101225000Y-69562500D01*
X101225000Y-71087500D01*
X99650000Y-71087500D01*
X99650000Y-69562500D01*
G37*
X99687500Y-65775000D02*
X101262500Y-65775000D01*
X101262500Y-67300000D01*
X99687500Y-67300000D01*
X99687500Y-65775000D01*
G36*
X99687500Y-65775000D02*
G01*
X101262500Y-65775000D01*
X101262500Y-67300000D01*
X99687500Y-67300000D01*
X99687500Y-65775000D01*
G37*
X99650000Y-71425000D02*
X101225000Y-71425000D01*
X101225000Y-72950000D01*
X99650000Y-72950000D01*
X99650000Y-71425000D01*
G36*
X99650000Y-71425000D02*
G01*
X101225000Y-71425000D01*
X101225000Y-72950000D01*
X99650000Y-72950000D01*
X99650000Y-71425000D01*
G37*
X98288377Y-68311109D02*
X98621710Y-68311109D01*
X98621710Y-68834919D02*
X98621710Y-67834919D01*
X98621710Y-67834919D02*
X98145520Y-67834919D01*
X97335996Y-68834919D02*
X97335996Y-68311109D01*
X97335996Y-68311109D02*
X97383615Y-68215871D01*
X97383615Y-68215871D02*
X97478853Y-68168252D01*
X97478853Y-68168252D02*
X97669329Y-68168252D01*
X97669329Y-68168252D02*
X97764567Y-68215871D01*
X97335996Y-68787300D02*
X97431234Y-68834919D01*
X97431234Y-68834919D02*
X97669329Y-68834919D01*
X97669329Y-68834919D02*
X97764567Y-68787300D01*
X97764567Y-68787300D02*
X97812186Y-68692061D01*
X97812186Y-68692061D02*
X97812186Y-68596823D01*
X97812186Y-68596823D02*
X97764567Y-68501585D01*
X97764567Y-68501585D02*
X97669329Y-68453966D01*
X97669329Y-68453966D02*
X97431234Y-68453966D01*
X97431234Y-68453966D02*
X97335996Y-68406347D01*
X96431234Y-68168252D02*
X96431234Y-68834919D01*
X96859805Y-68168252D02*
X96859805Y-68692061D01*
X96859805Y-68692061D02*
X96812186Y-68787300D01*
X96812186Y-68787300D02*
X96716948Y-68834919D01*
X96716948Y-68834919D02*
X96574091Y-68834919D01*
X96574091Y-68834919D02*
X96478853Y-68787300D01*
X96478853Y-68787300D02*
X96431234Y-68739680D01*
X95812186Y-68834919D02*
X95907424Y-68787300D01*
X95907424Y-68787300D02*
X95955043Y-68692061D01*
X95955043Y-68692061D02*
X95955043Y-67834919D01*
X95574090Y-68168252D02*
X95193138Y-68168252D01*
X95431233Y-67834919D02*
X95431233Y-68692061D01*
X95431233Y-68692061D02*
X95383614Y-68787300D01*
X95383614Y-68787300D02*
X95288376Y-68834919D01*
X95288376Y-68834919D02*
X95193138Y-68834919D01*
X98250877Y-70436109D02*
X98584210Y-70436109D01*
X98584210Y-70959919D02*
X98584210Y-69959919D01*
X98584210Y-69959919D02*
X98108020Y-69959919D01*
X97584210Y-70959919D02*
X97679448Y-70912300D01*
X97679448Y-70912300D02*
X97727067Y-70817061D01*
X97727067Y-70817061D02*
X97727067Y-69959919D01*
X97203257Y-70959919D02*
X97203257Y-70293252D01*
X97203257Y-69959919D02*
X97250876Y-70007538D01*
X97250876Y-70007538D02*
X97203257Y-70055157D01*
X97203257Y-70055157D02*
X97155638Y-70007538D01*
X97155638Y-70007538D02*
X97203257Y-69959919D01*
X97203257Y-69959919D02*
X97203257Y-70055157D01*
X96298496Y-70293252D02*
X96298496Y-71102776D01*
X96298496Y-71102776D02*
X96346115Y-71198014D01*
X96346115Y-71198014D02*
X96393734Y-71245633D01*
X96393734Y-71245633D02*
X96488972Y-71293252D01*
X96488972Y-71293252D02*
X96631829Y-71293252D01*
X96631829Y-71293252D02*
X96727067Y-71245633D01*
X96298496Y-70912300D02*
X96393734Y-70959919D01*
X96393734Y-70959919D02*
X96584210Y-70959919D01*
X96584210Y-70959919D02*
X96679448Y-70912300D01*
X96679448Y-70912300D02*
X96727067Y-70864680D01*
X96727067Y-70864680D02*
X96774686Y-70769442D01*
X96774686Y-70769442D02*
X96774686Y-70483728D01*
X96774686Y-70483728D02*
X96727067Y-70388490D01*
X96727067Y-70388490D02*
X96679448Y-70340871D01*
X96679448Y-70340871D02*
X96584210Y-70293252D01*
X96584210Y-70293252D02*
X96393734Y-70293252D01*
X96393734Y-70293252D02*
X96298496Y-70340871D01*
X95822305Y-70959919D02*
X95822305Y-69959919D01*
X95393734Y-70959919D02*
X95393734Y-70436109D01*
X95393734Y-70436109D02*
X95441353Y-70340871D01*
X95441353Y-70340871D02*
X95536591Y-70293252D01*
X95536591Y-70293252D02*
X95679448Y-70293252D01*
X95679448Y-70293252D02*
X95774686Y-70340871D01*
X95774686Y-70340871D02*
X95822305Y-70388490D01*
X95060400Y-70293252D02*
X94679448Y-70293252D01*
X94917543Y-69959919D02*
X94917543Y-70817061D01*
X94917543Y-70817061D02*
X94869924Y-70912300D01*
X94869924Y-70912300D02*
X94774686Y-70959919D01*
X94774686Y-70959919D02*
X94679448Y-70959919D01*
X98584210Y-72098609D02*
X98250877Y-72098609D01*
X98108020Y-72622419D02*
X98584210Y-72622419D01*
X98584210Y-72622419D02*
X98584210Y-71622419D01*
X98584210Y-71622419D02*
X98108020Y-71622419D01*
X97679448Y-71955752D02*
X97679448Y-72622419D01*
X97679448Y-72050990D02*
X97631829Y-72003371D01*
X97631829Y-72003371D02*
X97536591Y-71955752D01*
X97536591Y-71955752D02*
X97393734Y-71955752D01*
X97393734Y-71955752D02*
X97298496Y-72003371D01*
X97298496Y-72003371D02*
X97250877Y-72098609D01*
X97250877Y-72098609D02*
X97250877Y-72622419D01*
X96346115Y-71955752D02*
X96346115Y-72765276D01*
X96346115Y-72765276D02*
X96393734Y-72860514D01*
X96393734Y-72860514D02*
X96441353Y-72908133D01*
X96441353Y-72908133D02*
X96536591Y-72955752D01*
X96536591Y-72955752D02*
X96679448Y-72955752D01*
X96679448Y-72955752D02*
X96774686Y-72908133D01*
X96346115Y-72574800D02*
X96441353Y-72622419D01*
X96441353Y-72622419D02*
X96631829Y-72622419D01*
X96631829Y-72622419D02*
X96727067Y-72574800D01*
X96727067Y-72574800D02*
X96774686Y-72527180D01*
X96774686Y-72527180D02*
X96822305Y-72431942D01*
X96822305Y-72431942D02*
X96822305Y-72146228D01*
X96822305Y-72146228D02*
X96774686Y-72050990D01*
X96774686Y-72050990D02*
X96727067Y-72003371D01*
X96727067Y-72003371D02*
X96631829Y-71955752D01*
X96631829Y-71955752D02*
X96441353Y-71955752D01*
X96441353Y-71955752D02*
X96346115Y-72003371D01*
X95869924Y-72622419D02*
X95869924Y-71955752D01*
X95869924Y-71622419D02*
X95917543Y-71670038D01*
X95917543Y-71670038D02*
X95869924Y-71717657D01*
X95869924Y-71717657D02*
X95822305Y-71670038D01*
X95822305Y-71670038D02*
X95869924Y-71622419D01*
X95869924Y-71622419D02*
X95869924Y-71717657D01*
X95393734Y-71955752D02*
X95393734Y-72622419D01*
X95393734Y-72050990D02*
X95346115Y-72003371D01*
X95346115Y-72003371D02*
X95250877Y-71955752D01*
X95250877Y-71955752D02*
X95108020Y-71955752D01*
X95108020Y-71955752D02*
X95012782Y-72003371D01*
X95012782Y-72003371D02*
X94965163Y-72098609D01*
X94965163Y-72098609D02*
X94965163Y-72622419D01*
X94108020Y-72574800D02*
X94203258Y-72622419D01*
X94203258Y-72622419D02*
X94393734Y-72622419D01*
X94393734Y-72622419D02*
X94488972Y-72574800D01*
X94488972Y-72574800D02*
X94536591Y-72479561D01*
X94536591Y-72479561D02*
X94536591Y-72098609D01*
X94536591Y-72098609D02*
X94488972Y-72003371D01*
X94488972Y-72003371D02*
X94393734Y-71955752D01*
X94393734Y-71955752D02*
X94203258Y-71955752D01*
X94203258Y-71955752D02*
X94108020Y-72003371D01*
X94108020Y-72003371D02*
X94060401Y-72098609D01*
X94060401Y-72098609D02*
X94060401Y-72193847D01*
X94060401Y-72193847D02*
X94536591Y-72289085D01*
X93250877Y-72574800D02*
X93346115Y-72622419D01*
X93346115Y-72622419D02*
X93536591Y-72622419D01*
X93536591Y-72622419D02*
X93631829Y-72574800D01*
X93631829Y-72574800D02*
X93679448Y-72479561D01*
X93679448Y-72479561D02*
X93679448Y-72098609D01*
X93679448Y-72098609D02*
X93631829Y-72003371D01*
X93631829Y-72003371D02*
X93536591Y-71955752D01*
X93536591Y-71955752D02*
X93346115Y-71955752D01*
X93346115Y-71955752D02*
X93250877Y-72003371D01*
X93250877Y-72003371D02*
X93203258Y-72098609D01*
X93203258Y-72098609D02*
X93203258Y-72193847D01*
X93203258Y-72193847D02*
X93679448Y-72289085D01*
X92774686Y-72622419D02*
X92774686Y-71955752D01*
X92774686Y-72146228D02*
X92727067Y-72050990D01*
X92727067Y-72050990D02*
X92679448Y-72003371D01*
X92679448Y-72003371D02*
X92584210Y-71955752D01*
X92584210Y-71955752D02*
X92488972Y-71955752D01*
X92155638Y-72622419D02*
X92155638Y-71955752D01*
X92155638Y-71622419D02*
X92203257Y-71670038D01*
X92203257Y-71670038D02*
X92155638Y-71717657D01*
X92155638Y-71717657D02*
X92108019Y-71670038D01*
X92108019Y-71670038D02*
X92155638Y-71622419D01*
X92155638Y-71622419D02*
X92155638Y-71717657D01*
X91679448Y-71955752D02*
X91679448Y-72622419D01*
X91679448Y-72050990D02*
X91631829Y-72003371D01*
X91631829Y-72003371D02*
X91536591Y-71955752D01*
X91536591Y-71955752D02*
X91393734Y-71955752D01*
X91393734Y-71955752D02*
X91298496Y-72003371D01*
X91298496Y-72003371D02*
X91250877Y-72098609D01*
X91250877Y-72098609D02*
X91250877Y-72622419D01*
X90346115Y-71955752D02*
X90346115Y-72765276D01*
X90346115Y-72765276D02*
X90393734Y-72860514D01*
X90393734Y-72860514D02*
X90441353Y-72908133D01*
X90441353Y-72908133D02*
X90536591Y-72955752D01*
X90536591Y-72955752D02*
X90679448Y-72955752D01*
X90679448Y-72955752D02*
X90774686Y-72908133D01*
X90346115Y-72574800D02*
X90441353Y-72622419D01*
X90441353Y-72622419D02*
X90631829Y-72622419D01*
X90631829Y-72622419D02*
X90727067Y-72574800D01*
X90727067Y-72574800D02*
X90774686Y-72527180D01*
X90774686Y-72527180D02*
X90822305Y-72431942D01*
X90822305Y-72431942D02*
X90822305Y-72146228D01*
X90822305Y-72146228D02*
X90774686Y-72050990D01*
X90774686Y-72050990D02*
X90727067Y-72003371D01*
X90727067Y-72003371D02*
X90631829Y-71955752D01*
X90631829Y-71955752D02*
X90441353Y-71955752D01*
X90441353Y-71955752D02*
X90346115Y-72003371D01*
D11*
X142363644Y-68105828D02*
X142363644Y-66605828D01*
X142363644Y-66605828D02*
X141863644Y-67677257D01*
X141863644Y-67677257D02*
X141363644Y-66605828D01*
X141363644Y-66605828D02*
X141363644Y-68105828D01*
X140435072Y-68105828D02*
X140577929Y-68034400D01*
X140577929Y-68034400D02*
X140649358Y-67962971D01*
X140649358Y-67962971D02*
X140720786Y-67820114D01*
X140720786Y-67820114D02*
X140720786Y-67391542D01*
X140720786Y-67391542D02*
X140649358Y-67248685D01*
X140649358Y-67248685D02*
X140577929Y-67177257D01*
X140577929Y-67177257D02*
X140435072Y-67105828D01*
X140435072Y-67105828D02*
X140220786Y-67105828D01*
X140220786Y-67105828D02*
X140077929Y-67177257D01*
X140077929Y-67177257D02*
X140006501Y-67248685D01*
X140006501Y-67248685D02*
X139935072Y-67391542D01*
X139935072Y-67391542D02*
X139935072Y-67820114D01*
X139935072Y-67820114D02*
X140006501Y-67962971D01*
X140006501Y-67962971D02*
X140077929Y-68034400D01*
X140077929Y-68034400D02*
X140220786Y-68105828D01*
X140220786Y-68105828D02*
X140435072Y-68105828D01*
X139506500Y-67105828D02*
X138935072Y-67105828D01*
X139292215Y-66605828D02*
X139292215Y-67891542D01*
X139292215Y-67891542D02*
X139220786Y-68034400D01*
X139220786Y-68034400D02*
X139077929Y-68105828D01*
X139077929Y-68105828D02*
X138935072Y-68105828D01*
X138220786Y-68105828D02*
X138363643Y-68034400D01*
X138363643Y-68034400D02*
X138435072Y-67962971D01*
X138435072Y-67962971D02*
X138506500Y-67820114D01*
X138506500Y-67820114D02*
X138506500Y-67391542D01*
X138506500Y-67391542D02*
X138435072Y-67248685D01*
X138435072Y-67248685D02*
X138363643Y-67177257D01*
X138363643Y-67177257D02*
X138220786Y-67105828D01*
X138220786Y-67105828D02*
X138006500Y-67105828D01*
X138006500Y-67105828D02*
X137863643Y-67177257D01*
X137863643Y-67177257D02*
X137792215Y-67248685D01*
X137792215Y-67248685D02*
X137720786Y-67391542D01*
X137720786Y-67391542D02*
X137720786Y-67820114D01*
X137720786Y-67820114D02*
X137792215Y-67962971D01*
X137792215Y-67962971D02*
X137863643Y-68034400D01*
X137863643Y-68034400D02*
X138006500Y-68105828D01*
X138006500Y-68105828D02*
X138220786Y-68105828D01*
X137077929Y-68105828D02*
X137077929Y-67105828D01*
X137077929Y-67391542D02*
X137006500Y-67248685D01*
X137006500Y-67248685D02*
X136935072Y-67177257D01*
X136935072Y-67177257D02*
X136792214Y-67105828D01*
X136792214Y-67105828D02*
X136649357Y-67105828D01*
X134506501Y-67320114D02*
X134292215Y-67391542D01*
X134292215Y-67391542D02*
X134220786Y-67462971D01*
X134220786Y-67462971D02*
X134149358Y-67605828D01*
X134149358Y-67605828D02*
X134149358Y-67820114D01*
X134149358Y-67820114D02*
X134220786Y-67962971D01*
X134220786Y-67962971D02*
X134292215Y-68034400D01*
X134292215Y-68034400D02*
X134435072Y-68105828D01*
X134435072Y-68105828D02*
X135006501Y-68105828D01*
X135006501Y-68105828D02*
X135006501Y-66605828D01*
X135006501Y-66605828D02*
X134506501Y-66605828D01*
X134506501Y-66605828D02*
X134363644Y-66677257D01*
X134363644Y-66677257D02*
X134292215Y-66748685D01*
X134292215Y-66748685D02*
X134220786Y-66891542D01*
X134220786Y-66891542D02*
X134220786Y-67034400D01*
X134220786Y-67034400D02*
X134292215Y-67177257D01*
X134292215Y-67177257D02*
X134363644Y-67248685D01*
X134363644Y-67248685D02*
X134506501Y-67320114D01*
X134506501Y-67320114D02*
X135006501Y-67320114D01*
X133292215Y-68105828D02*
X133435072Y-68034400D01*
X133435072Y-68034400D02*
X133506501Y-67962971D01*
X133506501Y-67962971D02*
X133577929Y-67820114D01*
X133577929Y-67820114D02*
X133577929Y-67391542D01*
X133577929Y-67391542D02*
X133506501Y-67248685D01*
X133506501Y-67248685D02*
X133435072Y-67177257D01*
X133435072Y-67177257D02*
X133292215Y-67105828D01*
X133292215Y-67105828D02*
X133077929Y-67105828D01*
X133077929Y-67105828D02*
X132935072Y-67177257D01*
X132935072Y-67177257D02*
X132863644Y-67248685D01*
X132863644Y-67248685D02*
X132792215Y-67391542D01*
X132792215Y-67391542D02*
X132792215Y-67820114D01*
X132792215Y-67820114D02*
X132863644Y-67962971D01*
X132863644Y-67962971D02*
X132935072Y-68034400D01*
X132935072Y-68034400D02*
X133077929Y-68105828D01*
X133077929Y-68105828D02*
X133292215Y-68105828D01*
X131506501Y-68105828D02*
X131506501Y-67320114D01*
X131506501Y-67320114D02*
X131577929Y-67177257D01*
X131577929Y-67177257D02*
X131720786Y-67105828D01*
X131720786Y-67105828D02*
X132006501Y-67105828D01*
X132006501Y-67105828D02*
X132149358Y-67177257D01*
X131506501Y-68034400D02*
X131649358Y-68105828D01*
X131649358Y-68105828D02*
X132006501Y-68105828D01*
X132006501Y-68105828D02*
X132149358Y-68034400D01*
X132149358Y-68034400D02*
X132220786Y-67891542D01*
X132220786Y-67891542D02*
X132220786Y-67748685D01*
X132220786Y-67748685D02*
X132149358Y-67605828D01*
X132149358Y-67605828D02*
X132006501Y-67534400D01*
X132006501Y-67534400D02*
X131649358Y-67534400D01*
X131649358Y-67534400D02*
X131506501Y-67462971D01*
X130792215Y-68105828D02*
X130792215Y-67105828D01*
X130792215Y-67391542D02*
X130720786Y-67248685D01*
X130720786Y-67248685D02*
X130649358Y-67177257D01*
X130649358Y-67177257D02*
X130506500Y-67105828D01*
X130506500Y-67105828D02*
X130363643Y-67105828D01*
X129220787Y-68105828D02*
X129220787Y-66605828D01*
X129220787Y-68034400D02*
X129363644Y-68105828D01*
X129363644Y-68105828D02*
X129649358Y-68105828D01*
X129649358Y-68105828D02*
X129792215Y-68034400D01*
X129792215Y-68034400D02*
X129863644Y-67962971D01*
X129863644Y-67962971D02*
X129935072Y-67820114D01*
X129935072Y-67820114D02*
X129935072Y-67391542D01*
X129935072Y-67391542D02*
X129863644Y-67248685D01*
X129863644Y-67248685D02*
X129792215Y-67177257D01*
X129792215Y-67177257D02*
X129649358Y-67105828D01*
X129649358Y-67105828D02*
X129363644Y-67105828D01*
X129363644Y-67105828D02*
X129220787Y-67177257D01*
X127506501Y-67105828D02*
X127149358Y-68105828D01*
X127149358Y-68105828D02*
X126792215Y-67105828D01*
X125935072Y-66605828D02*
X125792215Y-66605828D01*
X125792215Y-66605828D02*
X125649358Y-66677257D01*
X125649358Y-66677257D02*
X125577930Y-66748685D01*
X125577930Y-66748685D02*
X125506501Y-66891542D01*
X125506501Y-66891542D02*
X125435072Y-67177257D01*
X125435072Y-67177257D02*
X125435072Y-67534400D01*
X125435072Y-67534400D02*
X125506501Y-67820114D01*
X125506501Y-67820114D02*
X125577930Y-67962971D01*
X125577930Y-67962971D02*
X125649358Y-68034400D01*
X125649358Y-68034400D02*
X125792215Y-68105828D01*
X125792215Y-68105828D02*
X125935072Y-68105828D01*
X125935072Y-68105828D02*
X126077930Y-68034400D01*
X126077930Y-68034400D02*
X126149358Y-67962971D01*
X126149358Y-67962971D02*
X126220787Y-67820114D01*
X126220787Y-67820114D02*
X126292215Y-67534400D01*
X126292215Y-67534400D02*
X126292215Y-67177257D01*
X126292215Y-67177257D02*
X126220787Y-66891542D01*
X126220787Y-66891542D02*
X126149358Y-66748685D01*
X126149358Y-66748685D02*
X126077930Y-66677257D01*
X126077930Y-66677257D02*
X125935072Y-66605828D01*
X124792216Y-67962971D02*
X124720787Y-68034400D01*
X124720787Y-68034400D02*
X124792216Y-68105828D01*
X124792216Y-68105828D02*
X124863644Y-68034400D01*
X124863644Y-68034400D02*
X124792216Y-67962971D01*
X124792216Y-67962971D02*
X124792216Y-68105828D01*
X124149358Y-66748685D02*
X124077930Y-66677257D01*
X124077930Y-66677257D02*
X123935073Y-66605828D01*
X123935073Y-66605828D02*
X123577930Y-66605828D01*
X123577930Y-66605828D02*
X123435073Y-66677257D01*
X123435073Y-66677257D02*
X123363644Y-66748685D01*
X123363644Y-66748685D02*
X123292215Y-66891542D01*
X123292215Y-66891542D02*
X123292215Y-67034400D01*
X123292215Y-67034400D02*
X123363644Y-67248685D01*
X123363644Y-67248685D02*
X124220787Y-68105828D01*
X124220787Y-68105828D02*
X123292215Y-68105828D01*
D10*
X142408020Y-68821895D02*
X141950877Y-68821895D01*
X142179449Y-69621895D02*
X142179449Y-68821895D01*
X141760401Y-69088561D02*
X141569925Y-69621895D01*
X141379448Y-69088561D02*
X141569925Y-69621895D01*
X141569925Y-69621895D02*
X141646115Y-69812371D01*
X141646115Y-69812371D02*
X141684210Y-69850466D01*
X141684210Y-69850466D02*
X141760401Y-69888561D01*
X140960401Y-69621895D02*
X141036591Y-69583800D01*
X141036591Y-69583800D02*
X141074686Y-69507609D01*
X141074686Y-69507609D02*
X141074686Y-68821895D01*
X140350876Y-69583800D02*
X140427067Y-69621895D01*
X140427067Y-69621895D02*
X140579448Y-69621895D01*
X140579448Y-69621895D02*
X140655638Y-69583800D01*
X140655638Y-69583800D02*
X140693734Y-69507609D01*
X140693734Y-69507609D02*
X140693734Y-69202847D01*
X140693734Y-69202847D02*
X140655638Y-69126657D01*
X140655638Y-69126657D02*
X140579448Y-69088561D01*
X140579448Y-69088561D02*
X140427067Y-69088561D01*
X140427067Y-69088561D02*
X140350876Y-69126657D01*
X140350876Y-69126657D02*
X140312781Y-69202847D01*
X140312781Y-69202847D02*
X140312781Y-69279038D01*
X140312781Y-69279038D02*
X140693734Y-69355228D01*
X139969924Y-69621895D02*
X139969924Y-69088561D01*
X139969924Y-69240942D02*
X139931829Y-69164752D01*
X139931829Y-69164752D02*
X139893734Y-69126657D01*
X139893734Y-69126657D02*
X139817543Y-69088561D01*
X139817543Y-69088561D02*
X139741353Y-69088561D01*
X138865162Y-69621895D02*
X138865162Y-68821895D01*
X138865162Y-68821895D02*
X138674686Y-68821895D01*
X138674686Y-68821895D02*
X138560400Y-68859990D01*
X138560400Y-68859990D02*
X138484210Y-68936180D01*
X138484210Y-68936180D02*
X138446115Y-69012371D01*
X138446115Y-69012371D02*
X138408019Y-69164752D01*
X138408019Y-69164752D02*
X138408019Y-69279038D01*
X138408019Y-69279038D02*
X138446115Y-69431419D01*
X138446115Y-69431419D02*
X138484210Y-69507609D01*
X138484210Y-69507609D02*
X138560400Y-69583800D01*
X138560400Y-69583800D02*
X138674686Y-69621895D01*
X138674686Y-69621895D02*
X138865162Y-69621895D01*
X137722305Y-69621895D02*
X137722305Y-69202847D01*
X137722305Y-69202847D02*
X137760400Y-69126657D01*
X137760400Y-69126657D02*
X137836591Y-69088561D01*
X137836591Y-69088561D02*
X137988972Y-69088561D01*
X137988972Y-69088561D02*
X138065162Y-69126657D01*
X137722305Y-69583800D02*
X137798496Y-69621895D01*
X137798496Y-69621895D02*
X137988972Y-69621895D01*
X137988972Y-69621895D02*
X138065162Y-69583800D01*
X138065162Y-69583800D02*
X138103258Y-69507609D01*
X138103258Y-69507609D02*
X138103258Y-69431419D01*
X138103258Y-69431419D02*
X138065162Y-69355228D01*
X138065162Y-69355228D02*
X137988972Y-69317133D01*
X137988972Y-69317133D02*
X137798496Y-69317133D01*
X137798496Y-69317133D02*
X137722305Y-69279038D01*
X137227067Y-69621895D02*
X137303257Y-69583800D01*
X137303257Y-69583800D02*
X137341352Y-69507609D01*
X137341352Y-69507609D02*
X137341352Y-68821895D01*
X137036590Y-69088561D02*
X136731828Y-69088561D01*
X136922304Y-68821895D02*
X136922304Y-69507609D01*
X136922304Y-69507609D02*
X136884209Y-69583800D01*
X136884209Y-69583800D02*
X136808019Y-69621895D01*
X136808019Y-69621895D02*
X136731828Y-69621895D01*
X136350876Y-69621895D02*
X136427066Y-69583800D01*
X136427066Y-69583800D02*
X136465161Y-69545704D01*
X136465161Y-69545704D02*
X136503257Y-69469514D01*
X136503257Y-69469514D02*
X136503257Y-69240942D01*
X136503257Y-69240942D02*
X136465161Y-69164752D01*
X136465161Y-69164752D02*
X136427066Y-69126657D01*
X136427066Y-69126657D02*
X136350876Y-69088561D01*
X136350876Y-69088561D02*
X136236590Y-69088561D01*
X136236590Y-69088561D02*
X136160399Y-69126657D01*
X136160399Y-69126657D02*
X136122304Y-69164752D01*
X136122304Y-69164752D02*
X136084209Y-69240942D01*
X136084209Y-69240942D02*
X136084209Y-69469514D01*
X136084209Y-69469514D02*
X136122304Y-69545704D01*
X136122304Y-69545704D02*
X136160399Y-69583800D01*
X136160399Y-69583800D02*
X136236590Y-69621895D01*
X136236590Y-69621895D02*
X136350876Y-69621895D01*
X135741351Y-69088561D02*
X135741351Y-69621895D01*
X135741351Y-69164752D02*
X135703256Y-69126657D01*
X135703256Y-69126657D02*
X135627066Y-69088561D01*
X135627066Y-69088561D02*
X135512780Y-69088561D01*
X135512780Y-69088561D02*
X135436589Y-69126657D01*
X135436589Y-69126657D02*
X135398494Y-69202847D01*
X135398494Y-69202847D02*
X135398494Y-69621895D01*
X134141351Y-69202847D02*
X134408017Y-69202847D01*
X134408017Y-69621895D02*
X134408017Y-68821895D01*
X134408017Y-68821895D02*
X134027065Y-68821895D01*
X133722303Y-69202847D02*
X133455637Y-69202847D01*
X133341351Y-69621895D02*
X133722303Y-69621895D01*
X133722303Y-69621895D02*
X133722303Y-68821895D01*
X133722303Y-68821895D02*
X133341351Y-68821895D01*
X132731827Y-69202847D02*
X132617541Y-69240942D01*
X132617541Y-69240942D02*
X132579446Y-69279038D01*
X132579446Y-69279038D02*
X132541350Y-69355228D01*
X132541350Y-69355228D02*
X132541350Y-69469514D01*
X132541350Y-69469514D02*
X132579446Y-69545704D01*
X132579446Y-69545704D02*
X132617541Y-69583800D01*
X132617541Y-69583800D02*
X132693731Y-69621895D01*
X132693731Y-69621895D02*
X132998493Y-69621895D01*
X132998493Y-69621895D02*
X132998493Y-68821895D01*
X132998493Y-68821895D02*
X132731827Y-68821895D01*
X132731827Y-68821895D02*
X132655636Y-68859990D01*
X132655636Y-68859990D02*
X132617541Y-68898085D01*
X132617541Y-68898085D02*
X132579446Y-68974276D01*
X132579446Y-68974276D02*
X132579446Y-69050466D01*
X132579446Y-69050466D02*
X132617541Y-69126657D01*
X132617541Y-69126657D02*
X132655636Y-69164752D01*
X132655636Y-69164752D02*
X132731827Y-69202847D01*
X132731827Y-69202847D02*
X132998493Y-69202847D01*
X132236589Y-68898085D02*
X132198493Y-68859990D01*
X132198493Y-68859990D02*
X132122303Y-68821895D01*
X132122303Y-68821895D02*
X131931827Y-68821895D01*
X131931827Y-68821895D02*
X131855636Y-68859990D01*
X131855636Y-68859990D02*
X131817541Y-68898085D01*
X131817541Y-68898085D02*
X131779446Y-68974276D01*
X131779446Y-68974276D02*
X131779446Y-69050466D01*
X131779446Y-69050466D02*
X131817541Y-69164752D01*
X131817541Y-69164752D02*
X132274684Y-69621895D01*
X132274684Y-69621895D02*
X131779446Y-69621895D01*
X131093731Y-68821895D02*
X131246112Y-68821895D01*
X131246112Y-68821895D02*
X131322303Y-68859990D01*
X131322303Y-68859990D02*
X131360398Y-68898085D01*
X131360398Y-68898085D02*
X131436588Y-69012371D01*
X131436588Y-69012371D02*
X131474684Y-69164752D01*
X131474684Y-69164752D02*
X131474684Y-69469514D01*
X131474684Y-69469514D02*
X131436588Y-69545704D01*
X131436588Y-69545704D02*
X131398493Y-69583800D01*
X131398493Y-69583800D02*
X131322303Y-69621895D01*
X131322303Y-69621895D02*
X131169922Y-69621895D01*
X131169922Y-69621895D02*
X131093731Y-69583800D01*
X131093731Y-69583800D02*
X131055636Y-69545704D01*
X131055636Y-69545704D02*
X131017541Y-69469514D01*
X131017541Y-69469514D02*
X131017541Y-69279038D01*
X131017541Y-69279038D02*
X131055636Y-69202847D01*
X131055636Y-69202847D02*
X131093731Y-69164752D01*
X131093731Y-69164752D02*
X131169922Y-69126657D01*
X131169922Y-69126657D02*
X131322303Y-69126657D01*
X131322303Y-69126657D02*
X131398493Y-69164752D01*
X131398493Y-69164752D02*
X131436588Y-69202847D01*
X131436588Y-69202847D02*
X131474684Y-69279038D01*
X98621710Y-67172419D02*
X98621710Y-66172419D01*
X98621710Y-66172419D02*
X98050282Y-67172419D01*
X98050282Y-67172419D02*
X98050282Y-66172419D01*
X97431234Y-67172419D02*
X97526472Y-67124800D01*
X97526472Y-67124800D02*
X97574091Y-67077180D01*
X97574091Y-67077180D02*
X97621710Y-66981942D01*
X97621710Y-66981942D02*
X97621710Y-66696228D01*
X97621710Y-66696228D02*
X97574091Y-66600990D01*
X97574091Y-66600990D02*
X97526472Y-66553371D01*
X97526472Y-66553371D02*
X97431234Y-66505752D01*
X97431234Y-66505752D02*
X97288377Y-66505752D01*
X97288377Y-66505752D02*
X97193139Y-66553371D01*
X97193139Y-66553371D02*
X97145520Y-66600990D01*
X97145520Y-66600990D02*
X97097901Y-66696228D01*
X97097901Y-66696228D02*
X97097901Y-66981942D01*
X97097901Y-66981942D02*
X97145520Y-67077180D01*
X97145520Y-67077180D02*
X97193139Y-67124800D01*
X97193139Y-67124800D02*
X97288377Y-67172419D01*
X97288377Y-67172419D02*
X97431234Y-67172419D01*
X96669329Y-67172419D02*
X96669329Y-66505752D01*
X96669329Y-66600990D02*
X96621710Y-66553371D01*
X96621710Y-66553371D02*
X96526472Y-66505752D01*
X96526472Y-66505752D02*
X96383615Y-66505752D01*
X96383615Y-66505752D02*
X96288377Y-66553371D01*
X96288377Y-66553371D02*
X96240758Y-66648609D01*
X96240758Y-66648609D02*
X96240758Y-67172419D01*
X96240758Y-66648609D02*
X96193139Y-66553371D01*
X96193139Y-66553371D02*
X96097901Y-66505752D01*
X96097901Y-66505752D02*
X95955044Y-66505752D01*
X95955044Y-66505752D02*
X95859805Y-66553371D01*
X95859805Y-66553371D02*
X95812186Y-66648609D01*
X95812186Y-66648609D02*
X95812186Y-67172419D01*
X95335996Y-67172419D02*
X95335996Y-66505752D01*
X95335996Y-66172419D02*
X95383615Y-66220038D01*
X95383615Y-66220038D02*
X95335996Y-66267657D01*
X95335996Y-66267657D02*
X95288377Y-66220038D01*
X95288377Y-66220038D02*
X95335996Y-66172419D01*
X95335996Y-66172419D02*
X95335996Y-66267657D01*
X94859806Y-66505752D02*
X94859806Y-67172419D01*
X94859806Y-66600990D02*
X94812187Y-66553371D01*
X94812187Y-66553371D02*
X94716949Y-66505752D01*
X94716949Y-66505752D02*
X94574092Y-66505752D01*
X94574092Y-66505752D02*
X94478854Y-66553371D01*
X94478854Y-66553371D02*
X94431235Y-66648609D01*
X94431235Y-66648609D02*
X94431235Y-67172419D01*
X93526473Y-67172419D02*
X93526473Y-66648609D01*
X93526473Y-66648609D02*
X93574092Y-66553371D01*
X93574092Y-66553371D02*
X93669330Y-66505752D01*
X93669330Y-66505752D02*
X93859806Y-66505752D01*
X93859806Y-66505752D02*
X93955044Y-66553371D01*
X93526473Y-67124800D02*
X93621711Y-67172419D01*
X93621711Y-67172419D02*
X93859806Y-67172419D01*
X93859806Y-67172419D02*
X93955044Y-67124800D01*
X93955044Y-67124800D02*
X94002663Y-67029561D01*
X94002663Y-67029561D02*
X94002663Y-66934323D01*
X94002663Y-66934323D02*
X93955044Y-66839085D01*
X93955044Y-66839085D02*
X93859806Y-66791466D01*
X93859806Y-66791466D02*
X93621711Y-66791466D01*
X93621711Y-66791466D02*
X93526473Y-66743847D01*
X92907425Y-67172419D02*
X93002663Y-67124800D01*
X93002663Y-67124800D02*
X93050282Y-67029561D01*
X93050282Y-67029561D02*
X93050282Y-66172419D01*
D12*
X106409580Y-120607142D02*
X106457200Y-120559523D01*
X106457200Y-120559523D02*
X106504819Y-120416666D01*
X106504819Y-120416666D02*
X106504819Y-120321428D01*
X106504819Y-120321428D02*
X106457200Y-120178571D01*
X106457200Y-120178571D02*
X106361961Y-120083333D01*
X106361961Y-120083333D02*
X106266723Y-120035714D01*
X106266723Y-120035714D02*
X106076247Y-119988095D01*
X106076247Y-119988095D02*
X105933390Y-119988095D01*
X105933390Y-119988095D02*
X105742914Y-120035714D01*
X105742914Y-120035714D02*
X105647676Y-120083333D01*
X105647676Y-120083333D02*
X105552438Y-120178571D01*
X105552438Y-120178571D02*
X105504819Y-120321428D01*
X105504819Y-120321428D02*
X105504819Y-120416666D01*
X105504819Y-120416666D02*
X105552438Y-120559523D01*
X105552438Y-120559523D02*
X105600057Y-120607142D01*
X105600057Y-120988095D02*
X105552438Y-121035714D01*
X105552438Y-121035714D02*
X105504819Y-121130952D01*
X105504819Y-121130952D02*
X105504819Y-121369047D01*
X105504819Y-121369047D02*
X105552438Y-121464285D01*
X105552438Y-121464285D02*
X105600057Y-121511904D01*
X105600057Y-121511904D02*
X105695295Y-121559523D01*
X105695295Y-121559523D02*
X105790533Y-121559523D01*
X105790533Y-121559523D02*
X105933390Y-121511904D01*
X105933390Y-121511904D02*
X106504819Y-120940476D01*
X106504819Y-120940476D02*
X106504819Y-121559523D01*
X105933390Y-122130952D02*
X105885771Y-122035714D01*
X105885771Y-122035714D02*
X105838152Y-121988095D01*
X105838152Y-121988095D02*
X105742914Y-121940476D01*
X105742914Y-121940476D02*
X105695295Y-121940476D01*
X105695295Y-121940476D02*
X105600057Y-121988095D01*
X105600057Y-121988095D02*
X105552438Y-122035714D01*
X105552438Y-122035714D02*
X105504819Y-122130952D01*
X105504819Y-122130952D02*
X105504819Y-122321428D01*
X105504819Y-122321428D02*
X105552438Y-122416666D01*
X105552438Y-122416666D02*
X105600057Y-122464285D01*
X105600057Y-122464285D02*
X105695295Y-122511904D01*
X105695295Y-122511904D02*
X105742914Y-122511904D01*
X105742914Y-122511904D02*
X105838152Y-122464285D01*
X105838152Y-122464285D02*
X105885771Y-122416666D01*
X105885771Y-122416666D02*
X105933390Y-122321428D01*
X105933390Y-122321428D02*
X105933390Y-122130952D01*
X105933390Y-122130952D02*
X105981009Y-122035714D01*
X105981009Y-122035714D02*
X106028628Y-121988095D01*
X106028628Y-121988095D02*
X106123866Y-121940476D01*
X106123866Y-121940476D02*
X106314342Y-121940476D01*
X106314342Y-121940476D02*
X106409580Y-121988095D01*
X106409580Y-121988095D02*
X106457200Y-122035714D01*
X106457200Y-122035714D02*
X106504819Y-122130952D01*
X106504819Y-122130952D02*
X106504819Y-122321428D01*
X106504819Y-122321428D02*
X106457200Y-122416666D01*
X106457200Y-122416666D02*
X106409580Y-122464285D01*
X106409580Y-122464285D02*
X106314342Y-122511904D01*
X106314342Y-122511904D02*
X106123866Y-122511904D01*
X106123866Y-122511904D02*
X106028628Y-122464285D01*
X106028628Y-122464285D02*
X105981009Y-122416666D01*
X105981009Y-122416666D02*
X105933390Y-122321428D01*
X124446666Y-76089580D02*
X124494285Y-76137200D01*
X124494285Y-76137200D02*
X124637142Y-76184819D01*
X124637142Y-76184819D02*
X124732380Y-76184819D01*
X124732380Y-76184819D02*
X124875237Y-76137200D01*
X124875237Y-76137200D02*
X124970475Y-76041961D01*
X124970475Y-76041961D02*
X125018094Y-75946723D01*
X125018094Y-75946723D02*
X125065713Y-75756247D01*
X125065713Y-75756247D02*
X125065713Y-75613390D01*
X125065713Y-75613390D02*
X125018094Y-75422914D01*
X125018094Y-75422914D02*
X124970475Y-75327676D01*
X124970475Y-75327676D02*
X124875237Y-75232438D01*
X124875237Y-75232438D02*
X124732380Y-75184819D01*
X124732380Y-75184819D02*
X124637142Y-75184819D01*
X124637142Y-75184819D02*
X124494285Y-75232438D01*
X124494285Y-75232438D02*
X124446666Y-75280057D01*
X124113332Y-75184819D02*
X123494285Y-75184819D01*
X123494285Y-75184819D02*
X123827618Y-75565771D01*
X123827618Y-75565771D02*
X123684761Y-75565771D01*
X123684761Y-75565771D02*
X123589523Y-75613390D01*
X123589523Y-75613390D02*
X123541904Y-75661009D01*
X123541904Y-75661009D02*
X123494285Y-75756247D01*
X123494285Y-75756247D02*
X123494285Y-75994342D01*
X123494285Y-75994342D02*
X123541904Y-76089580D01*
X123541904Y-76089580D02*
X123589523Y-76137200D01*
X123589523Y-76137200D02*
X123684761Y-76184819D01*
X123684761Y-76184819D02*
X123970475Y-76184819D01*
X123970475Y-76184819D02*
X124065713Y-76137200D01*
X124065713Y-76137200D02*
X124113332Y-76089580D01*
X102338094Y-124654819D02*
X102338094Y-123654819D01*
X102338094Y-123654819D02*
X102099999Y-123654819D01*
X102099999Y-123654819D02*
X101957142Y-123702438D01*
X101957142Y-123702438D02*
X101861904Y-123797676D01*
X101861904Y-123797676D02*
X101814285Y-123892914D01*
X101814285Y-123892914D02*
X101766666Y-124083390D01*
X101766666Y-124083390D02*
X101766666Y-124226247D01*
X101766666Y-124226247D02*
X101814285Y-124416723D01*
X101814285Y-124416723D02*
X101861904Y-124511961D01*
X101861904Y-124511961D02*
X101957142Y-124607200D01*
X101957142Y-124607200D02*
X102099999Y-124654819D01*
X102099999Y-124654819D02*
X102338094Y-124654819D01*
X101433332Y-123654819D02*
X100814285Y-123654819D01*
X100814285Y-123654819D02*
X101147618Y-124035771D01*
X101147618Y-124035771D02*
X101004761Y-124035771D01*
X101004761Y-124035771D02*
X100909523Y-124083390D01*
X100909523Y-124083390D02*
X100861904Y-124131009D01*
X100861904Y-124131009D02*
X100814285Y-124226247D01*
X100814285Y-124226247D02*
X100814285Y-124464342D01*
X100814285Y-124464342D02*
X100861904Y-124559580D01*
X100861904Y-124559580D02*
X100909523Y-124607200D01*
X100909523Y-124607200D02*
X101004761Y-124654819D01*
X101004761Y-124654819D02*
X101290475Y-124654819D01*
X101290475Y-124654819D02*
X101385713Y-124607200D01*
X101385713Y-124607200D02*
X101433332Y-124559580D01*
X123059580Y-91433333D02*
X123107200Y-91385714D01*
X123107200Y-91385714D02*
X123154819Y-91242857D01*
X123154819Y-91242857D02*
X123154819Y-91147619D01*
X123154819Y-91147619D02*
X123107200Y-91004762D01*
X123107200Y-91004762D02*
X123011961Y-90909524D01*
X123011961Y-90909524D02*
X122916723Y-90861905D01*
X122916723Y-90861905D02*
X122726247Y-90814286D01*
X122726247Y-90814286D02*
X122583390Y-90814286D01*
X122583390Y-90814286D02*
X122392914Y-90861905D01*
X122392914Y-90861905D02*
X122297676Y-90909524D01*
X122297676Y-90909524D02*
X122202438Y-91004762D01*
X122202438Y-91004762D02*
X122154819Y-91147619D01*
X122154819Y-91147619D02*
X122154819Y-91242857D01*
X122154819Y-91242857D02*
X122202438Y-91385714D01*
X122202438Y-91385714D02*
X122250057Y-91433333D01*
X122154819Y-92290476D02*
X122154819Y-92100000D01*
X122154819Y-92100000D02*
X122202438Y-92004762D01*
X122202438Y-92004762D02*
X122250057Y-91957143D01*
X122250057Y-91957143D02*
X122392914Y-91861905D01*
X122392914Y-91861905D02*
X122583390Y-91814286D01*
X122583390Y-91814286D02*
X122964342Y-91814286D01*
X122964342Y-91814286D02*
X123059580Y-91861905D01*
X123059580Y-91861905D02*
X123107200Y-91909524D01*
X123107200Y-91909524D02*
X123154819Y-92004762D01*
X123154819Y-92004762D02*
X123154819Y-92195238D01*
X123154819Y-92195238D02*
X123107200Y-92290476D01*
X123107200Y-92290476D02*
X123059580Y-92338095D01*
X123059580Y-92338095D02*
X122964342Y-92385714D01*
X122964342Y-92385714D02*
X122726247Y-92385714D01*
X122726247Y-92385714D02*
X122631009Y-92338095D01*
X122631009Y-92338095D02*
X122583390Y-92290476D01*
X122583390Y-92290476D02*
X122535771Y-92195238D01*
X122535771Y-92195238D02*
X122535771Y-92004762D01*
X122535771Y-92004762D02*
X122583390Y-91909524D01*
X122583390Y-91909524D02*
X122631009Y-91861905D01*
X122631009Y-91861905D02*
X122726247Y-91814286D01*
D13*
%TO.C,IC23*%
X112550000Y-138688000D02*
X112550000Y-140163000D01*
X112900000Y-140513000D02*
X112900000Y-144213000D01*
X112900000Y-144213000D02*
X117900000Y-144213000D01*
X117900000Y-140513000D02*
X112900000Y-140513000D01*
X117900000Y-144213000D02*
X117900000Y-140513000D01*
D14*
%TO.C,R56*%
X86739564Y-112515000D02*
X82385436Y-112515000D01*
X86739564Y-115935000D02*
X82385436Y-115935000D01*
%TO.C,D13*%
X98390000Y-137600000D02*
X103900000Y-137600000D01*
X98390000Y-140900000D02*
X98390000Y-137600000D01*
X98390000Y-140900000D02*
X103900000Y-140900000D01*
%TO.C,C154*%
X145303733Y-143090000D02*
X145596267Y-143090000D01*
X145303733Y-144110000D02*
X145596267Y-144110000D01*
%TO.C,D1*%
X124780000Y-87710000D02*
X124780000Y-86510000D01*
X126740000Y-86510000D02*
X124780000Y-86510000D01*
X126740000Y-87710000D02*
X124780000Y-87710000D01*
%TO.C,R106*%
X145677064Y-141190000D02*
X145222936Y-141190000D01*
X145677064Y-142660000D02*
X145222936Y-142660000D01*
D15*
%TO.C,U2*%
X116981588Y-69147824D02*
X116981588Y-73047824D01*
X122031588Y-69147824D02*
X122031588Y-73047824D01*
D13*
X117301588Y-67057824D02*
G75*
G02*
X117101588Y-67057824I-100000J0D01*
G01*
X117101588Y-67057824D02*
G75*
G02*
X117301588Y-67057824I100000J0D01*
G01*
D14*
%TO.C,C24*%
X129140580Y-123530000D02*
X128859420Y-123530000D01*
X129140580Y-124550000D02*
X128859420Y-124550000D01*
%TO.C,R222*%
X77265000Y-145222936D02*
X77265000Y-145677064D01*
X78735000Y-145222936D02*
X78735000Y-145677064D01*
%TO.C,C226*%
X133415580Y-130490000D02*
X133134420Y-130490000D01*
X133415580Y-131510000D02*
X133134420Y-131510000D01*
%TO.C,C46*%
X153166233Y-116370000D02*
X153458767Y-116370000D01*
X153166233Y-117390000D02*
X153458767Y-117390000D01*
%TO.C,R1_FAULT2*%
X152847936Y-114395000D02*
X153302064Y-114395000D01*
X152847936Y-115865000D02*
X153302064Y-115865000D01*
%TO.C,R97*%
X141927064Y-127590000D02*
X141472936Y-127590000D01*
X141927064Y-129060000D02*
X141472936Y-129060000D01*
%TO.C,R77*%
X93115000Y-123272936D02*
X93115000Y-123727064D01*
X94585000Y-123272936D02*
X94585000Y-123727064D01*
%TO.C,Q14*%
X141587500Y-132715000D02*
X140937500Y-132715000D01*
X141587500Y-132715000D02*
X142237500Y-132715000D01*
X141587500Y-135835000D02*
X140937500Y-135835000D01*
X141587500Y-135835000D02*
X142237500Y-135835000D01*
X140665000Y-136115000D02*
X140185000Y-136115000D01*
X140425000Y-135785000D01*
X140665000Y-136115000D01*
G36*
X140665000Y-136115000D02*
G01*
X140185000Y-136115000D01*
X140425000Y-135785000D01*
X140665000Y-136115000D01*
G37*
D13*
%TO.C,IC20*%
X118175000Y-138650000D02*
X118175000Y-140125000D01*
X118525000Y-140475000D02*
X118525000Y-144175000D01*
X118525000Y-144175000D02*
X123525000Y-144175000D01*
X123525000Y-140475000D02*
X118525000Y-140475000D01*
X123525000Y-144175000D02*
X123525000Y-140475000D01*
D14*
%TO.C,C26*%
X115640580Y-126090000D02*
X115359420Y-126090000D01*
X115640580Y-127110000D02*
X115359420Y-127110000D01*
%TO.C,D17*%
X91320000Y-96260000D02*
X91320000Y-98220000D01*
X92520000Y-96260000D02*
X92520000Y-98220000D01*
X92520000Y-98220000D02*
X91320000Y-98220000D01*
%TO.C,R11*%
X102396588Y-74669888D02*
X102396588Y-70315760D01*
X105816588Y-74669888D02*
X105816588Y-70315760D01*
%TO.C,C47*%
X73966233Y-135515000D02*
X74258767Y-135515000D01*
X73966233Y-136535000D02*
X74258767Y-136535000D01*
%TO.C,C91*%
X138040000Y-124328733D02*
X138040000Y-124621267D01*
X139060000Y-124328733D02*
X139060000Y-124621267D01*
%TO.C,R24*%
X123340000Y-96197936D02*
X123340000Y-96652064D01*
X124810000Y-96197936D02*
X124810000Y-96652064D01*
D15*
%TO.C,IC4*%
X92370000Y-98515000D02*
X92370000Y-100165000D01*
X92370000Y-114415000D02*
X92370000Y-112765000D01*
X96120000Y-98515000D02*
X92370000Y-98515000D01*
X96120000Y-114415000D02*
X92370000Y-114415000D01*
X103370000Y-98515000D02*
X99670000Y-98515000D01*
X103370000Y-100165000D02*
X103370000Y-98515000D01*
X103370000Y-112765000D02*
X103370000Y-114415000D01*
X103370000Y-114415000D02*
X99620000Y-114415000D01*
D13*
X106570000Y-100750000D02*
G75*
G02*
X106370000Y-100750000I-100000J0D01*
G01*
X106370000Y-100750000D02*
G75*
G02*
X106570000Y-100750000I100000J0D01*
G01*
D14*
%TO.C,C44*%
X98965000Y-119359420D02*
X98965000Y-119640580D01*
X99985000Y-119359420D02*
X99985000Y-119640580D01*
%TO.C,R43*%
X123065000Y-116685436D02*
X123065000Y-117139564D01*
X124535000Y-116685436D02*
X124535000Y-117139564D01*
%TO.C,R96*%
X138115000Y-128197936D02*
X138115000Y-128652064D01*
X139585000Y-128197936D02*
X139585000Y-128652064D01*
%TO.C,R78*%
X80490000Y-126997936D02*
X80490000Y-127452064D01*
X81960000Y-126997936D02*
X81960000Y-127452064D01*
D15*
%TO.C,U3*%
X106706588Y-68997824D02*
X106706588Y-72897824D01*
X111756588Y-68997824D02*
X111756588Y-72897824D01*
D13*
X107026588Y-66907824D02*
G75*
G02*
X106826588Y-66907824I-100000J0D01*
G01*
X106826588Y-66907824D02*
G75*
G02*
X107026588Y-66907824I100000J0D01*
G01*
D15*
%TO.C,U11*%
X81330000Y-96350000D02*
X85230000Y-96350000D01*
X81330000Y-101400000D02*
X85230000Y-101400000D01*
D13*
X79340000Y-101180000D02*
G75*
G02*
X79140000Y-101180000I-100000J0D01*
G01*
X79140000Y-101180000D02*
G75*
G02*
X79340000Y-101180000I100000J0D01*
G01*
D14*
%TO.C,D12*%
X98465000Y-141375000D02*
X103975000Y-141375000D01*
X98465000Y-144675000D02*
X98465000Y-141375000D01*
X98465000Y-144675000D02*
X103975000Y-144675000D01*
%TO.C,C21*%
X128865000Y-93615580D02*
X128865000Y-93334420D01*
X129885000Y-93615580D02*
X129885000Y-93334420D01*
%TO.C,C2*%
X100596920Y-88115000D02*
X100878080Y-88115000D01*
X100596920Y-89135000D02*
X100878080Y-89135000D01*
D15*
%TO.C,IC3*%
X106155000Y-112090000D02*
X106155000Y-115790000D01*
X106155000Y-119340000D02*
X106155000Y-123090000D01*
X106155000Y-123090000D02*
X107805000Y-123090000D01*
X107805000Y-112090000D02*
X106155000Y-112090000D01*
X120405000Y-112090000D02*
X122055000Y-112090000D01*
X122055000Y-112090000D02*
X122055000Y-115840000D01*
X122055000Y-119340000D02*
X122055000Y-123090000D01*
X122055000Y-123090000D02*
X120405000Y-123090000D01*
D13*
X108490000Y-108990000D02*
G75*
G02*
X108290000Y-108990000I-100000J0D01*
G01*
X108290000Y-108990000D02*
G75*
G02*
X108490000Y-108990000I100000J0D01*
G01*
D14*
%TO.C,D16*%
X103447500Y-123660000D02*
X105407500Y-123660000D01*
X103447500Y-124860000D02*
X105407500Y-124860000D01*
X105407500Y-123660000D02*
X105407500Y-124860000D01*
%TO.C,C92*%
X137990000Y-134266233D02*
X137990000Y-134558767D01*
X139010000Y-134266233D02*
X139010000Y-134558767D01*
%TO.C,R1_ILIM2*%
X153272936Y-117870000D02*
X153727064Y-117870000D01*
X153272936Y-119340000D02*
X153727064Y-119340000D01*
%TO.C,Q11*%
X146500000Y-122752500D02*
X145850000Y-122752500D01*
X146500000Y-122752500D02*
X147150000Y-122752500D01*
X146500000Y-125872500D02*
X145850000Y-125872500D01*
X146500000Y-125872500D02*
X147150000Y-125872500D01*
X147662500Y-122802500D02*
X147422500Y-122472500D01*
X147902500Y-122472500D01*
X147662500Y-122802500D01*
G36*
X147662500Y-122802500D02*
G01*
X147422500Y-122472500D01*
X147902500Y-122472500D01*
X147662500Y-122802500D01*
G37*
D15*
%TO.C,U5*%
X145725000Y-110975000D02*
X141825000Y-110975000D01*
X145725000Y-116025000D02*
X141825000Y-116025000D01*
D13*
X147915000Y-111195000D02*
G75*
G02*
X147715000Y-111195000I-100000J0D01*
G01*
X147715000Y-111195000D02*
G75*
G02*
X147915000Y-111195000I100000J0D01*
G01*
D14*
%TO.C,C10*%
X100928080Y-91065000D02*
X100646920Y-91065000D01*
X100928080Y-92085000D02*
X100646920Y-92085000D01*
D15*
%TO.C,Y1*%
X74400000Y-125695000D02*
X74400000Y-126605000D01*
X75900000Y-125695000D02*
X75900000Y-126605000D01*
D14*
%TO.C,C222*%
X75440000Y-145540580D02*
X75440000Y-145259420D01*
X76460000Y-145540580D02*
X76460000Y-145259420D01*
%TO.C,C32*%
X128859420Y-120340000D02*
X129140580Y-120340000D01*
X128859420Y-121360000D02*
X129140580Y-121360000D01*
%TO.C,R103*%
X82827064Y-140565000D02*
X82372936Y-140565000D01*
X82827064Y-142035000D02*
X82372936Y-142035000D01*
%TO.C,R12*%
X113021588Y-74644888D02*
X113021588Y-70290760D01*
X116441588Y-74644888D02*
X116441588Y-70290760D01*
%TO.C,C40*%
X87290000Y-100790580D02*
X87290000Y-100509420D01*
X88310000Y-100790580D02*
X88310000Y-100509420D01*
%TO.C,C39*%
X94288748Y-94890000D02*
X95711252Y-94890000D01*
X94288748Y-97610000D02*
X95711252Y-97610000D01*
%TO.C,Q13*%
X143450000Y-123990000D02*
X142800000Y-123990000D01*
X143450000Y-123990000D02*
X144100000Y-123990000D01*
X143450000Y-127110000D02*
X142800000Y-127110000D01*
X143450000Y-127110000D02*
X144100000Y-127110000D01*
X142527500Y-127390000D02*
X142047500Y-127390000D01*
X142287500Y-127060000D01*
X142527500Y-127390000D01*
G36*
X142527500Y-127390000D02*
G01*
X142047500Y-127390000D01*
X142287500Y-127060000D01*
X142527500Y-127390000D01*
G37*
D13*
%TO.C,IC25*%
X106850000Y-138700000D02*
X106850000Y-140175000D01*
X107200000Y-140525000D02*
X107200000Y-144225000D01*
X107200000Y-144225000D02*
X112200000Y-144225000D01*
X112200000Y-140525000D02*
X107200000Y-140525000D01*
X112200000Y-144225000D02*
X112200000Y-140525000D01*
D14*
%TO.C,R94*%
X148715000Y-124722936D02*
X148715000Y-125177064D01*
X150185000Y-124722936D02*
X150185000Y-125177064D01*
%TO.C,R80*%
X82190000Y-123272936D02*
X82190000Y-123727064D01*
X83660000Y-123272936D02*
X83660000Y-123727064D01*
%TO.C,R108*%
X82372936Y-147440000D02*
X82827064Y-147440000D01*
X82372936Y-148910000D02*
X82827064Y-148910000D01*
%TO.C,C151*%
X82478733Y-143990000D02*
X82771267Y-143990000D01*
X82478733Y-145010000D02*
X82771267Y-145010000D01*
%TO.C,R76*%
X91052500Y-123197936D02*
X91052500Y-123652064D01*
X92522500Y-123197936D02*
X92522500Y-123652064D01*
%TO.C,R98*%
X139565000Y-124222936D02*
X139565000Y-124677064D01*
X141035000Y-124222936D02*
X141035000Y-124677064D01*
%TO.C,C17*%
X128738748Y-115240000D02*
X130161252Y-115240000D01*
X128738748Y-117960000D02*
X130161252Y-117960000D01*
%TO.C,R37*%
X120290000Y-128185436D02*
X120290000Y-132539564D01*
X123710000Y-128185436D02*
X123710000Y-132539564D01*
%TO.C,Q1*%
X88887500Y-121552500D02*
X88237500Y-121552500D01*
X88887500Y-121552500D02*
X89537500Y-121552500D01*
X88887500Y-124672500D02*
X88237500Y-124672500D01*
X88887500Y-124672500D02*
X89537500Y-124672500D01*
X90050000Y-121602500D02*
X89810000Y-121272500D01*
X90290000Y-121272500D01*
X90050000Y-121602500D01*
G36*
X90050000Y-121602500D02*
G01*
X89810000Y-121272500D01*
X90290000Y-121272500D01*
X90050000Y-121602500D01*
G37*
%TO.C,C221*%
X151790000Y-145440580D02*
X151790000Y-145159420D01*
X152810000Y-145440580D02*
X152810000Y-145159420D01*
%TO.C,R104*%
X145677064Y-146065000D02*
X145222936Y-146065000D01*
X145677064Y-147535000D02*
X145222936Y-147535000D01*
%TO.C,R95*%
X150865000Y-124447936D02*
X150865000Y-124902064D01*
X152335000Y-124447936D02*
X152335000Y-124902064D01*
%TO.C,C37*%
X87240000Y-107765580D02*
X87240000Y-107484420D01*
X88260000Y-107765580D02*
X88260000Y-107484420D01*
%TO.C,C83*%
X80490000Y-123178733D02*
X80490000Y-123471267D01*
X81510000Y-123178733D02*
X81510000Y-123471267D01*
%TO.C,R57*%
X86914564Y-102415000D02*
X82560436Y-102415000D01*
X86914564Y-105835000D02*
X82560436Y-105835000D01*
D15*
%TO.C,U8*%
X104500000Y-133200000D02*
X104500000Y-129300000D01*
X109550000Y-133200000D02*
X109550000Y-129300000D01*
D13*
X109430000Y-135290000D02*
G75*
G02*
X109230000Y-135290000I-100000J0D01*
G01*
X109230000Y-135290000D02*
G75*
G02*
X109430000Y-135290000I100000J0D01*
G01*
%TO.C,IC24*%
X124012500Y-138650000D02*
X124012500Y-140125000D01*
X124362500Y-140475000D02*
X124362500Y-144175000D01*
X124362500Y-144175000D02*
X129362500Y-144175000D01*
X129362500Y-140475000D02*
X124362500Y-140475000D01*
X129362500Y-144175000D02*
X129362500Y-140475000D01*
D14*
%TO.C,C38*%
X97490000Y-119359420D02*
X97490000Y-119640580D01*
X98510000Y-119359420D02*
X98510000Y-119640580D01*
%TO.C,C152*%
X82771267Y-142490000D02*
X82478733Y-142490000D01*
X82771267Y-143510000D02*
X82478733Y-143510000D01*
D15*
%TO.C,U12*%
X81175000Y-106650000D02*
X85075000Y-106650000D01*
X81175000Y-111700000D02*
X85075000Y-111700000D01*
D13*
X79185000Y-111480000D02*
G75*
G02*
X78985000Y-111480000I-100000J0D01*
G01*
X78985000Y-111480000D02*
G75*
G02*
X79185000Y-111480000I100000J0D01*
G01*
D14*
%TO.C,FB1*%
X74097936Y-133240000D02*
X74552064Y-133240000D01*
X74097936Y-134710000D02*
X74552064Y-134710000D01*
%TO.C,Q2*%
X88612500Y-131040000D02*
X87962500Y-131040000D01*
X88612500Y-131040000D02*
X89262500Y-131040000D01*
X88612500Y-134160000D02*
X87962500Y-134160000D01*
X88612500Y-134160000D02*
X89262500Y-134160000D01*
X89775000Y-131090000D02*
X89535000Y-130760000D01*
X90015000Y-130760000D01*
X89775000Y-131090000D01*
G36*
X89775000Y-131090000D02*
G01*
X89535000Y-130760000D01*
X90015000Y-130760000D01*
X89775000Y-131090000D01*
G37*
%TO.C,C13*%
X131865000Y-93334420D02*
X131865000Y-93615580D01*
X132885000Y-93334420D02*
X132885000Y-93615580D01*
%TO.C,Q3*%
X85937500Y-122765000D02*
X85287500Y-122765000D01*
X85937500Y-122765000D02*
X86587500Y-122765000D01*
X85937500Y-125885000D02*
X85287500Y-125885000D01*
X85937500Y-125885000D02*
X86587500Y-125885000D01*
X85015000Y-126165000D02*
X84535000Y-126165000D01*
X84775000Y-125835000D01*
X85015000Y-126165000D01*
G36*
X85015000Y-126165000D02*
G01*
X84535000Y-126165000D01*
X84775000Y-125835000D01*
X85015000Y-126165000D01*
G37*
%TO.C,C15*%
X138590000Y-115340580D02*
X138590000Y-115059420D01*
X139610000Y-115340580D02*
X139610000Y-115059420D01*
%TO.C,C55*%
X73916233Y-137140000D02*
X74208767Y-137140000D01*
X73916233Y-138160000D02*
X74208767Y-138160000D01*
D16*
%TO.C,U17*%
X148458500Y-78438500D02*
X154046500Y-78438500D01*
X148458500Y-78807614D02*
X148458500Y-78438500D01*
X148458500Y-84026500D02*
X148458500Y-83657386D01*
X154046500Y-78438500D02*
X154046500Y-78807614D01*
X154046500Y-83657386D02*
X154046500Y-84026500D01*
X154046500Y-84026500D02*
X148458500Y-84026500D01*
D14*
%TO.C,C29*%
X108565580Y-126090000D02*
X108284420Y-126090000D01*
X108565580Y-127110000D02*
X108284420Y-127110000D01*
%TO.C,C14*%
X138540000Y-105034420D02*
X138540000Y-105315580D01*
X139560000Y-105034420D02*
X139560000Y-105315580D01*
%TO.C,R19*%
X140022936Y-106915000D02*
X144377064Y-106915000D01*
X140022936Y-110335000D02*
X144377064Y-110335000D01*
%TO.C,C225*%
X131290000Y-128290580D02*
X131290000Y-128009420D01*
X132310000Y-128290580D02*
X132310000Y-128009420D01*
%TO.C,C28*%
X102390000Y-121961252D02*
X102390000Y-120538748D01*
X105110000Y-121961252D02*
X105110000Y-120538748D01*
%TO.C,C16*%
X130365000Y-93615580D02*
X130365000Y-93334420D01*
X131385000Y-93615580D02*
X131385000Y-93334420D01*
%TO.C,D2*%
X133225000Y-116300000D02*
X133225000Y-118260000D01*
X134425000Y-116300000D02*
X134425000Y-118260000D01*
X134425000Y-118260000D02*
X133225000Y-118260000D01*
%TO.C,C27*%
X128884420Y-121840000D02*
X129165580Y-121840000D01*
X128884420Y-122860000D02*
X129165580Y-122860000D01*
D13*
%TO.C,IC22*%
X129737500Y-138600000D02*
X129737500Y-140075000D01*
X130087500Y-140425000D02*
X130087500Y-144125000D01*
X130087500Y-144125000D02*
X135087500Y-144125000D01*
X135087500Y-140425000D02*
X130087500Y-140425000D01*
X135087500Y-144125000D02*
X135087500Y-140425000D01*
D14*
%TO.C,U20*%
X147190000Y-71765000D02*
X149190000Y-71765000D01*
X147200000Y-69485000D02*
X149200000Y-69485000D01*
X146830000Y-71975000D02*
X146550000Y-71695000D01*
X146830000Y-71695000D01*
X146830000Y-71975000D01*
G36*
X146830000Y-71975000D02*
G01*
X146550000Y-71695000D01*
X146830000Y-71695000D01*
X146830000Y-71975000D01*
G37*
%TO.C,R102*%
X82372936Y-145465000D02*
X82827064Y-145465000D01*
X82372936Y-146935000D02*
X82827064Y-146935000D01*
%TO.C,C74*%
X148565000Y-133661252D02*
X148565000Y-133138748D01*
X150035000Y-133661252D02*
X150035000Y-133138748D01*
%TO.C,C36*%
X87290000Y-97509420D02*
X87290000Y-97790580D01*
X88310000Y-97509420D02*
X88310000Y-97790580D01*
%TO.C,D11*%
X94875000Y-144610000D02*
X94875000Y-139100000D01*
X98175000Y-144610000D02*
X94875000Y-144610000D01*
X98175000Y-144610000D02*
X98175000Y-139100000D01*
%TO.C,C77*%
X79215000Y-80896267D02*
X79215000Y-80603733D01*
X80235000Y-80896267D02*
X80235000Y-80603733D01*
%TO.C,Q12*%
X145937500Y-132715000D02*
X145287500Y-132715000D01*
X145937500Y-132715000D02*
X146587500Y-132715000D01*
X145937500Y-135835000D02*
X145287500Y-135835000D01*
X145937500Y-135835000D02*
X146587500Y-135835000D01*
X147100000Y-132765000D02*
X146860000Y-132435000D01*
X147340000Y-132435000D01*
X147100000Y-132765000D01*
G36*
X147100000Y-132765000D02*
G01*
X146860000Y-132435000D01*
X147340000Y-132435000D01*
X147100000Y-132765000D01*
G37*
%TO.C,R99*%
X142477064Y-130165000D02*
X142022936Y-130165000D01*
X142477064Y-131635000D02*
X142022936Y-131635000D01*
%TO.C,R58*%
X103915000Y-116627064D02*
X103915000Y-116172936D01*
X105385000Y-116627064D02*
X105385000Y-116172936D01*
%TO.C,R72*%
X79202500Y-77020276D02*
X79202500Y-77529724D01*
X80247500Y-77020276D02*
X80247500Y-77529724D01*
%TO.C,C18*%
X138590000Y-111984420D02*
X138590000Y-112265580D01*
X139610000Y-111984420D02*
X139610000Y-112265580D01*
%TO.C,C224*%
X72840000Y-129709420D02*
X72840000Y-129990580D01*
X73860000Y-129709420D02*
X73860000Y-129990580D01*
%TO.C,R13*%
X103772936Y-95265000D02*
X104227064Y-95265000D01*
X103772936Y-96735000D02*
X104227064Y-96735000D01*
%TO.C,C41*%
X87240000Y-110790580D02*
X87240000Y-110509420D01*
X88260000Y-110790580D02*
X88260000Y-110509420D01*
D16*
%TO.C,U18*%
X148406000Y-72531000D02*
X153994000Y-72531000D01*
X148406000Y-72900114D02*
X148406000Y-72531000D01*
X148406000Y-78119000D02*
X148406000Y-77749886D01*
X153994000Y-72531000D02*
X153994000Y-72900114D01*
X153994000Y-77749886D02*
X153994000Y-78119000D01*
X153994000Y-78119000D02*
X148406000Y-78119000D01*
D14*
%TO.C,C25*%
X105565580Y-126065000D02*
X105284420Y-126065000D01*
X105565580Y-127085000D02*
X105284420Y-127085000D01*
%TO.C,C45*%
X76471267Y-115290000D02*
X76178733Y-115290000D01*
X76471267Y-116310000D02*
X76178733Y-116310000D01*
%TO.C,C1_RETRY2*%
X155240000Y-115858733D02*
X155240000Y-116151267D01*
X156260000Y-115858733D02*
X156260000Y-116151267D01*
%TO.C,R18*%
X139947936Y-96740000D02*
X144302064Y-96740000D01*
X139947936Y-100160000D02*
X144302064Y-100160000D01*
D16*
%TO.C,U19*%
X148458500Y-84613500D02*
X154046500Y-84613500D01*
X148458500Y-84982614D02*
X148458500Y-84613500D01*
X148458500Y-90201500D02*
X148458500Y-89832386D01*
X154046500Y-84613500D02*
X154046500Y-84982614D01*
X154046500Y-89832386D02*
X154046500Y-90201500D01*
X154046500Y-90201500D02*
X148458500Y-90201500D01*
D14*
%TO.C,C19*%
X138515000Y-101909420D02*
X138515000Y-102190580D01*
X139535000Y-101909420D02*
X139535000Y-102190580D01*
%TO.C,R1_ILIM1*%
X76702064Y-116815000D02*
X76247936Y-116815000D01*
X76702064Y-118285000D02*
X76247936Y-118285000D01*
%TO.C,D4*%
X89890000Y-95190000D02*
X89890000Y-97150000D01*
X91090000Y-95190000D02*
X91090000Y-97150000D01*
X91090000Y-97150000D02*
X89890000Y-97150000D01*
%TO.C,C223*%
X72890000Y-122309420D02*
X72890000Y-122590580D01*
X73910000Y-122309420D02*
X73910000Y-122590580D01*
%TO.C,U23*%
X75440000Y-78440000D02*
X77440000Y-78440000D01*
X75450000Y-76160000D02*
X77450000Y-76160000D01*
X75080000Y-78650000D02*
X74800000Y-78370000D01*
X75080000Y-78370000D01*
X75080000Y-78650000D01*
G36*
X75080000Y-78650000D02*
G01*
X74800000Y-78370000D01*
X75080000Y-78370000D01*
X75080000Y-78650000D01*
G37*
%TO.C,R1_FAULT1*%
X76727064Y-113240000D02*
X76272936Y-113240000D01*
X76727064Y-114710000D02*
X76272936Y-114710000D01*
D15*
%TO.C,U9*%
X114375000Y-133225000D02*
X114375000Y-129325000D01*
X119425000Y-133225000D02*
X119425000Y-129325000D01*
D13*
X119305000Y-135315000D02*
G75*
G02*
X119105000Y-135315000I-100000J0D01*
G01*
X119105000Y-135315000D02*
G75*
G02*
X119305000Y-135315000I100000J0D01*
G01*
D14*
%TO.C,C8*%
X107603508Y-75057824D02*
X107884668Y-75057824D01*
X107603508Y-76077824D02*
X107884668Y-76077824D01*
%TO.C,Q4*%
X84600000Y-131152500D02*
X83950000Y-131152500D01*
X84600000Y-131152500D02*
X85250000Y-131152500D01*
X84600000Y-134272500D02*
X83950000Y-134272500D01*
X84600000Y-134272500D02*
X85250000Y-134272500D01*
X83677500Y-134552500D02*
X83197500Y-134552500D01*
X83437500Y-134222500D01*
X83677500Y-134552500D01*
G36*
X83677500Y-134552500D02*
G01*
X83197500Y-134552500D01*
X83437500Y-134222500D01*
X83677500Y-134552500D01*
G37*
%TO.C,C73*%
X91190000Y-132361252D02*
X91190000Y-131838748D01*
X92660000Y-132361252D02*
X92660000Y-131838748D01*
%TO.C,D14*%
X123210000Y-89160000D02*
X123210000Y-87960000D01*
X125170000Y-87960000D02*
X123210000Y-87960000D01*
X125170000Y-89160000D02*
X123210000Y-89160000D01*
%TO.C,C5*%
X100903080Y-89590000D02*
X100621920Y-89590000D01*
X100903080Y-90610000D02*
X100621920Y-90610000D01*
%TO.C,R81*%
X84377064Y-128490000D02*
X83922936Y-128490000D01*
X84377064Y-129960000D02*
X83922936Y-129960000D01*
%TO.C,R79*%
X84377064Y-126415000D02*
X83922936Y-126415000D01*
X84377064Y-127885000D02*
X83922936Y-127885000D01*
%TO.C,D15*%
X134670000Y-116552500D02*
X135870000Y-116552500D01*
X134670000Y-118512500D02*
X134670000Y-116552500D01*
X135870000Y-118512500D02*
X135870000Y-116552500D01*
%TO.C,C3*%
X121999668Y-75169000D02*
X121718508Y-75169000D01*
X121999668Y-76189000D02*
X121718508Y-76189000D01*
%TO.C,D3*%
X100900000Y-124900000D02*
X102860000Y-124900000D01*
X100900000Y-126100000D02*
X102860000Y-126100000D01*
X102860000Y-124900000D02*
X102860000Y-126100000D01*
%TO.C,C7*%
X118288508Y-75117824D02*
X118569668Y-75117824D01*
X118288508Y-76137824D02*
X118569668Y-76137824D01*
D15*
%TO.C,Y2*%
X133100000Y-127695000D02*
X133100000Y-128605000D01*
X134600000Y-127695000D02*
X134600000Y-128605000D01*
D14*
%TO.C,R69*%
X76879724Y-81227500D02*
X76370276Y-81227500D01*
X76879724Y-82272500D02*
X76370276Y-82272500D01*
%TO.C,C1_RETRY1*%
X73315000Y-114653733D02*
X73315000Y-114946267D01*
X74335000Y-114653733D02*
X74335000Y-114946267D01*
D15*
%TO.C,IC1*%
X106170000Y-90465000D02*
X107820000Y-90465000D01*
X106170000Y-94215000D02*
X106170000Y-90465000D01*
X106170000Y-101465000D02*
X106170000Y-97715000D01*
X107820000Y-101465000D02*
X106170000Y-101465000D01*
X120420000Y-101465000D02*
X122070000Y-101465000D01*
X122070000Y-90465000D02*
X120420000Y-90465000D01*
X122070000Y-94215000D02*
X122070000Y-90465000D01*
X122070000Y-101465000D02*
X122070000Y-97765000D01*
D13*
X119935000Y-104565000D02*
G75*
G02*
X119735000Y-104565000I-100000J0D01*
G01*
X119735000Y-104565000D02*
G75*
G02*
X119935000Y-104565000I100000J0D01*
G01*
D14*
%TO.C,R105*%
X145727064Y-148115000D02*
X145272936Y-148115000D01*
X145727064Y-149585000D02*
X145272936Y-149585000D01*
%TO.C,C34*%
X95990000Y-119640580D02*
X95990000Y-119359420D01*
X97010000Y-119640580D02*
X97010000Y-119359420D01*
%TO.C,C4*%
X110903508Y-75082824D02*
X111184668Y-75082824D01*
X110903508Y-76102824D02*
X111184668Y-76102824D01*
%TO.C,C153*%
X145621267Y-144590000D02*
X145328733Y-144590000D01*
X145621267Y-145610000D02*
X145328733Y-145610000D01*
%TO.C,C6*%
X123640000Y-90888748D02*
X123640000Y-92311252D01*
X126360000Y-90888748D02*
X126360000Y-92311252D01*
%TO.C,R221*%
X149665000Y-145210436D02*
X149665000Y-145664564D01*
X151135000Y-145210436D02*
X151135000Y-145664564D01*
%TO.C,C30*%
X118640580Y-126065000D02*
X118359420Y-126065000D01*
X118640580Y-127085000D02*
X118359420Y-127085000D01*
D15*
%TO.C,IC2*%
X124820000Y-98490000D02*
X128570000Y-98490000D01*
X124820000Y-100140000D02*
X124820000Y-98490000D01*
X124820000Y-112740000D02*
X124820000Y-114390000D01*
X124820000Y-114390000D02*
X128520000Y-114390000D01*
X132070000Y-98490000D02*
X135820000Y-98490000D01*
X132070000Y-114390000D02*
X135820000Y-114390000D01*
X135820000Y-98490000D02*
X135820000Y-100140000D01*
X135820000Y-114390000D02*
X135820000Y-112740000D01*
D13*
X121820000Y-112155000D02*
G75*
G02*
X121620000Y-112155000I-100000J0D01*
G01*
X121620000Y-112155000D02*
G75*
G02*
X121820000Y-112155000I100000J0D01*
G01*
D14*
%TO.C,R38*%
X110190000Y-128185436D02*
X110190000Y-132539564D01*
X113610000Y-128185436D02*
X113610000Y-132539564D01*
%TO.C,C84*%
X81165000Y-132528733D02*
X81165000Y-132821267D01*
X82185000Y-132528733D02*
X82185000Y-132821267D01*
D15*
%TO.C,U6*%
X145725000Y-101225000D02*
X141825000Y-101225000D01*
X145725000Y-106275000D02*
X141825000Y-106275000D01*
D13*
X147915000Y-101445000D02*
G75*
G02*
X147715000Y-101445000I-100000J0D01*
G01*
X147715000Y-101445000D02*
G75*
G02*
X147915000Y-101445000I100000J0D01*
G01*
D17*
%TO.C,G\u002A\u002A\u002A*%
G36*
X126679877Y-74249030D02*
G01*
X126698172Y-74250628D01*
X126707369Y-74253824D01*
X126709896Y-74259045D01*
X126705591Y-74266375D01*
X126689008Y-74269489D01*
X126668120Y-74269489D01*
X126668120Y-74325191D01*
X126668069Y-74339877D01*
X126667369Y-74362023D01*
X126665291Y-74374374D01*
X126661133Y-74379730D01*
X126654194Y-74380893D01*
X126650523Y-74380688D01*
X126644986Y-74377891D01*
X126641899Y-74369577D01*
X126640560Y-74352944D01*
X126640269Y-74325191D01*
X126640269Y-74269489D01*
X126615899Y-74269489D01*
X126613680Y-74269470D01*
X126596814Y-74266770D01*
X126591530Y-74259045D01*
X126593959Y-74253898D01*
X126603015Y-74250670D01*
X126621125Y-74249047D01*
X126650713Y-74248601D01*
X126679877Y-74249030D01*
G37*
G36*
X127414205Y-72077854D02*
G01*
X127408135Y-72088709D01*
X127396208Y-72108082D01*
X127379660Y-72133990D01*
X127359722Y-72164452D01*
X127355647Y-72170695D01*
X127337276Y-72200311D01*
X127316322Y-72235962D01*
X127293848Y-72275640D01*
X127270919Y-72317337D01*
X127248598Y-72359043D01*
X127227950Y-72398749D01*
X127210038Y-72434448D01*
X127195927Y-72464130D01*
X127186680Y-72485787D01*
X127183361Y-72497410D01*
X127182315Y-72502368D01*
X127174281Y-72513752D01*
X127174214Y-72513807D01*
X127162333Y-72519449D01*
X127139897Y-72526830D01*
X127110008Y-72535176D01*
X127075768Y-72543714D01*
X127040279Y-72551669D01*
X127006642Y-72558267D01*
X126977961Y-72562735D01*
X126940869Y-72566834D01*
X126910875Y-72568555D01*
X126887342Y-72567547D01*
X126866557Y-72563847D01*
X126863378Y-72563068D01*
X126854114Y-72560173D01*
X126853542Y-72556886D01*
X126863035Y-72551517D01*
X126883964Y-72542371D01*
X126906218Y-72532418D01*
X126938223Y-72517326D01*
X126974148Y-72499820D01*
X127010684Y-72481558D01*
X127044521Y-72464195D01*
X127072350Y-72449390D01*
X127090860Y-72438798D01*
X127098971Y-72432530D01*
X127116087Y-72413497D01*
X127130591Y-72390639D01*
X127148869Y-72359256D01*
X127176124Y-72319737D01*
X127209028Y-72277022D01*
X127245148Y-72234260D01*
X127282050Y-72194599D01*
X127292538Y-72184068D01*
X127318354Y-72158975D01*
X127344799Y-72134215D01*
X127369759Y-72111676D01*
X127391123Y-72093242D01*
X127406779Y-72080799D01*
X127414616Y-72076233D01*
X127414205Y-72077854D01*
G37*
G36*
X126461518Y-74249578D02*
G01*
X126469490Y-74254822D01*
X126476245Y-74267401D01*
X126484182Y-74290377D01*
X126490993Y-74310228D01*
X126497457Y-74326077D01*
X126501404Y-74332154D01*
X126504791Y-74327641D01*
X126511462Y-74313142D01*
X126519526Y-74292118D01*
X126526620Y-74273329D01*
X126534216Y-74259158D01*
X126542966Y-74252445D01*
X126555689Y-74249901D01*
X126568753Y-74249377D01*
X126576127Y-74253878D01*
X126577654Y-74267307D01*
X126578195Y-74281941D01*
X126579820Y-74306486D01*
X126582142Y-74333894D01*
X126582948Y-74342578D01*
X126584434Y-74363922D01*
X126583501Y-74375387D01*
X126579466Y-74380025D01*
X126571649Y-74380893D01*
X126569264Y-74380845D01*
X126562410Y-74378971D01*
X126558640Y-74372159D01*
X126557046Y-74357414D01*
X126556716Y-74331743D01*
X126556705Y-74328799D01*
X126555749Y-74306002D01*
X126553554Y-74290820D01*
X126550549Y-74286405D01*
X126545839Y-74294359D01*
X126539182Y-74312055D01*
X126532108Y-74335555D01*
X126526792Y-74354052D01*
X126520260Y-74370867D01*
X126513442Y-74378862D01*
X126504606Y-74380893D01*
X126502483Y-74380805D01*
X126494824Y-74377909D01*
X126488030Y-74369055D01*
X126480644Y-74351738D01*
X126471210Y-74323450D01*
X126467387Y-74311476D01*
X126460085Y-74289984D01*
X126455651Y-74280224D01*
X126453404Y-74281008D01*
X126452659Y-74291146D01*
X126451340Y-74322223D01*
X126447061Y-74354361D01*
X126440074Y-74374146D01*
X126430548Y-74380893D01*
X126424280Y-74379864D01*
X126420523Y-74374345D01*
X126419787Y-74361217D01*
X126421422Y-74337376D01*
X126424555Y-74302687D01*
X126427571Y-74277254D01*
X126431011Y-74261364D01*
X126435630Y-74252783D01*
X126442183Y-74249274D01*
X126451426Y-74248601D01*
X126461518Y-74249578D01*
G37*
G36*
X128895520Y-71665925D02*
G01*
X128889456Y-71752759D01*
X128869892Y-71836246D01*
X128836819Y-71916460D01*
X128819394Y-71950847D01*
X128850206Y-71988676D01*
X128866253Y-72009621D01*
X128888128Y-72040950D01*
X128906770Y-72070444D01*
X128915183Y-72085392D01*
X128928548Y-72111220D01*
X128940819Y-72137085D01*
X128950627Y-72159911D01*
X128956600Y-72176617D01*
X128957369Y-72184126D01*
X128950825Y-72184079D01*
X128933079Y-72182670D01*
X128906968Y-72180113D01*
X128875302Y-72176664D01*
X128845464Y-72173277D01*
X128818329Y-72170208D01*
X128799193Y-72168058D01*
X128790973Y-72167154D01*
X128791075Y-72170703D01*
X128795281Y-72184704D01*
X128803237Y-72206890D01*
X128814045Y-72234634D01*
X128821361Y-72253303D01*
X128851359Y-72341504D01*
X128875719Y-72432866D01*
X128892588Y-72520644D01*
X128897249Y-72555640D01*
X128902698Y-72610078D01*
X128906388Y-72665249D01*
X128908157Y-72717542D01*
X128907838Y-72763344D01*
X128905269Y-72799044D01*
X128899671Y-72842990D01*
X128812637Y-72776477D01*
X128794511Y-72762693D01*
X128766626Y-72741778D01*
X128743829Y-72725046D01*
X128728099Y-72713939D01*
X128721412Y-72709902D01*
X128720462Y-72711189D01*
X128717963Y-72722710D01*
X128715345Y-72743615D01*
X128713039Y-72770764D01*
X128712905Y-72772678D01*
X128701315Y-72855560D01*
X128678322Y-72944349D01*
X128644402Y-73037736D01*
X128600027Y-73134409D01*
X128545674Y-73233056D01*
X128534564Y-73250961D01*
X128520776Y-73270960D01*
X128510539Y-73283112D01*
X128505499Y-73285277D01*
X128503565Y-73278107D01*
X128500308Y-73259299D01*
X128496521Y-73232438D01*
X128492689Y-73200712D01*
X128478778Y-73101271D01*
X128453097Y-72971431D01*
X128418855Y-72838438D01*
X128411455Y-72812810D01*
X128401303Y-72778179D01*
X128392770Y-72749694D01*
X128386583Y-72729770D01*
X128383469Y-72720826D01*
X128383394Y-72720578D01*
X128388075Y-72724370D01*
X128400781Y-72736652D01*
X128420129Y-72756043D01*
X128444741Y-72781161D01*
X128473234Y-72810626D01*
X128566783Y-72907931D01*
X128575676Y-72852403D01*
X128578848Y-72828871D01*
X128582972Y-72783103D01*
X128585885Y-72730364D01*
X128587541Y-72674126D01*
X128587892Y-72617856D01*
X128586891Y-72565025D01*
X128584493Y-72519100D01*
X128580650Y-72483552D01*
X128578492Y-72469334D01*
X128575050Y-72443907D01*
X128573167Y-72425766D01*
X128573212Y-72418136D01*
X128578882Y-72421277D01*
X128593632Y-72431940D01*
X128615718Y-72448820D01*
X128643409Y-72470596D01*
X128674973Y-72495944D01*
X128706212Y-72520809D01*
X128733916Y-72541975D01*
X128756074Y-72557965D01*
X128770965Y-72567536D01*
X128776868Y-72569448D01*
X128777598Y-72564001D01*
X128775678Y-72544527D01*
X128769758Y-72514992D01*
X128760318Y-72477402D01*
X128747839Y-72433761D01*
X128732805Y-72386074D01*
X128732536Y-72385259D01*
X128719767Y-72348591D01*
X128705115Y-72309737D01*
X128689533Y-72270877D01*
X128673971Y-72234193D01*
X128659383Y-72201864D01*
X128646720Y-72176073D01*
X128636934Y-72158999D01*
X128630978Y-72152823D01*
X128622562Y-72156106D01*
X128605843Y-72164727D01*
X128584449Y-72176817D01*
X128576499Y-72181388D01*
X128511218Y-72212810D01*
X128444350Y-72234943D01*
X128378351Y-72247305D01*
X128315682Y-72249413D01*
X128258801Y-72240784D01*
X128245656Y-72237011D01*
X128179960Y-72210225D01*
X128115859Y-72171497D01*
X128055184Y-72122470D01*
X127999769Y-72064786D01*
X127951446Y-72000087D01*
X127912049Y-71930015D01*
X127905367Y-71915752D01*
X127893829Y-71888443D01*
X127886892Y-71865015D01*
X127883087Y-71839631D01*
X127880945Y-71806452D01*
X127880081Y-71784662D01*
X127880096Y-71759438D01*
X127882362Y-71740670D01*
X127887563Y-71723845D01*
X127896382Y-71704448D01*
X127902781Y-71692485D01*
X127931280Y-71656085D01*
X127969696Y-71628065D01*
X128018701Y-71608025D01*
X128078968Y-71595564D01*
X128101495Y-71592484D01*
X128127883Y-71588257D01*
X128142547Y-71584385D01*
X128146801Y-71580141D01*
X128141957Y-71574796D01*
X128129330Y-71567621D01*
X128058281Y-71536906D01*
X127972466Y-71512706D01*
X127879633Y-71498650D01*
X127827413Y-71493839D01*
X127865707Y-71476137D01*
X127900795Y-71462064D01*
X127965188Y-71444919D01*
X128032646Y-71436314D01*
X128098863Y-71436686D01*
X128159535Y-71446468D01*
X128179228Y-71451169D01*
X128197707Y-71454647D01*
X128207078Y-71455171D01*
X128208421Y-71453849D01*
X128206091Y-71444065D01*
X128195837Y-71426664D01*
X128179009Y-71403356D01*
X128156959Y-71375853D01*
X128131035Y-71345864D01*
X128102588Y-71315100D01*
X128072968Y-71285270D01*
X128056412Y-71269520D01*
X128016115Y-71233182D01*
X127970540Y-71194772D01*
X127918368Y-71153252D01*
X127858276Y-71107586D01*
X127788943Y-71056737D01*
X127745523Y-71025722D01*
X127973930Y-71025722D01*
X127974906Y-71027306D01*
X127984375Y-71035812D01*
X128002269Y-71050258D01*
X128026725Y-71069159D01*
X128055881Y-71091031D01*
X128075816Y-71106206D01*
X128118667Y-71141141D01*
X128163161Y-71180058D01*
X128207172Y-71220896D01*
X128248571Y-71261594D01*
X128285233Y-71300093D01*
X128315029Y-71334331D01*
X128335832Y-71362246D01*
X128338775Y-71366891D01*
X128362689Y-71412467D01*
X128383314Y-71465004D01*
X128398657Y-71518720D01*
X128406723Y-71567830D01*
X128406934Y-71570494D01*
X128406040Y-71629268D01*
X128395255Y-71686716D01*
X128375557Y-71739260D01*
X128347922Y-71783320D01*
X128334322Y-71800116D01*
X128330529Y-71739321D01*
X128329724Y-71727394D01*
X128327525Y-71701712D01*
X128325272Y-71683162D01*
X128323344Y-71675134D01*
X128323041Y-71674967D01*
X128314520Y-71677125D01*
X128297607Y-71684585D01*
X128275601Y-71695911D01*
X128240611Y-71713020D01*
X128178451Y-71733993D01*
X128109403Y-71745699D01*
X128103888Y-71746291D01*
X128070152Y-71752071D01*
X128048242Y-71761018D01*
X128036427Y-71774194D01*
X128032978Y-71792662D01*
X128034283Y-71808230D01*
X128045188Y-71846834D01*
X128065694Y-71888949D01*
X128094038Y-71932304D01*
X128128457Y-71974630D01*
X128167189Y-72013659D01*
X128208471Y-72047120D01*
X128250540Y-72072744D01*
X128254177Y-72074549D01*
X128284826Y-72088046D01*
X128309993Y-72094925D01*
X128334886Y-72096663D01*
X128389649Y-72090200D01*
X128449080Y-72071430D01*
X128507568Y-72041861D01*
X128563275Y-72002978D01*
X128614360Y-71956269D01*
X128658984Y-71903222D01*
X128695307Y-71845325D01*
X128721491Y-71784063D01*
X128728193Y-71762032D01*
X128738788Y-71709381D01*
X128740246Y-71657399D01*
X128732934Y-71600198D01*
X128731407Y-71592209D01*
X128719336Y-71539834D01*
X128704642Y-71496242D01*
X128685526Y-71456913D01*
X128660191Y-71417327D01*
X128650640Y-71404226D01*
X128595660Y-71341627D01*
X128527208Y-71281863D01*
X128445237Y-71224903D01*
X128349700Y-71170712D01*
X128240550Y-71119256D01*
X128212207Y-71107429D01*
X128176104Y-71093165D01*
X128137342Y-71078492D01*
X128098152Y-71064193D01*
X128060767Y-71051051D01*
X128027419Y-71039850D01*
X128000342Y-71031372D01*
X127981768Y-71026402D01*
X127973930Y-71025722D01*
X127745523Y-71025722D01*
X127709046Y-70999666D01*
X127686076Y-70983314D01*
X127655217Y-70960666D01*
X127633625Y-70943543D01*
X127619796Y-70930623D01*
X127612225Y-70920582D01*
X127609407Y-70912099D01*
X127609385Y-70911906D01*
X127611804Y-70894871D01*
X127625441Y-70881521D01*
X127627410Y-70880276D01*
X127637024Y-70875748D01*
X127649553Y-70873072D01*
X127667737Y-70872061D01*
X127694320Y-70872529D01*
X127732043Y-70874290D01*
X127845875Y-70883802D01*
X127966905Y-70901103D01*
X128086466Y-70925240D01*
X128202167Y-70955583D01*
X128311613Y-70991498D01*
X128412414Y-71032357D01*
X128502177Y-71077526D01*
X128583487Y-71127553D01*
X128664868Y-71188621D01*
X128733394Y-71253786D01*
X128789432Y-71323518D01*
X128833356Y-71398287D01*
X128865533Y-71478562D01*
X128886335Y-71564814D01*
X128888097Y-71575669D01*
X128894819Y-71657399D01*
X128895520Y-71665925D01*
G37*
G36*
X132349699Y-73353368D02*
G01*
X132354531Y-73357032D01*
X132380059Y-73376945D01*
X132411566Y-73402206D01*
X132447655Y-73431633D01*
X132486931Y-73464045D01*
X132527998Y-73498260D01*
X132569460Y-73533098D01*
X132609923Y-73567377D01*
X132647990Y-73599916D01*
X132682265Y-73629533D01*
X132711353Y-73655048D01*
X132733858Y-73675279D01*
X132748384Y-73689045D01*
X132753536Y-73695164D01*
X132753442Y-73695214D01*
X132745665Y-73693226D01*
X132726588Y-73687340D01*
X132697885Y-73678102D01*
X132661230Y-73666055D01*
X132618299Y-73651744D01*
X132570765Y-73635714D01*
X132558429Y-73631536D01*
X132442787Y-73592955D01*
X132333288Y-73557602D01*
X132227720Y-73524873D01*
X132123874Y-73494160D01*
X132019540Y-73464858D01*
X131912509Y-73436361D01*
X131800571Y-73408063D01*
X131681515Y-73379358D01*
X131553132Y-73349640D01*
X131413213Y-73318303D01*
X131262395Y-73286408D01*
X131090286Y-73253090D01*
X130914373Y-73222021D01*
X130738023Y-73193739D01*
X130564600Y-73168780D01*
X130397469Y-73147681D01*
X130239995Y-73130981D01*
X130194737Y-73126703D01*
X130302659Y-73184965D01*
X130386267Y-73230872D01*
X130555567Y-73328880D01*
X130721765Y-73432221D01*
X130887403Y-73542560D01*
X131055025Y-73661565D01*
X131227172Y-73790901D01*
X131238068Y-73799333D01*
X131273545Y-73827171D01*
X131312136Y-73857930D01*
X131352285Y-73890323D01*
X131392433Y-73923061D01*
X131431024Y-73954857D01*
X131466501Y-73984425D01*
X131497307Y-74010475D01*
X131521884Y-74031722D01*
X131538677Y-74046876D01*
X131546126Y-74054651D01*
X131547128Y-74056191D01*
X131548342Y-74058385D01*
X131547773Y-74059729D01*
X131544121Y-74059935D01*
X131536083Y-74058718D01*
X131522359Y-74055790D01*
X131501647Y-74050864D01*
X131472645Y-74043654D01*
X131434052Y-74033872D01*
X131384566Y-74021231D01*
X131322886Y-74005446D01*
X131287693Y-73996448D01*
X131232983Y-73982523D01*
X131186879Y-73970925D01*
X131146246Y-73960907D01*
X131107948Y-73951722D01*
X131068848Y-73942624D01*
X131025810Y-73932864D01*
X130975699Y-73921695D01*
X130915379Y-73908372D01*
X130845459Y-73893168D01*
X130746954Y-73872526D01*
X130649217Y-73853047D01*
X130549813Y-73834290D01*
X130446307Y-73815811D01*
X130336262Y-73797167D01*
X130217243Y-73777914D01*
X130086815Y-73757610D01*
X130083461Y-73757098D01*
X130003806Y-73745643D01*
X129912354Y-73733693D01*
X129811124Y-73721475D01*
X129702133Y-73709217D01*
X129587398Y-73697144D01*
X129468937Y-73685486D01*
X129348767Y-73674468D01*
X129334257Y-73673199D01*
X129271660Y-73667965D01*
X129207673Y-73662964D01*
X129143991Y-73658301D01*
X129082311Y-73654079D01*
X129024329Y-73650402D01*
X128971742Y-73647375D01*
X128926245Y-73645101D01*
X128889536Y-73643685D01*
X128863310Y-73643230D01*
X128849265Y-73643840D01*
X128844242Y-73645673D01*
X128844230Y-73650369D01*
X128851578Y-73659209D01*
X128867522Y-73673629D01*
X128893297Y-73695065D01*
X128910662Y-73708905D01*
X128941078Y-73731816D01*
X128969819Y-73752036D01*
X128992442Y-73766369D01*
X129045175Y-73793067D01*
X129128295Y-73824688D01*
X129222062Y-73849803D01*
X129325367Y-73868127D01*
X129437103Y-73879381D01*
X129457138Y-73880702D01*
X129515672Y-73884568D01*
X129562023Y-73887694D01*
X129597507Y-73890230D01*
X129623441Y-73892332D01*
X129641144Y-73894151D01*
X129651930Y-73895840D01*
X129657119Y-73897552D01*
X129658025Y-73899440D01*
X129655968Y-73901657D01*
X129652263Y-73904356D01*
X129649111Y-73906478D01*
X129632203Y-73916315D01*
X129605890Y-73930488D01*
X129572563Y-73947801D01*
X129534614Y-73967061D01*
X129494432Y-73987073D01*
X129454410Y-74006642D01*
X129416938Y-74024575D01*
X129384408Y-74039676D01*
X129359211Y-74050751D01*
X129331850Y-74061751D01*
X129292330Y-74076817D01*
X129249729Y-74092394D01*
X129209512Y-74106448D01*
X129122478Y-74135961D01*
X129170449Y-74157612D01*
X129185484Y-74164002D01*
X129214118Y-74175425D01*
X129251565Y-74189866D01*
X129295437Y-74206417D01*
X129343348Y-74224170D01*
X129392909Y-74242217D01*
X129437918Y-74258520D01*
X129480987Y-74274250D01*
X129518259Y-74287996D01*
X129547906Y-74299081D01*
X129568100Y-74306825D01*
X129577012Y-74310551D01*
X129575300Y-74313932D01*
X129561334Y-74318546D01*
X129536647Y-74324141D01*
X129502808Y-74330490D01*
X129461389Y-74337365D01*
X129413959Y-74344538D01*
X129362091Y-74351780D01*
X129307355Y-74358864D01*
X129251322Y-74365563D01*
X129195562Y-74371647D01*
X129141646Y-74376889D01*
X129091146Y-74381062D01*
X129064217Y-74382762D01*
X129013252Y-74384979D01*
X128954576Y-74386602D01*
X128890895Y-74387631D01*
X128824909Y-74388064D01*
X128759322Y-74387901D01*
X128696837Y-74387140D01*
X128640155Y-74385781D01*
X128591981Y-74383823D01*
X128555017Y-74381263D01*
X128522552Y-74378212D01*
X128493756Y-74375697D01*
X128475211Y-74374704D01*
X128464924Y-74375416D01*
X128460899Y-74378014D01*
X128461141Y-74382680D01*
X128463654Y-74389596D01*
X128468277Y-74403586D01*
X128474013Y-74424229D01*
X128478601Y-74443196D01*
X128410628Y-74439628D01*
X128302520Y-74430869D01*
X128196937Y-74414914D01*
X128101074Y-74391788D01*
X128013556Y-74361080D01*
X127933004Y-74322382D01*
X127858043Y-74275284D01*
X127857795Y-74275110D01*
X127848496Y-74272159D01*
X127835836Y-74276190D01*
X127816267Y-74288308D01*
X127800481Y-74298895D01*
X127785671Y-74307902D01*
X127770729Y-74315302D01*
X127754274Y-74321253D01*
X127734927Y-74325913D01*
X127711310Y-74329439D01*
X127682044Y-74331990D01*
X127645747Y-74333723D01*
X127601043Y-74334796D01*
X127546551Y-74335367D01*
X127480892Y-74335594D01*
X127402687Y-74335635D01*
X127369661Y-74335652D01*
X127294513Y-74335715D01*
X127231306Y-74335469D01*
X127178619Y-74334494D01*
X127135029Y-74332369D01*
X127099112Y-74328672D01*
X127069446Y-74322982D01*
X127044609Y-74314879D01*
X127023176Y-74303942D01*
X127003726Y-74289749D01*
X126984836Y-74271880D01*
X126965083Y-74249913D01*
X126943043Y-74223427D01*
X126917295Y-74192001D01*
X126887769Y-74156110D01*
X126836091Y-74092678D01*
X126793168Y-74039052D01*
X126758683Y-73994821D01*
X126732317Y-73959575D01*
X126713754Y-73932901D01*
X126702675Y-73914390D01*
X126694539Y-73893772D01*
X126688574Y-73864119D01*
X126686153Y-73826395D01*
X126687171Y-73778775D01*
X126691351Y-73721784D01*
X126872330Y-73721784D01*
X126875140Y-73723960D01*
X126888452Y-73731293D01*
X126910853Y-73742752D01*
X126940334Y-73757315D01*
X126974883Y-73773958D01*
X127000688Y-73786172D01*
X127032827Y-73801148D01*
X127058969Y-73813053D01*
X127076930Y-73820894D01*
X127084528Y-73823684D01*
X127085519Y-73823359D01*
X127095664Y-73817812D01*
X127114765Y-73806327D01*
X127140937Y-73790115D01*
X127172293Y-73770391D01*
X127206946Y-73748366D01*
X127243009Y-73725253D01*
X127278596Y-73702265D01*
X127311820Y-73680614D01*
X127340794Y-73661512D01*
X127363632Y-73646173D01*
X127378446Y-73635809D01*
X127383351Y-73631632D01*
X127381987Y-73631537D01*
X127370750Y-73634446D01*
X127350919Y-73641119D01*
X127325634Y-73650529D01*
X127318692Y-73653202D01*
X127288524Y-73664650D01*
X127250664Y-73678839D01*
X127209263Y-73694219D01*
X127168470Y-73709239D01*
X127066545Y-73746573D01*
X126970566Y-73733051D01*
X126958806Y-73731413D01*
X126925442Y-73726994D01*
X126898208Y-73723721D01*
X126879655Y-73721887D01*
X126872330Y-73721784D01*
X126691351Y-73721784D01*
X126691523Y-73719434D01*
X126696905Y-73660251D01*
X126592944Y-73374749D01*
X126580859Y-73341435D01*
X126559016Y-73280590D01*
X126538615Y-73222964D01*
X126520221Y-73170198D01*
X126504397Y-73123932D01*
X126491708Y-73085806D01*
X126482718Y-73057461D01*
X126477992Y-73040538D01*
X126473136Y-73017528D01*
X126464699Y-72968469D01*
X126458582Y-72919738D01*
X126455079Y-72874623D01*
X126454487Y-72836412D01*
X126457102Y-72808390D01*
X126459496Y-72796379D01*
X126461311Y-72782244D01*
X126458919Y-72772056D01*
X126450372Y-72763062D01*
X126433721Y-72752509D01*
X126407018Y-72737645D01*
X126384766Y-72724799D01*
X126351307Y-72703583D01*
X127399205Y-72703583D01*
X127399717Y-72704829D01*
X127408693Y-72710530D01*
X127425316Y-72716437D01*
X127457040Y-72722584D01*
X127503610Y-72721108D01*
X127546345Y-72706464D01*
X127584362Y-72678861D01*
X127608184Y-72649783D01*
X127623619Y-72612221D01*
X127625719Y-72570916D01*
X127614480Y-72526029D01*
X127589897Y-72477717D01*
X127576950Y-72458042D01*
X127566332Y-72443798D01*
X127560552Y-72438401D01*
X127559106Y-72438522D01*
X127546462Y-72447145D01*
X127534324Y-72468711D01*
X127522998Y-72502336D01*
X127512788Y-72547140D01*
X127503998Y-72602238D01*
X127502250Y-72614998D01*
X127498352Y-72640991D01*
X127495023Y-72660017D01*
X127492839Y-72668651D01*
X127485237Y-72672702D01*
X127467866Y-72678846D01*
X127444543Y-72685709D01*
X127444349Y-72685762D01*
X127421602Y-72692694D01*
X127405388Y-72699095D01*
X127399205Y-72703583D01*
X126351307Y-72703583D01*
X126338730Y-72695608D01*
X126292306Y-72663238D01*
X126249806Y-72630760D01*
X126215543Y-72601248D01*
X126206923Y-72593300D01*
X126185090Y-72575652D01*
X126166187Y-72565565D01*
X126145916Y-72560523D01*
X126109509Y-72553454D01*
X126062938Y-72541667D01*
X126012937Y-72526866D01*
X125964273Y-72510467D01*
X125921710Y-72493888D01*
X125842185Y-72454762D01*
X125767210Y-72406218D01*
X125703540Y-72351493D01*
X125681415Y-72328157D01*
X125637513Y-72271867D01*
X125603790Y-72211791D01*
X125580187Y-72147156D01*
X125566645Y-72077185D01*
X125564151Y-72023601D01*
X125687439Y-72023601D01*
X125689048Y-72062277D01*
X125692633Y-72089898D01*
X125713115Y-72153963D01*
X125746341Y-72213329D01*
X125791797Y-72266673D01*
X125849189Y-72313709D01*
X125918225Y-72354152D01*
X125998610Y-72387716D01*
X126021654Y-72395703D01*
X126047999Y-72404375D01*
X126064390Y-72408696D01*
X126072726Y-72408937D01*
X126074908Y-72405368D01*
X126072837Y-72398258D01*
X126064454Y-72376643D01*
X126040405Y-72303164D01*
X126020628Y-72225080D01*
X126006963Y-72149341D01*
X126005409Y-72138096D01*
X126000771Y-72105898D01*
X125996694Y-72084324D01*
X125992031Y-72070906D01*
X125985638Y-72063180D01*
X125976368Y-72058682D01*
X125963074Y-72054945D01*
X125960762Y-72054295D01*
X125928370Y-72038178D01*
X125898024Y-72010851D01*
X125872012Y-71974845D01*
X125852620Y-71932691D01*
X125852548Y-71932483D01*
X125846849Y-71914981D01*
X125842634Y-71898585D01*
X125839683Y-71880788D01*
X125837772Y-71859087D01*
X125836682Y-71830975D01*
X125836190Y-71793949D01*
X125836075Y-71745503D01*
X125836452Y-71689133D01*
X125837730Y-71642547D01*
X125840086Y-71604249D01*
X125843696Y-71571399D01*
X125848734Y-71541158D01*
X125851820Y-71524528D01*
X125855927Y-71498791D01*
X125857991Y-71480311D01*
X125857599Y-71472273D01*
X125855793Y-71473381D01*
X125848776Y-71484040D01*
X125837787Y-71503865D01*
X125823923Y-71530602D01*
X125808282Y-71561999D01*
X125791960Y-71595805D01*
X125776053Y-71629767D01*
X125761659Y-71661633D01*
X125749873Y-71689151D01*
X125741794Y-71710069D01*
X125727817Y-71751263D01*
X125713135Y-71798646D01*
X125702639Y-71839687D01*
X125695546Y-71878086D01*
X125691071Y-71917542D01*
X125688428Y-71961754D01*
X125687894Y-71976612D01*
X125687439Y-72023601D01*
X125564151Y-72023601D01*
X125563104Y-72001103D01*
X125569505Y-71918136D01*
X125585790Y-71827509D01*
X125611899Y-71728446D01*
X125647773Y-71620172D01*
X125667325Y-71569848D01*
X125694514Y-71508316D01*
X125725490Y-71445185D01*
X125759248Y-71382065D01*
X125794778Y-71320563D01*
X125831073Y-71262291D01*
X125867126Y-71208857D01*
X125901927Y-71161871D01*
X125934470Y-71122942D01*
X125963747Y-71093678D01*
X125988750Y-71075691D01*
X126002159Y-71069458D01*
X126010959Y-71069705D01*
X126018779Y-71078005D01*
X126021433Y-71082324D01*
X126024538Y-71092688D01*
X126025038Y-71107557D01*
X126022699Y-71128711D01*
X126017283Y-71157928D01*
X126008555Y-71196987D01*
X125996279Y-71247669D01*
X125995935Y-71249063D01*
X125975428Y-71336098D01*
X125959614Y-71413130D01*
X125948081Y-71483066D01*
X125940416Y-71548811D01*
X125936206Y-71613273D01*
X125935040Y-71679358D01*
X125935140Y-71691646D01*
X125936941Y-71743234D01*
X125940739Y-71788530D01*
X125946240Y-71823753D01*
X125946538Y-71825127D01*
X125954451Y-71858971D01*
X125960507Y-71879014D01*
X125964733Y-71885252D01*
X125967151Y-71877684D01*
X125967786Y-71856304D01*
X125966662Y-71821111D01*
X125966543Y-71817958D01*
X126131990Y-71817958D01*
X126132004Y-71824680D01*
X126133895Y-71900730D01*
X126138773Y-71977259D01*
X126146331Y-72052825D01*
X126156264Y-72125990D01*
X126168263Y-72195311D01*
X126182023Y-72259350D01*
X126197237Y-72316666D01*
X126213599Y-72365817D01*
X126230801Y-72405365D01*
X126230803Y-72405368D01*
X126248537Y-72433868D01*
X126266502Y-72449886D01*
X126279989Y-72456134D01*
X126308047Y-72467503D01*
X126344530Y-72481170D01*
X126386595Y-72496131D01*
X126431404Y-72511382D01*
X126476116Y-72525919D01*
X126517889Y-72538739D01*
X126539211Y-72545194D01*
X126564158Y-72553653D01*
X126577934Y-72560236D01*
X126580080Y-72565256D01*
X126570136Y-72569023D01*
X126547645Y-72571851D01*
X126512146Y-72574051D01*
X126463180Y-72575936D01*
X126461425Y-72575993D01*
X126419689Y-72577501D01*
X126391130Y-72579307D01*
X126375033Y-72582114D01*
X126370681Y-72586624D01*
X126377360Y-72593540D01*
X126394352Y-72603565D01*
X126420943Y-72617402D01*
X126461151Y-72635740D01*
X126536361Y-72660845D01*
X126622150Y-72679527D01*
X126622609Y-72679605D01*
X126648726Y-72683824D01*
X126670848Y-72686643D01*
X126691951Y-72688069D01*
X126715009Y-72688109D01*
X126743000Y-72686769D01*
X126778899Y-72684056D01*
X126825680Y-72679975D01*
X126843440Y-72678338D01*
X126983531Y-72661654D01*
X127118729Y-72638314D01*
X127256148Y-72607114D01*
X127360268Y-72580858D01*
X127378861Y-72518280D01*
X127379711Y-72515433D01*
X127408458Y-72434599D01*
X127443042Y-72365110D01*
X127484434Y-72305303D01*
X127533605Y-72253518D01*
X127538782Y-72248975D01*
X127569428Y-72225719D01*
X127605854Y-72202480D01*
X127643983Y-72181535D01*
X127679740Y-72165156D01*
X127709046Y-72155620D01*
X127716206Y-72154173D01*
X127722341Y-72154184D01*
X127721326Y-72158667D01*
X127712338Y-72169487D01*
X127694555Y-72188512D01*
X127670854Y-72214944D01*
X127646466Y-72244742D01*
X127623998Y-72274573D01*
X127604896Y-72302332D01*
X127590607Y-72325912D01*
X127582575Y-72343207D01*
X127582247Y-72352111D01*
X127587327Y-72351901D01*
X127604662Y-72349232D01*
X127632740Y-72344188D01*
X127669976Y-72337073D01*
X127714785Y-72328191D01*
X127765585Y-72317846D01*
X127820789Y-72306342D01*
X127866071Y-72296854D01*
X127917672Y-72286174D01*
X127963516Y-72276831D01*
X128002028Y-72269140D01*
X128031639Y-72263413D01*
X128050774Y-72259963D01*
X128057862Y-72259104D01*
X128054551Y-72261736D01*
X128040792Y-72269873D01*
X128018180Y-72282405D01*
X127988665Y-72298256D01*
X127954198Y-72316347D01*
X127951667Y-72317662D01*
X127891312Y-72349124D01*
X127842356Y-72374881D01*
X127803798Y-72395474D01*
X127774639Y-72411441D01*
X127753879Y-72423322D01*
X127740517Y-72431657D01*
X127724549Y-72442426D01*
X127739102Y-72475324D01*
X127741755Y-72481479D01*
X127759615Y-72538341D01*
X127762761Y-72570916D01*
X127764892Y-72592982D01*
X127757594Y-72644136D01*
X127737729Y-72690539D01*
X127715606Y-72721552D01*
X127675185Y-72758887D01*
X127625091Y-72786594D01*
X127565080Y-72804796D01*
X127494911Y-72813616D01*
X127420029Y-72817762D01*
X127453568Y-72869983D01*
X127455155Y-72872432D01*
X127477425Y-72904192D01*
X127503286Y-72937567D01*
X127527459Y-72965720D01*
X127535210Y-72974174D01*
X127550990Y-72992120D01*
X127560956Y-73004574D01*
X127563217Y-73009237D01*
X127554927Y-73006238D01*
X127537423Y-72998254D01*
X127513806Y-72986830D01*
X127487169Y-72973515D01*
X127460609Y-72959855D01*
X127437218Y-72947398D01*
X127420093Y-72937691D01*
X127390036Y-72918287D01*
X127341044Y-72882423D01*
X127292789Y-72842648D01*
X127250757Y-72803315D01*
X127203267Y-72755098D01*
X126996617Y-72755098D01*
X126789967Y-72755098D01*
X126721011Y-72775499D01*
X126701874Y-72781532D01*
X126672292Y-72792313D01*
X126648416Y-72802775D01*
X126634130Y-72811319D01*
X126631949Y-72813229D01*
X126623473Y-72822473D01*
X126618798Y-72833689D01*
X126616881Y-72850856D01*
X126616680Y-72877952D01*
X126617176Y-72895756D01*
X126619744Y-72926435D01*
X126624902Y-72959057D01*
X126633130Y-72995430D01*
X126644911Y-73037364D01*
X126660727Y-73086671D01*
X126681061Y-73145158D01*
X126706395Y-73214637D01*
X126717650Y-73245139D01*
X126738077Y-73301007D01*
X126758528Y-73357508D01*
X126777773Y-73411223D01*
X126794586Y-73458736D01*
X126807738Y-73496627D01*
X126816450Y-73522058D01*
X126827888Y-73555189D01*
X126837205Y-73581870D01*
X126843614Y-73599857D01*
X126846331Y-73606904D01*
X126846990Y-73606965D01*
X126857635Y-73605796D01*
X126880121Y-73602646D01*
X126912968Y-73597743D01*
X126954700Y-73591312D01*
X127003836Y-73583581D01*
X127058899Y-73574777D01*
X127118409Y-73565128D01*
X127127815Y-73563597D01*
X127189268Y-73553816D01*
X127247910Y-73544844D01*
X127301921Y-73536935D01*
X127349481Y-73530342D01*
X127388772Y-73525319D01*
X127417973Y-73522120D01*
X127435264Y-73520997D01*
X127460414Y-73521952D01*
X127482932Y-73526028D01*
X127501903Y-73534687D01*
X127518585Y-73549388D01*
X127534236Y-73571593D01*
X127550111Y-73602758D01*
X127562162Y-73631632D01*
X127567468Y-73644345D01*
X127587565Y-73697813D01*
X127606586Y-73751085D01*
X127620694Y-73795983D01*
X127628369Y-73832152D01*
X127628999Y-73861720D01*
X127621972Y-73886817D01*
X127606677Y-73909573D01*
X127582502Y-73932118D01*
X127548835Y-73956582D01*
X127505066Y-73985094D01*
X127403013Y-74050139D01*
X127242707Y-74055218D01*
X127220904Y-74055917D01*
X127173911Y-74057476D01*
X127130855Y-74058974D01*
X127094232Y-74060320D01*
X127066537Y-74061423D01*
X127050265Y-74062194D01*
X127018128Y-74064089D01*
X127071153Y-74128403D01*
X127124178Y-74192717D01*
X127413131Y-74191068D01*
X127702084Y-74189418D01*
X127736360Y-74172548D01*
X127751975Y-74163865D01*
X127792091Y-74133237D01*
X127832877Y-74091033D01*
X127873104Y-74038782D01*
X127911545Y-73978014D01*
X127946972Y-73910258D01*
X127955533Y-73891875D01*
X127966657Y-73866874D01*
X127974281Y-73848278D01*
X127977111Y-73839147D01*
X127977665Y-73836089D01*
X127985201Y-73826660D01*
X127989458Y-73828576D01*
X127991879Y-73841758D01*
X127992068Y-73864521D01*
X127990275Y-73894712D01*
X127986752Y-73930176D01*
X127981751Y-73968760D01*
X127975523Y-74008311D01*
X127968319Y-74046674D01*
X127960390Y-74081696D01*
X127951989Y-74111222D01*
X127946723Y-74127978D01*
X127944596Y-74140910D01*
X127947956Y-74149422D01*
X127957359Y-74158388D01*
X127970243Y-74167955D01*
X127999331Y-74185232D01*
X128036443Y-74204047D01*
X128078317Y-74222958D01*
X128121695Y-74240520D01*
X128163315Y-74255290D01*
X128199918Y-74265824D01*
X128224155Y-74271580D01*
X128250676Y-74277695D01*
X128269715Y-74281863D01*
X128278249Y-74283406D01*
X128281029Y-74282931D01*
X128282857Y-74279354D01*
X128281801Y-74270075D01*
X128277489Y-74252549D01*
X128269545Y-74224231D01*
X128268654Y-74221111D01*
X128262053Y-74197755D01*
X128257388Y-74180815D01*
X128255620Y-74173774D01*
X128259535Y-74171884D01*
X128274435Y-74173893D01*
X128301069Y-74180587D01*
X128340075Y-74192106D01*
X128347835Y-74194436D01*
X128388460Y-74205388D01*
X128432425Y-74215681D01*
X128471483Y-74223355D01*
X128489243Y-74226079D01*
X128538100Y-74231811D01*
X128595699Y-74236748D01*
X128658445Y-74240715D01*
X128722743Y-74243540D01*
X128784999Y-74245050D01*
X128841617Y-74245072D01*
X128889003Y-74243433D01*
X128975812Y-74238157D01*
X128926057Y-74209389D01*
X128925608Y-74209128D01*
X128903820Y-74195724D01*
X128873565Y-74176067D01*
X128837595Y-74151997D01*
X128798662Y-74125356D01*
X128759520Y-74097985D01*
X128642738Y-74015350D01*
X128712022Y-74013784D01*
X128761960Y-74012123D01*
X128816704Y-74009260D01*
X128871583Y-74005454D01*
X128924842Y-74000903D01*
X128974724Y-73995803D01*
X129019474Y-73990352D01*
X129057335Y-73984745D01*
X129086553Y-73979180D01*
X129105371Y-73973853D01*
X129112034Y-73968961D01*
X129111699Y-73967256D01*
X129104383Y-73963130D01*
X129103568Y-73963066D01*
X129091304Y-73958909D01*
X129069776Y-73949160D01*
X129041413Y-73935087D01*
X129008646Y-73917956D01*
X128973902Y-73899032D01*
X128939612Y-73879581D01*
X128908204Y-73860871D01*
X128883812Y-73845630D01*
X128813024Y-73797970D01*
X128746412Y-73747246D01*
X128680227Y-73690481D01*
X128610718Y-73624698D01*
X128562354Y-73577656D01*
X128519288Y-73537242D01*
X128479981Y-73502298D01*
X128441592Y-73470378D01*
X128401280Y-73439040D01*
X128356201Y-73405839D01*
X128337006Y-73391775D01*
X128316632Y-73376273D01*
X128303157Y-73365294D01*
X128298812Y-73360598D01*
X128302379Y-73360028D01*
X128317242Y-73361439D01*
X128340581Y-73365224D01*
X128369269Y-73370766D01*
X128400180Y-73377446D01*
X128430187Y-73384643D01*
X128456160Y-73391740D01*
X128477392Y-73398284D01*
X128526827Y-73415858D01*
X128571410Y-73435970D01*
X128617681Y-73461444D01*
X128662939Y-73488157D01*
X128781305Y-73492662D01*
X129111205Y-73509508D01*
X129456029Y-73536131D01*
X129799107Y-73571708D01*
X130137993Y-73615952D01*
X130470240Y-73668576D01*
X130793401Y-73729290D01*
X130825732Y-73735773D01*
X130860331Y-73742467D01*
X130888028Y-73747550D01*
X130906578Y-73750612D01*
X130913740Y-73751245D01*
X130912427Y-73749560D01*
X130901863Y-73741268D01*
X130882163Y-73727126D01*
X130854961Y-73708232D01*
X130821889Y-73685681D01*
X130784580Y-73660568D01*
X130744666Y-73633991D01*
X130703779Y-73607046D01*
X130663553Y-73580829D01*
X130625620Y-73556435D01*
X130591612Y-73534961D01*
X130577713Y-73526321D01*
X130465431Y-73458500D01*
X130348750Y-73391268D01*
X130230708Y-73326266D01*
X130114347Y-73265135D01*
X130002705Y-73209515D01*
X129898822Y-73161046D01*
X129892048Y-73158015D01*
X129869338Y-73147917D01*
X129847025Y-73138133D01*
X129823632Y-73128047D01*
X129797680Y-73117045D01*
X129767690Y-73104511D01*
X129732183Y-73089829D01*
X129689683Y-73072384D01*
X129638709Y-73051562D01*
X129577783Y-73026746D01*
X129505428Y-72997322D01*
X129477140Y-72985750D01*
X129441516Y-72970958D01*
X129411194Y-72958120D01*
X129388715Y-72948315D01*
X129376618Y-72942622D01*
X129368878Y-72938200D01*
X129366263Y-72934775D01*
X129374113Y-72933335D01*
X129394158Y-72932926D01*
X129395094Y-72932923D01*
X129411302Y-72933297D01*
X129439354Y-72934331D01*
X129477385Y-72935930D01*
X129523527Y-72938003D01*
X129575916Y-72940454D01*
X129632686Y-72943193D01*
X129691971Y-72946124D01*
X129751905Y-72949155D01*
X129810623Y-72952193D01*
X129866259Y-72955145D01*
X129916948Y-72957917D01*
X129960823Y-72960416D01*
X129996018Y-72962549D01*
X130020669Y-72964223D01*
X130240350Y-72983321D01*
X130551117Y-73018916D01*
X130866175Y-73064971D01*
X131186542Y-73121655D01*
X131513236Y-73189136D01*
X131847274Y-73267584D01*
X131885279Y-73276955D01*
X131928011Y-73287302D01*
X131964583Y-73295949D01*
X131993161Y-73302468D01*
X132011907Y-73306434D01*
X132018987Y-73307422D01*
X132016426Y-73303917D01*
X132003603Y-73293400D01*
X131981207Y-73276800D01*
X131950430Y-73254914D01*
X131912462Y-73228537D01*
X131868494Y-73198467D01*
X131819718Y-73165499D01*
X131767323Y-73130431D01*
X131712502Y-73094057D01*
X131656444Y-73057175D01*
X131600340Y-73020582D01*
X131545382Y-72985072D01*
X131492760Y-72951443D01*
X131443665Y-72920491D01*
X131399288Y-72893013D01*
X131224670Y-72788407D01*
X131039597Y-72682936D01*
X130859424Y-72586144D01*
X130682127Y-72496912D01*
X130657255Y-72484857D01*
X130613534Y-72463896D01*
X130571557Y-72444156D01*
X130530186Y-72425174D01*
X130488281Y-72406485D01*
X130444701Y-72387627D01*
X130398308Y-72368136D01*
X130347962Y-72347548D01*
X130292522Y-72325401D01*
X130230850Y-72301231D01*
X130161805Y-72274574D01*
X130084248Y-72244967D01*
X129997040Y-72211947D01*
X129899040Y-72175051D01*
X129789109Y-72133815D01*
X129771778Y-72127298D01*
X129732415Y-72112307D01*
X129698749Y-72099219D01*
X129672622Y-72088767D01*
X129655874Y-72081680D01*
X129650347Y-72078691D01*
X129656183Y-72078971D01*
X129674486Y-72080778D01*
X129703807Y-72083988D01*
X129742674Y-72088422D01*
X129789614Y-72093902D01*
X129843156Y-72100249D01*
X129901828Y-72107286D01*
X129964158Y-72114833D01*
X130028674Y-72122713D01*
X130093904Y-72130747D01*
X130158377Y-72138758D01*
X130220619Y-72146565D01*
X130279160Y-72153993D01*
X130332528Y-72160861D01*
X130379249Y-72166992D01*
X130479138Y-72180334D01*
X130568575Y-72192422D01*
X130646306Y-72203084D01*
X130711801Y-72212248D01*
X130764534Y-72219841D01*
X130803975Y-72225789D01*
X130817970Y-72227968D01*
X130853739Y-72233486D01*
X130896900Y-72240098D01*
X130943226Y-72247157D01*
X130988487Y-72254018D01*
X131019204Y-72258684D01*
X131136447Y-72276898D01*
X131263463Y-72297198D01*
X131397220Y-72319091D01*
X131534685Y-72342080D01*
X131672824Y-72365672D01*
X131707425Y-72371601D01*
X131759279Y-72380316D01*
X131805783Y-72387927D01*
X131845262Y-72394170D01*
X131876046Y-72398783D01*
X131896461Y-72401504D01*
X131904835Y-72402070D01*
X131904841Y-72402068D01*
X131901989Y-72397230D01*
X131888876Y-72385040D01*
X131866541Y-72366284D01*
X131836020Y-72341745D01*
X131798349Y-72312210D01*
X131754568Y-72278463D01*
X131705712Y-72241288D01*
X131652819Y-72201471D01*
X131596927Y-72159797D01*
X131539072Y-72117050D01*
X131480292Y-72074015D01*
X131421624Y-72031478D01*
X131364105Y-71990222D01*
X131308772Y-71951034D01*
X131287710Y-71936255D01*
X131082299Y-71795412D01*
X130879171Y-71662050D01*
X130679532Y-71536907D01*
X130484587Y-71420723D01*
X130295541Y-71314235D01*
X130113598Y-71218184D01*
X130029038Y-71175770D01*
X129913374Y-71120132D01*
X129801543Y-71069485D01*
X129690033Y-71022362D01*
X129575333Y-70977294D01*
X129453930Y-70932814D01*
X129322313Y-70887453D01*
X129304336Y-70881400D01*
X129256528Y-70865103D01*
X129214024Y-70850331D01*
X129178407Y-70837651D01*
X129151261Y-70827634D01*
X129134170Y-70820849D01*
X129128718Y-70817864D01*
X129132176Y-70816820D01*
X129148373Y-70813909D01*
X129176927Y-70809559D01*
X129216938Y-70803891D01*
X129267504Y-70797027D01*
X129327724Y-70789088D01*
X129396698Y-70780197D01*
X129473524Y-70770474D01*
X129557302Y-70760041D01*
X129585152Y-70756526D01*
X129620046Y-70751888D01*
X129648160Y-70747875D01*
X129667144Y-70744825D01*
X129674648Y-70743078D01*
X129674769Y-70742863D01*
X129669296Y-70737922D01*
X129652948Y-70728447D01*
X129627476Y-70715291D01*
X129594631Y-70699309D01*
X129556163Y-70681356D01*
X129513825Y-70662284D01*
X129469367Y-70642949D01*
X129291782Y-70572822D01*
X129088691Y-70506113D01*
X128880718Y-70451854D01*
X128667028Y-70409828D01*
X128446784Y-70379821D01*
X128410279Y-70376430D01*
X128343443Y-70372144D01*
X128268480Y-70369206D01*
X128188531Y-70367615D01*
X128106737Y-70367371D01*
X128026239Y-70368474D01*
X127950178Y-70370924D01*
X127881695Y-70374721D01*
X127823931Y-70379863D01*
X127751639Y-70388842D01*
X127592178Y-70414909D01*
X127442409Y-70448716D01*
X127300736Y-70490714D01*
X127165561Y-70541348D01*
X127035287Y-70601068D01*
X127004252Y-70617103D01*
X126957235Y-70642969D01*
X126911971Y-70669580D01*
X126871172Y-70695268D01*
X126837549Y-70718366D01*
X126813817Y-70737207D01*
X126804828Y-70745132D01*
X126791501Y-70756011D01*
X126784723Y-70760279D01*
X126784140Y-70759854D01*
X126779784Y-70750807D01*
X126773029Y-70732401D01*
X126765073Y-70707830D01*
X126764202Y-70705013D01*
X126754479Y-70677197D01*
X126746483Y-70662138D01*
X126739744Y-70658925D01*
X126729353Y-70664260D01*
X126709036Y-70676926D01*
X126683383Y-70694267D01*
X126655501Y-70714115D01*
X126628497Y-70734299D01*
X126605481Y-70752650D01*
X126587779Y-70767764D01*
X126497615Y-70855367D01*
X126416129Y-70952946D01*
X126343837Y-71059341D01*
X126281252Y-71173395D01*
X126228892Y-71293947D01*
X126187270Y-71419838D01*
X126156903Y-71549910D01*
X126138304Y-71683003D01*
X126131990Y-71817958D01*
X125966543Y-71817958D01*
X125966061Y-71805137D01*
X125967470Y-71717201D01*
X125975963Y-71622645D01*
X125990931Y-71525581D01*
X126011767Y-71430118D01*
X126037861Y-71340366D01*
X126063335Y-71269469D01*
X126119751Y-71140006D01*
X126186434Y-71016939D01*
X126262595Y-70901226D01*
X126347448Y-70793823D01*
X126440203Y-70695684D01*
X126540074Y-70607767D01*
X126646273Y-70531027D01*
X126758011Y-70466421D01*
X126778956Y-70455868D01*
X126803064Y-70444065D01*
X126820376Y-70436010D01*
X126828107Y-70433031D01*
X126831200Y-70436661D01*
X126837429Y-70450414D01*
X126844621Y-70470905D01*
X126856560Y-70508779D01*
X126961050Y-70457608D01*
X127045449Y-70417942D01*
X127169113Y-70366254D01*
X127292701Y-70322732D01*
X127418394Y-70286845D01*
X127548370Y-70258067D01*
X127684808Y-70235868D01*
X127829887Y-70219720D01*
X127985786Y-70209095D01*
X128093688Y-70205499D01*
X128303953Y-70208676D01*
X128513608Y-70225394D01*
X128722876Y-70255705D01*
X128931978Y-70299657D01*
X129141138Y-70357302D01*
X129350577Y-70428689D01*
X129560517Y-70513869D01*
X129771181Y-70612892D01*
X129797936Y-70626561D01*
X129841942Y-70649887D01*
X129887767Y-70675047D01*
X129933847Y-70701100D01*
X129978620Y-70727110D01*
X130020521Y-70752135D01*
X130057987Y-70775239D01*
X130089454Y-70795482D01*
X130113359Y-70811925D01*
X130128137Y-70823630D01*
X130132226Y-70829658D01*
X130125523Y-70832725D01*
X130108453Y-70836457D01*
X130085230Y-70839653D01*
X130059191Y-70842600D01*
X130024934Y-70846797D01*
X129985903Y-70851806D01*
X129944419Y-70857304D01*
X129902808Y-70862972D01*
X129863393Y-70868488D01*
X129828497Y-70873531D01*
X129800445Y-70877781D01*
X129781559Y-70880916D01*
X129774164Y-70882616D01*
X129774396Y-70883762D01*
X129782542Y-70889180D01*
X129798534Y-70896558D01*
X129849459Y-70918182D01*
X129915376Y-70947714D01*
X129988415Y-70981735D01*
X130065958Y-71018970D01*
X130145387Y-71058144D01*
X130224083Y-71097978D01*
X130299428Y-71137198D01*
X130368805Y-71174527D01*
X130554926Y-71279627D01*
X130799415Y-71426298D01*
X131047832Y-71584808D01*
X131299351Y-71754594D01*
X131553142Y-71935093D01*
X131808376Y-72125743D01*
X132064227Y-72325981D01*
X132105550Y-72359203D01*
X132153741Y-72398255D01*
X132202386Y-72437964D01*
X132250231Y-72477283D01*
X132296021Y-72515167D01*
X132338504Y-72550571D01*
X132376425Y-72582450D01*
X132408530Y-72609758D01*
X132433565Y-72631449D01*
X132450277Y-72646479D01*
X132457412Y-72653801D01*
X132455364Y-72654673D01*
X132442698Y-72653822D01*
X132420967Y-72650719D01*
X132392898Y-72645709D01*
X132369268Y-72641176D01*
X132305302Y-72629122D01*
X132233974Y-72615943D01*
X132156289Y-72601808D01*
X132073249Y-72586887D01*
X131985859Y-72571350D01*
X131895121Y-72555367D01*
X131802038Y-72539107D01*
X131707616Y-72522740D01*
X131612855Y-72506436D01*
X131518761Y-72490365D01*
X131426337Y-72474696D01*
X131336585Y-72459599D01*
X131250509Y-72445243D01*
X131169113Y-72431799D01*
X131093400Y-72419437D01*
X131024374Y-72408325D01*
X130963037Y-72398633D01*
X130910394Y-72390532D01*
X130867447Y-72384191D01*
X130835200Y-72379780D01*
X130814657Y-72377469D01*
X130806820Y-72377426D01*
X130811551Y-72380966D01*
X130826844Y-72389814D01*
X130850837Y-72402913D01*
X130881636Y-72419228D01*
X130917342Y-72437724D01*
X130937897Y-72448325D01*
X131063319Y-72515427D01*
X131196896Y-72590705D01*
X131336883Y-72673042D01*
X131481535Y-72761323D01*
X131629107Y-72854432D01*
X131777855Y-72951255D01*
X131926033Y-73050675D01*
X132071896Y-73151578D01*
X132213699Y-73252847D01*
X132287536Y-73307422D01*
X132349699Y-73353368D01*
G37*
D14*
%TO.C,R68*%
X76842224Y-79477500D02*
X76332776Y-79477500D01*
X76842224Y-80522500D02*
X76332776Y-80522500D01*
%TD*%
M02*
