M48
; DRILL file {KiCad 9.0.7} date 2026-02-23T15:04:19-0700
; FORMAT={-:-/ absolute / metric / decimal}
; #@! TF.CreationDate,2026-02-23T15:04:19-07:00
; #@! TF.GenerationSoftware,Kicad,Pcbnew,9.0.7
; #@! TF.FileFunction,Plated,1,4,PTH
FMAT,2
METRIC
; #@! TA.AperFunction,Plated,PTH,ViaDrill
T1C0.150
; #@! TA.AperFunction,Plated,PTH,ViaDrill
T2C0.300
; #@! TA.AperFunction,Plated,PTH,ComponentDrill
T3C0.800
; #@! TA.AperFunction,Plated,PTH,ComponentDrill
T4C1.000
; #@! TA.AperFunction,Plated,PTH,ComponentDrill
T5C1.040
%
G90
G05
T1
X105.12Y-113.23
X105.51Y-114.08
X105.55Y-143.91
X106.22Y-138.92
X106.36Y-128.13
X106.65Y-116.89
X107.34Y-120.75
X107.5Y-140.68
X107.73Y-117.74
X107.76Y-73.32
X107.95Y-70.26
X107.99Y-112.51
X108.17Y-133.02
X108.78Y-79.35
X109.04Y-80.39
X109.5Y-144.52
X110.1Y-79.12
X110.21Y-115.85
X110.33Y-80.48
X110.74Y-114.74
X110.74Y-116.96
X110.86Y-78.0
X111.09Y-79.0
X111.116Y-74.594
X111.27Y-135.21
X111.39Y-138.01
X111.45Y-115.91
X112.07Y-101.48
X112.13Y-104.3
X112.21Y-97.24
X112.32Y-120.65
X112.53Y-119.46
X112.89Y-94.31
X112.94Y-125.78
X112.97Y-130.42
X113.58Y-70.85
X113.96Y-99.04
X114.34Y-75.72
X114.54Y-96.66
X114.55Y-87.83
X114.56Y-104.24
X114.79Y-81.55
X114.98Y-116.05
X115.22Y-138.31
X115.26Y-71.54
X115.27Y-147.23
X115.66Y-83.34
X115.74Y-75.8
X115.95Y-117.51
X116.24Y-87.84
X116.62Y-106.31
X116.8Y-118.3
X116.83Y-95.43
X117.24Y-102.22
X117.27Y-98.19
X117.34Y-83.36
X117.53Y-116.05
X117.78Y-125.72
X117.83Y-78.55
X117.9Y-96.31
X117.98Y-99.02
X118.2Y-121.28
X118.242Y-145.322
X118.26Y-130.16
X118.26Y-132.71
X118.32Y-117.57
X118.32Y-119.03
X118.56Y-77.68
X118.74Y-144.09
X118.8Y-72.38
X119.08Y-145.33
X119.22Y-78.74
X119.36Y-119.03
X119.66Y-133.99
X119.71Y-94.94
X119.72Y-131.13
X119.79Y-97.13
X119.89Y-105.23
X120.03Y-137.69
X120.18Y-107.18
X120.349Y-105.345
X120.602Y-138.422
X120.61Y-95.32
X121.19Y-98.5
X121.92Y-118.1
X122.28Y-125.0
X122.35Y-105.1
X122.43Y-121.03
X122.835Y-107.83
X122.91Y-93.43
X122.94Y-105.2
X122.97Y-97.65
X123.21Y-94.83
X123.24Y-105.85
X123.91Y-102.94
X124.08Y-89.59
X124.13Y-115.72
X124.49Y-114.14
X124.539Y-100.579
X124.892Y-117.795
X124.94Y-64.13
X125.62Y-101.15
X125.62Y-103.05
X125.68Y-106.5
X126.05Y-110.91
X126.51Y-128.66
X126.62Y-121.36
X126.83Y-108.46
X126.89Y-132.17
X126.942Y-133.265
X127.04Y-100.11
X127.1Y-86.73
X127.16Y-70.21
X127.347Y-134.351
X127.53Y-134.74
X127.65Y-98.69
X127.81Y-135.13
X128.18Y-130.72
X128.24Y-133.33
X128.31Y-125.405
X128.438Y-131.189
X128.44Y-122.44
X128.63Y-142.13
X128.69Y-130.251
X128.73Y-133.71
X129.15Y-101.97
X129.53Y-126.34
X129.56Y-104.52
X129.59Y-119.25
X129.65Y-117.68
X129.78Y-100.63
X129.785Y-119.77
X130.26Y-95.1
X130.3Y-100.3
X130.55Y-64.72
X130.55Y-140.14
X130.66Y-95.37
X131.09Y-138.09
X131.15Y-102.63
X131.22Y-143.66
X131.81Y-99.78
X132.01Y-123.99
X132.04Y-119.37
X132.32Y-94.94
X132.44Y-126.87
X132.46Y-139.83
X132.527Y-123.934
X132.67Y-89.11
X133.0Y-118.62
X133.46Y-138.36
X133.865Y-115.611
X133.865Y-124.096
X134.29Y-69.63
X134.343Y-115.659
X134.472Y-124.131
X134.856Y-115.719
X135.102Y-124.188
X135.23Y-96.98
X135.3Y-105.57
X135.46Y-138.55
X135.649Y-124.161
X135.75Y-117.05
X135.96Y-138.59
X136.312Y-130.048
X136.43Y-105.03
X136.55Y-138.52
X137.24Y-131.69
X137.969Y-98.459
X137.969Y-102.14
X138.03Y-120.81
X138.05Y-123.22
X138.12Y-117.64
X138.18Y-138.44
X138.26Y-64.37
X138.26Y-69.63
X139.179Y-97.369
X139.181Y-98.511
X139.21Y-108.62
X139.219Y-115.611
X139.384Y-102.13
X139.585Y-94.82
X139.66Y-102.46
X139.68Y-89.01
X139.88Y-88.33
X139.9Y-100.54
X140.029Y-108.84
X140.03Y-108.19
X140.07Y-91.58
X140.11Y-104.96
X140.24Y-116.65
X140.71Y-126.35
X142.01Y-125.88
X142.22Y-99.9
X142.23Y-107.6
X142.25Y-87.67
X142.25Y-96.72
X142.27Y-96.11
X142.3Y-101.83
X142.52Y-133.02
X142.57Y-105.68
X142.631Y-95.061
X142.64Y-95.56
X142.927Y-133.16
X142.957Y-128.407
X143.12Y-96.77
X143.15Y-129.36
X143.28Y-109.26
X143.332Y-133.359
X143.389Y-128.549
X143.52Y-134.725
X143.524Y-133.917
X143.65Y-126.38
X143.787Y-97.407
X143.83Y-100.05
X144.1Y-68.46
X144.126Y-133.136
X144.29Y-130.17
X144.375Y-98.55
X144.43Y-132.832
X144.5Y-106.92
X144.54Y-106.28
X144.56Y-108.82
X145.37Y-89.64
X145.48Y-90.95
X145.511Y-95.11
X145.54Y-91.58
X145.59Y-104.083
X145.75Y-100.56
X145.76Y-115.43
X147.25Y-144.26
X147.84Y-71.26
X147.99Y-94.74
X148.04Y-88.33
X148.07Y-96.73
X148.08Y-103.1
X148.085Y-101.79
X148.16Y-131.58
X148.18Y-93.5
X148.19Y-101.14
X148.36Y-89.01
X148.39Y-99.11
X148.82Y-132.54
X149.27Y-130.0
X149.32Y-134.56
X149.33Y-131.12
X149.33Y-133.05
X149.58Y-102.57
X149.62Y-95.145
X149.78Y-108.32
X150.01Y-113.6
X150.05Y-105.182
X150.18Y-101.26
X150.24Y-90.29
X150.29Y-115.89
X150.53Y-64.48
X150.55Y-128.77
X150.64Y-121.37
X150.74Y-97.135
X150.75Y-107.64
X150.78Y-88.13
X151.12Y-92.21
X151.14Y-127.12
X151.2Y-110.398
X151.38Y-106.7
X151.46Y-128.02
X151.73Y-95.49
X151.88Y-108.76
X152.02Y-107.91
X152.41Y-95.42
X152.68Y-102.24
X152.77Y-123.29
X153.39Y-103.75
X153.49Y-89.08
X153.52Y-126.46
X153.69Y-112.76
X154.22Y-125.46
X154.37Y-133.11
X154.38Y-118.76
X154.56Y-88.48
X154.73Y-95.44
X154.91Y-102.69
X155.29Y-133.08
X155.785Y-96.325
X156.007Y-89.607
X156.19Y-101.11
X156.63Y-104.8
X156.634Y-97.713
X156.95Y-69.74
X157.07Y-64.48
X157.09Y-103.81
X157.27Y-93.69
X157.27Y-99.77
X157.43Y-114.5
X157.92Y-123.44
X159.28Y-126.79
X159.66Y-91.45
X159.69Y-102.975
X159.69Y-111.63
X159.98Y-95.1
X160.14Y-97.416
X160.71Y-101.79
X161.02Y-117.8
X161.16Y-71.73
X161.3Y-102.89
X161.61Y-124.98
X162.04Y-108.56
X162.06Y-107.3
X162.36Y-104.12
X162.48Y-111.98
X162.94Y-108.69
X162.96Y-106.8
X163.41Y-110.54
X163.498Y-135.092
X163.55Y-96.32
X163.6Y-115.23
X163.71Y-92.9
X163.82Y-135.986
X164.17Y-109.28
X164.23Y-114.14
X164.54Y-111.15
X164.67Y-134.745
X164.9Y-64.48
X165.154Y-132.546
X165.33Y-134.245
X165.392Y-132.951
X165.6Y-109.13
X165.72Y-128.62
X165.75Y-111.07
X165.855Y-93.05
X165.88Y-128.2
X165.95Y-108.33
X166.14Y-122.47
X166.666Y-93.05
X166.73Y-88.83
X166.83Y-108.66
X167.32Y-124.66
X167.33Y-84.29
X167.384Y-132.069
X167.46Y-110.0
X167.51Y-111.23
X167.65Y-129.149
X167.671Y-131.209
X167.71Y-126.39
X167.75Y-123.48
X167.89Y-109.72
X168.48Y-113.85
X168.49Y-120.4
X168.87Y-96.19
X169.03Y-119.17
X169.44Y-104.23
X169.44Y-114.29
X169.55Y-83.5
X169.62Y-125.84
X170.07Y-125.89
X170.07Y-138.22
X170.29Y-128.66
X170.49Y-85.15
X171.16Y-88.42
X171.16Y-99.91
X171.2Y-91.65
X171.221Y-118.89
X171.626Y-121.944
X172.217Y-121.963
X172.53Y-138.9
X172.84Y-122.34
X172.979Y-83.069
X173.15Y-130.65
X173.471Y-122.399
X173.56Y-89.28
X173.77Y-110.54
X173.877Y-129.163
X174.34Y-123.54
X174.71Y-65.07
X174.773Y-138.557
X174.84Y-123.792
X175.18Y-139.31
X175.25Y-86.71
X175.34Y-124.183
X175.84Y-124.52
X176.051Y-138.689
X176.28Y-90.82
X176.636Y-138.702
X176.76Y-132.17
X176.81Y-89.28
X177.67Y-114.79
X177.76Y-138.61
X178.23Y-109.15
X178.3Y-110.67
X179.08Y-128.58
X179.4Y-118.96
X179.445Y-127.04
X179.515Y-70.48
X179.85Y-77.35
X181.51Y-135.65
X181.66Y-145.49
X181.76Y-131.61
X181.85Y-127.22
X181.861Y-135.401
X181.89Y-128.38
X182.07Y-131.19
X182.18Y-135.113
X182.311Y-128.466
X182.34Y-134.7
X183.36Y-84.41
X183.37Y-66.96
X183.4Y-79.21
X183.43Y-74.61
X183.48Y-70.48
X184.25Y-127.23
X184.37Y-80.14
X184.64Y-84.52
X184.67Y-71.48
X184.67Y-76.66
X184.99Y-130.46
X185.89Y-69.54
X185.89Y-76.61
X187.18Y-71.92
X187.19Y-84.43
X187.31Y-80.82
T2
X100.21Y-67.15
X100.21Y-68.15
X100.21Y-69.15
X100.21Y-70.15
X100.21Y-71.15
X100.21Y-72.15
X100.21Y-73.15
X100.21Y-74.15
X100.21Y-75.15
X100.21Y-76.15
X100.21Y-77.15
X100.21Y-78.15
X100.21Y-79.15
X100.21Y-80.15
X100.21Y-81.15
X100.21Y-82.15
X100.21Y-83.15
X100.21Y-84.15
X100.21Y-85.15
X100.21Y-86.15
X100.21Y-87.15
X100.21Y-88.15
X100.21Y-89.15
X100.21Y-90.15
X100.21Y-91.15
X100.21Y-92.15
X100.21Y-93.15
X100.21Y-94.15
X100.21Y-95.15
X100.21Y-96.15
X100.21Y-97.15
X100.21Y-98.15
X100.21Y-99.15
X100.21Y-100.15
X100.21Y-101.15
X100.21Y-102.15
X100.21Y-103.15
X100.21Y-104.15
X100.21Y-105.15
X100.21Y-106.15
X100.21Y-107.15
X100.21Y-108.15
X100.21Y-109.15
X100.21Y-110.15
X100.21Y-111.15
X100.21Y-112.15
X100.21Y-113.15
X100.21Y-114.15
X100.21Y-115.15
X100.21Y-116.15
X100.21Y-117.15
X100.21Y-118.15
X100.21Y-119.15
X100.21Y-120.15
X100.21Y-121.15
X100.21Y-122.15
X100.21Y-123.15
X100.21Y-124.15
X100.21Y-125.15
X100.21Y-126.15
X100.21Y-127.15
X100.21Y-128.15
X100.21Y-129.15
X100.21Y-130.15
X100.21Y-131.15
X100.21Y-132.15
X100.21Y-133.15
X100.21Y-134.15
X100.21Y-135.15
X100.21Y-136.15
X100.21Y-137.15
X100.21Y-138.15
X100.21Y-139.15
X100.21Y-140.15
X100.21Y-141.15
X100.21Y-142.15
X100.21Y-143.15
X101.21Y-67.15
X101.21Y-68.15
X101.21Y-69.15
X101.21Y-70.15
X101.21Y-71.15
X101.21Y-72.15
X101.21Y-73.15
X101.21Y-74.15
X101.21Y-75.15
X101.21Y-76.15
X101.21Y-77.15
X101.21Y-78.15
X101.21Y-79.15
X101.21Y-80.15
X101.21Y-81.15
X101.21Y-82.15
X101.21Y-83.15
X101.21Y-84.15
X101.21Y-85.15
X101.21Y-86.15
X101.21Y-87.15
X101.21Y-88.15
X101.21Y-89.15
X101.21Y-90.15
X101.21Y-91.15
X101.21Y-92.15
X101.21Y-93.15
X101.21Y-94.15
X101.21Y-95.15
X101.21Y-96.15
X101.21Y-97.15
X101.21Y-98.15
X101.21Y-99.15
X101.21Y-100.15
X101.21Y-101.15
X101.21Y-102.15
X101.21Y-103.15
X101.21Y-104.15
X101.21Y-105.15
X101.21Y-106.15
X101.21Y-107.15
X101.21Y-108.15
X101.21Y-109.15
X101.21Y-110.15
X101.21Y-111.15
X101.21Y-112.15
X101.21Y-113.15
X101.21Y-114.15
X101.21Y-115.15
X101.21Y-116.15
X101.21Y-117.15
X101.21Y-118.15
X101.21Y-119.15
X101.21Y-120.15
X101.21Y-121.15
X101.21Y-122.15
X101.21Y-123.15
X101.21Y-124.15
X101.21Y-125.15
X101.21Y-126.15
X101.21Y-127.15
X101.21Y-128.15
X101.21Y-129.15
X101.21Y-130.15
X101.21Y-131.15
X101.21Y-132.15
X101.21Y-133.15
X101.21Y-134.15
X101.21Y-135.15
X101.21Y-136.15
X101.21Y-137.15
X101.21Y-138.15
X101.21Y-139.15
X101.21Y-140.15
X101.21Y-141.15
X101.21Y-142.15
X101.21Y-143.15
X102.21Y-67.15
X102.21Y-68.15
X102.21Y-69.15
X102.21Y-70.15
X102.21Y-71.15
X102.21Y-72.15
X102.21Y-73.15
X102.21Y-74.15
X102.21Y-75.15
X102.21Y-76.15
X102.21Y-77.15
X102.21Y-78.15
X102.21Y-79.15
X102.21Y-80.15
X102.21Y-81.15
X102.21Y-82.15
X102.21Y-83.15
X102.21Y-84.15
X102.21Y-85.15
X102.21Y-86.15
X102.21Y-87.15
X102.21Y-88.15
X102.21Y-89.15
X102.21Y-90.15
X102.21Y-91.15
X102.21Y-92.15
X102.21Y-93.15
X102.21Y-94.15
X102.21Y-95.15
X102.21Y-96.15
X102.21Y-97.15
X102.21Y-98.15
X102.21Y-99.15
X102.21Y-100.15
X102.21Y-101.15
X102.21Y-102.15
X102.21Y-103.15
X102.21Y-104.15
X102.21Y-105.15
X102.21Y-106.15
X102.21Y-107.15
X102.21Y-108.15
X102.21Y-109.15
X102.21Y-110.15
X102.21Y-111.15
X102.21Y-112.15
X102.21Y-113.15
X102.21Y-114.15
X102.21Y-115.15
X102.21Y-116.15
X102.21Y-117.15
X102.21Y-118.15
X102.21Y-119.15
X102.21Y-120.15
X102.21Y-121.15
X102.21Y-122.15
X102.21Y-123.15
X102.21Y-124.15
X102.21Y-125.15
X102.21Y-126.15
X102.21Y-127.15
X102.21Y-128.15
X102.21Y-129.15
X102.21Y-130.15
X102.21Y-131.15
X102.21Y-132.15
X102.21Y-133.15
X102.21Y-134.15
X102.21Y-135.15
X102.21Y-136.15
X102.21Y-137.15
X102.21Y-138.15
X102.21Y-139.15
X102.21Y-140.15
X102.21Y-141.15
X102.21Y-142.15
X102.21Y-143.15
X123.07Y-87.0
X126.17Y-89.11
X131.36Y-133.65
X131.4Y-128.5
X132.051Y-128.979
X132.21Y-132.976
X132.86Y-127.4
X133.094Y-135.864
X134.06Y-132.45
X134.14Y-135.815
X134.96Y-129.55
X136.61Y-127.65
X137.56Y-132.35
X138.06Y-130.15
X138.17Y-127.665
X138.36Y-135.9
X139.56Y-130.25
X139.61Y-132.15
X139.61Y-135.9
X140.099Y-128.45
X140.11Y-127.65
X143.009Y-127.48
X156.466Y-91.441
X164.83Y-91.14
X164.87Y-97.24
X164.88Y-103.38
X170.36Y-133.65
X171.11Y-127.65
X171.21Y-132.9
X171.86Y-135.9
X173.14Y-135.815
X175.36Y-128.15
X177.36Y-135.9
X177.378Y-135.1
X177.58Y-76.36
X178.61Y-135.9
X179.11Y-127.65
X191.51Y-67.1
X191.51Y-68.1
X191.51Y-69.1
X191.51Y-70.1
X191.51Y-71.1
X191.51Y-72.1
X191.51Y-73.1
X191.51Y-74.1
X191.51Y-75.1
X191.51Y-76.1
X191.51Y-77.1
X191.51Y-78.1
X191.51Y-79.1
X191.51Y-80.1
X191.51Y-81.1
X191.51Y-82.1
X191.51Y-83.1
X191.51Y-84.1
X191.51Y-85.1
X191.51Y-86.1
X191.51Y-87.1
X191.51Y-88.1
X191.51Y-89.1
X191.51Y-90.1
X191.51Y-91.1
X191.51Y-92.1
X191.51Y-93.1
X191.51Y-94.1
X191.51Y-95.1
X191.51Y-96.1
X191.51Y-97.1
X191.51Y-98.1
X191.51Y-99.1
X191.51Y-100.1
X191.51Y-101.1
X191.51Y-102.1
X191.51Y-103.1
X191.51Y-104.1
X191.51Y-105.1
X191.51Y-106.1
X191.51Y-107.1
X191.51Y-108.1
X191.51Y-109.1
X191.51Y-110.1
X191.51Y-111.1
X191.51Y-112.1
X191.51Y-113.1
X191.51Y-114.1
X191.51Y-115.1
X191.51Y-116.1
X191.51Y-117.1
X191.51Y-118.1
X191.51Y-119.1
X191.51Y-120.1
X191.51Y-121.1
X191.51Y-122.1
X191.51Y-123.1
X191.51Y-124.1
X191.51Y-125.1
X191.51Y-126.1
X191.51Y-127.1
X191.51Y-128.1
X191.51Y-129.1
X191.51Y-130.1
X191.51Y-131.1
X191.51Y-132.1
X191.51Y-133.1
X191.51Y-134.1
X191.51Y-135.1
X191.51Y-136.1
X191.51Y-137.1
X191.51Y-138.1
X191.51Y-139.1
X191.51Y-140.1
X191.51Y-141.1
X191.51Y-142.1
X191.51Y-143.1
X192.51Y-67.1
X192.51Y-68.1
X192.51Y-69.1
X192.51Y-70.1
X192.51Y-71.1
X192.51Y-72.1
X192.51Y-73.1
X192.51Y-74.1
X192.51Y-75.1
X192.51Y-76.1
X192.51Y-77.1
X192.51Y-78.1
X192.51Y-79.1
X192.51Y-80.1
X192.51Y-81.1
X192.51Y-82.1
X192.51Y-83.1
X192.51Y-84.1
X192.51Y-85.1
X192.51Y-86.1
X192.51Y-87.1
X192.51Y-88.1
X192.51Y-89.1
X192.51Y-90.1
X192.51Y-91.1
X192.51Y-92.1
X192.51Y-93.1
X192.51Y-94.1
X192.51Y-95.1
X192.51Y-96.1
X192.51Y-97.1
X192.51Y-98.1
X192.51Y-99.1
X192.51Y-100.1
X192.51Y-101.1
X192.51Y-102.1
X192.51Y-103.1
X192.51Y-104.1
X192.51Y-105.1
X192.51Y-106.1
X192.51Y-107.1
X192.51Y-108.1
X192.51Y-109.1
X192.51Y-110.1
X192.51Y-111.1
X192.51Y-112.1
X192.51Y-113.1
X192.51Y-114.1
X192.51Y-115.1
X192.51Y-116.1
X192.51Y-117.1
X192.51Y-118.1
X192.51Y-119.1
X192.51Y-120.1
X192.51Y-121.1
X192.51Y-122.1
X192.51Y-123.1
X192.51Y-124.1
X192.51Y-125.1
X192.51Y-126.1
X192.51Y-127.1
X192.51Y-128.1
X192.51Y-129.1
X192.51Y-130.1
X192.51Y-131.1
X192.51Y-132.1
X192.51Y-133.1
X192.51Y-134.1
X192.51Y-135.1
X192.51Y-136.1
X192.51Y-137.1
X192.51Y-138.1
X192.51Y-139.1
X192.51Y-140.1
X192.51Y-141.1
X192.51Y-142.1
X192.51Y-143.1
X193.51Y-67.1
X193.51Y-68.1
X193.51Y-69.1
X193.51Y-70.1
X193.51Y-71.1
X193.51Y-72.1
X193.51Y-73.1
X193.51Y-74.1
X193.51Y-75.1
X193.51Y-76.1
X193.51Y-77.1
X193.51Y-78.1
X193.51Y-79.1
X193.51Y-80.1
X193.51Y-81.1
X193.51Y-82.1
X193.51Y-83.1
X193.51Y-84.1
X193.51Y-85.1
X193.51Y-86.1
X193.51Y-87.1
X193.51Y-88.1
X193.51Y-89.1
X193.51Y-90.1
X193.51Y-91.1
X193.51Y-92.1
X193.51Y-93.1
X193.51Y-94.1
X193.51Y-95.1
X193.51Y-96.1
X193.51Y-97.1
X193.51Y-98.1
X193.51Y-99.1
X193.51Y-100.1
X193.51Y-101.1
X193.51Y-102.1
X193.51Y-103.1
X193.51Y-104.1
X193.51Y-105.1
X193.51Y-106.1
X193.51Y-107.1
X193.51Y-108.1
X193.51Y-109.1
X193.51Y-110.1
X193.51Y-111.1
X193.51Y-112.1
X193.51Y-113.1
X193.51Y-114.1
X193.51Y-115.1
X193.51Y-116.1
X193.51Y-117.1
X193.51Y-118.1
X193.51Y-119.1
X193.51Y-120.1
X193.51Y-121.1
X193.51Y-122.1
X193.51Y-123.1
X193.51Y-124.1
X193.51Y-125.1
X193.51Y-126.1
X193.51Y-127.1
X193.51Y-128.1
X193.51Y-129.1
X193.51Y-130.1
X193.51Y-131.1
X193.51Y-132.1
X193.51Y-133.1
X193.51Y-134.1
X193.51Y-135.1
X193.51Y-136.1
X193.51Y-137.1
X193.51Y-138.1
X193.51Y-139.1
X193.51Y-140.1
X193.51Y-141.1
X193.51Y-142.1
X193.51Y-143.1
T3
X120.415Y-121.065
X120.415Y-123.605
X151.522Y-131.774
X151.522Y-134.314
T4
X105.67Y-86.85
X105.67Y-89.39
X105.67Y-91.93
X105.67Y-94.47
X105.67Y-97.01
X105.67Y-99.55
X105.67Y-102.09
X105.67Y-104.63
X105.67Y-107.17
X105.67Y-109.71
X108.21Y-86.85
X108.21Y-89.39
X108.21Y-91.93
X108.21Y-94.47
X108.21Y-97.01
X108.21Y-99.55
X108.21Y-102.09
X108.21Y-104.63
X108.21Y-107.17
X108.21Y-109.71
X121.047Y-145.55
X123.587Y-145.55
X134.8Y-81.66
X134.8Y-84.2
X137.34Y-81.66
X137.34Y-84.2
X139.88Y-81.66
X139.88Y-84.2
X142.17Y-139.85
X142.17Y-142.39
X142.42Y-81.66
X142.42Y-84.2
X143.56Y-113.87
X143.56Y-116.41
X143.56Y-118.95
X143.56Y-121.49
X143.56Y-124.03
X144.71Y-139.85
X144.71Y-142.39
X144.96Y-81.66
X144.96Y-84.2
X147.25Y-139.85
X147.25Y-142.39
X147.5Y-81.66
X147.5Y-84.2
X149.79Y-139.85
X149.79Y-142.39
X150.04Y-81.66
X150.04Y-84.2
X152.33Y-139.85
X152.33Y-142.39
X152.58Y-81.66
X152.58Y-84.2
X154.87Y-139.85
X154.87Y-142.39
X155.12Y-81.66
X155.12Y-84.2
X157.41Y-139.85
X157.41Y-142.39
X157.66Y-81.66
X157.66Y-84.2
X159.95Y-139.85
X159.95Y-142.39
X162.49Y-139.85
X162.49Y-142.39
X165.03Y-139.85
X165.03Y-142.39
X170.82Y-145.65
X173.36Y-145.65
X182.16Y-114.73
X182.16Y-117.27
X182.16Y-119.81
X182.16Y-122.35
X182.16Y-124.89
X184.38Y-86.85
X184.38Y-89.39
X184.38Y-91.93
X184.38Y-94.47
X184.38Y-97.01
X184.38Y-99.55
X184.38Y-102.09
X184.38Y-104.63
X184.38Y-107.17
X184.38Y-109.71
X186.92Y-86.85
X186.92Y-89.39
X186.92Y-91.93
X186.92Y-94.47
X186.92Y-97.01
X186.92Y-99.55
X186.92Y-102.09
X186.92Y-104.63
X186.92Y-107.17
X186.92Y-109.71
T5
X122.729Y-75.84
X122.729Y-78.38
X125.269Y-75.84
X125.269Y-78.38
X127.809Y-75.84
X127.809Y-78.38
X130.35Y-75.84
X130.35Y-78.38
X132.889Y-75.84
X132.889Y-78.38
X135.429Y-75.84
X135.429Y-78.38
X137.969Y-75.84
X137.969Y-78.38
X140.51Y-75.84
X140.51Y-78.38
X143.049Y-75.84
X143.049Y-78.38
X145.589Y-75.84
X145.589Y-78.38
X148.13Y-75.84
X148.13Y-78.38
X150.669Y-75.84
X150.669Y-78.38
X153.209Y-75.84
X153.209Y-78.38
X155.749Y-75.84
X155.749Y-78.38
X158.29Y-75.84
X158.29Y-78.38
X160.829Y-75.84
X160.829Y-78.38
X163.369Y-75.84
X163.369Y-78.38
X165.909Y-75.84
X165.909Y-78.38
X168.45Y-75.84
X168.45Y-78.38
X170.989Y-75.84
X170.989Y-78.38
M30
