%TF.GenerationSoftware,KiCad,Pcbnew,9.0.7*%
%TF.CreationDate,2026-02-23T15:04:11-07:00*%
%TF.ProjectId,Solar_Conglomerator,536f6c61-725f-4436-9f6e-676c6f6d6572,v0.1*%
%TF.SameCoordinates,Original*%
%TF.FileFunction,Soldermask,Top*%
%TF.FilePolarity,Negative*%
%FSLAX46Y46*%
G04 Gerber Fmt 4.6, Leading zero omitted, Abs format (unit mm)*
G04 Created by KiCad (PCBNEW 9.0.7) date 2026-02-23 15:04:11*
%MOMM*%
%LPD*%
G01*
G04 APERTURE LIST*
G04 Aperture macros list*
%AMRoundRect*
0 Rectangle with rounded corners*
0 $1 Rounding radius*
0 $2 $3 $4 $5 $6 $7 $8 $9 X,Y pos of 4 corners*
0 Add a 4 corners polygon primitive as box body*
4,1,4,$2,$3,$4,$5,$6,$7,$8,$9,$2,$3,0*
0 Add four circle primitives for the rounded corners*
1,1,$1+$1,$2,$3*
1,1,$1+$1,$4,$5*
1,1,$1+$1,$6,$7*
1,1,$1+$1,$8,$9*
0 Add four rect primitives between the rounded corners*
20,1,$1+$1,$2,$3,$4,$5,0*
20,1,$1+$1,$4,$5,$6,$7,0*
20,1,$1+$1,$6,$7,$8,$9,0*
20,1,$1+$1,$8,$9,$2,$3,0*%
G04 Aperture macros list end*
%ADD10C,0.000000*%
%ADD11R,1.473200X0.533400*%
%ADD12R,1.475000X0.450000*%
%ADD13C,1.400000*%
%ADD14RoundRect,0.150000X0.587500X0.150000X-0.587500X0.150000X-0.587500X-0.150000X0.587500X-0.150000X0*%
%ADD15RoundRect,0.075000X-0.700000X-0.075000X0.700000X-0.075000X0.700000X0.075000X-0.700000X0.075000X0*%
%ADD16RoundRect,0.075000X-0.075000X-0.700000X0.075000X-0.700000X0.075000X0.700000X-0.075000X0.700000X0*%
%ADD17RoundRect,0.250000X-0.450000X0.350000X-0.450000X-0.350000X0.450000X-0.350000X0.450000X0.350000X0*%
%ADD18R,0.600000X0.350000*%
%ADD19R,1.100000X1.700000*%
%ADD20RoundRect,0.150000X0.150000X-0.825000X0.150000X0.825000X-0.150000X0.825000X-0.150000X-0.825000X0*%
%ADD21R,0.254000X0.812800*%
%ADD22RoundRect,0.250000X-0.350000X-0.450000X0.350000X-0.450000X0.350000X0.450000X-0.350000X0.450000X0*%
%ADD23RoundRect,0.100000X-0.217500X-0.100000X0.217500X-0.100000X0.217500X0.100000X-0.217500X0.100000X0*%
%ADD24R,1.700000X1.700000*%
%ADD25C,1.700000*%
%ADD26RoundRect,0.250000X0.350000X0.450000X-0.350000X0.450000X-0.350000X-0.450000X0.350000X-0.450000X0*%
%ADD27RoundRect,0.150000X-0.587500X-0.150000X0.587500X-0.150000X0.587500X0.150000X-0.587500X0.150000X0*%
%ADD28RoundRect,0.100000X0.217500X0.100000X-0.217500X0.100000X-0.217500X-0.100000X0.217500X-0.100000X0*%
%ADD29RoundRect,0.237500X-0.250000X-0.237500X0.250000X-0.237500X0.250000X0.237500X-0.250000X0.237500X0*%
%ADD30RoundRect,0.237500X-0.300000X-0.237500X0.300000X-0.237500X0.300000X0.237500X-0.300000X0.237500X0*%
%ADD31RoundRect,0.250000X0.650000X-1.000000X0.650000X1.000000X-0.650000X1.000000X-0.650000X-1.000000X0*%
%ADD32RoundRect,0.237500X0.300000X0.237500X-0.300000X0.237500X-0.300000X-0.237500X0.300000X-0.237500X0*%
%ADD33RoundRect,0.250000X-1.000000X-0.650000X1.000000X-0.650000X1.000000X0.650000X-1.000000X0.650000X0*%
%ADD34RoundRect,0.250000X1.000000X0.650000X-1.000000X0.650000X-1.000000X-0.650000X1.000000X-0.650000X0*%
%ADD35RoundRect,0.150000X-0.150000X0.587500X-0.150000X-0.587500X0.150000X-0.587500X0.150000X0.587500X0*%
%ADD36RoundRect,0.237500X-0.237500X0.300000X-0.237500X-0.300000X0.237500X-0.300000X0.237500X0.300000X0*%
%ADD37R,1.000000X1.100000*%
%ADD38R,2.000000X0.700000*%
%ADD39RoundRect,0.102000X0.695000X0.695000X-0.695000X0.695000X-0.695000X-0.695000X0.695000X-0.695000X0*%
%ADD40C,1.594000*%
%ADD41RoundRect,0.237500X0.237500X-0.300000X0.237500X0.300000X-0.237500X0.300000X-0.237500X-0.300000X0*%
%ADD42C,0.600000*%
%ADD43C,0.250000*%
%ADD44C,4.000000*%
G04 APERTURE END LIST*
D10*
%TO.C,U14*%
G36*
X112434600Y-124395999D02*
G01*
X112152000Y-124395999D01*
X112152000Y-122617999D01*
X112434600Y-122617999D01*
X112434600Y-124395999D01*
G37*
G36*
X113222000Y-124395999D02*
G01*
X112834600Y-124395999D01*
X112834600Y-122617999D01*
X113222000Y-122617999D01*
X113222000Y-124395999D01*
G37*
G36*
X114009400Y-124395999D02*
G01*
X113622000Y-124395999D01*
X113622000Y-122617999D01*
X114009400Y-122617999D01*
X114009400Y-124395999D01*
G37*
G36*
X114692000Y-122913299D02*
G01*
X112152000Y-122913299D01*
X112152000Y-122617999D01*
X114692000Y-122617999D01*
X114692000Y-122913299D01*
G37*
G36*
X114692000Y-124395999D02*
G01*
X114409400Y-124395999D01*
X114409400Y-122617999D01*
X114692000Y-122617999D01*
X114692000Y-124395999D01*
G37*
G36*
X114692000Y-123700699D02*
G01*
X112152000Y-123700699D01*
X112152000Y-123313299D01*
X114692000Y-123313299D01*
X114692000Y-123700699D01*
G37*
G36*
X114692000Y-124395999D02*
G01*
X112152000Y-124395999D01*
X112152000Y-124100699D01*
X114692000Y-124100699D01*
X114692000Y-124395999D01*
G37*
%TO.C,U15*%
G36*
X154344600Y-129595000D02*
G01*
X154062000Y-129595000D01*
X154062000Y-127817000D01*
X154344600Y-127817000D01*
X154344600Y-129595000D01*
G37*
G36*
X155132000Y-129595000D02*
G01*
X154744600Y-129595000D01*
X154744600Y-127817000D01*
X155132000Y-127817000D01*
X155132000Y-129595000D01*
G37*
G36*
X155919400Y-129595000D02*
G01*
X155532000Y-129595000D01*
X155532000Y-127817000D01*
X155919400Y-127817000D01*
X155919400Y-129595000D01*
G37*
G36*
X156602000Y-128112300D02*
G01*
X154062000Y-128112300D01*
X154062000Y-127817000D01*
X156602000Y-127817000D01*
X156602000Y-128112300D01*
G37*
G36*
X156602000Y-129595000D02*
G01*
X156319400Y-129595000D01*
X156319400Y-127817000D01*
X156602000Y-127817000D01*
X156602000Y-129595000D01*
G37*
G36*
X156602000Y-128899700D02*
G01*
X154062000Y-128899700D01*
X154062000Y-128512300D01*
X156602000Y-128512300D01*
X156602000Y-128899700D01*
G37*
G36*
X156602000Y-129595000D02*
G01*
X154062000Y-129595000D01*
X154062000Y-129299700D01*
X156602000Y-129299700D01*
X156602000Y-129595000D01*
G37*
%TD*%
D11*
%TO.C,U7*%
X158463500Y-103392500D03*
X158463500Y-104662500D03*
X158463500Y-105932500D03*
X158463500Y-107202500D03*
X165956500Y-107202500D03*
X165956500Y-105932500D03*
X165956500Y-104662500D03*
X165956500Y-103392500D03*
%TD*%
D12*
%TO.C,IC9*%
X146978000Y-109487500D03*
X146978000Y-108837500D03*
X146978000Y-108187500D03*
X146978000Y-107537500D03*
X146978000Y-106887500D03*
X146978000Y-106237500D03*
X146978000Y-105587500D03*
X146978000Y-104937500D03*
X141102000Y-104937500D03*
X141102000Y-105587500D03*
X141102000Y-106237500D03*
X141102000Y-106887500D03*
X141102000Y-107537500D03*
X141102000Y-108187500D03*
X141102000Y-108837500D03*
X141102000Y-109487500D03*
%TD*%
D13*
%TO.C,JP2*%
X151522000Y-131774000D03*
X151522000Y-134314000D03*
%TD*%
D14*
%TO.C,Q53*%
X147665000Y-137160000D03*
X147665000Y-135260000D03*
X145790000Y-136210000D03*
%TD*%
D15*
%TO.C,U4*%
X169010000Y-127650000D03*
X169010000Y-128150000D03*
X169010000Y-128650000D03*
X169010000Y-129150000D03*
X169010000Y-129650000D03*
X169010000Y-130150000D03*
X169010000Y-130650000D03*
X169010000Y-131150000D03*
X169010000Y-131650000D03*
X169010000Y-132150000D03*
X169010000Y-132650000D03*
X169010000Y-133150000D03*
X169010000Y-133650000D03*
X169010000Y-134150000D03*
X169010000Y-134650000D03*
X169010000Y-135150000D03*
D16*
X170935000Y-137075000D03*
X171435000Y-137075000D03*
X171935000Y-137075000D03*
X172435000Y-137075000D03*
X172935000Y-137075000D03*
X173435000Y-137075000D03*
X173935000Y-137075000D03*
X174435000Y-137075000D03*
X174935000Y-137075000D03*
X175435000Y-137075000D03*
X175935000Y-137075000D03*
X176435000Y-137075000D03*
X176935000Y-137075000D03*
X177435000Y-137075000D03*
X177935000Y-137075000D03*
X178435000Y-137075000D03*
D15*
X180360000Y-135150000D03*
X180360000Y-134650000D03*
X180360000Y-134150000D03*
X180360000Y-133650000D03*
X180360000Y-133150000D03*
X180360000Y-132650000D03*
X180360000Y-132150000D03*
X180360000Y-131650000D03*
X180360000Y-131150000D03*
X180360000Y-130650000D03*
X180360000Y-130150000D03*
X180360000Y-129650000D03*
X180360000Y-129150000D03*
X180360000Y-128650000D03*
X180360000Y-128150000D03*
X180360000Y-127650000D03*
D16*
X178435000Y-125725000D03*
X177935000Y-125725000D03*
X177435000Y-125725000D03*
X176935000Y-125725000D03*
X176435000Y-125725000D03*
X175935000Y-125725000D03*
X175435000Y-125725000D03*
X174935000Y-125725000D03*
X174435000Y-125725000D03*
X173935000Y-125725000D03*
X173435000Y-125725000D03*
X172935000Y-125725000D03*
X172435000Y-125725000D03*
X171935000Y-125725000D03*
X171435000Y-125725000D03*
X170935000Y-125725000D03*
%TD*%
D17*
%TO.C,R2_ILIM1*%
X181265000Y-69610000D03*
X181265000Y-71610000D03*
%TD*%
D18*
%TO.C,IC4*%
X179515000Y-72160000D03*
X179515000Y-71510000D03*
X179515000Y-70860000D03*
X177415000Y-70860000D03*
X177415000Y-71510000D03*
X177415000Y-72160000D03*
D19*
X178465000Y-71510000D03*
%TD*%
D14*
%TO.C,Q12*%
X123928750Y-118400000D03*
X123928750Y-116500000D03*
X122053750Y-117450000D03*
%TD*%
D20*
%TO.C,U2*%
X183415029Y-82875000D03*
X184685029Y-82875000D03*
X185955029Y-82875000D03*
X187225029Y-82875000D03*
X187225029Y-77925000D03*
X185955029Y-77925000D03*
X184685029Y-77925000D03*
X183415029Y-77925000D03*
%TD*%
D18*
%TO.C,IC5*%
X179665029Y-81050000D03*
X179665029Y-80400000D03*
X179665029Y-79750000D03*
X177565029Y-79750000D03*
X177565029Y-80400000D03*
X177565029Y-81050000D03*
D19*
X178615029Y-80400000D03*
%TD*%
D21*
%TO.C,U14*%
X114422001Y-122059199D03*
X113921999Y-122059199D03*
X113422000Y-122059199D03*
X112922001Y-122059199D03*
X112421999Y-122059199D03*
X112421999Y-124954799D03*
X112922001Y-124954799D03*
X113422000Y-124954799D03*
X113921999Y-124954799D03*
X114422001Y-124954799D03*
%TD*%
D22*
%TO.C,R32*%
X108612001Y-119874799D03*
X110612001Y-119874799D03*
%TD*%
D23*
%TO.C,D3*%
X127295000Y-127650000D03*
X128110000Y-127650000D03*
%TD*%
D24*
%TO.C,J53*%
X142170000Y-142390000D03*
D25*
X142170000Y-139850000D03*
X144710000Y-142390000D03*
X144710000Y-139850000D03*
X147250000Y-142390000D03*
X147250000Y-139850000D03*
X149790000Y-142390000D03*
X149790000Y-139850000D03*
X152330000Y-142390000D03*
X152330000Y-139850000D03*
X154870000Y-142390000D03*
X154870000Y-139850000D03*
X157410000Y-142390000D03*
X157410000Y-139850000D03*
X159950000Y-142390000D03*
X159950000Y-139850000D03*
X162490000Y-142390000D03*
X162490000Y-139850000D03*
X165030000Y-142390000D03*
X165030000Y-139850000D03*
%TD*%
D14*
%TO.C,Q17*%
X163297500Y-118100000D03*
X163297500Y-116200000D03*
X161422500Y-117150000D03*
%TD*%
D26*
%TO.C,R17*%
X137420000Y-95860000D03*
X135420000Y-95860000D03*
%TD*%
D27*
%TO.C,Q15*%
X129991250Y-116500000D03*
X129991250Y-118400000D03*
X131866250Y-117450000D03*
%TD*%
D28*
%TO.C,D4*%
X182760000Y-130050000D03*
X181945000Y-130050000D03*
%TD*%
D26*
%TO.C,R8*%
X132440000Y-141220000D03*
X130440000Y-141220000D03*
%TD*%
D27*
%TO.C,Q11*%
X126152500Y-122170000D03*
X126152500Y-124070000D03*
X128027500Y-123120000D03*
%TD*%
D12*
%TO.C,IC50*%
X118712000Y-104555000D03*
X118712000Y-105205000D03*
X118712000Y-105855000D03*
X118712000Y-106505000D03*
X118712000Y-107155000D03*
X118712000Y-107805000D03*
X118712000Y-108455000D03*
X118712000Y-109105000D03*
X124588000Y-109105000D03*
X124588000Y-108455000D03*
X124588000Y-107805000D03*
X124588000Y-107155000D03*
X124588000Y-106505000D03*
X124588000Y-105855000D03*
X124588000Y-105205000D03*
X124588000Y-104555000D03*
%TD*%
D24*
%TO.C,J50*%
X105670000Y-86850000D03*
D25*
X108210000Y-86850000D03*
X105670000Y-89390000D03*
X108210000Y-89390000D03*
X105670000Y-91930000D03*
X108210000Y-91930000D03*
X105670000Y-94470000D03*
X108210000Y-94470000D03*
X105670000Y-97010000D03*
X108210000Y-97010000D03*
X105670000Y-99550000D03*
X108210000Y-99550000D03*
X105670000Y-102090000D03*
X108210000Y-102090000D03*
X105670000Y-104630000D03*
X108210000Y-104630000D03*
X105670000Y-107170000D03*
X108210000Y-107170000D03*
X105670000Y-109710000D03*
X108210000Y-109710000D03*
%TD*%
D13*
%TO.C,JP1*%
X120415000Y-123605000D03*
X120415000Y-121065000D03*
%TD*%
D29*
%TO.C,R11*%
X177285000Y-110650000D03*
X179110000Y-110650000D03*
%TD*%
D17*
%TO.C,R29*%
X113914001Y-126748799D03*
X113914001Y-128748799D03*
%TD*%
D24*
%TO.C,J2*%
X143560000Y-113870000D03*
D25*
X143560000Y-116410000D03*
X143560000Y-118950000D03*
X143560000Y-121490000D03*
X143560000Y-124030000D03*
%TD*%
D22*
%TO.C,R7*%
X174610000Y-141150000D03*
X176610000Y-141150000D03*
%TD*%
D17*
%TO.C,R4_FAULT1*%
X175860000Y-78400000D03*
X175860000Y-80400000D03*
%TD*%
%TO.C,R30*%
X155840000Y-132008000D03*
X155840000Y-134008000D03*
%TD*%
D22*
%TO.C,R33*%
X150538000Y-125150000D03*
X152538000Y-125150000D03*
%TD*%
D27*
%TO.C,Q51*%
X123032500Y-83370000D03*
X123032500Y-85270000D03*
X124907500Y-84320000D03*
%TD*%
D22*
%TO.C,R56*%
X125991250Y-116200000D03*
X127991250Y-116200000D03*
%TD*%
D30*
%TO.C,C24*%
X177652500Y-73610000D03*
X179377500Y-73610000D03*
%TD*%
D31*
%TO.C,D8*%
X130920000Y-93110000D03*
X130920000Y-89110000D03*
%TD*%
D27*
%TO.C,Q16*%
X165560000Y-121750000D03*
X165560000Y-123650000D03*
X167435000Y-122700000D03*
%TD*%
D28*
%TO.C,D5*%
X183267500Y-127250000D03*
X182452500Y-127250000D03*
%TD*%
D31*
%TO.C,D7*%
X127420000Y-93110000D03*
X127420000Y-89110000D03*
%TD*%
D30*
%TO.C,C46*%
X156401000Y-125658000D03*
X158126000Y-125658000D03*
%TD*%
D32*
%TO.C,C44*%
X116300501Y-120382799D03*
X114575501Y-120382799D03*
%TD*%
D27*
%TO.C,Q52*%
X178192500Y-89190000D03*
X178192500Y-91090000D03*
X180067500Y-90140000D03*
%TD*%
D24*
%TO.C,J51*%
X134800000Y-84200000D03*
D25*
X134800000Y-81660000D03*
X137340000Y-84200000D03*
X137340000Y-81660000D03*
X139880000Y-84200000D03*
X139880000Y-81660000D03*
X142420000Y-84200000D03*
X142420000Y-81660000D03*
X144960000Y-84200000D03*
X144960000Y-81660000D03*
X147500000Y-84200000D03*
X147500000Y-81660000D03*
X150040000Y-84200000D03*
X150040000Y-81660000D03*
X152580000Y-84200000D03*
X152580000Y-81660000D03*
X155120000Y-84200000D03*
X155120000Y-81660000D03*
X157660000Y-84200000D03*
X157660000Y-81660000D03*
%TD*%
D24*
%TO.C,J3*%
X182160000Y-114730000D03*
D25*
X182160000Y-117270000D03*
X182160000Y-119810000D03*
X182160000Y-122350000D03*
X182160000Y-124890000D03*
%TD*%
D27*
%TO.C,Q20*%
X169222500Y-116200000D03*
X169222500Y-118100000D03*
X171097500Y-117150000D03*
%TD*%
D29*
%TO.C,R10*%
X177277500Y-109120000D03*
X179102500Y-109120000D03*
%TD*%
D15*
%TO.C,U3*%
X130010000Y-127650000D03*
X130010000Y-128150000D03*
X130010000Y-128650000D03*
X130010000Y-129150000D03*
X130010000Y-129650000D03*
X130010000Y-130150000D03*
X130010000Y-130650000D03*
X130010000Y-131150000D03*
X130010000Y-131650000D03*
X130010000Y-132150000D03*
X130010000Y-132650000D03*
X130010000Y-133150000D03*
X130010000Y-133650000D03*
X130010000Y-134150000D03*
X130010000Y-134650000D03*
X130010000Y-135150000D03*
D16*
X131935000Y-137075000D03*
X132435000Y-137075000D03*
X132935000Y-137075000D03*
X133435000Y-137075000D03*
X133935000Y-137075000D03*
X134435000Y-137075000D03*
X134935000Y-137075000D03*
X135435000Y-137075000D03*
X135935000Y-137075000D03*
X136435000Y-137075000D03*
X136935000Y-137075000D03*
X137435000Y-137075000D03*
X137935000Y-137075000D03*
X138435000Y-137075000D03*
X138935000Y-137075000D03*
X139435000Y-137075000D03*
D15*
X141360000Y-135150000D03*
X141360000Y-134650000D03*
X141360000Y-134150000D03*
X141360000Y-133650000D03*
X141360000Y-133150000D03*
X141360000Y-132650000D03*
X141360000Y-132150000D03*
X141360000Y-131650000D03*
X141360000Y-131150000D03*
X141360000Y-130650000D03*
X141360000Y-130150000D03*
X141360000Y-129650000D03*
X141360000Y-129150000D03*
X141360000Y-128650000D03*
X141360000Y-128150000D03*
X141360000Y-127650000D03*
D16*
X139435000Y-125725000D03*
X138935000Y-125725000D03*
X138435000Y-125725000D03*
X137935000Y-125725000D03*
X137435000Y-125725000D03*
X136935000Y-125725000D03*
X136435000Y-125725000D03*
X135935000Y-125725000D03*
X135435000Y-125725000D03*
X134935000Y-125725000D03*
X134435000Y-125725000D03*
X133935000Y-125725000D03*
X133435000Y-125725000D03*
X132935000Y-125725000D03*
X132435000Y-125725000D03*
X131935000Y-125725000D03*
%TD*%
D26*
%TO.C,R57*%
X167360000Y-119950000D03*
X165360000Y-119950000D03*
%TD*%
D24*
%TO.C,J5*%
X170820000Y-145650000D03*
D25*
X173360000Y-145650000D03*
%TD*%
D33*
%TO.C,D52*%
X177052500Y-86640000D03*
X181052500Y-86640000D03*
%TD*%
D21*
%TO.C,U15*%
X156332001Y-127258200D03*
X155831999Y-127258200D03*
X155332000Y-127258200D03*
X154832001Y-127258200D03*
X154331999Y-127258200D03*
X154331999Y-130153800D03*
X154832001Y-130153800D03*
X155332000Y-130153800D03*
X155831999Y-130153800D03*
X156332001Y-130153800D03*
%TD*%
D26*
%TO.C,R58*%
X167360000Y-117950000D03*
X165360000Y-117950000D03*
%TD*%
D30*
%TO.C,C31*%
X131695000Y-95860000D03*
X133420000Y-95860000D03*
%TD*%
D32*
%TO.C,C4_RETRY1*%
X179540029Y-78150000D03*
X177815029Y-78150000D03*
%TD*%
D30*
%TO.C,C26*%
X177327500Y-112170000D03*
X179052500Y-112170000D03*
%TD*%
D20*
%TO.C,U1*%
X183378750Y-73220000D03*
X184648750Y-73220000D03*
X185918750Y-73220000D03*
X187188750Y-73220000D03*
X187188750Y-68270000D03*
X185918750Y-68270000D03*
X184648750Y-68270000D03*
X183378750Y-68270000D03*
%TD*%
D30*
%TO.C,C58*%
X165297500Y-114150000D03*
X167022500Y-114150000D03*
%TD*%
%TO.C,C25*%
X177840029Y-82650000D03*
X179565029Y-82650000D03*
%TD*%
D11*
%TO.C,U6*%
X158463500Y-97237500D03*
X158463500Y-98507500D03*
X158463500Y-99777500D03*
X158463500Y-101047500D03*
X165956500Y-101047500D03*
X165956500Y-99777500D03*
X165956500Y-98507500D03*
X165956500Y-97237500D03*
%TD*%
D33*
%TO.C,D51*%
X127440000Y-84060000D03*
X131440000Y-84060000D03*
%TD*%
D34*
%TO.C,D50*%
X109640000Y-83260000D03*
X105640000Y-83260000D03*
%TD*%
D12*
%TO.C,IC11*%
X146978000Y-98012500D03*
X146978000Y-97362500D03*
X146978000Y-96712500D03*
X146978000Y-96062500D03*
X146978000Y-95412500D03*
X146978000Y-94762500D03*
X146978000Y-94112500D03*
X146978000Y-93462500D03*
X141102000Y-93462500D03*
X141102000Y-94112500D03*
X141102000Y-94762500D03*
X141102000Y-95412500D03*
X141102000Y-96062500D03*
X141102000Y-96712500D03*
X141102000Y-97362500D03*
X141102000Y-98012500D03*
%TD*%
D26*
%TO.C,R50*%
X127991250Y-120200000D03*
X125991250Y-120200000D03*
%TD*%
D17*
%TO.C,R2_FAULT1*%
X175765000Y-69610000D03*
X175765000Y-71610000D03*
%TD*%
D24*
%TO.C,J52*%
X184380000Y-86850000D03*
D25*
X186920000Y-86850000D03*
X184380000Y-89390000D03*
X186920000Y-89390000D03*
X184380000Y-91930000D03*
X186920000Y-91930000D03*
X184380000Y-94470000D03*
X186920000Y-94470000D03*
X184380000Y-97010000D03*
X186920000Y-97010000D03*
X184380000Y-99550000D03*
X186920000Y-99550000D03*
X184380000Y-102090000D03*
X186920000Y-102090000D03*
X184380000Y-104630000D03*
X186920000Y-104630000D03*
X184380000Y-107170000D03*
X186920000Y-107170000D03*
X184380000Y-109710000D03*
X186920000Y-109710000D03*
%TD*%
D17*
%TO.C,R4_ILIM1*%
X181315029Y-78150000D03*
X181315029Y-80150000D03*
%TD*%
D32*
%TO.C,C30*%
X129270000Y-95610000D03*
X127545000Y-95610000D03*
%TD*%
D35*
%TO.C,Q2*%
X152472000Y-127514500D03*
X150572000Y-127514500D03*
X151522000Y-129389500D03*
%TD*%
D33*
%TO.C,D53*%
X134860000Y-141930000D03*
X138860000Y-141930000D03*
%TD*%
D35*
%TO.C,Q1*%
X110546001Y-122239299D03*
X108646001Y-122239299D03*
X109596001Y-124114299D03*
%TD*%
D32*
%TO.C,C2_RETRY1*%
X179377500Y-69360000D03*
X177652500Y-69360000D03*
%TD*%
D17*
%TO.C,R28*%
X111882001Y-126748799D03*
X111882001Y-128748799D03*
%TD*%
D31*
%TO.C,D9*%
X134420000Y-93110000D03*
X134420000Y-89110000D03*
%TD*%
D30*
%TO.C,C56*%
X126016250Y-114450000D03*
X127741250Y-114450000D03*
%TD*%
D36*
%TO.C,C45*%
X158126000Y-128505000D03*
X158126000Y-130230000D03*
%TD*%
D14*
%TO.C,Q50*%
X113457500Y-87810000D03*
X113457500Y-85910000D03*
X111582500Y-86860000D03*
%TD*%
D28*
%TO.C,D2*%
X143035000Y-126350000D03*
X142220000Y-126350000D03*
%TD*%
D12*
%TO.C,IC10*%
X146978000Y-103737500D03*
X146978000Y-103087500D03*
X146978000Y-102437500D03*
X146978000Y-101787500D03*
X146978000Y-101137500D03*
X146978000Y-100487500D03*
X146978000Y-99837500D03*
X146978000Y-99187500D03*
X141102000Y-99187500D03*
X141102000Y-99837500D03*
X141102000Y-100487500D03*
X141102000Y-101137500D03*
X141102000Y-101787500D03*
X141102000Y-102437500D03*
X141102000Y-103087500D03*
X141102000Y-103737500D03*
%TD*%
D37*
%TO.C,SW2*%
X176160000Y-144454000D03*
X180760000Y-144454000D03*
X176160000Y-146054000D03*
X180760000Y-146054000D03*
D38*
X178460000Y-143730000D03*
%TD*%
D23*
%TO.C,D6*%
X166270000Y-127650000D03*
X167085000Y-127650000D03*
%TD*%
D24*
%TO.C,J4*%
X123587000Y-145550000D03*
D25*
X121047000Y-145550000D03*
%TD*%
D26*
%TO.C,R9*%
X172860000Y-141150000D03*
X170860000Y-141150000D03*
%TD*%
%TO.C,R51*%
X127991250Y-118200000D03*
X125991250Y-118200000D03*
%TD*%
D22*
%TO.C,R63*%
X165360000Y-115950000D03*
X167360000Y-115950000D03*
%TD*%
D17*
%TO.C,R31*%
X153808000Y-132024000D03*
X153808000Y-134024000D03*
%TD*%
D39*
%TO.C,J1*%
X122729500Y-75840000D03*
D40*
X122729500Y-78380000D03*
X125269500Y-75840000D03*
X125269500Y-78380000D03*
X127809500Y-75840000D03*
X127809500Y-78380000D03*
X130349500Y-75840000D03*
X130349500Y-78380000D03*
X132889500Y-75840000D03*
X132889500Y-78380000D03*
X135429500Y-75840000D03*
X135429500Y-78380000D03*
X137969500Y-75840000D03*
X137969500Y-78380000D03*
X140509500Y-75840000D03*
X140509500Y-78380000D03*
X143049500Y-75840000D03*
X143049500Y-78380000D03*
X145589500Y-75840000D03*
X145589500Y-78380000D03*
X148129500Y-75840000D03*
X148129500Y-78380000D03*
X150669500Y-75840000D03*
X150669500Y-78380000D03*
X153209500Y-75840000D03*
X153209500Y-78380000D03*
X155749500Y-75840000D03*
X155749500Y-78380000D03*
X158289500Y-75840000D03*
X158289500Y-78380000D03*
X160829500Y-75840000D03*
X160829500Y-78380000D03*
X163369500Y-75840000D03*
X163369500Y-78380000D03*
X165909500Y-75840000D03*
X165909500Y-78380000D03*
X168449500Y-75840000D03*
X168449500Y-78380000D03*
X170989500Y-75840000D03*
X170989500Y-78380000D03*
%TD*%
D28*
%TO.C,D1*%
X143760000Y-130150000D03*
X142945000Y-130150000D03*
%TD*%
D11*
%TO.C,U5*%
X158467000Y-91148100D03*
X158467000Y-92418100D03*
X158467000Y-93688100D03*
X158467000Y-94958100D03*
X165960000Y-94958100D03*
X165960000Y-93688100D03*
X165960000Y-92418100D03*
X165960000Y-91148100D03*
%TD*%
D12*
%TO.C,IC12*%
X146978000Y-92237500D03*
X146978000Y-91587500D03*
X146978000Y-90937500D03*
X146978000Y-90287500D03*
X146978000Y-89637500D03*
X146978000Y-88987500D03*
X146978000Y-88337500D03*
X146978000Y-87687500D03*
X141102000Y-87687500D03*
X141102000Y-88337500D03*
X141102000Y-88987500D03*
X141102000Y-89637500D03*
X141102000Y-90287500D03*
X141102000Y-90937500D03*
X141102000Y-91587500D03*
X141102000Y-92237500D03*
%TD*%
D37*
%TO.C,SW1*%
X112886000Y-144454000D03*
X117486000Y-144454000D03*
X112886000Y-146054000D03*
X117486000Y-146054000D03*
D38*
X115186000Y-143730000D03*
%TD*%
D41*
%TO.C,C43*%
X116200001Y-124853199D03*
X116200001Y-123128199D03*
%TD*%
D42*
X191510000Y-129100000D03*
X100210000Y-101150000D03*
X101210000Y-135150000D03*
X101210000Y-85150000D03*
X102210000Y-71150000D03*
D43*
X123910000Y-102940000D03*
D42*
X100210000Y-135150000D03*
X193510000Y-99100000D03*
D43*
X166730000Y-88830000D03*
D42*
X132210000Y-132975735D03*
X100210000Y-89150000D03*
D43*
X117900000Y-96310000D03*
D42*
X102210000Y-81150000D03*
X102210000Y-106150000D03*
X100210000Y-131150000D03*
X192510000Y-96100000D03*
X100210000Y-77150000D03*
X193510000Y-82100000D03*
D43*
X119790000Y-97130000D03*
D42*
X102210000Y-119150000D03*
X100210000Y-130150000D03*
X193510000Y-71100000D03*
D43*
X179080000Y-128580000D03*
X132320000Y-94940000D03*
D42*
X101210000Y-109150000D03*
X102210000Y-132150000D03*
D43*
X169440000Y-114290000D03*
D42*
X102210000Y-136150000D03*
X193510000Y-136100000D03*
X192510000Y-139100000D03*
D43*
X108780000Y-79350000D03*
D42*
X101210000Y-80150000D03*
X192510000Y-89100000D03*
X100210000Y-102150000D03*
D43*
X183480000Y-70480000D03*
D42*
X192510000Y-100100000D03*
X100210000Y-112150000D03*
D43*
X187310000Y-80820000D03*
D42*
X193510000Y-88100000D03*
X191510000Y-67100000D03*
X193510000Y-105100000D03*
X101210000Y-82150000D03*
X102210000Y-69150000D03*
X102210000Y-93150000D03*
X101210000Y-123150000D03*
X193510000Y-111100000D03*
D43*
X113580000Y-70850000D03*
D42*
X193510000Y-101100000D03*
X102210000Y-99150000D03*
D43*
X127160000Y-70210000D03*
D42*
X193510000Y-96100000D03*
X191510000Y-135100000D03*
X102210000Y-102150000D03*
X193510000Y-108100000D03*
D43*
X131150000Y-102630000D03*
D42*
X193510000Y-130100000D03*
X193510000Y-143100000D03*
X102210000Y-115150000D03*
X139560000Y-130250000D03*
D43*
X129560000Y-104520000D03*
X169550000Y-83500000D03*
D42*
X100210000Y-110150000D03*
X191510000Y-114100000D03*
D43*
X111390000Y-138010000D03*
D42*
X191510000Y-112100000D03*
X102210000Y-75150000D03*
X192510000Y-104100000D03*
D43*
X129150000Y-101970000D03*
D42*
X102210000Y-134150000D03*
D43*
X147840000Y-71260000D03*
D42*
X193510000Y-98100000D03*
D43*
X108170000Y-133020000D03*
D42*
X192510000Y-85100000D03*
X191510000Y-84100000D03*
X193510000Y-137100000D03*
X101210000Y-134150000D03*
X102210000Y-139150000D03*
D43*
X154730000Y-95440000D03*
D42*
X100210000Y-134150000D03*
X191510000Y-96100000D03*
D43*
X106360000Y-128130000D03*
X110860000Y-78000000D03*
D42*
X193510000Y-106100000D03*
X191510000Y-133100000D03*
X193510000Y-132100000D03*
D43*
X154560000Y-88480000D03*
X119080000Y-145330000D03*
D42*
X101210000Y-78150000D03*
D43*
X105550000Y-143910000D03*
D42*
X102210000Y-101150000D03*
X192510000Y-111100000D03*
D43*
X112530000Y-119460000D03*
D42*
X100210000Y-95150000D03*
D43*
X114340000Y-75720000D03*
D42*
X191510000Y-136100000D03*
D43*
X129780000Y-100630000D03*
X117830000Y-78550000D03*
D42*
X101210000Y-89150000D03*
D43*
X107990000Y-112510000D03*
D42*
X132051328Y-128978672D03*
X101210000Y-138150000D03*
X193510000Y-103100000D03*
X192510000Y-95100000D03*
X192510000Y-136100000D03*
X101210000Y-93150000D03*
D43*
X156190000Y-101110000D03*
D42*
X191510000Y-116100000D03*
X193510000Y-121100000D03*
X192510000Y-81100000D03*
D43*
X157430000Y-114500000D03*
D42*
X102210000Y-117150000D03*
X193510000Y-112100000D03*
X192510000Y-128100000D03*
X193510000Y-73100000D03*
X100210000Y-93150000D03*
X192510000Y-67100000D03*
X192510000Y-112100000D03*
X100210000Y-86150000D03*
D43*
X118800000Y-72380000D03*
D42*
X101210000Y-81150000D03*
D43*
X170070000Y-138220000D03*
D42*
X192510000Y-86100000D03*
D43*
X112070000Y-101480000D03*
X148160000Y-131580000D03*
D42*
X192510000Y-72100000D03*
X193510000Y-142100000D03*
X191510000Y-94100000D03*
X191510000Y-82100000D03*
X192510000Y-135100000D03*
X192510000Y-137100000D03*
X100210000Y-67150000D03*
X101210000Y-125150000D03*
D43*
X110100000Y-79120000D03*
D42*
X100210000Y-114150000D03*
X102210000Y-103150000D03*
D43*
X119360000Y-119030000D03*
D42*
X100210000Y-81150000D03*
D43*
X149270000Y-130000000D03*
D42*
X191510000Y-98100000D03*
D43*
X107950000Y-70260000D03*
D42*
X102210000Y-98150000D03*
X191510000Y-111100000D03*
X101210000Y-102150000D03*
D43*
X107730000Y-117740000D03*
D42*
X191510000Y-71100000D03*
X192510000Y-97100000D03*
X101210000Y-94150000D03*
D43*
X130300000Y-100300000D03*
D42*
X191510000Y-76100000D03*
X191510000Y-142100000D03*
X100210000Y-73150000D03*
X191510000Y-93100000D03*
X101210000Y-103150000D03*
X102210000Y-118150000D03*
X193510000Y-141100000D03*
X192510000Y-82100000D03*
D43*
X151140000Y-127120000D03*
X130550000Y-64720000D03*
X118320000Y-117570000D03*
X156950000Y-69740000D03*
D42*
X100210000Y-70150000D03*
D43*
X117530000Y-116050000D03*
X152770000Y-123290000D03*
D42*
X192510000Y-124100000D03*
X191510000Y-140100000D03*
X102210000Y-91150000D03*
D43*
X153520000Y-126460000D03*
D42*
X102210000Y-105150000D03*
D43*
X119710000Y-94940000D03*
D42*
X192510000Y-88100000D03*
X192510000Y-103100000D03*
X102210000Y-84150000D03*
X191510000Y-139100000D03*
X191510000Y-134100000D03*
X192510000Y-141100000D03*
X192510000Y-126100000D03*
X101210000Y-106150000D03*
X102210000Y-89150000D03*
X191510000Y-108100000D03*
X192510000Y-73100000D03*
X192510000Y-132100000D03*
X193510000Y-100100000D03*
X175360000Y-128150000D03*
X192510000Y-76100000D03*
X101210000Y-74150000D03*
X102210000Y-137150000D03*
X102210000Y-122150000D03*
X101210000Y-116150000D03*
X101210000Y-68150000D03*
X191510000Y-102100000D03*
X102210000Y-104150000D03*
X191510000Y-75100000D03*
D43*
X159690000Y-111630000D03*
D42*
X102210000Y-70150000D03*
X193510000Y-140100000D03*
X192510000Y-79100000D03*
X192510000Y-127100000D03*
X193510000Y-85100000D03*
D43*
X148390000Y-99110000D03*
D42*
X191510000Y-127100000D03*
X193510000Y-68100000D03*
D43*
X149330000Y-133050000D03*
X117240000Y-102220000D03*
X162480000Y-111980000D03*
X114980000Y-116050000D03*
X132440000Y-126870000D03*
D42*
X101210000Y-128150000D03*
X192510000Y-138100000D03*
X192510000Y-78100000D03*
D43*
X170290000Y-128660000D03*
D42*
X100210000Y-138150000D03*
D43*
X167510000Y-111230000D03*
X122970000Y-97650000D03*
D42*
X101210000Y-115150000D03*
X100210000Y-91150000D03*
D43*
X151380000Y-106700000D03*
D42*
X101210000Y-132150000D03*
X100210000Y-137150000D03*
D43*
X105510000Y-114080000D03*
X122910000Y-93430000D03*
D42*
X100210000Y-72150000D03*
D43*
X117270000Y-98190000D03*
D42*
X192510000Y-107100000D03*
D43*
X134290000Y-69630000D03*
D42*
X192510000Y-105100000D03*
X101210000Y-143150000D03*
D43*
X164170000Y-109280000D03*
D42*
X191510000Y-85100000D03*
D43*
X151460000Y-128020000D03*
X110740000Y-116960000D03*
D42*
X140098615Y-128449920D03*
X101210000Y-91150000D03*
X192510000Y-70100000D03*
X100210000Y-123150000D03*
D43*
X114790000Y-81550000D03*
D42*
X191510000Y-132100000D03*
X193510000Y-110100000D03*
D43*
X119660000Y-133990000D03*
D42*
X138170000Y-127665331D03*
X101210000Y-73150000D03*
X100210000Y-141150000D03*
X100210000Y-84150000D03*
X193510000Y-129100000D03*
X193510000Y-77100000D03*
X101210000Y-67150000D03*
X100210000Y-69150000D03*
X100210000Y-85150000D03*
X100210000Y-113150000D03*
X100210000Y-122150000D03*
X143009000Y-127480000D03*
D43*
X107500000Y-140680000D03*
X148180000Y-93500000D03*
D42*
X192510000Y-120100000D03*
X139610000Y-132150000D03*
D43*
X114540000Y-96660000D03*
D42*
X102210000Y-112150000D03*
D43*
X122430000Y-121030000D03*
X112210000Y-97240000D03*
D42*
X102210000Y-142150000D03*
X192510000Y-74100000D03*
X191510000Y-77100000D03*
X100210000Y-75150000D03*
X102210000Y-77150000D03*
D43*
X170070000Y-125890000D03*
X149330000Y-131120000D03*
D42*
X191510000Y-80100000D03*
D43*
X124940000Y-64130000D03*
D42*
X100210000Y-108150000D03*
X191510000Y-128100000D03*
X192510000Y-116100000D03*
X101210000Y-99150000D03*
X102210000Y-133150000D03*
X191510000Y-115100000D03*
X192510000Y-84100000D03*
D43*
X115220000Y-138310000D03*
D42*
X191510000Y-78100000D03*
X192510000Y-101100000D03*
D43*
X129590000Y-119250000D03*
D42*
X100210000Y-111150000D03*
D43*
X152410000Y-95420000D03*
X119720000Y-131130000D03*
D42*
X102210000Y-74150000D03*
D43*
X111450000Y-115910000D03*
D42*
X101210000Y-119150000D03*
X101210000Y-105150000D03*
X191510000Y-73100000D03*
X193510000Y-131100000D03*
D43*
X118200000Y-121280000D03*
D42*
X100210000Y-127150000D03*
X100210000Y-74150000D03*
D43*
X112130000Y-104300000D03*
X122350000Y-105100000D03*
X118560000Y-77680000D03*
D42*
X191510000Y-95100000D03*
X193510000Y-72100000D03*
X192510000Y-102100000D03*
X101210000Y-71150000D03*
X191510000Y-100100000D03*
D43*
X117780000Y-125720000D03*
D42*
X101210000Y-96150000D03*
D43*
X123210000Y-94830000D03*
X127040000Y-100110000D03*
D42*
X102210000Y-110150000D03*
X191510000Y-97100000D03*
X191510000Y-103100000D03*
X100210000Y-98150000D03*
D43*
X118740000Y-144090000D03*
D42*
X100210000Y-115150000D03*
X100210000Y-87150000D03*
D43*
X156630000Y-104800000D03*
D42*
X192510000Y-130100000D03*
X193510000Y-70100000D03*
X101210000Y-129150000D03*
X177580000Y-76360000D03*
X192510000Y-117100000D03*
X100210000Y-132150000D03*
X101210000Y-136150000D03*
X100210000Y-88150000D03*
X193510000Y-135100000D03*
D43*
X164900000Y-64480000D03*
D42*
X101210000Y-127150000D03*
X101210000Y-104150000D03*
X193510000Y-118100000D03*
X193510000Y-75100000D03*
X101210000Y-140150000D03*
X100210000Y-129150000D03*
X193510000Y-107100000D03*
D43*
X111270000Y-135210000D03*
X115270000Y-147230000D03*
X131810000Y-99780000D03*
D42*
X102210000Y-78150000D03*
D43*
X110330000Y-80480000D03*
X150640000Y-121370000D03*
D42*
X101210000Y-84150000D03*
X100210000Y-117150000D03*
X102210000Y-86150000D03*
D43*
X184370000Y-80140000D03*
D42*
X100210000Y-118150000D03*
X101210000Y-118150000D03*
X193510000Y-76100000D03*
X102210000Y-95150000D03*
X193510000Y-138100000D03*
X100210000Y-76150000D03*
D43*
X109500000Y-144520000D03*
D42*
X177378190Y-135099857D03*
X100210000Y-142150000D03*
D43*
X107340000Y-120750000D03*
D42*
X100210000Y-83150000D03*
D43*
X161160000Y-71730000D03*
D42*
X102210000Y-127150000D03*
X101210000Y-121150000D03*
X102210000Y-123150000D03*
D43*
X159980000Y-95100000D03*
X138260000Y-64370000D03*
D42*
X101210000Y-114150000D03*
X191510000Y-143100000D03*
D43*
X106220000Y-138920000D03*
D42*
X102210000Y-107150000D03*
X100210000Y-78150000D03*
X191510000Y-87100000D03*
X192510000Y-80100000D03*
D43*
X115260000Y-71540000D03*
D42*
X192510000Y-71100000D03*
X191510000Y-86100000D03*
X101210000Y-87150000D03*
X193510000Y-124100000D03*
X192510000Y-125100000D03*
D43*
X166830000Y-108660000D03*
D42*
X193510000Y-114100000D03*
X100210000Y-120150000D03*
X134139815Y-135814566D03*
D43*
X162060000Y-107300000D03*
D42*
X100210000Y-124150000D03*
X102210000Y-125150000D03*
X193510000Y-74100000D03*
X192510000Y-109100000D03*
X191510000Y-121100000D03*
X191510000Y-109100000D03*
D43*
X150530000Y-64480000D03*
D42*
X193510000Y-139100000D03*
X100210000Y-133150000D03*
D43*
X116830000Y-95430000D03*
X150180000Y-101260000D03*
D42*
X100210000Y-116150000D03*
X100210000Y-126150000D03*
X192510000Y-131100000D03*
X193510000Y-128100000D03*
X101210000Y-86150000D03*
X102210000Y-143150000D03*
X100210000Y-121150000D03*
X101210000Y-108150000D03*
X192510000Y-68100000D03*
X102210000Y-87150000D03*
X102210000Y-80150000D03*
X101210000Y-69150000D03*
D43*
X150550000Y-128770000D03*
D42*
X100210000Y-107150000D03*
X193510000Y-83100000D03*
X100210000Y-125150000D03*
X101210000Y-131150000D03*
D43*
X138260000Y-69630000D03*
X169620000Y-125840000D03*
D42*
X191510000Y-68100000D03*
X100210000Y-109150000D03*
D43*
X184640000Y-84520000D03*
D42*
X100210000Y-103150000D03*
D43*
X125620000Y-103050000D03*
D42*
X191510000Y-123100000D03*
D43*
X165750000Y-111070000D03*
X116800000Y-118300000D03*
D42*
X192510000Y-133100000D03*
X193510000Y-120100000D03*
X192510000Y-83100000D03*
D43*
X120610000Y-95320000D03*
X176280000Y-90820000D03*
X112890000Y-94310000D03*
X109040000Y-80390000D03*
D42*
X102210000Y-79150000D03*
D43*
X153390000Y-103750000D03*
X117340000Y-83360000D03*
D42*
X102210000Y-111150000D03*
X100210000Y-105150000D03*
D43*
X167890000Y-109720000D03*
D42*
X101210000Y-107150000D03*
D43*
X129785000Y-119770000D03*
X171160000Y-88420000D03*
D42*
X192510000Y-118100000D03*
X192510000Y-93100000D03*
X101210000Y-76150000D03*
X191510000Y-141100000D03*
X191510000Y-90100000D03*
D43*
X165600000Y-109130000D03*
X154220000Y-125460000D03*
X164540000Y-111150000D03*
D42*
X102210000Y-92150000D03*
X131400000Y-128500000D03*
X192510000Y-134100000D03*
D43*
X114560000Y-104240000D03*
D42*
X101210000Y-111150000D03*
X101210000Y-79150000D03*
D43*
X154380000Y-118760000D03*
D42*
X192510000Y-110100000D03*
X102210000Y-126150000D03*
X102210000Y-90150000D03*
X191510000Y-124100000D03*
X192510000Y-99100000D03*
X100210000Y-96150000D03*
X191510000Y-106100000D03*
X192510000Y-98100000D03*
D43*
X127650000Y-98690000D03*
D42*
X191510000Y-74100000D03*
X123070000Y-87000000D03*
D43*
X118260000Y-130160000D03*
D42*
X102210000Y-114150000D03*
X191510000Y-101100000D03*
X100210000Y-136150000D03*
X191510000Y-92100000D03*
X192510000Y-129100000D03*
X102210000Y-140150000D03*
X101210000Y-70150000D03*
X191510000Y-88100000D03*
X192510000Y-94100000D03*
X100210000Y-80150000D03*
X102210000Y-129150000D03*
X100210000Y-119150000D03*
D43*
X117980000Y-99020000D03*
D42*
X101210000Y-88150000D03*
X102210000Y-73150000D03*
X191510000Y-107100000D03*
D43*
X118260000Y-132710000D03*
X154910000Y-102690000D03*
D42*
X193510000Y-95100000D03*
D43*
X111090000Y-79000000D03*
D42*
X191510000Y-89100000D03*
X101210000Y-72150000D03*
X193510000Y-78100000D03*
X191510000Y-137100000D03*
X191510000Y-119100000D03*
X193510000Y-123100000D03*
X138060000Y-130150000D03*
D43*
X110740000Y-114740000D03*
X169030000Y-119170000D03*
D42*
X193510000Y-122100000D03*
X102210000Y-135150000D03*
D43*
X162040000Y-108560000D03*
D42*
X192510000Y-75100000D03*
X101210000Y-83150000D03*
D43*
X130260000Y-95100000D03*
X174710000Y-65070000D03*
X151730000Y-95490000D03*
X132460000Y-139830000D03*
D42*
X102210000Y-116150000D03*
X193510000Y-109100000D03*
X192510000Y-87100000D03*
X192510000Y-114100000D03*
X102210000Y-72150000D03*
X192510000Y-119100000D03*
X191510000Y-105100000D03*
X101210000Y-112150000D03*
X102210000Y-96150000D03*
X102210000Y-68150000D03*
X193510000Y-93100000D03*
X191510000Y-91100000D03*
X101210000Y-124150000D03*
X193510000Y-119100000D03*
X102210000Y-120150000D03*
X100210000Y-97150000D03*
D43*
X121190000Y-98500000D03*
D42*
X101210000Y-141150000D03*
X191510000Y-81100000D03*
X101210000Y-142150000D03*
X102210000Y-141150000D03*
X101210000Y-98150000D03*
D43*
X150780000Y-88130000D03*
D42*
X101210000Y-90150000D03*
X191510000Y-110100000D03*
X191510000Y-83100000D03*
X193510000Y-104100000D03*
X191510000Y-131100000D03*
X192510000Y-143100000D03*
X191510000Y-138100000D03*
D43*
X113960000Y-99040000D03*
X115660000Y-83340000D03*
D42*
X193510000Y-94100000D03*
X193510000Y-115100000D03*
X193510000Y-117100000D03*
X191510000Y-118100000D03*
D43*
X107760000Y-73320000D03*
D42*
X193510000Y-126100000D03*
D43*
X129650000Y-117680000D03*
D42*
X191510000Y-122100000D03*
X191510000Y-125100000D03*
X102210000Y-121150000D03*
D43*
X168870000Y-96190000D03*
D42*
X192510000Y-121100000D03*
X101210000Y-130150000D03*
X101210000Y-137150000D03*
X100210000Y-79150000D03*
X101210000Y-75150000D03*
X102210000Y-88150000D03*
X193510000Y-90100000D03*
X101210000Y-133150000D03*
X193510000Y-84100000D03*
X193510000Y-80100000D03*
D43*
X171221023Y-118890000D03*
D42*
X191510000Y-69100000D03*
X101210000Y-77150000D03*
X192510000Y-113100000D03*
X102210000Y-85150000D03*
D43*
X115740000Y-75800000D03*
D42*
X173139815Y-135814566D03*
D43*
X167330000Y-84290000D03*
D42*
X100210000Y-106150000D03*
X102210000Y-128150000D03*
X191510000Y-104100000D03*
X191510000Y-126100000D03*
X100210000Y-139150000D03*
D43*
X153490000Y-89080000D03*
D42*
X171210000Y-132900000D03*
X192510000Y-92100000D03*
X102210000Y-67150000D03*
X101210000Y-120150000D03*
D43*
X152020000Y-107910000D03*
D42*
X101210000Y-97150000D03*
X134060000Y-132450000D03*
X102210000Y-138150000D03*
X191510000Y-130100000D03*
D43*
X171200000Y-91650000D03*
X151880000Y-108760000D03*
D42*
X193510000Y-127100000D03*
X101210000Y-139150000D03*
D43*
X169440000Y-104230000D03*
D42*
X193510000Y-97100000D03*
X193510000Y-67100000D03*
X101210000Y-101150000D03*
D43*
X110210000Y-115850000D03*
D42*
X192510000Y-122100000D03*
X102210000Y-97150000D03*
X102210000Y-124150000D03*
X101210000Y-126150000D03*
X191510000Y-113100000D03*
X102210000Y-94150000D03*
X191510000Y-120100000D03*
X100210000Y-128150000D03*
D43*
X179400000Y-118960000D03*
D42*
X193510000Y-91100000D03*
X156465736Y-91441500D03*
D43*
X112320000Y-120650000D03*
D42*
X102210000Y-113150000D03*
D43*
X130660000Y-95370000D03*
D42*
X101210000Y-110150000D03*
X102210000Y-83150000D03*
X100210000Y-92150000D03*
X193510000Y-87100000D03*
X100210000Y-90150000D03*
X102210000Y-100150000D03*
D43*
X125620000Y-101150000D03*
D42*
X193510000Y-113100000D03*
X101210000Y-100150000D03*
X100210000Y-71150000D03*
X192510000Y-77100000D03*
D43*
X167460000Y-110000000D03*
D42*
X191510000Y-117100000D03*
D43*
X157070000Y-64480000D03*
X170490000Y-85150000D03*
D42*
X193510000Y-102100000D03*
X193510000Y-86100000D03*
D43*
X153690000Y-112760000D03*
D42*
X100210000Y-104150000D03*
D43*
X144100000Y-68460000D03*
D42*
X193510000Y-134100000D03*
X192510000Y-142100000D03*
X100210000Y-99150000D03*
X102210000Y-82150000D03*
X191510000Y-99100000D03*
X100210000Y-94150000D03*
X192510000Y-91100000D03*
D43*
X150290000Y-115890000D03*
D42*
X100210000Y-100150000D03*
X101210000Y-122150000D03*
D43*
X105120000Y-113230000D03*
D42*
X192510000Y-115100000D03*
X192510000Y-69100000D03*
X191510000Y-72100000D03*
D43*
X171160000Y-99910000D03*
D42*
X136610000Y-127650000D03*
X193510000Y-81100000D03*
X100210000Y-68150000D03*
X101210000Y-113150000D03*
X192510000Y-106100000D03*
D43*
X119220000Y-78740000D03*
D42*
X193510000Y-79100000D03*
X191510000Y-70100000D03*
X101210000Y-117150000D03*
D43*
X148820000Y-132540000D03*
D42*
X101210000Y-95150000D03*
D43*
X115950000Y-117510000D03*
D42*
X192510000Y-108100000D03*
X192510000Y-123100000D03*
X193510000Y-125100000D03*
X101210000Y-92150000D03*
D43*
X159280000Y-126790000D03*
D42*
X100210000Y-143150000D03*
X192510000Y-90100000D03*
X192510000Y-140100000D03*
D43*
X133000000Y-118620000D03*
D42*
X193510000Y-89100000D03*
D43*
X118320000Y-119030000D03*
D42*
X100210000Y-140150000D03*
X193510000Y-69100000D03*
X137560000Y-132350000D03*
X193510000Y-116100000D03*
X102210000Y-76150000D03*
X193510000Y-92100000D03*
X100210000Y-82150000D03*
X193510000Y-133100000D03*
D43*
X162960000Y-106800000D03*
D42*
X102210000Y-109150000D03*
X102210000Y-131150000D03*
X102210000Y-108150000D03*
X102210000Y-130150000D03*
X191510000Y-79100000D03*
X133094131Y-135863877D03*
X140110000Y-127650000D03*
X132860000Y-127400000D03*
X139610000Y-135900000D03*
D43*
X138030000Y-120810000D03*
X138120000Y-117640000D03*
X181760000Y-131610000D03*
X179850000Y-77350000D03*
X151120000Y-92210000D03*
X148040000Y-88330000D03*
X128180000Y-130720000D03*
X118242000Y-145322500D03*
X138050000Y-123220000D03*
X132040000Y-119370000D03*
X128310000Y-125405000D03*
X142250000Y-87670000D03*
X175250000Y-86710000D03*
X127100000Y-86730000D03*
X143150000Y-129360000D03*
X124080000Y-89590000D03*
X139210000Y-108620000D03*
X139219000Y-115611000D03*
X126050000Y-110910000D03*
X124490000Y-114140000D03*
D42*
X126170000Y-89110000D03*
D43*
X135750000Y-117050000D03*
X124539292Y-100579294D03*
X140240000Y-116650000D03*
X177670000Y-114790000D03*
X132670000Y-89110000D03*
X154370000Y-133110000D03*
X151200000Y-110398500D03*
X116620000Y-106310000D03*
X142570000Y-105680000D03*
X155290000Y-133080000D03*
X126941907Y-133265021D03*
D42*
X178610000Y-135900000D03*
X179110000Y-127650000D03*
X171110000Y-127650000D03*
X171860000Y-135900000D03*
D43*
X181660000Y-145490000D03*
X173150000Y-130650000D03*
X173770000Y-110540000D03*
X150050000Y-105182500D03*
X150740000Y-97135000D03*
X140110000Y-104960000D03*
X145590157Y-104082915D03*
D42*
X134960000Y-129550000D03*
D43*
X150240000Y-90290000D03*
X159660000Y-91450000D03*
X157090000Y-103810000D03*
X149620000Y-95145000D03*
X136430000Y-105030000D03*
X160140000Y-97416500D03*
X152680000Y-102240000D03*
X163410000Y-110540000D03*
X144375000Y-98550000D03*
X135230000Y-96980000D03*
X143120000Y-96770000D03*
X128437619Y-131188632D03*
X112970000Y-130420000D03*
X112940000Y-125780000D03*
X167670549Y-131209451D03*
X167384171Y-132068587D03*
X136550000Y-138520000D03*
X124130000Y-115720000D03*
X163600000Y-115230000D03*
X176050595Y-138689405D03*
X179515000Y-70480000D03*
X144126424Y-133136424D03*
D42*
X131360000Y-133650000D03*
D43*
X142010000Y-125880000D03*
X140710000Y-126350000D03*
X143650000Y-126380000D03*
X126890000Y-132170000D03*
X184990000Y-130460000D03*
X165880000Y-128200000D03*
D42*
X170360000Y-133650000D03*
D43*
X129530000Y-126340000D03*
X167710000Y-126390000D03*
D42*
X138360000Y-135900000D03*
X177360000Y-135900000D03*
D43*
X122280000Y-125000000D03*
X168480000Y-113850000D03*
X161610000Y-124980000D03*
X157920000Y-123440000D03*
X176636144Y-138702197D03*
X126620000Y-121360000D03*
X124891938Y-117795000D03*
X166140000Y-122470000D03*
X164230000Y-114140000D03*
X144290000Y-130170000D03*
X179445000Y-127040000D03*
X181850000Y-127220000D03*
X184250000Y-127230000D03*
X128730000Y-133710000D03*
X120180000Y-107180000D03*
X125680000Y-106500000D03*
X175180000Y-139310000D03*
X114550000Y-87830000D03*
X116240000Y-87840000D03*
X176810000Y-89280000D03*
X173560000Y-89280000D03*
X120348879Y-105345292D03*
X165154213Y-132545787D03*
X145760000Y-115430000D03*
X165392359Y-132950787D03*
X126830000Y-108460000D03*
X174772837Y-138557163D03*
X122835000Y-107830000D03*
X135460000Y-138550000D03*
X123240000Y-105850000D03*
X135960000Y-138590000D03*
X119890000Y-105230000D03*
X128240000Y-133330000D03*
X111115994Y-74594000D03*
X147250000Y-144260000D03*
X120602442Y-138422442D03*
X162360000Y-104120000D03*
X106650000Y-116890000D03*
X173876536Y-129163464D03*
X149320000Y-134560000D03*
X136312029Y-130047971D03*
X178300000Y-110670000D03*
X134472476Y-124130582D03*
X144560000Y-108820000D03*
X134343380Y-115659377D03*
X178230000Y-109150000D03*
X166666000Y-93050000D03*
X165855000Y-93050000D03*
X172979000Y-83069000D03*
X163710000Y-92900000D03*
X176760000Y-132170000D03*
X137240000Y-131690000D03*
X128630000Y-142130000D03*
X120030000Y-137690000D03*
X162940000Y-108690000D03*
X143520000Y-134725000D03*
X172840000Y-122340000D03*
X144540000Y-106280000D03*
X142230000Y-107600000D03*
X182339816Y-134700184D03*
X149780000Y-108320000D03*
X173471379Y-122398621D03*
X137969126Y-102140000D03*
X139178621Y-97368621D03*
X122940000Y-105200000D03*
X130550000Y-140140000D03*
X131220000Y-143660000D03*
X140070000Y-91580000D03*
X139384000Y-102130268D03*
X140029000Y-108840000D03*
X139181379Y-98511379D03*
X150010000Y-113600000D03*
X165950000Y-108330000D03*
X143280000Y-109260000D03*
X140030000Y-108190000D03*
X142520000Y-133020000D03*
X133865000Y-124095864D03*
X133865000Y-115611000D03*
X144500000Y-106920000D03*
D42*
X164830000Y-91140000D03*
X164870000Y-97240000D03*
X164880000Y-103380000D03*
D43*
X138180000Y-138440000D03*
X139900000Y-100540000D03*
X148085000Y-101790000D03*
X160710000Y-101790000D03*
X142300000Y-101830000D03*
X181510000Y-135650000D03*
X142926512Y-133160177D03*
X148080000Y-103100000D03*
X155785230Y-96325001D03*
X163550000Y-96320000D03*
X139660000Y-102460000D03*
X143523538Y-133917387D03*
X182179667Y-135112793D03*
X149580000Y-102570000D03*
X142220000Y-99900000D03*
X177760000Y-138610000D03*
X156007361Y-89607361D03*
X143830000Y-100050000D03*
X157270000Y-93690000D03*
X145750000Y-100560000D03*
X181860670Y-135401137D03*
X143331512Y-133358578D03*
X148190000Y-101140000D03*
X174840000Y-123791921D03*
X142631379Y-95061379D03*
X143787129Y-97407129D03*
X132010000Y-123990000D03*
X135300000Y-105570000D03*
X139585000Y-94820000D03*
X135648705Y-124161295D03*
X137969126Y-98459459D03*
X145511250Y-95110250D03*
X132526676Y-123933918D03*
X142250000Y-96720000D03*
X134856425Y-115719089D03*
X135102326Y-124187674D03*
X161300000Y-102890000D03*
X159690000Y-102975000D03*
X174340000Y-123540000D03*
X142270000Y-96110000D03*
X147990000Y-94740000D03*
X172217402Y-121962598D03*
X156634328Y-97712914D03*
X157270000Y-99770000D03*
X150750000Y-107640000D03*
X142640000Y-95560000D03*
X171626023Y-121943977D03*
X148070000Y-96730000D03*
X165330000Y-134245000D03*
X139880000Y-88330000D03*
X139680000Y-89010000D03*
X127346906Y-134350925D03*
X164670000Y-134745000D03*
X148360000Y-89010000D03*
X127530000Y-134740000D03*
X145370000Y-89640000D03*
X145480000Y-90950000D03*
X172530000Y-138900000D03*
X145540000Y-91580000D03*
X133460000Y-138360000D03*
X185890000Y-76610000D03*
X185890000Y-69540000D03*
X184670000Y-76660000D03*
X184670000Y-71480000D03*
X121920476Y-118100000D03*
X175340000Y-124183302D03*
X167320000Y-124660000D03*
X167750000Y-123480000D03*
X163820000Y-135986000D03*
X127810000Y-135130000D03*
X128440000Y-122440000D03*
X161020000Y-117800000D03*
X131090000Y-138090000D03*
X163498379Y-135091621D03*
X175840000Y-124520000D03*
X168490000Y-120400000D03*
X144430481Y-132832367D03*
X183370000Y-66960000D03*
X187180000Y-71920000D03*
X143388621Y-128548621D03*
X183430000Y-74610000D03*
X142957242Y-128407242D03*
X182070000Y-131190000D03*
X183400000Y-79210000D03*
X183360000Y-84410000D03*
X181890000Y-128380000D03*
X187190000Y-84430000D03*
X182311313Y-128466009D03*
X165720000Y-128620000D03*
X167650000Y-129148700D03*
X126510000Y-128660000D03*
X128690000Y-130251300D03*
D44*
X101161000Y-67800000D02*
X101161000Y-143149000D01*
X192500000Y-67800000D02*
X192500000Y-143149000D01*
M02*
