%TF.GenerationSoftware,KiCad,Pcbnew,9.0.7*%
%TF.CreationDate,2026-03-02T21:05:06-07:00*%
%TF.ProjectId,Solar Board 2.0,536f6c61-7220-4426-9f61-726420322e30,rev?*%
%TF.SameCoordinates,Original*%
%TF.FileFunction,Copper,L1,Top*%
%TF.FilePolarity,Positive*%
%FSLAX46Y46*%
G04 Gerber Fmt 4.6, Leading zero omitted, Abs format (unit mm)*
G04 Created by KiCad (PCBNEW 9.0.7) date 2026-03-02 21:05:06*
%MOMM*%
%LPD*%
G01*
G04 APERTURE LIST*
G04 Aperture macros list*
%AMRoundRect*
0 Rectangle with rounded corners*
0 $1 Rounding radius*
0 $2 $3 $4 $5 $6 $7 $8 $9 X,Y pos of 4 corners*
0 Add a 4 corners polygon primitive as box body*
4,1,4,$2,$3,$4,$5,$6,$7,$8,$9,$2,$3,0*
0 Add four circle primitives for the rounded corners*
1,1,$1+$1,$2,$3*
1,1,$1+$1,$4,$5*
1,1,$1+$1,$6,$7*
1,1,$1+$1,$8,$9*
0 Add four rect primitives between the rounded corners*
20,1,$1+$1,$2,$3,$4,$5,0*
20,1,$1+$1,$4,$5,$6,$7,0*
20,1,$1+$1,$6,$7,$8,$9,0*
20,1,$1+$1,$8,$9,$2,$3,0*%
G04 Aperture macros list end*
%TA.AperFunction,SMDPad,CuDef*%
%ADD10RoundRect,1.650000X5.850000X-3.850000X5.850000X3.850000X-5.850000X3.850000X-5.850000X-3.850000X0*%
%TD*%
%TA.AperFunction,SMDPad,CuDef*%
%ADD11RoundRect,0.918882X3.394057X-2.144058X3.394057X2.144058X-3.394057X2.144058X-3.394057X-2.144058X0*%
%TD*%
%TA.AperFunction,SMDPad,CuDef*%
%ADD12RoundRect,0.975000X3.302430X-2.274999X3.302430X2.274999X-3.302430X2.274999X-3.302430X-2.274999X0*%
%TD*%
%TA.AperFunction,SMDPad,CuDef*%
%ADD13RoundRect,0.975000X3.342491X-2.275000X3.342491X2.275000X-3.342491X2.275000X-3.342491X-2.275000X0*%
%TD*%
%TA.AperFunction,SMDPad,CuDef*%
%ADD14RoundRect,1.650000X-5.850000X3.850000X-5.850000X-3.850000X5.850000X-3.850000X5.850000X3.850000X0*%
%TD*%
%TA.AperFunction,SMDPad,CuDef*%
%ADD15RoundRect,0.918882X-3.394057X2.144058X-3.394057X-2.144058X3.394057X-2.144058X3.394057X2.144058X0*%
%TD*%
%TA.AperFunction,SMDPad,CuDef*%
%ADD16RoundRect,0.975000X-3.302430X2.274999X-3.302430X-2.274999X3.302430X-2.274999X3.302430X2.274999X0*%
%TD*%
%TA.AperFunction,SMDPad,CuDef*%
%ADD17RoundRect,0.975000X-3.342491X2.275000X-3.342491X-2.275000X3.342491X-2.275000X3.342491X2.275000X0*%
%TD*%
%TA.AperFunction,ComponentPad*%
%ADD18R,1.700000X1.700000*%
%TD*%
%TA.AperFunction,ComponentPad*%
%ADD19C,1.700000*%
%TD*%
%TA.AperFunction,ViaPad*%
%ADD20C,0.600000*%
%TD*%
%TA.AperFunction,Conductor*%
%ADD21C,0.200000*%
%TD*%
%TA.AperFunction,Conductor*%
%ADD22C,5.000000*%
%TD*%
G04 APERTURE END LIST*
D10*
%TO.P,SC3,1,+*%
%TO.N,Net-(SC1--)*%
X145209000Y-93900000D03*
D11*
%TO.P,SC3,2,-*%
%TO.N,Net-(SC3--)*%
X142026000Y-152400000D03*
D12*
X142026000Y-131900000D03*
D13*
X142026000Y-111900000D03*
%TD*%
D10*
%TO.P,SC2,1,+*%
%TO.N,/V_SOLAR*%
X63250000Y-93900000D03*
D11*
%TO.P,SC2,2,-*%
%TO.N,Net-(SC1-+)*%
X60067000Y-152400000D03*
D12*
X60067000Y-131900000D03*
D13*
X60067000Y-111900000D03*
%TD*%
D10*
%TO.P,SC6,1,+*%
%TO.N,Net-(SC5--)*%
X288766000Y-93900000D03*
D11*
%TO.P,SC6,2,-*%
%TO.N,Net-(SC6--)*%
X285583000Y-152400000D03*
D12*
X285583000Y-131900000D03*
D13*
X285583000Y-111900000D03*
%TD*%
D14*
%TO.P,SC4,1,+*%
%TO.N,Net-(SC3--)*%
X209182500Y-161887000D03*
D15*
%TO.P,SC4,2,-*%
%TO.N,Net-(SC4--)*%
X212365500Y-103387000D03*
D16*
X212365500Y-123887000D03*
D17*
X212365500Y-143887000D03*
%TD*%
D14*
%TO.P,SC5,1,+*%
%TO.N,Net-(SC4--)*%
X270766442Y-161887000D03*
D15*
%TO.P,SC5,2,-*%
%TO.N,Net-(SC5--)*%
X273949442Y-103387000D03*
D16*
X273949442Y-123887000D03*
D17*
X273949442Y-143887000D03*
%TD*%
D14*
%TO.P,SC7,1,+*%
%TO.N,Net-(SC6--)*%
X352740000Y-161887000D03*
D15*
%TO.P,SC7,2,-*%
%TO.N,GND*%
X355923000Y-103387000D03*
D16*
X355923000Y-123887000D03*
D17*
X355923000Y-143887000D03*
%TD*%
D14*
%TO.P,SC1,1,+*%
%TO.N,Net-(SC1-+)*%
X127224000Y-161887000D03*
D15*
%TO.P,SC1,2,-*%
%TO.N,Net-(SC1--)*%
X130407000Y-103387000D03*
D16*
X130407000Y-123887000D03*
D17*
X130407000Y-143887000D03*
%TD*%
D18*
%TO.P,M1,1,+*%
%TO.N,/5V_BAT*%
X168300000Y-90550000D03*
D19*
%TO.P,M1,2,-*%
X168300000Y-93090000D03*
%TD*%
D20*
%TO.N,GND*%
X94443171Y-129993171D03*
X89180000Y-133230000D03*
X312380000Y-127210000D03*
X162450000Y-127130000D03*
X95713162Y-127363162D03*
X122300000Y-129910000D03*
X107990000Y-128970000D03*
X88710000Y-124210000D03*
X262200000Y-129290000D03*
X115210000Y-133430000D03*
X89530000Y-122540000D03*
X102870000Y-132750000D03*
X98860000Y-123820000D03*
X218462500Y-127542500D03*
X91251217Y-121649999D03*
X96000000Y-123870000D03*
%TO.N,/V_SOLAR*%
X99340000Y-128500000D03*
X97331000Y-127520000D03*
X109680000Y-131020000D03*
X91250000Y-130930000D03*
X89710000Y-130010000D03*
X103250000Y-130190000D03*
X72874006Y-99575994D03*
%TO.N,/3.3V_Batt*%
X222070000Y-129678500D03*
X164560000Y-129436000D03*
X164970000Y-130620000D03*
X257910000Y-128430000D03*
X107487500Y-131532500D03*
X109480000Y-127629000D03*
X221530000Y-130920000D03*
X259300000Y-127010000D03*
%TO.N,Net-(U50-SW2)*%
X90760000Y-124510000D03*
X88010000Y-123810000D03*
%TO.N,Net-(U50-FB)*%
X93385001Y-124740961D03*
X94054736Y-126309000D03*
%TO.N,/IC_I2C_SCL*%
X85570000Y-123126000D03*
X96620000Y-121110000D03*
X126560000Y-133500000D03*
X126860000Y-132420000D03*
%TO.N,/5V_BAT*%
X200800000Y-117000000D03*
%TO.N,/VSOLAR_1*%
X64830000Y-141040000D03*
X110940000Y-131030000D03*
%TO.N,/IC_I2C_SDA*%
X100221967Y-125678033D03*
X94927168Y-122392832D03*
X99375980Y-126359398D03*
%TD*%
D21*
%TO.N,/V_SOLAR*%
X89710000Y-130010000D02*
X89750000Y-130050000D01*
X105133500Y-132073500D02*
X103250000Y-130190000D01*
X98311000Y-128500000D02*
X97331000Y-127520000D01*
X90370000Y-130050000D02*
X91250000Y-130930000D01*
X89750000Y-130050000D02*
X90370000Y-130050000D01*
X108626500Y-132073500D02*
X105133500Y-132073500D01*
X72874006Y-99575994D02*
X72070000Y-98771988D01*
X99340000Y-128500000D02*
X98311000Y-128500000D01*
X109680000Y-131020000D02*
X108626500Y-132073500D01*
X72050000Y-93900000D02*
X63250000Y-93900000D01*
X72070000Y-93920000D02*
X72050000Y-93900000D01*
X72070000Y-98771988D02*
X72070000Y-93920000D01*
%TO.N,/3.3V_Batt*%
X109480000Y-127629000D02*
X109480000Y-129540000D01*
X164970000Y-130620000D02*
X164970000Y-129846000D01*
X109480000Y-129540000D02*
X107487500Y-131532500D01*
X164970000Y-129846000D02*
X164560000Y-129436000D01*
X221530000Y-130218500D02*
X222070000Y-129678500D01*
X257910000Y-128430000D02*
X257910000Y-128400000D01*
X257910000Y-128400000D02*
X259300000Y-127010000D01*
X221530000Y-130920000D02*
X221530000Y-130218500D01*
D22*
%TO.N,Net-(SC1--)*%
X139894000Y-93900000D02*
X130407000Y-103387000D01*
X145209000Y-93900000D02*
X139894000Y-93900000D01*
X130407000Y-103387000D02*
X130407000Y-143887000D01*
%TO.N,Net-(SC1-+)*%
X69554000Y-161887000D02*
X60067000Y-152400000D01*
X127224000Y-161887000D02*
X69554000Y-161887000D01*
X60067000Y-152400000D02*
X60067000Y-111900000D01*
%TO.N,Net-(SC3--)*%
X151513000Y-161887000D02*
X142026000Y-152400000D01*
X209182500Y-161887000D02*
X151513000Y-161887000D01*
X142026000Y-152400000D02*
X142026000Y-111900000D01*
%TO.N,Net-(SC4--)*%
X270766442Y-161887000D02*
X230365500Y-161887000D01*
X212365500Y-143887000D02*
X212365500Y-103387000D01*
X230365500Y-161887000D02*
X212365500Y-143887000D01*
%TO.N,Net-(SC5--)*%
X273949442Y-103387000D02*
X273949442Y-143887000D01*
X283436442Y-93900000D02*
X273949442Y-103387000D01*
X288766000Y-93900000D02*
X283436442Y-93900000D01*
%TO.N,Net-(SC6--)*%
X352740000Y-161887000D02*
X295070000Y-161887000D01*
X285583000Y-111900000D02*
X285583000Y-152400000D01*
X295070000Y-161887000D02*
X285583000Y-152400000D01*
D21*
%TO.N,Net-(U50-SW2)*%
X89919000Y-123669000D02*
X88151000Y-123669000D01*
X90760000Y-124510000D02*
X89919000Y-123669000D01*
%TO.N,Net-(U50-FB)*%
X94054736Y-126309000D02*
X94054736Y-125410696D01*
X94054736Y-125410696D02*
X93385001Y-124740961D01*
%TO.N,/IC_I2C_SCL*%
X126860000Y-133200000D02*
X126560000Y-133500000D01*
X126860000Y-132420000D02*
X126860000Y-133200000D01*
X87586000Y-121110000D02*
X96620000Y-121110000D01*
X85570000Y-123126000D02*
X87586000Y-121110000D01*
%TO.N,/VSOLAR_1*%
X100930000Y-141040000D02*
X64830000Y-141040000D01*
X110940000Y-131030000D02*
X100930000Y-141040000D01*
%TO.N,/IC_I2C_SDA*%
X99540602Y-126359398D02*
X100221967Y-125678033D01*
X99739721Y-125678033D02*
X100221967Y-125678033D01*
X94927168Y-122392832D02*
X96454520Y-122392832D01*
X99375980Y-126359398D02*
X99540602Y-126359398D01*
X96454520Y-122392832D02*
X99739721Y-125678033D01*
%TD*%
%TA.AperFunction,Conductor*%
%TO.N,GND*%
G36*
X56255572Y-88020185D02*
G01*
X56301327Y-88072989D01*
X56311271Y-88142147D01*
X56282246Y-88205703D01*
X56256541Y-88228186D01*
X56097555Y-88332464D01*
X56097553Y-88332466D01*
X55875814Y-88525814D01*
X55682466Y-88747553D01*
X55682464Y-88747555D01*
X55521115Y-88993551D01*
X55394766Y-89259227D01*
X55394764Y-89259232D01*
X55394762Y-89259237D01*
X55323411Y-89484044D01*
X55305763Y-89539648D01*
X55305762Y-89539652D01*
X55255775Y-89829568D01*
X55255775Y-89829571D01*
X55249500Y-89951951D01*
X55249500Y-97848048D01*
X55255775Y-97970428D01*
X55255775Y-97970431D01*
X55305762Y-98260347D01*
X55305763Y-98260352D01*
X55394762Y-98540763D01*
X55394764Y-98540767D01*
X55394766Y-98540772D01*
X55521115Y-98806448D01*
X55682464Y-99052444D01*
X55682466Y-99052446D01*
X55682467Y-99052447D01*
X55875814Y-99274186D01*
X56097553Y-99467533D01*
X56097555Y-99467535D01*
X56343551Y-99628884D01*
X56343554Y-99628885D01*
X56343555Y-99628886D01*
X56609237Y-99755238D01*
X56889648Y-99844237D01*
X57179567Y-99894224D01*
X57201828Y-99895365D01*
X57301951Y-99900499D01*
X57301977Y-99900499D01*
X57301984Y-99900500D01*
X57301990Y-99900500D01*
X69198010Y-99900500D01*
X69198016Y-99900500D01*
X69198022Y-99900499D01*
X69198048Y-99900499D01*
X69285451Y-99896017D01*
X69320433Y-99894224D01*
X69610352Y-99844237D01*
X69890763Y-99755238D01*
X70156445Y-99628886D01*
X70402447Y-99467533D01*
X70624186Y-99274186D01*
X70817533Y-99052447D01*
X70978886Y-98806445D01*
X71105238Y-98540763D01*
X71194237Y-98260352D01*
X71223303Y-98091771D01*
X71254092Y-98029052D01*
X71313903Y-97992934D01*
X71383745Y-97994886D01*
X71441445Y-98034288D01*
X71468683Y-98098630D01*
X71469500Y-98112841D01*
X71469500Y-98685318D01*
X71469499Y-98685336D01*
X71469499Y-98851042D01*
X71469498Y-98851042D01*
X71469499Y-98851045D01*
X71510423Y-99003773D01*
X71538525Y-99052447D01*
X71538525Y-99052448D01*
X71589475Y-99140697D01*
X71589481Y-99140705D01*
X71708349Y-99259573D01*
X71708355Y-99259578D01*
X72039431Y-99590654D01*
X72072916Y-99651977D01*
X72073367Y-99654143D01*
X72104267Y-99809485D01*
X72104270Y-99809495D01*
X72164608Y-99955166D01*
X72164615Y-99955179D01*
X72252216Y-100086282D01*
X72252219Y-100086286D01*
X72363713Y-100197780D01*
X72363717Y-100197783D01*
X72494820Y-100285384D01*
X72494833Y-100285391D01*
X72640504Y-100345729D01*
X72640509Y-100345731D01*
X72795159Y-100376493D01*
X72795162Y-100376494D01*
X72795164Y-100376494D01*
X72952850Y-100376494D01*
X72952851Y-100376493D01*
X73107503Y-100345731D01*
X73253185Y-100285388D01*
X73384295Y-100197783D01*
X73495795Y-100086283D01*
X73583400Y-99955173D01*
X73643743Y-99809491D01*
X73674506Y-99654836D01*
X73674506Y-99497152D01*
X73674506Y-99497149D01*
X73674505Y-99497147D01*
X73643744Y-99342504D01*
X73643743Y-99342497D01*
X73615448Y-99274186D01*
X73583403Y-99196821D01*
X73583396Y-99196808D01*
X73495795Y-99065705D01*
X73495792Y-99065701D01*
X73384298Y-98954207D01*
X73384294Y-98954204D01*
X73253191Y-98866603D01*
X73253178Y-98866596D01*
X73107507Y-98806258D01*
X73107497Y-98806255D01*
X72952155Y-98775355D01*
X72890244Y-98742970D01*
X72888666Y-98741419D01*
X72706819Y-98559572D01*
X72673334Y-98498249D01*
X72670500Y-98471891D01*
X72670500Y-93840945D01*
X72670500Y-93840943D01*
X72629577Y-93688216D01*
X72629577Y-93688215D01*
X72629577Y-93688214D01*
X72600639Y-93638095D01*
X72600637Y-93638092D01*
X72550520Y-93551284D01*
X72418717Y-93419481D01*
X72418716Y-93419480D01*
X72331904Y-93369360D01*
X72331904Y-93369359D01*
X72331900Y-93369358D01*
X72281785Y-93340423D01*
X72129057Y-93299499D01*
X71970943Y-93299499D01*
X71963347Y-93299499D01*
X71963331Y-93299500D01*
X71374500Y-93299500D01*
X71307461Y-93279815D01*
X71261706Y-93227011D01*
X71250500Y-93175500D01*
X71250500Y-90489041D01*
X131199500Y-90489041D01*
X131199500Y-90770958D01*
X131236295Y-91050439D01*
X131309259Y-91322743D01*
X131417135Y-91583179D01*
X131417140Y-91583190D01*
X131558083Y-91827309D01*
X131558088Y-91827317D01*
X131717718Y-92035350D01*
X131729704Y-92050970D01*
X131929029Y-92250295D01*
X131929033Y-92250298D01*
X131929035Y-92250300D01*
X132152683Y-92421912D01*
X132152690Y-92421916D01*
X132396809Y-92562859D01*
X132396814Y-92562861D01*
X132396817Y-92562863D01*
X132657261Y-92670742D01*
X132929558Y-92743704D01*
X133209049Y-92780500D01*
X133209056Y-92780500D01*
X133490944Y-92780500D01*
X133490951Y-92780500D01*
X133770442Y-92743704D01*
X134042739Y-92670742D01*
X134303183Y-92562863D01*
X134547317Y-92421912D01*
X134770965Y-92250300D01*
X134970300Y-92050965D01*
X135141912Y-91827317D01*
X135282863Y-91583183D01*
X135390742Y-91322739D01*
X135463704Y-91050442D01*
X135500500Y-90770951D01*
X135500500Y-90489049D01*
X135463704Y-90209558D01*
X135390742Y-89937261D01*
X135282863Y-89676817D01*
X135282861Y-89676814D01*
X135282859Y-89676809D01*
X135141916Y-89432690D01*
X135141912Y-89432683D01*
X134970300Y-89209035D01*
X134970298Y-89209033D01*
X134970295Y-89209029D01*
X134770970Y-89009704D01*
X134770965Y-89009700D01*
X134547317Y-88838088D01*
X134547311Y-88838084D01*
X134547309Y-88838083D01*
X134303190Y-88697140D01*
X134303179Y-88697135D01*
X134042743Y-88589259D01*
X133770439Y-88516295D01*
X133490958Y-88479500D01*
X133490951Y-88479500D01*
X133209049Y-88479500D01*
X133209041Y-88479500D01*
X132929560Y-88516295D01*
X132657256Y-88589259D01*
X132396820Y-88697135D01*
X132396809Y-88697140D01*
X132152690Y-88838083D01*
X132152682Y-88838089D01*
X131929029Y-89009704D01*
X131729704Y-89209029D01*
X131558089Y-89432682D01*
X131558083Y-89432690D01*
X131417140Y-89676809D01*
X131417135Y-89676820D01*
X131309259Y-89937256D01*
X131236295Y-90209560D01*
X131199500Y-90489041D01*
X71250500Y-90489041D01*
X71250500Y-89951990D01*
X71250499Y-89951951D01*
X71244224Y-89829571D01*
X71244224Y-89829568D01*
X71244224Y-89829567D01*
X71194237Y-89539648D01*
X71105238Y-89259237D01*
X70978886Y-88993555D01*
X70978885Y-88993554D01*
X70978884Y-88993551D01*
X70817535Y-88747555D01*
X70817533Y-88747553D01*
X70773572Y-88697137D01*
X70624186Y-88525814D01*
X70402447Y-88332467D01*
X70402446Y-88332466D01*
X70402444Y-88332464D01*
X70243459Y-88228186D01*
X70198198Y-88174959D01*
X70188899Y-88105710D01*
X70218515Y-88042428D01*
X70277642Y-88005203D01*
X70311467Y-88000500D01*
X138147533Y-88000500D01*
X138214572Y-88020185D01*
X138260327Y-88072989D01*
X138270271Y-88142147D01*
X138241246Y-88205703D01*
X138215541Y-88228186D01*
X138056555Y-88332464D01*
X138056553Y-88332466D01*
X137834814Y-88525814D01*
X137641466Y-88747553D01*
X137641464Y-88747555D01*
X137480115Y-88993551D01*
X137353766Y-89259227D01*
X137353764Y-89259232D01*
X137353762Y-89259237D01*
X137282411Y-89484044D01*
X137264763Y-89539648D01*
X137264762Y-89539652D01*
X137214775Y-89829568D01*
X137214775Y-89829571D01*
X137208500Y-89951951D01*
X137208500Y-92290790D01*
X137188815Y-92357829D01*
X137172181Y-92378471D01*
X129763412Y-99787240D01*
X129702089Y-99820725D01*
X129675731Y-99823559D01*
X126916329Y-99823559D01*
X126916322Y-99823559D01*
X126916297Y-99823560D01*
X126862033Y-99826443D01*
X126862029Y-99826443D01*
X126624822Y-99872319D01*
X126398764Y-99957629D01*
X126190380Y-100079914D01*
X126190373Y-100079919D01*
X126005660Y-100235655D01*
X126005657Y-100235658D01*
X125849921Y-100420371D01*
X125849916Y-100420378D01*
X125727631Y-100628762D01*
X125642321Y-100854820D01*
X125596445Y-101092027D01*
X125596445Y-101092031D01*
X125593562Y-101146295D01*
X125593561Y-101146333D01*
X125593561Y-105627666D01*
X125593562Y-105627704D01*
X125596445Y-105681968D01*
X125596445Y-105681972D01*
X125642321Y-105919179D01*
X125727631Y-106145237D01*
X125849916Y-106353621D01*
X125849921Y-106353628D01*
X126005657Y-106538341D01*
X126005660Y-106538344D01*
X126190373Y-106694080D01*
X126190380Y-106694085D01*
X126398764Y-106816370D01*
X126624817Y-106901679D01*
X126862036Y-106947557D01*
X126916329Y-106950441D01*
X127282500Y-106950441D01*
X127349539Y-106970126D01*
X127395294Y-107022930D01*
X127406500Y-107074441D01*
X127406500Y-120012501D01*
X127386815Y-120079540D01*
X127334011Y-120125295D01*
X127282500Y-120136501D01*
X127023111Y-120136501D01*
X126921437Y-120142813D01*
X126921433Y-120142814D01*
X126796986Y-120168907D01*
X126682113Y-120192994D01*
X126682109Y-120192995D01*
X126682101Y-120192997D01*
X126454315Y-120281881D01*
X126454311Y-120281883D01*
X126244258Y-120407048D01*
X126244253Y-120407051D01*
X126244253Y-120407052D01*
X126148428Y-120488211D01*
X126057658Y-120565089D01*
X125899617Y-120751689D01*
X125774452Y-120961742D01*
X125774450Y-120961746D01*
X125685566Y-121189532D01*
X125685564Y-121189540D01*
X125685563Y-121189544D01*
X125661476Y-121304417D01*
X125635383Y-121428864D01*
X125635382Y-121428868D01*
X125629070Y-121530542D01*
X125629070Y-126243457D01*
X125635382Y-126345131D01*
X125635383Y-126345135D01*
X125644338Y-126387842D01*
X125685563Y-126584456D01*
X125685564Y-126584460D01*
X125685566Y-126584467D01*
X125774450Y-126812253D01*
X125774452Y-126812257D01*
X125897285Y-127018397D01*
X125899621Y-127022316D01*
X126057658Y-127208911D01*
X126244253Y-127366948D01*
X126454314Y-127492118D01*
X126526507Y-127520288D01*
X126682101Y-127581002D01*
X126682104Y-127581002D01*
X126682113Y-127581006D01*
X126921436Y-127631186D01*
X127023118Y-127637499D01*
X127282500Y-127637499D01*
X127349539Y-127657184D01*
X127395294Y-127709988D01*
X127406500Y-127761499D01*
X127406500Y-131594333D01*
X127386815Y-131661372D01*
X127334011Y-131707127D01*
X127264853Y-131717071D01*
X127235048Y-131708894D01*
X127093501Y-131650264D01*
X127093489Y-131650261D01*
X126938845Y-131619500D01*
X126938842Y-131619500D01*
X126781158Y-131619500D01*
X126781155Y-131619500D01*
X126626510Y-131650261D01*
X126626498Y-131650264D01*
X126480827Y-131710602D01*
X126480814Y-131710609D01*
X126349711Y-131798210D01*
X126349707Y-131798213D01*
X126238213Y-131909707D01*
X126238210Y-131909711D01*
X126150609Y-132040814D01*
X126150602Y-132040827D01*
X126090264Y-132186498D01*
X126090261Y-132186510D01*
X126059500Y-132341153D01*
X126059500Y-132498846D01*
X126090261Y-132653489D01*
X126090264Y-132653501D01*
X126115431Y-132714259D01*
X126122900Y-132783728D01*
X126091625Y-132846207D01*
X126069766Y-132864810D01*
X126049708Y-132878213D01*
X126049704Y-132878217D01*
X125938213Y-132989707D01*
X125938210Y-132989711D01*
X125850609Y-133120814D01*
X125850602Y-133120827D01*
X125790264Y-133266498D01*
X125790261Y-133266510D01*
X125759500Y-133421153D01*
X125759500Y-133578846D01*
X125790261Y-133733489D01*
X125790264Y-133733501D01*
X125850602Y-133879172D01*
X125850609Y-133879185D01*
X125938210Y-134010288D01*
X125938213Y-134010292D01*
X126049707Y-134121786D01*
X126049711Y-134121789D01*
X126180814Y-134209390D01*
X126180827Y-134209397D01*
X126294442Y-134256457D01*
X126326503Y-134269737D01*
X126481153Y-134300499D01*
X126481156Y-134300500D01*
X126481158Y-134300500D01*
X126638844Y-134300500D01*
X126638845Y-134300499D01*
X126793497Y-134269737D01*
X126939179Y-134209394D01*
X127070289Y-134121789D01*
X127181789Y-134010289D01*
X127181791Y-134010285D01*
X127185653Y-134005581D01*
X127187504Y-134007100D01*
X127232979Y-133969076D01*
X127302302Y-133960349D01*
X127365338Y-133990487D01*
X127402073Y-134049920D01*
X127406500Y-134082758D01*
X127406500Y-140012500D01*
X127386815Y-140079539D01*
X127334011Y-140125294D01*
X127282500Y-140136500D01*
X126983050Y-140136500D01*
X126881376Y-140142812D01*
X126881372Y-140142813D01*
X126756925Y-140168906D01*
X126642052Y-140192993D01*
X126642048Y-140192994D01*
X126642040Y-140192996D01*
X126414254Y-140281880D01*
X126414250Y-140281882D01*
X126204197Y-140407047D01*
X126204192Y-140407050D01*
X126204192Y-140407051D01*
X126059372Y-140529707D01*
X126017597Y-140565088D01*
X125859556Y-140751688D01*
X125734391Y-140961741D01*
X125734389Y-140961745D01*
X125645505Y-141189531D01*
X125645503Y-141189539D01*
X125645502Y-141189543D01*
X125627901Y-141273489D01*
X125595322Y-141428863D01*
X125595321Y-141428867D01*
X125589009Y-141530541D01*
X125589009Y-146243458D01*
X125595321Y-146345132D01*
X125595322Y-146345134D01*
X125645502Y-146584457D01*
X125645503Y-146584461D01*
X125645505Y-146584468D01*
X125734389Y-146812254D01*
X125734390Y-146812256D01*
X125859560Y-147022317D01*
X126017597Y-147208912D01*
X126204192Y-147366949D01*
X126414253Y-147492119D01*
X126497117Y-147524452D01*
X126642040Y-147581003D01*
X126642043Y-147581003D01*
X126642052Y-147581007D01*
X126881375Y-147631187D01*
X126983057Y-147637500D01*
X126983068Y-147637500D01*
X133830932Y-147637500D01*
X133830943Y-147637500D01*
X133932625Y-147631187D01*
X134171948Y-147581007D01*
X134171957Y-147581003D01*
X134171959Y-147581003D01*
X134234018Y-147556786D01*
X134399747Y-147492119D01*
X134609808Y-147366949D01*
X134796403Y-147208912D01*
X134954440Y-147022317D01*
X135079610Y-146812256D01*
X135168498Y-146584457D01*
X135218678Y-146345134D01*
X135224991Y-146243452D01*
X135224991Y-141530548D01*
X135218678Y-141428866D01*
X135168498Y-141189543D01*
X135168494Y-141189534D01*
X135168494Y-141189531D01*
X135079610Y-140961745D01*
X135079608Y-140961741D01*
X134954443Y-140751688D01*
X134954442Y-140751687D01*
X134954440Y-140751683D01*
X134796403Y-140565088D01*
X134609808Y-140407051D01*
X134609803Y-140407048D01*
X134609802Y-140407047D01*
X134399749Y-140281882D01*
X134399745Y-140281880D01*
X134171959Y-140192996D01*
X134171952Y-140192994D01*
X134171948Y-140192993D01*
X134015591Y-140160208D01*
X133932627Y-140142813D01*
X133932623Y-140142812D01*
X133830949Y-140136500D01*
X133830943Y-140136500D01*
X133531500Y-140136500D01*
X133464461Y-140116815D01*
X133418706Y-140064011D01*
X133407500Y-140012500D01*
X133407500Y-127761499D01*
X133427185Y-127694460D01*
X133479989Y-127648705D01*
X133531500Y-127637499D01*
X133790871Y-127637499D01*
X133790882Y-127637499D01*
X133892564Y-127631186D01*
X134131887Y-127581006D01*
X134131896Y-127581002D01*
X134131898Y-127581002D01*
X134210956Y-127550153D01*
X134359686Y-127492118D01*
X134569747Y-127366948D01*
X134756342Y-127208911D01*
X134914379Y-127022316D01*
X135039549Y-126812255D01*
X135111881Y-126626885D01*
X135128433Y-126584467D01*
X135128433Y-126584465D01*
X135128437Y-126584456D01*
X135178617Y-126345133D01*
X135184930Y-126243451D01*
X135184930Y-121530549D01*
X135178617Y-121428867D01*
X135128437Y-121189544D01*
X135128433Y-121189535D01*
X135128433Y-121189532D01*
X135039549Y-120961746D01*
X135039547Y-120961742D01*
X134914382Y-120751689D01*
X134914381Y-120751688D01*
X134914379Y-120751684D01*
X134756342Y-120565089D01*
X134569747Y-120407052D01*
X134569742Y-120407049D01*
X134569741Y-120407048D01*
X134359688Y-120281883D01*
X134359684Y-120281881D01*
X134131898Y-120192997D01*
X134131891Y-120192995D01*
X134131887Y-120192994D01*
X133975530Y-120160209D01*
X133892566Y-120142814D01*
X133892562Y-120142813D01*
X133790888Y-120136501D01*
X133790882Y-120136501D01*
X133531500Y-120136501D01*
X133464461Y-120116816D01*
X133418706Y-120064012D01*
X133407500Y-120012501D01*
X133407500Y-107074441D01*
X133427185Y-107007402D01*
X133479989Y-106961647D01*
X133531500Y-106950441D01*
X133897664Y-106950441D01*
X133897671Y-106950441D01*
X133951964Y-106947557D01*
X133951969Y-106947556D01*
X133951970Y-106947556D01*
X134070573Y-106924618D01*
X134189183Y-106901679D01*
X134415236Y-106816370D01*
X134623620Y-106694085D01*
X134808341Y-106538343D01*
X134964083Y-106353622D01*
X135086368Y-106145238D01*
X135171677Y-105919185D01*
X135217555Y-105681966D01*
X135220439Y-105627673D01*
X135220439Y-102868270D01*
X135240124Y-102801231D01*
X135256753Y-102780594D01*
X138312437Y-99724909D01*
X138373758Y-99691426D01*
X138443450Y-99696410D01*
X138453372Y-99700611D01*
X138568223Y-99755232D01*
X138568230Y-99755235D01*
X138568232Y-99755235D01*
X138568237Y-99755238D01*
X138848648Y-99844237D01*
X139138567Y-99894224D01*
X139160828Y-99895365D01*
X139260951Y-99900499D01*
X139260977Y-99900499D01*
X139260984Y-99900500D01*
X139260990Y-99900500D01*
X151157010Y-99900500D01*
X151157016Y-99900500D01*
X151157022Y-99900499D01*
X151157048Y-99900499D01*
X151244451Y-99896017D01*
X151279433Y-99894224D01*
X151569352Y-99844237D01*
X151849763Y-99755238D01*
X152115445Y-99628886D01*
X152361447Y-99467533D01*
X152583186Y-99274186D01*
X152776533Y-99052447D01*
X152937886Y-98806445D01*
X153064238Y-98540763D01*
X153153237Y-98260352D01*
X153203224Y-97970433D01*
X153205017Y-97935451D01*
X153209499Y-97848048D01*
X153209500Y-97848009D01*
X153209500Y-89951990D01*
X153209499Y-89951951D01*
X153203224Y-89829571D01*
X153203224Y-89829569D01*
X153203224Y-89829567D01*
X153172632Y-89652135D01*
X166949500Y-89652135D01*
X166949500Y-91447870D01*
X166949501Y-91447876D01*
X166955908Y-91507483D01*
X167006202Y-91642328D01*
X167006206Y-91642335D01*
X167092452Y-91757544D01*
X167092455Y-91757547D01*
X167207664Y-91843793D01*
X167207671Y-91843797D01*
X167339082Y-91892810D01*
X167395016Y-91934681D01*
X167419433Y-92000145D01*
X167404582Y-92068418D01*
X167383431Y-92096673D01*
X167269889Y-92210215D01*
X167144951Y-92382179D01*
X167048444Y-92571585D01*
X166982753Y-92773760D01*
X166949500Y-92983713D01*
X166949500Y-93196287D01*
X166982754Y-93406243D01*
X166993553Y-93439480D01*
X167048444Y-93608414D01*
X167144951Y-93797820D01*
X167269890Y-93969786D01*
X167420213Y-94120109D01*
X167592179Y-94245048D01*
X167592181Y-94245049D01*
X167592184Y-94245051D01*
X167781588Y-94341557D01*
X167983757Y-94407246D01*
X168193713Y-94440500D01*
X168193714Y-94440500D01*
X168406286Y-94440500D01*
X168406287Y-94440500D01*
X168616243Y-94407246D01*
X168818412Y-94341557D01*
X169007816Y-94245051D01*
X169029789Y-94229086D01*
X169179786Y-94120109D01*
X169179788Y-94120106D01*
X169179792Y-94120104D01*
X169330104Y-93969792D01*
X169330106Y-93969788D01*
X169330109Y-93969786D01*
X169455048Y-93797820D01*
X169455047Y-93797820D01*
X169455051Y-93797816D01*
X169551557Y-93608412D01*
X169617246Y-93406243D01*
X169650500Y-93196287D01*
X169650500Y-92983713D01*
X169617246Y-92773757D01*
X169551557Y-92571588D01*
X169455051Y-92382184D01*
X169455049Y-92382181D01*
X169455048Y-92382179D01*
X169330109Y-92210213D01*
X169216569Y-92096673D01*
X169183084Y-92035350D01*
X169188068Y-91965658D01*
X169229940Y-91909725D01*
X169260915Y-91892810D01*
X169392331Y-91843796D01*
X169507546Y-91757546D01*
X169593796Y-91642331D01*
X169644091Y-91507483D01*
X169650500Y-91447873D01*
X169650499Y-90489041D01*
X274099500Y-90489041D01*
X274099500Y-90770958D01*
X274136295Y-91050439D01*
X274209259Y-91322743D01*
X274317135Y-91583179D01*
X274317140Y-91583190D01*
X274458083Y-91827309D01*
X274458088Y-91827317D01*
X274617718Y-92035350D01*
X274629704Y-92050970D01*
X274829029Y-92250295D01*
X274829033Y-92250298D01*
X274829035Y-92250300D01*
X275052683Y-92421912D01*
X275052690Y-92421916D01*
X275296809Y-92562859D01*
X275296814Y-92562861D01*
X275296817Y-92562863D01*
X275557261Y-92670742D01*
X275829558Y-92743704D01*
X276109049Y-92780500D01*
X276109056Y-92780500D01*
X276390944Y-92780500D01*
X276390951Y-92780500D01*
X276670442Y-92743704D01*
X276942739Y-92670742D01*
X277203183Y-92562863D01*
X277447317Y-92421912D01*
X277670965Y-92250300D01*
X277870300Y-92050965D01*
X278041912Y-91827317D01*
X278182863Y-91583183D01*
X278290742Y-91322739D01*
X278363704Y-91050442D01*
X278400500Y-90770951D01*
X278400500Y-90489049D01*
X278363704Y-90209558D01*
X278290742Y-89937261D01*
X278182863Y-89676817D01*
X278182861Y-89676814D01*
X278182859Y-89676809D01*
X278041916Y-89432690D01*
X278041912Y-89432683D01*
X277870300Y-89209035D01*
X277870298Y-89209033D01*
X277870295Y-89209029D01*
X277670970Y-89009704D01*
X277670965Y-89009700D01*
X277447317Y-88838088D01*
X277447311Y-88838084D01*
X277447309Y-88838083D01*
X277203190Y-88697140D01*
X277203179Y-88697135D01*
X276942743Y-88589259D01*
X276670439Y-88516295D01*
X276390958Y-88479500D01*
X276390951Y-88479500D01*
X276109049Y-88479500D01*
X276109041Y-88479500D01*
X275829560Y-88516295D01*
X275557256Y-88589259D01*
X275296820Y-88697135D01*
X275296809Y-88697140D01*
X275052690Y-88838083D01*
X275052682Y-88838089D01*
X274829029Y-89009704D01*
X274629704Y-89209029D01*
X274458089Y-89432682D01*
X274458083Y-89432690D01*
X274317140Y-89676809D01*
X274317135Y-89676820D01*
X274209259Y-89937256D01*
X274136295Y-90209560D01*
X274099500Y-90489041D01*
X169650499Y-90489041D01*
X169650499Y-89652128D01*
X169644091Y-89592517D01*
X169624373Y-89539651D01*
X169593797Y-89457671D01*
X169593793Y-89457664D01*
X169507547Y-89342455D01*
X169507544Y-89342452D01*
X169392335Y-89256206D01*
X169392328Y-89256202D01*
X169257482Y-89205908D01*
X169257483Y-89205908D01*
X169197883Y-89199501D01*
X169197881Y-89199500D01*
X169197873Y-89199500D01*
X169197864Y-89199500D01*
X167402129Y-89199500D01*
X167402123Y-89199501D01*
X167342516Y-89205908D01*
X167207671Y-89256202D01*
X167207664Y-89256206D01*
X167092455Y-89342452D01*
X167092452Y-89342455D01*
X167006206Y-89457664D01*
X167006202Y-89457671D01*
X166955908Y-89592517D01*
X166949501Y-89652116D01*
X166949501Y-89652123D01*
X166949500Y-89652135D01*
X153172632Y-89652135D01*
X153153237Y-89539648D01*
X153064238Y-89259237D01*
X152937886Y-88993555D01*
X152937885Y-88993554D01*
X152937884Y-88993551D01*
X152776535Y-88747555D01*
X152776533Y-88747553D01*
X152732572Y-88697137D01*
X152583186Y-88525814D01*
X152361447Y-88332467D01*
X152361446Y-88332466D01*
X152361444Y-88332464D01*
X152202459Y-88228186D01*
X152157198Y-88174959D01*
X152147899Y-88105710D01*
X152177515Y-88042428D01*
X152236642Y-88005203D01*
X152270467Y-88000500D01*
X281704533Y-88000500D01*
X281771572Y-88020185D01*
X281817327Y-88072989D01*
X281827271Y-88142147D01*
X281798246Y-88205703D01*
X281772541Y-88228186D01*
X281613555Y-88332464D01*
X281613553Y-88332466D01*
X281391814Y-88525814D01*
X281198466Y-88747553D01*
X281198464Y-88747555D01*
X281037115Y-88993551D01*
X280910766Y-89259227D01*
X280910764Y-89259232D01*
X280910762Y-89259237D01*
X280839411Y-89484044D01*
X280821763Y-89539648D01*
X280821762Y-89539652D01*
X280771775Y-89829568D01*
X280771775Y-89829571D01*
X280765500Y-89951951D01*
X280765500Y-92276232D01*
X280745815Y-92343271D01*
X280729181Y-92363913D01*
X273305854Y-99787240D01*
X273244531Y-99820725D01*
X273218173Y-99823559D01*
X270458771Y-99823559D01*
X270458764Y-99823559D01*
X270458739Y-99823560D01*
X270404475Y-99826443D01*
X270404471Y-99826443D01*
X270167264Y-99872319D01*
X269941206Y-99957629D01*
X269732822Y-100079914D01*
X269732815Y-100079919D01*
X269548102Y-100235655D01*
X269548099Y-100235658D01*
X269392363Y-100420371D01*
X269392358Y-100420378D01*
X269270073Y-100628762D01*
X269184763Y-100854820D01*
X269138887Y-101092027D01*
X269138887Y-101092031D01*
X269136004Y-101146295D01*
X269136003Y-101146333D01*
X269136003Y-105627666D01*
X269136004Y-105627704D01*
X269138887Y-105681968D01*
X269138887Y-105681972D01*
X269184763Y-105919179D01*
X269270073Y-106145237D01*
X269392358Y-106353621D01*
X269392363Y-106353628D01*
X269548099Y-106538341D01*
X269548102Y-106538344D01*
X269732815Y-106694080D01*
X269732822Y-106694085D01*
X269941206Y-106816370D01*
X270167259Y-106901679D01*
X270404478Y-106947557D01*
X270458771Y-106950441D01*
X270824942Y-106950441D01*
X270891981Y-106970126D01*
X270937736Y-107022930D01*
X270948942Y-107074441D01*
X270948942Y-120012501D01*
X270929257Y-120079540D01*
X270876453Y-120125295D01*
X270824942Y-120136501D01*
X270565553Y-120136501D01*
X270463879Y-120142813D01*
X270463875Y-120142814D01*
X270339428Y-120168907D01*
X270224555Y-120192994D01*
X270224551Y-120192995D01*
X270224543Y-120192997D01*
X269996757Y-120281881D01*
X269996753Y-120281883D01*
X269786700Y-120407048D01*
X269786695Y-120407051D01*
X269786695Y-120407052D01*
X269690870Y-120488211D01*
X269600100Y-120565089D01*
X269442059Y-120751689D01*
X269316894Y-120961742D01*
X269316892Y-120961746D01*
X269228008Y-121189532D01*
X269228006Y-121189540D01*
X269228005Y-121189544D01*
X269203918Y-121304417D01*
X269177825Y-121428864D01*
X269177824Y-121428868D01*
X269171512Y-121530542D01*
X269171512Y-126243457D01*
X269177824Y-126345131D01*
X269177825Y-126345135D01*
X269186780Y-126387842D01*
X269228005Y-126584456D01*
X269228006Y-126584460D01*
X269228008Y-126584467D01*
X269316892Y-126812253D01*
X269316894Y-126812257D01*
X269439727Y-127018397D01*
X269442063Y-127022316D01*
X269600100Y-127208911D01*
X269786695Y-127366948D01*
X269996756Y-127492118D01*
X270068949Y-127520288D01*
X270224543Y-127581002D01*
X270224546Y-127581002D01*
X270224555Y-127581006D01*
X270463878Y-127631186D01*
X270565560Y-127637499D01*
X270824942Y-127637499D01*
X270891981Y-127657184D01*
X270937736Y-127709988D01*
X270948942Y-127761499D01*
X270948942Y-140012500D01*
X270929257Y-140079539D01*
X270876453Y-140125294D01*
X270824942Y-140136500D01*
X270525492Y-140136500D01*
X270423818Y-140142812D01*
X270423814Y-140142813D01*
X270299367Y-140168906D01*
X270184494Y-140192993D01*
X270184490Y-140192994D01*
X270184482Y-140192996D01*
X269956696Y-140281880D01*
X269956692Y-140281882D01*
X269746639Y-140407047D01*
X269746634Y-140407050D01*
X269746634Y-140407051D01*
X269601814Y-140529707D01*
X269560039Y-140565088D01*
X269401998Y-140751688D01*
X269276833Y-140961741D01*
X269276831Y-140961745D01*
X269187947Y-141189531D01*
X269187945Y-141189539D01*
X269187944Y-141189543D01*
X269170343Y-141273489D01*
X269137764Y-141428863D01*
X269137763Y-141428867D01*
X269131451Y-141530541D01*
X269131451Y-146243458D01*
X269137763Y-146345132D01*
X269137764Y-146345134D01*
X269187944Y-146584457D01*
X269187945Y-146584461D01*
X269187947Y-146584468D01*
X269276831Y-146812254D01*
X269276832Y-146812256D01*
X269402002Y-147022317D01*
X269560039Y-147208912D01*
X269746634Y-147366949D01*
X269956695Y-147492119D01*
X270039559Y-147524452D01*
X270184482Y-147581003D01*
X270184485Y-147581003D01*
X270184494Y-147581007D01*
X270423817Y-147631187D01*
X270525499Y-147637500D01*
X270525510Y-147637500D01*
X277373374Y-147637500D01*
X277373385Y-147637500D01*
X277475067Y-147631187D01*
X277714390Y-147581007D01*
X277714399Y-147581003D01*
X277714401Y-147581003D01*
X277776460Y-147556786D01*
X277942189Y-147492119D01*
X278152250Y-147366949D01*
X278338845Y-147208912D01*
X278496882Y-147022317D01*
X278622052Y-146812256D01*
X278710940Y-146584457D01*
X278761120Y-146345134D01*
X278767433Y-146243452D01*
X278767433Y-141530548D01*
X278761120Y-141428866D01*
X278710940Y-141189543D01*
X278710936Y-141189534D01*
X278710936Y-141189531D01*
X278622052Y-140961745D01*
X278622050Y-140961741D01*
X278496885Y-140751688D01*
X278496884Y-140751687D01*
X278496882Y-140751683D01*
X278338845Y-140565088D01*
X278152250Y-140407051D01*
X278152245Y-140407048D01*
X278152244Y-140407047D01*
X277942191Y-140281882D01*
X277942187Y-140281880D01*
X277714401Y-140192996D01*
X277714394Y-140192994D01*
X277714390Y-140192993D01*
X277558033Y-140160208D01*
X277475069Y-140142813D01*
X277475065Y-140142812D01*
X277373391Y-140136500D01*
X277373385Y-140136500D01*
X277073942Y-140136500D01*
X277006903Y-140116815D01*
X276961148Y-140064011D01*
X276949942Y-140012500D01*
X276949942Y-127761499D01*
X276969627Y-127694460D01*
X277022431Y-127648705D01*
X277073942Y-127637499D01*
X277333313Y-127637499D01*
X277333324Y-127637499D01*
X277435006Y-127631186D01*
X277674329Y-127581006D01*
X277674338Y-127581002D01*
X277674340Y-127581002D01*
X277753398Y-127550153D01*
X277902128Y-127492118D01*
X278112189Y-127366948D01*
X278298784Y-127208911D01*
X278456821Y-127022316D01*
X278581991Y-126812255D01*
X278654323Y-126626885D01*
X278670875Y-126584467D01*
X278670875Y-126584465D01*
X278670879Y-126584456D01*
X278721059Y-126345133D01*
X278727372Y-126243451D01*
X278727372Y-121530549D01*
X278721059Y-121428867D01*
X278670879Y-121189544D01*
X278670875Y-121189535D01*
X278670875Y-121189532D01*
X278581991Y-120961746D01*
X278581989Y-120961742D01*
X278456824Y-120751689D01*
X278456823Y-120751688D01*
X278456821Y-120751684D01*
X278298784Y-120565089D01*
X278112189Y-120407052D01*
X278112184Y-120407049D01*
X278112183Y-120407048D01*
X277902130Y-120281883D01*
X277902126Y-120281881D01*
X277674340Y-120192997D01*
X277674333Y-120192995D01*
X277674329Y-120192994D01*
X277517972Y-120160209D01*
X277435008Y-120142814D01*
X277435004Y-120142813D01*
X277333330Y-120136501D01*
X277333324Y-120136501D01*
X277073942Y-120136501D01*
X277006903Y-120116816D01*
X276961148Y-120064012D01*
X276949942Y-120012501D01*
X276949942Y-107074441D01*
X276969627Y-107007402D01*
X277022431Y-106961647D01*
X277073942Y-106950441D01*
X277440106Y-106950441D01*
X277440113Y-106950441D01*
X277494406Y-106947557D01*
X277494411Y-106947556D01*
X277494412Y-106947556D01*
X277613015Y-106924618D01*
X277731625Y-106901679D01*
X277957678Y-106816370D01*
X278166062Y-106694085D01*
X278350783Y-106538343D01*
X278506525Y-106353622D01*
X278628810Y-106145238D01*
X278714119Y-105919185D01*
X278759997Y-105681966D01*
X278762881Y-105627673D01*
X278762881Y-102868270D01*
X278782566Y-102801231D01*
X278799195Y-102780594D01*
X279720748Y-101859041D01*
X363849500Y-101859041D01*
X363849500Y-102140958D01*
X363886295Y-102420439D01*
X363959259Y-102692743D01*
X364067135Y-102953179D01*
X364067140Y-102953190D01*
X364208083Y-103197309D01*
X364208088Y-103197317D01*
X364379700Y-103420965D01*
X364379704Y-103420970D01*
X364579029Y-103620295D01*
X364579033Y-103620298D01*
X364579035Y-103620300D01*
X364802683Y-103791912D01*
X364802690Y-103791916D01*
X365046809Y-103932859D01*
X365046814Y-103932861D01*
X365046817Y-103932863D01*
X365307261Y-104040742D01*
X365579558Y-104113704D01*
X365859049Y-104150500D01*
X365859056Y-104150500D01*
X366140944Y-104150500D01*
X366140951Y-104150500D01*
X366420442Y-104113704D01*
X366692739Y-104040742D01*
X366953183Y-103932863D01*
X367197317Y-103791912D01*
X367420965Y-103620300D01*
X367620300Y-103420965D01*
X367791912Y-103197317D01*
X367932863Y-102953183D01*
X368040742Y-102692739D01*
X368113704Y-102420442D01*
X368150500Y-102140951D01*
X368150500Y-101859049D01*
X368113704Y-101579558D01*
X368040742Y-101307261D01*
X367932863Y-101046817D01*
X367932861Y-101046814D01*
X367932859Y-101046809D01*
X367791916Y-100802690D01*
X367791912Y-100802683D01*
X367620300Y-100579035D01*
X367620298Y-100579033D01*
X367620295Y-100579029D01*
X367420970Y-100379704D01*
X367416787Y-100376494D01*
X367197317Y-100208088D01*
X367197311Y-100208084D01*
X367197309Y-100208083D01*
X366953190Y-100067140D01*
X366953179Y-100067135D01*
X366692743Y-99959259D01*
X366420439Y-99886295D01*
X366140958Y-99849500D01*
X366140951Y-99849500D01*
X365859049Y-99849500D01*
X365859041Y-99849500D01*
X365579560Y-99886295D01*
X365307256Y-99959259D01*
X365046820Y-100067135D01*
X365046809Y-100067140D01*
X364802690Y-100208083D01*
X364802682Y-100208089D01*
X364579029Y-100379704D01*
X364379704Y-100579029D01*
X364208089Y-100802682D01*
X364208083Y-100802690D01*
X364067140Y-101046809D01*
X364067135Y-101046820D01*
X363959259Y-101307256D01*
X363886295Y-101579560D01*
X363849500Y-101859041D01*
X279720748Y-101859041D01*
X281859571Y-99720217D01*
X281920892Y-99686734D01*
X281990584Y-99691718D01*
X282000506Y-99695919D01*
X282125223Y-99755232D01*
X282125230Y-99755235D01*
X282125232Y-99755235D01*
X282125237Y-99755238D01*
X282405648Y-99844237D01*
X282695567Y-99894224D01*
X282717828Y-99895365D01*
X282817951Y-99900499D01*
X282817977Y-99900499D01*
X282817984Y-99900500D01*
X282817990Y-99900500D01*
X294714010Y-99900500D01*
X294714016Y-99900500D01*
X294714022Y-99900499D01*
X294714048Y-99900499D01*
X294801451Y-99896017D01*
X294836433Y-99894224D01*
X295126352Y-99844237D01*
X295406763Y-99755238D01*
X295672445Y-99628886D01*
X295918447Y-99467533D01*
X296140186Y-99274186D01*
X296333533Y-99052447D01*
X296494886Y-98806445D01*
X296621238Y-98540763D01*
X296710237Y-98260352D01*
X296760224Y-97970433D01*
X296762017Y-97935451D01*
X296766499Y-97848048D01*
X296766500Y-97848009D01*
X296766500Y-89951990D01*
X296766499Y-89951951D01*
X296760224Y-89829571D01*
X296760224Y-89829568D01*
X296760224Y-89829567D01*
X296710237Y-89539648D01*
X296621238Y-89259237D01*
X296494886Y-88993555D01*
X296494885Y-88993554D01*
X296494884Y-88993551D01*
X296333535Y-88747555D01*
X296333533Y-88747553D01*
X296289572Y-88697137D01*
X296140186Y-88525814D01*
X295918447Y-88332467D01*
X295918446Y-88332466D01*
X295918444Y-88332464D01*
X295759459Y-88228186D01*
X295714198Y-88174959D01*
X295704899Y-88105710D01*
X295734515Y-88042428D01*
X295793642Y-88005203D01*
X295827467Y-88000500D01*
X368375500Y-88000500D01*
X368442539Y-88020185D01*
X368488294Y-88072989D01*
X368499500Y-88124500D01*
X368499500Y-167875500D01*
X368479815Y-167942539D01*
X368427011Y-167988294D01*
X368375500Y-167999500D01*
X359370785Y-167999500D01*
X359303746Y-167979815D01*
X359257991Y-167927011D01*
X359248047Y-167857853D01*
X359277072Y-167794297D01*
X359333270Y-167757311D01*
X359380763Y-167742238D01*
X359646445Y-167615886D01*
X359892447Y-167454533D01*
X360114186Y-167261186D01*
X360307533Y-167039447D01*
X360468886Y-166793445D01*
X360595238Y-166527763D01*
X360684237Y-166247352D01*
X360734224Y-165957433D01*
X360736017Y-165922451D01*
X360740499Y-165835048D01*
X360740500Y-165835009D01*
X360740500Y-157938990D01*
X360740499Y-157938951D01*
X360734224Y-157816571D01*
X360734224Y-157816568D01*
X360734224Y-157816567D01*
X360684237Y-157526648D01*
X360595238Y-157246237D01*
X360468886Y-156980555D01*
X360468885Y-156980554D01*
X360468884Y-156980551D01*
X360307535Y-156734555D01*
X360307533Y-156734553D01*
X360114186Y-156512814D01*
X359892447Y-156319467D01*
X359892446Y-156319466D01*
X359892444Y-156319464D01*
X359646448Y-156158115D01*
X359380772Y-156031766D01*
X359380767Y-156031764D01*
X359380763Y-156031762D01*
X359100352Y-155942763D01*
X359100348Y-155942762D01*
X359100347Y-155942762D01*
X358810429Y-155892775D01*
X358688048Y-155886500D01*
X358688016Y-155886500D01*
X346791984Y-155886500D01*
X346791951Y-155886500D01*
X346669571Y-155892775D01*
X346669568Y-155892775D01*
X346379652Y-155942762D01*
X346379648Y-155942763D01*
X346099237Y-156031762D01*
X346099234Y-156031763D01*
X346099232Y-156031764D01*
X346099227Y-156031766D01*
X345833551Y-156158115D01*
X345587555Y-156319464D01*
X345587553Y-156319466D01*
X345365814Y-156512814D01*
X345172466Y-156734553D01*
X345172464Y-156734555D01*
X345011115Y-156980551D01*
X344884766Y-157246227D01*
X344884764Y-157246232D01*
X344795763Y-157526648D01*
X344795762Y-157526652D01*
X344745775Y-157816568D01*
X344745775Y-157816571D01*
X344739500Y-157938951D01*
X344739500Y-158762500D01*
X344719815Y-158829539D01*
X344667011Y-158875294D01*
X344615500Y-158886500D01*
X296364210Y-158886500D01*
X296297171Y-158866815D01*
X296276529Y-158850181D01*
X291285389Y-153859041D01*
X363849500Y-153859041D01*
X363849500Y-154140958D01*
X363886295Y-154420439D01*
X363959259Y-154692743D01*
X364067135Y-154953179D01*
X364067140Y-154953190D01*
X364208083Y-155197309D01*
X364208088Y-155197317D01*
X364338001Y-155366622D01*
X364379704Y-155420970D01*
X364579029Y-155620295D01*
X364579033Y-155620298D01*
X364579035Y-155620300D01*
X364802683Y-155791912D01*
X364802690Y-155791916D01*
X365046809Y-155932859D01*
X365046814Y-155932861D01*
X365046817Y-155932863D01*
X365307261Y-156040742D01*
X365579558Y-156113704D01*
X365859049Y-156150500D01*
X365859056Y-156150500D01*
X366140944Y-156150500D01*
X366140951Y-156150500D01*
X366420442Y-156113704D01*
X366692739Y-156040742D01*
X366953183Y-155932863D01*
X367197317Y-155791912D01*
X367420965Y-155620300D01*
X367620300Y-155420965D01*
X367791912Y-155197317D01*
X367932863Y-154953183D01*
X368040742Y-154692739D01*
X368113704Y-154420442D01*
X368150500Y-154140951D01*
X368150500Y-153859049D01*
X368113704Y-153579558D01*
X368040742Y-153307261D01*
X367932863Y-153046817D01*
X367932861Y-153046814D01*
X367932859Y-153046809D01*
X367791916Y-152802690D01*
X367791912Y-152802683D01*
X367620300Y-152579035D01*
X367620298Y-152579033D01*
X367620295Y-152579029D01*
X367420970Y-152379704D01*
X367420965Y-152379700D01*
X367197317Y-152208088D01*
X367197311Y-152208084D01*
X367197309Y-152208083D01*
X366953190Y-152067140D01*
X366953179Y-152067135D01*
X366692743Y-151959259D01*
X366420439Y-151886295D01*
X366140958Y-151849500D01*
X366140951Y-151849500D01*
X365859049Y-151849500D01*
X365859041Y-151849500D01*
X365579560Y-151886295D01*
X365307256Y-151959259D01*
X365046820Y-152067135D01*
X365046809Y-152067140D01*
X364802690Y-152208083D01*
X364802682Y-152208089D01*
X364579029Y-152379704D01*
X364379704Y-152579029D01*
X364208089Y-152802682D01*
X364208083Y-152802690D01*
X364067140Y-153046809D01*
X364067135Y-153046820D01*
X363959259Y-153307256D01*
X363886295Y-153579560D01*
X363849500Y-153859041D01*
X291285389Y-153859041D01*
X290432758Y-153006410D01*
X290399273Y-152945087D01*
X290396439Y-152918729D01*
X290396439Y-150159333D01*
X290396437Y-150159295D01*
X290393555Y-150105034D01*
X290347677Y-149867815D01*
X290262368Y-149641762D01*
X290140083Y-149433378D01*
X290140078Y-149433371D01*
X289984342Y-149248658D01*
X289984339Y-149248655D01*
X289799626Y-149092919D01*
X289799619Y-149092914D01*
X289591235Y-148970629D01*
X289432543Y-148910741D01*
X289365183Y-148885321D01*
X289365181Y-148885320D01*
X289365177Y-148885319D01*
X289127968Y-148839443D01*
X289073702Y-148836560D01*
X289073677Y-148836559D01*
X289073671Y-148836559D01*
X289073664Y-148836559D01*
X288707500Y-148836559D01*
X288640461Y-148816874D01*
X288594706Y-148764070D01*
X288583500Y-148712559D01*
X288583500Y-135774499D01*
X288603185Y-135707460D01*
X288655989Y-135661705D01*
X288707500Y-135650499D01*
X288966871Y-135650499D01*
X288966882Y-135650499D01*
X289068564Y-135644186D01*
X289307887Y-135594006D01*
X289307896Y-135594002D01*
X289307898Y-135594002D01*
X289369957Y-135569785D01*
X289535686Y-135505118D01*
X289745747Y-135379948D01*
X289932342Y-135221911D01*
X290090379Y-135035316D01*
X290215549Y-134825255D01*
X290304437Y-134597456D01*
X290354617Y-134358133D01*
X290360930Y-134256451D01*
X290360930Y-129543549D01*
X290354617Y-129441867D01*
X290304437Y-129202544D01*
X290304433Y-129202535D01*
X290304433Y-129202532D01*
X290236329Y-129028000D01*
X290215549Y-128974745D01*
X290090379Y-128764684D01*
X289932342Y-128578089D01*
X289745747Y-128420052D01*
X289745742Y-128420049D01*
X289745741Y-128420048D01*
X289535688Y-128294883D01*
X289535684Y-128294881D01*
X289307898Y-128205997D01*
X289307891Y-128205995D01*
X289307887Y-128205994D01*
X289151530Y-128173209D01*
X289068566Y-128155814D01*
X289068562Y-128155813D01*
X288966888Y-128149501D01*
X288966882Y-128149501D01*
X288707500Y-128149501D01*
X288640461Y-128129816D01*
X288594706Y-128077012D01*
X288583500Y-128025501D01*
X288583500Y-115774500D01*
X288603185Y-115707461D01*
X288655989Y-115661706D01*
X288707500Y-115650500D01*
X289006932Y-115650500D01*
X289006943Y-115650500D01*
X289108625Y-115644187D01*
X289347948Y-115594007D01*
X289347957Y-115594003D01*
X289347959Y-115594003D01*
X289410018Y-115569786D01*
X289575747Y-115505119D01*
X289785808Y-115379949D01*
X289972403Y-115221912D01*
X290130440Y-115035317D01*
X290255610Y-114825256D01*
X290344498Y-114597457D01*
X290394678Y-114358134D01*
X290400991Y-114256452D01*
X290400991Y-109543548D01*
X290394678Y-109441866D01*
X290344498Y-109202543D01*
X290344494Y-109202534D01*
X290344494Y-109202531D01*
X290255610Y-108974745D01*
X290255608Y-108974741D01*
X290130443Y-108764688D01*
X290130442Y-108764687D01*
X290130440Y-108764683D01*
X289972403Y-108578088D01*
X289785808Y-108420051D01*
X289785803Y-108420048D01*
X289785802Y-108420047D01*
X289575749Y-108294882D01*
X289575745Y-108294880D01*
X289347959Y-108205996D01*
X289347952Y-108205994D01*
X289347948Y-108205993D01*
X289191591Y-108173208D01*
X289108627Y-108155813D01*
X289108623Y-108155812D01*
X289006949Y-108149500D01*
X289006943Y-108149500D01*
X282159057Y-108149500D01*
X282159050Y-108149500D01*
X282057376Y-108155812D01*
X282057372Y-108155813D01*
X281932925Y-108181906D01*
X281818052Y-108205993D01*
X281818048Y-108205994D01*
X281818040Y-108205996D01*
X281590254Y-108294880D01*
X281590250Y-108294882D01*
X281380197Y-108420047D01*
X281193597Y-108578088D01*
X281035556Y-108764688D01*
X280910391Y-108974741D01*
X280910389Y-108974745D01*
X280821505Y-109202531D01*
X280821503Y-109202539D01*
X280821502Y-109202543D01*
X280797415Y-109317416D01*
X280771322Y-109441863D01*
X280771321Y-109441867D01*
X280765009Y-109543541D01*
X280765009Y-114256458D01*
X280771321Y-114358132D01*
X280771322Y-114358134D01*
X280821502Y-114597457D01*
X280821503Y-114597461D01*
X280821505Y-114597468D01*
X280910389Y-114825254D01*
X280910390Y-114825256D01*
X281035560Y-115035317D01*
X281193597Y-115221912D01*
X281380192Y-115379949D01*
X281590253Y-115505119D01*
X281673117Y-115537452D01*
X281818040Y-115594003D01*
X281818043Y-115594003D01*
X281818052Y-115594007D01*
X282057375Y-115644187D01*
X282159057Y-115650500D01*
X282458500Y-115650500D01*
X282525539Y-115670185D01*
X282571294Y-115722989D01*
X282582500Y-115774500D01*
X282582500Y-128025501D01*
X282562815Y-128092540D01*
X282510011Y-128138295D01*
X282458500Y-128149501D01*
X282199111Y-128149501D01*
X282097437Y-128155813D01*
X282097433Y-128155814D01*
X281972986Y-128181907D01*
X281858113Y-128205994D01*
X281858109Y-128205995D01*
X281858101Y-128205997D01*
X281630315Y-128294881D01*
X281630311Y-128294883D01*
X281420258Y-128420048D01*
X281233658Y-128578089D01*
X281075617Y-128764689D01*
X280950452Y-128974742D01*
X280950450Y-128974746D01*
X280861566Y-129202532D01*
X280861564Y-129202540D01*
X280861563Y-129202544D01*
X280847474Y-129269738D01*
X280811383Y-129441864D01*
X280811382Y-129441868D01*
X280805070Y-129543542D01*
X280805070Y-134256457D01*
X280811382Y-134358131D01*
X280811383Y-134358133D01*
X280861563Y-134597456D01*
X280861564Y-134597460D01*
X280861566Y-134597467D01*
X280950450Y-134825253D01*
X280950451Y-134825255D01*
X281075621Y-135035316D01*
X281233658Y-135221911D01*
X281420253Y-135379948D01*
X281630314Y-135505118D01*
X281713178Y-135537451D01*
X281858101Y-135594002D01*
X281858104Y-135594002D01*
X281858113Y-135594006D01*
X282097436Y-135644186D01*
X282199118Y-135650499D01*
X282458500Y-135650499D01*
X282525539Y-135670184D01*
X282571294Y-135722988D01*
X282582500Y-135774499D01*
X282582500Y-148712559D01*
X282562815Y-148779598D01*
X282510011Y-148825353D01*
X282458500Y-148836559D01*
X282092329Y-148836559D01*
X282092322Y-148836559D01*
X282092297Y-148836560D01*
X282038033Y-148839443D01*
X282038029Y-148839443D01*
X281800822Y-148885319D01*
X281574764Y-148970629D01*
X281366380Y-149092914D01*
X281366373Y-149092919D01*
X281181660Y-149248655D01*
X281181657Y-149248658D01*
X281025921Y-149433371D01*
X281025916Y-149433378D01*
X280903631Y-149641762D01*
X280818321Y-149867820D01*
X280772445Y-150105027D01*
X280772445Y-150105031D01*
X280769562Y-150159295D01*
X280769561Y-150159333D01*
X280769561Y-154640666D01*
X280769562Y-154640704D01*
X280772445Y-154694968D01*
X280772445Y-154694972D01*
X280818321Y-154932179D01*
X280818322Y-154932183D01*
X280818323Y-154932185D01*
X280826250Y-154953190D01*
X280903631Y-155158237D01*
X281025916Y-155366621D01*
X281025921Y-155366628D01*
X281181657Y-155551341D01*
X281181660Y-155551344D01*
X281366373Y-155707080D01*
X281366380Y-155707085D01*
X281574764Y-155829370D01*
X281800817Y-155914679D01*
X282038036Y-155960557D01*
X282092329Y-155963441D01*
X284851731Y-155963441D01*
X284918770Y-155983126D01*
X284939412Y-155999760D01*
X293067476Y-164127824D01*
X293330961Y-164337946D01*
X293616314Y-164517246D01*
X293919949Y-164663469D01*
X294158848Y-164747063D01*
X294238034Y-164774772D01*
X294238046Y-164774776D01*
X294566606Y-164849767D01*
X294901491Y-164887499D01*
X294901492Y-164887500D01*
X294901495Y-164887500D01*
X294901496Y-164887500D01*
X344615500Y-164887500D01*
X344682539Y-164907185D01*
X344728294Y-164959989D01*
X344739500Y-165011500D01*
X344739500Y-165835048D01*
X344745775Y-165957428D01*
X344745775Y-165957431D01*
X344763933Y-166062743D01*
X344795763Y-166247352D01*
X344884762Y-166527763D01*
X344884764Y-166527767D01*
X344884766Y-166527772D01*
X345011115Y-166793448D01*
X345172464Y-167039444D01*
X345172466Y-167039446D01*
X345172467Y-167039447D01*
X345365814Y-167261186D01*
X345537329Y-167410740D01*
X345587553Y-167454533D01*
X345587555Y-167454535D01*
X345833551Y-167615884D01*
X345833554Y-167615885D01*
X345833555Y-167615886D01*
X346099237Y-167742238D01*
X346146729Y-167757311D01*
X346204670Y-167796353D01*
X346232307Y-167860524D01*
X346220863Y-167929450D01*
X346173972Y-167981248D01*
X346109215Y-167999500D01*
X277397227Y-167999500D01*
X277330188Y-167979815D01*
X277284433Y-167927011D01*
X277274489Y-167857853D01*
X277303514Y-167794297D01*
X277359712Y-167757311D01*
X277407205Y-167742238D01*
X277672887Y-167615886D01*
X277918889Y-167454533D01*
X278140628Y-167261186D01*
X278333975Y-167039447D01*
X278495328Y-166793445D01*
X278621680Y-166527763D01*
X278710679Y-166247352D01*
X278760666Y-165957433D01*
X278762459Y-165922451D01*
X278766941Y-165835048D01*
X278766942Y-165835009D01*
X278766942Y-165229041D01*
X280499500Y-165229041D01*
X280499500Y-165510958D01*
X280536295Y-165790439D01*
X280609259Y-166062743D01*
X280717135Y-166323179D01*
X280717140Y-166323190D01*
X280858083Y-166567309D01*
X280858088Y-166567317D01*
X281029700Y-166790965D01*
X281029704Y-166790970D01*
X281229029Y-166990295D01*
X281229033Y-166990298D01*
X281229035Y-166990300D01*
X281452683Y-167161912D01*
X281452690Y-167161916D01*
X281696809Y-167302859D01*
X281696814Y-167302861D01*
X281696817Y-167302863D01*
X281957261Y-167410742D01*
X282229558Y-167483704D01*
X282509049Y-167520500D01*
X282509056Y-167520500D01*
X282790944Y-167520500D01*
X282790951Y-167520500D01*
X283070442Y-167483704D01*
X283342739Y-167410742D01*
X283603183Y-167302863D01*
X283847317Y-167161912D01*
X284070965Y-166990300D01*
X284270300Y-166790965D01*
X284441912Y-166567317D01*
X284582863Y-166323183D01*
X284690742Y-166062739D01*
X284763704Y-165790442D01*
X284800500Y-165510951D01*
X284800500Y-165229049D01*
X284763704Y-164949558D01*
X284690742Y-164677261D01*
X284582863Y-164416817D01*
X284582861Y-164416814D01*
X284582859Y-164416809D01*
X284441916Y-164172690D01*
X284441912Y-164172683D01*
X284270300Y-163949035D01*
X284270298Y-163949033D01*
X284270295Y-163949029D01*
X284070970Y-163749704D01*
X284070965Y-163749700D01*
X283847317Y-163578088D01*
X283847311Y-163578084D01*
X283847309Y-163578083D01*
X283603190Y-163437140D01*
X283603179Y-163437135D01*
X283342743Y-163329259D01*
X283070439Y-163256295D01*
X282790958Y-163219500D01*
X282790951Y-163219500D01*
X282509049Y-163219500D01*
X282509041Y-163219500D01*
X282229560Y-163256295D01*
X281957256Y-163329259D01*
X281696820Y-163437135D01*
X281696809Y-163437140D01*
X281452690Y-163578083D01*
X281452682Y-163578089D01*
X281229029Y-163749704D01*
X281029704Y-163949029D01*
X280858089Y-164172682D01*
X280858083Y-164172690D01*
X280717140Y-164416809D01*
X280717135Y-164416820D01*
X280609259Y-164677256D01*
X280536295Y-164949560D01*
X280499500Y-165229041D01*
X278766942Y-165229041D01*
X278766942Y-157938990D01*
X278766941Y-157938951D01*
X278760666Y-157816571D01*
X278760666Y-157816568D01*
X278760666Y-157816567D01*
X278710679Y-157526648D01*
X278621680Y-157246237D01*
X278495328Y-156980555D01*
X278495327Y-156980554D01*
X278495326Y-156980551D01*
X278333977Y-156734555D01*
X278333975Y-156734553D01*
X278140628Y-156512814D01*
X277918889Y-156319467D01*
X277918888Y-156319466D01*
X277918886Y-156319464D01*
X277672890Y-156158115D01*
X277407214Y-156031766D01*
X277407209Y-156031764D01*
X277407205Y-156031762D01*
X277126794Y-155942763D01*
X277126790Y-155942762D01*
X277126789Y-155942762D01*
X276836871Y-155892775D01*
X276714490Y-155886500D01*
X276714458Y-155886500D01*
X264818426Y-155886500D01*
X264818393Y-155886500D01*
X264696013Y-155892775D01*
X264696010Y-155892775D01*
X264406094Y-155942762D01*
X264406090Y-155942763D01*
X264125679Y-156031762D01*
X264125676Y-156031763D01*
X264125674Y-156031764D01*
X264125669Y-156031766D01*
X263859993Y-156158115D01*
X263613997Y-156319464D01*
X263613995Y-156319466D01*
X263392256Y-156512814D01*
X263198908Y-156734553D01*
X263198906Y-156734555D01*
X263037557Y-156980551D01*
X262911208Y-157246227D01*
X262911206Y-157246232D01*
X262822205Y-157526648D01*
X262822204Y-157526652D01*
X262772217Y-157816568D01*
X262772217Y-157816571D01*
X262765942Y-157938951D01*
X262765942Y-158762500D01*
X262746257Y-158829539D01*
X262693453Y-158875294D01*
X262641942Y-158886500D01*
X231659710Y-158886500D01*
X231592671Y-158866815D01*
X231572029Y-158850181D01*
X217219810Y-144497962D01*
X217186325Y-144436639D01*
X217183491Y-144410281D01*
X217183491Y-141530558D01*
X217183491Y-141530548D01*
X217177178Y-141428866D01*
X217126998Y-141189543D01*
X217126994Y-141189534D01*
X217126994Y-141189531D01*
X217038110Y-140961745D01*
X217038108Y-140961741D01*
X216912943Y-140751688D01*
X216912942Y-140751687D01*
X216912940Y-140751683D01*
X216754903Y-140565088D01*
X216568308Y-140407051D01*
X216568303Y-140407048D01*
X216568302Y-140407047D01*
X216358249Y-140281882D01*
X216358245Y-140281880D01*
X216130459Y-140192996D01*
X216130452Y-140192994D01*
X216130448Y-140192993D01*
X215974091Y-140160208D01*
X215891127Y-140142813D01*
X215891123Y-140142812D01*
X215789449Y-140136500D01*
X215789443Y-140136500D01*
X215490000Y-140136500D01*
X215422961Y-140116815D01*
X215377206Y-140064011D01*
X215366000Y-140012500D01*
X215366000Y-130841153D01*
X220729500Y-130841153D01*
X220729500Y-130998846D01*
X220760261Y-131153489D01*
X220760264Y-131153501D01*
X220820602Y-131299172D01*
X220820609Y-131299185D01*
X220908210Y-131430288D01*
X220908213Y-131430292D01*
X221019707Y-131541786D01*
X221019711Y-131541789D01*
X221150814Y-131629390D01*
X221150827Y-131629397D01*
X221228023Y-131661372D01*
X221296503Y-131689737D01*
X221451153Y-131720499D01*
X221451156Y-131720500D01*
X221451158Y-131720500D01*
X221608844Y-131720500D01*
X221608845Y-131720499D01*
X221763497Y-131689737D01*
X221876166Y-131643067D01*
X221909172Y-131629397D01*
X221909172Y-131629396D01*
X221909179Y-131629394D01*
X222040289Y-131541789D01*
X222151789Y-131430289D01*
X222239394Y-131299179D01*
X222299737Y-131153497D01*
X222330500Y-130998842D01*
X222330500Y-130841158D01*
X222330500Y-130841155D01*
X222330499Y-130841153D01*
X222324658Y-130811789D01*
X222299737Y-130686503D01*
X222263499Y-130599017D01*
X222256031Y-130529551D01*
X222287306Y-130467071D01*
X222330604Y-130437008D01*
X222449179Y-130387894D01*
X222580289Y-130300289D01*
X222691789Y-130188789D01*
X222779394Y-130057679D01*
X222839737Y-129911997D01*
X222870500Y-129757342D01*
X222870500Y-129599658D01*
X222870500Y-129599655D01*
X222870499Y-129599653D01*
X222864245Y-129568211D01*
X222839737Y-129445003D01*
X222839735Y-129444998D01*
X222779397Y-129299327D01*
X222779390Y-129299314D01*
X222691789Y-129168211D01*
X222691786Y-129168207D01*
X222580292Y-129056713D01*
X222580288Y-129056710D01*
X222449185Y-128969109D01*
X222449172Y-128969102D01*
X222303501Y-128908764D01*
X222303489Y-128908761D01*
X222148845Y-128878000D01*
X222148842Y-128878000D01*
X221991158Y-128878000D01*
X221991155Y-128878000D01*
X221836510Y-128908761D01*
X221836498Y-128908764D01*
X221690827Y-128969102D01*
X221690814Y-128969109D01*
X221559711Y-129056710D01*
X221559707Y-129056713D01*
X221448213Y-129168207D01*
X221448210Y-129168211D01*
X221360609Y-129299314D01*
X221360602Y-129299327D01*
X221300264Y-129444998D01*
X221300261Y-129445008D01*
X221269362Y-129600348D01*
X221260597Y-129617103D01*
X221256578Y-129635582D01*
X221237832Y-129660623D01*
X221236977Y-129662259D01*
X221235427Y-129663837D01*
X221210912Y-129688352D01*
X221161286Y-129737978D01*
X221161285Y-129737978D01*
X221161284Y-129737979D01*
X221049480Y-129849783D01*
X221038784Y-129868309D01*
X221030954Y-129881873D01*
X220970423Y-129986715D01*
X220929499Y-130139443D01*
X220929499Y-130139445D01*
X220929499Y-130307546D01*
X220929500Y-130307559D01*
X220929500Y-130340234D01*
X220909815Y-130407273D01*
X220908602Y-130409125D01*
X220820609Y-130540814D01*
X220820602Y-130540827D01*
X220760264Y-130686498D01*
X220760261Y-130686510D01*
X220729500Y-130841153D01*
X215366000Y-130841153D01*
X215366000Y-128351153D01*
X257109500Y-128351153D01*
X257109500Y-128508846D01*
X257140261Y-128663489D01*
X257140264Y-128663501D01*
X257200602Y-128809172D01*
X257200609Y-128809185D01*
X257288210Y-128940288D01*
X257288213Y-128940292D01*
X257399707Y-129051786D01*
X257399711Y-129051789D01*
X257530814Y-129139390D01*
X257530827Y-129139397D01*
X257676498Y-129199735D01*
X257676503Y-129199737D01*
X257831153Y-129230499D01*
X257831156Y-129230500D01*
X257831158Y-129230500D01*
X257988844Y-129230500D01*
X257988845Y-129230499D01*
X258143497Y-129199737D01*
X258289179Y-129139394D01*
X258420289Y-129051789D01*
X258531789Y-128940289D01*
X258619394Y-128809179D01*
X258679737Y-128663497D01*
X258710500Y-128508842D01*
X258710500Y-128500097D01*
X258730185Y-128433058D01*
X258746819Y-128412416D01*
X259029419Y-128129816D01*
X259314662Y-127844572D01*
X259375983Y-127811089D01*
X259378150Y-127810638D01*
X259436085Y-127799113D01*
X259533497Y-127779737D01*
X259679179Y-127719394D01*
X259810289Y-127631789D01*
X259921789Y-127520289D01*
X260009394Y-127389179D01*
X260069737Y-127243497D01*
X260100500Y-127088842D01*
X260100500Y-126931158D01*
X260100500Y-126931155D01*
X260100499Y-126931153D01*
X260088273Y-126869690D01*
X260069737Y-126776503D01*
X260033155Y-126688185D01*
X260009397Y-126630827D01*
X260009390Y-126630814D01*
X259921789Y-126499711D01*
X259921786Y-126499707D01*
X259810292Y-126388213D01*
X259810288Y-126388210D01*
X259679185Y-126300609D01*
X259679172Y-126300602D01*
X259533501Y-126240264D01*
X259533489Y-126240261D01*
X259378845Y-126209500D01*
X259378842Y-126209500D01*
X259221158Y-126209500D01*
X259221155Y-126209500D01*
X259066510Y-126240261D01*
X259066498Y-126240264D01*
X258920827Y-126300602D01*
X258920814Y-126300609D01*
X258789711Y-126388210D01*
X258789707Y-126388213D01*
X258678213Y-126499707D01*
X258678210Y-126499711D01*
X258590609Y-126630814D01*
X258590602Y-126630827D01*
X258530264Y-126776498D01*
X258530261Y-126776508D01*
X258499361Y-126931850D01*
X258466976Y-126993761D01*
X258465425Y-126995339D01*
X257857889Y-127602875D01*
X257796566Y-127636360D01*
X257794400Y-127636811D01*
X257676508Y-127660261D01*
X257676498Y-127660264D01*
X257530827Y-127720602D01*
X257530814Y-127720609D01*
X257399711Y-127808210D01*
X257399707Y-127808213D01*
X257288213Y-127919707D01*
X257288210Y-127919711D01*
X257200609Y-128050814D01*
X257200602Y-128050827D01*
X257140264Y-128196498D01*
X257140261Y-128196510D01*
X257109500Y-128351153D01*
X215366000Y-128351153D01*
X215366000Y-127761499D01*
X215385685Y-127694460D01*
X215438489Y-127648705D01*
X215490000Y-127637499D01*
X215749371Y-127637499D01*
X215749382Y-127637499D01*
X215851064Y-127631186D01*
X216090387Y-127581006D01*
X216090396Y-127581002D01*
X216090398Y-127581002D01*
X216169456Y-127550153D01*
X216318186Y-127492118D01*
X216528247Y-127366948D01*
X216714842Y-127208911D01*
X216872879Y-127022316D01*
X216998049Y-126812255D01*
X217070381Y-126626885D01*
X217086933Y-126584467D01*
X217086933Y-126584465D01*
X217086937Y-126584456D01*
X217137117Y-126345133D01*
X217143430Y-126243451D01*
X217143430Y-121530549D01*
X217137117Y-121428867D01*
X217086937Y-121189544D01*
X217086933Y-121189535D01*
X217086933Y-121189532D01*
X216998049Y-120961746D01*
X216998047Y-120961742D01*
X216872882Y-120751689D01*
X216872881Y-120751688D01*
X216872879Y-120751684D01*
X216714842Y-120565089D01*
X216528247Y-120407052D01*
X216528242Y-120407049D01*
X216528241Y-120407048D01*
X216318188Y-120281883D01*
X216318184Y-120281881D01*
X216090398Y-120192997D01*
X216090391Y-120192995D01*
X216090387Y-120192994D01*
X215934030Y-120160209D01*
X215851066Y-120142814D01*
X215851062Y-120142813D01*
X215749388Y-120136501D01*
X215749382Y-120136501D01*
X215490000Y-120136501D01*
X215422961Y-120116816D01*
X215377206Y-120064012D01*
X215366000Y-120012501D01*
X215366000Y-107074441D01*
X215385685Y-107007402D01*
X215438489Y-106961647D01*
X215490000Y-106950441D01*
X215856164Y-106950441D01*
X215856171Y-106950441D01*
X215910464Y-106947557D01*
X215910469Y-106947556D01*
X215910470Y-106947556D01*
X216029073Y-106924618D01*
X216147683Y-106901679D01*
X216373736Y-106816370D01*
X216582120Y-106694085D01*
X216766841Y-106538343D01*
X216922583Y-106353622D01*
X217044868Y-106145238D01*
X217130177Y-105919185D01*
X217176055Y-105681966D01*
X217178939Y-105627673D01*
X217178939Y-101146327D01*
X217176055Y-101092034D01*
X217162102Y-101019890D01*
X217130178Y-100854820D01*
X217130177Y-100854819D01*
X217130177Y-100854815D01*
X217044868Y-100628762D01*
X216922583Y-100420378D01*
X216922578Y-100420371D01*
X216766842Y-100235658D01*
X216766839Y-100235655D01*
X216582126Y-100079919D01*
X216582119Y-100079914D01*
X216373735Y-99957629D01*
X216184714Y-99886296D01*
X216147683Y-99872321D01*
X216147681Y-99872320D01*
X216147677Y-99872319D01*
X215910468Y-99826443D01*
X215856202Y-99823560D01*
X215856177Y-99823559D01*
X215856171Y-99823559D01*
X208874829Y-99823559D01*
X208874822Y-99823559D01*
X208874797Y-99823560D01*
X208820533Y-99826443D01*
X208820529Y-99826443D01*
X208583322Y-99872319D01*
X208357264Y-99957629D01*
X208148880Y-100079914D01*
X208148873Y-100079919D01*
X207964160Y-100235655D01*
X207964157Y-100235658D01*
X207808421Y-100420371D01*
X207808416Y-100420378D01*
X207686131Y-100628762D01*
X207600821Y-100854820D01*
X207554945Y-101092027D01*
X207554945Y-101092031D01*
X207552062Y-101146295D01*
X207552061Y-101146333D01*
X207552061Y-105627666D01*
X207552062Y-105627704D01*
X207554945Y-105681968D01*
X207554945Y-105681972D01*
X207600821Y-105919179D01*
X207686131Y-106145237D01*
X207808416Y-106353621D01*
X207808421Y-106353628D01*
X207964157Y-106538341D01*
X207964160Y-106538344D01*
X208148873Y-106694080D01*
X208148880Y-106694085D01*
X208357264Y-106816370D01*
X208583317Y-106901679D01*
X208820536Y-106947557D01*
X208874829Y-106950441D01*
X209241000Y-106950441D01*
X209308039Y-106970126D01*
X209353794Y-107022930D01*
X209365000Y-107074441D01*
X209365000Y-120012501D01*
X209345315Y-120079540D01*
X209292511Y-120125295D01*
X209241000Y-120136501D01*
X208981611Y-120136501D01*
X208879937Y-120142813D01*
X208879933Y-120142814D01*
X208755486Y-120168907D01*
X208640613Y-120192994D01*
X208640609Y-120192995D01*
X208640601Y-120192997D01*
X208412815Y-120281881D01*
X208412811Y-120281883D01*
X208202758Y-120407048D01*
X208202753Y-120407051D01*
X208202753Y-120407052D01*
X208106928Y-120488211D01*
X208016158Y-120565089D01*
X207858117Y-120751689D01*
X207732952Y-120961742D01*
X207732950Y-120961746D01*
X207644066Y-121189532D01*
X207644064Y-121189540D01*
X207644063Y-121189544D01*
X207619976Y-121304417D01*
X207593883Y-121428864D01*
X207593882Y-121428868D01*
X207587570Y-121530542D01*
X207587570Y-126243457D01*
X207593882Y-126345131D01*
X207593883Y-126345135D01*
X207602838Y-126387842D01*
X207644063Y-126584456D01*
X207644064Y-126584460D01*
X207644066Y-126584467D01*
X207732950Y-126812253D01*
X207732952Y-126812257D01*
X207855785Y-127018397D01*
X207858121Y-127022316D01*
X208016158Y-127208911D01*
X208202753Y-127366948D01*
X208412814Y-127492118D01*
X208485007Y-127520288D01*
X208640601Y-127581002D01*
X208640604Y-127581002D01*
X208640613Y-127581006D01*
X208879936Y-127631186D01*
X208981618Y-127637499D01*
X209241000Y-127637499D01*
X209308039Y-127657184D01*
X209353794Y-127709988D01*
X209365000Y-127761499D01*
X209365000Y-140012500D01*
X209345315Y-140079539D01*
X209292511Y-140125294D01*
X209241000Y-140136500D01*
X208941550Y-140136500D01*
X208839876Y-140142812D01*
X208839872Y-140142813D01*
X208715425Y-140168906D01*
X208600552Y-140192993D01*
X208600548Y-140192994D01*
X208600540Y-140192996D01*
X208372754Y-140281880D01*
X208372750Y-140281882D01*
X208162697Y-140407047D01*
X208162692Y-140407050D01*
X208162692Y-140407051D01*
X208017872Y-140529707D01*
X207976097Y-140565088D01*
X207818056Y-140751688D01*
X207692891Y-140961741D01*
X207692889Y-140961745D01*
X207604005Y-141189531D01*
X207604003Y-141189539D01*
X207604002Y-141189543D01*
X207586401Y-141273489D01*
X207553822Y-141428863D01*
X207553821Y-141428867D01*
X207547509Y-141530541D01*
X207547509Y-146243458D01*
X207553821Y-146345132D01*
X207553822Y-146345134D01*
X207604002Y-146584457D01*
X207604003Y-146584461D01*
X207604005Y-146584468D01*
X207692889Y-146812254D01*
X207692890Y-146812256D01*
X207818060Y-147022317D01*
X207976097Y-147208912D01*
X208162692Y-147366949D01*
X208372753Y-147492119D01*
X208455617Y-147524452D01*
X208600540Y-147581003D01*
X208600543Y-147581003D01*
X208600552Y-147581007D01*
X208839875Y-147631187D01*
X208941557Y-147637500D01*
X211821290Y-147637500D01*
X211888329Y-147657185D01*
X211908971Y-147673819D01*
X228362976Y-164127824D01*
X228626461Y-164337946D01*
X228911814Y-164517246D01*
X229215449Y-164663469D01*
X229454348Y-164747063D01*
X229533534Y-164774772D01*
X229533546Y-164774776D01*
X229862106Y-164849767D01*
X230196991Y-164887499D01*
X230196992Y-164887500D01*
X230196995Y-164887500D01*
X230196996Y-164887500D01*
X262641942Y-164887500D01*
X262708981Y-164907185D01*
X262754736Y-164959989D01*
X262765942Y-165011500D01*
X262765942Y-165835048D01*
X262772217Y-165957428D01*
X262772217Y-165957431D01*
X262790375Y-166062743D01*
X262822205Y-166247352D01*
X262911204Y-166527763D01*
X262911206Y-166527767D01*
X262911208Y-166527772D01*
X263037557Y-166793448D01*
X263198906Y-167039444D01*
X263198908Y-167039446D01*
X263198909Y-167039447D01*
X263392256Y-167261186D01*
X263563771Y-167410740D01*
X263613995Y-167454533D01*
X263613997Y-167454535D01*
X263859993Y-167615884D01*
X263859996Y-167615885D01*
X263859997Y-167615886D01*
X264125679Y-167742238D01*
X264173171Y-167757311D01*
X264231112Y-167796353D01*
X264258749Y-167860524D01*
X264247305Y-167929450D01*
X264200414Y-167981248D01*
X264135657Y-167999500D01*
X215813285Y-167999500D01*
X215746246Y-167979815D01*
X215700491Y-167927011D01*
X215690547Y-167857853D01*
X215719572Y-167794297D01*
X215775770Y-167757311D01*
X215823263Y-167742238D01*
X216088945Y-167615886D01*
X216334947Y-167454533D01*
X216556686Y-167261186D01*
X216750033Y-167039447D01*
X216911386Y-166793445D01*
X217037738Y-166527763D01*
X217126737Y-166247352D01*
X217176724Y-165957433D01*
X217178517Y-165922451D01*
X217182999Y-165835048D01*
X217183000Y-165835009D01*
X217183000Y-157938990D01*
X217182999Y-157938951D01*
X217176724Y-157816571D01*
X217176724Y-157816568D01*
X217176724Y-157816567D01*
X217126737Y-157526648D01*
X217037738Y-157246237D01*
X216911386Y-156980555D01*
X216911385Y-156980554D01*
X216911384Y-156980551D01*
X216750035Y-156734555D01*
X216750033Y-156734553D01*
X216556686Y-156512814D01*
X216334947Y-156319467D01*
X216334946Y-156319466D01*
X216334944Y-156319464D01*
X216088948Y-156158115D01*
X215823272Y-156031766D01*
X215823267Y-156031764D01*
X215823263Y-156031762D01*
X215542852Y-155942763D01*
X215542848Y-155942762D01*
X215542847Y-155942762D01*
X215252929Y-155892775D01*
X215130548Y-155886500D01*
X215130516Y-155886500D01*
X203234484Y-155886500D01*
X203234451Y-155886500D01*
X203112071Y-155892775D01*
X203112068Y-155892775D01*
X202822152Y-155942762D01*
X202822148Y-155942763D01*
X202541737Y-156031762D01*
X202541734Y-156031763D01*
X202541732Y-156031764D01*
X202541727Y-156031766D01*
X202276051Y-156158115D01*
X202030055Y-156319464D01*
X202030053Y-156319466D01*
X201808314Y-156512814D01*
X201614966Y-156734553D01*
X201614964Y-156734555D01*
X201453615Y-156980551D01*
X201327266Y-157246227D01*
X201327264Y-157246232D01*
X201238263Y-157526648D01*
X201238262Y-157526652D01*
X201188275Y-157816568D01*
X201188275Y-157816571D01*
X201182000Y-157938951D01*
X201182000Y-158762500D01*
X201162315Y-158829539D01*
X201109511Y-158875294D01*
X201058000Y-158886500D01*
X152807210Y-158886500D01*
X152740171Y-158866815D01*
X152719529Y-158850181D01*
X146875758Y-153006410D01*
X146842273Y-152945087D01*
X146839439Y-152918729D01*
X146839439Y-150159333D01*
X146839437Y-150159295D01*
X146836555Y-150105034D01*
X146790677Y-149867815D01*
X146705368Y-149641762D01*
X146583083Y-149433378D01*
X146583078Y-149433371D01*
X146427342Y-149248658D01*
X146427339Y-149248655D01*
X146242626Y-149092919D01*
X146242619Y-149092914D01*
X146034235Y-148970629D01*
X145875543Y-148910741D01*
X145808183Y-148885321D01*
X145808181Y-148885320D01*
X145808177Y-148885319D01*
X145570968Y-148839443D01*
X145516702Y-148836560D01*
X145516677Y-148836559D01*
X145516671Y-148836559D01*
X145516664Y-148836559D01*
X145150500Y-148836559D01*
X145083461Y-148816874D01*
X145037706Y-148764070D01*
X145026500Y-148712559D01*
X145026500Y-135774499D01*
X145046185Y-135707460D01*
X145098989Y-135661705D01*
X145150500Y-135650499D01*
X145409871Y-135650499D01*
X145409882Y-135650499D01*
X145511564Y-135644186D01*
X145750887Y-135594006D01*
X145750896Y-135594002D01*
X145750898Y-135594002D01*
X145812957Y-135569785D01*
X145978686Y-135505118D01*
X146188747Y-135379948D01*
X146375342Y-135221911D01*
X146533379Y-135035316D01*
X146658549Y-134825255D01*
X146747437Y-134597456D01*
X146797617Y-134358133D01*
X146803930Y-134256451D01*
X146803930Y-129543549D01*
X146797617Y-129441867D01*
X146795090Y-129429814D01*
X146783914Y-129376512D01*
X146779855Y-129357153D01*
X163759500Y-129357153D01*
X163759500Y-129514843D01*
X163790261Y-129669489D01*
X163790264Y-129669501D01*
X163850602Y-129815172D01*
X163850609Y-129815185D01*
X163938210Y-129946288D01*
X163938213Y-129946292D01*
X164049710Y-130057789D01*
X164185887Y-130148779D01*
X164184983Y-130150131D01*
X164229222Y-130193569D01*
X164244696Y-130261704D01*
X164235497Y-130301438D01*
X164200264Y-130386498D01*
X164200261Y-130386510D01*
X164169500Y-130541153D01*
X164169500Y-130698846D01*
X164200261Y-130853489D01*
X164200264Y-130853501D01*
X164260602Y-130999172D01*
X164260609Y-130999185D01*
X164348210Y-131130288D01*
X164348213Y-131130292D01*
X164459707Y-131241786D01*
X164459711Y-131241789D01*
X164590814Y-131329390D01*
X164590827Y-131329397D01*
X164736498Y-131389735D01*
X164736503Y-131389737D01*
X164891153Y-131420499D01*
X164891156Y-131420500D01*
X164891158Y-131420500D01*
X165048844Y-131420500D01*
X165048845Y-131420499D01*
X165203497Y-131389737D01*
X165349179Y-131329394D01*
X165480289Y-131241789D01*
X165591789Y-131130289D01*
X165679394Y-130999179D01*
X165739737Y-130853497D01*
X165770500Y-130698842D01*
X165770500Y-130541158D01*
X165770500Y-130541155D01*
X165770499Y-130541153D01*
X165752017Y-130448237D01*
X165739737Y-130386503D01*
X165708298Y-130310602D01*
X165679397Y-130240827D01*
X165679390Y-130240814D01*
X165591398Y-130109125D01*
X165585747Y-130091078D01*
X165575523Y-130075169D01*
X165571071Y-130044207D01*
X165570520Y-130042447D01*
X165570500Y-130040234D01*
X165570500Y-129935060D01*
X165570501Y-129935047D01*
X165570501Y-129766944D01*
X165562740Y-129737979D01*
X165529577Y-129614216D01*
X165521169Y-129599653D01*
X165450524Y-129477290D01*
X165450518Y-129477282D01*
X165394573Y-129421337D01*
X165361088Y-129360014D01*
X165360637Y-129357847D01*
X165350511Y-129306941D01*
X165329737Y-129202503D01*
X165328591Y-129199737D01*
X165269397Y-129056827D01*
X165269390Y-129056814D01*
X165181789Y-128925711D01*
X165181786Y-128925707D01*
X165070292Y-128814213D01*
X165070288Y-128814210D01*
X164939185Y-128726609D01*
X164939172Y-128726602D01*
X164793501Y-128666264D01*
X164793489Y-128666261D01*
X164638845Y-128635500D01*
X164638842Y-128635500D01*
X164481158Y-128635500D01*
X164481155Y-128635500D01*
X164326510Y-128666261D01*
X164326498Y-128666264D01*
X164180827Y-128726602D01*
X164180814Y-128726609D01*
X164049711Y-128814210D01*
X164049707Y-128814213D01*
X163938213Y-128925707D01*
X163938210Y-128925711D01*
X163850609Y-129056814D01*
X163850602Y-129056827D01*
X163790264Y-129202498D01*
X163790261Y-129202510D01*
X163759500Y-129357153D01*
X146779855Y-129357153D01*
X146761526Y-129269738D01*
X146747437Y-129202544D01*
X146747435Y-129202539D01*
X146747433Y-129202532D01*
X146679329Y-129028000D01*
X146658549Y-128974745D01*
X146533379Y-128764684D01*
X146375342Y-128578089D01*
X146188747Y-128420052D01*
X146188742Y-128420049D01*
X146188741Y-128420048D01*
X145978688Y-128294883D01*
X145978684Y-128294881D01*
X145750898Y-128205997D01*
X145750891Y-128205995D01*
X145750887Y-128205994D01*
X145594530Y-128173209D01*
X145511566Y-128155814D01*
X145511562Y-128155813D01*
X145409888Y-128149501D01*
X145409882Y-128149501D01*
X145150500Y-128149501D01*
X145083461Y-128129816D01*
X145037706Y-128077012D01*
X145026500Y-128025501D01*
X145026500Y-116921153D01*
X199999500Y-116921153D01*
X199999500Y-117078846D01*
X200030261Y-117233489D01*
X200030264Y-117233501D01*
X200090602Y-117379172D01*
X200090609Y-117379185D01*
X200178210Y-117510288D01*
X200178213Y-117510292D01*
X200289707Y-117621786D01*
X200289711Y-117621789D01*
X200420814Y-117709390D01*
X200420827Y-117709397D01*
X200566498Y-117769735D01*
X200566503Y-117769737D01*
X200721153Y-117800499D01*
X200721156Y-117800500D01*
X200721158Y-117800500D01*
X200878844Y-117800500D01*
X200878845Y-117800499D01*
X201033497Y-117769737D01*
X201179179Y-117709394D01*
X201310289Y-117621789D01*
X201421789Y-117510289D01*
X201509394Y-117379179D01*
X201569737Y-117233497D01*
X201600500Y-117078842D01*
X201600500Y-116921158D01*
X201600500Y-116921155D01*
X201600499Y-116921153D01*
X201569738Y-116766510D01*
X201569737Y-116766503D01*
X201569735Y-116766498D01*
X201509397Y-116620827D01*
X201509390Y-116620814D01*
X201421789Y-116489711D01*
X201421786Y-116489707D01*
X201310292Y-116378213D01*
X201310288Y-116378210D01*
X201179185Y-116290609D01*
X201179172Y-116290602D01*
X201033501Y-116230264D01*
X201033489Y-116230261D01*
X200878845Y-116199500D01*
X200878842Y-116199500D01*
X200721158Y-116199500D01*
X200721155Y-116199500D01*
X200566510Y-116230261D01*
X200566498Y-116230264D01*
X200420827Y-116290602D01*
X200420814Y-116290609D01*
X200289711Y-116378210D01*
X200289707Y-116378213D01*
X200178213Y-116489707D01*
X200178210Y-116489711D01*
X200090609Y-116620814D01*
X200090602Y-116620827D01*
X200030264Y-116766498D01*
X200030261Y-116766510D01*
X199999500Y-116921153D01*
X145026500Y-116921153D01*
X145026500Y-115774500D01*
X145046185Y-115707461D01*
X145098989Y-115661706D01*
X145150500Y-115650500D01*
X145449932Y-115650500D01*
X145449943Y-115650500D01*
X145551625Y-115644187D01*
X145790948Y-115594007D01*
X145790957Y-115594003D01*
X145790959Y-115594003D01*
X145853018Y-115569786D01*
X146018747Y-115505119D01*
X146228808Y-115379949D01*
X146415403Y-115221912D01*
X146573440Y-115035317D01*
X146698610Y-114825256D01*
X146787498Y-114597457D01*
X146837678Y-114358134D01*
X146843991Y-114256452D01*
X146843991Y-109543548D01*
X146837678Y-109441866D01*
X146787498Y-109202543D01*
X146787494Y-109202534D01*
X146787494Y-109202531D01*
X146698610Y-108974745D01*
X146698608Y-108974741D01*
X146573443Y-108764688D01*
X146573442Y-108764687D01*
X146573440Y-108764683D01*
X146415403Y-108578088D01*
X146228808Y-108420051D01*
X146228803Y-108420048D01*
X146228802Y-108420047D01*
X146018749Y-108294882D01*
X146018745Y-108294880D01*
X145790959Y-108205996D01*
X145790952Y-108205994D01*
X145790948Y-108205993D01*
X145634591Y-108173208D01*
X145551627Y-108155813D01*
X145551623Y-108155812D01*
X145449949Y-108149500D01*
X145449943Y-108149500D01*
X138602057Y-108149500D01*
X138602050Y-108149500D01*
X138500376Y-108155812D01*
X138500372Y-108155813D01*
X138375925Y-108181906D01*
X138261052Y-108205993D01*
X138261048Y-108205994D01*
X138261040Y-108205996D01*
X138033254Y-108294880D01*
X138033250Y-108294882D01*
X137823197Y-108420047D01*
X137636597Y-108578088D01*
X137478556Y-108764688D01*
X137353391Y-108974741D01*
X137353389Y-108974745D01*
X137264505Y-109202531D01*
X137264503Y-109202539D01*
X137264502Y-109202543D01*
X137240415Y-109317416D01*
X137214322Y-109441863D01*
X137214321Y-109441867D01*
X137208009Y-109543541D01*
X137208009Y-114256458D01*
X137214321Y-114358132D01*
X137214322Y-114358134D01*
X137264502Y-114597457D01*
X137264503Y-114597461D01*
X137264505Y-114597468D01*
X137353389Y-114825254D01*
X137353390Y-114825256D01*
X137478560Y-115035317D01*
X137636597Y-115221912D01*
X137823192Y-115379949D01*
X138033253Y-115505119D01*
X138116117Y-115537452D01*
X138261040Y-115594003D01*
X138261043Y-115594003D01*
X138261052Y-115594007D01*
X138500375Y-115644187D01*
X138602057Y-115650500D01*
X138901500Y-115650500D01*
X138968539Y-115670185D01*
X139014294Y-115722989D01*
X139025500Y-115774500D01*
X139025500Y-128025501D01*
X139005815Y-128092540D01*
X138953011Y-128138295D01*
X138901500Y-128149501D01*
X138642111Y-128149501D01*
X138540437Y-128155813D01*
X138540433Y-128155814D01*
X138415986Y-128181907D01*
X138301113Y-128205994D01*
X138301109Y-128205995D01*
X138301101Y-128205997D01*
X138073315Y-128294881D01*
X138073311Y-128294883D01*
X137863258Y-128420048D01*
X137676658Y-128578089D01*
X137518617Y-128764689D01*
X137393452Y-128974742D01*
X137393450Y-128974746D01*
X137304566Y-129202532D01*
X137304564Y-129202540D01*
X137304563Y-129202544D01*
X137290474Y-129269738D01*
X137254383Y-129441864D01*
X137254382Y-129441868D01*
X137248070Y-129543542D01*
X137248070Y-134256457D01*
X137254382Y-134358131D01*
X137254383Y-134358133D01*
X137304563Y-134597456D01*
X137304564Y-134597460D01*
X137304566Y-134597467D01*
X137393450Y-134825253D01*
X137393451Y-134825255D01*
X137518621Y-135035316D01*
X137676658Y-135221911D01*
X137863253Y-135379948D01*
X138073314Y-135505118D01*
X138156178Y-135537451D01*
X138301101Y-135594002D01*
X138301104Y-135594002D01*
X138301113Y-135594006D01*
X138540436Y-135644186D01*
X138642118Y-135650499D01*
X138901500Y-135650499D01*
X138968539Y-135670184D01*
X139014294Y-135722988D01*
X139025500Y-135774499D01*
X139025500Y-148712559D01*
X139005815Y-148779598D01*
X138953011Y-148825353D01*
X138901500Y-148836559D01*
X138535329Y-148836559D01*
X138535322Y-148836559D01*
X138535297Y-148836560D01*
X138481033Y-148839443D01*
X138481029Y-148839443D01*
X138243822Y-148885319D01*
X138017764Y-148970629D01*
X137809380Y-149092914D01*
X137809373Y-149092919D01*
X137624660Y-149248655D01*
X137624657Y-149248658D01*
X137468921Y-149433371D01*
X137468916Y-149433378D01*
X137346631Y-149641762D01*
X137261321Y-149867820D01*
X137215445Y-150105027D01*
X137215445Y-150105031D01*
X137212562Y-150159295D01*
X137212561Y-150159333D01*
X137212561Y-154640666D01*
X137212562Y-154640704D01*
X137215445Y-154694968D01*
X137215445Y-154694972D01*
X137261321Y-154932179D01*
X137261322Y-154932183D01*
X137261323Y-154932185D01*
X137269250Y-154953190D01*
X137346631Y-155158237D01*
X137468916Y-155366621D01*
X137468921Y-155366628D01*
X137624657Y-155551341D01*
X137624660Y-155551344D01*
X137809373Y-155707080D01*
X137809380Y-155707085D01*
X138017764Y-155829370D01*
X138243817Y-155914679D01*
X138481036Y-155960557D01*
X138535329Y-155963441D01*
X141294731Y-155963441D01*
X141361770Y-155983126D01*
X141382412Y-155999760D01*
X149510476Y-164127824D01*
X149773961Y-164337946D01*
X150059314Y-164517246D01*
X150362949Y-164663469D01*
X150601848Y-164747063D01*
X150681034Y-164774772D01*
X150681046Y-164774776D01*
X151009606Y-164849767D01*
X151344491Y-164887499D01*
X151344492Y-164887500D01*
X151344495Y-164887500D01*
X151344496Y-164887500D01*
X201058000Y-164887500D01*
X201125039Y-164907185D01*
X201170794Y-164959989D01*
X201182000Y-165011500D01*
X201182000Y-165835048D01*
X201188275Y-165957428D01*
X201188275Y-165957431D01*
X201206433Y-166062743D01*
X201238263Y-166247352D01*
X201327262Y-166527763D01*
X201327264Y-166527767D01*
X201327266Y-166527772D01*
X201453615Y-166793448D01*
X201614964Y-167039444D01*
X201614966Y-167039446D01*
X201614967Y-167039447D01*
X201808314Y-167261186D01*
X201979829Y-167410740D01*
X202030053Y-167454533D01*
X202030055Y-167454535D01*
X202276051Y-167615884D01*
X202276054Y-167615885D01*
X202276055Y-167615886D01*
X202541737Y-167742238D01*
X202589229Y-167757311D01*
X202647170Y-167796353D01*
X202674807Y-167860524D01*
X202663363Y-167929450D01*
X202616472Y-167981248D01*
X202551715Y-167999500D01*
X133854785Y-167999500D01*
X133787746Y-167979815D01*
X133741991Y-167927011D01*
X133732047Y-167857853D01*
X133761072Y-167794297D01*
X133817270Y-167757311D01*
X133864763Y-167742238D01*
X134130445Y-167615886D01*
X134376447Y-167454533D01*
X134598186Y-167261186D01*
X134791533Y-167039447D01*
X134952886Y-166793445D01*
X135079238Y-166527763D01*
X135168237Y-166247352D01*
X135218224Y-165957433D01*
X135220017Y-165922451D01*
X135224499Y-165835048D01*
X135224500Y-165835009D01*
X135224500Y-165229041D01*
X137599500Y-165229041D01*
X137599500Y-165510958D01*
X137636295Y-165790439D01*
X137709259Y-166062743D01*
X137817135Y-166323179D01*
X137817140Y-166323190D01*
X137958083Y-166567309D01*
X137958088Y-166567317D01*
X138129700Y-166790965D01*
X138129704Y-166790970D01*
X138329029Y-166990295D01*
X138329033Y-166990298D01*
X138329035Y-166990300D01*
X138552683Y-167161912D01*
X138552690Y-167161916D01*
X138796809Y-167302859D01*
X138796814Y-167302861D01*
X138796817Y-167302863D01*
X139057261Y-167410742D01*
X139329558Y-167483704D01*
X139609049Y-167520500D01*
X139609056Y-167520500D01*
X139890944Y-167520500D01*
X139890951Y-167520500D01*
X140170442Y-167483704D01*
X140442739Y-167410742D01*
X140703183Y-167302863D01*
X140947317Y-167161912D01*
X141170965Y-166990300D01*
X141370300Y-166790965D01*
X141541912Y-166567317D01*
X141682863Y-166323183D01*
X141790742Y-166062739D01*
X141863704Y-165790442D01*
X141900500Y-165510951D01*
X141900500Y-165229049D01*
X141863704Y-164949558D01*
X141790742Y-164677261D01*
X141682863Y-164416817D01*
X141682861Y-164416814D01*
X141682859Y-164416809D01*
X141541916Y-164172690D01*
X141541912Y-164172683D01*
X141370300Y-163949035D01*
X141370298Y-163949033D01*
X141370295Y-163949029D01*
X141170970Y-163749704D01*
X141170965Y-163749700D01*
X140947317Y-163578088D01*
X140947311Y-163578084D01*
X140947309Y-163578083D01*
X140703190Y-163437140D01*
X140703179Y-163437135D01*
X140442743Y-163329259D01*
X140170439Y-163256295D01*
X139890958Y-163219500D01*
X139890951Y-163219500D01*
X139609049Y-163219500D01*
X139609041Y-163219500D01*
X139329560Y-163256295D01*
X139057256Y-163329259D01*
X138796820Y-163437135D01*
X138796809Y-163437140D01*
X138552690Y-163578083D01*
X138552682Y-163578089D01*
X138329029Y-163749704D01*
X138129704Y-163949029D01*
X137958089Y-164172682D01*
X137958083Y-164172690D01*
X137817140Y-164416809D01*
X137817135Y-164416820D01*
X137709259Y-164677256D01*
X137636295Y-164949560D01*
X137599500Y-165229041D01*
X135224500Y-165229041D01*
X135224500Y-157938990D01*
X135224499Y-157938951D01*
X135218224Y-157816571D01*
X135218224Y-157816568D01*
X135218224Y-157816567D01*
X135168237Y-157526648D01*
X135079238Y-157246237D01*
X134952886Y-156980555D01*
X134952885Y-156980554D01*
X134952884Y-156980551D01*
X134791535Y-156734555D01*
X134791533Y-156734553D01*
X134598186Y-156512814D01*
X134376447Y-156319467D01*
X134376446Y-156319466D01*
X134376444Y-156319464D01*
X134130448Y-156158115D01*
X133864772Y-156031766D01*
X133864767Y-156031764D01*
X133864763Y-156031762D01*
X133584352Y-155942763D01*
X133584348Y-155942762D01*
X133584347Y-155942762D01*
X133294429Y-155892775D01*
X133172048Y-155886500D01*
X133172016Y-155886500D01*
X121275984Y-155886500D01*
X121275951Y-155886500D01*
X121153571Y-155892775D01*
X121153568Y-155892775D01*
X120863652Y-155942762D01*
X120863648Y-155942763D01*
X120583237Y-156031762D01*
X120583234Y-156031763D01*
X120583232Y-156031764D01*
X120583227Y-156031766D01*
X120317551Y-156158115D01*
X120071555Y-156319464D01*
X120071553Y-156319466D01*
X119849814Y-156512814D01*
X119656466Y-156734553D01*
X119656464Y-156734555D01*
X119495115Y-156980551D01*
X119368766Y-157246227D01*
X119368764Y-157246232D01*
X119279763Y-157526648D01*
X119279762Y-157526652D01*
X119229775Y-157816568D01*
X119229775Y-157816571D01*
X119223500Y-157938951D01*
X119223500Y-158762500D01*
X119203815Y-158829539D01*
X119151011Y-158875294D01*
X119099500Y-158886500D01*
X70848210Y-158886500D01*
X70781171Y-158866815D01*
X70760529Y-158850181D01*
X64916758Y-153006410D01*
X64883273Y-152945087D01*
X64880439Y-152918729D01*
X64880439Y-150159333D01*
X64880437Y-150159295D01*
X64877555Y-150105034D01*
X64831677Y-149867815D01*
X64746368Y-149641762D01*
X64624083Y-149433378D01*
X64624078Y-149433371D01*
X64468342Y-149248658D01*
X64468339Y-149248655D01*
X64283626Y-149092919D01*
X64283619Y-149092914D01*
X64075235Y-148970629D01*
X63916543Y-148910741D01*
X63849183Y-148885321D01*
X63849181Y-148885320D01*
X63849177Y-148885319D01*
X63611968Y-148839443D01*
X63557702Y-148836560D01*
X63557677Y-148836559D01*
X63557671Y-148836559D01*
X63557664Y-148836559D01*
X63191500Y-148836559D01*
X63124461Y-148816874D01*
X63078706Y-148764070D01*
X63067500Y-148712559D01*
X63067500Y-140961153D01*
X64029500Y-140961153D01*
X64029500Y-141118846D01*
X64060261Y-141273489D01*
X64060264Y-141273501D01*
X64120602Y-141419172D01*
X64120609Y-141419185D01*
X64208210Y-141550288D01*
X64208213Y-141550292D01*
X64319707Y-141661786D01*
X64319711Y-141661789D01*
X64450814Y-141749390D01*
X64450827Y-141749397D01*
X64596498Y-141809735D01*
X64596503Y-141809737D01*
X64751153Y-141840499D01*
X64751156Y-141840500D01*
X64751158Y-141840500D01*
X64908844Y-141840500D01*
X64908845Y-141840499D01*
X65063497Y-141809737D01*
X65209179Y-141749394D01*
X65209185Y-141749390D01*
X65340875Y-141661398D01*
X65407553Y-141640520D01*
X65409766Y-141640500D01*
X100843331Y-141640500D01*
X100843347Y-141640501D01*
X100850943Y-141640501D01*
X101009054Y-141640501D01*
X101009057Y-141640501D01*
X101161785Y-141599577D01*
X101211904Y-141570639D01*
X101298716Y-141520520D01*
X101410520Y-141408716D01*
X101410520Y-141408714D01*
X101420728Y-141398507D01*
X101420729Y-141398504D01*
X110954664Y-131864571D01*
X111015985Y-131831088D01*
X111018152Y-131830637D01*
X111018841Y-131830500D01*
X111018842Y-131830500D01*
X111173497Y-131799737D01*
X111319179Y-131739394D01*
X111450289Y-131651789D01*
X111561789Y-131540289D01*
X111649394Y-131409179D01*
X111709737Y-131263497D01*
X111740500Y-131108842D01*
X111740500Y-130951158D01*
X111740500Y-130951155D01*
X111740499Y-130951153D01*
X111732455Y-130910713D01*
X111709737Y-130796503D01*
X111677796Y-130719390D01*
X111649397Y-130650827D01*
X111649390Y-130650814D01*
X111561789Y-130519711D01*
X111561786Y-130519707D01*
X111450292Y-130408213D01*
X111450288Y-130408210D01*
X111319185Y-130320609D01*
X111319172Y-130320602D01*
X111173501Y-130260264D01*
X111173489Y-130260261D01*
X111018845Y-130229500D01*
X111018842Y-130229500D01*
X110861158Y-130229500D01*
X110861155Y-130229500D01*
X110706510Y-130260261D01*
X110706498Y-130260264D01*
X110560827Y-130320602D01*
X110560814Y-130320609D01*
X110429711Y-130408210D01*
X110402679Y-130435242D01*
X110341355Y-130468726D01*
X110271664Y-130463740D01*
X110227317Y-130435239D01*
X110190292Y-130398213D01*
X110190288Y-130398210D01*
X110059185Y-130310609D01*
X110059172Y-130310602D01*
X109913501Y-130250264D01*
X109913491Y-130250261D01*
X109895366Y-130246656D01*
X109833455Y-130214271D01*
X109798881Y-130153555D01*
X109802622Y-130083785D01*
X109831873Y-130037362D01*
X109960520Y-129908716D01*
X110039577Y-129771784D01*
X110080501Y-129619057D01*
X110080501Y-129460942D01*
X110080501Y-129453347D01*
X110080500Y-129453329D01*
X110080500Y-128208765D01*
X110100185Y-128141726D01*
X110101398Y-128139874D01*
X110189390Y-128008185D01*
X110189390Y-128008184D01*
X110189394Y-128008179D01*
X110249737Y-127862497D01*
X110280500Y-127707842D01*
X110280500Y-127550158D01*
X110280500Y-127550155D01*
X110280499Y-127550153D01*
X110268955Y-127492118D01*
X110249737Y-127395503D01*
X110247115Y-127389172D01*
X110189397Y-127249827D01*
X110189390Y-127249814D01*
X110101789Y-127118711D01*
X110101786Y-127118707D01*
X109990292Y-127007213D01*
X109990288Y-127007210D01*
X109859185Y-126919609D01*
X109859172Y-126919602D01*
X109713501Y-126859264D01*
X109713489Y-126859261D01*
X109558845Y-126828500D01*
X109558842Y-126828500D01*
X109401158Y-126828500D01*
X109401155Y-126828500D01*
X109246510Y-126859261D01*
X109246498Y-126859264D01*
X109100827Y-126919602D01*
X109100814Y-126919609D01*
X108969711Y-127007210D01*
X108969707Y-127007213D01*
X108858213Y-127118707D01*
X108858210Y-127118711D01*
X108770609Y-127249814D01*
X108770602Y-127249827D01*
X108710264Y-127395498D01*
X108710261Y-127395510D01*
X108679500Y-127550153D01*
X108679500Y-127707846D01*
X108710261Y-127862489D01*
X108710264Y-127862501D01*
X108770602Y-128008172D01*
X108770609Y-128008185D01*
X108858602Y-128139874D01*
X108879480Y-128206551D01*
X108879500Y-128208765D01*
X108879500Y-129239902D01*
X108859815Y-129306941D01*
X108843181Y-129327583D01*
X107472839Y-130697925D01*
X107411516Y-130731410D01*
X107409350Y-130731861D01*
X107254008Y-130762761D01*
X107253998Y-130762764D01*
X107108327Y-130823102D01*
X107108314Y-130823109D01*
X106977211Y-130910710D01*
X106977207Y-130910713D01*
X106865713Y-131022207D01*
X106865710Y-131022211D01*
X106778109Y-131153314D01*
X106778102Y-131153327D01*
X106717764Y-131298998D01*
X106717761Y-131299008D01*
X106703005Y-131373192D01*
X106670620Y-131435103D01*
X106609904Y-131469677D01*
X106581388Y-131473000D01*
X105433597Y-131473000D01*
X105366558Y-131453315D01*
X105345916Y-131436681D01*
X104084574Y-130175339D01*
X104051089Y-130114016D01*
X104050638Y-130111849D01*
X104032595Y-130021147D01*
X104019737Y-129956503D01*
X104019735Y-129956498D01*
X103959397Y-129810827D01*
X103959390Y-129810814D01*
X103871789Y-129679711D01*
X103871786Y-129679707D01*
X103760292Y-129568213D01*
X103760288Y-129568210D01*
X103629185Y-129480609D01*
X103629172Y-129480602D01*
X103483501Y-129420264D01*
X103483489Y-129420261D01*
X103328845Y-129389500D01*
X103328842Y-129389500D01*
X103171158Y-129389500D01*
X103171155Y-129389500D01*
X103016510Y-129420261D01*
X103016498Y-129420264D01*
X102870827Y-129480602D01*
X102870814Y-129480609D01*
X102739711Y-129568210D01*
X102739707Y-129568213D01*
X102628213Y-129679707D01*
X102628210Y-129679711D01*
X102540609Y-129810814D01*
X102540602Y-129810827D01*
X102480264Y-129956498D01*
X102480261Y-129956510D01*
X102449500Y-130111153D01*
X102449500Y-130268846D01*
X102480261Y-130423489D01*
X102480264Y-130423501D01*
X102540602Y-130569172D01*
X102540609Y-130569185D01*
X102628210Y-130700288D01*
X102628213Y-130700292D01*
X102739707Y-130811786D01*
X102739711Y-130811789D01*
X102870814Y-130899390D01*
X102870827Y-130899397D01*
X102995779Y-130951153D01*
X103016503Y-130959737D01*
X103081147Y-130972595D01*
X103171849Y-130990638D01*
X103233760Y-131023023D01*
X103235339Y-131024574D01*
X104648639Y-132437874D01*
X104648649Y-132437885D01*
X104652979Y-132442215D01*
X104652980Y-132442216D01*
X104764784Y-132554020D01*
X104851595Y-132604139D01*
X104851597Y-132604141D01*
X104901713Y-132633076D01*
X104901715Y-132633077D01*
X105054442Y-132674000D01*
X105054443Y-132674000D01*
X108147402Y-132674000D01*
X108214441Y-132693685D01*
X108260196Y-132746489D01*
X108270140Y-132815647D01*
X108241115Y-132879203D01*
X108235083Y-132885681D01*
X100717584Y-140403181D01*
X100656261Y-140436666D01*
X100629903Y-140439500D01*
X65409766Y-140439500D01*
X65342727Y-140419815D01*
X65340875Y-140418602D01*
X65209185Y-140330609D01*
X65209172Y-140330602D01*
X65063501Y-140270264D01*
X65063489Y-140270261D01*
X64908845Y-140239500D01*
X64908842Y-140239500D01*
X64751158Y-140239500D01*
X64751155Y-140239500D01*
X64596510Y-140270261D01*
X64596498Y-140270264D01*
X64450827Y-140330602D01*
X64450814Y-140330609D01*
X64319711Y-140418210D01*
X64319707Y-140418213D01*
X64208213Y-140529707D01*
X64208210Y-140529711D01*
X64120609Y-140660814D01*
X64120602Y-140660827D01*
X64060264Y-140806498D01*
X64060261Y-140806510D01*
X64029500Y-140961153D01*
X63067500Y-140961153D01*
X63067500Y-135774499D01*
X63087185Y-135707460D01*
X63139989Y-135661705D01*
X63191500Y-135650499D01*
X63450871Y-135650499D01*
X63450882Y-135650499D01*
X63552564Y-135644186D01*
X63791887Y-135594006D01*
X63791896Y-135594002D01*
X63791898Y-135594002D01*
X63853957Y-135569785D01*
X64019686Y-135505118D01*
X64229747Y-135379948D01*
X64416342Y-135221911D01*
X64574379Y-135035316D01*
X64699549Y-134825255D01*
X64788437Y-134597456D01*
X64838617Y-134358133D01*
X64844930Y-134256451D01*
X64844930Y-129931153D01*
X88909500Y-129931153D01*
X88909500Y-130088846D01*
X88940261Y-130243489D01*
X88940264Y-130243501D01*
X89000602Y-130389172D01*
X89000609Y-130389185D01*
X89088210Y-130520288D01*
X89088213Y-130520292D01*
X89199707Y-130631786D01*
X89199711Y-130631789D01*
X89330814Y-130719390D01*
X89330827Y-130719397D01*
X89435526Y-130762764D01*
X89476503Y-130779737D01*
X89631153Y-130810499D01*
X89631156Y-130810500D01*
X89631158Y-130810500D01*
X89788844Y-130810500D01*
X89788845Y-130810499D01*
X89943497Y-130779737D01*
X90084037Y-130721523D01*
X90153505Y-130714055D01*
X90215984Y-130745330D01*
X90219169Y-130748404D01*
X90415425Y-130944660D01*
X90448910Y-131005983D01*
X90449361Y-131008149D01*
X90480261Y-131163491D01*
X90480264Y-131163501D01*
X90540602Y-131309172D01*
X90540609Y-131309185D01*
X90628210Y-131440288D01*
X90628213Y-131440292D01*
X90739707Y-131551786D01*
X90739711Y-131551789D01*
X90870814Y-131639390D01*
X90870827Y-131639397D01*
X90992363Y-131689738D01*
X91016503Y-131699737D01*
X91171153Y-131730499D01*
X91171156Y-131730500D01*
X91171158Y-131730500D01*
X91328844Y-131730500D01*
X91328845Y-131730499D01*
X91483497Y-131699737D01*
X91629179Y-131639394D01*
X91760289Y-131551789D01*
X91871789Y-131440289D01*
X91959394Y-131309179D01*
X92019737Y-131163497D01*
X92050500Y-131008842D01*
X92050500Y-130851158D01*
X92050500Y-130851155D01*
X92050499Y-130851153D01*
X92042668Y-130811786D01*
X92019737Y-130696503D01*
X92015595Y-130686503D01*
X91959397Y-130550827D01*
X91959390Y-130550814D01*
X91871789Y-130419711D01*
X91871786Y-130419707D01*
X91760292Y-130308213D01*
X91760288Y-130308210D01*
X91629185Y-130220609D01*
X91629172Y-130220602D01*
X91483501Y-130160264D01*
X91483491Y-130160261D01*
X91328149Y-130129361D01*
X91266238Y-130096976D01*
X91264660Y-130095425D01*
X90857590Y-129688355D01*
X90857588Y-129688352D01*
X90738717Y-129569481D01*
X90738716Y-129569480D01*
X90644079Y-129514842D01*
X90644078Y-129514841D01*
X90601783Y-129490422D01*
X90545881Y-129475443D01*
X90449057Y-129449499D01*
X90332940Y-129449499D01*
X90265901Y-129429814D01*
X90245259Y-129413180D01*
X90220292Y-129388213D01*
X90220288Y-129388210D01*
X90089185Y-129300609D01*
X90089172Y-129300602D01*
X89943501Y-129240264D01*
X89943489Y-129240261D01*
X89788845Y-129209500D01*
X89788842Y-129209500D01*
X89631158Y-129209500D01*
X89631155Y-129209500D01*
X89476510Y-129240261D01*
X89476498Y-129240264D01*
X89330827Y-129300602D01*
X89330814Y-129300609D01*
X89199711Y-129388210D01*
X89199707Y-129388213D01*
X89088213Y-129499707D01*
X89088210Y-129499711D01*
X89000609Y-129630814D01*
X89000602Y-129630827D01*
X88940264Y-129776498D01*
X88940261Y-129776510D01*
X88909500Y-129931153D01*
X64844930Y-129931153D01*
X64844930Y-129543549D01*
X64838617Y-129441867D01*
X64788437Y-129202544D01*
X64788433Y-129202535D01*
X64788433Y-129202532D01*
X64720329Y-129028000D01*
X64699549Y-128974745D01*
X64574379Y-128764684D01*
X64416342Y-128578089D01*
X64229747Y-128420052D01*
X64229742Y-128420049D01*
X64229741Y-128420048D01*
X64019688Y-128294883D01*
X64019684Y-128294881D01*
X63791898Y-128205997D01*
X63791891Y-128205995D01*
X63791887Y-128205994D01*
X63635530Y-128173209D01*
X63552566Y-128155814D01*
X63552562Y-128155813D01*
X63450888Y-128149501D01*
X63450882Y-128149501D01*
X63191500Y-128149501D01*
X63124461Y-128129816D01*
X63078706Y-128077012D01*
X63067500Y-128025501D01*
X63067500Y-127441153D01*
X96530500Y-127441153D01*
X96530500Y-127598846D01*
X96561261Y-127753489D01*
X96561264Y-127753501D01*
X96621602Y-127899172D01*
X96621609Y-127899185D01*
X96709210Y-128030288D01*
X96709213Y-128030292D01*
X96820707Y-128141786D01*
X96820711Y-128141789D01*
X96951814Y-128229390D01*
X96951827Y-128229397D01*
X97097498Y-128289735D01*
X97097503Y-128289737D01*
X97162147Y-128302595D01*
X97252849Y-128320638D01*
X97314760Y-128353023D01*
X97316339Y-128354574D01*
X97826139Y-128864374D01*
X97826149Y-128864385D01*
X97830479Y-128868715D01*
X97830480Y-128868716D01*
X97942284Y-128980520D01*
X98024523Y-129028000D01*
X98079215Y-129059577D01*
X98231942Y-129100500D01*
X98231943Y-129100500D01*
X98760234Y-129100500D01*
X98827273Y-129120185D01*
X98829125Y-129121398D01*
X98960814Y-129209390D01*
X98960827Y-129209397D01*
X99035348Y-129240264D01*
X99106503Y-129269737D01*
X99214726Y-129291264D01*
X99261153Y-129300499D01*
X99261156Y-129300500D01*
X99261158Y-129300500D01*
X99418844Y-129300500D01*
X99418845Y-129300499D01*
X99573497Y-129269737D01*
X99719179Y-129209394D01*
X99850289Y-129121789D01*
X99961789Y-129010289D01*
X100049394Y-128879179D01*
X100109737Y-128733497D01*
X100140500Y-128578842D01*
X100140500Y-128421158D01*
X100140500Y-128421155D01*
X100140499Y-128421153D01*
X100138761Y-128412416D01*
X100109737Y-128266503D01*
X100094366Y-128229394D01*
X100049397Y-128120827D01*
X100049390Y-128120814D01*
X99961789Y-127989711D01*
X99961786Y-127989707D01*
X99850292Y-127878213D01*
X99850288Y-127878210D01*
X99719185Y-127790609D01*
X99719172Y-127790602D01*
X99573501Y-127730264D01*
X99573489Y-127730261D01*
X99418845Y-127699500D01*
X99418842Y-127699500D01*
X99261158Y-127699500D01*
X99261155Y-127699500D01*
X99106510Y-127730261D01*
X99106498Y-127730264D01*
X98960827Y-127790602D01*
X98960814Y-127790609D01*
X98829125Y-127878602D01*
X98811078Y-127884252D01*
X98795169Y-127894477D01*
X98764207Y-127898928D01*
X98762447Y-127899480D01*
X98760234Y-127899500D01*
X98611097Y-127899500D01*
X98544058Y-127879815D01*
X98523416Y-127863181D01*
X98165574Y-127505339D01*
X98132089Y-127444016D01*
X98131638Y-127441849D01*
X98100738Y-127286510D01*
X98100737Y-127286503D01*
X98100735Y-127286498D01*
X98040397Y-127140827D01*
X98040390Y-127140814D01*
X97952789Y-127009711D01*
X97952786Y-127009707D01*
X97841292Y-126898213D01*
X97841288Y-126898210D01*
X97710185Y-126810609D01*
X97710172Y-126810602D01*
X97564501Y-126750264D01*
X97564489Y-126750261D01*
X97409845Y-126719500D01*
X97409842Y-126719500D01*
X97252158Y-126719500D01*
X97252155Y-126719500D01*
X97097510Y-126750261D01*
X97097498Y-126750264D01*
X96951827Y-126810602D01*
X96951814Y-126810609D01*
X96820711Y-126898210D01*
X96820707Y-126898213D01*
X96709213Y-127009707D01*
X96709210Y-127009711D01*
X96621609Y-127140814D01*
X96621602Y-127140827D01*
X96561264Y-127286498D01*
X96561261Y-127286510D01*
X96530500Y-127441153D01*
X63067500Y-127441153D01*
X63067500Y-123047153D01*
X84769500Y-123047153D01*
X84769500Y-123204846D01*
X84800261Y-123359489D01*
X84800264Y-123359501D01*
X84860602Y-123505172D01*
X84860609Y-123505185D01*
X84948210Y-123636288D01*
X84948213Y-123636292D01*
X85059707Y-123747786D01*
X85059711Y-123747789D01*
X85190814Y-123835390D01*
X85190827Y-123835397D01*
X85336498Y-123895735D01*
X85336503Y-123895737D01*
X85491153Y-123926499D01*
X85491156Y-123926500D01*
X85491158Y-123926500D01*
X85648844Y-123926500D01*
X85648845Y-123926499D01*
X85803497Y-123895737D01*
X85949179Y-123835394D01*
X86080289Y-123747789D01*
X86096925Y-123731153D01*
X87209500Y-123731153D01*
X87209500Y-123888846D01*
X87240261Y-124043489D01*
X87240264Y-124043501D01*
X87300602Y-124189172D01*
X87300609Y-124189185D01*
X87388210Y-124320288D01*
X87388213Y-124320292D01*
X87499707Y-124431786D01*
X87499711Y-124431789D01*
X87630814Y-124519390D01*
X87630827Y-124519397D01*
X87725799Y-124558735D01*
X87776503Y-124579737D01*
X87931153Y-124610499D01*
X87931156Y-124610500D01*
X87931158Y-124610500D01*
X88088844Y-124610500D01*
X88088845Y-124610499D01*
X88243497Y-124579737D01*
X88389179Y-124519394D01*
X88520289Y-124431789D01*
X88631789Y-124320289D01*
X88631791Y-124320285D01*
X88635653Y-124315581D01*
X88637694Y-124317255D01*
X88682537Y-124279795D01*
X88732005Y-124269500D01*
X89618903Y-124269500D01*
X89685942Y-124289185D01*
X89706584Y-124305819D01*
X89925425Y-124524660D01*
X89958910Y-124585983D01*
X89959361Y-124588149D01*
X89990261Y-124743491D01*
X89990264Y-124743501D01*
X90050602Y-124889172D01*
X90050609Y-124889185D01*
X90138210Y-125020288D01*
X90138213Y-125020292D01*
X90249707Y-125131786D01*
X90249711Y-125131789D01*
X90380814Y-125219390D01*
X90380827Y-125219397D01*
X90526498Y-125279735D01*
X90526503Y-125279737D01*
X90681153Y-125310499D01*
X90681156Y-125310500D01*
X90681158Y-125310500D01*
X90838844Y-125310500D01*
X90838845Y-125310499D01*
X90993497Y-125279737D01*
X91139179Y-125219394D01*
X91270289Y-125131789D01*
X91381789Y-125020289D01*
X91469394Y-124889179D01*
X91529737Y-124743497D01*
X91545925Y-124662114D01*
X92584501Y-124662114D01*
X92584501Y-124819807D01*
X92615262Y-124974450D01*
X92615265Y-124974462D01*
X92675603Y-125120133D01*
X92675610Y-125120146D01*
X92763211Y-125251249D01*
X92763214Y-125251253D01*
X92874708Y-125362747D01*
X92874712Y-125362750D01*
X93005815Y-125450351D01*
X93005828Y-125450358D01*
X93151499Y-125510696D01*
X93151504Y-125510698D01*
X93216148Y-125523556D01*
X93306850Y-125541599D01*
X93323606Y-125550363D01*
X93342086Y-125554384D01*
X93367124Y-125573128D01*
X93368761Y-125573984D01*
X93370340Y-125575535D01*
X93417917Y-125623112D01*
X93451402Y-125684435D01*
X93454236Y-125710793D01*
X93454236Y-125729234D01*
X93434551Y-125796273D01*
X93433338Y-125798125D01*
X93345345Y-125929814D01*
X93345338Y-125929827D01*
X93285000Y-126075498D01*
X93284997Y-126075510D01*
X93254236Y-126230153D01*
X93254236Y-126387846D01*
X93284997Y-126542489D01*
X93285000Y-126542501D01*
X93345338Y-126688172D01*
X93345345Y-126688185D01*
X93432946Y-126819288D01*
X93432949Y-126819292D01*
X93544443Y-126930786D01*
X93544447Y-126930789D01*
X93675550Y-127018390D01*
X93675563Y-127018397D01*
X93821234Y-127078735D01*
X93821239Y-127078737D01*
X93975889Y-127109499D01*
X93975892Y-127109500D01*
X93975894Y-127109500D01*
X94133580Y-127109500D01*
X94133581Y-127109499D01*
X94288233Y-127078737D01*
X94400902Y-127032067D01*
X94433908Y-127018397D01*
X94433908Y-127018396D01*
X94433915Y-127018394D01*
X94565025Y-126930789D01*
X94676525Y-126819289D01*
X94764130Y-126688179D01*
X94824473Y-126542497D01*
X94855236Y-126387842D01*
X94855236Y-126230158D01*
X94855236Y-126230155D01*
X94855235Y-126230153D01*
X94824474Y-126075510D01*
X94824473Y-126075503D01*
X94785008Y-125980225D01*
X94764133Y-125929827D01*
X94764126Y-125929814D01*
X94676134Y-125798125D01*
X94655256Y-125731447D01*
X94655236Y-125729234D01*
X94655236Y-125331640D01*
X94655235Y-125331633D01*
X94646452Y-125298854D01*
X94614313Y-125178911D01*
X94574816Y-125110501D01*
X94574816Y-125110500D01*
X94535258Y-125041983D01*
X94535257Y-125041982D01*
X94535256Y-125041980D01*
X94423452Y-124930176D01*
X94423451Y-124930175D01*
X94419121Y-124925845D01*
X94419110Y-124925835D01*
X94219575Y-124726300D01*
X94186090Y-124664977D01*
X94185639Y-124662810D01*
X94167596Y-124572108D01*
X94154738Y-124507464D01*
X94123393Y-124431789D01*
X94094398Y-124361788D01*
X94094391Y-124361775D01*
X94006790Y-124230672D01*
X94006787Y-124230668D01*
X93895293Y-124119174D01*
X93895289Y-124119171D01*
X93764186Y-124031570D01*
X93764173Y-124031563D01*
X93618502Y-123971225D01*
X93618490Y-123971222D01*
X93463846Y-123940461D01*
X93463843Y-123940461D01*
X93306159Y-123940461D01*
X93306156Y-123940461D01*
X93151511Y-123971222D01*
X93151499Y-123971225D01*
X93005828Y-124031563D01*
X93005815Y-124031570D01*
X92874712Y-124119171D01*
X92874708Y-124119174D01*
X92763214Y-124230668D01*
X92763211Y-124230672D01*
X92675610Y-124361775D01*
X92675603Y-124361788D01*
X92615265Y-124507459D01*
X92615262Y-124507471D01*
X92584501Y-124662114D01*
X91545925Y-124662114D01*
X91560500Y-124588842D01*
X91560500Y-124431158D01*
X91560500Y-124431155D01*
X91560499Y-124431153D01*
X91538447Y-124320292D01*
X91529737Y-124276503D01*
X91526836Y-124269500D01*
X91469397Y-124130827D01*
X91469390Y-124130814D01*
X91381789Y-123999711D01*
X91381786Y-123999707D01*
X91270292Y-123888213D01*
X91270288Y-123888210D01*
X91139185Y-123800609D01*
X91139172Y-123800602D01*
X90993501Y-123740264D01*
X90993489Y-123740261D01*
X90838151Y-123709362D01*
X90776240Y-123676977D01*
X90774712Y-123675476D01*
X90406589Y-123307354D01*
X90406588Y-123307352D01*
X90287717Y-123188481D01*
X90287716Y-123188480D01*
X90200904Y-123138360D01*
X90200904Y-123138359D01*
X90200900Y-123138358D01*
X90150785Y-123109423D01*
X89998057Y-123068499D01*
X89839943Y-123068499D01*
X89832347Y-123068499D01*
X89832331Y-123068500D01*
X88336332Y-123068500D01*
X88288880Y-123059061D01*
X88243498Y-123040263D01*
X88243488Y-123040260D01*
X88088845Y-123009500D01*
X88088842Y-123009500D01*
X87931158Y-123009500D01*
X87931155Y-123009500D01*
X87776510Y-123040261D01*
X87776498Y-123040264D01*
X87630827Y-123100602D01*
X87630814Y-123100609D01*
X87499711Y-123188210D01*
X87499707Y-123188213D01*
X87388213Y-123299707D01*
X87388210Y-123299711D01*
X87300609Y-123430814D01*
X87300602Y-123430827D01*
X87240264Y-123576498D01*
X87240261Y-123576510D01*
X87209500Y-123731153D01*
X86096925Y-123731153D01*
X86118716Y-123709362D01*
X86190694Y-123637385D01*
X86191786Y-123636292D01*
X86191789Y-123636289D01*
X86279394Y-123505179D01*
X86339737Y-123359497D01*
X86359113Y-123262085D01*
X86370638Y-123204150D01*
X86403023Y-123142239D01*
X86404517Y-123140717D01*
X87798417Y-121746819D01*
X87859740Y-121713334D01*
X87886098Y-121710500D01*
X94188346Y-121710500D01*
X94255385Y-121730185D01*
X94301140Y-121782989D01*
X94311084Y-121852147D01*
X94291448Y-121903391D01*
X94217777Y-122013646D01*
X94217770Y-122013659D01*
X94157432Y-122159330D01*
X94157429Y-122159342D01*
X94126668Y-122313985D01*
X94126668Y-122471678D01*
X94157429Y-122626321D01*
X94157432Y-122626333D01*
X94217770Y-122772004D01*
X94217777Y-122772017D01*
X94305378Y-122903120D01*
X94305381Y-122903124D01*
X94416875Y-123014618D01*
X94416879Y-123014621D01*
X94547982Y-123102222D01*
X94547995Y-123102229D01*
X94693666Y-123162567D01*
X94693671Y-123162569D01*
X94823934Y-123188480D01*
X94848321Y-123193331D01*
X94848324Y-123193332D01*
X94848326Y-123193332D01*
X95006012Y-123193332D01*
X95006013Y-123193331D01*
X95160665Y-123162569D01*
X95306347Y-123102226D01*
X95308767Y-123100609D01*
X95438043Y-123014230D01*
X95504721Y-122993352D01*
X95506934Y-122993332D01*
X96154423Y-122993332D01*
X96221462Y-123013017D01*
X96242104Y-123029651D01*
X98820195Y-125607742D01*
X98853680Y-125669065D01*
X98848696Y-125738757D01*
X98820195Y-125783104D01*
X98754193Y-125849105D01*
X98754190Y-125849109D01*
X98666589Y-125980212D01*
X98666582Y-125980225D01*
X98606244Y-126125896D01*
X98606241Y-126125908D01*
X98575480Y-126280551D01*
X98575480Y-126438244D01*
X98606241Y-126592887D01*
X98606244Y-126592899D01*
X98666582Y-126738570D01*
X98666589Y-126738583D01*
X98754190Y-126869686D01*
X98754193Y-126869690D01*
X98865687Y-126981184D01*
X98865691Y-126981187D01*
X98996794Y-127068788D01*
X98996807Y-127068795D01*
X99117307Y-127118707D01*
X99142483Y-127129135D01*
X99297133Y-127159897D01*
X99297136Y-127159898D01*
X99297138Y-127159898D01*
X99454824Y-127159898D01*
X99454825Y-127159897D01*
X99609477Y-127129135D01*
X99731147Y-127078738D01*
X99755152Y-127068795D01*
X99755152Y-127068794D01*
X99755159Y-127068792D01*
X99886269Y-126981187D01*
X99997769Y-126869687D01*
X100085374Y-126738577D01*
X100128767Y-126633813D01*
X100133397Y-126626885D01*
X100134494Y-126621843D01*
X100155645Y-126593589D01*
X100164778Y-126584456D01*
X100236629Y-126512605D01*
X100297951Y-126479121D01*
X100300118Y-126478670D01*
X100300807Y-126478533D01*
X100300809Y-126478533D01*
X100455464Y-126447770D01*
X100568133Y-126401100D01*
X100601139Y-126387430D01*
X100601139Y-126387429D01*
X100601146Y-126387427D01*
X100732256Y-126299822D01*
X100843756Y-126188322D01*
X100931361Y-126057212D01*
X100991704Y-125911530D01*
X101022467Y-125756875D01*
X101022467Y-125599191D01*
X101022467Y-125599188D01*
X101022466Y-125599186D01*
X101004865Y-125510699D01*
X100991704Y-125444536D01*
X100991702Y-125444531D01*
X100931364Y-125298860D01*
X100931357Y-125298847D01*
X100843756Y-125167744D01*
X100843753Y-125167740D01*
X100732259Y-125056246D01*
X100732255Y-125056243D01*
X100601152Y-124968642D01*
X100601139Y-124968635D01*
X100455468Y-124908297D01*
X100455456Y-124908294D01*
X100300812Y-124877533D01*
X100300809Y-124877533D01*
X100143125Y-124877533D01*
X100143122Y-124877533D01*
X99988478Y-124908293D01*
X99988468Y-124908296D01*
X99945335Y-124926162D01*
X99875865Y-124933629D01*
X99813387Y-124902353D01*
X99810204Y-124899281D01*
X96942086Y-122031163D01*
X96940265Y-122029341D01*
X96929801Y-122010166D01*
X96926617Y-122012289D01*
X96926615Y-122012286D01*
X96929799Y-122010162D01*
X96923626Y-121998849D01*
X96906804Y-121968042D01*
X96906805Y-121968024D01*
X96906797Y-121968009D01*
X96909243Y-121933934D01*
X96911788Y-121898350D01*
X96911798Y-121898335D01*
X96911800Y-121898319D01*
X96932676Y-121870447D01*
X96953660Y-121842417D01*
X96953679Y-121842405D01*
X96953687Y-121842396D01*
X96953715Y-121842385D01*
X96980516Y-121827124D01*
X96999179Y-121819394D01*
X97130289Y-121731789D01*
X97241789Y-121620289D01*
X97329394Y-121489179D01*
X97389737Y-121343497D01*
X97420500Y-121188842D01*
X97420500Y-121031158D01*
X97420500Y-121031155D01*
X97420499Y-121031153D01*
X97389738Y-120876510D01*
X97389737Y-120876503D01*
X97338036Y-120751684D01*
X97329397Y-120730827D01*
X97329390Y-120730814D01*
X97241789Y-120599711D01*
X97241786Y-120599707D01*
X97130292Y-120488213D01*
X97130288Y-120488210D01*
X96999185Y-120400609D01*
X96999172Y-120400602D01*
X96853501Y-120340264D01*
X96853489Y-120340261D01*
X96698845Y-120309500D01*
X96698842Y-120309500D01*
X96541158Y-120309500D01*
X96541155Y-120309500D01*
X96386510Y-120340261D01*
X96386498Y-120340264D01*
X96240827Y-120400602D01*
X96240814Y-120400609D01*
X96109125Y-120488602D01*
X96042447Y-120509480D01*
X96040234Y-120509500D01*
X87672670Y-120509500D01*
X87672654Y-120509499D01*
X87665058Y-120509499D01*
X87506943Y-120509499D01*
X87430579Y-120529961D01*
X87354214Y-120550423D01*
X87354209Y-120550426D01*
X87217290Y-120629475D01*
X87217282Y-120629481D01*
X85555339Y-122291425D01*
X85494016Y-122324910D01*
X85491850Y-122325361D01*
X85336508Y-122356261D01*
X85336498Y-122356264D01*
X85190827Y-122416602D01*
X85190814Y-122416609D01*
X85059711Y-122504210D01*
X85059707Y-122504213D01*
X84948213Y-122615707D01*
X84948210Y-122615711D01*
X84860609Y-122746814D01*
X84860602Y-122746827D01*
X84800264Y-122892498D01*
X84800261Y-122892510D01*
X84769500Y-123047153D01*
X63067500Y-123047153D01*
X63067500Y-115774500D01*
X63087185Y-115707461D01*
X63139989Y-115661706D01*
X63191500Y-115650500D01*
X63490932Y-115650500D01*
X63490943Y-115650500D01*
X63592625Y-115644187D01*
X63831948Y-115594007D01*
X63831957Y-115594003D01*
X63831959Y-115594003D01*
X63894018Y-115569786D01*
X64059747Y-115505119D01*
X64269808Y-115379949D01*
X64456403Y-115221912D01*
X64614440Y-115035317D01*
X64739610Y-114825256D01*
X64828498Y-114597457D01*
X64878678Y-114358134D01*
X64884991Y-114256452D01*
X64884991Y-109543548D01*
X64878678Y-109441866D01*
X64828498Y-109202543D01*
X64828494Y-109202534D01*
X64828494Y-109202531D01*
X64739610Y-108974745D01*
X64739608Y-108974741D01*
X64614443Y-108764688D01*
X64614442Y-108764687D01*
X64614440Y-108764683D01*
X64456403Y-108578088D01*
X64269808Y-108420051D01*
X64269803Y-108420048D01*
X64269802Y-108420047D01*
X64059749Y-108294882D01*
X64059745Y-108294880D01*
X63831959Y-108205996D01*
X63831952Y-108205994D01*
X63831948Y-108205993D01*
X63675591Y-108173208D01*
X63592627Y-108155813D01*
X63592623Y-108155812D01*
X63490949Y-108149500D01*
X63490943Y-108149500D01*
X56643057Y-108149500D01*
X56643050Y-108149500D01*
X56541376Y-108155812D01*
X56541372Y-108155813D01*
X56416925Y-108181906D01*
X56302052Y-108205993D01*
X56302048Y-108205994D01*
X56302040Y-108205996D01*
X56074254Y-108294880D01*
X56074250Y-108294882D01*
X55864197Y-108420047D01*
X55677597Y-108578088D01*
X55519556Y-108764688D01*
X55394391Y-108974741D01*
X55394389Y-108974745D01*
X55305505Y-109202531D01*
X55305503Y-109202539D01*
X55305502Y-109202543D01*
X55281415Y-109317416D01*
X55255322Y-109441863D01*
X55255321Y-109441867D01*
X55249009Y-109543541D01*
X55249009Y-114256458D01*
X55255321Y-114358132D01*
X55255322Y-114358134D01*
X55305502Y-114597457D01*
X55305503Y-114597461D01*
X55305505Y-114597468D01*
X55394389Y-114825254D01*
X55394390Y-114825256D01*
X55519560Y-115035317D01*
X55677597Y-115221912D01*
X55864192Y-115379949D01*
X56074253Y-115505119D01*
X56157117Y-115537452D01*
X56302040Y-115594003D01*
X56302043Y-115594003D01*
X56302052Y-115594007D01*
X56541375Y-115644187D01*
X56643057Y-115650500D01*
X56942500Y-115650500D01*
X57009539Y-115670185D01*
X57055294Y-115722989D01*
X57066500Y-115774500D01*
X57066500Y-128025501D01*
X57046815Y-128092540D01*
X56994011Y-128138295D01*
X56942500Y-128149501D01*
X56683111Y-128149501D01*
X56581437Y-128155813D01*
X56581433Y-128155814D01*
X56456986Y-128181907D01*
X56342113Y-128205994D01*
X56342109Y-128205995D01*
X56342101Y-128205997D01*
X56114315Y-128294881D01*
X56114311Y-128294883D01*
X55904258Y-128420048D01*
X55717658Y-128578089D01*
X55559617Y-128764689D01*
X55434452Y-128974742D01*
X55434450Y-128974746D01*
X55345566Y-129202532D01*
X55345564Y-129202540D01*
X55345563Y-129202544D01*
X55331474Y-129269738D01*
X55295383Y-129441864D01*
X55295382Y-129441868D01*
X55289070Y-129543542D01*
X55289070Y-134256457D01*
X55295382Y-134358131D01*
X55295383Y-134358133D01*
X55345563Y-134597456D01*
X55345564Y-134597460D01*
X55345566Y-134597467D01*
X55434450Y-134825253D01*
X55434451Y-134825255D01*
X55559621Y-135035316D01*
X55717658Y-135221911D01*
X55904253Y-135379948D01*
X56114314Y-135505118D01*
X56197178Y-135537451D01*
X56342101Y-135594002D01*
X56342104Y-135594002D01*
X56342113Y-135594006D01*
X56581436Y-135644186D01*
X56683118Y-135650499D01*
X56942500Y-135650499D01*
X57009539Y-135670184D01*
X57055294Y-135722988D01*
X57066500Y-135774499D01*
X57066500Y-148712559D01*
X57046815Y-148779598D01*
X56994011Y-148825353D01*
X56942500Y-148836559D01*
X56576329Y-148836559D01*
X56576322Y-148836559D01*
X56576297Y-148836560D01*
X56522033Y-148839443D01*
X56522029Y-148839443D01*
X56284822Y-148885319D01*
X56058764Y-148970629D01*
X55850380Y-149092914D01*
X55850373Y-149092919D01*
X55665660Y-149248655D01*
X55665657Y-149248658D01*
X55509921Y-149433371D01*
X55509916Y-149433378D01*
X55387631Y-149641762D01*
X55302321Y-149867820D01*
X55256445Y-150105027D01*
X55256445Y-150105031D01*
X55253562Y-150159295D01*
X55253561Y-150159333D01*
X55253561Y-154640666D01*
X55253562Y-154640704D01*
X55256445Y-154694968D01*
X55256445Y-154694972D01*
X55302321Y-154932179D01*
X55302322Y-154932183D01*
X55302323Y-154932185D01*
X55310250Y-154953190D01*
X55387631Y-155158237D01*
X55509916Y-155366621D01*
X55509921Y-155366628D01*
X55665657Y-155551341D01*
X55665660Y-155551344D01*
X55850373Y-155707080D01*
X55850380Y-155707085D01*
X56058764Y-155829370D01*
X56284817Y-155914679D01*
X56522036Y-155960557D01*
X56576329Y-155963441D01*
X59335731Y-155963441D01*
X59402770Y-155983126D01*
X59423412Y-155999760D01*
X67551476Y-164127824D01*
X67814961Y-164337946D01*
X68100314Y-164517246D01*
X68403949Y-164663469D01*
X68642848Y-164747063D01*
X68722034Y-164774772D01*
X68722046Y-164774776D01*
X69050606Y-164849767D01*
X69385491Y-164887499D01*
X69385492Y-164887500D01*
X69385495Y-164887500D01*
X69385496Y-164887500D01*
X119099500Y-164887500D01*
X119166539Y-164907185D01*
X119212294Y-164959989D01*
X119223500Y-165011500D01*
X119223500Y-165835048D01*
X119229775Y-165957428D01*
X119229775Y-165957431D01*
X119247933Y-166062743D01*
X119279763Y-166247352D01*
X119368762Y-166527763D01*
X119368764Y-166527767D01*
X119368766Y-166527772D01*
X119495115Y-166793448D01*
X119656464Y-167039444D01*
X119656466Y-167039446D01*
X119656467Y-167039447D01*
X119849814Y-167261186D01*
X120021329Y-167410740D01*
X120071553Y-167454533D01*
X120071555Y-167454535D01*
X120317551Y-167615884D01*
X120317554Y-167615885D01*
X120317555Y-167615886D01*
X120583237Y-167742238D01*
X120630729Y-167757311D01*
X120688670Y-167796353D01*
X120716307Y-167860524D01*
X120704863Y-167929450D01*
X120657972Y-167981248D01*
X120593215Y-167999500D01*
X49124500Y-167999500D01*
X49057461Y-167979815D01*
X49011706Y-167927011D01*
X49000500Y-167875500D01*
X49000500Y-153859041D01*
X49349500Y-153859041D01*
X49349500Y-154140958D01*
X49386295Y-154420439D01*
X49459259Y-154692743D01*
X49567135Y-154953179D01*
X49567140Y-154953190D01*
X49708083Y-155197309D01*
X49708088Y-155197317D01*
X49838001Y-155366622D01*
X49879704Y-155420970D01*
X50079029Y-155620295D01*
X50079033Y-155620298D01*
X50079035Y-155620300D01*
X50302683Y-155791912D01*
X50302690Y-155791916D01*
X50546809Y-155932859D01*
X50546814Y-155932861D01*
X50546817Y-155932863D01*
X50807261Y-156040742D01*
X51079558Y-156113704D01*
X51359049Y-156150500D01*
X51359056Y-156150500D01*
X51640944Y-156150500D01*
X51640951Y-156150500D01*
X51920442Y-156113704D01*
X52192739Y-156040742D01*
X52453183Y-155932863D01*
X52697317Y-155791912D01*
X52920965Y-155620300D01*
X53120300Y-155420965D01*
X53291912Y-155197317D01*
X53432863Y-154953183D01*
X53540742Y-154692739D01*
X53613704Y-154420442D01*
X53650500Y-154140951D01*
X53650500Y-153859049D01*
X53613704Y-153579558D01*
X53540742Y-153307261D01*
X53432863Y-153046817D01*
X53432861Y-153046814D01*
X53432859Y-153046809D01*
X53291916Y-152802690D01*
X53291912Y-152802683D01*
X53120300Y-152579035D01*
X53120298Y-152579033D01*
X53120295Y-152579029D01*
X52920970Y-152379704D01*
X52920965Y-152379700D01*
X52697317Y-152208088D01*
X52697311Y-152208084D01*
X52697309Y-152208083D01*
X52453190Y-152067140D01*
X52453179Y-152067135D01*
X52192743Y-151959259D01*
X51920439Y-151886295D01*
X51640958Y-151849500D01*
X51640951Y-151849500D01*
X51359049Y-151849500D01*
X51359041Y-151849500D01*
X51079560Y-151886295D01*
X50807256Y-151959259D01*
X50546820Y-152067135D01*
X50546809Y-152067140D01*
X50302690Y-152208083D01*
X50302682Y-152208089D01*
X50079029Y-152379704D01*
X49879704Y-152579029D01*
X49708089Y-152802682D01*
X49708083Y-152802690D01*
X49567140Y-153046809D01*
X49567135Y-153046820D01*
X49459259Y-153307256D01*
X49386295Y-153579560D01*
X49349500Y-153859041D01*
X49000500Y-153859041D01*
X49000500Y-101859041D01*
X49349500Y-101859041D01*
X49349500Y-102140958D01*
X49386295Y-102420439D01*
X49459259Y-102692743D01*
X49567135Y-102953179D01*
X49567140Y-102953190D01*
X49708083Y-103197309D01*
X49708088Y-103197317D01*
X49879700Y-103420965D01*
X49879704Y-103420970D01*
X50079029Y-103620295D01*
X50079033Y-103620298D01*
X50079035Y-103620300D01*
X50302683Y-103791912D01*
X50302690Y-103791916D01*
X50546809Y-103932859D01*
X50546814Y-103932861D01*
X50546817Y-103932863D01*
X50807261Y-104040742D01*
X51079558Y-104113704D01*
X51359049Y-104150500D01*
X51359056Y-104150500D01*
X51640944Y-104150500D01*
X51640951Y-104150500D01*
X51920442Y-104113704D01*
X52192739Y-104040742D01*
X52453183Y-103932863D01*
X52697317Y-103791912D01*
X52920965Y-103620300D01*
X53120300Y-103420965D01*
X53291912Y-103197317D01*
X53432863Y-102953183D01*
X53540742Y-102692739D01*
X53613704Y-102420442D01*
X53650500Y-102140951D01*
X53650500Y-101859049D01*
X53613704Y-101579558D01*
X53540742Y-101307261D01*
X53432863Y-101046817D01*
X53432861Y-101046814D01*
X53432859Y-101046809D01*
X53291916Y-100802690D01*
X53291912Y-100802683D01*
X53120300Y-100579035D01*
X53120298Y-100579033D01*
X53120295Y-100579029D01*
X52920970Y-100379704D01*
X52916787Y-100376494D01*
X52697317Y-100208088D01*
X52697311Y-100208084D01*
X52697309Y-100208083D01*
X52453190Y-100067140D01*
X52453179Y-100067135D01*
X52192743Y-99959259D01*
X51920439Y-99886295D01*
X51640958Y-99849500D01*
X51640951Y-99849500D01*
X51359049Y-99849500D01*
X51359041Y-99849500D01*
X51079560Y-99886295D01*
X50807256Y-99959259D01*
X50546820Y-100067135D01*
X50546809Y-100067140D01*
X50302690Y-100208083D01*
X50302682Y-100208089D01*
X50079029Y-100379704D01*
X49879704Y-100579029D01*
X49708089Y-100802682D01*
X49708083Y-100802690D01*
X49567140Y-101046809D01*
X49567135Y-101046820D01*
X49459259Y-101307256D01*
X49386295Y-101579560D01*
X49349500Y-101859041D01*
X49000500Y-101859041D01*
X49000500Y-88124500D01*
X49020185Y-88057461D01*
X49072989Y-88011706D01*
X49124500Y-88000500D01*
X56188533Y-88000500D01*
X56255572Y-88020185D01*
G37*
%TD.AperFunction*%
%TD*%
M02*
