%TF.GenerationSoftware,KiCad,Pcbnew,9.0.7*%
%TF.CreationDate,2026-03-02T21:05:06-07:00*%
%TF.ProjectId,Solar Board 2.0,536f6c61-7220-4426-9f61-726420322e30,rev?*%
%TF.SameCoordinates,Original*%
%TF.FileFunction,Legend,Bot*%
%TF.FilePolarity,Positive*%
%FSLAX46Y46*%
G04 Gerber Fmt 4.6, Leading zero omitted, Abs format (unit mm)*
G04 Created by KiCad (PCBNEW 9.0.7) date 2026-03-02 21:05:06*
%MOMM*%
%LPD*%
G01*
G04 APERTURE LIST*
%ADD10C,0.200000*%
%ADD11C,0.150000*%
%ADD12C,0.127000*%
%ADD13C,0.120000*%
G04 APERTURE END LIST*
D10*
X146290000Y-119672000D02*
X276290000Y-119672000D01*
X276290000Y-136329000D01*
X146290000Y-136329000D01*
X146290000Y-119672000D01*
X293820000Y-119672000D02*
X341820000Y-119672000D01*
X341820000Y-136329000D01*
X293820000Y-136329000D01*
X293820000Y-119672000D01*
X83290000Y-119672000D02*
X126290000Y-119672000D01*
X126290000Y-136329000D01*
X83290000Y-136329000D01*
X83290000Y-119672000D01*
D11*
X123351904Y-129464819D02*
X123351904Y-130274342D01*
X123351904Y-130274342D02*
X123304285Y-130369580D01*
X123304285Y-130369580D02*
X123256666Y-130417200D01*
X123256666Y-130417200D02*
X123161428Y-130464819D01*
X123161428Y-130464819D02*
X122970952Y-130464819D01*
X122970952Y-130464819D02*
X122875714Y-130417200D01*
X122875714Y-130417200D02*
X122828095Y-130369580D01*
X122828095Y-130369580D02*
X122780476Y-130274342D01*
X122780476Y-130274342D02*
X122780476Y-129464819D01*
X121828095Y-129464819D02*
X122304285Y-129464819D01*
X122304285Y-129464819D02*
X122351904Y-129941009D01*
X122351904Y-129941009D02*
X122304285Y-129893390D01*
X122304285Y-129893390D02*
X122209047Y-129845771D01*
X122209047Y-129845771D02*
X121970952Y-129845771D01*
X121970952Y-129845771D02*
X121875714Y-129893390D01*
X121875714Y-129893390D02*
X121828095Y-129941009D01*
X121828095Y-129941009D02*
X121780476Y-130036247D01*
X121780476Y-130036247D02*
X121780476Y-130274342D01*
X121780476Y-130274342D02*
X121828095Y-130369580D01*
X121828095Y-130369580D02*
X121875714Y-130417200D01*
X121875714Y-130417200D02*
X121970952Y-130464819D01*
X121970952Y-130464819D02*
X122209047Y-130464819D01*
X122209047Y-130464819D02*
X122304285Y-130417200D01*
X122304285Y-130417200D02*
X122351904Y-130369580D01*
X58239819Y-118201666D02*
X58954104Y-118201666D01*
X58954104Y-118201666D02*
X59096961Y-118154047D01*
X59096961Y-118154047D02*
X59192200Y-118058809D01*
X59192200Y-118058809D02*
X59239819Y-117915952D01*
X59239819Y-117915952D02*
X59239819Y-117820714D01*
X58239819Y-118582619D02*
X58239819Y-119201666D01*
X58239819Y-119201666D02*
X58620771Y-118868333D01*
X58620771Y-118868333D02*
X58620771Y-119011190D01*
X58620771Y-119011190D02*
X58668390Y-119106428D01*
X58668390Y-119106428D02*
X58716009Y-119154047D01*
X58716009Y-119154047D02*
X58811247Y-119201666D01*
X58811247Y-119201666D02*
X59049342Y-119201666D01*
X59049342Y-119201666D02*
X59144580Y-119154047D01*
X59144580Y-119154047D02*
X59192200Y-119106428D01*
X59192200Y-119106428D02*
X59239819Y-119011190D01*
X59239819Y-119011190D02*
X59239819Y-118725476D01*
X59239819Y-118725476D02*
X59192200Y-118630238D01*
X59192200Y-118630238D02*
X59144580Y-118582619D01*
X164068094Y-130214819D02*
X164068094Y-131024342D01*
X164068094Y-131024342D02*
X164020475Y-131119580D01*
X164020475Y-131119580D02*
X163972856Y-131167200D01*
X163972856Y-131167200D02*
X163877618Y-131214819D01*
X163877618Y-131214819D02*
X163687142Y-131214819D01*
X163687142Y-131214819D02*
X163591904Y-131167200D01*
X163591904Y-131167200D02*
X163544285Y-131119580D01*
X163544285Y-131119580D02*
X163496666Y-131024342D01*
X163496666Y-131024342D02*
X163496666Y-130214819D01*
X162496666Y-131214819D02*
X163068094Y-131214819D01*
X162782380Y-131214819D02*
X162782380Y-130214819D01*
X162782380Y-130214819D02*
X162877618Y-130357676D01*
X162877618Y-130357676D02*
X162972856Y-130452914D01*
X162972856Y-130452914D02*
X163068094Y-130500533D01*
X161877618Y-130214819D02*
X161782380Y-130214819D01*
X161782380Y-130214819D02*
X161687142Y-130262438D01*
X161687142Y-130262438D02*
X161639523Y-130310057D01*
X161639523Y-130310057D02*
X161591904Y-130405295D01*
X161591904Y-130405295D02*
X161544285Y-130595771D01*
X161544285Y-130595771D02*
X161544285Y-130833866D01*
X161544285Y-130833866D02*
X161591904Y-131024342D01*
X161591904Y-131024342D02*
X161639523Y-131119580D01*
X161639523Y-131119580D02*
X161687142Y-131167200D01*
X161687142Y-131167200D02*
X161782380Y-131214819D01*
X161782380Y-131214819D02*
X161877618Y-131214819D01*
X161877618Y-131214819D02*
X161972856Y-131167200D01*
X161972856Y-131167200D02*
X162020475Y-131119580D01*
X162020475Y-131119580D02*
X162068094Y-131024342D01*
X162068094Y-131024342D02*
X162115713Y-130833866D01*
X162115713Y-130833866D02*
X162115713Y-130595771D01*
X162115713Y-130595771D02*
X162068094Y-130405295D01*
X162068094Y-130405295D02*
X162020475Y-130310057D01*
X162020475Y-130310057D02*
X161972856Y-130262438D01*
X161972856Y-130262438D02*
X161877618Y-130214819D01*
X108431246Y-128647142D02*
X108478866Y-128599523D01*
X108478866Y-128599523D02*
X108526485Y-128456666D01*
X108526485Y-128456666D02*
X108526485Y-128361428D01*
X108526485Y-128361428D02*
X108478866Y-128218571D01*
X108478866Y-128218571D02*
X108383627Y-128123333D01*
X108383627Y-128123333D02*
X108288389Y-128075714D01*
X108288389Y-128075714D02*
X108097913Y-128028095D01*
X108097913Y-128028095D02*
X107955056Y-128028095D01*
X107955056Y-128028095D02*
X107764580Y-128075714D01*
X107764580Y-128075714D02*
X107669342Y-128123333D01*
X107669342Y-128123333D02*
X107574104Y-128218571D01*
X107574104Y-128218571D02*
X107526485Y-128361428D01*
X107526485Y-128361428D02*
X107526485Y-128456666D01*
X107526485Y-128456666D02*
X107574104Y-128599523D01*
X107574104Y-128599523D02*
X107621723Y-128647142D01*
X107621723Y-129028095D02*
X107574104Y-129075714D01*
X107574104Y-129075714D02*
X107526485Y-129170952D01*
X107526485Y-129170952D02*
X107526485Y-129409047D01*
X107526485Y-129409047D02*
X107574104Y-129504285D01*
X107574104Y-129504285D02*
X107621723Y-129551904D01*
X107621723Y-129551904D02*
X107716961Y-129599523D01*
X107716961Y-129599523D02*
X107812199Y-129599523D01*
X107812199Y-129599523D02*
X107955056Y-129551904D01*
X107955056Y-129551904D02*
X108526485Y-128980476D01*
X108526485Y-128980476D02*
X108526485Y-129599523D01*
X108526485Y-130551904D02*
X108526485Y-129980476D01*
X108526485Y-130266190D02*
X107526485Y-130266190D01*
X107526485Y-130266190D02*
X107669342Y-130170952D01*
X107669342Y-130170952D02*
X107764580Y-130075714D01*
X107764580Y-130075714D02*
X107812199Y-129980476D01*
D12*
%TO.C,U50*%
X87965000Y-125190000D02*
X88260000Y-125190000D01*
X92965000Y-125190000D02*
X92670000Y-125190000D01*
X92965000Y-125190000D02*
X92965000Y-125485000D01*
X87965000Y-125485000D02*
X87965000Y-125190000D01*
X92965000Y-128895000D02*
X92965000Y-129190000D01*
X87965000Y-129190000D02*
X87965000Y-128895000D01*
X88260000Y-129190000D02*
X87965000Y-129190000D01*
X92965000Y-129190000D02*
X92670000Y-129190000D01*
D10*
X88815000Y-123825000D02*
G75*
G02*
X88615000Y-123825000I-100000J0D01*
G01*
X88615000Y-123825000D02*
G75*
G02*
X88815000Y-123825000I100000J0D01*
G01*
D13*
%TO.C,U12*%
X263190000Y-128680000D02*
X261190000Y-128680000D01*
X263200000Y-126400000D02*
X261200000Y-126400000D01*
X263840000Y-126470000D02*
X263560000Y-126470000D01*
X263560000Y-126190000D01*
X263840000Y-126470000D01*
G36*
X263840000Y-126470000D02*
G01*
X263560000Y-126470000D01*
X263560000Y-126190000D01*
X263840000Y-126470000D01*
G37*
%TO.C,U5*%
X120980000Y-130850000D02*
X120980000Y-131050000D01*
X120980000Y-133870000D02*
X120980000Y-134070000D01*
X120980000Y-134070000D02*
X124200000Y-134070000D01*
X124200000Y-130850000D02*
X120980000Y-130850000D01*
X124200000Y-131050000D02*
X124200000Y-130850000D01*
X124200000Y-134070000D02*
X124200000Y-133870000D01*
X124790000Y-131050000D02*
X124550000Y-130720000D01*
X125030000Y-130720000D01*
X124790000Y-131050000D01*
G36*
X124790000Y-131050000D02*
G01*
X124550000Y-130720000D01*
X125030000Y-130720000D01*
X124790000Y-131050000D01*
G37*
%TO.C,U7*%
X94030000Y-134980000D02*
X96030000Y-134980000D01*
X94040000Y-132700000D02*
X96040000Y-132700000D01*
X93670000Y-135190000D02*
X93390000Y-134910000D01*
X93670000Y-134910000D01*
X93670000Y-135190000D01*
G36*
X93670000Y-135190000D02*
G01*
X93390000Y-134910000D01*
X93670000Y-134910000D01*
X93670000Y-135190000D01*
G37*
%TO.C,C55*%
X89480000Y-131499420D02*
X89480000Y-131780580D01*
X90500000Y-131499420D02*
X90500000Y-131780580D01*
%TO.C,C56*%
X91575000Y-122561252D02*
X91575000Y-122038748D01*
X93045000Y-122561252D02*
X93045000Y-122038748D01*
D10*
%TO.C,J3*%
X62210000Y-140760000D02*
X67290000Y-140760000D01*
X67290000Y-115360000D02*
X62210000Y-115360000D01*
X59950000Y-139490000D02*
G75*
G02*
X59750000Y-139490000I-100000J0D01*
G01*
X59750000Y-139490000D02*
G75*
G02*
X59950000Y-139490000I100000J0D01*
G01*
D13*
%TO.C,U11*%
X97870000Y-123250000D02*
X99870000Y-123250000D01*
X97880000Y-120970000D02*
X99880000Y-120970000D01*
X97510000Y-123460000D02*
X97230000Y-123180000D01*
X97510000Y-123180000D01*
X97510000Y-123460000D01*
G36*
X97510000Y-123460000D02*
G01*
X97230000Y-123180000D01*
X97510000Y-123180000D01*
X97510000Y-123460000D01*
G37*
%TO.C,R70*%
X117527064Y-128880000D02*
X113172936Y-128880000D01*
X117527064Y-132300000D02*
X113172936Y-132300000D01*
%TO.C,C16*%
X101680000Y-130184420D02*
X101680000Y-130465580D01*
X102700000Y-130184420D02*
X102700000Y-130465580D01*
%TO.C,L50*%
X84900000Y-127762779D02*
X84900000Y-127437221D01*
X85920000Y-127762779D02*
X85920000Y-127437221D01*
%TO.C,U8*%
X217442500Y-130242500D02*
X219442500Y-130242500D01*
X217452500Y-127962500D02*
X219452500Y-127962500D01*
X217082500Y-130452500D02*
X216802500Y-130172500D01*
X217082500Y-130172500D01*
X217082500Y-130452500D01*
G36*
X217082500Y-130452500D02*
G01*
X216802500Y-130172500D01*
X217082500Y-130172500D01*
X217082500Y-130452500D01*
G37*
%TO.C,U9*%
X311370000Y-130260000D02*
X313370000Y-130260000D01*
X311380000Y-127980000D02*
X313380000Y-127980000D01*
X311010000Y-130470000D02*
X310730000Y-130190000D01*
X311010000Y-130190000D01*
X311010000Y-130470000D01*
G36*
X311010000Y-130470000D02*
G01*
X310730000Y-130190000D01*
X311010000Y-130190000D01*
X311010000Y-130470000D01*
G37*
%TO.C,U10*%
X161440000Y-130000000D02*
X163440000Y-130000000D01*
X161450000Y-127720000D02*
X163450000Y-127720000D01*
X161080000Y-130210000D02*
X160800000Y-129930000D01*
X161080000Y-129930000D01*
X161080000Y-130210000D01*
G36*
X161080000Y-130210000D02*
G01*
X160800000Y-129930000D01*
X161080000Y-129930000D01*
X161080000Y-130210000D01*
G37*
%TO.C,C2*%
X117930580Y-132920000D02*
X117649420Y-132920000D01*
X117930580Y-133940000D02*
X117649420Y-133940000D01*
%TO.C,C21*%
X106551666Y-129397836D02*
X106551666Y-129182164D01*
X107271666Y-129397836D02*
X107271666Y-129182164D01*
%TO.C,C1*%
X99680000Y-130184420D02*
X99680000Y-130465580D01*
X100700000Y-130184420D02*
X100700000Y-130465580D01*
%TD*%
M02*
