%TF.GenerationSoftware,KiCad,Pcbnew,9.0.4*%
%TF.CreationDate,2026-04-30T20:15:07-06:00*%
%TF.ProjectId,Motor_Board_V3,4d6f746f-725f-4426-9f61-72645f56332e,v0.1*%
%TF.SameCoordinates,Original*%
%TF.FileFunction,Legend,Top*%
%TF.FilePolarity,Positive*%
%FSLAX46Y46*%
G04 Gerber Fmt 4.6, Leading zero omitted, Abs format (unit mm)*
G04 Created by KiCad (PCBNEW 9.0.4) date 2026-04-30 20:15:07*
%MOMM*%
%LPD*%
G01*
G04 APERTURE LIST*
%ADD10C,0.200000*%
%ADD11C,0.150000*%
%ADD12C,0.120000*%
%ADD13C,0.250000*%
%ADD14C,0.127000*%
%ADD15C,0.210000*%
%ADD16C,0.170000*%
%ADD17C,0.100000*%
G04 APERTURE END LIST*
D10*
X71992219Y-102220802D02*
X71516028Y-102487469D01*
X71992219Y-102677945D02*
X70992219Y-102677945D01*
X70992219Y-102677945D02*
X70992219Y-102373183D01*
X70992219Y-102373183D02*
X71039838Y-102296993D01*
X71039838Y-102296993D02*
X71087457Y-102258898D01*
X71087457Y-102258898D02*
X71182695Y-102220802D01*
X71182695Y-102220802D02*
X71325552Y-102220802D01*
X71325552Y-102220802D02*
X71420790Y-102258898D01*
X71420790Y-102258898D02*
X71468409Y-102296993D01*
X71468409Y-102296993D02*
X71516028Y-102373183D01*
X71516028Y-102373183D02*
X71516028Y-102677945D01*
X71944600Y-101916041D02*
X71992219Y-101801755D01*
X71992219Y-101801755D02*
X71992219Y-101611279D01*
X71992219Y-101611279D02*
X71944600Y-101535088D01*
X71944600Y-101535088D02*
X71896980Y-101496993D01*
X71896980Y-101496993D02*
X71801742Y-101458898D01*
X71801742Y-101458898D02*
X71706504Y-101458898D01*
X71706504Y-101458898D02*
X71611266Y-101496993D01*
X71611266Y-101496993D02*
X71563647Y-101535088D01*
X71563647Y-101535088D02*
X71516028Y-101611279D01*
X71516028Y-101611279D02*
X71468409Y-101763660D01*
X71468409Y-101763660D02*
X71420790Y-101839850D01*
X71420790Y-101839850D02*
X71373171Y-101877945D01*
X71373171Y-101877945D02*
X71277933Y-101916041D01*
X71277933Y-101916041D02*
X71182695Y-101916041D01*
X71182695Y-101916041D02*
X71087457Y-101877945D01*
X71087457Y-101877945D02*
X71039838Y-101839850D01*
X71039838Y-101839850D02*
X70992219Y-101763660D01*
X70992219Y-101763660D02*
X70992219Y-101573183D01*
X70992219Y-101573183D02*
X71039838Y-101458898D01*
X70992219Y-101230326D02*
X70992219Y-100773183D01*
X71992219Y-101001755D02*
X70992219Y-101001755D01*
X71944600Y-99935088D02*
X71992219Y-99820802D01*
X71992219Y-99820802D02*
X71992219Y-99630326D01*
X71992219Y-99630326D02*
X71944600Y-99554135D01*
X71944600Y-99554135D02*
X71896980Y-99516040D01*
X71896980Y-99516040D02*
X71801742Y-99477945D01*
X71801742Y-99477945D02*
X71706504Y-99477945D01*
X71706504Y-99477945D02*
X71611266Y-99516040D01*
X71611266Y-99516040D02*
X71563647Y-99554135D01*
X71563647Y-99554135D02*
X71516028Y-99630326D01*
X71516028Y-99630326D02*
X71468409Y-99782707D01*
X71468409Y-99782707D02*
X71420790Y-99858897D01*
X71420790Y-99858897D02*
X71373171Y-99896992D01*
X71373171Y-99896992D02*
X71277933Y-99935088D01*
X71277933Y-99935088D02*
X71182695Y-99935088D01*
X71182695Y-99935088D02*
X71087457Y-99896992D01*
X71087457Y-99896992D02*
X71039838Y-99858897D01*
X71039838Y-99858897D02*
X70992219Y-99782707D01*
X70992219Y-99782707D02*
X70992219Y-99592230D01*
X70992219Y-99592230D02*
X71039838Y-99477945D01*
X71992219Y-99135087D02*
X70992219Y-99135087D01*
X70992219Y-98601754D02*
X70992219Y-98449373D01*
X70992219Y-98449373D02*
X71039838Y-98373183D01*
X71039838Y-98373183D02*
X71135076Y-98296992D01*
X71135076Y-98296992D02*
X71325552Y-98258897D01*
X71325552Y-98258897D02*
X71658885Y-98258897D01*
X71658885Y-98258897D02*
X71849361Y-98296992D01*
X71849361Y-98296992D02*
X71944600Y-98373183D01*
X71944600Y-98373183D02*
X71992219Y-98449373D01*
X71992219Y-98449373D02*
X71992219Y-98601754D01*
X71992219Y-98601754D02*
X71944600Y-98677945D01*
X71944600Y-98677945D02*
X71849361Y-98754135D01*
X71849361Y-98754135D02*
X71658885Y-98792231D01*
X71658885Y-98792231D02*
X71325552Y-98792231D01*
X71325552Y-98792231D02*
X71135076Y-98754135D01*
X71135076Y-98754135D02*
X71039838Y-98677945D01*
X71039838Y-98677945D02*
X70992219Y-98601754D01*
X71896980Y-96849373D02*
X71944600Y-96887469D01*
X71944600Y-96887469D02*
X71992219Y-97001754D01*
X71992219Y-97001754D02*
X71992219Y-97077945D01*
X71992219Y-97077945D02*
X71944600Y-97192231D01*
X71944600Y-97192231D02*
X71849361Y-97268421D01*
X71849361Y-97268421D02*
X71754123Y-97306516D01*
X71754123Y-97306516D02*
X71563647Y-97344612D01*
X71563647Y-97344612D02*
X71420790Y-97344612D01*
X71420790Y-97344612D02*
X71230314Y-97306516D01*
X71230314Y-97306516D02*
X71135076Y-97268421D01*
X71135076Y-97268421D02*
X71039838Y-97192231D01*
X71039838Y-97192231D02*
X70992219Y-97077945D01*
X70992219Y-97077945D02*
X70992219Y-97001754D01*
X70992219Y-97001754D02*
X71039838Y-96887469D01*
X71039838Y-96887469D02*
X71087457Y-96849373D01*
X71992219Y-96125564D02*
X71992219Y-96506516D01*
X71992219Y-96506516D02*
X70992219Y-96506516D01*
X71992219Y-95858897D02*
X70992219Y-95858897D01*
X71992219Y-95401754D02*
X71420790Y-95744612D01*
X70992219Y-95401754D02*
X71563647Y-95858897D01*
X71992219Y-93992230D02*
X71516028Y-94258897D01*
X71992219Y-94449373D02*
X70992219Y-94449373D01*
X70992219Y-94449373D02*
X70992219Y-94144611D01*
X70992219Y-94144611D02*
X71039838Y-94068421D01*
X71039838Y-94068421D02*
X71087457Y-94030326D01*
X71087457Y-94030326D02*
X71182695Y-93992230D01*
X71182695Y-93992230D02*
X71325552Y-93992230D01*
X71325552Y-93992230D02*
X71420790Y-94030326D01*
X71420790Y-94030326D02*
X71468409Y-94068421D01*
X71468409Y-94068421D02*
X71516028Y-94144611D01*
X71516028Y-94144611D02*
X71516028Y-94449373D01*
X71468409Y-93649373D02*
X71468409Y-93382707D01*
X71992219Y-93268421D02*
X71992219Y-93649373D01*
X71992219Y-93649373D02*
X70992219Y-93649373D01*
X70992219Y-93649373D02*
X70992219Y-93268421D01*
X71468409Y-92658897D02*
X71468409Y-92925563D01*
X71992219Y-92925563D02*
X70992219Y-92925563D01*
X70992219Y-92925563D02*
X70992219Y-92544611D01*
X71039838Y-91211278D02*
X70992219Y-91287468D01*
X70992219Y-91287468D02*
X70992219Y-91401754D01*
X70992219Y-91401754D02*
X71039838Y-91516040D01*
X71039838Y-91516040D02*
X71135076Y-91592230D01*
X71135076Y-91592230D02*
X71230314Y-91630325D01*
X71230314Y-91630325D02*
X71420790Y-91668421D01*
X71420790Y-91668421D02*
X71563647Y-91668421D01*
X71563647Y-91668421D02*
X71754123Y-91630325D01*
X71754123Y-91630325D02*
X71849361Y-91592230D01*
X71849361Y-91592230D02*
X71944600Y-91516040D01*
X71944600Y-91516040D02*
X71992219Y-91401754D01*
X71992219Y-91401754D02*
X71992219Y-91325563D01*
X71992219Y-91325563D02*
X71944600Y-91211278D01*
X71944600Y-91211278D02*
X71896980Y-91173182D01*
X71896980Y-91173182D02*
X71563647Y-91173182D01*
X71563647Y-91173182D02*
X71563647Y-91325563D01*
X71992219Y-90830325D02*
X70992219Y-90830325D01*
X70992219Y-90830325D02*
X71992219Y-90373182D01*
X71992219Y-90373182D02*
X70992219Y-90373182D01*
X71992219Y-89992230D02*
X70992219Y-89992230D01*
X70992219Y-89992230D02*
X70992219Y-89801754D01*
X70992219Y-89801754D02*
X71039838Y-89687468D01*
X71039838Y-89687468D02*
X71135076Y-89611278D01*
X71135076Y-89611278D02*
X71230314Y-89573183D01*
X71230314Y-89573183D02*
X71420790Y-89535087D01*
X71420790Y-89535087D02*
X71563647Y-89535087D01*
X71563647Y-89535087D02*
X71754123Y-89573183D01*
X71754123Y-89573183D02*
X71849361Y-89611278D01*
X71849361Y-89611278D02*
X71944600Y-89687468D01*
X71944600Y-89687468D02*
X71992219Y-89801754D01*
X71992219Y-89801754D02*
X71992219Y-89992230D01*
X157417219Y-103195802D02*
X156941028Y-103462469D01*
X157417219Y-103652945D02*
X156417219Y-103652945D01*
X156417219Y-103652945D02*
X156417219Y-103348183D01*
X156417219Y-103348183D02*
X156464838Y-103271993D01*
X156464838Y-103271993D02*
X156512457Y-103233898D01*
X156512457Y-103233898D02*
X156607695Y-103195802D01*
X156607695Y-103195802D02*
X156750552Y-103195802D01*
X156750552Y-103195802D02*
X156845790Y-103233898D01*
X156845790Y-103233898D02*
X156893409Y-103271993D01*
X156893409Y-103271993D02*
X156941028Y-103348183D01*
X156941028Y-103348183D02*
X156941028Y-103652945D01*
X157369600Y-102891041D02*
X157417219Y-102776755D01*
X157417219Y-102776755D02*
X157417219Y-102586279D01*
X157417219Y-102586279D02*
X157369600Y-102510088D01*
X157369600Y-102510088D02*
X157321980Y-102471993D01*
X157321980Y-102471993D02*
X157226742Y-102433898D01*
X157226742Y-102433898D02*
X157131504Y-102433898D01*
X157131504Y-102433898D02*
X157036266Y-102471993D01*
X157036266Y-102471993D02*
X156988647Y-102510088D01*
X156988647Y-102510088D02*
X156941028Y-102586279D01*
X156941028Y-102586279D02*
X156893409Y-102738660D01*
X156893409Y-102738660D02*
X156845790Y-102814850D01*
X156845790Y-102814850D02*
X156798171Y-102852945D01*
X156798171Y-102852945D02*
X156702933Y-102891041D01*
X156702933Y-102891041D02*
X156607695Y-102891041D01*
X156607695Y-102891041D02*
X156512457Y-102852945D01*
X156512457Y-102852945D02*
X156464838Y-102814850D01*
X156464838Y-102814850D02*
X156417219Y-102738660D01*
X156417219Y-102738660D02*
X156417219Y-102548183D01*
X156417219Y-102548183D02*
X156464838Y-102433898D01*
X156417219Y-102205326D02*
X156417219Y-101748183D01*
X157417219Y-101976755D02*
X156417219Y-101976755D01*
X157369600Y-100910088D02*
X157417219Y-100795802D01*
X157417219Y-100795802D02*
X157417219Y-100605326D01*
X157417219Y-100605326D02*
X157369600Y-100529135D01*
X157369600Y-100529135D02*
X157321980Y-100491040D01*
X157321980Y-100491040D02*
X157226742Y-100452945D01*
X157226742Y-100452945D02*
X157131504Y-100452945D01*
X157131504Y-100452945D02*
X157036266Y-100491040D01*
X157036266Y-100491040D02*
X156988647Y-100529135D01*
X156988647Y-100529135D02*
X156941028Y-100605326D01*
X156941028Y-100605326D02*
X156893409Y-100757707D01*
X156893409Y-100757707D02*
X156845790Y-100833897D01*
X156845790Y-100833897D02*
X156798171Y-100871992D01*
X156798171Y-100871992D02*
X156702933Y-100910088D01*
X156702933Y-100910088D02*
X156607695Y-100910088D01*
X156607695Y-100910088D02*
X156512457Y-100871992D01*
X156512457Y-100871992D02*
X156464838Y-100833897D01*
X156464838Y-100833897D02*
X156417219Y-100757707D01*
X156417219Y-100757707D02*
X156417219Y-100567230D01*
X156417219Y-100567230D02*
X156464838Y-100452945D01*
X157417219Y-100110087D02*
X156417219Y-100110087D01*
X156417219Y-99576754D02*
X156417219Y-99424373D01*
X156417219Y-99424373D02*
X156464838Y-99348183D01*
X156464838Y-99348183D02*
X156560076Y-99271992D01*
X156560076Y-99271992D02*
X156750552Y-99233897D01*
X156750552Y-99233897D02*
X157083885Y-99233897D01*
X157083885Y-99233897D02*
X157274361Y-99271992D01*
X157274361Y-99271992D02*
X157369600Y-99348183D01*
X157369600Y-99348183D02*
X157417219Y-99424373D01*
X157417219Y-99424373D02*
X157417219Y-99576754D01*
X157417219Y-99576754D02*
X157369600Y-99652945D01*
X157369600Y-99652945D02*
X157274361Y-99729135D01*
X157274361Y-99729135D02*
X157083885Y-99767231D01*
X157083885Y-99767231D02*
X156750552Y-99767231D01*
X156750552Y-99767231D02*
X156560076Y-99729135D01*
X156560076Y-99729135D02*
X156464838Y-99652945D01*
X156464838Y-99652945D02*
X156417219Y-99576754D01*
X157321980Y-97824373D02*
X157369600Y-97862469D01*
X157369600Y-97862469D02*
X157417219Y-97976754D01*
X157417219Y-97976754D02*
X157417219Y-98052945D01*
X157417219Y-98052945D02*
X157369600Y-98167231D01*
X157369600Y-98167231D02*
X157274361Y-98243421D01*
X157274361Y-98243421D02*
X157179123Y-98281516D01*
X157179123Y-98281516D02*
X156988647Y-98319612D01*
X156988647Y-98319612D02*
X156845790Y-98319612D01*
X156845790Y-98319612D02*
X156655314Y-98281516D01*
X156655314Y-98281516D02*
X156560076Y-98243421D01*
X156560076Y-98243421D02*
X156464838Y-98167231D01*
X156464838Y-98167231D02*
X156417219Y-98052945D01*
X156417219Y-98052945D02*
X156417219Y-97976754D01*
X156417219Y-97976754D02*
X156464838Y-97862469D01*
X156464838Y-97862469D02*
X156512457Y-97824373D01*
X157417219Y-97100564D02*
X157417219Y-97481516D01*
X157417219Y-97481516D02*
X156417219Y-97481516D01*
X157417219Y-96833897D02*
X156417219Y-96833897D01*
X157417219Y-96376754D02*
X156845790Y-96719612D01*
X156417219Y-96376754D02*
X156988647Y-96833897D01*
X157417219Y-94967230D02*
X156941028Y-95233897D01*
X157417219Y-95424373D02*
X156417219Y-95424373D01*
X156417219Y-95424373D02*
X156417219Y-95119611D01*
X156417219Y-95119611D02*
X156464838Y-95043421D01*
X156464838Y-95043421D02*
X156512457Y-95005326D01*
X156512457Y-95005326D02*
X156607695Y-94967230D01*
X156607695Y-94967230D02*
X156750552Y-94967230D01*
X156750552Y-94967230D02*
X156845790Y-95005326D01*
X156845790Y-95005326D02*
X156893409Y-95043421D01*
X156893409Y-95043421D02*
X156941028Y-95119611D01*
X156941028Y-95119611D02*
X156941028Y-95424373D01*
X156893409Y-94624373D02*
X156893409Y-94357707D01*
X157417219Y-94243421D02*
X157417219Y-94624373D01*
X157417219Y-94624373D02*
X156417219Y-94624373D01*
X156417219Y-94624373D02*
X156417219Y-94243421D01*
X156893409Y-93633897D02*
X156893409Y-93900563D01*
X157417219Y-93900563D02*
X156417219Y-93900563D01*
X156417219Y-93900563D02*
X156417219Y-93519611D01*
X156464838Y-92186278D02*
X156417219Y-92262468D01*
X156417219Y-92262468D02*
X156417219Y-92376754D01*
X156417219Y-92376754D02*
X156464838Y-92491040D01*
X156464838Y-92491040D02*
X156560076Y-92567230D01*
X156560076Y-92567230D02*
X156655314Y-92605325D01*
X156655314Y-92605325D02*
X156845790Y-92643421D01*
X156845790Y-92643421D02*
X156988647Y-92643421D01*
X156988647Y-92643421D02*
X157179123Y-92605325D01*
X157179123Y-92605325D02*
X157274361Y-92567230D01*
X157274361Y-92567230D02*
X157369600Y-92491040D01*
X157369600Y-92491040D02*
X157417219Y-92376754D01*
X157417219Y-92376754D02*
X157417219Y-92300563D01*
X157417219Y-92300563D02*
X157369600Y-92186278D01*
X157369600Y-92186278D02*
X157321980Y-92148182D01*
X157321980Y-92148182D02*
X156988647Y-92148182D01*
X156988647Y-92148182D02*
X156988647Y-92300563D01*
X157417219Y-91805325D02*
X156417219Y-91805325D01*
X156417219Y-91805325D02*
X157417219Y-91348182D01*
X157417219Y-91348182D02*
X156417219Y-91348182D01*
X157417219Y-90967230D02*
X156417219Y-90967230D01*
X156417219Y-90967230D02*
X156417219Y-90776754D01*
X156417219Y-90776754D02*
X156464838Y-90662468D01*
X156464838Y-90662468D02*
X156560076Y-90586278D01*
X156560076Y-90586278D02*
X156655314Y-90548183D01*
X156655314Y-90548183D02*
X156845790Y-90510087D01*
X156845790Y-90510087D02*
X156988647Y-90510087D01*
X156988647Y-90510087D02*
X157179123Y-90548183D01*
X157179123Y-90548183D02*
X157274361Y-90586278D01*
X157274361Y-90586278D02*
X157369600Y-90662468D01*
X157369600Y-90662468D02*
X157417219Y-90776754D01*
X157417219Y-90776754D02*
X157417219Y-90967230D01*
D11*
X154266666Y-89329819D02*
X154266666Y-90044104D01*
X154266666Y-90044104D02*
X154219047Y-90186961D01*
X154219047Y-90186961D02*
X154123809Y-90282200D01*
X154123809Y-90282200D02*
X153980952Y-90329819D01*
X153980952Y-90329819D02*
X153885714Y-90329819D01*
X154647619Y-89329819D02*
X155266666Y-89329819D01*
X155266666Y-89329819D02*
X154933333Y-89710771D01*
X154933333Y-89710771D02*
X155076190Y-89710771D01*
X155076190Y-89710771D02*
X155171428Y-89758390D01*
X155171428Y-89758390D02*
X155219047Y-89806009D01*
X155219047Y-89806009D02*
X155266666Y-89901247D01*
X155266666Y-89901247D02*
X155266666Y-90139342D01*
X155266666Y-90139342D02*
X155219047Y-90234580D01*
X155219047Y-90234580D02*
X155171428Y-90282200D01*
X155171428Y-90282200D02*
X155076190Y-90329819D01*
X155076190Y-90329819D02*
X154790476Y-90329819D01*
X154790476Y-90329819D02*
X154695238Y-90282200D01*
X154695238Y-90282200D02*
X154647619Y-90234580D01*
X116591666Y-78504819D02*
X116591666Y-79219104D01*
X116591666Y-79219104D02*
X116544047Y-79361961D01*
X116544047Y-79361961D02*
X116448809Y-79457200D01*
X116448809Y-79457200D02*
X116305952Y-79504819D01*
X116305952Y-79504819D02*
X116210714Y-79504819D01*
X117591666Y-79504819D02*
X117020238Y-79504819D01*
X117305952Y-79504819D02*
X117305952Y-78504819D01*
X117305952Y-78504819D02*
X117210714Y-78647676D01*
X117210714Y-78647676D02*
X117115476Y-78742914D01*
X117115476Y-78742914D02*
X117020238Y-78790533D01*
X155879819Y-108559523D02*
X156594104Y-108559523D01*
X156594104Y-108559523D02*
X156736961Y-108607142D01*
X156736961Y-108607142D02*
X156832200Y-108702380D01*
X156832200Y-108702380D02*
X156879819Y-108845237D01*
X156879819Y-108845237D02*
X156879819Y-108940475D01*
X156879819Y-107559523D02*
X156879819Y-108130951D01*
X156879819Y-107845237D02*
X155879819Y-107845237D01*
X155879819Y-107845237D02*
X156022676Y-107940475D01*
X156022676Y-107940475D02*
X156117914Y-108035713D01*
X156117914Y-108035713D02*
X156165533Y-108130951D01*
X156879819Y-106607142D02*
X156879819Y-107178570D01*
X156879819Y-106892856D02*
X155879819Y-106892856D01*
X155879819Y-106892856D02*
X156022676Y-106988094D01*
X156022676Y-106988094D02*
X156117914Y-107083332D01*
X156117914Y-107083332D02*
X156165533Y-107178570D01*
X73291666Y-88244819D02*
X73291666Y-88959104D01*
X73291666Y-88959104D02*
X73244047Y-89101961D01*
X73244047Y-89101961D02*
X73148809Y-89197200D01*
X73148809Y-89197200D02*
X73005952Y-89244819D01*
X73005952Y-89244819D02*
X72910714Y-89244819D01*
X73720238Y-88340057D02*
X73767857Y-88292438D01*
X73767857Y-88292438D02*
X73863095Y-88244819D01*
X73863095Y-88244819D02*
X74101190Y-88244819D01*
X74101190Y-88244819D02*
X74196428Y-88292438D01*
X74196428Y-88292438D02*
X74244047Y-88340057D01*
X74244047Y-88340057D02*
X74291666Y-88435295D01*
X74291666Y-88435295D02*
X74291666Y-88530533D01*
X74291666Y-88530533D02*
X74244047Y-88673390D01*
X74244047Y-88673390D02*
X73672619Y-89244819D01*
X73672619Y-89244819D02*
X74291666Y-89244819D01*
X75104819Y-106834523D02*
X75819104Y-106834523D01*
X75819104Y-106834523D02*
X75961961Y-106882142D01*
X75961961Y-106882142D02*
X76057200Y-106977380D01*
X76057200Y-106977380D02*
X76104819Y-107120237D01*
X76104819Y-107120237D02*
X76104819Y-107215475D01*
X76104819Y-105834523D02*
X76104819Y-106405951D01*
X76104819Y-106120237D02*
X75104819Y-106120237D01*
X75104819Y-106120237D02*
X75247676Y-106215475D01*
X75247676Y-106215475D02*
X75342914Y-106310713D01*
X75342914Y-106310713D02*
X75390533Y-106405951D01*
X75104819Y-105215475D02*
X75104819Y-105120237D01*
X75104819Y-105120237D02*
X75152438Y-105024999D01*
X75152438Y-105024999D02*
X75200057Y-104977380D01*
X75200057Y-104977380D02*
X75295295Y-104929761D01*
X75295295Y-104929761D02*
X75485771Y-104882142D01*
X75485771Y-104882142D02*
X75723866Y-104882142D01*
X75723866Y-104882142D02*
X75914342Y-104929761D01*
X75914342Y-104929761D02*
X76009580Y-104977380D01*
X76009580Y-104977380D02*
X76057200Y-105024999D01*
X76057200Y-105024999D02*
X76104819Y-105120237D01*
X76104819Y-105120237D02*
X76104819Y-105215475D01*
X76104819Y-105215475D02*
X76057200Y-105310713D01*
X76057200Y-105310713D02*
X76009580Y-105358332D01*
X76009580Y-105358332D02*
X75914342Y-105405951D01*
X75914342Y-105405951D02*
X75723866Y-105453570D01*
X75723866Y-105453570D02*
X75485771Y-105453570D01*
X75485771Y-105453570D02*
X75295295Y-105405951D01*
X75295295Y-105405951D02*
X75200057Y-105358332D01*
X75200057Y-105358332D02*
X75152438Y-105310713D01*
X75152438Y-105310713D02*
X75104819Y-105215475D01*
D12*
%TO.C,R16*%
X127387500Y-96877258D02*
X127387500Y-96402742D01*
X128432500Y-96877258D02*
X128432500Y-96402742D01*
D13*
%TO.C,IC7*%
X79250000Y-112975000D02*
G75*
G02*
X79000000Y-112975000I-125000J0D01*
G01*
X79000000Y-112975000D02*
G75*
G02*
X79250000Y-112975000I125000J0D01*
G01*
D12*
%TO.C,R47*%
X101842909Y-129116000D02*
X101388781Y-129116000D01*
X101842909Y-130586000D02*
X101388781Y-130586000D01*
%TO.C,R55*%
X101002500Y-115887742D02*
X101002500Y-116362258D01*
X102047500Y-115887742D02*
X102047500Y-116362258D01*
D10*
%TO.C,IC15*%
X144538000Y-75525000D02*
X146013000Y-75525000D01*
X146363000Y-75875000D02*
X150063000Y-75875000D01*
X146363000Y-80875000D02*
X146363000Y-75875000D01*
X150063000Y-75875000D02*
X150063000Y-80875000D01*
X150063000Y-80875000D02*
X146363000Y-80875000D01*
D12*
%TO.C,C1*%
X76015000Y-75634419D02*
X76015000Y-75915579D01*
X77035000Y-75634419D02*
X77035000Y-75915579D01*
%TO.C,Q5*%
X74875000Y-138977500D02*
X74225000Y-138977500D01*
X74875000Y-138977500D02*
X75525000Y-138977500D01*
X74875000Y-142097500D02*
X74225000Y-142097500D01*
X74875000Y-142097500D02*
X75525000Y-142097500D01*
X76277500Y-142377500D02*
X75797500Y-142377500D01*
X76037500Y-142047500D01*
X76277500Y-142377500D01*
G36*
X76277500Y-142377500D02*
G01*
X75797500Y-142377500D01*
X76037500Y-142047500D01*
X76277500Y-142377500D01*
G37*
%TO.C,U16*%
X137415000Y-122265000D02*
X137415000Y-122965000D01*
X137415000Y-136485000D02*
X137415000Y-135785000D01*
X138115000Y-122265000D02*
X137415000Y-122265000D01*
X138115000Y-136485000D02*
X137415000Y-136485000D01*
X150935000Y-122265000D02*
X151635000Y-122265000D01*
X150935000Y-136485000D02*
X151635000Y-136485000D01*
X151635000Y-122265000D02*
X151635000Y-122965000D01*
X151635000Y-136485000D02*
X151635000Y-135785000D01*
X136787500Y-122965000D02*
X136447500Y-122495000D01*
X137127500Y-122495000D01*
X136787500Y-122965000D01*
G36*
X136787500Y-122965000D02*
G01*
X136447500Y-122495000D01*
X137127500Y-122495000D01*
X136787500Y-122965000D01*
G37*
%TO.C,R21*%
X115476281Y-127316000D02*
X115930409Y-127316000D01*
X115476281Y-128786000D02*
X115930409Y-128786000D01*
D13*
%TO.C,IC6*%
X140325000Y-119050000D02*
G75*
G02*
X140075000Y-119050000I-125000J0D01*
G01*
X140075000Y-119050000D02*
G75*
G02*
X140325000Y-119050000I125000J0D01*
G01*
D10*
%TO.C,IC19*%
X119875000Y-134888000D02*
X124875000Y-134888000D01*
X119875000Y-138588000D02*
X119875000Y-134888000D01*
X124875000Y-134888000D02*
X124875000Y-138588000D01*
X124875000Y-138588000D02*
X119875000Y-138588000D01*
X125225000Y-133063000D02*
X125225000Y-134538000D01*
D12*
%TO.C,R45*%
X122917909Y-129216000D02*
X122463781Y-129216000D01*
X122917909Y-130686000D02*
X122463781Y-130686000D01*
%TO.C,R54*%
X103102500Y-115912742D02*
X103102500Y-116387258D01*
X104147500Y-115912742D02*
X104147500Y-116387258D01*
%TO.C,R74*%
X104422776Y-112518230D02*
X104932224Y-112518230D01*
X104422776Y-113563230D02*
X104932224Y-113563230D01*
%TO.C,R9*%
X94310936Y-90240500D02*
X94765064Y-90240500D01*
X94310936Y-91710500D02*
X94765064Y-91710500D01*
%TO.C,R10*%
X94310936Y-84465500D02*
X94765064Y-84465500D01*
X94310936Y-85935500D02*
X94765064Y-85935500D01*
%TO.C,R14*%
X77515000Y-75522935D02*
X77515000Y-75977063D01*
X78985000Y-75522935D02*
X78985000Y-75977063D01*
%TO.C,R46*%
X126430409Y-129216000D02*
X125976281Y-129216000D01*
X126430409Y-130686000D02*
X125976281Y-130686000D01*
D14*
%TO.C,J_Motor4*%
X97310000Y-99015000D02*
X100910000Y-99015000D01*
X97310000Y-101095000D02*
X97310000Y-99015000D01*
X97310000Y-113415000D02*
X97310000Y-111335000D01*
X100910000Y-99015000D02*
X100910000Y-101095000D01*
X100910000Y-111335000D02*
X100910000Y-113415000D01*
X100910000Y-113415000D02*
X97310000Y-113415000D01*
D10*
X102710000Y-109715000D02*
G75*
G02*
X102510000Y-109715000I-100000J0D01*
G01*
X102510000Y-109715000D02*
G75*
G02*
X102710000Y-109715000I100000J0D01*
G01*
D12*
%TO.C,C63*%
X154846267Y-119390000D02*
X154553733Y-119390000D01*
X154846267Y-120410000D02*
X154553733Y-120410000D01*
%TO.C,R51*%
X116588781Y-142666000D02*
X117042909Y-142666000D01*
X116588781Y-144136000D02*
X117042909Y-144136000D01*
%TO.C,C31*%
X105186267Y-119370000D02*
X104893733Y-119370000D01*
X105186267Y-120390000D02*
X104893733Y-120390000D01*
%TO.C,C56*%
X74366233Y-109720000D02*
X74658767Y-109720000D01*
X74366233Y-110740000D02*
X74658767Y-110740000D01*
%TO.C,R5_FAULT1*%
X133807419Y-87887000D02*
X134261547Y-87887000D01*
X133807419Y-89357000D02*
X134261547Y-89357000D01*
%TO.C,R39*%
X108930409Y-129216000D02*
X108476281Y-129216000D01*
X108930409Y-130686000D02*
X108476281Y-130686000D01*
D10*
%TO.C,IC12*%
X144538000Y-68950000D02*
X146013000Y-68950000D01*
X146363000Y-69300000D02*
X150063000Y-69300000D01*
X146363000Y-74300000D02*
X146363000Y-69300000D01*
X150063000Y-69300000D02*
X150063000Y-74300000D01*
X150063000Y-74300000D02*
X146363000Y-74300000D01*
D12*
%TO.C,R52*%
X113076281Y-142691000D02*
X113530409Y-142691000D01*
X113076281Y-144161000D02*
X113530409Y-144161000D01*
%TO.C,C35*%
X76189999Y-86759421D02*
X76189999Y-87040581D01*
X77209999Y-86759421D02*
X77209999Y-87040581D01*
%TO.C,C234*%
X89751252Y-102520000D02*
X88328748Y-102520000D01*
X89751252Y-105240000D02*
X88328748Y-105240000D01*
%TO.C,R7_FAULT1*%
X133757419Y-82562000D02*
X134211547Y-82562000D01*
X133757419Y-84032000D02*
X134211547Y-84032000D01*
D15*
%TO.C,U4*%
X81825001Y-72174998D02*
X81825001Y-71624999D01*
D16*
X81849999Y-69100000D02*
X81849999Y-68850001D01*
X82100001Y-68850001D02*
X81849999Y-68850001D01*
D15*
X82374999Y-72175000D02*
X81824998Y-72175000D01*
D16*
X86150001Y-68850001D02*
X85900001Y-68850001D01*
X86150001Y-69100003D02*
X86150001Y-68850001D01*
X86150001Y-72149999D02*
X85899999Y-72149999D01*
X86150001Y-72149999D02*
X86150001Y-71900000D01*
D10*
%TO.C,IC26*%
X125625000Y-134876000D02*
X130625000Y-134876000D01*
X125625000Y-138576000D02*
X125625000Y-134876000D01*
X130625000Y-134876000D02*
X130625000Y-138576000D01*
X130625000Y-138576000D02*
X125625000Y-138576000D01*
X130975000Y-133051000D02*
X130975000Y-134526000D01*
%TO.C,IC21*%
X96737500Y-134726000D02*
X101737500Y-134726000D01*
X96737500Y-138426000D02*
X96737500Y-134726000D01*
X101737500Y-134726000D02*
X101737500Y-138426000D01*
X101737500Y-138426000D02*
X96737500Y-138426000D01*
X102087500Y-132901000D02*
X102087500Y-134376000D01*
D12*
%TO.C,C22*%
X74589999Y-70534421D02*
X74589999Y-70815581D01*
X75609999Y-70534421D02*
X75609999Y-70815581D01*
%TO.C,C67*%
X131852500Y-142013748D02*
X131852500Y-142536252D01*
X133322500Y-142013748D02*
X133322500Y-142536252D01*
%TO.C,J3*%
X153220000Y-90875000D02*
X154600000Y-90875000D01*
X153220000Y-92255000D02*
X153220000Y-90875000D01*
X153220000Y-93525000D02*
X153220000Y-103795000D01*
X153220000Y-93525000D02*
X155980000Y-93525000D01*
X153220000Y-103795000D02*
X155980000Y-103795000D01*
X155980000Y-93525000D02*
X155980000Y-103795000D01*
%TO.C,C134*%
X77490580Y-91565000D02*
X77209420Y-91565000D01*
X77490580Y-92585000D02*
X77209420Y-92585000D01*
%TO.C,R67*%
X131677064Y-124865000D02*
X131222936Y-124865000D01*
X131677064Y-126335000D02*
X131222936Y-126335000D01*
%TO.C,R44*%
X77614999Y-80797936D02*
X77614999Y-81252064D01*
X79084999Y-80797936D02*
X79084999Y-81252064D01*
%TO.C,C233*%
X104010000Y-122228748D02*
X104010000Y-123651252D01*
X106730000Y-122228748D02*
X106730000Y-123651252D01*
%TO.C,R122*%
X77022936Y-96090000D02*
X77477064Y-96090000D01*
X77022936Y-97560000D02*
X77477064Y-97560000D01*
D13*
%TO.C,IC10*%
X141359483Y-87997000D02*
G75*
G02*
X141109483Y-87997000I-125000J0D01*
G01*
X141109483Y-87997000D02*
G75*
G02*
X141359483Y-87997000I125000J0D01*
G01*
D12*
%TO.C,C58*%
X74378733Y-112690000D02*
X74671267Y-112690000D01*
X74378733Y-113710000D02*
X74671267Y-113710000D01*
%TO.C,R33*%
X110030409Y-144616000D02*
X109576281Y-144616000D01*
X110030409Y-146086000D02*
X109576281Y-146086000D01*
%TO.C,C69*%
X96290000Y-121453733D02*
X96290000Y-121746267D01*
X97310000Y-121453733D02*
X97310000Y-121746267D01*
%TO.C,R59*%
X77639999Y-86772937D02*
X77639999Y-87227065D01*
X79109999Y-86772937D02*
X79109999Y-87227065D01*
%TO.C,U13*%
X86525000Y-113495000D02*
X84575000Y-113495000D01*
X86525000Y-113495000D02*
X88475000Y-113495000D01*
X86525000Y-118615000D02*
X84575000Y-118615000D01*
X86525000Y-118615000D02*
X88475000Y-118615000D01*
X89465000Y-118850000D02*
X88985000Y-118850000D01*
X89225000Y-118520000D01*
X89465000Y-118850000D01*
G36*
X89465000Y-118850000D02*
G01*
X88985000Y-118850000D01*
X89225000Y-118520000D01*
X89465000Y-118850000D01*
G37*
D14*
%TO.C,J_Motor3*%
X106960000Y-114440000D02*
X109040000Y-114440000D01*
X106960000Y-118040000D02*
X106960000Y-114440000D01*
X109040000Y-118040000D02*
X106960000Y-118040000D01*
X119280000Y-114440000D02*
X121360000Y-114440000D01*
X121360000Y-114440000D02*
X121360000Y-118040000D01*
X121360000Y-118040000D02*
X119280000Y-118040000D01*
D10*
X117760000Y-112740000D02*
G75*
G02*
X117560000Y-112740000I-100000J0D01*
G01*
X117560000Y-112740000D02*
G75*
G02*
X117760000Y-112740000I100000J0D01*
G01*
D12*
%TO.C,R34*%
X124347742Y-114642500D02*
X124822258Y-114642500D01*
X124347742Y-115687500D02*
X124822258Y-115687500D01*
%TO.C,C2_RETRY2*%
X148615000Y-109873733D02*
X148615000Y-110166267D01*
X149635000Y-109873733D02*
X149635000Y-110166267D01*
%TO.C,C2_RETRY1*%
X82190000Y-109266233D02*
X82190000Y-109558767D01*
X83210000Y-109266233D02*
X83210000Y-109558767D01*
%TO.C,C82*%
X142090000Y-70746267D02*
X142090000Y-70453733D01*
X143110000Y-70746267D02*
X143110000Y-70453733D01*
D15*
%TO.C,U1*%
X81775001Y-77574998D02*
X81775001Y-77024999D01*
D16*
X81799999Y-74500000D02*
X81799999Y-74250001D01*
X82050001Y-74250001D02*
X81799999Y-74250001D01*
D15*
X82324999Y-77575000D02*
X81774998Y-77575000D01*
D16*
X86100001Y-74250001D02*
X85850001Y-74250001D01*
X86100001Y-74500003D02*
X86100001Y-74250001D01*
X86100001Y-77549999D02*
X85849999Y-77549999D01*
X86100001Y-77549999D02*
X86100001Y-77300000D01*
D12*
%TO.C,U21*%
X152760000Y-140685000D02*
X152760000Y-138685000D01*
X155040000Y-140675000D02*
X155040000Y-138675000D01*
X152830000Y-141325000D02*
X152550000Y-141045000D01*
X152830000Y-141045000D01*
X152830000Y-141325000D01*
G36*
X152830000Y-141325000D02*
G01*
X152550000Y-141045000D01*
X152830000Y-141045000D01*
X152830000Y-141325000D01*
G37*
D10*
%TO.C,J1*%
X88360000Y-77890000D02*
G75*
G02*
X88160000Y-77890000I-100000J0D01*
G01*
X88160000Y-77890000D02*
G75*
G02*
X88360000Y-77890000I100000J0D01*
G01*
D12*
%TO.C,C68*%
X134115000Y-142013748D02*
X134115000Y-142536252D01*
X135585000Y-142013748D02*
X135585000Y-142536252D01*
%TO.C,C64*%
X154846267Y-117915000D02*
X154553733Y-117915000D01*
X154846267Y-118935000D02*
X154553733Y-118935000D01*
%TO.C,R5*%
X91015064Y-88965500D02*
X90560936Y-88965500D01*
X91015064Y-90435500D02*
X90560936Y-90435500D01*
D14*
%TO.C,U51*%
X87230000Y-143275000D02*
X87230000Y-144080000D01*
X87230000Y-143275000D02*
X87310000Y-143275000D01*
X87230000Y-145470000D02*
X87230000Y-146275000D01*
X87230000Y-146275000D02*
X87310000Y-146275000D01*
X90270000Y-143275000D02*
X90190000Y-143275000D01*
X90270000Y-143275000D02*
X90270000Y-144080000D01*
X90270000Y-145470000D02*
X90270000Y-146275000D01*
X90270000Y-146275000D02*
X90190000Y-146275000D01*
D10*
X89850000Y-142380000D02*
G75*
G02*
X89650000Y-142380000I-100000J0D01*
G01*
X89650000Y-142380000D02*
G75*
G02*
X89850000Y-142380000I100000J0D01*
G01*
D14*
%TO.C,J_Motor2*%
X127535000Y-99015000D02*
X131135000Y-99015000D01*
X127535000Y-101095000D02*
X127535000Y-99015000D01*
X127535000Y-113415000D02*
X127535000Y-111335000D01*
X131135000Y-99015000D02*
X131135000Y-101095000D01*
X131135000Y-111335000D02*
X131135000Y-113415000D01*
X131135000Y-113415000D02*
X127535000Y-113415000D01*
D10*
X125935000Y-102715000D02*
G75*
G02*
X125735000Y-102715000I-100000J0D01*
G01*
X125735000Y-102715000D02*
G75*
G02*
X125935000Y-102715000I100000J0D01*
G01*
D13*
%TO.C,IC11*%
X126256850Y-82513500D02*
G75*
G02*
X126006850Y-82513500I-125000J0D01*
G01*
X126006850Y-82513500D02*
G75*
G02*
X126256850Y-82513500I125000J0D01*
G01*
D12*
%TO.C,R7_ILIM1*%
X130190416Y-83821936D02*
X130190416Y-84276064D01*
X131660416Y-83821936D02*
X131660416Y-84276064D01*
%TO.C,R70*%
X154192224Y-136577500D02*
X153682776Y-136577500D01*
X154192224Y-137622500D02*
X153682776Y-137622500D01*
D17*
%TO.C,D7*%
X75765000Y-124750000D02*
G75*
G02*
X75665000Y-124750000I-50000J0D01*
G01*
X75665000Y-124750000D02*
G75*
G02*
X75765000Y-124750000I50000J0D01*
G01*
D12*
%TO.C,R1*%
X91090064Y-82815500D02*
X90635936Y-82815500D01*
X91090064Y-84285500D02*
X90635936Y-84285500D01*
D11*
%TO.C,JP10*%
X86380000Y-148250000D02*
X86880000Y-147750000D01*
X86380000Y-149050000D02*
X86380000Y-148250000D01*
X86880000Y-147750000D02*
X90480000Y-147750000D01*
X86880000Y-149550000D02*
X86380000Y-149050000D01*
X90480000Y-147750000D02*
X90980000Y-148250000D01*
X90480000Y-149550000D02*
X86880000Y-149550000D01*
X90980000Y-148250000D02*
X90980000Y-149050000D01*
X90980000Y-149050000D02*
X90480000Y-149550000D01*
D12*
%TO.C,U22*%
X74860000Y-137135000D02*
X74860000Y-135135000D01*
X77140000Y-137125000D02*
X77140000Y-135125000D01*
X74930000Y-137775000D02*
X74650000Y-137495000D01*
X74930000Y-137495000D01*
X74930000Y-137775000D01*
G36*
X74930000Y-137775000D02*
G01*
X74650000Y-137495000D01*
X74930000Y-137495000D01*
X74930000Y-137775000D01*
G37*
%TO.C,J11*%
X153245000Y-107230000D02*
X153245000Y-104580000D01*
X156005000Y-104580000D02*
X153245000Y-104580000D01*
X156005000Y-107230000D02*
X153245000Y-107230000D01*
X156005000Y-107230000D02*
X156005000Y-104580000D01*
X156005000Y-108500000D02*
X156005000Y-109880000D01*
X156005000Y-109880000D02*
X154625000Y-109880000D01*
D14*
%TO.C,U52*%
X137580000Y-143025000D02*
X137580000Y-143830000D01*
X137580000Y-143025000D02*
X137660000Y-143025000D01*
X137580000Y-145220000D02*
X137580000Y-146025000D01*
X137580000Y-146025000D02*
X137660000Y-146025000D01*
X140620000Y-143025000D02*
X140540000Y-143025000D01*
X140620000Y-143025000D02*
X140620000Y-143830000D01*
X140620000Y-145220000D02*
X140620000Y-146025000D01*
X140620000Y-146025000D02*
X140540000Y-146025000D01*
D10*
X140200000Y-142130000D02*
G75*
G02*
X140000000Y-142130000I-100000J0D01*
G01*
X140000000Y-142130000D02*
G75*
G02*
X140200000Y-142130000I100000J0D01*
G01*
D12*
%TO.C,R63*%
X74227064Y-125665000D02*
X73772936Y-125665000D01*
X74227064Y-127135000D02*
X73772936Y-127135000D01*
%TO.C,R61*%
X139327064Y-140065000D02*
X138872936Y-140065000D01*
X139327064Y-141535000D02*
X138872936Y-141535000D01*
%TO.C,C53*%
X154833767Y-113490000D02*
X154541233Y-113490000D01*
X154833767Y-114510000D02*
X154541233Y-114510000D01*
%TO.C,R66*%
X131667064Y-126915000D02*
X131212936Y-126915000D01*
X131667064Y-128385000D02*
X131212936Y-128385000D01*
%TO.C,R100*%
X149547936Y-141790000D02*
X150002064Y-141790000D01*
X149547936Y-143260000D02*
X150002064Y-143260000D01*
%TO.C,C5_RETRY1*%
X133863216Y-89987000D02*
X134155750Y-89987000D01*
X133863216Y-91007000D02*
X134155750Y-91007000D01*
%TO.C,R60*%
X88422936Y-140565000D02*
X88877064Y-140565000D01*
X88422936Y-142035000D02*
X88877064Y-142035000D01*
%TO.C,R6_FAULT1*%
X119092286Y-82403500D02*
X119546414Y-82403500D01*
X119092286Y-83873500D02*
X119546414Y-83873500D01*
%TO.C,R42*%
X119430409Y-129216000D02*
X118976281Y-129216000D01*
X119430409Y-130686000D02*
X118976281Y-130686000D01*
%TO.C,J2*%
X72245000Y-89790000D02*
X73625000Y-89790000D01*
X72245000Y-91170000D02*
X72245000Y-89790000D01*
X72245000Y-92440000D02*
X72245000Y-102710000D01*
X72245000Y-92440000D02*
X75005000Y-92440000D01*
X72245000Y-102710000D02*
X75005000Y-102710000D01*
X75005000Y-92440000D02*
X75005000Y-102710000D01*
%TO.C,C61*%
X75240000Y-145188748D02*
X75240000Y-145711252D01*
X76710000Y-145188748D02*
X76710000Y-145711252D01*
D14*
%TO.C,J_Motor1*%
X107010000Y-95540000D02*
X109090000Y-95540000D01*
X107010000Y-99140000D02*
X107010000Y-95540000D01*
X109090000Y-99140000D02*
X107010000Y-99140000D01*
X119330000Y-95540000D02*
X121410000Y-95540000D01*
X121410000Y-95540000D02*
X121410000Y-99140000D01*
X121410000Y-99140000D02*
X119330000Y-99140000D01*
D10*
X110810000Y-100840000D02*
G75*
G02*
X110610000Y-100840000I-100000J0D01*
G01*
X110610000Y-100840000D02*
G75*
G02*
X110810000Y-100840000I100000J0D01*
G01*
D12*
%TO.C,C57*%
X74378733Y-111190000D02*
X74671267Y-111190000D01*
X74378733Y-112210000D02*
X74671267Y-112210000D01*
%TO.C,C79*%
X153190000Y-70796267D02*
X153190000Y-70503733D01*
X154210000Y-70796267D02*
X154210000Y-70503733D01*
%TO.C,C230*%
X88365580Y-105750000D02*
X88084420Y-105750000D01*
X88365580Y-106770000D02*
X88084420Y-106770000D01*
%TO.C,C81*%
X121434350Y-83729733D02*
X121434350Y-84022267D01*
X122454350Y-83729733D02*
X122454350Y-84022267D01*
%TO.C,Q52*%
X144312500Y-141415000D02*
X143662500Y-141415000D01*
X144312500Y-141415000D02*
X144962500Y-141415000D01*
X144312500Y-144535000D02*
X143662500Y-144535000D01*
X144312500Y-144535000D02*
X144962500Y-144535000D01*
X143150000Y-141465000D02*
X142910000Y-141135000D01*
X143390000Y-141135000D01*
X143150000Y-141465000D01*
G36*
X143150000Y-141465000D02*
G01*
X142910000Y-141135000D01*
X143390000Y-141135000D01*
X143150000Y-141465000D01*
G37*
%TO.C,R121*%
X76897936Y-89490000D02*
X77352064Y-89490000D01*
X76897936Y-90960000D02*
X77352064Y-90960000D01*
%TO.C,C7_RETRY1*%
X133938216Y-84612000D02*
X134230750Y-84612000D01*
X133938216Y-85632000D02*
X134230750Y-85632000D01*
D17*
%TO.C,D10*%
X133382500Y-126100000D02*
G75*
G02*
X133282500Y-126100000I-50000J0D01*
G01*
X133282500Y-126100000D02*
G75*
G02*
X133382500Y-126100000I50000J0D01*
G01*
D12*
%TO.C,R4*%
X103922742Y-94742500D02*
X104397258Y-94742500D01*
X103922742Y-95787500D02*
X104397258Y-95787500D01*
%TO.C,C65*%
X154846267Y-116440000D02*
X154553733Y-116440000D01*
X154846267Y-117460000D02*
X154553733Y-117460000D01*
D13*
%TO.C,IC5*%
X79800000Y-118600000D02*
G75*
G02*
X79550000Y-118600000I-125000J0D01*
G01*
X79550000Y-118600000D02*
G75*
G02*
X79800000Y-118600000I125000J0D01*
G01*
D12*
%TO.C,C59*%
X74378733Y-114215000D02*
X74671267Y-114215000D01*
X74378733Y-115235000D02*
X74671267Y-115235000D01*
%TO.C,R64*%
X74227064Y-123590000D02*
X73772936Y-123590000D01*
X74227064Y-125060000D02*
X73772936Y-125060000D01*
%TO.C,C72*%
X141328733Y-114540000D02*
X141621267Y-114540000D01*
X141328733Y-115560000D02*
X141621267Y-115560000D01*
%TO.C,C78*%
X136374483Y-84000733D02*
X136374483Y-84293267D01*
X137394483Y-84000733D02*
X137394483Y-84293267D01*
%TO.C,Q15*%
X154112500Y-141715000D02*
X153462500Y-141715000D01*
X154112500Y-141715000D02*
X154762500Y-141715000D01*
X154112500Y-144835000D02*
X153462500Y-144835000D01*
X154112500Y-144835000D02*
X154762500Y-144835000D01*
X152950000Y-141765000D02*
X152710000Y-141435000D01*
X153190000Y-141435000D01*
X152950000Y-141765000D01*
G36*
X152950000Y-141765000D02*
G01*
X152710000Y-141435000D01*
X153190000Y-141435000D01*
X152950000Y-141765000D01*
G37*
%TO.C,C33*%
X74539999Y-80834419D02*
X74539999Y-81115579D01*
X75559999Y-80834419D02*
X75559999Y-81115579D01*
%TO.C,C9*%
X117786233Y-92380000D02*
X118078767Y-92380000D01*
X117786233Y-93400000D02*
X118078767Y-93400000D01*
%TO.C,C6_RETRY1*%
X118998083Y-84453500D02*
X119290617Y-84453500D01*
X118998083Y-85473500D02*
X119290617Y-85473500D01*
%TO.C,R6*%
X104397258Y-92642500D02*
X103922742Y-92642500D01*
X104397258Y-93687500D02*
X103922742Y-93687500D01*
%TO.C,J10*%
X72270000Y-106195000D02*
X72270000Y-103545000D01*
X75030000Y-103545000D02*
X72270000Y-103545000D01*
X75030000Y-106195000D02*
X72270000Y-106195000D01*
X75030000Y-106195000D02*
X75030000Y-103545000D01*
X75030000Y-107465000D02*
X75030000Y-108845000D01*
X75030000Y-108845000D02*
X73650000Y-108845000D01*
%TO.C,R228*%
X74339564Y-127665000D02*
X73885436Y-127665000D01*
X74339564Y-129135000D02*
X73885436Y-129135000D01*
%TO.C,R8*%
X91065064Y-85915500D02*
X90610936Y-85915500D01*
X91065064Y-87385500D02*
X90610936Y-87385500D01*
D10*
%TO.C,IC18*%
X102562500Y-134726000D02*
X107562500Y-134726000D01*
X102562500Y-138426000D02*
X102562500Y-134726000D01*
X107562500Y-134726000D02*
X107562500Y-138426000D01*
X107562500Y-138426000D02*
X102562500Y-138426000D01*
X107912500Y-132901000D02*
X107912500Y-134376000D01*
D12*
%TO.C,R73*%
X121245000Y-101782776D02*
X121245000Y-102292224D01*
X122290000Y-101782776D02*
X122290000Y-102292224D01*
%TO.C,C232*%
X141233748Y-101140000D02*
X142656252Y-101140000D01*
X141233748Y-103860000D02*
X142656252Y-103860000D01*
%TO.C,C66*%
X154833767Y-110540000D02*
X154541233Y-110540000D01*
X154833767Y-111560000D02*
X154541233Y-111560000D01*
%TO.C,C60*%
X73115000Y-145113748D02*
X73115000Y-145636252D01*
X74585000Y-145113748D02*
X74585000Y-145636252D01*
D10*
%TO.C,IC17*%
X108287500Y-134776000D02*
X113287500Y-134776000D01*
X108287500Y-138476000D02*
X108287500Y-134776000D01*
X113287500Y-134776000D02*
X113287500Y-138476000D01*
X113287500Y-138476000D02*
X108287500Y-138476000D01*
X113637500Y-132951000D02*
X113637500Y-134426000D01*
D12*
%TO.C,C80*%
X136224483Y-89325733D02*
X136224483Y-89618267D01*
X137244483Y-89325733D02*
X137244483Y-89618267D01*
D17*
%TO.C,D6*%
X75830000Y-126850000D02*
G75*
G02*
X75730000Y-126850000I-50000J0D01*
G01*
X75730000Y-126850000D02*
G75*
G02*
X75830000Y-126850000I50000J0D01*
G01*
D12*
%TO.C,R2_ILIM1*%
X83572936Y-111340000D02*
X84027064Y-111340000D01*
X83572936Y-112810000D02*
X84027064Y-112810000D01*
%TO.C,R27*%
X101376281Y-127216000D02*
X101830409Y-127216000D01*
X101376281Y-128686000D02*
X101830409Y-128686000D01*
%TO.C,R3*%
X104422258Y-96917500D02*
X103947742Y-96917500D01*
X104422258Y-97962500D02*
X103947742Y-97962500D01*
%TO.C,R23*%
X108501281Y-127266000D02*
X108955409Y-127266000D01*
X108501281Y-128736000D02*
X108955409Y-128736000D01*
%TO.C,R41*%
X115930409Y-129216000D02*
X115476281Y-129216000D01*
X115930409Y-130686000D02*
X115476281Y-130686000D01*
%TO.C,C11*%
X74490000Y-75609419D02*
X74490000Y-75890579D01*
X75510000Y-75609419D02*
X75510000Y-75890579D01*
%TO.C,C51*%
X133483767Y-131590000D02*
X133191233Y-131590000D01*
X133483767Y-132610000D02*
X133191233Y-132610000D01*
%TO.C,C136*%
X77390580Y-93690000D02*
X77109420Y-93690000D01*
X77390580Y-94710000D02*
X77109420Y-94710000D01*
%TO.C,C50*%
X74316233Y-118690000D02*
X74608767Y-118690000D01*
X74316233Y-119710000D02*
X74608767Y-119710000D01*
%TO.C,C227*%
X108090000Y-83830580D02*
X108090000Y-83549420D01*
X109110000Y-83830580D02*
X109110000Y-83549420D01*
%TO.C,R5_ILIM1*%
X130274483Y-89294936D02*
X130274483Y-89749064D01*
X131744483Y-89294936D02*
X131744483Y-89749064D01*
%TO.C,C20*%
X133500000Y-111593733D02*
X133500000Y-111886267D01*
X134520000Y-111593733D02*
X134520000Y-111886267D01*
D13*
%TO.C,IC8*%
X144700000Y-113420000D02*
G75*
G02*
X144450000Y-113420000I-125000J0D01*
G01*
X144450000Y-113420000D02*
G75*
G02*
X144700000Y-113420000I125000J0D01*
G01*
D12*
%TO.C,R40*%
X112430409Y-129216000D02*
X111976281Y-129216000D01*
X112430409Y-130686000D02*
X111976281Y-130686000D01*
%TO.C,R20*%
X118976281Y-127316000D02*
X119430409Y-127316000D01*
X118976281Y-128786000D02*
X119430409Y-128786000D01*
%TO.C,R50*%
X106072936Y-142716000D02*
X106527064Y-142716000D01*
X106072936Y-144186000D02*
X106527064Y-144186000D01*
%TO.C,R30*%
X113530409Y-144616000D02*
X113076281Y-144616000D01*
X113530409Y-146086000D02*
X113076281Y-146086000D01*
D10*
%TO.C,IC13*%
X144438000Y-88175000D02*
X145913000Y-88175000D01*
X146263000Y-88525000D02*
X149963000Y-88525000D01*
X146263000Y-93525000D02*
X146263000Y-88525000D01*
X149963000Y-88525000D02*
X149963000Y-93525000D01*
X149963000Y-93525000D02*
X146263000Y-93525000D01*
%TO.C,IC16*%
X114125000Y-134788000D02*
X119125000Y-134788000D01*
X114125000Y-138488000D02*
X114125000Y-134788000D01*
X119125000Y-134788000D02*
X119125000Y-138488000D01*
X119125000Y-138488000D02*
X114125000Y-138488000D01*
X119475000Y-132963000D02*
X119475000Y-134438000D01*
%TO.C,S1*%
X81500000Y-149125000D02*
X83900000Y-149125000D01*
D12*
%TO.C,U14*%
X146850000Y-114245000D02*
X144900000Y-114245000D01*
X146850000Y-114245000D02*
X148800000Y-114245000D01*
X146850000Y-119365000D02*
X144900000Y-119365000D01*
X146850000Y-119365000D02*
X148800000Y-119365000D01*
X144150000Y-114340000D02*
X143910000Y-114010000D01*
X144390000Y-114010000D01*
X144150000Y-114340000D01*
G36*
X144150000Y-114340000D02*
G01*
X143910000Y-114010000D01*
X144390000Y-114010000D01*
X144150000Y-114340000D01*
G37*
%TO.C,C52*%
X154833767Y-114965000D02*
X154541233Y-114965000D01*
X154833767Y-115985000D02*
X154541233Y-115985000D01*
%TO.C,U25*%
X103545000Y-109683230D02*
X103545000Y-111683230D01*
X105825000Y-109673230D02*
X105825000Y-111673230D01*
X106035000Y-109313230D02*
X105755000Y-109313230D01*
X105755000Y-109033230D01*
X106035000Y-109313230D01*
G36*
X106035000Y-109313230D02*
G01*
X105755000Y-109313230D01*
X105755000Y-109033230D01*
X106035000Y-109313230D01*
G37*
%TO.C,U24*%
X125150000Y-100892500D02*
X123150000Y-100892500D01*
X125160000Y-103172500D02*
X123160000Y-103172500D01*
X125520000Y-103382500D02*
X125520000Y-103102500D01*
X125800000Y-103102500D01*
X125520000Y-103382500D01*
G36*
X125520000Y-103382500D02*
G01*
X125520000Y-103102500D01*
X125800000Y-103102500D01*
X125520000Y-103382500D01*
G37*
D15*
%TO.C,U7*%
X82075001Y-82574998D02*
X82075001Y-82024999D01*
D16*
X82099999Y-79500000D02*
X82099999Y-79250001D01*
X82350001Y-79250001D02*
X82099999Y-79250001D01*
D15*
X82624999Y-82575000D02*
X82074998Y-82575000D01*
D16*
X86400001Y-79250001D02*
X86150001Y-79250001D01*
X86400001Y-79500003D02*
X86400001Y-79250001D01*
X86400001Y-82549999D02*
X86149999Y-82549999D01*
X86400001Y-82549999D02*
X86400001Y-82300000D01*
D12*
%TO.C,R25*%
X104976281Y-127216000D02*
X105430409Y-127216000D01*
X104976281Y-128686000D02*
X105430409Y-128686000D01*
D10*
%TO.C,S2*%
X144350000Y-149000000D02*
X146750000Y-149000000D01*
D12*
%TO.C,R17*%
X125387500Y-96877258D02*
X125387500Y-96402742D01*
X126432500Y-96877258D02*
X126432500Y-96402742D01*
%TO.C,R53*%
X105177500Y-115887742D02*
X105177500Y-116362258D01*
X106222500Y-115887742D02*
X106222500Y-116362258D01*
%TO.C,R229*%
X131777064Y-128865000D02*
X131322936Y-128865000D01*
X131777064Y-130335000D02*
X131322936Y-130335000D01*
%TO.C,R49*%
X109576281Y-142716000D02*
X110030409Y-142716000D01*
X109576281Y-144186000D02*
X110030409Y-144186000D01*
%TO.C,R29*%
X122463781Y-127316000D02*
X122917909Y-127316000D01*
X122463781Y-128786000D02*
X122917909Y-128786000D01*
%TO.C,R75*%
X142215000Y-75122936D02*
X142215000Y-75577064D01*
X143685000Y-75122936D02*
X143685000Y-75577064D01*
%TO.C,R15*%
X123387500Y-96877258D02*
X123387500Y-96402742D01*
X124432500Y-96877258D02*
X124432500Y-96402742D01*
%TO.C,C228*%
X142604420Y-99565000D02*
X142885580Y-99565000D01*
X142604420Y-100585000D02*
X142885580Y-100585000D01*
%TO.C,R2_FAULT2*%
X146552064Y-108685000D02*
X146097936Y-108685000D01*
X146552064Y-110155000D02*
X146097936Y-110155000D01*
%TO.C,R114*%
X94323436Y-82040500D02*
X94777564Y-82040500D01*
X94323436Y-83510500D02*
X94777564Y-83510500D01*
%TO.C,R2_ILIM2*%
X149022936Y-111910000D02*
X149477064Y-111910000D01*
X149022936Y-113380000D02*
X149477064Y-113380000D01*
%TO.C,C62*%
X133471267Y-133290000D02*
X133178733Y-133290000D01*
X133471267Y-134310000D02*
X133178733Y-134310000D01*
D10*
%TO.C,IC14*%
X144499000Y-81862500D02*
X145974000Y-81862500D01*
X146324000Y-82212500D02*
X150024000Y-82212500D01*
X146324000Y-87212500D02*
X146324000Y-82212500D01*
X150024000Y-82212500D02*
X150024000Y-87212500D01*
X150024000Y-87212500D02*
X146324000Y-87212500D01*
D12*
%TO.C,C231*%
X109720000Y-85241252D02*
X109720000Y-83818748D01*
X112440000Y-85241252D02*
X112440000Y-83818748D01*
%TO.C,C23*%
X76014999Y-80834420D02*
X76014999Y-81115580D01*
X77034999Y-80834420D02*
X77034999Y-81115580D01*
%TO.C,C54*%
X154833767Y-112015000D02*
X154541233Y-112015000D01*
X154833767Y-113035000D02*
X154541233Y-113035000D01*
%TO.C,C70*%
X154590000Y-122178733D02*
X154590000Y-122471267D01*
X155610000Y-122178733D02*
X155610000Y-122471267D01*
%TO.C,C43*%
X74664999Y-86746920D02*
X74664999Y-87028080D01*
X75684999Y-86746920D02*
X75684999Y-87028080D01*
%TO.C,C229*%
X107290000Y-123359420D02*
X107290000Y-123640580D01*
X108310000Y-123359420D02*
X108310000Y-123640580D01*
%TO.C,R71*%
X75654724Y-132927500D02*
X75145276Y-132927500D01*
X75654724Y-133972500D02*
X75145276Y-133972500D01*
%TO.C,U15*%
X79865000Y-121215000D02*
X79865000Y-121915000D01*
X79865000Y-135435000D02*
X79865000Y-134735000D01*
X80565000Y-121215000D02*
X79865000Y-121215000D01*
X80565000Y-135435000D02*
X79865000Y-135435000D01*
X93385000Y-121215000D02*
X94085000Y-121215000D01*
X93385000Y-135435000D02*
X94085000Y-135435000D01*
X94085000Y-121215000D02*
X94085000Y-121915000D01*
X94085000Y-135435000D02*
X94085000Y-134735000D01*
X79237500Y-121915000D02*
X78897500Y-121445000D01*
X79577500Y-121445000D01*
X79237500Y-121915000D01*
G36*
X79237500Y-121915000D02*
G01*
X78897500Y-121445000D01*
X79577500Y-121445000D01*
X79237500Y-121915000D01*
G37*
%TO.C,C12*%
X76114999Y-70521920D02*
X76114999Y-70803080D01*
X77134999Y-70521920D02*
X77134999Y-70803080D01*
%TO.C,R32*%
X106527064Y-144616000D02*
X106072936Y-144616000D01*
X106527064Y-146086000D02*
X106072936Y-146086000D01*
%TO.C,C49*%
X74316233Y-117215000D02*
X74608767Y-117215000D01*
X74316233Y-118235000D02*
X74608767Y-118235000D01*
D15*
%TO.C,U10*%
X81825001Y-88624999D02*
X81825001Y-88075000D01*
D16*
X81849999Y-85550001D02*
X81849999Y-85300002D01*
X82100001Y-85300002D02*
X81849999Y-85300002D01*
D15*
X82374999Y-88625001D02*
X81824998Y-88625001D01*
D16*
X86150001Y-85300002D02*
X85900001Y-85300002D01*
X86150001Y-85550004D02*
X86150001Y-85300002D01*
X86150001Y-88600000D02*
X85899999Y-88600000D01*
X86150001Y-88600000D02*
X86150001Y-88350001D01*
D12*
%TO.C,Q51*%
X83462500Y-141715000D02*
X82812500Y-141715000D01*
X83462500Y-141715000D02*
X84112500Y-141715000D01*
X83462500Y-144835000D02*
X82812500Y-144835000D01*
X83462500Y-144835000D02*
X84112500Y-144835000D01*
X84865000Y-145115000D02*
X84385000Y-145115000D01*
X84625000Y-144785000D01*
X84865000Y-145115000D01*
G36*
X84865000Y-145115000D02*
G01*
X84385000Y-145115000D01*
X84625000Y-144785000D01*
X84865000Y-145115000D01*
G37*
%TO.C,R31*%
X117030409Y-144616000D02*
X116576281Y-144616000D01*
X117030409Y-146086000D02*
X116576281Y-146086000D01*
%TO.C,C48*%
X74378733Y-115715000D02*
X74671267Y-115715000D01*
X74378733Y-116735000D02*
X74671267Y-116735000D01*
%TO.C,R48*%
X105417909Y-129191000D02*
X104963781Y-129191000D01*
X105417909Y-130661000D02*
X104963781Y-130661000D01*
%TO.C,FB2*%
X133272936Y-134965000D02*
X133727064Y-134965000D01*
X133272936Y-136435000D02*
X133727064Y-136435000D01*
%TO.C,R7*%
X91015064Y-91990500D02*
X90560936Y-91990500D01*
X91015064Y-93460500D02*
X90560936Y-93460500D01*
D17*
%TO.C,D9*%
X133465000Y-128100000D02*
G75*
G02*
X133365000Y-128100000I-50000J0D01*
G01*
X133365000Y-128100000D02*
G75*
G02*
X133465000Y-128100000I50000J0D01*
G01*
D12*
%TO.C,R22*%
X111963781Y-127316000D02*
X112417909Y-127316000D01*
X111963781Y-128786000D02*
X112417909Y-128786000D01*
D13*
%TO.C,IC9*%
X141359483Y-82897000D02*
G75*
G02*
X141109483Y-82897000I-125000J0D01*
G01*
X141109483Y-82897000D02*
G75*
G02*
X141359483Y-82897000I125000J0D01*
G01*
D11*
%TO.C,JP11*%
X137045000Y-147975000D02*
X137545000Y-147475000D01*
X137045000Y-148775000D02*
X137045000Y-147975000D01*
X137545000Y-147475000D02*
X141145000Y-147475000D01*
X137545000Y-149275000D02*
X137045000Y-148775000D01*
X141145000Y-147475000D02*
X141645000Y-147975000D01*
X141145000Y-149275000D02*
X137545000Y-149275000D01*
X141645000Y-147975000D02*
X141645000Y-148775000D01*
X141645000Y-148775000D02*
X141145000Y-149275000D01*
D12*
%TO.C,R2_FAULT1*%
X80202064Y-108090000D02*
X79747936Y-108090000D01*
X80202064Y-109560000D02*
X79747936Y-109560000D01*
%TO.C,R6_ILIM1*%
X115521850Y-83786436D02*
X115521850Y-84240564D01*
X116991850Y-83786436D02*
X116991850Y-84240564D01*
%TO.C,R2*%
X94310936Y-87240500D02*
X94765064Y-87240500D01*
X94310936Y-88710500D02*
X94765064Y-88710500D01*
%TO.C,R36*%
X124372742Y-116717500D02*
X124847258Y-116717500D01*
X124372742Y-117762500D02*
X124847258Y-117762500D01*
%TO.C,R35*%
X124372742Y-118842500D02*
X124847258Y-118842500D01*
X124372742Y-119887500D02*
X124847258Y-119887500D01*
%TO.C,R26*%
X77564999Y-70360436D02*
X77564999Y-70814564D01*
X79034999Y-70360436D02*
X79034999Y-70814564D01*
%TO.C,C42*%
X94400000Y-103106267D02*
X94400000Y-102813733D01*
X95420000Y-103106267D02*
X95420000Y-102813733D01*
%TO.C,R28*%
X125976281Y-127316000D02*
X126430409Y-127316000D01*
X125976281Y-128786000D02*
X126430409Y-128786000D01*
%TO.C,C71*%
X80953733Y-114390000D02*
X81246267Y-114390000D01*
X80953733Y-115410000D02*
X81246267Y-115410000D01*
%TO.C,R82*%
X79377064Y-141640000D02*
X78922936Y-141640000D01*
X79377064Y-143110000D02*
X78922936Y-143110000D01*
%TD*%
M02*
