%TF.GenerationSoftware,KiCad,Pcbnew,9.0.7*%
%TF.CreationDate,2026-03-02T21:05:06-07:00*%
%TF.ProjectId,Solar Board 2.0,536f6c61-7220-4426-9f61-726420322e30,rev?*%
%TF.SameCoordinates,Original*%
%TF.FileFunction,Copper,L2,Inr*%
%TF.FilePolarity,Positive*%
%FSLAX46Y46*%
G04 Gerber Fmt 4.6, Leading zero omitted, Abs format (unit mm)*
G04 Created by KiCad (PCBNEW 9.0.7) date 2026-03-02 21:05:06*
%MOMM*%
%LPD*%
G01*
G04 APERTURE LIST*
%TA.AperFunction,ComponentPad*%
%ADD10R,1.700000X1.700000*%
%TD*%
%TA.AperFunction,ComponentPad*%
%ADD11C,1.700000*%
%TD*%
%TA.AperFunction,ViaPad*%
%ADD12C,0.600000*%
%TD*%
%TA.AperFunction,Conductor*%
%ADD13C,0.262100*%
%TD*%
G04 APERTURE END LIST*
D10*
%TO.N,/5V_BAT*%
%TO.C,M1*%
X168300000Y-90550000D03*
D11*
X168300000Y-93090000D03*
%TD*%
D12*
%TO.N,GND*%
X94443171Y-129993171D03*
X89180000Y-133230000D03*
X312380000Y-127210000D03*
X162450000Y-127130000D03*
X95713162Y-127363162D03*
X122300000Y-129910000D03*
X107990000Y-128970000D03*
X88710000Y-124210000D03*
X262200000Y-129290000D03*
X115210000Y-133430000D03*
X89530000Y-122540000D03*
X102870000Y-132750000D03*
X98860000Y-123820000D03*
X218462500Y-127542500D03*
X91251217Y-121649999D03*
X96000000Y-123870000D03*
%TO.N,/V_SOLAR*%
X99340000Y-128500000D03*
X97331000Y-127520000D03*
X109680000Y-131020000D03*
X91250000Y-130930000D03*
X89710000Y-130010000D03*
X103250000Y-130190000D03*
X72874006Y-99575994D03*
%TO.N,/3.3V_Batt*%
X222070000Y-129678500D03*
X164560000Y-129436000D03*
X164970000Y-130620000D03*
X257910000Y-128430000D03*
X107487500Y-131532500D03*
X109480000Y-127629000D03*
X221530000Y-130920000D03*
X259300000Y-127010000D03*
%TO.N,Net-(U50-SW2)*%
X90760000Y-124510000D03*
X88010000Y-123810000D03*
%TO.N,Net-(U50-FB)*%
X93385001Y-124740961D03*
X94054736Y-126309000D03*
%TO.N,/IC_I2C_SCL*%
X85570000Y-123126000D03*
X96620000Y-121110000D03*
X126560000Y-133500000D03*
X126860000Y-132420000D03*
%TO.N,/5V_BAT*%
X200800000Y-117000000D03*
%TO.N,/VSOLAR_1*%
X64830000Y-141040000D03*
X110940000Y-131030000D03*
%TO.N,/IC_I2C_SDA*%
X100221967Y-125678033D03*
X94927168Y-122392832D03*
X99375980Y-126359398D03*
%TD*%
D13*
%TO.N,/5V_BAT*%
X182896000Y-99491100D02*
X182896000Y-156854000D01*
X236276300Y-103473700D02*
X186878600Y-103473700D01*
X233017800Y-149250800D02*
X233017800Y-106732200D01*
X198102300Y-141647700D02*
X225414700Y-141647700D01*
X223242300Y-139475300D02*
X223242300Y-116507700D01*
X181085800Y-158664200D02*
X242431200Y-158664200D01*
X185068400Y-154681600D02*
X238448600Y-154681600D01*
X174206700Y-90801800D02*
X174206700Y-165543300D01*
X234828100Y-151061100D02*
X234828100Y-104921900D01*
X237362500Y-153595500D02*
X237362500Y-102387500D01*
X187602700Y-152147300D02*
X235914300Y-152147300D01*
X190861200Y-148888800D02*
X232655800Y-148888800D01*
X232293700Y-148526700D02*
X232293700Y-107456300D01*
X230121400Y-146354400D02*
X230121400Y-109628600D01*
X191223300Y-107818300D02*
X191223300Y-148526700D01*
X233379900Y-149612900D02*
X233379900Y-106370100D01*
X193757700Y-145992300D02*
X229759300Y-145992300D01*
X247500000Y-92250000D02*
X175654900Y-92250000D01*
X226862900Y-112887100D02*
X196292100Y-112887100D01*
X189413000Y-106008100D02*
X189413000Y-150337000D01*
X235552200Y-104197800D02*
X187602700Y-104197800D01*
X177103200Y-162646800D02*
X246413800Y-162646800D01*
X245327700Y-161560700D02*
X245327700Y-94422300D01*
X172758500Y-166991500D02*
X250758500Y-166991500D01*
X248224100Y-91525900D02*
X174930800Y-91525900D01*
X246775900Y-163008900D02*
X246775900Y-92974100D01*
X231931700Y-107818300D02*
X191223300Y-107818300D01*
X229397300Y-110352700D02*
X193757700Y-110352700D01*
X192309500Y-108904500D02*
X192309500Y-147440500D01*
X200274700Y-139475300D02*
X223242300Y-139475300D01*
X178189300Y-161560700D02*
X245327700Y-161560700D01*
X237724500Y-102025500D02*
X185430400Y-102025500D01*
X233741900Y-149974900D02*
X233741900Y-106008100D01*
X245689700Y-161922700D02*
X245689700Y-94060300D01*
X182896000Y-156854000D02*
X240621000Y-156854000D01*
X248586200Y-164819200D02*
X248586200Y-91163800D01*
X240258900Y-156491900D02*
X240258900Y-99491100D01*
X199550600Y-116145600D02*
X199550600Y-140199400D01*
X229035200Y-110714800D02*
X194119700Y-110714800D01*
X190137100Y-106732200D02*
X190137100Y-149612900D01*
X223604400Y-116145600D02*
X199550600Y-116145600D01*
X194843800Y-111438900D02*
X194843800Y-144906200D01*
X190499200Y-107094200D02*
X190499200Y-149250800D01*
X249672300Y-165905300D02*
X249672300Y-90077700D01*
X247138000Y-92612000D02*
X176017000Y-92612000D01*
X240621000Y-99129000D02*
X182534000Y-99129000D01*
X191585300Y-148164700D02*
X231931700Y-148164700D01*
X197378200Y-142371800D02*
X226138800Y-142371800D01*
X189051000Y-150699000D02*
X234466000Y-150699000D01*
X248948200Y-165181200D02*
X248948200Y-90801800D01*
X239172700Y-100577300D02*
X183982200Y-100577300D01*
X185430400Y-154319600D02*
X238086600Y-154319600D01*
X226500800Y-113249200D02*
X196654100Y-113249200D01*
X193395600Y-146354400D02*
X230121400Y-146354400D01*
X197016200Y-113611200D02*
X197016200Y-142733800D01*
X239534800Y-100215200D02*
X183620100Y-100215200D01*
X235914300Y-152147300D02*
X235914300Y-103835700D01*
X234104000Y-105646000D02*
X189051000Y-105646000D01*
X242793300Y-96956700D02*
X180361700Y-96956700D01*
X180361700Y-96956700D02*
X180361700Y-159388300D01*
X188326900Y-104921900D02*
X188326900Y-151423100D01*
X183620100Y-100215200D02*
X183620100Y-156129900D01*
X180361700Y-159388300D02*
X243155300Y-159388300D01*
X227587000Y-112163000D02*
X195568000Y-112163000D01*
X226862900Y-143095900D02*
X226862900Y-112887100D01*
X241345100Y-98404900D02*
X181809900Y-98404900D01*
X235914300Y-103835700D02*
X187240700Y-103835700D01*
X250396400Y-89353600D02*
X172758500Y-89353600D01*
X230845500Y-147078500D02*
X230845500Y-108904500D01*
X175654900Y-164095100D02*
X247862100Y-164095100D01*
X194119700Y-110714800D02*
X194119700Y-145630300D01*
X234466000Y-150699000D02*
X234466000Y-105284000D01*
X225414700Y-141647700D02*
X225414700Y-114335300D01*
X178913400Y-95508500D02*
X178913400Y-160836600D01*
X174930800Y-91525900D02*
X174930800Y-164819200D01*
X177827300Y-94422300D02*
X177827300Y-161922700D01*
X243879500Y-95870500D02*
X179275500Y-95870500D01*
X183982200Y-155767800D02*
X239534800Y-155767800D01*
X198102300Y-114697400D02*
X198102300Y-141647700D01*
X235190100Y-151423100D02*
X235190100Y-104559900D01*
X244965600Y-94784400D02*
X178189300Y-94784400D01*
X180723700Y-159026300D02*
X242793300Y-159026300D01*
X184706300Y-101301400D02*
X184706300Y-155043700D01*
X242069200Y-158302200D02*
X242069200Y-97680800D01*
X194481800Y-111076800D02*
X194481800Y-145268200D01*
X246413800Y-93336200D02*
X176741100Y-93336200D01*
X198464400Y-115059400D02*
X198464400Y-141285600D01*
X190861200Y-107456300D02*
X190861200Y-148888800D01*
X225776700Y-113973300D02*
X197378200Y-113973300D01*
X247500000Y-163733000D02*
X247500000Y-92250000D01*
X176379000Y-163371000D02*
X247138000Y-163371000D01*
X233017800Y-106732200D02*
X190137100Y-106732200D01*
X223966400Y-115783600D02*
X199188500Y-115783600D01*
X179999600Y-96594700D02*
X179999600Y-159750400D01*
X244241500Y-160474500D02*
X244241500Y-95508500D01*
X229397300Y-145630300D02*
X229397300Y-110352700D01*
X238448600Y-101301400D02*
X184706300Y-101301400D01*
X225776700Y-142009700D02*
X225776700Y-113973300D01*
X239896900Y-156129900D02*
X239896900Y-99853100D01*
X193395600Y-109990700D02*
X193395600Y-146354400D01*
X182534000Y-157216000D02*
X240983000Y-157216000D01*
X192671500Y-109266600D02*
X192671500Y-147078500D01*
X247138000Y-163371000D02*
X247138000Y-92612000D01*
X228311100Y-111438900D02*
X194843800Y-111438900D01*
X197016200Y-142733800D02*
X226500800Y-142733800D01*
X248224100Y-164457100D02*
X248224100Y-91525900D01*
X243879500Y-160112500D02*
X243879500Y-95870500D01*
X239534800Y-155767800D02*
X239534800Y-100215200D01*
X246051800Y-162284800D02*
X246051800Y-93698200D01*
X232655800Y-107094200D02*
X190499200Y-107094200D01*
X242431200Y-158664200D02*
X242431200Y-97318800D01*
X179637500Y-160112500D02*
X243879500Y-160112500D01*
X225052600Y-114697400D02*
X198102300Y-114697400D01*
X188688900Y-151061100D02*
X234828100Y-151061100D01*
X186516600Y-103111600D02*
X186516600Y-153233400D01*
X196292100Y-112887100D02*
X196292100Y-143457900D01*
X230121400Y-109628600D02*
X193033600Y-109628600D01*
X248948200Y-90801800D02*
X174206700Y-90801800D01*
X237000400Y-102749600D02*
X186154500Y-102749600D01*
X190137100Y-149612900D02*
X233379900Y-149612900D01*
X227224900Y-143457900D02*
X227224900Y-112525100D01*
X174930800Y-164819200D02*
X248586200Y-164819200D01*
X199188500Y-115783600D02*
X199188500Y-140561500D01*
X224690600Y-115059400D02*
X198464400Y-115059400D01*
X231207500Y-108542500D02*
X191947400Y-108542500D01*
X223966400Y-140199400D02*
X223966400Y-115783600D01*
X246775900Y-92974100D02*
X176379000Y-92974100D01*
X176017000Y-92612000D02*
X176017000Y-163733000D01*
X199188500Y-140561500D02*
X224328500Y-140561500D01*
X178913400Y-160836600D02*
X244603600Y-160836600D01*
X186516600Y-153233400D02*
X237000400Y-153233400D01*
X197740300Y-114335300D02*
X197740300Y-142009700D01*
X184706300Y-155043700D02*
X238810700Y-155043700D01*
X228673200Y-144906200D02*
X228673200Y-111076800D01*
X236638400Y-152871400D02*
X236638400Y-103111600D01*
X234828100Y-104921900D02*
X188326900Y-104921900D01*
X235552200Y-151785200D02*
X235552200Y-104197800D01*
X238086600Y-101663400D02*
X185068400Y-101663400D01*
X196292100Y-143457900D02*
X227224900Y-143457900D01*
X187964800Y-151785200D02*
X235552200Y-151785200D01*
X192309500Y-147440500D02*
X231207500Y-147440500D01*
X177103200Y-93698200D02*
X177103200Y-162646800D01*
X176741100Y-93336200D02*
X176741100Y-163008900D01*
X230483400Y-109266600D02*
X192671500Y-109266600D01*
X193757700Y-110352700D02*
X193757700Y-145992300D01*
X189775100Y-106370100D02*
X189775100Y-149974900D01*
X195205900Y-144544100D02*
X228311100Y-144544100D01*
X238086600Y-154319600D02*
X238086600Y-101663400D01*
X224328500Y-140561500D02*
X224328500Y-115421500D01*
X178551400Y-95146400D02*
X178551400Y-161198600D01*
X172758500Y-89353600D02*
X172758500Y-166991500D01*
X180723700Y-97318800D02*
X180723700Y-159026300D01*
X181447800Y-158302200D02*
X242069200Y-158302200D01*
X181447800Y-98042900D02*
X181447800Y-158302200D01*
X200274700Y-117525300D02*
X200274700Y-139475300D01*
X176741100Y-163008900D02*
X246775900Y-163008900D01*
X246051800Y-93698200D02*
X177103200Y-93698200D01*
X224328500Y-115421500D02*
X198826400Y-115421500D01*
X184344300Y-100939300D02*
X184344300Y-155405700D01*
X173120600Y-89715600D02*
X173120600Y-166629400D01*
X181085800Y-97680800D02*
X181085800Y-158664200D01*
X244603600Y-160836600D02*
X244603600Y-95146400D01*
X173482600Y-90077700D02*
X173482600Y-166267400D01*
X241345100Y-157578100D02*
X241345100Y-98404900D01*
X195568000Y-112163000D02*
X195568000Y-144182000D01*
X243155300Y-159388300D02*
X243155300Y-96594700D01*
X239172700Y-155405700D02*
X239172700Y-100577300D01*
X240258900Y-99491100D02*
X182896000Y-99491100D01*
X177827300Y-161922700D02*
X245689700Y-161922700D01*
X223604400Y-139837400D02*
X223604400Y-116145600D01*
X236276300Y-152509300D02*
X236276300Y-103473700D01*
X246413800Y-162646800D02*
X246413800Y-93336200D01*
X198826400Y-140923600D02*
X224690600Y-140923600D01*
X173482600Y-166267400D02*
X250034400Y-166267400D01*
X243517400Y-159750400D02*
X243517400Y-96232600D01*
X226138800Y-113611200D02*
X197016200Y-113611200D01*
X178551400Y-161198600D02*
X244965600Y-161198600D01*
X241707100Y-157940100D02*
X241707100Y-98042900D01*
X244241500Y-95508500D02*
X178913400Y-95508500D01*
X183258100Y-156491900D02*
X240258900Y-156491900D01*
X196654100Y-113249200D02*
X196654100Y-143095900D01*
X245689700Y-94060300D02*
X177465200Y-94060300D01*
X227224900Y-112525100D02*
X195930000Y-112525100D01*
X234104000Y-150337000D02*
X234104000Y-105646000D01*
X249310300Y-90439700D02*
X173844700Y-90439700D01*
X225414700Y-114335300D02*
X197740300Y-114335300D01*
X223242300Y-116507700D02*
X199912600Y-116507700D01*
X188688900Y-105284000D02*
X188688900Y-151061100D01*
X191223300Y-148526700D02*
X232293700Y-148526700D01*
X236638400Y-103111600D02*
X186516600Y-103111600D01*
X198464400Y-141285600D02*
X225052600Y-141285600D01*
X238810700Y-155043700D02*
X238810700Y-100939300D01*
X189775100Y-149974900D02*
X233741900Y-149974900D01*
X182534000Y-99129000D02*
X182534000Y-157216000D01*
X176379000Y-92974100D02*
X176379000Y-163371000D01*
X179275500Y-160474500D02*
X244241500Y-160474500D01*
X231569600Y-147802600D02*
X231569600Y-108180400D01*
X244965600Y-161198600D02*
X244965600Y-94784400D01*
X199912600Y-139837400D02*
X223604400Y-139837400D01*
X197740300Y-142009700D02*
X225776700Y-142009700D01*
X234466000Y-105284000D02*
X188688900Y-105284000D01*
X183258100Y-99853100D02*
X183258100Y-156491900D01*
X194481800Y-145268200D02*
X229035200Y-145268200D01*
X238810700Y-100939300D02*
X184344300Y-100939300D01*
X194843800Y-144906200D02*
X228673200Y-144906200D01*
X177465200Y-94060300D02*
X177465200Y-162284800D01*
X174568800Y-91163800D02*
X174568800Y-165181200D01*
X187240700Y-103835700D02*
X187240700Y-152509300D01*
X186878600Y-152871400D02*
X236638400Y-152871400D01*
X186154500Y-102749600D02*
X186154500Y-153595500D01*
X191585300Y-108180400D02*
X191585300Y-148164700D01*
X240983000Y-157216000D02*
X240983000Y-98767000D01*
X187964800Y-104559900D02*
X187964800Y-151785200D01*
X179637500Y-96232600D02*
X179637500Y-160112500D01*
X250758500Y-166991500D02*
X250758500Y-88991500D01*
X187240700Y-152509300D02*
X236276300Y-152509300D01*
X225052600Y-141285600D02*
X225052600Y-114697400D01*
X227587000Y-143820000D02*
X227587000Y-112163000D01*
X189413000Y-150337000D02*
X234104000Y-150337000D01*
X250758500Y-88991500D02*
X171508500Y-88991500D01*
X190499200Y-149250800D02*
X233017800Y-149250800D01*
X237000400Y-153233400D02*
X237000400Y-102749600D01*
X186878600Y-103473700D02*
X186878600Y-152871400D01*
X245327700Y-94422300D02*
X177827300Y-94422300D01*
X235190100Y-104559900D02*
X187964800Y-104559900D01*
X171508500Y-88991500D02*
X169950000Y-90550000D01*
X174568800Y-165181200D02*
X248948200Y-165181200D01*
X243517400Y-96232600D02*
X179637500Y-96232600D01*
X181809900Y-98404900D02*
X181809900Y-157940100D01*
X185792500Y-153957500D02*
X237724500Y-153957500D01*
X240983000Y-98767000D02*
X182171900Y-98767000D01*
X228311100Y-144544100D02*
X228311100Y-111438900D01*
X195930000Y-112525100D02*
X195930000Y-143820000D01*
X169950000Y-90550000D02*
X168300000Y-90550000D01*
X195568000Y-144182000D02*
X227949000Y-144182000D01*
X193033600Y-146716400D02*
X230483400Y-146716400D01*
X179275500Y-95870500D02*
X179275500Y-160474500D01*
X179999600Y-159750400D02*
X243517400Y-159750400D01*
X248586200Y-91163800D02*
X174568800Y-91163800D01*
X231931700Y-148164700D02*
X231931700Y-107818300D01*
X189051000Y-105646000D02*
X189051000Y-150699000D01*
X186154500Y-153595500D02*
X237362500Y-153595500D01*
X250034400Y-89715600D02*
X173120600Y-89715600D01*
X200800000Y-117000000D02*
X200274700Y-117525300D01*
X192671500Y-147078500D02*
X230845500Y-147078500D01*
X231569600Y-108180400D02*
X191585300Y-108180400D01*
X182171900Y-98767000D02*
X182171900Y-157578100D01*
X183982200Y-100577300D02*
X183982200Y-155767800D01*
X247862100Y-164095100D02*
X247862100Y-91887900D01*
X240621000Y-156854000D02*
X240621000Y-99129000D01*
X242069200Y-97680800D02*
X181085800Y-97680800D01*
X229035200Y-145268200D02*
X229035200Y-110714800D01*
X233741900Y-106008100D02*
X189413000Y-106008100D01*
X233379900Y-106370100D02*
X189775100Y-106370100D01*
X191947400Y-147802600D02*
X231569600Y-147802600D01*
X173844700Y-165905300D02*
X249672300Y-165905300D01*
X182171900Y-157578100D02*
X241345100Y-157578100D01*
X175654900Y-92250000D02*
X175654900Y-164095100D01*
X196654100Y-143095900D02*
X226862900Y-143095900D01*
X198826400Y-115421500D02*
X198826400Y-140923600D01*
X176017000Y-163733000D02*
X247500000Y-163733000D01*
X175292900Y-91887900D02*
X175292900Y-164457100D01*
X193033600Y-109628600D02*
X193033600Y-146716400D01*
X188326900Y-151423100D02*
X235190100Y-151423100D01*
X242793300Y-159026300D02*
X242793300Y-96956700D01*
X228673200Y-111076800D02*
X194481800Y-111076800D01*
X241707100Y-98042900D02*
X181447800Y-98042900D01*
X249310300Y-165543300D02*
X249310300Y-90439700D01*
X242431200Y-97318800D02*
X180723700Y-97318800D01*
X247862100Y-91887900D02*
X175292900Y-91887900D01*
X239896900Y-99853100D02*
X183258100Y-99853100D01*
X184344300Y-155405700D02*
X239172700Y-155405700D01*
X185792500Y-102387500D02*
X185792500Y-153957500D01*
X195930000Y-143820000D02*
X227587000Y-143820000D01*
X177465200Y-162284800D02*
X246051800Y-162284800D01*
X199912600Y-116507700D02*
X199912600Y-139837400D01*
X174206700Y-165543300D02*
X249310300Y-165543300D01*
X197378200Y-113973300D02*
X197378200Y-142371800D01*
X238448600Y-154681600D02*
X238448600Y-101301400D01*
X173120600Y-166629400D02*
X250396400Y-166629400D01*
X181809900Y-157940100D02*
X241707100Y-157940100D01*
X237362500Y-102387500D02*
X185792500Y-102387500D01*
X227949000Y-144182000D02*
X227949000Y-111801000D01*
X232293700Y-107456300D02*
X190861200Y-107456300D01*
X226138800Y-142371800D02*
X226138800Y-113611200D01*
X173844700Y-90439700D02*
X173844700Y-165905300D01*
X230845500Y-108904500D02*
X192309500Y-108904500D01*
X178189300Y-94784400D02*
X178189300Y-161560700D01*
X226500800Y-142733800D02*
X226500800Y-113249200D01*
X199550600Y-140199400D02*
X223966400Y-140199400D01*
X191947400Y-108542500D02*
X191947400Y-147802600D01*
X230483400Y-146716400D02*
X230483400Y-109266600D01*
X185430400Y-102025500D02*
X185430400Y-154319600D01*
X227949000Y-111801000D02*
X195205900Y-111801000D01*
X249672300Y-90077700D02*
X173482600Y-90077700D01*
X175292900Y-164457100D02*
X248224100Y-164457100D01*
X244603600Y-95146400D02*
X178551400Y-95146400D01*
X231207500Y-147440500D02*
X231207500Y-108542500D01*
X243155300Y-96594700D02*
X179999600Y-96594700D01*
X229759300Y-145992300D02*
X229759300Y-109990700D01*
X232655800Y-148888800D02*
X232655800Y-107094200D01*
X224690600Y-140923600D02*
X224690600Y-115059400D01*
X183620100Y-156129900D02*
X239896900Y-156129900D01*
X250034400Y-166267400D02*
X250034400Y-89715600D01*
X195205900Y-111801000D02*
X195205900Y-144544100D01*
X185068400Y-101663400D02*
X185068400Y-154681600D01*
X187602700Y-104197800D02*
X187602700Y-152147300D01*
X229759300Y-109990700D02*
X193395600Y-109990700D01*
X194119700Y-145630300D02*
X229397300Y-145630300D01*
X237724500Y-153957500D02*
X237724500Y-102025500D01*
X250396400Y-166629400D02*
X250396400Y-89353600D01*
%TD*%
M02*
