%TF.GenerationSoftware,KiCad,Pcbnew,9.0.7*%
%TF.CreationDate,2026-02-23T15:03:22-07:00*%
%TF.ProjectId,Solar_Conglomerator,536f6c61-725f-4436-9f6e-676c6f6d6572,v0.1*%
%TF.SameCoordinates,Original*%
%TF.FileFunction,Legend,Top*%
%TF.FilePolarity,Positive*%
%FSLAX46Y46*%
G04 Gerber Fmt 4.6, Leading zero omitted, Abs format (unit mm)*
G04 Created by KiCad (PCBNEW 9.0.7) date 2026-02-23 15:03:22*
%MOMM*%
%LPD*%
G01*
G04 APERTURE LIST*
%ADD10C,0.100000*%
%ADD11C,0.200000*%
%ADD12C,0.150000*%
%ADD13C,0.300000*%
%ADD14C,0.254000*%
%ADD15C,0.152400*%
%ADD16C,0.120000*%
%ADD17C,0.250000*%
%ADD18C,0.000000*%
G04 APERTURE END LIST*
D10*
X143353155Y-145807500D02*
X144928155Y-145807500D01*
X144928155Y-147332500D01*
X143353155Y-147332500D01*
X143353155Y-145807500D01*
G36*
X143353155Y-145807500D02*
G01*
X144928155Y-145807500D01*
X144928155Y-147332500D01*
X143353155Y-147332500D01*
X143353155Y-145807500D01*
G37*
X153440655Y-143945000D02*
X155015655Y-143945000D01*
X155015655Y-145470000D01*
X153440655Y-145470000D01*
X153440655Y-143945000D01*
G36*
X153440655Y-143945000D02*
G01*
X155015655Y-143945000D01*
X155015655Y-145470000D01*
X153440655Y-145470000D01*
X153440655Y-143945000D01*
G37*
X153440655Y-145807500D02*
X155015655Y-145807500D01*
X155015655Y-147332500D01*
X153440655Y-147332500D01*
X153440655Y-145807500D01*
G36*
X153440655Y-145807500D02*
G01*
X155015655Y-145807500D01*
X155015655Y-147332500D01*
X153440655Y-147332500D01*
X153440655Y-145807500D01*
G37*
X143353155Y-143945000D02*
X144928155Y-143945000D01*
X144928155Y-145470000D01*
X143353155Y-145470000D01*
X143353155Y-143945000D01*
G36*
X143353155Y-143945000D02*
G01*
X144928155Y-143945000D01*
X144928155Y-145470000D01*
X143353155Y-145470000D01*
X143353155Y-143945000D01*
G37*
X145993944Y-145342419D02*
X145993944Y-144342419D01*
X145993944Y-144342419D02*
X146565372Y-145342419D01*
X146565372Y-145342419D02*
X146565372Y-144342419D01*
X147184420Y-145342419D02*
X147089182Y-145294800D01*
X147089182Y-145294800D02*
X147041563Y-145247180D01*
X147041563Y-145247180D02*
X146993944Y-145151942D01*
X146993944Y-145151942D02*
X146993944Y-144866228D01*
X146993944Y-144866228D02*
X147041563Y-144770990D01*
X147041563Y-144770990D02*
X147089182Y-144723371D01*
X147089182Y-144723371D02*
X147184420Y-144675752D01*
X147184420Y-144675752D02*
X147327277Y-144675752D01*
X147327277Y-144675752D02*
X147422515Y-144723371D01*
X147422515Y-144723371D02*
X147470134Y-144770990D01*
X147470134Y-144770990D02*
X147517753Y-144866228D01*
X147517753Y-144866228D02*
X147517753Y-145151942D01*
X147517753Y-145151942D02*
X147470134Y-145247180D01*
X147470134Y-145247180D02*
X147422515Y-145294800D01*
X147422515Y-145294800D02*
X147327277Y-145342419D01*
X147327277Y-145342419D02*
X147184420Y-145342419D01*
X147946325Y-145342419D02*
X147946325Y-144675752D01*
X147946325Y-144770990D02*
X147993944Y-144723371D01*
X147993944Y-144723371D02*
X148089182Y-144675752D01*
X148089182Y-144675752D02*
X148232039Y-144675752D01*
X148232039Y-144675752D02*
X148327277Y-144723371D01*
X148327277Y-144723371D02*
X148374896Y-144818609D01*
X148374896Y-144818609D02*
X148374896Y-145342419D01*
X148374896Y-144818609D02*
X148422515Y-144723371D01*
X148422515Y-144723371D02*
X148517753Y-144675752D01*
X148517753Y-144675752D02*
X148660610Y-144675752D01*
X148660610Y-144675752D02*
X148755849Y-144723371D01*
X148755849Y-144723371D02*
X148803468Y-144818609D01*
X148803468Y-144818609D02*
X148803468Y-145342419D01*
X149279658Y-145342419D02*
X149279658Y-144675752D01*
X149279658Y-144342419D02*
X149232039Y-144390038D01*
X149232039Y-144390038D02*
X149279658Y-144437657D01*
X149279658Y-144437657D02*
X149327277Y-144390038D01*
X149327277Y-144390038D02*
X149279658Y-144342419D01*
X149279658Y-144342419D02*
X149279658Y-144437657D01*
X149755848Y-144675752D02*
X149755848Y-145342419D01*
X149755848Y-144770990D02*
X149803467Y-144723371D01*
X149803467Y-144723371D02*
X149898705Y-144675752D01*
X149898705Y-144675752D02*
X150041562Y-144675752D01*
X150041562Y-144675752D02*
X150136800Y-144723371D01*
X150136800Y-144723371D02*
X150184419Y-144818609D01*
X150184419Y-144818609D02*
X150184419Y-145342419D01*
X151089181Y-145342419D02*
X151089181Y-144818609D01*
X151089181Y-144818609D02*
X151041562Y-144723371D01*
X151041562Y-144723371D02*
X150946324Y-144675752D01*
X150946324Y-144675752D02*
X150755848Y-144675752D01*
X150755848Y-144675752D02*
X150660610Y-144723371D01*
X151089181Y-145294800D02*
X150993943Y-145342419D01*
X150993943Y-145342419D02*
X150755848Y-145342419D01*
X150755848Y-145342419D02*
X150660610Y-145294800D01*
X150660610Y-145294800D02*
X150612991Y-145199561D01*
X150612991Y-145199561D02*
X150612991Y-145104323D01*
X150612991Y-145104323D02*
X150660610Y-145009085D01*
X150660610Y-145009085D02*
X150755848Y-144961466D01*
X150755848Y-144961466D02*
X150993943Y-144961466D01*
X150993943Y-144961466D02*
X151089181Y-144913847D01*
X151708229Y-145342419D02*
X151612991Y-145294800D01*
X151612991Y-145294800D02*
X151565372Y-145199561D01*
X151565372Y-145199561D02*
X151565372Y-144342419D01*
X156414777Y-144818609D02*
X156081444Y-144818609D01*
X156081444Y-145342419D02*
X156081444Y-144342419D01*
X156081444Y-144342419D02*
X156557634Y-144342419D01*
X157081444Y-145342419D02*
X156986206Y-145294800D01*
X156986206Y-145294800D02*
X156938587Y-145199561D01*
X156938587Y-145199561D02*
X156938587Y-144342419D01*
X157462397Y-145342419D02*
X157462397Y-144675752D01*
X157462397Y-144342419D02*
X157414778Y-144390038D01*
X157414778Y-144390038D02*
X157462397Y-144437657D01*
X157462397Y-144437657D02*
X157510016Y-144390038D01*
X157510016Y-144390038D02*
X157462397Y-144342419D01*
X157462397Y-144342419D02*
X157462397Y-144437657D01*
X158367158Y-144675752D02*
X158367158Y-145485276D01*
X158367158Y-145485276D02*
X158319539Y-145580514D01*
X158319539Y-145580514D02*
X158271920Y-145628133D01*
X158271920Y-145628133D02*
X158176682Y-145675752D01*
X158176682Y-145675752D02*
X158033825Y-145675752D01*
X158033825Y-145675752D02*
X157938587Y-145628133D01*
X158367158Y-145294800D02*
X158271920Y-145342419D01*
X158271920Y-145342419D02*
X158081444Y-145342419D01*
X158081444Y-145342419D02*
X157986206Y-145294800D01*
X157986206Y-145294800D02*
X157938587Y-145247180D01*
X157938587Y-145247180D02*
X157890968Y-145151942D01*
X157890968Y-145151942D02*
X157890968Y-144866228D01*
X157890968Y-144866228D02*
X157938587Y-144770990D01*
X157938587Y-144770990D02*
X157986206Y-144723371D01*
X157986206Y-144723371D02*
X158081444Y-144675752D01*
X158081444Y-144675752D02*
X158271920Y-144675752D01*
X158271920Y-144675752D02*
X158367158Y-144723371D01*
X158843349Y-145342419D02*
X158843349Y-144342419D01*
X159271920Y-145342419D02*
X159271920Y-144818609D01*
X159271920Y-144818609D02*
X159224301Y-144723371D01*
X159224301Y-144723371D02*
X159129063Y-144675752D01*
X159129063Y-144675752D02*
X158986206Y-144675752D01*
X158986206Y-144675752D02*
X158890968Y-144723371D01*
X158890968Y-144723371D02*
X158843349Y-144770990D01*
X159605254Y-144675752D02*
X159986206Y-144675752D01*
X159748111Y-144342419D02*
X159748111Y-145199561D01*
X159748111Y-145199561D02*
X159795730Y-145294800D01*
X159795730Y-145294800D02*
X159890968Y-145342419D01*
X159890968Y-145342419D02*
X159986206Y-145342419D01*
D11*
X184827219Y-125170802D02*
X184351028Y-125437469D01*
X184827219Y-125627945D02*
X183827219Y-125627945D01*
X183827219Y-125627945D02*
X183827219Y-125323183D01*
X183827219Y-125323183D02*
X183874838Y-125246993D01*
X183874838Y-125246993D02*
X183922457Y-125208898D01*
X183922457Y-125208898D02*
X184017695Y-125170802D01*
X184017695Y-125170802D02*
X184160552Y-125170802D01*
X184160552Y-125170802D02*
X184255790Y-125208898D01*
X184255790Y-125208898D02*
X184303409Y-125246993D01*
X184303409Y-125246993D02*
X184351028Y-125323183D01*
X184351028Y-125323183D02*
X184351028Y-125627945D01*
X184779600Y-124866041D02*
X184827219Y-124751755D01*
X184827219Y-124751755D02*
X184827219Y-124561279D01*
X184827219Y-124561279D02*
X184779600Y-124485088D01*
X184779600Y-124485088D02*
X184731980Y-124446993D01*
X184731980Y-124446993D02*
X184636742Y-124408898D01*
X184636742Y-124408898D02*
X184541504Y-124408898D01*
X184541504Y-124408898D02*
X184446266Y-124446993D01*
X184446266Y-124446993D02*
X184398647Y-124485088D01*
X184398647Y-124485088D02*
X184351028Y-124561279D01*
X184351028Y-124561279D02*
X184303409Y-124713660D01*
X184303409Y-124713660D02*
X184255790Y-124789850D01*
X184255790Y-124789850D02*
X184208171Y-124827945D01*
X184208171Y-124827945D02*
X184112933Y-124866041D01*
X184112933Y-124866041D02*
X184017695Y-124866041D01*
X184017695Y-124866041D02*
X183922457Y-124827945D01*
X183922457Y-124827945D02*
X183874838Y-124789850D01*
X183874838Y-124789850D02*
X183827219Y-124713660D01*
X183827219Y-124713660D02*
X183827219Y-124523183D01*
X183827219Y-124523183D02*
X183874838Y-124408898D01*
X183827219Y-124180326D02*
X183827219Y-123723183D01*
X184827219Y-123951755D02*
X183827219Y-123951755D01*
X184779600Y-122885088D02*
X184827219Y-122770802D01*
X184827219Y-122770802D02*
X184827219Y-122580326D01*
X184827219Y-122580326D02*
X184779600Y-122504135D01*
X184779600Y-122504135D02*
X184731980Y-122466040D01*
X184731980Y-122466040D02*
X184636742Y-122427945D01*
X184636742Y-122427945D02*
X184541504Y-122427945D01*
X184541504Y-122427945D02*
X184446266Y-122466040D01*
X184446266Y-122466040D02*
X184398647Y-122504135D01*
X184398647Y-122504135D02*
X184351028Y-122580326D01*
X184351028Y-122580326D02*
X184303409Y-122732707D01*
X184303409Y-122732707D02*
X184255790Y-122808897D01*
X184255790Y-122808897D02*
X184208171Y-122846992D01*
X184208171Y-122846992D02*
X184112933Y-122885088D01*
X184112933Y-122885088D02*
X184017695Y-122885088D01*
X184017695Y-122885088D02*
X183922457Y-122846992D01*
X183922457Y-122846992D02*
X183874838Y-122808897D01*
X183874838Y-122808897D02*
X183827219Y-122732707D01*
X183827219Y-122732707D02*
X183827219Y-122542230D01*
X183827219Y-122542230D02*
X183874838Y-122427945D01*
X184827219Y-122085087D02*
X183827219Y-122085087D01*
X183827219Y-121551754D02*
X183827219Y-121399373D01*
X183827219Y-121399373D02*
X183874838Y-121323183D01*
X183874838Y-121323183D02*
X183970076Y-121246992D01*
X183970076Y-121246992D02*
X184160552Y-121208897D01*
X184160552Y-121208897D02*
X184493885Y-121208897D01*
X184493885Y-121208897D02*
X184684361Y-121246992D01*
X184684361Y-121246992D02*
X184779600Y-121323183D01*
X184779600Y-121323183D02*
X184827219Y-121399373D01*
X184827219Y-121399373D02*
X184827219Y-121551754D01*
X184827219Y-121551754D02*
X184779600Y-121627945D01*
X184779600Y-121627945D02*
X184684361Y-121704135D01*
X184684361Y-121704135D02*
X184493885Y-121742231D01*
X184493885Y-121742231D02*
X184160552Y-121742231D01*
X184160552Y-121742231D02*
X183970076Y-121704135D01*
X183970076Y-121704135D02*
X183874838Y-121627945D01*
X183874838Y-121627945D02*
X183827219Y-121551754D01*
X184731980Y-119799373D02*
X184779600Y-119837469D01*
X184779600Y-119837469D02*
X184827219Y-119951754D01*
X184827219Y-119951754D02*
X184827219Y-120027945D01*
X184827219Y-120027945D02*
X184779600Y-120142231D01*
X184779600Y-120142231D02*
X184684361Y-120218421D01*
X184684361Y-120218421D02*
X184589123Y-120256516D01*
X184589123Y-120256516D02*
X184398647Y-120294612D01*
X184398647Y-120294612D02*
X184255790Y-120294612D01*
X184255790Y-120294612D02*
X184065314Y-120256516D01*
X184065314Y-120256516D02*
X183970076Y-120218421D01*
X183970076Y-120218421D02*
X183874838Y-120142231D01*
X183874838Y-120142231D02*
X183827219Y-120027945D01*
X183827219Y-120027945D02*
X183827219Y-119951754D01*
X183827219Y-119951754D02*
X183874838Y-119837469D01*
X183874838Y-119837469D02*
X183922457Y-119799373D01*
X184827219Y-119075564D02*
X184827219Y-119456516D01*
X184827219Y-119456516D02*
X183827219Y-119456516D01*
X184827219Y-118808897D02*
X183827219Y-118808897D01*
X184827219Y-118351754D02*
X184255790Y-118694612D01*
X183827219Y-118351754D02*
X184398647Y-118808897D01*
X184827219Y-116942230D02*
X184351028Y-117208897D01*
X184827219Y-117399373D02*
X183827219Y-117399373D01*
X183827219Y-117399373D02*
X183827219Y-117094611D01*
X183827219Y-117094611D02*
X183874838Y-117018421D01*
X183874838Y-117018421D02*
X183922457Y-116980326D01*
X183922457Y-116980326D02*
X184017695Y-116942230D01*
X184017695Y-116942230D02*
X184160552Y-116942230D01*
X184160552Y-116942230D02*
X184255790Y-116980326D01*
X184255790Y-116980326D02*
X184303409Y-117018421D01*
X184303409Y-117018421D02*
X184351028Y-117094611D01*
X184351028Y-117094611D02*
X184351028Y-117399373D01*
X184303409Y-116599373D02*
X184303409Y-116332707D01*
X184827219Y-116218421D02*
X184827219Y-116599373D01*
X184827219Y-116599373D02*
X183827219Y-116599373D01*
X183827219Y-116599373D02*
X183827219Y-116218421D01*
X184303409Y-115608897D02*
X184303409Y-115875563D01*
X184827219Y-115875563D02*
X183827219Y-115875563D01*
X183827219Y-115875563D02*
X183827219Y-115494611D01*
X183874838Y-114161278D02*
X183827219Y-114237468D01*
X183827219Y-114237468D02*
X183827219Y-114351754D01*
X183827219Y-114351754D02*
X183874838Y-114466040D01*
X183874838Y-114466040D02*
X183970076Y-114542230D01*
X183970076Y-114542230D02*
X184065314Y-114580325D01*
X184065314Y-114580325D02*
X184255790Y-114618421D01*
X184255790Y-114618421D02*
X184398647Y-114618421D01*
X184398647Y-114618421D02*
X184589123Y-114580325D01*
X184589123Y-114580325D02*
X184684361Y-114542230D01*
X184684361Y-114542230D02*
X184779600Y-114466040D01*
X184779600Y-114466040D02*
X184827219Y-114351754D01*
X184827219Y-114351754D02*
X184827219Y-114275563D01*
X184827219Y-114275563D02*
X184779600Y-114161278D01*
X184779600Y-114161278D02*
X184731980Y-114123182D01*
X184731980Y-114123182D02*
X184398647Y-114123182D01*
X184398647Y-114123182D02*
X184398647Y-114275563D01*
X184827219Y-113780325D02*
X183827219Y-113780325D01*
X183827219Y-113780325D02*
X184827219Y-113323182D01*
X184827219Y-113323182D02*
X183827219Y-113323182D01*
X184827219Y-112942230D02*
X183827219Y-112942230D01*
X183827219Y-112942230D02*
X183827219Y-112751754D01*
X183827219Y-112751754D02*
X183874838Y-112637468D01*
X183874838Y-112637468D02*
X183970076Y-112561278D01*
X183970076Y-112561278D02*
X184065314Y-112523183D01*
X184065314Y-112523183D02*
X184255790Y-112485087D01*
X184255790Y-112485087D02*
X184398647Y-112485087D01*
X184398647Y-112485087D02*
X184589123Y-112523183D01*
X184589123Y-112523183D02*
X184684361Y-112561278D01*
X184684361Y-112561278D02*
X184779600Y-112637468D01*
X184779600Y-112637468D02*
X184827219Y-112751754D01*
X184827219Y-112751754D02*
X184827219Y-112942230D01*
D10*
X156081444Y-146481109D02*
X156414777Y-146481109D01*
X156557634Y-147004919D02*
X156081444Y-147004919D01*
X156081444Y-147004919D02*
X156081444Y-146004919D01*
X156081444Y-146004919D02*
X156557634Y-146004919D01*
X156986206Y-146338252D02*
X156986206Y-147004919D01*
X156986206Y-146433490D02*
X157033825Y-146385871D01*
X157033825Y-146385871D02*
X157129063Y-146338252D01*
X157129063Y-146338252D02*
X157271920Y-146338252D01*
X157271920Y-146338252D02*
X157367158Y-146385871D01*
X157367158Y-146385871D02*
X157414777Y-146481109D01*
X157414777Y-146481109D02*
X157414777Y-147004919D01*
X158319539Y-146338252D02*
X158319539Y-147147776D01*
X158319539Y-147147776D02*
X158271920Y-147243014D01*
X158271920Y-147243014D02*
X158224301Y-147290633D01*
X158224301Y-147290633D02*
X158129063Y-147338252D01*
X158129063Y-147338252D02*
X157986206Y-147338252D01*
X157986206Y-147338252D02*
X157890968Y-147290633D01*
X158319539Y-146957300D02*
X158224301Y-147004919D01*
X158224301Y-147004919D02*
X158033825Y-147004919D01*
X158033825Y-147004919D02*
X157938587Y-146957300D01*
X157938587Y-146957300D02*
X157890968Y-146909680D01*
X157890968Y-146909680D02*
X157843349Y-146814442D01*
X157843349Y-146814442D02*
X157843349Y-146528728D01*
X157843349Y-146528728D02*
X157890968Y-146433490D01*
X157890968Y-146433490D02*
X157938587Y-146385871D01*
X157938587Y-146385871D02*
X158033825Y-146338252D01*
X158033825Y-146338252D02*
X158224301Y-146338252D01*
X158224301Y-146338252D02*
X158319539Y-146385871D01*
X158795730Y-147004919D02*
X158795730Y-146338252D01*
X158795730Y-146004919D02*
X158748111Y-146052538D01*
X158748111Y-146052538D02*
X158795730Y-146100157D01*
X158795730Y-146100157D02*
X158843349Y-146052538D01*
X158843349Y-146052538D02*
X158795730Y-146004919D01*
X158795730Y-146004919D02*
X158795730Y-146100157D01*
X159271920Y-146338252D02*
X159271920Y-147004919D01*
X159271920Y-146433490D02*
X159319539Y-146385871D01*
X159319539Y-146385871D02*
X159414777Y-146338252D01*
X159414777Y-146338252D02*
X159557634Y-146338252D01*
X159557634Y-146338252D02*
X159652872Y-146385871D01*
X159652872Y-146385871D02*
X159700491Y-146481109D01*
X159700491Y-146481109D02*
X159700491Y-147004919D01*
X160557634Y-146957300D02*
X160462396Y-147004919D01*
X160462396Y-147004919D02*
X160271920Y-147004919D01*
X160271920Y-147004919D02*
X160176682Y-146957300D01*
X160176682Y-146957300D02*
X160129063Y-146862061D01*
X160129063Y-146862061D02*
X160129063Y-146481109D01*
X160129063Y-146481109D02*
X160176682Y-146385871D01*
X160176682Y-146385871D02*
X160271920Y-146338252D01*
X160271920Y-146338252D02*
X160462396Y-146338252D01*
X160462396Y-146338252D02*
X160557634Y-146385871D01*
X160557634Y-146385871D02*
X160605253Y-146481109D01*
X160605253Y-146481109D02*
X160605253Y-146576347D01*
X160605253Y-146576347D02*
X160129063Y-146671585D01*
X161414777Y-146957300D02*
X161319539Y-147004919D01*
X161319539Y-147004919D02*
X161129063Y-147004919D01*
X161129063Y-147004919D02*
X161033825Y-146957300D01*
X161033825Y-146957300D02*
X160986206Y-146862061D01*
X160986206Y-146862061D02*
X160986206Y-146481109D01*
X160986206Y-146481109D02*
X161033825Y-146385871D01*
X161033825Y-146385871D02*
X161129063Y-146338252D01*
X161129063Y-146338252D02*
X161319539Y-146338252D01*
X161319539Y-146338252D02*
X161414777Y-146385871D01*
X161414777Y-146385871D02*
X161462396Y-146481109D01*
X161462396Y-146481109D02*
X161462396Y-146576347D01*
X161462396Y-146576347D02*
X160986206Y-146671585D01*
X161890968Y-147004919D02*
X161890968Y-146338252D01*
X161890968Y-146528728D02*
X161938587Y-146433490D01*
X161938587Y-146433490D02*
X161986206Y-146385871D01*
X161986206Y-146385871D02*
X162081444Y-146338252D01*
X162081444Y-146338252D02*
X162176682Y-146338252D01*
X162510016Y-147004919D02*
X162510016Y-146338252D01*
X162510016Y-146004919D02*
X162462397Y-146052538D01*
X162462397Y-146052538D02*
X162510016Y-146100157D01*
X162510016Y-146100157D02*
X162557635Y-146052538D01*
X162557635Y-146052538D02*
X162510016Y-146004919D01*
X162510016Y-146004919D02*
X162510016Y-146100157D01*
X162986206Y-146338252D02*
X162986206Y-147004919D01*
X162986206Y-146433490D02*
X163033825Y-146385871D01*
X163033825Y-146385871D02*
X163129063Y-146338252D01*
X163129063Y-146338252D02*
X163271920Y-146338252D01*
X163271920Y-146338252D02*
X163367158Y-146385871D01*
X163367158Y-146385871D02*
X163414777Y-146481109D01*
X163414777Y-146481109D02*
X163414777Y-147004919D01*
X164319539Y-146338252D02*
X164319539Y-147147776D01*
X164319539Y-147147776D02*
X164271920Y-147243014D01*
X164271920Y-147243014D02*
X164224301Y-147290633D01*
X164224301Y-147290633D02*
X164129063Y-147338252D01*
X164129063Y-147338252D02*
X163986206Y-147338252D01*
X163986206Y-147338252D02*
X163890968Y-147290633D01*
X164319539Y-146957300D02*
X164224301Y-147004919D01*
X164224301Y-147004919D02*
X164033825Y-147004919D01*
X164033825Y-147004919D02*
X163938587Y-146957300D01*
X163938587Y-146957300D02*
X163890968Y-146909680D01*
X163890968Y-146909680D02*
X163843349Y-146814442D01*
X163843349Y-146814442D02*
X163843349Y-146528728D01*
X163843349Y-146528728D02*
X163890968Y-146433490D01*
X163890968Y-146433490D02*
X163938587Y-146385871D01*
X163938587Y-146385871D02*
X164033825Y-146338252D01*
X164033825Y-146338252D02*
X164224301Y-146338252D01*
X164224301Y-146338252D02*
X164319539Y-146385871D01*
D12*
X146667200Y-117007142D02*
X146714819Y-116864285D01*
X146714819Y-116864285D02*
X146714819Y-116626190D01*
X146714819Y-116626190D02*
X146667200Y-116530952D01*
X146667200Y-116530952D02*
X146619580Y-116483333D01*
X146619580Y-116483333D02*
X146524342Y-116435714D01*
X146524342Y-116435714D02*
X146429104Y-116435714D01*
X146429104Y-116435714D02*
X146333866Y-116483333D01*
X146333866Y-116483333D02*
X146286247Y-116530952D01*
X146286247Y-116530952D02*
X146238628Y-116626190D01*
X146238628Y-116626190D02*
X146191009Y-116816666D01*
X146191009Y-116816666D02*
X146143390Y-116911904D01*
X146143390Y-116911904D02*
X146095771Y-116959523D01*
X146095771Y-116959523D02*
X146000533Y-117007142D01*
X146000533Y-117007142D02*
X145905295Y-117007142D01*
X145905295Y-117007142D02*
X145810057Y-116959523D01*
X145810057Y-116959523D02*
X145762438Y-116911904D01*
X145762438Y-116911904D02*
X145714819Y-116816666D01*
X145714819Y-116816666D02*
X145714819Y-116578571D01*
X145714819Y-116578571D02*
X145762438Y-116435714D01*
X145714819Y-116102380D02*
X146714819Y-115864285D01*
X146714819Y-115864285D02*
X146000533Y-115673809D01*
X146000533Y-115673809D02*
X146714819Y-115483333D01*
X146714819Y-115483333D02*
X145714819Y-115245238D01*
X146714819Y-114864285D02*
X145714819Y-114864285D01*
X145714819Y-114864285D02*
X145714819Y-114626190D01*
X145714819Y-114626190D02*
X145762438Y-114483333D01*
X145762438Y-114483333D02*
X145857676Y-114388095D01*
X145857676Y-114388095D02*
X145952914Y-114340476D01*
X145952914Y-114340476D02*
X146143390Y-114292857D01*
X146143390Y-114292857D02*
X146286247Y-114292857D01*
X146286247Y-114292857D02*
X146476723Y-114340476D01*
X146476723Y-114340476D02*
X146571961Y-114388095D01*
X146571961Y-114388095D02*
X146667200Y-114483333D01*
X146667200Y-114483333D02*
X146714819Y-114626190D01*
X146714819Y-114626190D02*
X146714819Y-114864285D01*
D10*
X146327277Y-146481109D02*
X145993944Y-146481109D01*
X145993944Y-147004919D02*
X145993944Y-146004919D01*
X145993944Y-146004919D02*
X146470134Y-146004919D01*
X147279658Y-147004919D02*
X147279658Y-146481109D01*
X147279658Y-146481109D02*
X147232039Y-146385871D01*
X147232039Y-146385871D02*
X147136801Y-146338252D01*
X147136801Y-146338252D02*
X146946325Y-146338252D01*
X146946325Y-146338252D02*
X146851087Y-146385871D01*
X147279658Y-146957300D02*
X147184420Y-147004919D01*
X147184420Y-147004919D02*
X146946325Y-147004919D01*
X146946325Y-147004919D02*
X146851087Y-146957300D01*
X146851087Y-146957300D02*
X146803468Y-146862061D01*
X146803468Y-146862061D02*
X146803468Y-146766823D01*
X146803468Y-146766823D02*
X146851087Y-146671585D01*
X146851087Y-146671585D02*
X146946325Y-146623966D01*
X146946325Y-146623966D02*
X147184420Y-146623966D01*
X147184420Y-146623966D02*
X147279658Y-146576347D01*
X148184420Y-146338252D02*
X148184420Y-147004919D01*
X147755849Y-146338252D02*
X147755849Y-146862061D01*
X147755849Y-146862061D02*
X147803468Y-146957300D01*
X147803468Y-146957300D02*
X147898706Y-147004919D01*
X147898706Y-147004919D02*
X148041563Y-147004919D01*
X148041563Y-147004919D02*
X148136801Y-146957300D01*
X148136801Y-146957300D02*
X148184420Y-146909680D01*
X148803468Y-147004919D02*
X148708230Y-146957300D01*
X148708230Y-146957300D02*
X148660611Y-146862061D01*
X148660611Y-146862061D02*
X148660611Y-146004919D01*
X149041564Y-146338252D02*
X149422516Y-146338252D01*
X149184421Y-146004919D02*
X149184421Y-146862061D01*
X149184421Y-146862061D02*
X149232040Y-146957300D01*
X149232040Y-146957300D02*
X149327278Y-147004919D01*
X149327278Y-147004919D02*
X149422516Y-147004919D01*
X127400074Y-146176895D02*
X127590550Y-146976895D01*
X127590550Y-146976895D02*
X127742931Y-146405466D01*
X127742931Y-146405466D02*
X127895312Y-146976895D01*
X127895312Y-146976895D02*
X128085789Y-146176895D01*
X128695313Y-146938800D02*
X128619122Y-146976895D01*
X128619122Y-146976895D02*
X128466741Y-146976895D01*
X128466741Y-146976895D02*
X128390551Y-146938800D01*
X128390551Y-146938800D02*
X128352455Y-146862609D01*
X128352455Y-146862609D02*
X128352455Y-146557847D01*
X128352455Y-146557847D02*
X128390551Y-146481657D01*
X128390551Y-146481657D02*
X128466741Y-146443561D01*
X128466741Y-146443561D02*
X128619122Y-146443561D01*
X128619122Y-146443561D02*
X128695313Y-146481657D01*
X128695313Y-146481657D02*
X128733408Y-146557847D01*
X128733408Y-146557847D02*
X128733408Y-146634038D01*
X128733408Y-146634038D02*
X128352455Y-146710228D01*
X129038169Y-146938800D02*
X129114360Y-146976895D01*
X129114360Y-146976895D02*
X129266741Y-146976895D01*
X129266741Y-146976895D02*
X129342931Y-146938800D01*
X129342931Y-146938800D02*
X129381027Y-146862609D01*
X129381027Y-146862609D02*
X129381027Y-146824514D01*
X129381027Y-146824514D02*
X129342931Y-146748323D01*
X129342931Y-146748323D02*
X129266741Y-146710228D01*
X129266741Y-146710228D02*
X129152455Y-146710228D01*
X129152455Y-146710228D02*
X129076265Y-146672133D01*
X129076265Y-146672133D02*
X129038169Y-146595942D01*
X129038169Y-146595942D02*
X129038169Y-146557847D01*
X129038169Y-146557847D02*
X129076265Y-146481657D01*
X129076265Y-146481657D02*
X129152455Y-146443561D01*
X129152455Y-146443561D02*
X129266741Y-146443561D01*
X129266741Y-146443561D02*
X129342931Y-146481657D01*
X129609598Y-146443561D02*
X129914360Y-146443561D01*
X129723884Y-146176895D02*
X129723884Y-146862609D01*
X129723884Y-146862609D02*
X129761979Y-146938800D01*
X129761979Y-146938800D02*
X129838169Y-146976895D01*
X129838169Y-146976895D02*
X129914360Y-146976895D01*
X130295312Y-146976895D02*
X130219122Y-146938800D01*
X130219122Y-146938800D02*
X130181027Y-146900704D01*
X130181027Y-146900704D02*
X130142931Y-146824514D01*
X130142931Y-146824514D02*
X130142931Y-146595942D01*
X130142931Y-146595942D02*
X130181027Y-146519752D01*
X130181027Y-146519752D02*
X130219122Y-146481657D01*
X130219122Y-146481657D02*
X130295312Y-146443561D01*
X130295312Y-146443561D02*
X130409598Y-146443561D01*
X130409598Y-146443561D02*
X130485789Y-146481657D01*
X130485789Y-146481657D02*
X130523884Y-146519752D01*
X130523884Y-146519752D02*
X130561979Y-146595942D01*
X130561979Y-146595942D02*
X130561979Y-146824514D01*
X130561979Y-146824514D02*
X130523884Y-146900704D01*
X130523884Y-146900704D02*
X130485789Y-146938800D01*
X130485789Y-146938800D02*
X130409598Y-146976895D01*
X130409598Y-146976895D02*
X130295312Y-146976895D01*
X130904837Y-146443561D02*
X130904837Y-146976895D01*
X130904837Y-146519752D02*
X130942932Y-146481657D01*
X130942932Y-146481657D02*
X131019122Y-146443561D01*
X131019122Y-146443561D02*
X131133408Y-146443561D01*
X131133408Y-146443561D02*
X131209599Y-146481657D01*
X131209599Y-146481657D02*
X131247694Y-146557847D01*
X131247694Y-146557847D02*
X131247694Y-146976895D01*
X132238171Y-146976895D02*
X132238171Y-146176895D01*
X132238171Y-146176895D02*
X132695314Y-146976895D01*
X132695314Y-146976895D02*
X132695314Y-146176895D01*
X133381028Y-146938800D02*
X133304837Y-146976895D01*
X133304837Y-146976895D02*
X133152456Y-146976895D01*
X133152456Y-146976895D02*
X133076266Y-146938800D01*
X133076266Y-146938800D02*
X133038170Y-146862609D01*
X133038170Y-146862609D02*
X133038170Y-146557847D01*
X133038170Y-146557847D02*
X133076266Y-146481657D01*
X133076266Y-146481657D02*
X133152456Y-146443561D01*
X133152456Y-146443561D02*
X133304837Y-146443561D01*
X133304837Y-146443561D02*
X133381028Y-146481657D01*
X133381028Y-146481657D02*
X133419123Y-146557847D01*
X133419123Y-146557847D02*
X133419123Y-146634038D01*
X133419123Y-146634038D02*
X133038170Y-146710228D01*
X133761980Y-146976895D02*
X133761980Y-146176895D01*
X133761980Y-146481657D02*
X133838170Y-146443561D01*
X133838170Y-146443561D02*
X133990551Y-146443561D01*
X133990551Y-146443561D02*
X134066742Y-146481657D01*
X134066742Y-146481657D02*
X134104837Y-146519752D01*
X134104837Y-146519752D02*
X134142932Y-146595942D01*
X134142932Y-146595942D02*
X134142932Y-146824514D01*
X134142932Y-146824514D02*
X134104837Y-146900704D01*
X134104837Y-146900704D02*
X134066742Y-146938800D01*
X134066742Y-146938800D02*
X133990551Y-146976895D01*
X133990551Y-146976895D02*
X133838170Y-146976895D01*
X133838170Y-146976895D02*
X133761980Y-146938800D01*
X134790552Y-146938800D02*
X134714361Y-146976895D01*
X134714361Y-146976895D02*
X134561980Y-146976895D01*
X134561980Y-146976895D02*
X134485790Y-146938800D01*
X134485790Y-146938800D02*
X134447694Y-146862609D01*
X134447694Y-146862609D02*
X134447694Y-146557847D01*
X134447694Y-146557847D02*
X134485790Y-146481657D01*
X134485790Y-146481657D02*
X134561980Y-146443561D01*
X134561980Y-146443561D02*
X134714361Y-146443561D01*
X134714361Y-146443561D02*
X134790552Y-146481657D01*
X134790552Y-146481657D02*
X134828647Y-146557847D01*
X134828647Y-146557847D02*
X134828647Y-146634038D01*
X134828647Y-146634038D02*
X134447694Y-146710228D01*
X135171504Y-146976895D02*
X135171504Y-146176895D01*
X135247694Y-146672133D02*
X135476266Y-146976895D01*
X135476266Y-146443561D02*
X135171504Y-146748323D01*
X136123885Y-146938800D02*
X136047694Y-146976895D01*
X136047694Y-146976895D02*
X135895313Y-146976895D01*
X135895313Y-146976895D02*
X135819123Y-146938800D01*
X135819123Y-146938800D02*
X135781027Y-146862609D01*
X135781027Y-146862609D02*
X135781027Y-146557847D01*
X135781027Y-146557847D02*
X135819123Y-146481657D01*
X135819123Y-146481657D02*
X135895313Y-146443561D01*
X135895313Y-146443561D02*
X136047694Y-146443561D01*
X136047694Y-146443561D02*
X136123885Y-146481657D01*
X136123885Y-146481657D02*
X136161980Y-146557847D01*
X136161980Y-146557847D02*
X136161980Y-146634038D01*
X136161980Y-146634038D02*
X135781027Y-146710228D01*
X136504837Y-146976895D02*
X136504837Y-146443561D01*
X136504837Y-146595942D02*
X136542932Y-146519752D01*
X136542932Y-146519752D02*
X136581027Y-146481657D01*
X136581027Y-146481657D02*
X136657218Y-146443561D01*
X136657218Y-146443561D02*
X136733408Y-146443561D01*
X138028646Y-146976895D02*
X137571503Y-146976895D01*
X137800075Y-146976895D02*
X137800075Y-146176895D01*
X137800075Y-146176895D02*
X137723884Y-146291180D01*
X137723884Y-146291180D02*
X137647694Y-146367371D01*
X137647694Y-146367371D02*
X137571503Y-146405466D01*
X138295313Y-146176895D02*
X138790551Y-146176895D01*
X138790551Y-146176895D02*
X138523885Y-146481657D01*
X138523885Y-146481657D02*
X138638170Y-146481657D01*
X138638170Y-146481657D02*
X138714361Y-146519752D01*
X138714361Y-146519752D02*
X138752456Y-146557847D01*
X138752456Y-146557847D02*
X138790551Y-146634038D01*
X138790551Y-146634038D02*
X138790551Y-146824514D01*
X138790551Y-146824514D02*
X138752456Y-146900704D01*
X138752456Y-146900704D02*
X138714361Y-146938800D01*
X138714361Y-146938800D02*
X138638170Y-146976895D01*
X138638170Y-146976895D02*
X138409599Y-146976895D01*
X138409599Y-146976895D02*
X138333408Y-146938800D01*
X138333408Y-146938800D02*
X138295313Y-146900704D01*
X139400075Y-146557847D02*
X139133409Y-146557847D01*
X139133409Y-146976895D02*
X139133409Y-146176895D01*
X139133409Y-146176895D02*
X139514361Y-146176895D01*
X139819123Y-146557847D02*
X140085789Y-146557847D01*
X140200075Y-146976895D02*
X139819123Y-146976895D01*
X139819123Y-146976895D02*
X139819123Y-146176895D01*
X139819123Y-146176895D02*
X140200075Y-146176895D01*
X140809599Y-146557847D02*
X140923885Y-146595942D01*
X140923885Y-146595942D02*
X140961980Y-146634038D01*
X140961980Y-146634038D02*
X141000076Y-146710228D01*
X141000076Y-146710228D02*
X141000076Y-146824514D01*
X141000076Y-146824514D02*
X140961980Y-146900704D01*
X140961980Y-146900704D02*
X140923885Y-146938800D01*
X140923885Y-146938800D02*
X140847695Y-146976895D01*
X140847695Y-146976895D02*
X140542933Y-146976895D01*
X140542933Y-146976895D02*
X140542933Y-146176895D01*
X140542933Y-146176895D02*
X140809599Y-146176895D01*
X140809599Y-146176895D02*
X140885790Y-146214990D01*
X140885790Y-146214990D02*
X140923885Y-146253085D01*
X140923885Y-146253085D02*
X140961980Y-146329276D01*
X140961980Y-146329276D02*
X140961980Y-146405466D01*
X140961980Y-146405466D02*
X140923885Y-146481657D01*
X140923885Y-146481657D02*
X140885790Y-146519752D01*
X140885790Y-146519752D02*
X140809599Y-146557847D01*
X140809599Y-146557847D02*
X140542933Y-146557847D01*
X141304837Y-146253085D02*
X141342933Y-146214990D01*
X141342933Y-146214990D02*
X141419123Y-146176895D01*
X141419123Y-146176895D02*
X141609599Y-146176895D01*
X141609599Y-146176895D02*
X141685790Y-146214990D01*
X141685790Y-146214990D02*
X141723885Y-146253085D01*
X141723885Y-146253085D02*
X141761980Y-146329276D01*
X141761980Y-146329276D02*
X141761980Y-146405466D01*
X141761980Y-146405466D02*
X141723885Y-146519752D01*
X141723885Y-146519752D02*
X141266742Y-146976895D01*
X141266742Y-146976895D02*
X141761980Y-146976895D01*
X142447695Y-146176895D02*
X142295314Y-146176895D01*
X142295314Y-146176895D02*
X142219123Y-146214990D01*
X142219123Y-146214990D02*
X142181028Y-146253085D01*
X142181028Y-146253085D02*
X142104838Y-146367371D01*
X142104838Y-146367371D02*
X142066742Y-146519752D01*
X142066742Y-146519752D02*
X142066742Y-146824514D01*
X142066742Y-146824514D02*
X142104838Y-146900704D01*
X142104838Y-146900704D02*
X142142933Y-146938800D01*
X142142933Y-146938800D02*
X142219123Y-146976895D01*
X142219123Y-146976895D02*
X142371504Y-146976895D01*
X142371504Y-146976895D02*
X142447695Y-146938800D01*
X142447695Y-146938800D02*
X142485790Y-146900704D01*
X142485790Y-146900704D02*
X142523885Y-146824514D01*
X142523885Y-146824514D02*
X142523885Y-146634038D01*
X142523885Y-146634038D02*
X142485790Y-146557847D01*
X142485790Y-146557847D02*
X142447695Y-146519752D01*
X142447695Y-146519752D02*
X142371504Y-146481657D01*
X142371504Y-146481657D02*
X142219123Y-146481657D01*
X142219123Y-146481657D02*
X142142933Y-146519752D01*
X142142933Y-146519752D02*
X142104838Y-146557847D01*
X142104838Y-146557847D02*
X142066742Y-146634038D01*
D13*
X127531653Y-145217971D02*
X127460225Y-145289400D01*
X127460225Y-145289400D02*
X127245939Y-145360828D01*
X127245939Y-145360828D02*
X127103082Y-145360828D01*
X127103082Y-145360828D02*
X126888796Y-145289400D01*
X126888796Y-145289400D02*
X126745939Y-145146542D01*
X126745939Y-145146542D02*
X126674510Y-145003685D01*
X126674510Y-145003685D02*
X126603082Y-144717971D01*
X126603082Y-144717971D02*
X126603082Y-144503685D01*
X126603082Y-144503685D02*
X126674510Y-144217971D01*
X126674510Y-144217971D02*
X126745939Y-144075114D01*
X126745939Y-144075114D02*
X126888796Y-143932257D01*
X126888796Y-143932257D02*
X127103082Y-143860828D01*
X127103082Y-143860828D02*
X127245939Y-143860828D01*
X127245939Y-143860828D02*
X127460225Y-143932257D01*
X127460225Y-143932257D02*
X127531653Y-144003685D01*
X128388796Y-145360828D02*
X128245939Y-145289400D01*
X128245939Y-145289400D02*
X128174510Y-145217971D01*
X128174510Y-145217971D02*
X128103082Y-145075114D01*
X128103082Y-145075114D02*
X128103082Y-144646542D01*
X128103082Y-144646542D02*
X128174510Y-144503685D01*
X128174510Y-144503685D02*
X128245939Y-144432257D01*
X128245939Y-144432257D02*
X128388796Y-144360828D01*
X128388796Y-144360828D02*
X128603082Y-144360828D01*
X128603082Y-144360828D02*
X128745939Y-144432257D01*
X128745939Y-144432257D02*
X128817368Y-144503685D01*
X128817368Y-144503685D02*
X128888796Y-144646542D01*
X128888796Y-144646542D02*
X128888796Y-145075114D01*
X128888796Y-145075114D02*
X128817368Y-145217971D01*
X128817368Y-145217971D02*
X128745939Y-145289400D01*
X128745939Y-145289400D02*
X128603082Y-145360828D01*
X128603082Y-145360828D02*
X128388796Y-145360828D01*
X129531653Y-144360828D02*
X129531653Y-145360828D01*
X129531653Y-144503685D02*
X129603082Y-144432257D01*
X129603082Y-144432257D02*
X129745939Y-144360828D01*
X129745939Y-144360828D02*
X129960225Y-144360828D01*
X129960225Y-144360828D02*
X130103082Y-144432257D01*
X130103082Y-144432257D02*
X130174511Y-144575114D01*
X130174511Y-144575114D02*
X130174511Y-145360828D01*
X131531654Y-144360828D02*
X131531654Y-145575114D01*
X131531654Y-145575114D02*
X131460225Y-145717971D01*
X131460225Y-145717971D02*
X131388796Y-145789400D01*
X131388796Y-145789400D02*
X131245939Y-145860828D01*
X131245939Y-145860828D02*
X131031654Y-145860828D01*
X131031654Y-145860828D02*
X130888796Y-145789400D01*
X131531654Y-145289400D02*
X131388796Y-145360828D01*
X131388796Y-145360828D02*
X131103082Y-145360828D01*
X131103082Y-145360828D02*
X130960225Y-145289400D01*
X130960225Y-145289400D02*
X130888796Y-145217971D01*
X130888796Y-145217971D02*
X130817368Y-145075114D01*
X130817368Y-145075114D02*
X130817368Y-144646542D01*
X130817368Y-144646542D02*
X130888796Y-144503685D01*
X130888796Y-144503685D02*
X130960225Y-144432257D01*
X130960225Y-144432257D02*
X131103082Y-144360828D01*
X131103082Y-144360828D02*
X131388796Y-144360828D01*
X131388796Y-144360828D02*
X131531654Y-144432257D01*
X132460225Y-145360828D02*
X132317368Y-145289400D01*
X132317368Y-145289400D02*
X132245939Y-145146542D01*
X132245939Y-145146542D02*
X132245939Y-143860828D01*
X133245939Y-145360828D02*
X133103082Y-145289400D01*
X133103082Y-145289400D02*
X133031653Y-145217971D01*
X133031653Y-145217971D02*
X132960225Y-145075114D01*
X132960225Y-145075114D02*
X132960225Y-144646542D01*
X132960225Y-144646542D02*
X133031653Y-144503685D01*
X133031653Y-144503685D02*
X133103082Y-144432257D01*
X133103082Y-144432257D02*
X133245939Y-144360828D01*
X133245939Y-144360828D02*
X133460225Y-144360828D01*
X133460225Y-144360828D02*
X133603082Y-144432257D01*
X133603082Y-144432257D02*
X133674511Y-144503685D01*
X133674511Y-144503685D02*
X133745939Y-144646542D01*
X133745939Y-144646542D02*
X133745939Y-145075114D01*
X133745939Y-145075114D02*
X133674511Y-145217971D01*
X133674511Y-145217971D02*
X133603082Y-145289400D01*
X133603082Y-145289400D02*
X133460225Y-145360828D01*
X133460225Y-145360828D02*
X133245939Y-145360828D01*
X134388796Y-145360828D02*
X134388796Y-144360828D01*
X134388796Y-144503685D02*
X134460225Y-144432257D01*
X134460225Y-144432257D02*
X134603082Y-144360828D01*
X134603082Y-144360828D02*
X134817368Y-144360828D01*
X134817368Y-144360828D02*
X134960225Y-144432257D01*
X134960225Y-144432257D02*
X135031654Y-144575114D01*
X135031654Y-144575114D02*
X135031654Y-145360828D01*
X135031654Y-144575114D02*
X135103082Y-144432257D01*
X135103082Y-144432257D02*
X135245939Y-144360828D01*
X135245939Y-144360828D02*
X135460225Y-144360828D01*
X135460225Y-144360828D02*
X135603082Y-144432257D01*
X135603082Y-144432257D02*
X135674511Y-144575114D01*
X135674511Y-144575114D02*
X135674511Y-145360828D01*
X136960225Y-145289400D02*
X136817368Y-145360828D01*
X136817368Y-145360828D02*
X136531654Y-145360828D01*
X136531654Y-145360828D02*
X136388796Y-145289400D01*
X136388796Y-145289400D02*
X136317368Y-145146542D01*
X136317368Y-145146542D02*
X136317368Y-144575114D01*
X136317368Y-144575114D02*
X136388796Y-144432257D01*
X136388796Y-144432257D02*
X136531654Y-144360828D01*
X136531654Y-144360828D02*
X136817368Y-144360828D01*
X136817368Y-144360828D02*
X136960225Y-144432257D01*
X136960225Y-144432257D02*
X137031654Y-144575114D01*
X137031654Y-144575114D02*
X137031654Y-144717971D01*
X137031654Y-144717971D02*
X136317368Y-144860828D01*
X137674510Y-145360828D02*
X137674510Y-144360828D01*
X137674510Y-144646542D02*
X137745939Y-144503685D01*
X137745939Y-144503685D02*
X137817368Y-144432257D01*
X137817368Y-144432257D02*
X137960225Y-144360828D01*
X137960225Y-144360828D02*
X138103082Y-144360828D01*
X139245939Y-145360828D02*
X139245939Y-144575114D01*
X139245939Y-144575114D02*
X139174510Y-144432257D01*
X139174510Y-144432257D02*
X139031653Y-144360828D01*
X139031653Y-144360828D02*
X138745939Y-144360828D01*
X138745939Y-144360828D02*
X138603081Y-144432257D01*
X139245939Y-145289400D02*
X139103081Y-145360828D01*
X139103081Y-145360828D02*
X138745939Y-145360828D01*
X138745939Y-145360828D02*
X138603081Y-145289400D01*
X138603081Y-145289400D02*
X138531653Y-145146542D01*
X138531653Y-145146542D02*
X138531653Y-145003685D01*
X138531653Y-145003685D02*
X138603081Y-144860828D01*
X138603081Y-144860828D02*
X138745939Y-144789400D01*
X138745939Y-144789400D02*
X139103081Y-144789400D01*
X139103081Y-144789400D02*
X139245939Y-144717971D01*
X139745939Y-144360828D02*
X140317367Y-144360828D01*
X139960224Y-143860828D02*
X139960224Y-145146542D01*
X139960224Y-145146542D02*
X140031653Y-145289400D01*
X140031653Y-145289400D02*
X140174510Y-145360828D01*
X140174510Y-145360828D02*
X140317367Y-145360828D01*
X141031653Y-145360828D02*
X140888796Y-145289400D01*
X140888796Y-145289400D02*
X140817367Y-145217971D01*
X140817367Y-145217971D02*
X140745939Y-145075114D01*
X140745939Y-145075114D02*
X140745939Y-144646542D01*
X140745939Y-144646542D02*
X140817367Y-144503685D01*
X140817367Y-144503685D02*
X140888796Y-144432257D01*
X140888796Y-144432257D02*
X141031653Y-144360828D01*
X141031653Y-144360828D02*
X141245939Y-144360828D01*
X141245939Y-144360828D02*
X141388796Y-144432257D01*
X141388796Y-144432257D02*
X141460225Y-144503685D01*
X141460225Y-144503685D02*
X141531653Y-144646542D01*
X141531653Y-144646542D02*
X141531653Y-145075114D01*
X141531653Y-145075114D02*
X141460225Y-145217971D01*
X141460225Y-145217971D02*
X141388796Y-145289400D01*
X141388796Y-145289400D02*
X141245939Y-145360828D01*
X141245939Y-145360828D02*
X141031653Y-145360828D01*
X142174510Y-145360828D02*
X142174510Y-144360828D01*
X142174510Y-144646542D02*
X142245939Y-144503685D01*
X142245939Y-144503685D02*
X142317368Y-144432257D01*
X142317368Y-144432257D02*
X142460225Y-144360828D01*
X142460225Y-144360828D02*
X142603082Y-144360828D01*
D11*
X141847219Y-124830802D02*
X141371028Y-125097469D01*
X141847219Y-125287945D02*
X140847219Y-125287945D01*
X140847219Y-125287945D02*
X140847219Y-124983183D01*
X140847219Y-124983183D02*
X140894838Y-124906993D01*
X140894838Y-124906993D02*
X140942457Y-124868898D01*
X140942457Y-124868898D02*
X141037695Y-124830802D01*
X141037695Y-124830802D02*
X141180552Y-124830802D01*
X141180552Y-124830802D02*
X141275790Y-124868898D01*
X141275790Y-124868898D02*
X141323409Y-124906993D01*
X141323409Y-124906993D02*
X141371028Y-124983183D01*
X141371028Y-124983183D02*
X141371028Y-125287945D01*
X141799600Y-124526041D02*
X141847219Y-124411755D01*
X141847219Y-124411755D02*
X141847219Y-124221279D01*
X141847219Y-124221279D02*
X141799600Y-124145088D01*
X141799600Y-124145088D02*
X141751980Y-124106993D01*
X141751980Y-124106993D02*
X141656742Y-124068898D01*
X141656742Y-124068898D02*
X141561504Y-124068898D01*
X141561504Y-124068898D02*
X141466266Y-124106993D01*
X141466266Y-124106993D02*
X141418647Y-124145088D01*
X141418647Y-124145088D02*
X141371028Y-124221279D01*
X141371028Y-124221279D02*
X141323409Y-124373660D01*
X141323409Y-124373660D02*
X141275790Y-124449850D01*
X141275790Y-124449850D02*
X141228171Y-124487945D01*
X141228171Y-124487945D02*
X141132933Y-124526041D01*
X141132933Y-124526041D02*
X141037695Y-124526041D01*
X141037695Y-124526041D02*
X140942457Y-124487945D01*
X140942457Y-124487945D02*
X140894838Y-124449850D01*
X140894838Y-124449850D02*
X140847219Y-124373660D01*
X140847219Y-124373660D02*
X140847219Y-124183183D01*
X140847219Y-124183183D02*
X140894838Y-124068898D01*
X140847219Y-123840326D02*
X140847219Y-123383183D01*
X141847219Y-123611755D02*
X140847219Y-123611755D01*
X141799600Y-122545088D02*
X141847219Y-122430802D01*
X141847219Y-122430802D02*
X141847219Y-122240326D01*
X141847219Y-122240326D02*
X141799600Y-122164135D01*
X141799600Y-122164135D02*
X141751980Y-122126040D01*
X141751980Y-122126040D02*
X141656742Y-122087945D01*
X141656742Y-122087945D02*
X141561504Y-122087945D01*
X141561504Y-122087945D02*
X141466266Y-122126040D01*
X141466266Y-122126040D02*
X141418647Y-122164135D01*
X141418647Y-122164135D02*
X141371028Y-122240326D01*
X141371028Y-122240326D02*
X141323409Y-122392707D01*
X141323409Y-122392707D02*
X141275790Y-122468897D01*
X141275790Y-122468897D02*
X141228171Y-122506992D01*
X141228171Y-122506992D02*
X141132933Y-122545088D01*
X141132933Y-122545088D02*
X141037695Y-122545088D01*
X141037695Y-122545088D02*
X140942457Y-122506992D01*
X140942457Y-122506992D02*
X140894838Y-122468897D01*
X140894838Y-122468897D02*
X140847219Y-122392707D01*
X140847219Y-122392707D02*
X140847219Y-122202230D01*
X140847219Y-122202230D02*
X140894838Y-122087945D01*
X141847219Y-121745087D02*
X140847219Y-121745087D01*
X140847219Y-121211754D02*
X140847219Y-121059373D01*
X140847219Y-121059373D02*
X140894838Y-120983183D01*
X140894838Y-120983183D02*
X140990076Y-120906992D01*
X140990076Y-120906992D02*
X141180552Y-120868897D01*
X141180552Y-120868897D02*
X141513885Y-120868897D01*
X141513885Y-120868897D02*
X141704361Y-120906992D01*
X141704361Y-120906992D02*
X141799600Y-120983183D01*
X141799600Y-120983183D02*
X141847219Y-121059373D01*
X141847219Y-121059373D02*
X141847219Y-121211754D01*
X141847219Y-121211754D02*
X141799600Y-121287945D01*
X141799600Y-121287945D02*
X141704361Y-121364135D01*
X141704361Y-121364135D02*
X141513885Y-121402231D01*
X141513885Y-121402231D02*
X141180552Y-121402231D01*
X141180552Y-121402231D02*
X140990076Y-121364135D01*
X140990076Y-121364135D02*
X140894838Y-121287945D01*
X140894838Y-121287945D02*
X140847219Y-121211754D01*
X141751980Y-119459373D02*
X141799600Y-119497469D01*
X141799600Y-119497469D02*
X141847219Y-119611754D01*
X141847219Y-119611754D02*
X141847219Y-119687945D01*
X141847219Y-119687945D02*
X141799600Y-119802231D01*
X141799600Y-119802231D02*
X141704361Y-119878421D01*
X141704361Y-119878421D02*
X141609123Y-119916516D01*
X141609123Y-119916516D02*
X141418647Y-119954612D01*
X141418647Y-119954612D02*
X141275790Y-119954612D01*
X141275790Y-119954612D02*
X141085314Y-119916516D01*
X141085314Y-119916516D02*
X140990076Y-119878421D01*
X140990076Y-119878421D02*
X140894838Y-119802231D01*
X140894838Y-119802231D02*
X140847219Y-119687945D01*
X140847219Y-119687945D02*
X140847219Y-119611754D01*
X140847219Y-119611754D02*
X140894838Y-119497469D01*
X140894838Y-119497469D02*
X140942457Y-119459373D01*
X141847219Y-118735564D02*
X141847219Y-119116516D01*
X141847219Y-119116516D02*
X140847219Y-119116516D01*
X141847219Y-118468897D02*
X140847219Y-118468897D01*
X141847219Y-118011754D02*
X141275790Y-118354612D01*
X140847219Y-118011754D02*
X141418647Y-118468897D01*
X141847219Y-116602230D02*
X141371028Y-116868897D01*
X141847219Y-117059373D02*
X140847219Y-117059373D01*
X140847219Y-117059373D02*
X140847219Y-116754611D01*
X140847219Y-116754611D02*
X140894838Y-116678421D01*
X140894838Y-116678421D02*
X140942457Y-116640326D01*
X140942457Y-116640326D02*
X141037695Y-116602230D01*
X141037695Y-116602230D02*
X141180552Y-116602230D01*
X141180552Y-116602230D02*
X141275790Y-116640326D01*
X141275790Y-116640326D02*
X141323409Y-116678421D01*
X141323409Y-116678421D02*
X141371028Y-116754611D01*
X141371028Y-116754611D02*
X141371028Y-117059373D01*
X141323409Y-116259373D02*
X141323409Y-115992707D01*
X141847219Y-115878421D02*
X141847219Y-116259373D01*
X141847219Y-116259373D02*
X140847219Y-116259373D01*
X140847219Y-116259373D02*
X140847219Y-115878421D01*
X141323409Y-115268897D02*
X141323409Y-115535563D01*
X141847219Y-115535563D02*
X140847219Y-115535563D01*
X140847219Y-115535563D02*
X140847219Y-115154611D01*
X140894838Y-113821278D02*
X140847219Y-113897468D01*
X140847219Y-113897468D02*
X140847219Y-114011754D01*
X140847219Y-114011754D02*
X140894838Y-114126040D01*
X140894838Y-114126040D02*
X140990076Y-114202230D01*
X140990076Y-114202230D02*
X141085314Y-114240325D01*
X141085314Y-114240325D02*
X141275790Y-114278421D01*
X141275790Y-114278421D02*
X141418647Y-114278421D01*
X141418647Y-114278421D02*
X141609123Y-114240325D01*
X141609123Y-114240325D02*
X141704361Y-114202230D01*
X141704361Y-114202230D02*
X141799600Y-114126040D01*
X141799600Y-114126040D02*
X141847219Y-114011754D01*
X141847219Y-114011754D02*
X141847219Y-113935563D01*
X141847219Y-113935563D02*
X141799600Y-113821278D01*
X141799600Y-113821278D02*
X141751980Y-113783182D01*
X141751980Y-113783182D02*
X141418647Y-113783182D01*
X141418647Y-113783182D02*
X141418647Y-113935563D01*
X141847219Y-113440325D02*
X140847219Y-113440325D01*
X140847219Y-113440325D02*
X141847219Y-112983182D01*
X141847219Y-112983182D02*
X140847219Y-112983182D01*
X141847219Y-112602230D02*
X140847219Y-112602230D01*
X140847219Y-112602230D02*
X140847219Y-112411754D01*
X140847219Y-112411754D02*
X140894838Y-112297468D01*
X140894838Y-112297468D02*
X140990076Y-112221278D01*
X140990076Y-112221278D02*
X141085314Y-112183183D01*
X141085314Y-112183183D02*
X141275790Y-112145087D01*
X141275790Y-112145087D02*
X141418647Y-112145087D01*
X141418647Y-112145087D02*
X141609123Y-112183183D01*
X141609123Y-112183183D02*
X141704361Y-112221278D01*
X141704361Y-112221278D02*
X141799600Y-112297468D01*
X141799600Y-112297468D02*
X141847219Y-112411754D01*
X141847219Y-112411754D02*
X141847219Y-112602230D01*
D12*
X161448095Y-104752319D02*
X161448095Y-105561842D01*
X161448095Y-105561842D02*
X161495714Y-105657080D01*
X161495714Y-105657080D02*
X161543333Y-105704700D01*
X161543333Y-105704700D02*
X161638571Y-105752319D01*
X161638571Y-105752319D02*
X161829047Y-105752319D01*
X161829047Y-105752319D02*
X161924285Y-105704700D01*
X161924285Y-105704700D02*
X161971904Y-105657080D01*
X161971904Y-105657080D02*
X162019523Y-105561842D01*
X162019523Y-105561842D02*
X162019523Y-104752319D01*
X162400476Y-104752319D02*
X163067142Y-104752319D01*
X163067142Y-104752319D02*
X162638571Y-105752319D01*
X158710000Y-102102919D02*
X158710000Y-102341014D01*
X158471905Y-102245776D02*
X158710000Y-102341014D01*
X158710000Y-102341014D02*
X158948095Y-102245776D01*
X158567143Y-102531490D02*
X158710000Y-102341014D01*
X158710000Y-102341014D02*
X158852857Y-102531490D01*
D14*
X144614318Y-108452262D02*
X143344318Y-108452262D01*
X144493365Y-107121785D02*
X144553842Y-107182261D01*
X144553842Y-107182261D02*
X144614318Y-107363690D01*
X144614318Y-107363690D02*
X144614318Y-107484642D01*
X144614318Y-107484642D02*
X144553842Y-107666071D01*
X144553842Y-107666071D02*
X144432889Y-107787023D01*
X144432889Y-107787023D02*
X144311937Y-107847500D01*
X144311937Y-107847500D02*
X144070032Y-107907976D01*
X144070032Y-107907976D02*
X143888603Y-107907976D01*
X143888603Y-107907976D02*
X143646699Y-107847500D01*
X143646699Y-107847500D02*
X143525746Y-107787023D01*
X143525746Y-107787023D02*
X143404794Y-107666071D01*
X143404794Y-107666071D02*
X143344318Y-107484642D01*
X143344318Y-107484642D02*
X143344318Y-107363690D01*
X143344318Y-107363690D02*
X143404794Y-107182261D01*
X143404794Y-107182261D02*
X143465270Y-107121785D01*
X144614318Y-106517023D02*
X144614318Y-106275119D01*
X144614318Y-106275119D02*
X144553842Y-106154166D01*
X144553842Y-106154166D02*
X144493365Y-106093690D01*
X144493365Y-106093690D02*
X144311937Y-105972738D01*
X144311937Y-105972738D02*
X144070032Y-105912261D01*
X144070032Y-105912261D02*
X143586222Y-105912261D01*
X143586222Y-105912261D02*
X143465270Y-105972738D01*
X143465270Y-105972738D02*
X143404794Y-106033214D01*
X143404794Y-106033214D02*
X143344318Y-106154166D01*
X143344318Y-106154166D02*
X143344318Y-106396071D01*
X143344318Y-106396071D02*
X143404794Y-106517023D01*
X143404794Y-106517023D02*
X143465270Y-106577500D01*
X143465270Y-106577500D02*
X143586222Y-106637976D01*
X143586222Y-106637976D02*
X143888603Y-106637976D01*
X143888603Y-106637976D02*
X144009556Y-106577500D01*
X144009556Y-106577500D02*
X144070032Y-106517023D01*
X144070032Y-106517023D02*
X144130508Y-106396071D01*
X144130508Y-106396071D02*
X144130508Y-106154166D01*
X144130508Y-106154166D02*
X144070032Y-106033214D01*
X144070032Y-106033214D02*
X144009556Y-105972738D01*
X144009556Y-105972738D02*
X143888603Y-105912261D01*
D12*
X188274848Y-81161904D02*
X189084371Y-81161904D01*
X189084371Y-81161904D02*
X189179609Y-81114285D01*
X189179609Y-81114285D02*
X189227229Y-81066666D01*
X189227229Y-81066666D02*
X189274848Y-80971428D01*
X189274848Y-80971428D02*
X189274848Y-80780952D01*
X189274848Y-80780952D02*
X189227229Y-80685714D01*
X189227229Y-80685714D02*
X189179609Y-80638095D01*
X189179609Y-80638095D02*
X189084371Y-80590476D01*
X189084371Y-80590476D02*
X188274848Y-80590476D01*
X188370086Y-80161904D02*
X188322467Y-80114285D01*
X188322467Y-80114285D02*
X188274848Y-80019047D01*
X188274848Y-80019047D02*
X188274848Y-79780952D01*
X188274848Y-79780952D02*
X188322467Y-79685714D01*
X188322467Y-79685714D02*
X188370086Y-79638095D01*
X188370086Y-79638095D02*
X188465324Y-79590476D01*
X188465324Y-79590476D02*
X188560562Y-79590476D01*
X188560562Y-79590476D02*
X188703419Y-79638095D01*
X188703419Y-79638095D02*
X189274848Y-80209523D01*
X189274848Y-80209523D02*
X189274848Y-79590476D01*
X144086188Y-137839580D02*
X144038569Y-137887200D01*
X144038569Y-137887200D02*
X143895712Y-137934819D01*
X143895712Y-137934819D02*
X143800474Y-137934819D01*
X143800474Y-137934819D02*
X143657617Y-137887200D01*
X143657617Y-137887200D02*
X143562379Y-137791961D01*
X143562379Y-137791961D02*
X143514760Y-137696723D01*
X143514760Y-137696723D02*
X143467141Y-137506247D01*
X143467141Y-137506247D02*
X143467141Y-137363390D01*
X143467141Y-137363390D02*
X143514760Y-137172914D01*
X143514760Y-137172914D02*
X143562379Y-137077676D01*
X143562379Y-137077676D02*
X143657617Y-136982438D01*
X143657617Y-136982438D02*
X143800474Y-136934819D01*
X143800474Y-136934819D02*
X143895712Y-136934819D01*
X143895712Y-136934819D02*
X144038569Y-136982438D01*
X144038569Y-136982438D02*
X144086188Y-137030057D01*
X144657617Y-137934819D02*
X144562379Y-137887200D01*
X144562379Y-137887200D02*
X144514760Y-137839580D01*
X144514760Y-137839580D02*
X144467141Y-137744342D01*
X144467141Y-137744342D02*
X144467141Y-137458628D01*
X144467141Y-137458628D02*
X144514760Y-137363390D01*
X144514760Y-137363390D02*
X144562379Y-137315771D01*
X144562379Y-137315771D02*
X144657617Y-137268152D01*
X144657617Y-137268152D02*
X144800474Y-137268152D01*
X144800474Y-137268152D02*
X144895712Y-137315771D01*
X144895712Y-137315771D02*
X144943331Y-137363390D01*
X144943331Y-137363390D02*
X144990950Y-137458628D01*
X144990950Y-137458628D02*
X144990950Y-137744342D01*
X144990950Y-137744342D02*
X144943331Y-137839580D01*
X144943331Y-137839580D02*
X144895712Y-137887200D01*
X144895712Y-137887200D02*
X144800474Y-137934819D01*
X144800474Y-137934819D02*
X144657617Y-137934819D01*
X145419522Y-137268152D02*
X145419522Y-137934819D01*
X145419522Y-137363390D02*
X145467141Y-137315771D01*
X145467141Y-137315771D02*
X145562379Y-137268152D01*
X145562379Y-137268152D02*
X145705236Y-137268152D01*
X145705236Y-137268152D02*
X145800474Y-137315771D01*
X145800474Y-137315771D02*
X145848093Y-137411009D01*
X145848093Y-137411009D02*
X145848093Y-137934819D01*
X146324284Y-137268152D02*
X146324284Y-137934819D01*
X146324284Y-137363390D02*
X146371903Y-137315771D01*
X146371903Y-137315771D02*
X146467141Y-137268152D01*
X146467141Y-137268152D02*
X146609998Y-137268152D01*
X146609998Y-137268152D02*
X146705236Y-137315771D01*
X146705236Y-137315771D02*
X146752855Y-137411009D01*
X146752855Y-137411009D02*
X146752855Y-137934819D01*
X146990951Y-138030057D02*
X147752855Y-138030057D01*
X148181427Y-136934819D02*
X148276665Y-136934819D01*
X148276665Y-136934819D02*
X148371903Y-136982438D01*
X148371903Y-136982438D02*
X148419522Y-137030057D01*
X148419522Y-137030057D02*
X148467141Y-137125295D01*
X148467141Y-137125295D02*
X148514760Y-137315771D01*
X148514760Y-137315771D02*
X148514760Y-137553866D01*
X148514760Y-137553866D02*
X148467141Y-137744342D01*
X148467141Y-137744342D02*
X148419522Y-137839580D01*
X148419522Y-137839580D02*
X148371903Y-137887200D01*
X148371903Y-137887200D02*
X148276665Y-137934819D01*
X148276665Y-137934819D02*
X148181427Y-137934819D01*
X148181427Y-137934819D02*
X148086189Y-137887200D01*
X148086189Y-137887200D02*
X148038570Y-137839580D01*
X148038570Y-137839580D02*
X147990951Y-137744342D01*
X147990951Y-137744342D02*
X147943332Y-137553866D01*
X147943332Y-137553866D02*
X147943332Y-137315771D01*
X147943332Y-137315771D02*
X147990951Y-137125295D01*
X147990951Y-137125295D02*
X148038570Y-137030057D01*
X148038570Y-137030057D02*
X148086189Y-136982438D01*
X148086189Y-136982438D02*
X148181427Y-136934819D01*
X148895713Y-137030057D02*
X148943332Y-136982438D01*
X148943332Y-136982438D02*
X149038570Y-136934819D01*
X149038570Y-136934819D02*
X149276665Y-136934819D01*
X149276665Y-136934819D02*
X149371903Y-136982438D01*
X149371903Y-136982438D02*
X149419522Y-137030057D01*
X149419522Y-137030057D02*
X149467141Y-137125295D01*
X149467141Y-137125295D02*
X149467141Y-137220533D01*
X149467141Y-137220533D02*
X149419522Y-137363390D01*
X149419522Y-137363390D02*
X148848094Y-137934819D01*
X148848094Y-137934819D02*
X149467141Y-137934819D01*
X149800475Y-137934819D02*
X150324284Y-137268152D01*
X149800475Y-137268152D02*
X150324284Y-137934819D01*
X151229046Y-137934819D02*
X150657618Y-137934819D01*
X150943332Y-137934819D02*
X150943332Y-136934819D01*
X150943332Y-136934819D02*
X150848094Y-137077676D01*
X150848094Y-137077676D02*
X150752856Y-137172914D01*
X150752856Y-137172914D02*
X150657618Y-137220533D01*
X151848094Y-136934819D02*
X151943332Y-136934819D01*
X151943332Y-136934819D02*
X152038570Y-136982438D01*
X152038570Y-136982438D02*
X152086189Y-137030057D01*
X152086189Y-137030057D02*
X152133808Y-137125295D01*
X152133808Y-137125295D02*
X152181427Y-137315771D01*
X152181427Y-137315771D02*
X152181427Y-137553866D01*
X152181427Y-137553866D02*
X152133808Y-137744342D01*
X152133808Y-137744342D02*
X152086189Y-137839580D01*
X152086189Y-137839580D02*
X152038570Y-137887200D01*
X152038570Y-137887200D02*
X151943332Y-137934819D01*
X151943332Y-137934819D02*
X151848094Y-137934819D01*
X151848094Y-137934819D02*
X151752856Y-137887200D01*
X151752856Y-137887200D02*
X151705237Y-137839580D01*
X151705237Y-137839580D02*
X151657618Y-137744342D01*
X151657618Y-137744342D02*
X151609999Y-137553866D01*
X151609999Y-137553866D02*
X151609999Y-137315771D01*
X151609999Y-137315771D02*
X151657618Y-137125295D01*
X151657618Y-137125295D02*
X151705237Y-137030057D01*
X151705237Y-137030057D02*
X151752856Y-136982438D01*
X151752856Y-136982438D02*
X151848094Y-136934819D01*
X152371904Y-138030057D02*
X153133808Y-138030057D01*
X153943332Y-137839580D02*
X153895713Y-137887200D01*
X153895713Y-137887200D02*
X153752856Y-137934819D01*
X153752856Y-137934819D02*
X153657618Y-137934819D01*
X153657618Y-137934819D02*
X153514761Y-137887200D01*
X153514761Y-137887200D02*
X153419523Y-137791961D01*
X153419523Y-137791961D02*
X153371904Y-137696723D01*
X153371904Y-137696723D02*
X153324285Y-137506247D01*
X153324285Y-137506247D02*
X153324285Y-137363390D01*
X153324285Y-137363390D02*
X153371904Y-137172914D01*
X153371904Y-137172914D02*
X153419523Y-137077676D01*
X153419523Y-137077676D02*
X153514761Y-136982438D01*
X153514761Y-136982438D02*
X153657618Y-136934819D01*
X153657618Y-136934819D02*
X153752856Y-136934819D01*
X153752856Y-136934819D02*
X153895713Y-136982438D01*
X153895713Y-136982438D02*
X153943332Y-137030057D01*
X154514761Y-137934819D02*
X154419523Y-137887200D01*
X154419523Y-137887200D02*
X154371904Y-137839580D01*
X154371904Y-137839580D02*
X154324285Y-137744342D01*
X154324285Y-137744342D02*
X154324285Y-137458628D01*
X154324285Y-137458628D02*
X154371904Y-137363390D01*
X154371904Y-137363390D02*
X154419523Y-137315771D01*
X154419523Y-137315771D02*
X154514761Y-137268152D01*
X154514761Y-137268152D02*
X154657618Y-137268152D01*
X154657618Y-137268152D02*
X154752856Y-137315771D01*
X154752856Y-137315771D02*
X154800475Y-137363390D01*
X154800475Y-137363390D02*
X154848094Y-137458628D01*
X154848094Y-137458628D02*
X154848094Y-137744342D01*
X154848094Y-137744342D02*
X154800475Y-137839580D01*
X154800475Y-137839580D02*
X154752856Y-137887200D01*
X154752856Y-137887200D02*
X154657618Y-137934819D01*
X154657618Y-137934819D02*
X154514761Y-137934819D01*
X155705237Y-137268152D02*
X155705237Y-137934819D01*
X155276666Y-137268152D02*
X155276666Y-137791961D01*
X155276666Y-137791961D02*
X155324285Y-137887200D01*
X155324285Y-137887200D02*
X155419523Y-137934819D01*
X155419523Y-137934819D02*
X155562380Y-137934819D01*
X155562380Y-137934819D02*
X155657618Y-137887200D01*
X155657618Y-137887200D02*
X155705237Y-137839580D01*
X156181428Y-137268152D02*
X156181428Y-137934819D01*
X156181428Y-137363390D02*
X156229047Y-137315771D01*
X156229047Y-137315771D02*
X156324285Y-137268152D01*
X156324285Y-137268152D02*
X156467142Y-137268152D01*
X156467142Y-137268152D02*
X156562380Y-137315771D01*
X156562380Y-137315771D02*
X156609999Y-137411009D01*
X156609999Y-137411009D02*
X156609999Y-137934819D01*
X156943333Y-137268152D02*
X157324285Y-137268152D01*
X157086190Y-136934819D02*
X157086190Y-137791961D01*
X157086190Y-137791961D02*
X157133809Y-137887200D01*
X157133809Y-137887200D02*
X157229047Y-137934819D01*
X157229047Y-137934819D02*
X157324285Y-137934819D01*
X158038571Y-137887200D02*
X157943333Y-137934819D01*
X157943333Y-137934819D02*
X157752857Y-137934819D01*
X157752857Y-137934819D02*
X157657619Y-137887200D01*
X157657619Y-137887200D02*
X157610000Y-137791961D01*
X157610000Y-137791961D02*
X157610000Y-137411009D01*
X157610000Y-137411009D02*
X157657619Y-137315771D01*
X157657619Y-137315771D02*
X157752857Y-137268152D01*
X157752857Y-137268152D02*
X157943333Y-137268152D01*
X157943333Y-137268152D02*
X158038571Y-137315771D01*
X158038571Y-137315771D02*
X158086190Y-137411009D01*
X158086190Y-137411009D02*
X158086190Y-137506247D01*
X158086190Y-137506247D02*
X157610000Y-137601485D01*
X158514762Y-137934819D02*
X158514762Y-137268152D01*
X158514762Y-137458628D02*
X158562381Y-137363390D01*
X158562381Y-137363390D02*
X158610000Y-137315771D01*
X158610000Y-137315771D02*
X158705238Y-137268152D01*
X158705238Y-137268152D02*
X158800476Y-137268152D01*
X158895715Y-138030057D02*
X159657619Y-138030057D01*
X160467143Y-137839580D02*
X160419524Y-137887200D01*
X160419524Y-137887200D02*
X160276667Y-137934819D01*
X160276667Y-137934819D02*
X160181429Y-137934819D01*
X160181429Y-137934819D02*
X160038572Y-137887200D01*
X160038572Y-137887200D02*
X159943334Y-137791961D01*
X159943334Y-137791961D02*
X159895715Y-137696723D01*
X159895715Y-137696723D02*
X159848096Y-137506247D01*
X159848096Y-137506247D02*
X159848096Y-137363390D01*
X159848096Y-137363390D02*
X159895715Y-137172914D01*
X159895715Y-137172914D02*
X159943334Y-137077676D01*
X159943334Y-137077676D02*
X160038572Y-136982438D01*
X160038572Y-136982438D02*
X160181429Y-136934819D01*
X160181429Y-136934819D02*
X160276667Y-136934819D01*
X160276667Y-136934819D02*
X160419524Y-136982438D01*
X160419524Y-136982438D02*
X160467143Y-137030057D01*
X161038572Y-137934819D02*
X160943334Y-137887200D01*
X160943334Y-137887200D02*
X160895715Y-137791961D01*
X160895715Y-137791961D02*
X160895715Y-136934819D01*
X161562382Y-137934819D02*
X161467144Y-137887200D01*
X161467144Y-137887200D02*
X161419525Y-137839580D01*
X161419525Y-137839580D02*
X161371906Y-137744342D01*
X161371906Y-137744342D02*
X161371906Y-137458628D01*
X161371906Y-137458628D02*
X161419525Y-137363390D01*
X161419525Y-137363390D02*
X161467144Y-137315771D01*
X161467144Y-137315771D02*
X161562382Y-137268152D01*
X161562382Y-137268152D02*
X161705239Y-137268152D01*
X161705239Y-137268152D02*
X161800477Y-137315771D01*
X161800477Y-137315771D02*
X161848096Y-137363390D01*
X161848096Y-137363390D02*
X161895715Y-137458628D01*
X161895715Y-137458628D02*
X161895715Y-137744342D01*
X161895715Y-137744342D02*
X161848096Y-137839580D01*
X161848096Y-137839580D02*
X161800477Y-137887200D01*
X161800477Y-137887200D02*
X161705239Y-137934819D01*
X161705239Y-137934819D02*
X161562382Y-137934819D01*
X162752858Y-137887200D02*
X162657620Y-137934819D01*
X162657620Y-137934819D02*
X162467144Y-137934819D01*
X162467144Y-137934819D02*
X162371906Y-137887200D01*
X162371906Y-137887200D02*
X162324287Y-137839580D01*
X162324287Y-137839580D02*
X162276668Y-137744342D01*
X162276668Y-137744342D02*
X162276668Y-137458628D01*
X162276668Y-137458628D02*
X162324287Y-137363390D01*
X162324287Y-137363390D02*
X162371906Y-137315771D01*
X162371906Y-137315771D02*
X162467144Y-137268152D01*
X162467144Y-137268152D02*
X162657620Y-137268152D01*
X162657620Y-137268152D02*
X162752858Y-137315771D01*
X163181430Y-137934819D02*
X163181430Y-136934819D01*
X163276668Y-137553866D02*
X163562382Y-137934819D01*
X163562382Y-137268152D02*
X163181430Y-137649104D01*
X163895716Y-137268152D02*
X164086192Y-137934819D01*
X164086192Y-137934819D02*
X164276668Y-137458628D01*
X164276668Y-137458628D02*
X164467144Y-137934819D01*
X164467144Y-137934819D02*
X164657620Y-137268152D01*
X165038573Y-137934819D02*
X165038573Y-137268152D01*
X165038573Y-136934819D02*
X164990954Y-136982438D01*
X164990954Y-136982438D02*
X165038573Y-137030057D01*
X165038573Y-137030057D02*
X165086192Y-136982438D01*
X165086192Y-136982438D02*
X165038573Y-136934819D01*
X165038573Y-136934819D02*
X165038573Y-137030057D01*
X165467144Y-137887200D02*
X165562382Y-137934819D01*
X165562382Y-137934819D02*
X165752858Y-137934819D01*
X165752858Y-137934819D02*
X165848096Y-137887200D01*
X165848096Y-137887200D02*
X165895715Y-137791961D01*
X165895715Y-137791961D02*
X165895715Y-137744342D01*
X165895715Y-137744342D02*
X165848096Y-137649104D01*
X165848096Y-137649104D02*
X165752858Y-137601485D01*
X165752858Y-137601485D02*
X165610001Y-137601485D01*
X165610001Y-137601485D02*
X165514763Y-137553866D01*
X165514763Y-137553866D02*
X165467144Y-137458628D01*
X165467144Y-137458628D02*
X165467144Y-137411009D01*
X165467144Y-137411009D02*
X165514763Y-137315771D01*
X165514763Y-137315771D02*
X165610001Y-137268152D01*
X165610001Y-137268152D02*
X165752858Y-137268152D01*
X165752858Y-137268152D02*
X165848096Y-137315771D01*
X166705239Y-137887200D02*
X166610001Y-137934819D01*
X166610001Y-137934819D02*
X166419525Y-137934819D01*
X166419525Y-137934819D02*
X166324287Y-137887200D01*
X166324287Y-137887200D02*
X166276668Y-137791961D01*
X166276668Y-137791961D02*
X166276668Y-137411009D01*
X166276668Y-137411009D02*
X166324287Y-137315771D01*
X166324287Y-137315771D02*
X166419525Y-137268152D01*
X166419525Y-137268152D02*
X166610001Y-137268152D01*
X166610001Y-137268152D02*
X166705239Y-137315771D01*
X166705239Y-137315771D02*
X166752858Y-137411009D01*
X166752858Y-137411009D02*
X166752858Y-137506247D01*
X166752858Y-137506247D02*
X166276668Y-137601485D01*
X162188571Y-120300057D02*
X162093333Y-120252438D01*
X162093333Y-120252438D02*
X161998095Y-120157200D01*
X161998095Y-120157200D02*
X161855238Y-120014342D01*
X161855238Y-120014342D02*
X161760000Y-119966723D01*
X161760000Y-119966723D02*
X161664762Y-119966723D01*
X161712381Y-120204819D02*
X161617143Y-120157200D01*
X161617143Y-120157200D02*
X161521905Y-120061961D01*
X161521905Y-120061961D02*
X161474286Y-119871485D01*
X161474286Y-119871485D02*
X161474286Y-119538152D01*
X161474286Y-119538152D02*
X161521905Y-119347676D01*
X161521905Y-119347676D02*
X161617143Y-119252438D01*
X161617143Y-119252438D02*
X161712381Y-119204819D01*
X161712381Y-119204819D02*
X161902857Y-119204819D01*
X161902857Y-119204819D02*
X161998095Y-119252438D01*
X161998095Y-119252438D02*
X162093333Y-119347676D01*
X162093333Y-119347676D02*
X162140952Y-119538152D01*
X162140952Y-119538152D02*
X162140952Y-119871485D01*
X162140952Y-119871485D02*
X162093333Y-120061961D01*
X162093333Y-120061961D02*
X161998095Y-120157200D01*
X161998095Y-120157200D02*
X161902857Y-120204819D01*
X161902857Y-120204819D02*
X161712381Y-120204819D01*
X163093333Y-120204819D02*
X162521905Y-120204819D01*
X162807619Y-120204819D02*
X162807619Y-119204819D01*
X162807619Y-119204819D02*
X162712381Y-119347676D01*
X162712381Y-119347676D02*
X162617143Y-119442914D01*
X162617143Y-119442914D02*
X162521905Y-119490533D01*
X163426667Y-119204819D02*
X164093333Y-119204819D01*
X164093333Y-119204819D02*
X163664762Y-120204819D01*
X136277142Y-97964819D02*
X135943809Y-97488628D01*
X135705714Y-97964819D02*
X135705714Y-96964819D01*
X135705714Y-96964819D02*
X136086666Y-96964819D01*
X136086666Y-96964819D02*
X136181904Y-97012438D01*
X136181904Y-97012438D02*
X136229523Y-97060057D01*
X136229523Y-97060057D02*
X136277142Y-97155295D01*
X136277142Y-97155295D02*
X136277142Y-97298152D01*
X136277142Y-97298152D02*
X136229523Y-97393390D01*
X136229523Y-97393390D02*
X136181904Y-97441009D01*
X136181904Y-97441009D02*
X136086666Y-97488628D01*
X136086666Y-97488628D02*
X135705714Y-97488628D01*
X137229523Y-97964819D02*
X136658095Y-97964819D01*
X136943809Y-97964819D02*
X136943809Y-96964819D01*
X136943809Y-96964819D02*
X136848571Y-97107676D01*
X136848571Y-97107676D02*
X136753333Y-97202914D01*
X136753333Y-97202914D02*
X136658095Y-97250533D01*
X137562857Y-96964819D02*
X138229523Y-96964819D01*
X138229523Y-96964819D02*
X137800952Y-97964819D01*
D14*
X122224318Y-108674524D02*
X120954318Y-108674524D01*
X122103365Y-107344047D02*
X122163842Y-107404523D01*
X122163842Y-107404523D02*
X122224318Y-107585952D01*
X122224318Y-107585952D02*
X122224318Y-107706904D01*
X122224318Y-107706904D02*
X122163842Y-107888333D01*
X122163842Y-107888333D02*
X122042889Y-108009285D01*
X122042889Y-108009285D02*
X121921937Y-108069762D01*
X121921937Y-108069762D02*
X121680032Y-108130238D01*
X121680032Y-108130238D02*
X121498603Y-108130238D01*
X121498603Y-108130238D02*
X121256699Y-108069762D01*
X121256699Y-108069762D02*
X121135746Y-108009285D01*
X121135746Y-108009285D02*
X121014794Y-107888333D01*
X121014794Y-107888333D02*
X120954318Y-107706904D01*
X120954318Y-107706904D02*
X120954318Y-107585952D01*
X120954318Y-107585952D02*
X121014794Y-107404523D01*
X121014794Y-107404523D02*
X121075270Y-107344047D01*
X120954318Y-106195000D02*
X120954318Y-106799762D01*
X120954318Y-106799762D02*
X121559080Y-106860238D01*
X121559080Y-106860238D02*
X121498603Y-106799762D01*
X121498603Y-106799762D02*
X121438127Y-106678809D01*
X121438127Y-106678809D02*
X121438127Y-106376428D01*
X121438127Y-106376428D02*
X121498603Y-106255476D01*
X121498603Y-106255476D02*
X121559080Y-106195000D01*
X121559080Y-106195000D02*
X121680032Y-106134523D01*
X121680032Y-106134523D02*
X121982413Y-106134523D01*
X121982413Y-106134523D02*
X122103365Y-106195000D01*
X122103365Y-106195000D02*
X122163842Y-106255476D01*
X122163842Y-106255476D02*
X122224318Y-106376428D01*
X122224318Y-106376428D02*
X122224318Y-106678809D01*
X122224318Y-106678809D02*
X122163842Y-106799762D01*
X122163842Y-106799762D02*
X122103365Y-106860238D01*
X120954318Y-105348333D02*
X120954318Y-105227380D01*
X120954318Y-105227380D02*
X121014794Y-105106428D01*
X121014794Y-105106428D02*
X121075270Y-105045952D01*
X121075270Y-105045952D02*
X121196222Y-104985476D01*
X121196222Y-104985476D02*
X121438127Y-104924999D01*
X121438127Y-104924999D02*
X121740508Y-104924999D01*
X121740508Y-104924999D02*
X121982413Y-104985476D01*
X121982413Y-104985476D02*
X122103365Y-105045952D01*
X122103365Y-105045952D02*
X122163842Y-105106428D01*
X122163842Y-105106428D02*
X122224318Y-105227380D01*
X122224318Y-105227380D02*
X122224318Y-105348333D01*
X122224318Y-105348333D02*
X122163842Y-105469285D01*
X122163842Y-105469285D02*
X122103365Y-105529761D01*
X122103365Y-105529761D02*
X121982413Y-105590238D01*
X121982413Y-105590238D02*
X121740508Y-105650714D01*
X121740508Y-105650714D02*
X121438127Y-105650714D01*
X121438127Y-105650714D02*
X121196222Y-105590238D01*
X121196222Y-105590238D02*
X121075270Y-105529761D01*
X121075270Y-105529761D02*
X121014794Y-105469285D01*
X121014794Y-105469285D02*
X120954318Y-105348333D01*
D12*
X111209580Y-108903811D02*
X111257200Y-108951430D01*
X111257200Y-108951430D02*
X111304819Y-109094287D01*
X111304819Y-109094287D02*
X111304819Y-109189525D01*
X111304819Y-109189525D02*
X111257200Y-109332382D01*
X111257200Y-109332382D02*
X111161961Y-109427620D01*
X111161961Y-109427620D02*
X111066723Y-109475239D01*
X111066723Y-109475239D02*
X110876247Y-109522858D01*
X110876247Y-109522858D02*
X110733390Y-109522858D01*
X110733390Y-109522858D02*
X110542914Y-109475239D01*
X110542914Y-109475239D02*
X110447676Y-109427620D01*
X110447676Y-109427620D02*
X110352438Y-109332382D01*
X110352438Y-109332382D02*
X110304819Y-109189525D01*
X110304819Y-109189525D02*
X110304819Y-109094287D01*
X110304819Y-109094287D02*
X110352438Y-108951430D01*
X110352438Y-108951430D02*
X110400057Y-108903811D01*
X111304819Y-108332382D02*
X111257200Y-108427620D01*
X111257200Y-108427620D02*
X111209580Y-108475239D01*
X111209580Y-108475239D02*
X111114342Y-108522858D01*
X111114342Y-108522858D02*
X110828628Y-108522858D01*
X110828628Y-108522858D02*
X110733390Y-108475239D01*
X110733390Y-108475239D02*
X110685771Y-108427620D01*
X110685771Y-108427620D02*
X110638152Y-108332382D01*
X110638152Y-108332382D02*
X110638152Y-108189525D01*
X110638152Y-108189525D02*
X110685771Y-108094287D01*
X110685771Y-108094287D02*
X110733390Y-108046668D01*
X110733390Y-108046668D02*
X110828628Y-107999049D01*
X110828628Y-107999049D02*
X111114342Y-107999049D01*
X111114342Y-107999049D02*
X111209580Y-108046668D01*
X111209580Y-108046668D02*
X111257200Y-108094287D01*
X111257200Y-108094287D02*
X111304819Y-108189525D01*
X111304819Y-108189525D02*
X111304819Y-108332382D01*
X110638152Y-107570477D02*
X111304819Y-107570477D01*
X110733390Y-107570477D02*
X110685771Y-107522858D01*
X110685771Y-107522858D02*
X110638152Y-107427620D01*
X110638152Y-107427620D02*
X110638152Y-107284763D01*
X110638152Y-107284763D02*
X110685771Y-107189525D01*
X110685771Y-107189525D02*
X110781009Y-107141906D01*
X110781009Y-107141906D02*
X111304819Y-107141906D01*
X110638152Y-106665715D02*
X111304819Y-106665715D01*
X110733390Y-106665715D02*
X110685771Y-106618096D01*
X110685771Y-106618096D02*
X110638152Y-106522858D01*
X110638152Y-106522858D02*
X110638152Y-106380001D01*
X110638152Y-106380001D02*
X110685771Y-106284763D01*
X110685771Y-106284763D02*
X110781009Y-106237144D01*
X110781009Y-106237144D02*
X111304819Y-106237144D01*
X111400057Y-105999049D02*
X111400057Y-105237144D01*
X110304819Y-104808572D02*
X110304819Y-104713334D01*
X110304819Y-104713334D02*
X110352438Y-104618096D01*
X110352438Y-104618096D02*
X110400057Y-104570477D01*
X110400057Y-104570477D02*
X110495295Y-104522858D01*
X110495295Y-104522858D02*
X110685771Y-104475239D01*
X110685771Y-104475239D02*
X110923866Y-104475239D01*
X110923866Y-104475239D02*
X111114342Y-104522858D01*
X111114342Y-104522858D02*
X111209580Y-104570477D01*
X111209580Y-104570477D02*
X111257200Y-104618096D01*
X111257200Y-104618096D02*
X111304819Y-104713334D01*
X111304819Y-104713334D02*
X111304819Y-104808572D01*
X111304819Y-104808572D02*
X111257200Y-104903810D01*
X111257200Y-104903810D02*
X111209580Y-104951429D01*
X111209580Y-104951429D02*
X111114342Y-104999048D01*
X111114342Y-104999048D02*
X110923866Y-105046667D01*
X110923866Y-105046667D02*
X110685771Y-105046667D01*
X110685771Y-105046667D02*
X110495295Y-104999048D01*
X110495295Y-104999048D02*
X110400057Y-104951429D01*
X110400057Y-104951429D02*
X110352438Y-104903810D01*
X110352438Y-104903810D02*
X110304819Y-104808572D01*
X110400057Y-104094286D02*
X110352438Y-104046667D01*
X110352438Y-104046667D02*
X110304819Y-103951429D01*
X110304819Y-103951429D02*
X110304819Y-103713334D01*
X110304819Y-103713334D02*
X110352438Y-103618096D01*
X110352438Y-103618096D02*
X110400057Y-103570477D01*
X110400057Y-103570477D02*
X110495295Y-103522858D01*
X110495295Y-103522858D02*
X110590533Y-103522858D01*
X110590533Y-103522858D02*
X110733390Y-103570477D01*
X110733390Y-103570477D02*
X111304819Y-104141905D01*
X111304819Y-104141905D02*
X111304819Y-103522858D01*
X111304819Y-103189524D02*
X110638152Y-102665715D01*
X110638152Y-103189524D02*
X111304819Y-102665715D01*
X111304819Y-101760953D02*
X111304819Y-102332381D01*
X111304819Y-102046667D02*
X110304819Y-102046667D01*
X110304819Y-102046667D02*
X110447676Y-102141905D01*
X110447676Y-102141905D02*
X110542914Y-102237143D01*
X110542914Y-102237143D02*
X110590533Y-102332381D01*
X110304819Y-101141905D02*
X110304819Y-101046667D01*
X110304819Y-101046667D02*
X110352438Y-100951429D01*
X110352438Y-100951429D02*
X110400057Y-100903810D01*
X110400057Y-100903810D02*
X110495295Y-100856191D01*
X110495295Y-100856191D02*
X110685771Y-100808572D01*
X110685771Y-100808572D02*
X110923866Y-100808572D01*
X110923866Y-100808572D02*
X111114342Y-100856191D01*
X111114342Y-100856191D02*
X111209580Y-100903810D01*
X111209580Y-100903810D02*
X111257200Y-100951429D01*
X111257200Y-100951429D02*
X111304819Y-101046667D01*
X111304819Y-101046667D02*
X111304819Y-101141905D01*
X111304819Y-101141905D02*
X111257200Y-101237143D01*
X111257200Y-101237143D02*
X111209580Y-101284762D01*
X111209580Y-101284762D02*
X111114342Y-101332381D01*
X111114342Y-101332381D02*
X110923866Y-101380000D01*
X110923866Y-101380000D02*
X110685771Y-101380000D01*
X110685771Y-101380000D02*
X110495295Y-101332381D01*
X110495295Y-101332381D02*
X110400057Y-101284762D01*
X110400057Y-101284762D02*
X110352438Y-101237143D01*
X110352438Y-101237143D02*
X110304819Y-101141905D01*
X111400057Y-100618096D02*
X111400057Y-99856191D01*
X111209580Y-99046667D02*
X111257200Y-99094286D01*
X111257200Y-99094286D02*
X111304819Y-99237143D01*
X111304819Y-99237143D02*
X111304819Y-99332381D01*
X111304819Y-99332381D02*
X111257200Y-99475238D01*
X111257200Y-99475238D02*
X111161961Y-99570476D01*
X111161961Y-99570476D02*
X111066723Y-99618095D01*
X111066723Y-99618095D02*
X110876247Y-99665714D01*
X110876247Y-99665714D02*
X110733390Y-99665714D01*
X110733390Y-99665714D02*
X110542914Y-99618095D01*
X110542914Y-99618095D02*
X110447676Y-99570476D01*
X110447676Y-99570476D02*
X110352438Y-99475238D01*
X110352438Y-99475238D02*
X110304819Y-99332381D01*
X110304819Y-99332381D02*
X110304819Y-99237143D01*
X110304819Y-99237143D02*
X110352438Y-99094286D01*
X110352438Y-99094286D02*
X110400057Y-99046667D01*
X111304819Y-98475238D02*
X111257200Y-98570476D01*
X111257200Y-98570476D02*
X111209580Y-98618095D01*
X111209580Y-98618095D02*
X111114342Y-98665714D01*
X111114342Y-98665714D02*
X110828628Y-98665714D01*
X110828628Y-98665714D02*
X110733390Y-98618095D01*
X110733390Y-98618095D02*
X110685771Y-98570476D01*
X110685771Y-98570476D02*
X110638152Y-98475238D01*
X110638152Y-98475238D02*
X110638152Y-98332381D01*
X110638152Y-98332381D02*
X110685771Y-98237143D01*
X110685771Y-98237143D02*
X110733390Y-98189524D01*
X110733390Y-98189524D02*
X110828628Y-98141905D01*
X110828628Y-98141905D02*
X111114342Y-98141905D01*
X111114342Y-98141905D02*
X111209580Y-98189524D01*
X111209580Y-98189524D02*
X111257200Y-98237143D01*
X111257200Y-98237143D02*
X111304819Y-98332381D01*
X111304819Y-98332381D02*
X111304819Y-98475238D01*
X110638152Y-97284762D02*
X111304819Y-97284762D01*
X110638152Y-97713333D02*
X111161961Y-97713333D01*
X111161961Y-97713333D02*
X111257200Y-97665714D01*
X111257200Y-97665714D02*
X111304819Y-97570476D01*
X111304819Y-97570476D02*
X111304819Y-97427619D01*
X111304819Y-97427619D02*
X111257200Y-97332381D01*
X111257200Y-97332381D02*
X111209580Y-97284762D01*
X110638152Y-96808571D02*
X111304819Y-96808571D01*
X110733390Y-96808571D02*
X110685771Y-96760952D01*
X110685771Y-96760952D02*
X110638152Y-96665714D01*
X110638152Y-96665714D02*
X110638152Y-96522857D01*
X110638152Y-96522857D02*
X110685771Y-96427619D01*
X110685771Y-96427619D02*
X110781009Y-96380000D01*
X110781009Y-96380000D02*
X111304819Y-96380000D01*
X110638152Y-96046666D02*
X110638152Y-95665714D01*
X110304819Y-95903809D02*
X111161961Y-95903809D01*
X111161961Y-95903809D02*
X111257200Y-95856190D01*
X111257200Y-95856190D02*
X111304819Y-95760952D01*
X111304819Y-95760952D02*
X111304819Y-95665714D01*
X111257200Y-94951428D02*
X111304819Y-95046666D01*
X111304819Y-95046666D02*
X111304819Y-95237142D01*
X111304819Y-95237142D02*
X111257200Y-95332380D01*
X111257200Y-95332380D02*
X111161961Y-95379999D01*
X111161961Y-95379999D02*
X110781009Y-95379999D01*
X110781009Y-95379999D02*
X110685771Y-95332380D01*
X110685771Y-95332380D02*
X110638152Y-95237142D01*
X110638152Y-95237142D02*
X110638152Y-95046666D01*
X110638152Y-95046666D02*
X110685771Y-94951428D01*
X110685771Y-94951428D02*
X110781009Y-94903809D01*
X110781009Y-94903809D02*
X110876247Y-94903809D01*
X110876247Y-94903809D02*
X110971485Y-95379999D01*
X111304819Y-94475237D02*
X110638152Y-94475237D01*
X110828628Y-94475237D02*
X110733390Y-94427618D01*
X110733390Y-94427618D02*
X110685771Y-94379999D01*
X110685771Y-94379999D02*
X110638152Y-94284761D01*
X110638152Y-94284761D02*
X110638152Y-94189523D01*
X111400057Y-94094285D02*
X111400057Y-93332380D01*
X111209580Y-92522856D02*
X111257200Y-92570475D01*
X111257200Y-92570475D02*
X111304819Y-92713332D01*
X111304819Y-92713332D02*
X111304819Y-92808570D01*
X111304819Y-92808570D02*
X111257200Y-92951427D01*
X111257200Y-92951427D02*
X111161961Y-93046665D01*
X111161961Y-93046665D02*
X111066723Y-93094284D01*
X111066723Y-93094284D02*
X110876247Y-93141903D01*
X110876247Y-93141903D02*
X110733390Y-93141903D01*
X110733390Y-93141903D02*
X110542914Y-93094284D01*
X110542914Y-93094284D02*
X110447676Y-93046665D01*
X110447676Y-93046665D02*
X110352438Y-92951427D01*
X110352438Y-92951427D02*
X110304819Y-92808570D01*
X110304819Y-92808570D02*
X110304819Y-92713332D01*
X110304819Y-92713332D02*
X110352438Y-92570475D01*
X110352438Y-92570475D02*
X110400057Y-92522856D01*
X111304819Y-91951427D02*
X111257200Y-92046665D01*
X111257200Y-92046665D02*
X111161961Y-92094284D01*
X111161961Y-92094284D02*
X110304819Y-92094284D01*
X111304819Y-91427617D02*
X111257200Y-91522855D01*
X111257200Y-91522855D02*
X111209580Y-91570474D01*
X111209580Y-91570474D02*
X111114342Y-91618093D01*
X111114342Y-91618093D02*
X110828628Y-91618093D01*
X110828628Y-91618093D02*
X110733390Y-91570474D01*
X110733390Y-91570474D02*
X110685771Y-91522855D01*
X110685771Y-91522855D02*
X110638152Y-91427617D01*
X110638152Y-91427617D02*
X110638152Y-91284760D01*
X110638152Y-91284760D02*
X110685771Y-91189522D01*
X110685771Y-91189522D02*
X110733390Y-91141903D01*
X110733390Y-91141903D02*
X110828628Y-91094284D01*
X110828628Y-91094284D02*
X111114342Y-91094284D01*
X111114342Y-91094284D02*
X111209580Y-91141903D01*
X111209580Y-91141903D02*
X111257200Y-91189522D01*
X111257200Y-91189522D02*
X111304819Y-91284760D01*
X111304819Y-91284760D02*
X111304819Y-91427617D01*
X111257200Y-90237141D02*
X111304819Y-90332379D01*
X111304819Y-90332379D02*
X111304819Y-90522855D01*
X111304819Y-90522855D02*
X111257200Y-90618093D01*
X111257200Y-90618093D02*
X111209580Y-90665712D01*
X111209580Y-90665712D02*
X111114342Y-90713331D01*
X111114342Y-90713331D02*
X110828628Y-90713331D01*
X110828628Y-90713331D02*
X110733390Y-90665712D01*
X110733390Y-90665712D02*
X110685771Y-90618093D01*
X110685771Y-90618093D02*
X110638152Y-90522855D01*
X110638152Y-90522855D02*
X110638152Y-90332379D01*
X110638152Y-90332379D02*
X110685771Y-90237141D01*
X111304819Y-89808569D02*
X110304819Y-89808569D01*
X110923866Y-89713331D02*
X111304819Y-89427617D01*
X110638152Y-89427617D02*
X111019104Y-89808569D01*
X110638152Y-89094283D02*
X111304819Y-88903807D01*
X111304819Y-88903807D02*
X110828628Y-88713331D01*
X110828628Y-88713331D02*
X111304819Y-88522855D01*
X111304819Y-88522855D02*
X110638152Y-88332379D01*
X111304819Y-87951426D02*
X110638152Y-87951426D01*
X110304819Y-87951426D02*
X110352438Y-87999045D01*
X110352438Y-87999045D02*
X110400057Y-87951426D01*
X110400057Y-87951426D02*
X110352438Y-87903807D01*
X110352438Y-87903807D02*
X110304819Y-87951426D01*
X110304819Y-87951426D02*
X110400057Y-87951426D01*
X111257200Y-87522855D02*
X111304819Y-87427617D01*
X111304819Y-87427617D02*
X111304819Y-87237141D01*
X111304819Y-87237141D02*
X111257200Y-87141903D01*
X111257200Y-87141903D02*
X111161961Y-87094284D01*
X111161961Y-87094284D02*
X111114342Y-87094284D01*
X111114342Y-87094284D02*
X111019104Y-87141903D01*
X111019104Y-87141903D02*
X110971485Y-87237141D01*
X110971485Y-87237141D02*
X110971485Y-87379998D01*
X110971485Y-87379998D02*
X110923866Y-87475236D01*
X110923866Y-87475236D02*
X110828628Y-87522855D01*
X110828628Y-87522855D02*
X110781009Y-87522855D01*
X110781009Y-87522855D02*
X110685771Y-87475236D01*
X110685771Y-87475236D02*
X110638152Y-87379998D01*
X110638152Y-87379998D02*
X110638152Y-87237141D01*
X110638152Y-87237141D02*
X110685771Y-87141903D01*
X111257200Y-86284760D02*
X111304819Y-86379998D01*
X111304819Y-86379998D02*
X111304819Y-86570474D01*
X111304819Y-86570474D02*
X111257200Y-86665712D01*
X111257200Y-86665712D02*
X111161961Y-86713331D01*
X111161961Y-86713331D02*
X110781009Y-86713331D01*
X110781009Y-86713331D02*
X110685771Y-86665712D01*
X110685771Y-86665712D02*
X110638152Y-86570474D01*
X110638152Y-86570474D02*
X110638152Y-86379998D01*
X110638152Y-86379998D02*
X110685771Y-86284760D01*
X110685771Y-86284760D02*
X110781009Y-86237141D01*
X110781009Y-86237141D02*
X110876247Y-86237141D01*
X110876247Y-86237141D02*
X110971485Y-86713331D01*
X121647819Y-123188333D02*
X122362104Y-123188333D01*
X122362104Y-123188333D02*
X122504961Y-123235952D01*
X122504961Y-123235952D02*
X122600200Y-123331190D01*
X122600200Y-123331190D02*
X122647819Y-123474047D01*
X122647819Y-123474047D02*
X122647819Y-123569285D01*
X122647819Y-122712142D02*
X121647819Y-122712142D01*
X121647819Y-122712142D02*
X121647819Y-122331190D01*
X121647819Y-122331190D02*
X121695438Y-122235952D01*
X121695438Y-122235952D02*
X121743057Y-122188333D01*
X121743057Y-122188333D02*
X121838295Y-122140714D01*
X121838295Y-122140714D02*
X121981152Y-122140714D01*
X121981152Y-122140714D02*
X122076390Y-122188333D01*
X122076390Y-122188333D02*
X122124009Y-122235952D01*
X122124009Y-122235952D02*
X122171628Y-122331190D01*
X122171628Y-122331190D02*
X122171628Y-122712142D01*
X122647819Y-121188333D02*
X122647819Y-121759761D01*
X122647819Y-121474047D02*
X121647819Y-121474047D01*
X121647819Y-121474047D02*
X121790676Y-121569285D01*
X121790676Y-121569285D02*
X121885914Y-121664523D01*
X121885914Y-121664523D02*
X121933533Y-121759761D01*
X133124819Y-88098094D02*
X132124819Y-88098094D01*
X132124819Y-88098094D02*
X132124819Y-87859999D01*
X132124819Y-87859999D02*
X132172438Y-87717142D01*
X132172438Y-87717142D02*
X132267676Y-87621904D01*
X132267676Y-87621904D02*
X132362914Y-87574285D01*
X132362914Y-87574285D02*
X132553390Y-87526666D01*
X132553390Y-87526666D02*
X132696247Y-87526666D01*
X132696247Y-87526666D02*
X132886723Y-87574285D01*
X132886723Y-87574285D02*
X132981961Y-87621904D01*
X132981961Y-87621904D02*
X133077200Y-87717142D01*
X133077200Y-87717142D02*
X133124819Y-87859999D01*
X133124819Y-87859999D02*
X133124819Y-88098094D01*
X132553390Y-86955237D02*
X132505771Y-87050475D01*
X132505771Y-87050475D02*
X132458152Y-87098094D01*
X132458152Y-87098094D02*
X132362914Y-87145713D01*
X132362914Y-87145713D02*
X132315295Y-87145713D01*
X132315295Y-87145713D02*
X132220057Y-87098094D01*
X132220057Y-87098094D02*
X132172438Y-87050475D01*
X132172438Y-87050475D02*
X132124819Y-86955237D01*
X132124819Y-86955237D02*
X132124819Y-86764761D01*
X132124819Y-86764761D02*
X132172438Y-86669523D01*
X132172438Y-86669523D02*
X132220057Y-86621904D01*
X132220057Y-86621904D02*
X132315295Y-86574285D01*
X132315295Y-86574285D02*
X132362914Y-86574285D01*
X132362914Y-86574285D02*
X132458152Y-86621904D01*
X132458152Y-86621904D02*
X132505771Y-86669523D01*
X132505771Y-86669523D02*
X132553390Y-86764761D01*
X132553390Y-86764761D02*
X132553390Y-86955237D01*
X132553390Y-86955237D02*
X132601009Y-87050475D01*
X132601009Y-87050475D02*
X132648628Y-87098094D01*
X132648628Y-87098094D02*
X132743866Y-87145713D01*
X132743866Y-87145713D02*
X132934342Y-87145713D01*
X132934342Y-87145713D02*
X133029580Y-87098094D01*
X133029580Y-87098094D02*
X133077200Y-87050475D01*
X133077200Y-87050475D02*
X133124819Y-86955237D01*
X133124819Y-86955237D02*
X133124819Y-86764761D01*
X133124819Y-86764761D02*
X133077200Y-86669523D01*
X133077200Y-86669523D02*
X133029580Y-86621904D01*
X133029580Y-86621904D02*
X132934342Y-86574285D01*
X132934342Y-86574285D02*
X132743866Y-86574285D01*
X132743866Y-86574285D02*
X132648628Y-86621904D01*
X132648628Y-86621904D02*
X132601009Y-86669523D01*
X132601009Y-86669523D02*
X132553390Y-86764761D01*
X129624819Y-88348094D02*
X128624819Y-88348094D01*
X128624819Y-88348094D02*
X128624819Y-88109999D01*
X128624819Y-88109999D02*
X128672438Y-87967142D01*
X128672438Y-87967142D02*
X128767676Y-87871904D01*
X128767676Y-87871904D02*
X128862914Y-87824285D01*
X128862914Y-87824285D02*
X129053390Y-87776666D01*
X129053390Y-87776666D02*
X129196247Y-87776666D01*
X129196247Y-87776666D02*
X129386723Y-87824285D01*
X129386723Y-87824285D02*
X129481961Y-87871904D01*
X129481961Y-87871904D02*
X129577200Y-87967142D01*
X129577200Y-87967142D02*
X129624819Y-88109999D01*
X129624819Y-88109999D02*
X129624819Y-88348094D01*
X128624819Y-87443332D02*
X128624819Y-86776666D01*
X128624819Y-86776666D02*
X129624819Y-87205237D01*
X134906188Y-86829580D02*
X134858569Y-86877200D01*
X134858569Y-86877200D02*
X134715712Y-86924819D01*
X134715712Y-86924819D02*
X134620474Y-86924819D01*
X134620474Y-86924819D02*
X134477617Y-86877200D01*
X134477617Y-86877200D02*
X134382379Y-86781961D01*
X134382379Y-86781961D02*
X134334760Y-86686723D01*
X134334760Y-86686723D02*
X134287141Y-86496247D01*
X134287141Y-86496247D02*
X134287141Y-86353390D01*
X134287141Y-86353390D02*
X134334760Y-86162914D01*
X134334760Y-86162914D02*
X134382379Y-86067676D01*
X134382379Y-86067676D02*
X134477617Y-85972438D01*
X134477617Y-85972438D02*
X134620474Y-85924819D01*
X134620474Y-85924819D02*
X134715712Y-85924819D01*
X134715712Y-85924819D02*
X134858569Y-85972438D01*
X134858569Y-85972438D02*
X134906188Y-86020057D01*
X135477617Y-86924819D02*
X135382379Y-86877200D01*
X135382379Y-86877200D02*
X135334760Y-86829580D01*
X135334760Y-86829580D02*
X135287141Y-86734342D01*
X135287141Y-86734342D02*
X135287141Y-86448628D01*
X135287141Y-86448628D02*
X135334760Y-86353390D01*
X135334760Y-86353390D02*
X135382379Y-86305771D01*
X135382379Y-86305771D02*
X135477617Y-86258152D01*
X135477617Y-86258152D02*
X135620474Y-86258152D01*
X135620474Y-86258152D02*
X135715712Y-86305771D01*
X135715712Y-86305771D02*
X135763331Y-86353390D01*
X135763331Y-86353390D02*
X135810950Y-86448628D01*
X135810950Y-86448628D02*
X135810950Y-86734342D01*
X135810950Y-86734342D02*
X135763331Y-86829580D01*
X135763331Y-86829580D02*
X135715712Y-86877200D01*
X135715712Y-86877200D02*
X135620474Y-86924819D01*
X135620474Y-86924819D02*
X135477617Y-86924819D01*
X136239522Y-86258152D02*
X136239522Y-86924819D01*
X136239522Y-86353390D02*
X136287141Y-86305771D01*
X136287141Y-86305771D02*
X136382379Y-86258152D01*
X136382379Y-86258152D02*
X136525236Y-86258152D01*
X136525236Y-86258152D02*
X136620474Y-86305771D01*
X136620474Y-86305771D02*
X136668093Y-86401009D01*
X136668093Y-86401009D02*
X136668093Y-86924819D01*
X137144284Y-86258152D02*
X137144284Y-86924819D01*
X137144284Y-86353390D02*
X137191903Y-86305771D01*
X137191903Y-86305771D02*
X137287141Y-86258152D01*
X137287141Y-86258152D02*
X137429998Y-86258152D01*
X137429998Y-86258152D02*
X137525236Y-86305771D01*
X137525236Y-86305771D02*
X137572855Y-86401009D01*
X137572855Y-86401009D02*
X137572855Y-86924819D01*
X137810951Y-87020057D02*
X138572855Y-87020057D01*
X139001427Y-85924819D02*
X139096665Y-85924819D01*
X139096665Y-85924819D02*
X139191903Y-85972438D01*
X139191903Y-85972438D02*
X139239522Y-86020057D01*
X139239522Y-86020057D02*
X139287141Y-86115295D01*
X139287141Y-86115295D02*
X139334760Y-86305771D01*
X139334760Y-86305771D02*
X139334760Y-86543866D01*
X139334760Y-86543866D02*
X139287141Y-86734342D01*
X139287141Y-86734342D02*
X139239522Y-86829580D01*
X139239522Y-86829580D02*
X139191903Y-86877200D01*
X139191903Y-86877200D02*
X139096665Y-86924819D01*
X139096665Y-86924819D02*
X139001427Y-86924819D01*
X139001427Y-86924819D02*
X138906189Y-86877200D01*
X138906189Y-86877200D02*
X138858570Y-86829580D01*
X138858570Y-86829580D02*
X138810951Y-86734342D01*
X138810951Y-86734342D02*
X138763332Y-86543866D01*
X138763332Y-86543866D02*
X138763332Y-86305771D01*
X138763332Y-86305771D02*
X138810951Y-86115295D01*
X138810951Y-86115295D02*
X138858570Y-86020057D01*
X138858570Y-86020057D02*
X138906189Y-85972438D01*
X138906189Y-85972438D02*
X139001427Y-85924819D01*
X139715713Y-86020057D02*
X139763332Y-85972438D01*
X139763332Y-85972438D02*
X139858570Y-85924819D01*
X139858570Y-85924819D02*
X140096665Y-85924819D01*
X140096665Y-85924819D02*
X140191903Y-85972438D01*
X140191903Y-85972438D02*
X140239522Y-86020057D01*
X140239522Y-86020057D02*
X140287141Y-86115295D01*
X140287141Y-86115295D02*
X140287141Y-86210533D01*
X140287141Y-86210533D02*
X140239522Y-86353390D01*
X140239522Y-86353390D02*
X139668094Y-86924819D01*
X139668094Y-86924819D02*
X140287141Y-86924819D01*
X140620475Y-86924819D02*
X141144284Y-86258152D01*
X140620475Y-86258152D02*
X141144284Y-86924819D01*
X142049046Y-86924819D02*
X141477618Y-86924819D01*
X141763332Y-86924819D02*
X141763332Y-85924819D01*
X141763332Y-85924819D02*
X141668094Y-86067676D01*
X141668094Y-86067676D02*
X141572856Y-86162914D01*
X141572856Y-86162914D02*
X141477618Y-86210533D01*
X142668094Y-85924819D02*
X142763332Y-85924819D01*
X142763332Y-85924819D02*
X142858570Y-85972438D01*
X142858570Y-85972438D02*
X142906189Y-86020057D01*
X142906189Y-86020057D02*
X142953808Y-86115295D01*
X142953808Y-86115295D02*
X143001427Y-86305771D01*
X143001427Y-86305771D02*
X143001427Y-86543866D01*
X143001427Y-86543866D02*
X142953808Y-86734342D01*
X142953808Y-86734342D02*
X142906189Y-86829580D01*
X142906189Y-86829580D02*
X142858570Y-86877200D01*
X142858570Y-86877200D02*
X142763332Y-86924819D01*
X142763332Y-86924819D02*
X142668094Y-86924819D01*
X142668094Y-86924819D02*
X142572856Y-86877200D01*
X142572856Y-86877200D02*
X142525237Y-86829580D01*
X142525237Y-86829580D02*
X142477618Y-86734342D01*
X142477618Y-86734342D02*
X142429999Y-86543866D01*
X142429999Y-86543866D02*
X142429999Y-86305771D01*
X142429999Y-86305771D02*
X142477618Y-86115295D01*
X142477618Y-86115295D02*
X142525237Y-86020057D01*
X142525237Y-86020057D02*
X142572856Y-85972438D01*
X142572856Y-85972438D02*
X142668094Y-85924819D01*
X143191904Y-87020057D02*
X143953808Y-87020057D01*
X144763332Y-86829580D02*
X144715713Y-86877200D01*
X144715713Y-86877200D02*
X144572856Y-86924819D01*
X144572856Y-86924819D02*
X144477618Y-86924819D01*
X144477618Y-86924819D02*
X144334761Y-86877200D01*
X144334761Y-86877200D02*
X144239523Y-86781961D01*
X144239523Y-86781961D02*
X144191904Y-86686723D01*
X144191904Y-86686723D02*
X144144285Y-86496247D01*
X144144285Y-86496247D02*
X144144285Y-86353390D01*
X144144285Y-86353390D02*
X144191904Y-86162914D01*
X144191904Y-86162914D02*
X144239523Y-86067676D01*
X144239523Y-86067676D02*
X144334761Y-85972438D01*
X144334761Y-85972438D02*
X144477618Y-85924819D01*
X144477618Y-85924819D02*
X144572856Y-85924819D01*
X144572856Y-85924819D02*
X144715713Y-85972438D01*
X144715713Y-85972438D02*
X144763332Y-86020057D01*
X145334761Y-86924819D02*
X145239523Y-86877200D01*
X145239523Y-86877200D02*
X145191904Y-86829580D01*
X145191904Y-86829580D02*
X145144285Y-86734342D01*
X145144285Y-86734342D02*
X145144285Y-86448628D01*
X145144285Y-86448628D02*
X145191904Y-86353390D01*
X145191904Y-86353390D02*
X145239523Y-86305771D01*
X145239523Y-86305771D02*
X145334761Y-86258152D01*
X145334761Y-86258152D02*
X145477618Y-86258152D01*
X145477618Y-86258152D02*
X145572856Y-86305771D01*
X145572856Y-86305771D02*
X145620475Y-86353390D01*
X145620475Y-86353390D02*
X145668094Y-86448628D01*
X145668094Y-86448628D02*
X145668094Y-86734342D01*
X145668094Y-86734342D02*
X145620475Y-86829580D01*
X145620475Y-86829580D02*
X145572856Y-86877200D01*
X145572856Y-86877200D02*
X145477618Y-86924819D01*
X145477618Y-86924819D02*
X145334761Y-86924819D01*
X146525237Y-86258152D02*
X146525237Y-86924819D01*
X146096666Y-86258152D02*
X146096666Y-86781961D01*
X146096666Y-86781961D02*
X146144285Y-86877200D01*
X146144285Y-86877200D02*
X146239523Y-86924819D01*
X146239523Y-86924819D02*
X146382380Y-86924819D01*
X146382380Y-86924819D02*
X146477618Y-86877200D01*
X146477618Y-86877200D02*
X146525237Y-86829580D01*
X147001428Y-86258152D02*
X147001428Y-86924819D01*
X147001428Y-86353390D02*
X147049047Y-86305771D01*
X147049047Y-86305771D02*
X147144285Y-86258152D01*
X147144285Y-86258152D02*
X147287142Y-86258152D01*
X147287142Y-86258152D02*
X147382380Y-86305771D01*
X147382380Y-86305771D02*
X147429999Y-86401009D01*
X147429999Y-86401009D02*
X147429999Y-86924819D01*
X147763333Y-86258152D02*
X148144285Y-86258152D01*
X147906190Y-85924819D02*
X147906190Y-86781961D01*
X147906190Y-86781961D02*
X147953809Y-86877200D01*
X147953809Y-86877200D02*
X148049047Y-86924819D01*
X148049047Y-86924819D02*
X148144285Y-86924819D01*
X148858571Y-86877200D02*
X148763333Y-86924819D01*
X148763333Y-86924819D02*
X148572857Y-86924819D01*
X148572857Y-86924819D02*
X148477619Y-86877200D01*
X148477619Y-86877200D02*
X148430000Y-86781961D01*
X148430000Y-86781961D02*
X148430000Y-86401009D01*
X148430000Y-86401009D02*
X148477619Y-86305771D01*
X148477619Y-86305771D02*
X148572857Y-86258152D01*
X148572857Y-86258152D02*
X148763333Y-86258152D01*
X148763333Y-86258152D02*
X148858571Y-86305771D01*
X148858571Y-86305771D02*
X148906190Y-86401009D01*
X148906190Y-86401009D02*
X148906190Y-86496247D01*
X148906190Y-86496247D02*
X148430000Y-86591485D01*
X149334762Y-86924819D02*
X149334762Y-86258152D01*
X149334762Y-86448628D02*
X149382381Y-86353390D01*
X149382381Y-86353390D02*
X149430000Y-86305771D01*
X149430000Y-86305771D02*
X149525238Y-86258152D01*
X149525238Y-86258152D02*
X149620476Y-86258152D01*
X149715715Y-87020057D02*
X150477619Y-87020057D01*
X151287143Y-86829580D02*
X151239524Y-86877200D01*
X151239524Y-86877200D02*
X151096667Y-86924819D01*
X151096667Y-86924819D02*
X151001429Y-86924819D01*
X151001429Y-86924819D02*
X150858572Y-86877200D01*
X150858572Y-86877200D02*
X150763334Y-86781961D01*
X150763334Y-86781961D02*
X150715715Y-86686723D01*
X150715715Y-86686723D02*
X150668096Y-86496247D01*
X150668096Y-86496247D02*
X150668096Y-86353390D01*
X150668096Y-86353390D02*
X150715715Y-86162914D01*
X150715715Y-86162914D02*
X150763334Y-86067676D01*
X150763334Y-86067676D02*
X150858572Y-85972438D01*
X150858572Y-85972438D02*
X151001429Y-85924819D01*
X151001429Y-85924819D02*
X151096667Y-85924819D01*
X151096667Y-85924819D02*
X151239524Y-85972438D01*
X151239524Y-85972438D02*
X151287143Y-86020057D01*
X151858572Y-86924819D02*
X151763334Y-86877200D01*
X151763334Y-86877200D02*
X151715715Y-86781961D01*
X151715715Y-86781961D02*
X151715715Y-85924819D01*
X152382382Y-86924819D02*
X152287144Y-86877200D01*
X152287144Y-86877200D02*
X152239525Y-86829580D01*
X152239525Y-86829580D02*
X152191906Y-86734342D01*
X152191906Y-86734342D02*
X152191906Y-86448628D01*
X152191906Y-86448628D02*
X152239525Y-86353390D01*
X152239525Y-86353390D02*
X152287144Y-86305771D01*
X152287144Y-86305771D02*
X152382382Y-86258152D01*
X152382382Y-86258152D02*
X152525239Y-86258152D01*
X152525239Y-86258152D02*
X152620477Y-86305771D01*
X152620477Y-86305771D02*
X152668096Y-86353390D01*
X152668096Y-86353390D02*
X152715715Y-86448628D01*
X152715715Y-86448628D02*
X152715715Y-86734342D01*
X152715715Y-86734342D02*
X152668096Y-86829580D01*
X152668096Y-86829580D02*
X152620477Y-86877200D01*
X152620477Y-86877200D02*
X152525239Y-86924819D01*
X152525239Y-86924819D02*
X152382382Y-86924819D01*
X153572858Y-86877200D02*
X153477620Y-86924819D01*
X153477620Y-86924819D02*
X153287144Y-86924819D01*
X153287144Y-86924819D02*
X153191906Y-86877200D01*
X153191906Y-86877200D02*
X153144287Y-86829580D01*
X153144287Y-86829580D02*
X153096668Y-86734342D01*
X153096668Y-86734342D02*
X153096668Y-86448628D01*
X153096668Y-86448628D02*
X153144287Y-86353390D01*
X153144287Y-86353390D02*
X153191906Y-86305771D01*
X153191906Y-86305771D02*
X153287144Y-86258152D01*
X153287144Y-86258152D02*
X153477620Y-86258152D01*
X153477620Y-86258152D02*
X153572858Y-86305771D01*
X154001430Y-86924819D02*
X154001430Y-85924819D01*
X154096668Y-86543866D02*
X154382382Y-86924819D01*
X154382382Y-86258152D02*
X154001430Y-86639104D01*
X154715716Y-86258152D02*
X154906192Y-86924819D01*
X154906192Y-86924819D02*
X155096668Y-86448628D01*
X155096668Y-86448628D02*
X155287144Y-86924819D01*
X155287144Y-86924819D02*
X155477620Y-86258152D01*
X155858573Y-86924819D02*
X155858573Y-86258152D01*
X155858573Y-85924819D02*
X155810954Y-85972438D01*
X155810954Y-85972438D02*
X155858573Y-86020057D01*
X155858573Y-86020057D02*
X155906192Y-85972438D01*
X155906192Y-85972438D02*
X155858573Y-85924819D01*
X155858573Y-85924819D02*
X155858573Y-86020057D01*
X156287144Y-86877200D02*
X156382382Y-86924819D01*
X156382382Y-86924819D02*
X156572858Y-86924819D01*
X156572858Y-86924819D02*
X156668096Y-86877200D01*
X156668096Y-86877200D02*
X156715715Y-86781961D01*
X156715715Y-86781961D02*
X156715715Y-86734342D01*
X156715715Y-86734342D02*
X156668096Y-86639104D01*
X156668096Y-86639104D02*
X156572858Y-86591485D01*
X156572858Y-86591485D02*
X156430001Y-86591485D01*
X156430001Y-86591485D02*
X156334763Y-86543866D01*
X156334763Y-86543866D02*
X156287144Y-86448628D01*
X156287144Y-86448628D02*
X156287144Y-86401009D01*
X156287144Y-86401009D02*
X156334763Y-86305771D01*
X156334763Y-86305771D02*
X156430001Y-86258152D01*
X156430001Y-86258152D02*
X156572858Y-86258152D01*
X156572858Y-86258152D02*
X156668096Y-86305771D01*
X157525239Y-86877200D02*
X157430001Y-86924819D01*
X157430001Y-86924819D02*
X157239525Y-86924819D01*
X157239525Y-86924819D02*
X157144287Y-86877200D01*
X157144287Y-86877200D02*
X157096668Y-86781961D01*
X157096668Y-86781961D02*
X157096668Y-86401009D01*
X157096668Y-86401009D02*
X157144287Y-86305771D01*
X157144287Y-86305771D02*
X157239525Y-86258152D01*
X157239525Y-86258152D02*
X157430001Y-86258152D01*
X157430001Y-86258152D02*
X157525239Y-86305771D01*
X157525239Y-86305771D02*
X157572858Y-86401009D01*
X157572858Y-86401009D02*
X157572858Y-86496247D01*
X157572858Y-86496247D02*
X157096668Y-86591485D01*
X181826666Y-111804819D02*
X181826666Y-112519104D01*
X181826666Y-112519104D02*
X181779047Y-112661961D01*
X181779047Y-112661961D02*
X181683809Y-112757200D01*
X181683809Y-112757200D02*
X181540952Y-112804819D01*
X181540952Y-112804819D02*
X181445714Y-112804819D01*
X182207619Y-111804819D02*
X182826666Y-111804819D01*
X182826666Y-111804819D02*
X182493333Y-112185771D01*
X182493333Y-112185771D02*
X182636190Y-112185771D01*
X182636190Y-112185771D02*
X182731428Y-112233390D01*
X182731428Y-112233390D02*
X182779047Y-112281009D01*
X182779047Y-112281009D02*
X182826666Y-112376247D01*
X182826666Y-112376247D02*
X182826666Y-112614342D01*
X182826666Y-112614342D02*
X182779047Y-112709580D01*
X182779047Y-112709580D02*
X182731428Y-112757200D01*
X182731428Y-112757200D02*
X182636190Y-112804819D01*
X182636190Y-112804819D02*
X182350476Y-112804819D01*
X182350476Y-112804819D02*
X182255238Y-112757200D01*
X182255238Y-112757200D02*
X182207619Y-112709580D01*
X180167200Y-118607142D02*
X180214819Y-118464285D01*
X180214819Y-118464285D02*
X180214819Y-118226190D01*
X180214819Y-118226190D02*
X180167200Y-118130952D01*
X180167200Y-118130952D02*
X180119580Y-118083333D01*
X180119580Y-118083333D02*
X180024342Y-118035714D01*
X180024342Y-118035714D02*
X179929104Y-118035714D01*
X179929104Y-118035714D02*
X179833866Y-118083333D01*
X179833866Y-118083333D02*
X179786247Y-118130952D01*
X179786247Y-118130952D02*
X179738628Y-118226190D01*
X179738628Y-118226190D02*
X179691009Y-118416666D01*
X179691009Y-118416666D02*
X179643390Y-118511904D01*
X179643390Y-118511904D02*
X179595771Y-118559523D01*
X179595771Y-118559523D02*
X179500533Y-118607142D01*
X179500533Y-118607142D02*
X179405295Y-118607142D01*
X179405295Y-118607142D02*
X179310057Y-118559523D01*
X179310057Y-118559523D02*
X179262438Y-118511904D01*
X179262438Y-118511904D02*
X179214819Y-118416666D01*
X179214819Y-118416666D02*
X179214819Y-118178571D01*
X179214819Y-118178571D02*
X179262438Y-118035714D01*
X179214819Y-117702380D02*
X180214819Y-117464285D01*
X180214819Y-117464285D02*
X179500533Y-117273809D01*
X179500533Y-117273809D02*
X180214819Y-117083333D01*
X180214819Y-117083333D02*
X179214819Y-116845238D01*
X180214819Y-116464285D02*
X179214819Y-116464285D01*
X179214819Y-116464285D02*
X179214819Y-116226190D01*
X179214819Y-116226190D02*
X179262438Y-116083333D01*
X179262438Y-116083333D02*
X179357676Y-115988095D01*
X179357676Y-115988095D02*
X179452914Y-115940476D01*
X179452914Y-115940476D02*
X179643390Y-115892857D01*
X179643390Y-115892857D02*
X179786247Y-115892857D01*
X179786247Y-115892857D02*
X179976723Y-115940476D01*
X179976723Y-115940476D02*
X180071961Y-115988095D01*
X180071961Y-115988095D02*
X180167200Y-116083333D01*
X180167200Y-116083333D02*
X180214819Y-116226190D01*
X180214819Y-116226190D02*
X180214819Y-116464285D01*
X131027142Y-97719580D02*
X130979523Y-97767200D01*
X130979523Y-97767200D02*
X130836666Y-97814819D01*
X130836666Y-97814819D02*
X130741428Y-97814819D01*
X130741428Y-97814819D02*
X130598571Y-97767200D01*
X130598571Y-97767200D02*
X130503333Y-97671961D01*
X130503333Y-97671961D02*
X130455714Y-97576723D01*
X130455714Y-97576723D02*
X130408095Y-97386247D01*
X130408095Y-97386247D02*
X130408095Y-97243390D01*
X130408095Y-97243390D02*
X130455714Y-97052914D01*
X130455714Y-97052914D02*
X130503333Y-96957676D01*
X130503333Y-96957676D02*
X130598571Y-96862438D01*
X130598571Y-96862438D02*
X130741428Y-96814819D01*
X130741428Y-96814819D02*
X130836666Y-96814819D01*
X130836666Y-96814819D02*
X130979523Y-96862438D01*
X130979523Y-96862438D02*
X131027142Y-96910057D01*
X131360476Y-96814819D02*
X131979523Y-96814819D01*
X131979523Y-96814819D02*
X131646190Y-97195771D01*
X131646190Y-97195771D02*
X131789047Y-97195771D01*
X131789047Y-97195771D02*
X131884285Y-97243390D01*
X131884285Y-97243390D02*
X131931904Y-97291009D01*
X131931904Y-97291009D02*
X131979523Y-97386247D01*
X131979523Y-97386247D02*
X131979523Y-97624342D01*
X131979523Y-97624342D02*
X131931904Y-97719580D01*
X131931904Y-97719580D02*
X131884285Y-97767200D01*
X131884285Y-97767200D02*
X131789047Y-97814819D01*
X131789047Y-97814819D02*
X131503333Y-97814819D01*
X131503333Y-97814819D02*
X131408095Y-97767200D01*
X131408095Y-97767200D02*
X131360476Y-97719580D01*
X132931904Y-97814819D02*
X132360476Y-97814819D01*
X132646190Y-97814819D02*
X132646190Y-96814819D01*
X132646190Y-96814819D02*
X132550952Y-96957676D01*
X132550952Y-96957676D02*
X132455714Y-97052914D01*
X132455714Y-97052914D02*
X132360476Y-97100533D01*
X188351069Y-71506904D02*
X189160592Y-71506904D01*
X189160592Y-71506904D02*
X189255830Y-71459285D01*
X189255830Y-71459285D02*
X189303450Y-71411666D01*
X189303450Y-71411666D02*
X189351069Y-71316428D01*
X189351069Y-71316428D02*
X189351069Y-71125952D01*
X189351069Y-71125952D02*
X189303450Y-71030714D01*
X189303450Y-71030714D02*
X189255830Y-70983095D01*
X189255830Y-70983095D02*
X189160592Y-70935476D01*
X189160592Y-70935476D02*
X188351069Y-70935476D01*
X189351069Y-69935476D02*
X189351069Y-70506904D01*
X189351069Y-70221190D02*
X188351069Y-70221190D01*
X188351069Y-70221190D02*
X188493926Y-70316428D01*
X188493926Y-70316428D02*
X188589164Y-70411666D01*
X188589164Y-70411666D02*
X188636783Y-70506904D01*
X161448095Y-98597319D02*
X161448095Y-99406842D01*
X161448095Y-99406842D02*
X161495714Y-99502080D01*
X161495714Y-99502080D02*
X161543333Y-99549700D01*
X161543333Y-99549700D02*
X161638571Y-99597319D01*
X161638571Y-99597319D02*
X161829047Y-99597319D01*
X161829047Y-99597319D02*
X161924285Y-99549700D01*
X161924285Y-99549700D02*
X161971904Y-99502080D01*
X161971904Y-99502080D02*
X162019523Y-99406842D01*
X162019523Y-99406842D02*
X162019523Y-98597319D01*
X162924285Y-98597319D02*
X162733809Y-98597319D01*
X162733809Y-98597319D02*
X162638571Y-98644938D01*
X162638571Y-98644938D02*
X162590952Y-98692557D01*
X162590952Y-98692557D02*
X162495714Y-98835414D01*
X162495714Y-98835414D02*
X162448095Y-99025890D01*
X162448095Y-99025890D02*
X162448095Y-99406842D01*
X162448095Y-99406842D02*
X162495714Y-99502080D01*
X162495714Y-99502080D02*
X162543333Y-99549700D01*
X162543333Y-99549700D02*
X162638571Y-99597319D01*
X162638571Y-99597319D02*
X162829047Y-99597319D01*
X162829047Y-99597319D02*
X162924285Y-99549700D01*
X162924285Y-99549700D02*
X162971904Y-99502080D01*
X162971904Y-99502080D02*
X163019523Y-99406842D01*
X163019523Y-99406842D02*
X163019523Y-99168747D01*
X163019523Y-99168747D02*
X162971904Y-99073509D01*
X162971904Y-99073509D02*
X162924285Y-99025890D01*
X162924285Y-99025890D02*
X162829047Y-98978271D01*
X162829047Y-98978271D02*
X162638571Y-98978271D01*
X162638571Y-98978271D02*
X162543333Y-99025890D01*
X162543333Y-99025890D02*
X162495714Y-99073509D01*
X162495714Y-99073509D02*
X162448095Y-99168747D01*
X158706500Y-95942319D02*
X158706500Y-96180414D01*
X158468405Y-96085176D02*
X158706500Y-96180414D01*
X158706500Y-96180414D02*
X158944595Y-96085176D01*
X158563643Y-96370890D02*
X158706500Y-96180414D01*
X158706500Y-96180414D02*
X158849357Y-96370890D01*
D14*
X144752318Y-97657024D02*
X143482318Y-97657024D01*
X144631365Y-96326547D02*
X144691842Y-96387023D01*
X144691842Y-96387023D02*
X144752318Y-96568452D01*
X144752318Y-96568452D02*
X144752318Y-96689404D01*
X144752318Y-96689404D02*
X144691842Y-96870833D01*
X144691842Y-96870833D02*
X144570889Y-96991785D01*
X144570889Y-96991785D02*
X144449937Y-97052262D01*
X144449937Y-97052262D02*
X144208032Y-97112738D01*
X144208032Y-97112738D02*
X144026603Y-97112738D01*
X144026603Y-97112738D02*
X143784699Y-97052262D01*
X143784699Y-97052262D02*
X143663746Y-96991785D01*
X143663746Y-96991785D02*
X143542794Y-96870833D01*
X143542794Y-96870833D02*
X143482318Y-96689404D01*
X143482318Y-96689404D02*
X143482318Y-96568452D01*
X143482318Y-96568452D02*
X143542794Y-96387023D01*
X143542794Y-96387023D02*
X143603270Y-96326547D01*
X144752318Y-95117023D02*
X144752318Y-95842738D01*
X144752318Y-95479881D02*
X143482318Y-95479881D01*
X143482318Y-95479881D02*
X143663746Y-95600833D01*
X143663746Y-95600833D02*
X143784699Y-95721785D01*
X143784699Y-95721785D02*
X143845175Y-95842738D01*
X144752318Y-93907499D02*
X144752318Y-94633214D01*
X144752318Y-94270357D02*
X143482318Y-94270357D01*
X143482318Y-94270357D02*
X143663746Y-94391309D01*
X143663746Y-94391309D02*
X143784699Y-94512261D01*
X143784699Y-94512261D02*
X143845175Y-94633214D01*
D12*
X189899580Y-108513811D02*
X189947200Y-108561430D01*
X189947200Y-108561430D02*
X189994819Y-108704287D01*
X189994819Y-108704287D02*
X189994819Y-108799525D01*
X189994819Y-108799525D02*
X189947200Y-108942382D01*
X189947200Y-108942382D02*
X189851961Y-109037620D01*
X189851961Y-109037620D02*
X189756723Y-109085239D01*
X189756723Y-109085239D02*
X189566247Y-109132858D01*
X189566247Y-109132858D02*
X189423390Y-109132858D01*
X189423390Y-109132858D02*
X189232914Y-109085239D01*
X189232914Y-109085239D02*
X189137676Y-109037620D01*
X189137676Y-109037620D02*
X189042438Y-108942382D01*
X189042438Y-108942382D02*
X188994819Y-108799525D01*
X188994819Y-108799525D02*
X188994819Y-108704287D01*
X188994819Y-108704287D02*
X189042438Y-108561430D01*
X189042438Y-108561430D02*
X189090057Y-108513811D01*
X189994819Y-107942382D02*
X189947200Y-108037620D01*
X189947200Y-108037620D02*
X189899580Y-108085239D01*
X189899580Y-108085239D02*
X189804342Y-108132858D01*
X189804342Y-108132858D02*
X189518628Y-108132858D01*
X189518628Y-108132858D02*
X189423390Y-108085239D01*
X189423390Y-108085239D02*
X189375771Y-108037620D01*
X189375771Y-108037620D02*
X189328152Y-107942382D01*
X189328152Y-107942382D02*
X189328152Y-107799525D01*
X189328152Y-107799525D02*
X189375771Y-107704287D01*
X189375771Y-107704287D02*
X189423390Y-107656668D01*
X189423390Y-107656668D02*
X189518628Y-107609049D01*
X189518628Y-107609049D02*
X189804342Y-107609049D01*
X189804342Y-107609049D02*
X189899580Y-107656668D01*
X189899580Y-107656668D02*
X189947200Y-107704287D01*
X189947200Y-107704287D02*
X189994819Y-107799525D01*
X189994819Y-107799525D02*
X189994819Y-107942382D01*
X189328152Y-107180477D02*
X189994819Y-107180477D01*
X189423390Y-107180477D02*
X189375771Y-107132858D01*
X189375771Y-107132858D02*
X189328152Y-107037620D01*
X189328152Y-107037620D02*
X189328152Y-106894763D01*
X189328152Y-106894763D02*
X189375771Y-106799525D01*
X189375771Y-106799525D02*
X189471009Y-106751906D01*
X189471009Y-106751906D02*
X189994819Y-106751906D01*
X189328152Y-106275715D02*
X189994819Y-106275715D01*
X189423390Y-106275715D02*
X189375771Y-106228096D01*
X189375771Y-106228096D02*
X189328152Y-106132858D01*
X189328152Y-106132858D02*
X189328152Y-105990001D01*
X189328152Y-105990001D02*
X189375771Y-105894763D01*
X189375771Y-105894763D02*
X189471009Y-105847144D01*
X189471009Y-105847144D02*
X189994819Y-105847144D01*
X190090057Y-105609049D02*
X190090057Y-104847144D01*
X188994819Y-104418572D02*
X188994819Y-104323334D01*
X188994819Y-104323334D02*
X189042438Y-104228096D01*
X189042438Y-104228096D02*
X189090057Y-104180477D01*
X189090057Y-104180477D02*
X189185295Y-104132858D01*
X189185295Y-104132858D02*
X189375771Y-104085239D01*
X189375771Y-104085239D02*
X189613866Y-104085239D01*
X189613866Y-104085239D02*
X189804342Y-104132858D01*
X189804342Y-104132858D02*
X189899580Y-104180477D01*
X189899580Y-104180477D02*
X189947200Y-104228096D01*
X189947200Y-104228096D02*
X189994819Y-104323334D01*
X189994819Y-104323334D02*
X189994819Y-104418572D01*
X189994819Y-104418572D02*
X189947200Y-104513810D01*
X189947200Y-104513810D02*
X189899580Y-104561429D01*
X189899580Y-104561429D02*
X189804342Y-104609048D01*
X189804342Y-104609048D02*
X189613866Y-104656667D01*
X189613866Y-104656667D02*
X189375771Y-104656667D01*
X189375771Y-104656667D02*
X189185295Y-104609048D01*
X189185295Y-104609048D02*
X189090057Y-104561429D01*
X189090057Y-104561429D02*
X189042438Y-104513810D01*
X189042438Y-104513810D02*
X188994819Y-104418572D01*
X189090057Y-103704286D02*
X189042438Y-103656667D01*
X189042438Y-103656667D02*
X188994819Y-103561429D01*
X188994819Y-103561429D02*
X188994819Y-103323334D01*
X188994819Y-103323334D02*
X189042438Y-103228096D01*
X189042438Y-103228096D02*
X189090057Y-103180477D01*
X189090057Y-103180477D02*
X189185295Y-103132858D01*
X189185295Y-103132858D02*
X189280533Y-103132858D01*
X189280533Y-103132858D02*
X189423390Y-103180477D01*
X189423390Y-103180477D02*
X189994819Y-103751905D01*
X189994819Y-103751905D02*
X189994819Y-103132858D01*
X189994819Y-102799524D02*
X189328152Y-102275715D01*
X189328152Y-102799524D02*
X189994819Y-102275715D01*
X189994819Y-101370953D02*
X189994819Y-101942381D01*
X189994819Y-101656667D02*
X188994819Y-101656667D01*
X188994819Y-101656667D02*
X189137676Y-101751905D01*
X189137676Y-101751905D02*
X189232914Y-101847143D01*
X189232914Y-101847143D02*
X189280533Y-101942381D01*
X188994819Y-100751905D02*
X188994819Y-100656667D01*
X188994819Y-100656667D02*
X189042438Y-100561429D01*
X189042438Y-100561429D02*
X189090057Y-100513810D01*
X189090057Y-100513810D02*
X189185295Y-100466191D01*
X189185295Y-100466191D02*
X189375771Y-100418572D01*
X189375771Y-100418572D02*
X189613866Y-100418572D01*
X189613866Y-100418572D02*
X189804342Y-100466191D01*
X189804342Y-100466191D02*
X189899580Y-100513810D01*
X189899580Y-100513810D02*
X189947200Y-100561429D01*
X189947200Y-100561429D02*
X189994819Y-100656667D01*
X189994819Y-100656667D02*
X189994819Y-100751905D01*
X189994819Y-100751905D02*
X189947200Y-100847143D01*
X189947200Y-100847143D02*
X189899580Y-100894762D01*
X189899580Y-100894762D02*
X189804342Y-100942381D01*
X189804342Y-100942381D02*
X189613866Y-100990000D01*
X189613866Y-100990000D02*
X189375771Y-100990000D01*
X189375771Y-100990000D02*
X189185295Y-100942381D01*
X189185295Y-100942381D02*
X189090057Y-100894762D01*
X189090057Y-100894762D02*
X189042438Y-100847143D01*
X189042438Y-100847143D02*
X188994819Y-100751905D01*
X190090057Y-100228096D02*
X190090057Y-99466191D01*
X189899580Y-98656667D02*
X189947200Y-98704286D01*
X189947200Y-98704286D02*
X189994819Y-98847143D01*
X189994819Y-98847143D02*
X189994819Y-98942381D01*
X189994819Y-98942381D02*
X189947200Y-99085238D01*
X189947200Y-99085238D02*
X189851961Y-99180476D01*
X189851961Y-99180476D02*
X189756723Y-99228095D01*
X189756723Y-99228095D02*
X189566247Y-99275714D01*
X189566247Y-99275714D02*
X189423390Y-99275714D01*
X189423390Y-99275714D02*
X189232914Y-99228095D01*
X189232914Y-99228095D02*
X189137676Y-99180476D01*
X189137676Y-99180476D02*
X189042438Y-99085238D01*
X189042438Y-99085238D02*
X188994819Y-98942381D01*
X188994819Y-98942381D02*
X188994819Y-98847143D01*
X188994819Y-98847143D02*
X189042438Y-98704286D01*
X189042438Y-98704286D02*
X189090057Y-98656667D01*
X189994819Y-98085238D02*
X189947200Y-98180476D01*
X189947200Y-98180476D02*
X189899580Y-98228095D01*
X189899580Y-98228095D02*
X189804342Y-98275714D01*
X189804342Y-98275714D02*
X189518628Y-98275714D01*
X189518628Y-98275714D02*
X189423390Y-98228095D01*
X189423390Y-98228095D02*
X189375771Y-98180476D01*
X189375771Y-98180476D02*
X189328152Y-98085238D01*
X189328152Y-98085238D02*
X189328152Y-97942381D01*
X189328152Y-97942381D02*
X189375771Y-97847143D01*
X189375771Y-97847143D02*
X189423390Y-97799524D01*
X189423390Y-97799524D02*
X189518628Y-97751905D01*
X189518628Y-97751905D02*
X189804342Y-97751905D01*
X189804342Y-97751905D02*
X189899580Y-97799524D01*
X189899580Y-97799524D02*
X189947200Y-97847143D01*
X189947200Y-97847143D02*
X189994819Y-97942381D01*
X189994819Y-97942381D02*
X189994819Y-98085238D01*
X189328152Y-96894762D02*
X189994819Y-96894762D01*
X189328152Y-97323333D02*
X189851961Y-97323333D01*
X189851961Y-97323333D02*
X189947200Y-97275714D01*
X189947200Y-97275714D02*
X189994819Y-97180476D01*
X189994819Y-97180476D02*
X189994819Y-97037619D01*
X189994819Y-97037619D02*
X189947200Y-96942381D01*
X189947200Y-96942381D02*
X189899580Y-96894762D01*
X189328152Y-96418571D02*
X189994819Y-96418571D01*
X189423390Y-96418571D02*
X189375771Y-96370952D01*
X189375771Y-96370952D02*
X189328152Y-96275714D01*
X189328152Y-96275714D02*
X189328152Y-96132857D01*
X189328152Y-96132857D02*
X189375771Y-96037619D01*
X189375771Y-96037619D02*
X189471009Y-95990000D01*
X189471009Y-95990000D02*
X189994819Y-95990000D01*
X189328152Y-95656666D02*
X189328152Y-95275714D01*
X188994819Y-95513809D02*
X189851961Y-95513809D01*
X189851961Y-95513809D02*
X189947200Y-95466190D01*
X189947200Y-95466190D02*
X189994819Y-95370952D01*
X189994819Y-95370952D02*
X189994819Y-95275714D01*
X189947200Y-94561428D02*
X189994819Y-94656666D01*
X189994819Y-94656666D02*
X189994819Y-94847142D01*
X189994819Y-94847142D02*
X189947200Y-94942380D01*
X189947200Y-94942380D02*
X189851961Y-94989999D01*
X189851961Y-94989999D02*
X189471009Y-94989999D01*
X189471009Y-94989999D02*
X189375771Y-94942380D01*
X189375771Y-94942380D02*
X189328152Y-94847142D01*
X189328152Y-94847142D02*
X189328152Y-94656666D01*
X189328152Y-94656666D02*
X189375771Y-94561428D01*
X189375771Y-94561428D02*
X189471009Y-94513809D01*
X189471009Y-94513809D02*
X189566247Y-94513809D01*
X189566247Y-94513809D02*
X189661485Y-94989999D01*
X189994819Y-94085237D02*
X189328152Y-94085237D01*
X189518628Y-94085237D02*
X189423390Y-94037618D01*
X189423390Y-94037618D02*
X189375771Y-93989999D01*
X189375771Y-93989999D02*
X189328152Y-93894761D01*
X189328152Y-93894761D02*
X189328152Y-93799523D01*
X190090057Y-93704285D02*
X190090057Y-92942380D01*
X189899580Y-92132856D02*
X189947200Y-92180475D01*
X189947200Y-92180475D02*
X189994819Y-92323332D01*
X189994819Y-92323332D02*
X189994819Y-92418570D01*
X189994819Y-92418570D02*
X189947200Y-92561427D01*
X189947200Y-92561427D02*
X189851961Y-92656665D01*
X189851961Y-92656665D02*
X189756723Y-92704284D01*
X189756723Y-92704284D02*
X189566247Y-92751903D01*
X189566247Y-92751903D02*
X189423390Y-92751903D01*
X189423390Y-92751903D02*
X189232914Y-92704284D01*
X189232914Y-92704284D02*
X189137676Y-92656665D01*
X189137676Y-92656665D02*
X189042438Y-92561427D01*
X189042438Y-92561427D02*
X188994819Y-92418570D01*
X188994819Y-92418570D02*
X188994819Y-92323332D01*
X188994819Y-92323332D02*
X189042438Y-92180475D01*
X189042438Y-92180475D02*
X189090057Y-92132856D01*
X189994819Y-91561427D02*
X189947200Y-91656665D01*
X189947200Y-91656665D02*
X189851961Y-91704284D01*
X189851961Y-91704284D02*
X188994819Y-91704284D01*
X189994819Y-91037617D02*
X189947200Y-91132855D01*
X189947200Y-91132855D02*
X189899580Y-91180474D01*
X189899580Y-91180474D02*
X189804342Y-91228093D01*
X189804342Y-91228093D02*
X189518628Y-91228093D01*
X189518628Y-91228093D02*
X189423390Y-91180474D01*
X189423390Y-91180474D02*
X189375771Y-91132855D01*
X189375771Y-91132855D02*
X189328152Y-91037617D01*
X189328152Y-91037617D02*
X189328152Y-90894760D01*
X189328152Y-90894760D02*
X189375771Y-90799522D01*
X189375771Y-90799522D02*
X189423390Y-90751903D01*
X189423390Y-90751903D02*
X189518628Y-90704284D01*
X189518628Y-90704284D02*
X189804342Y-90704284D01*
X189804342Y-90704284D02*
X189899580Y-90751903D01*
X189899580Y-90751903D02*
X189947200Y-90799522D01*
X189947200Y-90799522D02*
X189994819Y-90894760D01*
X189994819Y-90894760D02*
X189994819Y-91037617D01*
X189947200Y-89847141D02*
X189994819Y-89942379D01*
X189994819Y-89942379D02*
X189994819Y-90132855D01*
X189994819Y-90132855D02*
X189947200Y-90228093D01*
X189947200Y-90228093D02*
X189899580Y-90275712D01*
X189899580Y-90275712D02*
X189804342Y-90323331D01*
X189804342Y-90323331D02*
X189518628Y-90323331D01*
X189518628Y-90323331D02*
X189423390Y-90275712D01*
X189423390Y-90275712D02*
X189375771Y-90228093D01*
X189375771Y-90228093D02*
X189328152Y-90132855D01*
X189328152Y-90132855D02*
X189328152Y-89942379D01*
X189328152Y-89942379D02*
X189375771Y-89847141D01*
X189994819Y-89418569D02*
X188994819Y-89418569D01*
X189613866Y-89323331D02*
X189994819Y-89037617D01*
X189328152Y-89037617D02*
X189709104Y-89418569D01*
X189328152Y-88704283D02*
X189994819Y-88513807D01*
X189994819Y-88513807D02*
X189518628Y-88323331D01*
X189518628Y-88323331D02*
X189994819Y-88132855D01*
X189994819Y-88132855D02*
X189328152Y-87942379D01*
X189994819Y-87561426D02*
X189328152Y-87561426D01*
X188994819Y-87561426D02*
X189042438Y-87609045D01*
X189042438Y-87609045D02*
X189090057Y-87561426D01*
X189090057Y-87561426D02*
X189042438Y-87513807D01*
X189042438Y-87513807D02*
X188994819Y-87561426D01*
X188994819Y-87561426D02*
X189090057Y-87561426D01*
X189947200Y-87132855D02*
X189994819Y-87037617D01*
X189994819Y-87037617D02*
X189994819Y-86847141D01*
X189994819Y-86847141D02*
X189947200Y-86751903D01*
X189947200Y-86751903D02*
X189851961Y-86704284D01*
X189851961Y-86704284D02*
X189804342Y-86704284D01*
X189804342Y-86704284D02*
X189709104Y-86751903D01*
X189709104Y-86751903D02*
X189661485Y-86847141D01*
X189661485Y-86847141D02*
X189661485Y-86989998D01*
X189661485Y-86989998D02*
X189613866Y-87085236D01*
X189613866Y-87085236D02*
X189518628Y-87132855D01*
X189518628Y-87132855D02*
X189471009Y-87132855D01*
X189471009Y-87132855D02*
X189375771Y-87085236D01*
X189375771Y-87085236D02*
X189328152Y-86989998D01*
X189328152Y-86989998D02*
X189328152Y-86847141D01*
X189328152Y-86847141D02*
X189375771Y-86751903D01*
X189947200Y-85894760D02*
X189994819Y-85989998D01*
X189994819Y-85989998D02*
X189994819Y-86180474D01*
X189994819Y-86180474D02*
X189947200Y-86275712D01*
X189947200Y-86275712D02*
X189851961Y-86323331D01*
X189851961Y-86323331D02*
X189471009Y-86323331D01*
X189471009Y-86323331D02*
X189375771Y-86275712D01*
X189375771Y-86275712D02*
X189328152Y-86180474D01*
X189328152Y-86180474D02*
X189328152Y-85989998D01*
X189328152Y-85989998D02*
X189375771Y-85894760D01*
X189375771Y-85894760D02*
X189471009Y-85847141D01*
X189471009Y-85847141D02*
X189566247Y-85847141D01*
X189566247Y-85847141D02*
X189661485Y-86323331D01*
X124727142Y-95969580D02*
X124679523Y-96017200D01*
X124679523Y-96017200D02*
X124536666Y-96064819D01*
X124536666Y-96064819D02*
X124441428Y-96064819D01*
X124441428Y-96064819D02*
X124298571Y-96017200D01*
X124298571Y-96017200D02*
X124203333Y-95921961D01*
X124203333Y-95921961D02*
X124155714Y-95826723D01*
X124155714Y-95826723D02*
X124108095Y-95636247D01*
X124108095Y-95636247D02*
X124108095Y-95493390D01*
X124108095Y-95493390D02*
X124155714Y-95302914D01*
X124155714Y-95302914D02*
X124203333Y-95207676D01*
X124203333Y-95207676D02*
X124298571Y-95112438D01*
X124298571Y-95112438D02*
X124441428Y-95064819D01*
X124441428Y-95064819D02*
X124536666Y-95064819D01*
X124536666Y-95064819D02*
X124679523Y-95112438D01*
X124679523Y-95112438D02*
X124727142Y-95160057D01*
X125060476Y-95064819D02*
X125679523Y-95064819D01*
X125679523Y-95064819D02*
X125346190Y-95445771D01*
X125346190Y-95445771D02*
X125489047Y-95445771D01*
X125489047Y-95445771D02*
X125584285Y-95493390D01*
X125584285Y-95493390D02*
X125631904Y-95541009D01*
X125631904Y-95541009D02*
X125679523Y-95636247D01*
X125679523Y-95636247D02*
X125679523Y-95874342D01*
X125679523Y-95874342D02*
X125631904Y-95969580D01*
X125631904Y-95969580D02*
X125584285Y-96017200D01*
X125584285Y-96017200D02*
X125489047Y-96064819D01*
X125489047Y-96064819D02*
X125203333Y-96064819D01*
X125203333Y-96064819D02*
X125108095Y-96017200D01*
X125108095Y-96017200D02*
X125060476Y-95969580D01*
X126298571Y-95064819D02*
X126393809Y-95064819D01*
X126393809Y-95064819D02*
X126489047Y-95112438D01*
X126489047Y-95112438D02*
X126536666Y-95160057D01*
X126536666Y-95160057D02*
X126584285Y-95255295D01*
X126584285Y-95255295D02*
X126631904Y-95445771D01*
X126631904Y-95445771D02*
X126631904Y-95683866D01*
X126631904Y-95683866D02*
X126584285Y-95874342D01*
X126584285Y-95874342D02*
X126536666Y-95969580D01*
X126536666Y-95969580D02*
X126489047Y-96017200D01*
X126489047Y-96017200D02*
X126393809Y-96064819D01*
X126393809Y-96064819D02*
X126298571Y-96064819D01*
X126298571Y-96064819D02*
X126203333Y-96017200D01*
X126203333Y-96017200D02*
X126155714Y-95969580D01*
X126155714Y-95969580D02*
X126108095Y-95874342D01*
X126108095Y-95874342D02*
X126060476Y-95683866D01*
X126060476Y-95683866D02*
X126060476Y-95445771D01*
X126060476Y-95445771D02*
X126108095Y-95255295D01*
X126108095Y-95255295D02*
X126155714Y-95160057D01*
X126155714Y-95160057D02*
X126203333Y-95112438D01*
X126203333Y-95112438D02*
X126298571Y-95064819D01*
X136624819Y-88098094D02*
X135624819Y-88098094D01*
X135624819Y-88098094D02*
X135624819Y-87859999D01*
X135624819Y-87859999D02*
X135672438Y-87717142D01*
X135672438Y-87717142D02*
X135767676Y-87621904D01*
X135767676Y-87621904D02*
X135862914Y-87574285D01*
X135862914Y-87574285D02*
X136053390Y-87526666D01*
X136053390Y-87526666D02*
X136196247Y-87526666D01*
X136196247Y-87526666D02*
X136386723Y-87574285D01*
X136386723Y-87574285D02*
X136481961Y-87621904D01*
X136481961Y-87621904D02*
X136577200Y-87717142D01*
X136577200Y-87717142D02*
X136624819Y-87859999D01*
X136624819Y-87859999D02*
X136624819Y-88098094D01*
X136624819Y-87050475D02*
X136624819Y-86859999D01*
X136624819Y-86859999D02*
X136577200Y-86764761D01*
X136577200Y-86764761D02*
X136529580Y-86717142D01*
X136529580Y-86717142D02*
X136386723Y-86621904D01*
X136386723Y-86621904D02*
X136196247Y-86574285D01*
X136196247Y-86574285D02*
X135815295Y-86574285D01*
X135815295Y-86574285D02*
X135720057Y-86621904D01*
X135720057Y-86621904D02*
X135672438Y-86669523D01*
X135672438Y-86669523D02*
X135624819Y-86764761D01*
X135624819Y-86764761D02*
X135624819Y-86955237D01*
X135624819Y-86955237D02*
X135672438Y-87050475D01*
X135672438Y-87050475D02*
X135720057Y-87098094D01*
X135720057Y-87098094D02*
X135815295Y-87145713D01*
X135815295Y-87145713D02*
X136053390Y-87145713D01*
X136053390Y-87145713D02*
X136148628Y-87098094D01*
X136148628Y-87098094D02*
X136196247Y-87050475D01*
X136196247Y-87050475D02*
X136243866Y-86955237D01*
X136243866Y-86955237D02*
X136243866Y-86764761D01*
X136243866Y-86764761D02*
X136196247Y-86669523D01*
X136196247Y-86669523D02*
X136148628Y-86621904D01*
X136148628Y-86621904D02*
X136053390Y-86574285D01*
X144993905Y-127006819D02*
X144993905Y-126006819D01*
X144993905Y-126006819D02*
X145232000Y-126006819D01*
X145232000Y-126006819D02*
X145374857Y-126054438D01*
X145374857Y-126054438D02*
X145470095Y-126149676D01*
X145470095Y-126149676D02*
X145517714Y-126244914D01*
X145517714Y-126244914D02*
X145565333Y-126435390D01*
X145565333Y-126435390D02*
X145565333Y-126578247D01*
X145565333Y-126578247D02*
X145517714Y-126768723D01*
X145517714Y-126768723D02*
X145470095Y-126863961D01*
X145470095Y-126863961D02*
X145374857Y-126959200D01*
X145374857Y-126959200D02*
X145232000Y-127006819D01*
X145232000Y-127006819D02*
X144993905Y-127006819D01*
X145946286Y-126102057D02*
X145993905Y-126054438D01*
X145993905Y-126054438D02*
X146089143Y-126006819D01*
X146089143Y-126006819D02*
X146327238Y-126006819D01*
X146327238Y-126006819D02*
X146422476Y-126054438D01*
X146422476Y-126054438D02*
X146470095Y-126102057D01*
X146470095Y-126102057D02*
X146517714Y-126197295D01*
X146517714Y-126197295D02*
X146517714Y-126292533D01*
X146517714Y-126292533D02*
X146470095Y-126435390D01*
X146470095Y-126435390D02*
X145898667Y-127006819D01*
X145898667Y-127006819D02*
X146517714Y-127006819D01*
D14*
X144614318Y-103307024D02*
X143344318Y-103307024D01*
X144493365Y-101976547D02*
X144553842Y-102037023D01*
X144553842Y-102037023D02*
X144614318Y-102218452D01*
X144614318Y-102218452D02*
X144614318Y-102339404D01*
X144614318Y-102339404D02*
X144553842Y-102520833D01*
X144553842Y-102520833D02*
X144432889Y-102641785D01*
X144432889Y-102641785D02*
X144311937Y-102702262D01*
X144311937Y-102702262D02*
X144070032Y-102762738D01*
X144070032Y-102762738D02*
X143888603Y-102762738D01*
X143888603Y-102762738D02*
X143646699Y-102702262D01*
X143646699Y-102702262D02*
X143525746Y-102641785D01*
X143525746Y-102641785D02*
X143404794Y-102520833D01*
X143404794Y-102520833D02*
X143344318Y-102339404D01*
X143344318Y-102339404D02*
X143344318Y-102218452D01*
X143344318Y-102218452D02*
X143404794Y-102037023D01*
X143404794Y-102037023D02*
X143465270Y-101976547D01*
X144614318Y-100767023D02*
X144614318Y-101492738D01*
X144614318Y-101129881D02*
X143344318Y-101129881D01*
X143344318Y-101129881D02*
X143525746Y-101250833D01*
X143525746Y-101250833D02*
X143646699Y-101371785D01*
X143646699Y-101371785D02*
X143707175Y-101492738D01*
X143344318Y-99980833D02*
X143344318Y-99859880D01*
X143344318Y-99859880D02*
X143404794Y-99738928D01*
X143404794Y-99738928D02*
X143465270Y-99678452D01*
X143465270Y-99678452D02*
X143586222Y-99617976D01*
X143586222Y-99617976D02*
X143828127Y-99557499D01*
X143828127Y-99557499D02*
X144130508Y-99557499D01*
X144130508Y-99557499D02*
X144372413Y-99617976D01*
X144372413Y-99617976D02*
X144493365Y-99678452D01*
X144493365Y-99678452D02*
X144553842Y-99738928D01*
X144553842Y-99738928D02*
X144614318Y-99859880D01*
X144614318Y-99859880D02*
X144614318Y-99980833D01*
X144614318Y-99980833D02*
X144553842Y-100101785D01*
X144553842Y-100101785D02*
X144493365Y-100162261D01*
X144493365Y-100162261D02*
X144372413Y-100222738D01*
X144372413Y-100222738D02*
X144130508Y-100283214D01*
X144130508Y-100283214D02*
X143828127Y-100283214D01*
X143828127Y-100283214D02*
X143586222Y-100222738D01*
X143586222Y-100222738D02*
X143465270Y-100162261D01*
X143465270Y-100162261D02*
X143404794Y-100101785D01*
X143404794Y-100101785D02*
X143344318Y-99980833D01*
D12*
X145718905Y-130286819D02*
X145718905Y-129286819D01*
X145718905Y-129286819D02*
X145957000Y-129286819D01*
X145957000Y-129286819D02*
X146099857Y-129334438D01*
X146099857Y-129334438D02*
X146195095Y-129429676D01*
X146195095Y-129429676D02*
X146242714Y-129524914D01*
X146242714Y-129524914D02*
X146290333Y-129715390D01*
X146290333Y-129715390D02*
X146290333Y-129858247D01*
X146290333Y-129858247D02*
X146242714Y-130048723D01*
X146242714Y-130048723D02*
X146195095Y-130143961D01*
X146195095Y-130143961D02*
X146099857Y-130239200D01*
X146099857Y-130239200D02*
X145957000Y-130286819D01*
X145957000Y-130286819D02*
X145718905Y-130286819D01*
X147242714Y-130286819D02*
X146671286Y-130286819D01*
X146957000Y-130286819D02*
X146957000Y-129286819D01*
X146957000Y-129286819D02*
X146861762Y-129429676D01*
X146861762Y-129429676D02*
X146766524Y-129524914D01*
X146766524Y-129524914D02*
X146671286Y-129572533D01*
X161451595Y-92507919D02*
X161451595Y-93317442D01*
X161451595Y-93317442D02*
X161499214Y-93412680D01*
X161499214Y-93412680D02*
X161546833Y-93460300D01*
X161546833Y-93460300D02*
X161642071Y-93507919D01*
X161642071Y-93507919D02*
X161832547Y-93507919D01*
X161832547Y-93507919D02*
X161927785Y-93460300D01*
X161927785Y-93460300D02*
X161975404Y-93412680D01*
X161975404Y-93412680D02*
X162023023Y-93317442D01*
X162023023Y-93317442D02*
X162023023Y-92507919D01*
X162975404Y-92507919D02*
X162499214Y-92507919D01*
X162499214Y-92507919D02*
X162451595Y-92984109D01*
X162451595Y-92984109D02*
X162499214Y-92936490D01*
X162499214Y-92936490D02*
X162594452Y-92888871D01*
X162594452Y-92888871D02*
X162832547Y-92888871D01*
X162832547Y-92888871D02*
X162927785Y-92936490D01*
X162927785Y-92936490D02*
X162975404Y-92984109D01*
X162975404Y-92984109D02*
X163023023Y-93079347D01*
X163023023Y-93079347D02*
X163023023Y-93317442D01*
X163023023Y-93317442D02*
X162975404Y-93412680D01*
X162975404Y-93412680D02*
X162927785Y-93460300D01*
X162927785Y-93460300D02*
X162832547Y-93507919D01*
X162832547Y-93507919D02*
X162594452Y-93507919D01*
X162594452Y-93507919D02*
X162499214Y-93460300D01*
X162499214Y-93460300D02*
X162451595Y-93412680D01*
X158710000Y-89847319D02*
X158710000Y-90085414D01*
X158471905Y-89990176D02*
X158710000Y-90085414D01*
X158710000Y-90085414D02*
X158948095Y-89990176D01*
X158567143Y-90275890D02*
X158710000Y-90085414D01*
X158710000Y-90085414D02*
X158852857Y-90275890D01*
D14*
X144614318Y-91807024D02*
X143344318Y-91807024D01*
X144493365Y-90476547D02*
X144553842Y-90537023D01*
X144553842Y-90537023D02*
X144614318Y-90718452D01*
X144614318Y-90718452D02*
X144614318Y-90839404D01*
X144614318Y-90839404D02*
X144553842Y-91020833D01*
X144553842Y-91020833D02*
X144432889Y-91141785D01*
X144432889Y-91141785D02*
X144311937Y-91202262D01*
X144311937Y-91202262D02*
X144070032Y-91262738D01*
X144070032Y-91262738D02*
X143888603Y-91262738D01*
X143888603Y-91262738D02*
X143646699Y-91202262D01*
X143646699Y-91202262D02*
X143525746Y-91141785D01*
X143525746Y-91141785D02*
X143404794Y-91020833D01*
X143404794Y-91020833D02*
X143344318Y-90839404D01*
X143344318Y-90839404D02*
X143344318Y-90718452D01*
X143344318Y-90718452D02*
X143404794Y-90537023D01*
X143404794Y-90537023D02*
X143465270Y-90476547D01*
X144614318Y-89267023D02*
X144614318Y-89992738D01*
X144614318Y-89629881D02*
X143344318Y-89629881D01*
X143344318Y-89629881D02*
X143525746Y-89750833D01*
X143525746Y-89750833D02*
X143646699Y-89871785D01*
X143646699Y-89871785D02*
X143707175Y-89992738D01*
X143465270Y-88783214D02*
X143404794Y-88722738D01*
X143404794Y-88722738D02*
X143344318Y-88601785D01*
X143344318Y-88601785D02*
X143344318Y-88299404D01*
X143344318Y-88299404D02*
X143404794Y-88178452D01*
X143404794Y-88178452D02*
X143465270Y-88117976D01*
X143465270Y-88117976D02*
X143586222Y-88057499D01*
X143586222Y-88057499D02*
X143707175Y-88057499D01*
X143707175Y-88057499D02*
X143888603Y-88117976D01*
X143888603Y-88117976D02*
X144614318Y-88843690D01*
X144614318Y-88843690D02*
X144614318Y-88057499D01*
D15*
%TO.C,U7*%
X159416000Y-102503500D02*
X159416000Y-102872614D01*
X159416000Y-107722386D02*
X159416000Y-108091500D01*
X159416000Y-108091500D02*
X165004000Y-108091500D01*
X165004000Y-102503500D02*
X159416000Y-102503500D01*
X165004000Y-102872614D02*
X165004000Y-102503500D01*
X165004000Y-108091500D02*
X165004000Y-107722386D01*
D11*
%TO.C,IC9*%
X142190000Y-104712500D02*
X145890000Y-104712500D01*
X142190000Y-109712500D02*
X142190000Y-104712500D01*
X145890000Y-104712500D02*
X145890000Y-109712500D01*
X145890000Y-109712500D02*
X142190000Y-109712500D01*
X147715000Y-110062500D02*
X146240000Y-110062500D01*
D12*
%TO.C,JP2*%
X150622000Y-131244000D02*
X151122000Y-130744000D01*
X150622000Y-134844000D02*
X150622000Y-131244000D01*
X151122000Y-130744000D02*
X151922000Y-130744000D01*
X151122000Y-135344000D02*
X150622000Y-134844000D01*
X151922000Y-130744000D02*
X152422000Y-131244000D01*
X151922000Y-135344000D02*
X151122000Y-135344000D01*
X152422000Y-131244000D02*
X152422000Y-134844000D01*
X152422000Y-134844000D02*
X151922000Y-135344000D01*
D16*
%TO.C,Q53*%
X145967500Y-134650000D02*
X147487500Y-134650000D01*
X145967500Y-135650000D02*
X145967500Y-134650000D01*
X145967500Y-137770000D02*
X145967500Y-136770000D01*
X147487500Y-134650000D02*
X147487500Y-134700000D01*
X147487500Y-135820000D02*
X147487500Y-136600000D01*
X147487500Y-137720000D02*
X147487500Y-137770000D01*
X147487500Y-137770000D02*
X145967500Y-137770000D01*
X148027500Y-136590000D02*
X147787500Y-136260000D01*
X148267500Y-136260000D01*
X148027500Y-136590000D01*
G36*
X148027500Y-136590000D02*
G01*
X147787500Y-136260000D01*
X148267500Y-136260000D01*
X148027500Y-136590000D01*
G37*
%TO.C,U4*%
X169575000Y-126290000D02*
X170525000Y-126290000D01*
X169575000Y-127240000D02*
X169575000Y-126290000D01*
X169575000Y-136510000D02*
X169575000Y-135560000D01*
X170525000Y-136510000D02*
X169575000Y-136510000D01*
X178845000Y-126290000D02*
X179795000Y-126290000D01*
X179795000Y-126290000D02*
X179795000Y-127240000D01*
X179795000Y-135560000D02*
X179795000Y-136510000D01*
X179795000Y-136510000D02*
X178845000Y-136510000D01*
X168935000Y-127240000D02*
X168595000Y-126770000D01*
X169275000Y-126770000D01*
X168935000Y-127240000D01*
G36*
X168935000Y-127240000D02*
G01*
X168595000Y-126770000D01*
X169275000Y-126770000D01*
X168935000Y-127240000D01*
G37*
%TO.C,R2_ILIM1*%
X180530000Y-70382936D02*
X180530000Y-70837064D01*
X182000000Y-70382936D02*
X182000000Y-70837064D01*
D17*
%TO.C,IC4*%
X179940000Y-72835000D02*
G75*
G02*
X179690000Y-72835000I-125000J0D01*
G01*
X179690000Y-72835000D02*
G75*
G02*
X179940000Y-72835000I125000J0D01*
G01*
D16*
%TO.C,Q12*%
X122231250Y-115890000D02*
X123751250Y-115890000D01*
X122231250Y-116890000D02*
X122231250Y-115890000D01*
X122231250Y-119010000D02*
X122231250Y-118010000D01*
X123751250Y-115890000D02*
X123751250Y-115940000D01*
X123751250Y-117060000D02*
X123751250Y-117840000D01*
X123751250Y-118960000D02*
X123751250Y-119010000D01*
X123751250Y-119010000D02*
X122231250Y-119010000D01*
X124291250Y-117830000D02*
X124051250Y-117500000D01*
X124531250Y-117500000D01*
X124291250Y-117830000D01*
G36*
X124291250Y-117830000D02*
G01*
X124051250Y-117500000D01*
X124531250Y-117500000D01*
X124291250Y-117830000D01*
G37*
%TO.C,U2*%
X182760029Y-78340000D02*
X182855029Y-78340000D01*
X182760029Y-82460000D02*
X182760029Y-78340000D01*
X182855029Y-82460000D02*
X182760029Y-82460000D01*
X187785029Y-78340000D02*
X187880029Y-78340000D01*
X187880029Y-78340000D02*
X187880029Y-82460000D01*
X187880029Y-82460000D02*
X187785029Y-82460000D01*
X182850029Y-83000000D02*
X182520029Y-83240000D01*
X182520029Y-82760000D01*
X182850029Y-83000000D01*
G36*
X182850029Y-83000000D02*
G01*
X182520029Y-83240000D01*
X182520029Y-82760000D01*
X182850029Y-83000000D01*
G37*
D17*
%TO.C,IC5*%
X180090029Y-81725000D02*
G75*
G02*
X179840029Y-81725000I-125000J0D01*
G01*
X179840029Y-81725000D02*
G75*
G02*
X180090029Y-81725000I125000J0D01*
G01*
D15*
%TO.C,U14*%
X111745600Y-121830599D02*
X111745600Y-125183399D01*
X115098400Y-125183399D02*
X115098400Y-121830599D01*
X114974342Y-121506999D02*
G75*
G02*
X115122000Y-121506999I73829J18860D01*
G01*
D16*
%TO.C,R32*%
X109384937Y-119139799D02*
X109839065Y-119139799D01*
X109384937Y-120609799D02*
X109839065Y-120609799D01*
D10*
%TO.C,D3*%
X126717500Y-127650000D02*
G75*
G02*
X126617500Y-127650000I-50000J0D01*
G01*
X126617500Y-127650000D02*
G75*
G02*
X126717500Y-127650000I50000J0D01*
G01*
D16*
%TO.C,J53*%
X140790000Y-138470000D02*
X166410000Y-138470000D01*
X140790000Y-141120000D02*
X140790000Y-138470000D01*
X140790000Y-143770000D02*
X140790000Y-142390000D01*
X142170000Y-143770000D02*
X140790000Y-143770000D01*
X143440000Y-141120000D02*
X140790000Y-141120000D01*
X143440000Y-143770000D02*
X143440000Y-141120000D01*
X143440000Y-143770000D02*
X166410000Y-143770000D01*
X166410000Y-143770000D02*
X166410000Y-138470000D01*
%TO.C,Q17*%
X161600000Y-115590000D02*
X163120000Y-115590000D01*
X161600000Y-116590000D02*
X161600000Y-115590000D01*
X161600000Y-118710000D02*
X161600000Y-117710000D01*
X163120000Y-115590000D02*
X163120000Y-115640000D01*
X163120000Y-116760000D02*
X163120000Y-117540000D01*
X163120000Y-118660000D02*
X163120000Y-118710000D01*
X163120000Y-118710000D02*
X161600000Y-118710000D01*
X163660000Y-117530000D02*
X163420000Y-117200000D01*
X163900000Y-117200000D01*
X163660000Y-117530000D01*
G36*
X163660000Y-117530000D02*
G01*
X163420000Y-117200000D01*
X163900000Y-117200000D01*
X163660000Y-117530000D01*
G37*
%TO.C,R17*%
X136647064Y-95125000D02*
X136192936Y-95125000D01*
X136647064Y-96595000D02*
X136192936Y-96595000D01*
%TO.C,Q15*%
X130168750Y-115890000D02*
X131688750Y-115890000D01*
X130168750Y-115940000D02*
X130168750Y-115890000D01*
X130168750Y-117840000D02*
X130168750Y-117060000D01*
X130168750Y-119010000D02*
X130168750Y-118960000D01*
X131688750Y-115890000D02*
X131688750Y-116890000D01*
X131688750Y-118010000D02*
X131688750Y-119010000D01*
X131688750Y-119010000D02*
X130168750Y-119010000D01*
X129868750Y-117400000D02*
X129388750Y-117400000D01*
X129628750Y-117070000D01*
X129868750Y-117400000D01*
G36*
X129868750Y-117400000D02*
G01*
X129388750Y-117400000D01*
X129628750Y-117070000D01*
X129868750Y-117400000D01*
G37*
D10*
%TO.C,D4*%
X183437500Y-130050000D02*
G75*
G02*
X183337500Y-130050000I-50000J0D01*
G01*
X183337500Y-130050000D02*
G75*
G02*
X183437500Y-130050000I50000J0D01*
G01*
D16*
%TO.C,R8*%
X131667064Y-140485000D02*
X131212936Y-140485000D01*
X131667064Y-141955000D02*
X131212936Y-141955000D01*
%TO.C,Q11*%
X126330000Y-121560000D02*
X127850000Y-121560000D01*
X126330000Y-121610000D02*
X126330000Y-121560000D01*
X126330000Y-123510000D02*
X126330000Y-122730000D01*
X126330000Y-124680000D02*
X126330000Y-124630000D01*
X127850000Y-121560000D02*
X127850000Y-122560000D01*
X127850000Y-123680000D02*
X127850000Y-124680000D01*
X127850000Y-124680000D02*
X126330000Y-124680000D01*
X126030000Y-123070000D02*
X125550000Y-123070000D01*
X125790000Y-122740000D01*
X126030000Y-123070000D01*
G36*
X126030000Y-123070000D02*
G01*
X125550000Y-123070000D01*
X125790000Y-122740000D01*
X126030000Y-123070000D01*
G37*
D11*
%TO.C,IC50*%
X117975000Y-103980000D02*
X119450000Y-103980000D01*
X119800000Y-104330000D02*
X123500000Y-104330000D01*
X119800000Y-109330000D02*
X119800000Y-104330000D01*
X123500000Y-104330000D02*
X123500000Y-109330000D01*
X123500000Y-109330000D02*
X119800000Y-109330000D01*
D16*
%TO.C,J50*%
X104290000Y-85470000D02*
X105670000Y-85470000D01*
X104290000Y-86850000D02*
X104290000Y-85470000D01*
X104290000Y-88120000D02*
X104290000Y-111090000D01*
X104290000Y-88120000D02*
X106940000Y-88120000D01*
X104290000Y-111090000D02*
X109590000Y-111090000D01*
X106940000Y-85470000D02*
X109590000Y-85470000D01*
X106940000Y-88120000D02*
X106940000Y-85470000D01*
X109590000Y-85470000D02*
X109590000Y-111090000D01*
D12*
%TO.C,JP1*%
X119515000Y-120535000D02*
X120015000Y-120035000D01*
X119515000Y-124135000D02*
X119515000Y-120535000D01*
X120015000Y-120035000D02*
X120815000Y-120035000D01*
X120015000Y-124635000D02*
X119515000Y-124135000D01*
X120815000Y-120035000D02*
X121315000Y-120535000D01*
X120815000Y-124635000D02*
X120015000Y-124635000D01*
X121315000Y-120535000D02*
X121315000Y-124135000D01*
X121315000Y-124135000D02*
X120815000Y-124635000D01*
D16*
%TO.C,R11*%
X177942776Y-110127500D02*
X178452224Y-110127500D01*
X177942776Y-111172500D02*
X178452224Y-111172500D01*
%TO.C,R29*%
X113179001Y-127521735D02*
X113179001Y-127975863D01*
X114649001Y-127521735D02*
X114649001Y-127975863D01*
%TO.C,J2*%
X142180000Y-112490000D02*
X143560000Y-112490000D01*
X142180000Y-113870000D02*
X142180000Y-112490000D01*
X142180000Y-115140000D02*
X142180000Y-125410000D01*
X142180000Y-115140000D02*
X144940000Y-115140000D01*
X142180000Y-125410000D02*
X144940000Y-125410000D01*
X144940000Y-115140000D02*
X144940000Y-125410000D01*
%TO.C,R7*%
X175382936Y-140415000D02*
X175837064Y-140415000D01*
X175382936Y-141885000D02*
X175837064Y-141885000D01*
%TO.C,R4_FAULT1*%
X175125000Y-79172936D02*
X175125000Y-79627064D01*
X176595000Y-79172936D02*
X176595000Y-79627064D01*
%TO.C,R30*%
X155105000Y-132780936D02*
X155105000Y-133235064D01*
X156575000Y-132780936D02*
X156575000Y-133235064D01*
%TO.C,R33*%
X151310936Y-124415000D02*
X151765064Y-124415000D01*
X151310936Y-125885000D02*
X151765064Y-125885000D01*
%TO.C,Q51*%
X123210000Y-82760000D02*
X124730000Y-82760000D01*
X123210000Y-82810000D02*
X123210000Y-82760000D01*
X123210000Y-84710000D02*
X123210000Y-83930000D01*
X123210000Y-85880000D02*
X123210000Y-85830000D01*
X124730000Y-82760000D02*
X124730000Y-83760000D01*
X124730000Y-84880000D02*
X124730000Y-85880000D01*
X124730000Y-85880000D02*
X123210000Y-85880000D01*
X122910000Y-84270000D02*
X122430000Y-84270000D01*
X122670000Y-83940000D01*
X122910000Y-84270000D01*
G36*
X122910000Y-84270000D02*
G01*
X122430000Y-84270000D01*
X122670000Y-83940000D01*
X122910000Y-84270000D01*
G37*
%TO.C,R56*%
X126764186Y-115465000D02*
X127218314Y-115465000D01*
X126764186Y-116935000D02*
X127218314Y-116935000D01*
%TO.C,C24*%
X178368733Y-73100000D02*
X178661267Y-73100000D01*
X178368733Y-74120000D02*
X178661267Y-74120000D01*
%TO.C,D8*%
X129270000Y-94620000D02*
X129270000Y-89110000D01*
X129270000Y-94620000D02*
X132570000Y-94620000D01*
X132570000Y-94620000D02*
X132570000Y-89110000D01*
%TO.C,Q16*%
X165737500Y-121140000D02*
X167257500Y-121140000D01*
X165737500Y-121190000D02*
X165737500Y-121140000D01*
X165737500Y-123090000D02*
X165737500Y-122310000D01*
X165737500Y-124260000D02*
X165737500Y-124210000D01*
X167257500Y-121140000D02*
X167257500Y-122140000D01*
X167257500Y-123260000D02*
X167257500Y-124260000D01*
X167257500Y-124260000D02*
X165737500Y-124260000D01*
X165437500Y-122650000D02*
X164957500Y-122650000D01*
X165197500Y-122320000D01*
X165437500Y-122650000D01*
G36*
X165437500Y-122650000D02*
G01*
X164957500Y-122650000D01*
X165197500Y-122320000D01*
X165437500Y-122650000D01*
G37*
D10*
%TO.C,D5*%
X183945000Y-127250000D02*
G75*
G02*
X183845000Y-127250000I-50000J0D01*
G01*
X183845000Y-127250000D02*
G75*
G02*
X183945000Y-127250000I50000J0D01*
G01*
D16*
%TO.C,D7*%
X125770000Y-94620000D02*
X125770000Y-89110000D01*
X125770000Y-94620000D02*
X129070000Y-94620000D01*
X129070000Y-94620000D02*
X129070000Y-89110000D01*
%TO.C,C46*%
X157117233Y-125148000D02*
X157409767Y-125148000D01*
X157117233Y-126168000D02*
X157409767Y-126168000D01*
%TO.C,C44*%
X115584268Y-119872799D02*
X115291734Y-119872799D01*
X115584268Y-120892799D02*
X115291734Y-120892799D01*
%TO.C,Q52*%
X178370000Y-88580000D02*
X179890000Y-88580000D01*
X178370000Y-88630000D02*
X178370000Y-88580000D01*
X178370000Y-90530000D02*
X178370000Y-89750000D01*
X178370000Y-91700000D02*
X178370000Y-91650000D01*
X179890000Y-88580000D02*
X179890000Y-89580000D01*
X179890000Y-90700000D02*
X179890000Y-91700000D01*
X179890000Y-91700000D02*
X178370000Y-91700000D01*
X178070000Y-90090000D02*
X177590000Y-90090000D01*
X177830000Y-89760000D01*
X178070000Y-90090000D01*
G36*
X178070000Y-90090000D02*
G01*
X177590000Y-90090000D01*
X177830000Y-89760000D01*
X178070000Y-90090000D01*
G37*
%TO.C,J51*%
X133420000Y-80280000D02*
X159040000Y-80280000D01*
X133420000Y-82930000D02*
X133420000Y-80280000D01*
X133420000Y-85580000D02*
X133420000Y-84200000D01*
X134800000Y-85580000D02*
X133420000Y-85580000D01*
X136070000Y-82930000D02*
X133420000Y-82930000D01*
X136070000Y-85580000D02*
X136070000Y-82930000D01*
X136070000Y-85580000D02*
X159040000Y-85580000D01*
X159040000Y-85580000D02*
X159040000Y-80280000D01*
%TO.C,J3*%
X180780000Y-113350000D02*
X182160000Y-113350000D01*
X180780000Y-114730000D02*
X180780000Y-113350000D01*
X180780000Y-116000000D02*
X180780000Y-126270000D01*
X180780000Y-116000000D02*
X183540000Y-116000000D01*
X180780000Y-126270000D02*
X183540000Y-126270000D01*
X183540000Y-116000000D02*
X183540000Y-126270000D01*
%TO.C,Q20*%
X169400000Y-115590000D02*
X170920000Y-115590000D01*
X169400000Y-115640000D02*
X169400000Y-115590000D01*
X169400000Y-117540000D02*
X169400000Y-116760000D01*
X169400000Y-118710000D02*
X169400000Y-118660000D01*
X170920000Y-115590000D02*
X170920000Y-116590000D01*
X170920000Y-117710000D02*
X170920000Y-118710000D01*
X170920000Y-118710000D02*
X169400000Y-118710000D01*
X169100000Y-117100000D02*
X168620000Y-117100000D01*
X168860000Y-116770000D01*
X169100000Y-117100000D01*
G36*
X169100000Y-117100000D02*
G01*
X168620000Y-117100000D01*
X168860000Y-116770000D01*
X169100000Y-117100000D01*
G37*
%TO.C,R10*%
X177935276Y-108597500D02*
X178444724Y-108597500D01*
X177935276Y-109642500D02*
X178444724Y-109642500D01*
%TO.C,U3*%
X130575000Y-126290000D02*
X131525000Y-126290000D01*
X130575000Y-127240000D02*
X130575000Y-126290000D01*
X130575000Y-136510000D02*
X130575000Y-135560000D01*
X131525000Y-136510000D02*
X130575000Y-136510000D01*
X139845000Y-126290000D02*
X140795000Y-126290000D01*
X140795000Y-126290000D02*
X140795000Y-127240000D01*
X140795000Y-135560000D02*
X140795000Y-136510000D01*
X140795000Y-136510000D02*
X139845000Y-136510000D01*
X129935000Y-127240000D02*
X129595000Y-126770000D01*
X130275000Y-126770000D01*
X129935000Y-127240000D01*
G36*
X129935000Y-127240000D02*
G01*
X129595000Y-126770000D01*
X130275000Y-126770000D01*
X129935000Y-127240000D01*
G37*
%TO.C,R57*%
X166587064Y-119215000D02*
X166132936Y-119215000D01*
X166587064Y-120685000D02*
X166132936Y-120685000D01*
D18*
%TO.C,G\u002A\u002A\u002A*%
G36*
X187684221Y-141086799D02*
G01*
X187699877Y-141099242D01*
X187721241Y-141117676D01*
X187746201Y-141140215D01*
X187772646Y-141164975D01*
X187798462Y-141190068D01*
X187808950Y-141200599D01*
X187845852Y-141240260D01*
X187881972Y-141283022D01*
X187914876Y-141325737D01*
X187942131Y-141365256D01*
X187960409Y-141396639D01*
X187974913Y-141419497D01*
X187992029Y-141438530D01*
X188000140Y-141444798D01*
X188018650Y-141455390D01*
X188046479Y-141470195D01*
X188080316Y-141487558D01*
X188116852Y-141505820D01*
X188152777Y-141523326D01*
X188184782Y-141538418D01*
X188207036Y-141548371D01*
X188227965Y-141557517D01*
X188237458Y-141562886D01*
X188236886Y-141566173D01*
X188227622Y-141569068D01*
X188224443Y-141569847D01*
X188203658Y-141573547D01*
X188180125Y-141574555D01*
X188150131Y-141572834D01*
X188113039Y-141568735D01*
X188084358Y-141564267D01*
X188050721Y-141557669D01*
X188015232Y-141549714D01*
X187980992Y-141541176D01*
X187951103Y-141532830D01*
X187928667Y-141525449D01*
X187916786Y-141519807D01*
X187916719Y-141519752D01*
X187908685Y-141508368D01*
X187907639Y-141503410D01*
X187904320Y-141491787D01*
X187895073Y-141470130D01*
X187880962Y-141440448D01*
X187863050Y-141404749D01*
X187842402Y-141365043D01*
X187820081Y-141323337D01*
X187797152Y-141281640D01*
X187774678Y-141241962D01*
X187753724Y-141206311D01*
X187735353Y-141176695D01*
X187731278Y-141170452D01*
X187711340Y-141139990D01*
X187694792Y-141114082D01*
X187682865Y-141094709D01*
X187676795Y-141083854D01*
X187676384Y-141082233D01*
X187684221Y-141086799D01*
G37*
G36*
X187441447Y-139879072D02*
G01*
X187453976Y-139881748D01*
X187463590Y-139886276D01*
X187465559Y-139887521D01*
X187479196Y-139900871D01*
X187481615Y-139917906D01*
X187481593Y-139918099D01*
X187478775Y-139926582D01*
X187471204Y-139936623D01*
X187457375Y-139949543D01*
X187435783Y-139966666D01*
X187404924Y-139989314D01*
X187381954Y-140005666D01*
X187302057Y-140062737D01*
X187232724Y-140113586D01*
X187172632Y-140159252D01*
X187120460Y-140200772D01*
X187074885Y-140239182D01*
X187034588Y-140275520D01*
X187018032Y-140291270D01*
X186988412Y-140321100D01*
X186959965Y-140351864D01*
X186934041Y-140381853D01*
X186911991Y-140409356D01*
X186895163Y-140432664D01*
X186884909Y-140450065D01*
X186882579Y-140459849D01*
X186883922Y-140461171D01*
X186893293Y-140460647D01*
X186911772Y-140457169D01*
X186931465Y-140452468D01*
X186992137Y-140442686D01*
X187058354Y-140442314D01*
X187125812Y-140450919D01*
X187190205Y-140468064D01*
X187225293Y-140482137D01*
X187263587Y-140499839D01*
X187211367Y-140504650D01*
X187118534Y-140518706D01*
X187032719Y-140542906D01*
X186961670Y-140573621D01*
X186949043Y-140580796D01*
X186944199Y-140586141D01*
X186948453Y-140590385D01*
X186963117Y-140594257D01*
X186989505Y-140598484D01*
X187012032Y-140601564D01*
X187072299Y-140614025D01*
X187121304Y-140634065D01*
X187159720Y-140662085D01*
X187188219Y-140698485D01*
X187194618Y-140710448D01*
X187203437Y-140729845D01*
X187208638Y-140746670D01*
X187210904Y-140765438D01*
X187210919Y-140790662D01*
X187210055Y-140812452D01*
X187207913Y-140845631D01*
X187204108Y-140871015D01*
X187197171Y-140894443D01*
X187185633Y-140921752D01*
X187178951Y-140936015D01*
X187139554Y-141006087D01*
X187091231Y-141070786D01*
X187035816Y-141128470D01*
X186975141Y-141177497D01*
X186911040Y-141216225D01*
X186845344Y-141243011D01*
X186832199Y-141246784D01*
X186775318Y-141255413D01*
X186712649Y-141253305D01*
X186646650Y-141240943D01*
X186579782Y-141218810D01*
X186514501Y-141187388D01*
X186506551Y-141182817D01*
X186485157Y-141170727D01*
X186468438Y-141162106D01*
X186460022Y-141158823D01*
X186454066Y-141164999D01*
X186444280Y-141182073D01*
X186431617Y-141207864D01*
X186417029Y-141240193D01*
X186401467Y-141276877D01*
X186385885Y-141315737D01*
X186371233Y-141354591D01*
X186358464Y-141391259D01*
X186358195Y-141392074D01*
X186343161Y-141439761D01*
X186330682Y-141483402D01*
X186321242Y-141520992D01*
X186315322Y-141550527D01*
X186313402Y-141570001D01*
X186314132Y-141575448D01*
X186320035Y-141573536D01*
X186334926Y-141563965D01*
X186357084Y-141547975D01*
X186384788Y-141526809D01*
X186416027Y-141501944D01*
X186447591Y-141476596D01*
X186475282Y-141454820D01*
X186497368Y-141437940D01*
X186512118Y-141427277D01*
X186517788Y-141424136D01*
X186517833Y-141431766D01*
X186515950Y-141449907D01*
X186512508Y-141475334D01*
X186510350Y-141489552D01*
X186506507Y-141525100D01*
X186504109Y-141571025D01*
X186503108Y-141623856D01*
X186503459Y-141680126D01*
X186505115Y-141736364D01*
X186508028Y-141789103D01*
X186512152Y-141834871D01*
X186515324Y-141858403D01*
X186524217Y-141913931D01*
X186617766Y-141816626D01*
X186646259Y-141787161D01*
X186670871Y-141762043D01*
X186690219Y-141742652D01*
X186702925Y-141730370D01*
X186707606Y-141726578D01*
X186707531Y-141726826D01*
X186704417Y-141735770D01*
X186698230Y-141755694D01*
X186689697Y-141784179D01*
X186679545Y-141818810D01*
X186672145Y-141844438D01*
X186637903Y-141977431D01*
X186612222Y-142107271D01*
X186598311Y-142206712D01*
X186594479Y-142238438D01*
X186590692Y-142265299D01*
X186587435Y-142284107D01*
X186585501Y-142291277D01*
X186580461Y-142289112D01*
X186570224Y-142276960D01*
X186556436Y-142256961D01*
X186545326Y-142239056D01*
X186490973Y-142140409D01*
X186446598Y-142043736D01*
X186412678Y-141950349D01*
X186389685Y-141861560D01*
X186378095Y-141778678D01*
X186377961Y-141776764D01*
X186375655Y-141749615D01*
X186373037Y-141728710D01*
X186370538Y-141717189D01*
X186369588Y-141715902D01*
X186362901Y-141719939D01*
X186347171Y-141731046D01*
X186324374Y-141747778D01*
X186296489Y-141768693D01*
X186278363Y-141782477D01*
X186191329Y-141848990D01*
X186185731Y-141805044D01*
X186183162Y-141769344D01*
X186182843Y-141723542D01*
X186184612Y-141671249D01*
X186188302Y-141616078D01*
X186193751Y-141561640D01*
X186198412Y-141526644D01*
X186215281Y-141438866D01*
X186239641Y-141347504D01*
X186269639Y-141259303D01*
X186276955Y-141240634D01*
X186287763Y-141212890D01*
X186295719Y-141190704D01*
X186299925Y-141176703D01*
X186300027Y-141173154D01*
X186291807Y-141174058D01*
X186272671Y-141176208D01*
X186245536Y-141179277D01*
X186215698Y-141182664D01*
X186184032Y-141186113D01*
X186157921Y-141188670D01*
X186140175Y-141190079D01*
X186133631Y-141190126D01*
X186134400Y-141182617D01*
X186140373Y-141165911D01*
X186150181Y-141143085D01*
X186162452Y-141117220D01*
X186175817Y-141091392D01*
X186184230Y-141076444D01*
X186202872Y-141046950D01*
X186224747Y-141015621D01*
X186240794Y-140994676D01*
X186271606Y-140956847D01*
X186254181Y-140922460D01*
X186221108Y-140842246D01*
X186201544Y-140758759D01*
X186195480Y-140671925D01*
X186196181Y-140663399D01*
X186350754Y-140663399D01*
X186352212Y-140715381D01*
X186362807Y-140768032D01*
X186369509Y-140790063D01*
X186395693Y-140851325D01*
X186432016Y-140909222D01*
X186476640Y-140962269D01*
X186527725Y-141008978D01*
X186583432Y-141047861D01*
X186641920Y-141077430D01*
X186701351Y-141096200D01*
X186756114Y-141102663D01*
X186781007Y-141100925D01*
X186806174Y-141094046D01*
X186836823Y-141080549D01*
X186840460Y-141078744D01*
X186882529Y-141053120D01*
X186923811Y-141019659D01*
X186962543Y-140980630D01*
X186996962Y-140938304D01*
X187025306Y-140894949D01*
X187045812Y-140852834D01*
X187056717Y-140814230D01*
X187058022Y-140798662D01*
X187054573Y-140780194D01*
X187042758Y-140767018D01*
X187020848Y-140758071D01*
X186987112Y-140752291D01*
X186981597Y-140751699D01*
X186912549Y-140739993D01*
X186850389Y-140719020D01*
X186815399Y-140701911D01*
X186793393Y-140690585D01*
X186776480Y-140683125D01*
X186767959Y-140680967D01*
X186767656Y-140681134D01*
X186765728Y-140689162D01*
X186763475Y-140707712D01*
X186761276Y-140733394D01*
X186760471Y-140745321D01*
X186756678Y-140806116D01*
X186743078Y-140789320D01*
X186715443Y-140745260D01*
X186695745Y-140692716D01*
X186684960Y-140635268D01*
X186684066Y-140576494D01*
X186684277Y-140573830D01*
X186692343Y-140524720D01*
X186707686Y-140471004D01*
X186728311Y-140418467D01*
X186752225Y-140372891D01*
X186755168Y-140368246D01*
X186775971Y-140340331D01*
X186805767Y-140306093D01*
X186842429Y-140267594D01*
X186883828Y-140226896D01*
X186927839Y-140186058D01*
X186972333Y-140147141D01*
X187015184Y-140112206D01*
X187035119Y-140097031D01*
X187064275Y-140075159D01*
X187088731Y-140056258D01*
X187106625Y-140041812D01*
X187116094Y-140033306D01*
X187117070Y-140031722D01*
X187109232Y-140032402D01*
X187090658Y-140037372D01*
X187063581Y-140045850D01*
X187030233Y-140057051D01*
X186992848Y-140070193D01*
X186953658Y-140084492D01*
X186914896Y-140099165D01*
X186878793Y-140113429D01*
X186850450Y-140125256D01*
X186741300Y-140176712D01*
X186645763Y-140230903D01*
X186563792Y-140287863D01*
X186495340Y-140347627D01*
X186440360Y-140410226D01*
X186430809Y-140423327D01*
X186405474Y-140462913D01*
X186386358Y-140502242D01*
X186371664Y-140545834D01*
X186359593Y-140598209D01*
X186358066Y-140606198D01*
X186350754Y-140663399D01*
X186196181Y-140663399D01*
X186202903Y-140581669D01*
X186204665Y-140570814D01*
X186225467Y-140484562D01*
X186257644Y-140404287D01*
X186301568Y-140329518D01*
X186357606Y-140259786D01*
X186426132Y-140194621D01*
X186507513Y-140133553D01*
X186588823Y-140083526D01*
X186678586Y-140038357D01*
X186779387Y-139997498D01*
X186888833Y-139961583D01*
X187004534Y-139931240D01*
X187124095Y-139907103D01*
X187245125Y-139889802D01*
X187358957Y-139880290D01*
X187396680Y-139878529D01*
X187423263Y-139878061D01*
X187441447Y-139879072D01*
G37*
G36*
X187105214Y-139215095D02*
G01*
X187261113Y-139225720D01*
X187406192Y-139241868D01*
X187542630Y-139264067D01*
X187672606Y-139292845D01*
X187798299Y-139328732D01*
X187921887Y-139372254D01*
X188045551Y-139423942D01*
X188129950Y-139463608D01*
X188234440Y-139514779D01*
X188246379Y-139476905D01*
X188253571Y-139456414D01*
X188259800Y-139442661D01*
X188262893Y-139439031D01*
X188270624Y-139442010D01*
X188287936Y-139450065D01*
X188312044Y-139461868D01*
X188332989Y-139472421D01*
X188444727Y-139537027D01*
X188550926Y-139613767D01*
X188650797Y-139701684D01*
X188743552Y-139799823D01*
X188828405Y-139907226D01*
X188904566Y-140022939D01*
X188971249Y-140146006D01*
X189027665Y-140275469D01*
X189053139Y-140346366D01*
X189079233Y-140436118D01*
X189100069Y-140531581D01*
X189115037Y-140628645D01*
X189123530Y-140723201D01*
X189124939Y-140811137D01*
X189124338Y-140827111D01*
X189123214Y-140862304D01*
X189123849Y-140883684D01*
X189126267Y-140891252D01*
X189130493Y-140885014D01*
X189136549Y-140864971D01*
X189144462Y-140831127D01*
X189144760Y-140829753D01*
X189150261Y-140794530D01*
X189154059Y-140749234D01*
X189155860Y-140697646D01*
X189155960Y-140685358D01*
X189154794Y-140619273D01*
X189150584Y-140554811D01*
X189142919Y-140489066D01*
X189131386Y-140419130D01*
X189115572Y-140342098D01*
X189095065Y-140255063D01*
X189094721Y-140253669D01*
X189082445Y-140202987D01*
X189073717Y-140163928D01*
X189068301Y-140134711D01*
X189065962Y-140113557D01*
X189066462Y-140098688D01*
X189069567Y-140088324D01*
X189072221Y-140084005D01*
X189080041Y-140075705D01*
X189088841Y-140075458D01*
X189102250Y-140081691D01*
X189127253Y-140099678D01*
X189156530Y-140128942D01*
X189189073Y-140167871D01*
X189223874Y-140214857D01*
X189259927Y-140268291D01*
X189296222Y-140326563D01*
X189331752Y-140388065D01*
X189365510Y-140451185D01*
X189396486Y-140514316D01*
X189423675Y-140575848D01*
X189443227Y-140626172D01*
X189479101Y-140734446D01*
X189505210Y-140833509D01*
X189521495Y-140924136D01*
X189527896Y-141007103D01*
X189524355Y-141083185D01*
X189510813Y-141153156D01*
X189487210Y-141217791D01*
X189453487Y-141277867D01*
X189409585Y-141334157D01*
X189387460Y-141357493D01*
X189323790Y-141412218D01*
X189248815Y-141460762D01*
X189169290Y-141499888D01*
X189126727Y-141516467D01*
X189078063Y-141532866D01*
X189028062Y-141547667D01*
X188981491Y-141559454D01*
X188945084Y-141566523D01*
X188924813Y-141571565D01*
X188905910Y-141581652D01*
X188884077Y-141599300D01*
X188875457Y-141607248D01*
X188841194Y-141636760D01*
X188798694Y-141669238D01*
X188752270Y-141701608D01*
X188706234Y-141730799D01*
X188683982Y-141743645D01*
X188657279Y-141758509D01*
X188640628Y-141769062D01*
X188632081Y-141778056D01*
X188629689Y-141788244D01*
X188631504Y-141802379D01*
X188633898Y-141814390D01*
X188636513Y-141842412D01*
X188635921Y-141880623D01*
X188632418Y-141925738D01*
X188626301Y-141974469D01*
X188617864Y-142023528D01*
X188613008Y-142046538D01*
X188608282Y-142063461D01*
X188599292Y-142091806D01*
X188586603Y-142129932D01*
X188570779Y-142176198D01*
X188552385Y-142228964D01*
X188531984Y-142286590D01*
X188510141Y-142347435D01*
X188498056Y-142380749D01*
X188394095Y-142666251D01*
X188399477Y-142725434D01*
X188403829Y-142784775D01*
X188404847Y-142832395D01*
X188402426Y-142870119D01*
X188396461Y-142899772D01*
X188388325Y-142920390D01*
X188377246Y-142938901D01*
X188358683Y-142965575D01*
X188332317Y-143000821D01*
X188297832Y-143045052D01*
X188254909Y-143098678D01*
X188203231Y-143162110D01*
X188173705Y-143198001D01*
X188147957Y-143229427D01*
X188125917Y-143255913D01*
X188106164Y-143277880D01*
X188087274Y-143295749D01*
X188067824Y-143309942D01*
X188046391Y-143320879D01*
X188021554Y-143328982D01*
X187991888Y-143334672D01*
X187955971Y-143338369D01*
X187912381Y-143340494D01*
X187859694Y-143341469D01*
X187796487Y-143341715D01*
X187721339Y-143341652D01*
X187688313Y-143341635D01*
X187610108Y-143341594D01*
X187544449Y-143341367D01*
X187489957Y-143340796D01*
X187445253Y-143339723D01*
X187408956Y-143337990D01*
X187379690Y-143335439D01*
X187356073Y-143331913D01*
X187336726Y-143327253D01*
X187320271Y-143321302D01*
X187305329Y-143313902D01*
X187290519Y-143304895D01*
X187274733Y-143294308D01*
X187255164Y-143282190D01*
X187242504Y-143278159D01*
X187233205Y-143281110D01*
X187232957Y-143281284D01*
X187157996Y-143328382D01*
X187077444Y-143367080D01*
X186989926Y-143397788D01*
X186894063Y-143420914D01*
X186788480Y-143436869D01*
X186680372Y-143445628D01*
X186612399Y-143449196D01*
X186616987Y-143430229D01*
X186622723Y-143409586D01*
X186627346Y-143395596D01*
X186629859Y-143388680D01*
X186630101Y-143384014D01*
X186626076Y-143381416D01*
X186615789Y-143380704D01*
X186597244Y-143381697D01*
X186568448Y-143384212D01*
X186535983Y-143387263D01*
X186499019Y-143389823D01*
X186450845Y-143391781D01*
X186394163Y-143393140D01*
X186331678Y-143393901D01*
X186266091Y-143394064D01*
X186200105Y-143393631D01*
X186136424Y-143392602D01*
X186077748Y-143390979D01*
X186026783Y-143388762D01*
X185999854Y-143387062D01*
X185949354Y-143382889D01*
X185895438Y-143377647D01*
X185839678Y-143371563D01*
X185783645Y-143364864D01*
X185728909Y-143357780D01*
X185677041Y-143350538D01*
X185629611Y-143343365D01*
X185588192Y-143336490D01*
X185554353Y-143330141D01*
X185529666Y-143324546D01*
X185515700Y-143319932D01*
X185513988Y-143316551D01*
X185522900Y-143312825D01*
X185543094Y-143305081D01*
X185572741Y-143293996D01*
X185610013Y-143280250D01*
X185653082Y-143264520D01*
X185698091Y-143248217D01*
X185747652Y-143230170D01*
X185795563Y-143212417D01*
X185839435Y-143195866D01*
X185876882Y-143181425D01*
X185905516Y-143170002D01*
X185920551Y-143163612D01*
X185968522Y-143141961D01*
X185881488Y-143112448D01*
X185841271Y-143098394D01*
X185798670Y-143082817D01*
X185759150Y-143067751D01*
X185731789Y-143056751D01*
X185706592Y-143045676D01*
X185674062Y-143030575D01*
X185636590Y-143012642D01*
X185596568Y-142993073D01*
X185556386Y-142973061D01*
X185518437Y-142953801D01*
X185485110Y-142936488D01*
X185458797Y-142922315D01*
X185441889Y-142912478D01*
X185438737Y-142910356D01*
X185435032Y-142907657D01*
X185432975Y-142905440D01*
X185433881Y-142903552D01*
X185439070Y-142901840D01*
X185449856Y-142900151D01*
X185467559Y-142898332D01*
X185493493Y-142896230D01*
X185528977Y-142893694D01*
X185575328Y-142890568D01*
X185633862Y-142886702D01*
X185653897Y-142885381D01*
X185765633Y-142874127D01*
X185868938Y-142855803D01*
X185962705Y-142830688D01*
X186045825Y-142799067D01*
X186098558Y-142772369D01*
X186121181Y-142758036D01*
X186149922Y-142737816D01*
X186180338Y-142714905D01*
X186197703Y-142701065D01*
X186223478Y-142679629D01*
X186239422Y-142665209D01*
X186246770Y-142656369D01*
X186246758Y-142651673D01*
X186241735Y-142649840D01*
X186227690Y-142649230D01*
X186201464Y-142649685D01*
X186164755Y-142651101D01*
X186119258Y-142653375D01*
X186066671Y-142656402D01*
X186008689Y-142660079D01*
X185947009Y-142664301D01*
X185883327Y-142668964D01*
X185819340Y-142673965D01*
X185756743Y-142679199D01*
X185742233Y-142680468D01*
X185622063Y-142691486D01*
X185503602Y-142703144D01*
X185388867Y-142715217D01*
X185279876Y-142727475D01*
X185178646Y-142739693D01*
X185087194Y-142751643D01*
X185007539Y-142763098D01*
X185004185Y-142763610D01*
X184873757Y-142783914D01*
X184754738Y-142803167D01*
X184644693Y-142821811D01*
X184541187Y-142840290D01*
X184441783Y-142859047D01*
X184344046Y-142878526D01*
X184245541Y-142899168D01*
X184175621Y-142914372D01*
X184115301Y-142927695D01*
X184065190Y-142938864D01*
X184022152Y-142948624D01*
X183983052Y-142957722D01*
X183944754Y-142966907D01*
X183904121Y-142976925D01*
X183858017Y-142988523D01*
X183803307Y-143002448D01*
X183768114Y-143011446D01*
X183706434Y-143027231D01*
X183656948Y-143039872D01*
X183618355Y-143049654D01*
X183589353Y-143056864D01*
X183568641Y-143061790D01*
X183554917Y-143064718D01*
X183546879Y-143065935D01*
X183543227Y-143065729D01*
X183542658Y-143064385D01*
X183543872Y-143062191D01*
X183544874Y-143060651D01*
X183552323Y-143052876D01*
X183569116Y-143037722D01*
X183593693Y-143016475D01*
X183624499Y-142990425D01*
X183659976Y-142960857D01*
X183698567Y-142929061D01*
X183738715Y-142896323D01*
X183778864Y-142863930D01*
X183817455Y-142833171D01*
X183852932Y-142805333D01*
X183863828Y-142796901D01*
X184035975Y-142667565D01*
X184203597Y-142548560D01*
X184369235Y-142438221D01*
X184535433Y-142334880D01*
X184704733Y-142236872D01*
X184788341Y-142190965D01*
X184896263Y-142132703D01*
X184851005Y-142136981D01*
X184693531Y-142153681D01*
X184526400Y-142174780D01*
X184352977Y-142199739D01*
X184176627Y-142228021D01*
X184000714Y-142259090D01*
X183828605Y-142292408D01*
X183677787Y-142324303D01*
X183537868Y-142355640D01*
X183409485Y-142385358D01*
X183290429Y-142414063D01*
X183178491Y-142442361D01*
X183071460Y-142470858D01*
X182967126Y-142500160D01*
X182863280Y-142530873D01*
X182757712Y-142563602D01*
X182648213Y-142598955D01*
X182532571Y-142637536D01*
X182520235Y-142641714D01*
X182472701Y-142657744D01*
X182429770Y-142672055D01*
X182393115Y-142684102D01*
X182364412Y-142693340D01*
X182345335Y-142699226D01*
X182337558Y-142701214D01*
X182337464Y-142701164D01*
X182342616Y-142695045D01*
X182357142Y-142681279D01*
X182379647Y-142661048D01*
X182408735Y-142635533D01*
X182443010Y-142605916D01*
X182481077Y-142573377D01*
X182521540Y-142539098D01*
X182563002Y-142504260D01*
X182604069Y-142470045D01*
X182643345Y-142437633D01*
X182679434Y-142408206D01*
X182710941Y-142382945D01*
X182736469Y-142363032D01*
X182741301Y-142359368D01*
X182803464Y-142313422D01*
X183072013Y-142313422D01*
X183079093Y-142312434D01*
X183097839Y-142308468D01*
X183126417Y-142301949D01*
X183162989Y-142293302D01*
X183205721Y-142282955D01*
X183243726Y-142273584D01*
X183577764Y-142195136D01*
X183904458Y-142127655D01*
X184224825Y-142070971D01*
X184539883Y-142024916D01*
X184850650Y-141989321D01*
X185070331Y-141970223D01*
X185094982Y-141968549D01*
X185130177Y-141966416D01*
X185174052Y-141963917D01*
X185224741Y-141961145D01*
X185280377Y-141958193D01*
X185339095Y-141955155D01*
X185399029Y-141952124D01*
X185458314Y-141949193D01*
X185515084Y-141946454D01*
X185567473Y-141944003D01*
X185613615Y-141941930D01*
X185651646Y-141940331D01*
X185679698Y-141939297D01*
X185695906Y-141938923D01*
X185696842Y-141938926D01*
X185716887Y-141939335D01*
X185724737Y-141940775D01*
X185722122Y-141944200D01*
X185714382Y-141948622D01*
X185702285Y-141954315D01*
X185679806Y-141964120D01*
X185649484Y-141976958D01*
X185613860Y-141991750D01*
X185585572Y-142003322D01*
X185513217Y-142032746D01*
X185452291Y-142057562D01*
X185401317Y-142078384D01*
X185358817Y-142095829D01*
X185323310Y-142110511D01*
X185293320Y-142123045D01*
X185267368Y-142134047D01*
X185243975Y-142144133D01*
X185221662Y-142153917D01*
X185198952Y-142164015D01*
X185192178Y-142167046D01*
X185088295Y-142215515D01*
X184976653Y-142271135D01*
X184860292Y-142332266D01*
X184742250Y-142397268D01*
X184625569Y-142464500D01*
X184513287Y-142532321D01*
X184499388Y-142540961D01*
X184465380Y-142562435D01*
X184427447Y-142586829D01*
X184387221Y-142613046D01*
X184346334Y-142639991D01*
X184306420Y-142666568D01*
X184269111Y-142691681D01*
X184236039Y-142714232D01*
X184208837Y-142733126D01*
X184189137Y-142747268D01*
X184178573Y-142755560D01*
X184177260Y-142757245D01*
X184184422Y-142756612D01*
X184202972Y-142753550D01*
X184230669Y-142748467D01*
X184265268Y-142741773D01*
X184297599Y-142735290D01*
X184620760Y-142674576D01*
X184953007Y-142621952D01*
X185291893Y-142577708D01*
X185634971Y-142542131D01*
X185979795Y-142515508D01*
X186309695Y-142498662D01*
X186428061Y-142494157D01*
X186473319Y-142467444D01*
X186519590Y-142441970D01*
X186564173Y-142421858D01*
X186613608Y-142404284D01*
X186634840Y-142397740D01*
X186660813Y-142390643D01*
X186690820Y-142383446D01*
X186721731Y-142376766D01*
X186750419Y-142371224D01*
X186773758Y-142367439D01*
X186788621Y-142366028D01*
X186792188Y-142366598D01*
X186787843Y-142371294D01*
X186774368Y-142382273D01*
X186753994Y-142397775D01*
X186734799Y-142411839D01*
X186689720Y-142445040D01*
X186649408Y-142476378D01*
X186611019Y-142508298D01*
X186571712Y-142543242D01*
X186528646Y-142583656D01*
X186480282Y-142630698D01*
X186410773Y-142696481D01*
X186344588Y-142753246D01*
X186277976Y-142803970D01*
X186207188Y-142851630D01*
X186182796Y-142866871D01*
X186151388Y-142885581D01*
X186117098Y-142905032D01*
X186082354Y-142923956D01*
X186049587Y-142941087D01*
X186021224Y-142955160D01*
X185999696Y-142964909D01*
X185987432Y-142969066D01*
X185986617Y-142969130D01*
X185979301Y-142973256D01*
X185978966Y-142974961D01*
X185985629Y-142979853D01*
X186004447Y-142985180D01*
X186033665Y-142990745D01*
X186071526Y-142996352D01*
X186116276Y-143001803D01*
X186166158Y-143006903D01*
X186219417Y-143011454D01*
X186274296Y-143015260D01*
X186329040Y-143018123D01*
X186378978Y-143019784D01*
X186448262Y-143021350D01*
X186331480Y-143103985D01*
X186292338Y-143131356D01*
X186253405Y-143157997D01*
X186217435Y-143182067D01*
X186187180Y-143201724D01*
X186165392Y-143215128D01*
X186164943Y-143215389D01*
X186115188Y-143244157D01*
X186201997Y-143249433D01*
X186249383Y-143251072D01*
X186306001Y-143251050D01*
X186368257Y-143249540D01*
X186432555Y-143246715D01*
X186495301Y-143242748D01*
X186552900Y-143237811D01*
X186601757Y-143232079D01*
X186619517Y-143229355D01*
X186658575Y-143221681D01*
X186702540Y-143211388D01*
X186743165Y-143200436D01*
X186750925Y-143198106D01*
X186789931Y-143186587D01*
X186816565Y-143179893D01*
X186831465Y-143177884D01*
X186835380Y-143179774D01*
X186833612Y-143186815D01*
X186828947Y-143203755D01*
X186822346Y-143227111D01*
X186821455Y-143230231D01*
X186813511Y-143258549D01*
X186809199Y-143276075D01*
X186808143Y-143285354D01*
X186809971Y-143288931D01*
X186812751Y-143289406D01*
X186821285Y-143287863D01*
X186840324Y-143283695D01*
X186866845Y-143277580D01*
X186891082Y-143271824D01*
X186927685Y-143261290D01*
X186969305Y-143246520D01*
X187012683Y-143228958D01*
X187054557Y-143210047D01*
X187091669Y-143191232D01*
X187120757Y-143173955D01*
X187133641Y-143164388D01*
X187143044Y-143155422D01*
X187146404Y-143146910D01*
X187144277Y-143133978D01*
X187139011Y-143117222D01*
X187130610Y-143087696D01*
X187122681Y-143052674D01*
X187115477Y-143014311D01*
X187109249Y-142974760D01*
X187104248Y-142936176D01*
X187100725Y-142900712D01*
X187098932Y-142870521D01*
X187099121Y-142847758D01*
X187101542Y-142834576D01*
X187105799Y-142832660D01*
X187113335Y-142842089D01*
X187113889Y-142845147D01*
X187116719Y-142854278D01*
X187124343Y-142872874D01*
X187135467Y-142897875D01*
X187144028Y-142916258D01*
X187179455Y-142984014D01*
X187217896Y-143044782D01*
X187258123Y-143097033D01*
X187298909Y-143139237D01*
X187339025Y-143169865D01*
X187354640Y-143178548D01*
X187388916Y-143195418D01*
X187677869Y-143197068D01*
X187966822Y-143198717D01*
X188019847Y-143134403D01*
X188072872Y-143070089D01*
X188040735Y-143068194D01*
X188024463Y-143067423D01*
X187996768Y-143066320D01*
X187960145Y-143064974D01*
X187917089Y-143063476D01*
X187870096Y-143061917D01*
X187848293Y-143061218D01*
X187687987Y-143056139D01*
X187585934Y-142991094D01*
X187542165Y-142962582D01*
X187508498Y-142938118D01*
X187484323Y-142915573D01*
X187469028Y-142892817D01*
X187462001Y-142867720D01*
X187462631Y-142838152D01*
X187470306Y-142801983D01*
X187484414Y-142757085D01*
X187503435Y-142703813D01*
X187523532Y-142650345D01*
X187528838Y-142637632D01*
X187707649Y-142637632D01*
X187712554Y-142641809D01*
X187727368Y-142652173D01*
X187750206Y-142667512D01*
X187779180Y-142686614D01*
X187812404Y-142708265D01*
X187847991Y-142731253D01*
X187884054Y-142754366D01*
X187918707Y-142776391D01*
X187950063Y-142796115D01*
X187976235Y-142812327D01*
X187995336Y-142823812D01*
X188005481Y-142829359D01*
X188006472Y-142829684D01*
X188014070Y-142826894D01*
X188032031Y-142819053D01*
X188058173Y-142807148D01*
X188090312Y-142792172D01*
X188116117Y-142779958D01*
X188150666Y-142763315D01*
X188180147Y-142748752D01*
X188202548Y-142737293D01*
X188215860Y-142729960D01*
X188218670Y-142727784D01*
X188211345Y-142727887D01*
X188192792Y-142729721D01*
X188165558Y-142732994D01*
X188132194Y-142737413D01*
X188120434Y-142739051D01*
X188024455Y-142752573D01*
X187922530Y-142715239D01*
X187881737Y-142700219D01*
X187840336Y-142684839D01*
X187802476Y-142670650D01*
X187772308Y-142659202D01*
X187765366Y-142656529D01*
X187740081Y-142647119D01*
X187720250Y-142640446D01*
X187709013Y-142637537D01*
X187707649Y-142637632D01*
X187528838Y-142637632D01*
X187540889Y-142608758D01*
X187556764Y-142577593D01*
X187572415Y-142555388D01*
X187589097Y-142540687D01*
X187608068Y-142532028D01*
X187630586Y-142527952D01*
X187655736Y-142526997D01*
X187673027Y-142528120D01*
X187702228Y-142531319D01*
X187741519Y-142536342D01*
X187789079Y-142542935D01*
X187843090Y-142550844D01*
X187901732Y-142559816D01*
X187963185Y-142569597D01*
X187972591Y-142571128D01*
X188032101Y-142580777D01*
X188087164Y-142589581D01*
X188136300Y-142597312D01*
X188178032Y-142603743D01*
X188210879Y-142608646D01*
X188233365Y-142611796D01*
X188244010Y-142612965D01*
X188244669Y-142612904D01*
X188247386Y-142605857D01*
X188253795Y-142587870D01*
X188263112Y-142561189D01*
X188274550Y-142528058D01*
X188283262Y-142502627D01*
X188296414Y-142464736D01*
X188313227Y-142417223D01*
X188332472Y-142363508D01*
X188352923Y-142307007D01*
X188373350Y-142251139D01*
X188384605Y-142220637D01*
X188409939Y-142151158D01*
X188430273Y-142092671D01*
X188446089Y-142043364D01*
X188457870Y-142001430D01*
X188466098Y-141965057D01*
X188471256Y-141932435D01*
X188473824Y-141901756D01*
X188474320Y-141883952D01*
X188474119Y-141856856D01*
X188472202Y-141839689D01*
X188467527Y-141828473D01*
X188459051Y-141819229D01*
X188456870Y-141817319D01*
X188442584Y-141808775D01*
X188418708Y-141798313D01*
X188389126Y-141787532D01*
X188369989Y-141781499D01*
X188301033Y-141761098D01*
X188094383Y-141761098D01*
X187887733Y-141761098D01*
X187840243Y-141809315D01*
X187798211Y-141848648D01*
X187749956Y-141888423D01*
X187700964Y-141924287D01*
X187670907Y-141943691D01*
X187653782Y-141953398D01*
X187630391Y-141965855D01*
X187603831Y-141979515D01*
X187577194Y-141992830D01*
X187553577Y-142004254D01*
X187536073Y-142012238D01*
X187527783Y-142015237D01*
X187530044Y-142010574D01*
X187540010Y-141998120D01*
X187555790Y-141980174D01*
X187563541Y-141971720D01*
X187587714Y-141943567D01*
X187613575Y-141910192D01*
X187635845Y-141878432D01*
X187637432Y-141875983D01*
X187670971Y-141823762D01*
X187596089Y-141819616D01*
X187525920Y-141810796D01*
X187465909Y-141792594D01*
X187415815Y-141764887D01*
X187375394Y-141727552D01*
X187353271Y-141696539D01*
X187333406Y-141650136D01*
X187326108Y-141598982D01*
X187328239Y-141576916D01*
X187465281Y-141576916D01*
X187467381Y-141618221D01*
X187482816Y-141655783D01*
X187506638Y-141684861D01*
X187544655Y-141712464D01*
X187587390Y-141727108D01*
X187633960Y-141728584D01*
X187665684Y-141722437D01*
X187682307Y-141716530D01*
X187691283Y-141710829D01*
X187691795Y-141709583D01*
X187685612Y-141705095D01*
X187669398Y-141698694D01*
X187646651Y-141691762D01*
X187646457Y-141691709D01*
X187623134Y-141684846D01*
X187605763Y-141678702D01*
X187598161Y-141674651D01*
X187595977Y-141666017D01*
X187592648Y-141646991D01*
X187588750Y-141620998D01*
X187587002Y-141608238D01*
X187578212Y-141553140D01*
X187568002Y-141508336D01*
X187556676Y-141474711D01*
X187544538Y-141453145D01*
X187531894Y-141444522D01*
X187530448Y-141444401D01*
X187524668Y-141449798D01*
X187514050Y-141464042D01*
X187501103Y-141483717D01*
X187476520Y-141532029D01*
X187465281Y-141576916D01*
X187328239Y-141576916D01*
X187331385Y-141544341D01*
X187349245Y-141487479D01*
X187351898Y-141481324D01*
X187366451Y-141448426D01*
X187350483Y-141437657D01*
X187337121Y-141429322D01*
X187316361Y-141417441D01*
X187287202Y-141401474D01*
X187248644Y-141380881D01*
X187199688Y-141355124D01*
X187139333Y-141323662D01*
X187136802Y-141322347D01*
X187102335Y-141304256D01*
X187072820Y-141288405D01*
X187050208Y-141275873D01*
X187036449Y-141267736D01*
X187033138Y-141265104D01*
X187040226Y-141265963D01*
X187059361Y-141269413D01*
X187088972Y-141275140D01*
X187127484Y-141282831D01*
X187173328Y-141292174D01*
X187224929Y-141302854D01*
X187270211Y-141312342D01*
X187325415Y-141323846D01*
X187376215Y-141334191D01*
X187421024Y-141343073D01*
X187458260Y-141350188D01*
X187486338Y-141355232D01*
X187503673Y-141357901D01*
X187508753Y-141358111D01*
X187508425Y-141349207D01*
X187500393Y-141331912D01*
X187486104Y-141308332D01*
X187467002Y-141280573D01*
X187444534Y-141250742D01*
X187420146Y-141220944D01*
X187396445Y-141194512D01*
X187378662Y-141175487D01*
X187369674Y-141164667D01*
X187368659Y-141160184D01*
X187374794Y-141160173D01*
X187381954Y-141161620D01*
X187411260Y-141171156D01*
X187447017Y-141187535D01*
X187485146Y-141208480D01*
X187521572Y-141231719D01*
X187552218Y-141254975D01*
X187557395Y-141259518D01*
X187606566Y-141311303D01*
X187647958Y-141371110D01*
X187682542Y-141440599D01*
X187711289Y-141521433D01*
X187712139Y-141524280D01*
X187730732Y-141586858D01*
X187834852Y-141613114D01*
X187972271Y-141644314D01*
X188107469Y-141667654D01*
X188247560Y-141684338D01*
X188265320Y-141685975D01*
X188312101Y-141690056D01*
X188348000Y-141692769D01*
X188375991Y-141694109D01*
X188399049Y-141694069D01*
X188420152Y-141692643D01*
X188442274Y-141689824D01*
X188468391Y-141685605D01*
X188468850Y-141685527D01*
X188554639Y-141666845D01*
X188629849Y-141641740D01*
X188670057Y-141623402D01*
X188696648Y-141609565D01*
X188713640Y-141599540D01*
X188720319Y-141592624D01*
X188715967Y-141588114D01*
X188699870Y-141585307D01*
X188671311Y-141583501D01*
X188629575Y-141581993D01*
X188627820Y-141581936D01*
X188578854Y-141580051D01*
X188543355Y-141577851D01*
X188520864Y-141575023D01*
X188510920Y-141571256D01*
X188513066Y-141566236D01*
X188526842Y-141559653D01*
X188551789Y-141551194D01*
X188573111Y-141544739D01*
X188614884Y-141531919D01*
X188659596Y-141517382D01*
X188704405Y-141502131D01*
X188746470Y-141487170D01*
X188782953Y-141473503D01*
X188811011Y-141462134D01*
X188824498Y-141455886D01*
X188842463Y-141439868D01*
X188860197Y-141411368D01*
X189016092Y-141411368D01*
X189018274Y-141414937D01*
X189026610Y-141414696D01*
X189043001Y-141410375D01*
X189069346Y-141401703D01*
X189092390Y-141393716D01*
X189172775Y-141360152D01*
X189241811Y-141319709D01*
X189299203Y-141272673D01*
X189344659Y-141219329D01*
X189377885Y-141159963D01*
X189398367Y-141095898D01*
X189401952Y-141068277D01*
X189403561Y-141029601D01*
X189403106Y-140982612D01*
X189402572Y-140967754D01*
X189399929Y-140923542D01*
X189395454Y-140884086D01*
X189388361Y-140845687D01*
X189377865Y-140804646D01*
X189363183Y-140757263D01*
X189349206Y-140716069D01*
X189341127Y-140695151D01*
X189329341Y-140667633D01*
X189314947Y-140635767D01*
X189299040Y-140601805D01*
X189282718Y-140567999D01*
X189267077Y-140536602D01*
X189253213Y-140509865D01*
X189242224Y-140490040D01*
X189235207Y-140479381D01*
X189233401Y-140478273D01*
X189233009Y-140486311D01*
X189235073Y-140504791D01*
X189239180Y-140530528D01*
X189242266Y-140547158D01*
X189247304Y-140577399D01*
X189250914Y-140610249D01*
X189253270Y-140648547D01*
X189254548Y-140695133D01*
X189254925Y-140751503D01*
X189254810Y-140799949D01*
X189254318Y-140836975D01*
X189253228Y-140865087D01*
X189251317Y-140886788D01*
X189248366Y-140904585D01*
X189244151Y-140920981D01*
X189238452Y-140938483D01*
X189238380Y-140938691D01*
X189218988Y-140980845D01*
X189192976Y-141016851D01*
X189162630Y-141044178D01*
X189130238Y-141060295D01*
X189127926Y-141060945D01*
X189114632Y-141064682D01*
X189105362Y-141069180D01*
X189098969Y-141076906D01*
X189094306Y-141090324D01*
X189090229Y-141111898D01*
X189085591Y-141144096D01*
X189084037Y-141155341D01*
X189070372Y-141231080D01*
X189050595Y-141309164D01*
X189026546Y-141382643D01*
X189018163Y-141404258D01*
X189016092Y-141411368D01*
X188860197Y-141411368D01*
X188860199Y-141411365D01*
X188877401Y-141371817D01*
X188893763Y-141322666D01*
X188908977Y-141265350D01*
X188922737Y-141201311D01*
X188934736Y-141131990D01*
X188944669Y-141058825D01*
X188952227Y-140983259D01*
X188957105Y-140906730D01*
X188958996Y-140830680D01*
X188959010Y-140823958D01*
X188952696Y-140689003D01*
X188934097Y-140555910D01*
X188903730Y-140425838D01*
X188862108Y-140299947D01*
X188809748Y-140179395D01*
X188747163Y-140065341D01*
X188674871Y-139958946D01*
X188593385Y-139861367D01*
X188503221Y-139773764D01*
X188485519Y-139758650D01*
X188462503Y-139740299D01*
X188435499Y-139720115D01*
X188407617Y-139700267D01*
X188381964Y-139682926D01*
X188361647Y-139670260D01*
X188351256Y-139664925D01*
X188344517Y-139668138D01*
X188336521Y-139683197D01*
X188326798Y-139711013D01*
X188325927Y-139713830D01*
X188317971Y-139738401D01*
X188311216Y-139756807D01*
X188306860Y-139765854D01*
X188306277Y-139766279D01*
X188299499Y-139762011D01*
X188286172Y-139751132D01*
X188277183Y-139743207D01*
X188253451Y-139724366D01*
X188219828Y-139701268D01*
X188179029Y-139675580D01*
X188133765Y-139648969D01*
X188086748Y-139623103D01*
X188055713Y-139607068D01*
X187925439Y-139547348D01*
X187790264Y-139496714D01*
X187648591Y-139454716D01*
X187498822Y-139420909D01*
X187339361Y-139394842D01*
X187267069Y-139385863D01*
X187209305Y-139380721D01*
X187140822Y-139376924D01*
X187064761Y-139374474D01*
X186984263Y-139373371D01*
X186902469Y-139373615D01*
X186822520Y-139375206D01*
X186747557Y-139378144D01*
X186680721Y-139382430D01*
X186644216Y-139385821D01*
X186423972Y-139415828D01*
X186210282Y-139457854D01*
X186002309Y-139512113D01*
X185799218Y-139578822D01*
X185621633Y-139648949D01*
X185577175Y-139668284D01*
X185534837Y-139687356D01*
X185496369Y-139705309D01*
X185463524Y-139721291D01*
X185438052Y-139734447D01*
X185421704Y-139743922D01*
X185416231Y-139748863D01*
X185416352Y-139749078D01*
X185423856Y-139750825D01*
X185442840Y-139753875D01*
X185470954Y-139757888D01*
X185505848Y-139762526D01*
X185533698Y-139766041D01*
X185617476Y-139776474D01*
X185694302Y-139786197D01*
X185763276Y-139795088D01*
X185823496Y-139803027D01*
X185874062Y-139809891D01*
X185914073Y-139815559D01*
X185942627Y-139819909D01*
X185958824Y-139822820D01*
X185962282Y-139823864D01*
X185956830Y-139826849D01*
X185939739Y-139833634D01*
X185912593Y-139843651D01*
X185876976Y-139856331D01*
X185834472Y-139871103D01*
X185786664Y-139887400D01*
X185768687Y-139893453D01*
X185637070Y-139938814D01*
X185515667Y-139983294D01*
X185400967Y-140028362D01*
X185289457Y-140075485D01*
X185177626Y-140126132D01*
X185061962Y-140181770D01*
X184977402Y-140224184D01*
X184795459Y-140320235D01*
X184606413Y-140426723D01*
X184411468Y-140542907D01*
X184211829Y-140668050D01*
X184008701Y-140801412D01*
X183803290Y-140942255D01*
X183782228Y-140957034D01*
X183726895Y-140996222D01*
X183669376Y-141037478D01*
X183610708Y-141080015D01*
X183551928Y-141123050D01*
X183494073Y-141165797D01*
X183438181Y-141207471D01*
X183385288Y-141247288D01*
X183336432Y-141284463D01*
X183292651Y-141318210D01*
X183254980Y-141347745D01*
X183224459Y-141372284D01*
X183202124Y-141391040D01*
X183189011Y-141403230D01*
X183186159Y-141408068D01*
X183186165Y-141408070D01*
X183194539Y-141407504D01*
X183214954Y-141404783D01*
X183245738Y-141400170D01*
X183285217Y-141393927D01*
X183331721Y-141386316D01*
X183383575Y-141377601D01*
X183418176Y-141371672D01*
X183556315Y-141348080D01*
X183693780Y-141325091D01*
X183827537Y-141303198D01*
X183954553Y-141282898D01*
X184071796Y-141264684D01*
X184102513Y-141260018D01*
X184147774Y-141253157D01*
X184194100Y-141246098D01*
X184237261Y-141239486D01*
X184273030Y-141233968D01*
X184287025Y-141231789D01*
X184326466Y-141225841D01*
X184379199Y-141218248D01*
X184444694Y-141209084D01*
X184522425Y-141198422D01*
X184611862Y-141186334D01*
X184711751Y-141172992D01*
X184758472Y-141166861D01*
X184811840Y-141159993D01*
X184870381Y-141152565D01*
X184932623Y-141144758D01*
X184997096Y-141136747D01*
X185062326Y-141128713D01*
X185126842Y-141120833D01*
X185189172Y-141113286D01*
X185247844Y-141106249D01*
X185301386Y-141099902D01*
X185348326Y-141094422D01*
X185387193Y-141089988D01*
X185416514Y-141086778D01*
X185434817Y-141084971D01*
X185440653Y-141084691D01*
X185435126Y-141087680D01*
X185418378Y-141094767D01*
X185392251Y-141105219D01*
X185358585Y-141118307D01*
X185319222Y-141133298D01*
X185301891Y-141139815D01*
X185191960Y-141181051D01*
X185093960Y-141217947D01*
X185006752Y-141250967D01*
X184929195Y-141280574D01*
X184860150Y-141307231D01*
X184798478Y-141331401D01*
X184743038Y-141353548D01*
X184692692Y-141374136D01*
X184646299Y-141393627D01*
X184602719Y-141412485D01*
X184560814Y-141431174D01*
X184519443Y-141450156D01*
X184477466Y-141469896D01*
X184433745Y-141490857D01*
X184408873Y-141502912D01*
X184231576Y-141592144D01*
X184051403Y-141688936D01*
X183866330Y-141794407D01*
X183691712Y-141899013D01*
X183647335Y-141926491D01*
X183598240Y-141957443D01*
X183545618Y-141991072D01*
X183490660Y-142026582D01*
X183434556Y-142063175D01*
X183378498Y-142100057D01*
X183323677Y-142136431D01*
X183271282Y-142171499D01*
X183222506Y-142204467D01*
X183178538Y-142234537D01*
X183140570Y-142260914D01*
X183109793Y-142282800D01*
X183087397Y-142299400D01*
X183074574Y-142309917D01*
X183072013Y-142313422D01*
X182803464Y-142313422D01*
X182877301Y-142258847D01*
X183019104Y-142157578D01*
X183164967Y-142056675D01*
X183313145Y-141957255D01*
X183461893Y-141860432D01*
X183609465Y-141767323D01*
X183754117Y-141679042D01*
X183894104Y-141596705D01*
X184027681Y-141521427D01*
X184153103Y-141454325D01*
X184173658Y-141443724D01*
X184209364Y-141425228D01*
X184240163Y-141408913D01*
X184264156Y-141395814D01*
X184279449Y-141386966D01*
X184284180Y-141383426D01*
X184276343Y-141383469D01*
X184255800Y-141385780D01*
X184223553Y-141390191D01*
X184180606Y-141396532D01*
X184127963Y-141404633D01*
X184066626Y-141414325D01*
X183997600Y-141425437D01*
X183921887Y-141437799D01*
X183840491Y-141451243D01*
X183754415Y-141465599D01*
X183664663Y-141480696D01*
X183572239Y-141496365D01*
X183478145Y-141512436D01*
X183383384Y-141528740D01*
X183288962Y-141545107D01*
X183195879Y-141561367D01*
X183105141Y-141577350D01*
X183017751Y-141592887D01*
X182934711Y-141607808D01*
X182857026Y-141621943D01*
X182785698Y-141635122D01*
X182721732Y-141647176D01*
X182698102Y-141651709D01*
X182670033Y-141656719D01*
X182648302Y-141659822D01*
X182635636Y-141660673D01*
X182633588Y-141659801D01*
X182640723Y-141652479D01*
X182657435Y-141637449D01*
X182682470Y-141615758D01*
X182714575Y-141588450D01*
X182752496Y-141556571D01*
X182794979Y-141521167D01*
X182840769Y-141483283D01*
X182888614Y-141443964D01*
X182937259Y-141404255D01*
X182985450Y-141365203D01*
X183026773Y-141331981D01*
X183282624Y-141131743D01*
X183537858Y-140941093D01*
X183791649Y-140760594D01*
X184043168Y-140590808D01*
X184291585Y-140432298D01*
X184536074Y-140285627D01*
X184722195Y-140180527D01*
X184791572Y-140143198D01*
X184866917Y-140103978D01*
X184945613Y-140064144D01*
X185025042Y-140024970D01*
X185102585Y-139987735D01*
X185175624Y-139953714D01*
X185241541Y-139924182D01*
X185292466Y-139902558D01*
X185308458Y-139895180D01*
X185316604Y-139889762D01*
X185316836Y-139888616D01*
X185309441Y-139886916D01*
X185290555Y-139883781D01*
X185262503Y-139879531D01*
X185227607Y-139874488D01*
X185188192Y-139868972D01*
X185146581Y-139863304D01*
X185105097Y-139857806D01*
X185066066Y-139852797D01*
X185031809Y-139848600D01*
X185005770Y-139845653D01*
X184982547Y-139842457D01*
X184965477Y-139838725D01*
X184958774Y-139835658D01*
X184962863Y-139829630D01*
X184977641Y-139817925D01*
X185001546Y-139801482D01*
X185033013Y-139781239D01*
X185070479Y-139758135D01*
X185112380Y-139733110D01*
X185157153Y-139707100D01*
X185203233Y-139681047D01*
X185249058Y-139655887D01*
X185293064Y-139632561D01*
X185319819Y-139618892D01*
X185530483Y-139519869D01*
X185740423Y-139434689D01*
X185949862Y-139363302D01*
X186159022Y-139305657D01*
X186368124Y-139261705D01*
X186577392Y-139231394D01*
X186787047Y-139214676D01*
X186997312Y-139211499D01*
X187105214Y-139215095D01*
G37*
D16*
%TO.C,J5*%
X169440000Y-147030000D02*
X169440000Y-145650000D01*
X170820000Y-147030000D02*
X169440000Y-147030000D01*
X172090000Y-144270000D02*
X174740000Y-144270000D01*
X172090000Y-147030000D02*
X172090000Y-144270000D01*
X172090000Y-147030000D02*
X174740000Y-147030000D01*
X174740000Y-147030000D02*
X174740000Y-144270000D01*
%TO.C,D52*%
X175542500Y-84990000D02*
X175542500Y-88290000D01*
X175542500Y-84990000D02*
X181052500Y-84990000D01*
X175542500Y-88290000D02*
X181052500Y-88290000D01*
D15*
%TO.C,U15*%
X153655600Y-127029600D02*
X153655600Y-130382400D01*
X157008400Y-130382400D02*
X157008400Y-127029600D01*
X156884342Y-126706000D02*
G75*
G02*
X157032000Y-126706000I73829J18860D01*
G01*
D16*
%TO.C,R58*%
X166587064Y-117215000D02*
X166132936Y-117215000D01*
X166587064Y-118685000D02*
X166132936Y-118685000D01*
%TO.C,C31*%
X132411233Y-95350000D02*
X132703767Y-95350000D01*
X132411233Y-96370000D02*
X132703767Y-96370000D01*
%TO.C,C4_RETRY1*%
X178823796Y-77640000D02*
X178531262Y-77640000D01*
X178823796Y-78660000D02*
X178531262Y-78660000D01*
%TO.C,C26*%
X178043733Y-111660000D02*
X178336267Y-111660000D01*
X178043733Y-112680000D02*
X178336267Y-112680000D01*
%TO.C,U1*%
X182723750Y-68685000D02*
X182818750Y-68685000D01*
X182723750Y-72805000D02*
X182723750Y-68685000D01*
X182818750Y-72805000D02*
X182723750Y-72805000D01*
X187748750Y-68685000D02*
X187843750Y-68685000D01*
X187843750Y-68685000D02*
X187843750Y-72805000D01*
X187843750Y-72805000D02*
X187748750Y-72805000D01*
X182813750Y-73345000D02*
X182483750Y-73585000D01*
X182483750Y-73105000D01*
X182813750Y-73345000D01*
G36*
X182813750Y-73345000D02*
G01*
X182483750Y-73585000D01*
X182483750Y-73105000D01*
X182813750Y-73345000D01*
G37*
%TO.C,C58*%
X166013733Y-113640000D02*
X166306267Y-113640000D01*
X166013733Y-114660000D02*
X166306267Y-114660000D01*
%TO.C,C25*%
X178556262Y-82140000D02*
X178848796Y-82140000D01*
X178556262Y-83160000D02*
X178848796Y-83160000D01*
D15*
%TO.C,U6*%
X159416000Y-96348500D02*
X159416000Y-96717614D01*
X159416000Y-101567386D02*
X159416000Y-101936500D01*
X159416000Y-101936500D02*
X165004000Y-101936500D01*
X165004000Y-96348500D02*
X159416000Y-96348500D01*
X165004000Y-96717614D02*
X165004000Y-96348500D01*
X165004000Y-101936500D02*
X165004000Y-101567386D01*
D16*
%TO.C,D51*%
X125930000Y-82410000D02*
X125930000Y-85710000D01*
X125930000Y-82410000D02*
X131440000Y-82410000D01*
X125930000Y-85710000D02*
X131440000Y-85710000D01*
%TO.C,D50*%
X111150000Y-81610000D02*
X105640000Y-81610000D01*
X111150000Y-84910000D02*
X105640000Y-84910000D01*
X111150000Y-84910000D02*
X111150000Y-81610000D01*
D11*
%TO.C,IC11*%
X142190000Y-93237500D02*
X145890000Y-93237500D01*
X142190000Y-98237500D02*
X142190000Y-93237500D01*
X145890000Y-93237500D02*
X145890000Y-98237500D01*
X145890000Y-98237500D02*
X142190000Y-98237500D01*
X147715000Y-98587500D02*
X146240000Y-98587500D01*
D16*
%TO.C,R50*%
X127218314Y-119465000D02*
X126764186Y-119465000D01*
X127218314Y-120935000D02*
X126764186Y-120935000D01*
%TO.C,R2_FAULT1*%
X175030000Y-70382936D02*
X175030000Y-70837064D01*
X176500000Y-70382936D02*
X176500000Y-70837064D01*
%TO.C,J52*%
X183000000Y-85470000D02*
X184380000Y-85470000D01*
X183000000Y-86850000D02*
X183000000Y-85470000D01*
X183000000Y-88120000D02*
X183000000Y-111090000D01*
X183000000Y-88120000D02*
X185650000Y-88120000D01*
X183000000Y-111090000D02*
X188300000Y-111090000D01*
X185650000Y-85470000D02*
X188300000Y-85470000D01*
X185650000Y-88120000D02*
X185650000Y-85470000D01*
X188300000Y-85470000D02*
X188300000Y-111090000D01*
%TO.C,R4_ILIM1*%
X180580029Y-78922936D02*
X180580029Y-79377064D01*
X182050029Y-78922936D02*
X182050029Y-79377064D01*
%TO.C,C30*%
X128553767Y-95100000D02*
X128261233Y-95100000D01*
X128553767Y-96120000D02*
X128261233Y-96120000D01*
%TO.C,Q2*%
X149962000Y-127692000D02*
X150012000Y-127692000D01*
X149962000Y-129212000D02*
X149962000Y-127692000D01*
X150962000Y-129212000D02*
X149962000Y-129212000D01*
X151132000Y-127692000D02*
X151912000Y-127692000D01*
X153032000Y-127692000D02*
X153082000Y-127692000D01*
X153082000Y-127692000D02*
X153082000Y-129212000D01*
X153082000Y-129212000D02*
X152082000Y-129212000D01*
X151902000Y-127152000D02*
X151572000Y-127392000D01*
X151572000Y-126912000D01*
X151902000Y-127152000D01*
G36*
X151902000Y-127152000D02*
G01*
X151572000Y-127392000D01*
X151572000Y-126912000D01*
X151902000Y-127152000D01*
G37*
%TO.C,D53*%
X133350000Y-140280000D02*
X133350000Y-143580000D01*
X133350000Y-140280000D02*
X138860000Y-140280000D01*
X133350000Y-143580000D02*
X138860000Y-143580000D01*
%TO.C,Q1*%
X108036001Y-122416799D02*
X108086001Y-122416799D01*
X108036001Y-123936799D02*
X108036001Y-122416799D01*
X109036001Y-123936799D02*
X108036001Y-123936799D01*
X109206001Y-122416799D02*
X109986001Y-122416799D01*
X111106001Y-122416799D02*
X111156001Y-122416799D01*
X111156001Y-122416799D02*
X111156001Y-123936799D01*
X111156001Y-123936799D02*
X110156001Y-123936799D01*
X109976001Y-121876799D02*
X109646001Y-122116799D01*
X109646001Y-121636799D01*
X109976001Y-121876799D01*
G36*
X109976001Y-121876799D02*
G01*
X109646001Y-122116799D01*
X109646001Y-121636799D01*
X109976001Y-121876799D01*
G37*
%TO.C,C2_RETRY1*%
X178661267Y-68850000D02*
X178368733Y-68850000D01*
X178661267Y-69870000D02*
X178368733Y-69870000D01*
%TO.C,R28*%
X111147001Y-127521735D02*
X111147001Y-127975863D01*
X112617001Y-127521735D02*
X112617001Y-127975863D01*
%TO.C,D9*%
X132770000Y-94620000D02*
X132770000Y-89110000D01*
X132770000Y-94620000D02*
X136070000Y-94620000D01*
X136070000Y-94620000D02*
X136070000Y-89110000D01*
%TO.C,C56*%
X126732483Y-113940000D02*
X127025017Y-113940000D01*
X126732483Y-114960000D02*
X127025017Y-114960000D01*
%TO.C,C45*%
X157616000Y-129221233D02*
X157616000Y-129513767D01*
X158636000Y-129221233D02*
X158636000Y-129513767D01*
%TO.C,Q50*%
X111760000Y-85300000D02*
X113280000Y-85300000D01*
X111760000Y-86300000D02*
X111760000Y-85300000D01*
X111760000Y-88420000D02*
X111760000Y-87420000D01*
X113280000Y-85300000D02*
X113280000Y-85350000D01*
X113280000Y-86470000D02*
X113280000Y-87250000D01*
X113280000Y-88370000D02*
X113280000Y-88420000D01*
X113280000Y-88420000D02*
X111760000Y-88420000D01*
X113820000Y-87240000D02*
X113580000Y-86910000D01*
X114060000Y-86910000D01*
X113820000Y-87240000D01*
G36*
X113820000Y-87240000D02*
G01*
X113580000Y-86910000D01*
X114060000Y-86910000D01*
X113820000Y-87240000D01*
G37*
D10*
%TO.C,D2*%
X143712500Y-126350000D02*
G75*
G02*
X143612500Y-126350000I-50000J0D01*
G01*
X143612500Y-126350000D02*
G75*
G02*
X143712500Y-126350000I50000J0D01*
G01*
D11*
%TO.C,IC10*%
X142190000Y-98962500D02*
X145890000Y-98962500D01*
X142190000Y-103962500D02*
X142190000Y-98962500D01*
X145890000Y-98962500D02*
X145890000Y-103962500D01*
X145890000Y-103962500D02*
X142190000Y-103962500D01*
X147715000Y-104312500D02*
X146240000Y-104312500D01*
D14*
%TO.C,SW2*%
X176360000Y-145273000D02*
X176360000Y-145235000D01*
X177229000Y-143854000D02*
X176885500Y-143854000D01*
X177444000Y-144746000D02*
X177444000Y-145762000D01*
X177444000Y-145762000D02*
X179476000Y-145762000D01*
X179476000Y-144746000D02*
X177444000Y-144746000D01*
X179476000Y-145762000D02*
X179476000Y-144746000D01*
X180034500Y-143854000D02*
X179691000Y-143854000D01*
X180034500Y-146654000D02*
X176885500Y-146654000D01*
X180560000Y-145235000D02*
X180560000Y-145273000D01*
D10*
%TO.C,D6*%
X165692500Y-127650000D02*
G75*
G02*
X165592500Y-127650000I-50000J0D01*
G01*
X165592500Y-127650000D02*
G75*
G02*
X165692500Y-127650000I50000J0D01*
G01*
D16*
%TO.C,J4*%
X119667000Y-144170000D02*
X119667000Y-146930000D01*
X122317000Y-144170000D02*
X119667000Y-144170000D01*
X122317000Y-144170000D02*
X122317000Y-146930000D01*
X122317000Y-146930000D02*
X119667000Y-146930000D01*
X123587000Y-144170000D02*
X124967000Y-144170000D01*
X124967000Y-144170000D02*
X124967000Y-145550000D01*
%TO.C,R9*%
X172087064Y-140415000D02*
X171632936Y-140415000D01*
X172087064Y-141885000D02*
X171632936Y-141885000D01*
%TO.C,R51*%
X127218314Y-117465000D02*
X126764186Y-117465000D01*
X127218314Y-118935000D02*
X126764186Y-118935000D01*
%TO.C,R63*%
X166132936Y-115215000D02*
X166587064Y-115215000D01*
X166132936Y-116685000D02*
X166587064Y-116685000D01*
%TO.C,R31*%
X153073000Y-132796936D02*
X153073000Y-133251064D01*
X154543000Y-132796936D02*
X154543000Y-133251064D01*
D11*
%TO.C,J1*%
X120719500Y-75840000D02*
G75*
G02*
X120519500Y-75840000I-100000J0D01*
G01*
X120519500Y-75840000D02*
G75*
G02*
X120719500Y-75840000I100000J0D01*
G01*
D10*
%TO.C,D1*%
X144437500Y-130150000D02*
G75*
G02*
X144337500Y-130150000I-50000J0D01*
G01*
X144337500Y-130150000D02*
G75*
G02*
X144437500Y-130150000I50000J0D01*
G01*
D15*
%TO.C,U5*%
X159419500Y-90259100D02*
X159419500Y-90628214D01*
X159419500Y-95477986D02*
X159419500Y-95847100D01*
X159419500Y-95847100D02*
X165007500Y-95847100D01*
X165007500Y-90259100D02*
X159419500Y-90259100D01*
X165007500Y-90628214D02*
X165007500Y-90259100D01*
X165007500Y-95847100D02*
X165007500Y-95477986D01*
D11*
%TO.C,IC12*%
X142190000Y-87462500D02*
X145890000Y-87462500D01*
X142190000Y-92462500D02*
X142190000Y-87462500D01*
X145890000Y-87462500D02*
X145890000Y-92462500D01*
X145890000Y-92462500D02*
X142190000Y-92462500D01*
X147715000Y-92812500D02*
X146240000Y-92812500D01*
D14*
%TO.C,SW1*%
X113086000Y-145273000D02*
X113086000Y-145235000D01*
X113955000Y-143854000D02*
X113611500Y-143854000D01*
X114170000Y-144746000D02*
X114170000Y-145762000D01*
X114170000Y-145762000D02*
X116202000Y-145762000D01*
X116202000Y-144746000D02*
X114170000Y-144746000D01*
X116202000Y-145762000D02*
X116202000Y-144746000D01*
X116760500Y-143854000D02*
X116417000Y-143854000D01*
X116760500Y-146654000D02*
X113611500Y-146654000D01*
X117286000Y-145235000D02*
X117286000Y-145273000D01*
D16*
%TO.C,C43*%
X115690001Y-124136966D02*
X115690001Y-123844432D01*
X116710001Y-124136966D02*
X116710001Y-123844432D01*
%TD*%
M02*
