%TF.GenerationSoftware,KiCad,Pcbnew,9.0.7*%
%TF.CreationDate,2026-02-18T15:52:08-07:00*%
%TF.ProjectId,Solar Board 2.0,536f6c61-7220-4426-9f61-726420322e30,rev?*%
%TF.SameCoordinates,Original*%
%TF.FileFunction,Copper,L4,Bot*%
%TF.FilePolarity,Positive*%
%FSLAX46Y46*%
G04 Gerber Fmt 4.6, Leading zero omitted, Abs format (unit mm)*
G04 Created by KiCad (PCBNEW 9.0.7) date 2026-02-18 15:52:08*
%MOMM*%
%LPD*%
G01*
G04 APERTURE LIST*
G04 Aperture macros list*
%AMRoundRect*
0 Rectangle with rounded corners*
0 $1 Rounding radius*
0 $2 $3 $4 $5 $6 $7 $8 $9 X,Y pos of 4 corners*
0 Add a 4 corners polygon primitive as box body*
4,1,4,$2,$3,$4,$5,$6,$7,$8,$9,$2,$3,0*
0 Add four circle primitives for the rounded corners*
1,1,$1+$1,$2,$3*
1,1,$1+$1,$4,$5*
1,1,$1+$1,$6,$7*
1,1,$1+$1,$8,$9*
0 Add four rect primitives between the rounded corners*
20,1,$1+$1,$2,$3,$4,$5,0*
20,1,$1+$1,$4,$5,$6,$7,0*
20,1,$1+$1,$6,$7,$8,$9,0*
20,1,$1+$1,$8,$9,$2,$3,0*%
G04 Aperture macros list end*
%TA.AperFunction,ComponentPad*%
%ADD10R,1.700000X1.700000*%
%TD*%
%TA.AperFunction,ComponentPad*%
%ADD11C,1.700000*%
%TD*%
%TA.AperFunction,SMDPad,CuDef*%
%ADD12RoundRect,0.100000X-0.100000X0.130000X-0.100000X-0.130000X0.100000X-0.130000X0.100000X0.130000X0*%
%TD*%
%TA.AperFunction,SMDPad,CuDef*%
%ADD13RoundRect,0.100000X0.100000X-0.130000X0.100000X0.130000X-0.100000X0.130000X-0.100000X-0.130000X0*%
%TD*%
%TA.AperFunction,SMDPad,CuDef*%
%ADD14RoundRect,0.075000X0.650000X0.075000X-0.650000X0.075000X-0.650000X-0.075000X0.650000X-0.075000X0*%
%TD*%
%TA.AperFunction,SMDPad,CuDef*%
%ADD15RoundRect,0.100000X0.130000X0.100000X-0.130000X0.100000X-0.130000X-0.100000X0.130000X-0.100000X0*%
%TD*%
%TA.AperFunction,SMDPad,CuDef*%
%ADD16RoundRect,0.100000X-0.130000X-0.100000X0.130000X-0.100000X0.130000X0.100000X-0.130000X0.100000X0*%
%TD*%
%TA.AperFunction,SMDPad,CuDef*%
%ADD17RoundRect,0.250000X0.362500X1.425000X-0.362500X1.425000X-0.362500X-1.425000X0.362500X-1.425000X0*%
%TD*%
%TA.AperFunction,SMDPad,CuDef*%
%ADD18RoundRect,0.225000X-0.250000X0.225000X-0.250000X-0.225000X0.250000X-0.225000X0.250000X0.225000X0*%
%TD*%
%TA.AperFunction,SMDPad,CuDef*%
%ADD19RoundRect,0.225000X0.225000X0.250000X-0.225000X0.250000X-0.225000X-0.250000X0.225000X-0.250000X0*%
%TD*%
%TA.AperFunction,SMDPad,CuDef*%
%ADD20RoundRect,0.062500X0.187500X0.062500X-0.187500X0.062500X-0.187500X-0.062500X0.187500X-0.062500X0*%
%TD*%
%TA.AperFunction,SMDPad,CuDef*%
%ADD21R,0.900000X1.600000*%
%TD*%
%TA.AperFunction,SMDPad,CuDef*%
%ADD22RoundRect,0.062500X-0.187500X-0.062500X0.187500X-0.062500X0.187500X0.062500X-0.187500X0.062500X0*%
%TD*%
%TA.AperFunction,SMDPad,CuDef*%
%ADD23R,3.680000X1.270000*%
%TD*%
%TA.AperFunction,SMDPad,CuDef*%
%ADD24RoundRect,0.033750X-0.101250X0.396250X-0.101250X-0.396250X0.101250X-0.396250X0.101250X0.396250X0*%
%TD*%
%TA.AperFunction,SMDPad,CuDef*%
%ADD25RoundRect,0.033750X-0.396250X0.101250X-0.396250X-0.101250X0.396250X-0.101250X0.396250X0.101250X0*%
%TD*%
%TA.AperFunction,SMDPad,CuDef*%
%ADD26R,3.650000X2.650000*%
%TD*%
%TA.AperFunction,ViaPad*%
%ADD27C,0.600000*%
%TD*%
%TA.AperFunction,Conductor*%
%ADD28C,0.500000*%
%TD*%
%TA.AperFunction,Conductor*%
%ADD29C,0.200000*%
%TD*%
G04 APERTURE END LIST*
D10*
%TO.P,M1,1,+*%
%TO.N,/5V_BAT*%
X168300000Y-90550000D03*
D11*
%TO.P,M1,2,-*%
X168300000Y-93090000D03*
%TD*%
D12*
%TO.P,R16,1*%
%TO.N,Net-(U9-A1)*%
X315050000Y-129220000D03*
%TO.P,R16,2*%
%TO.N,/3.3V_Batt*%
X315050000Y-129860000D03*
%TD*%
D13*
%TO.P,R18,1*%
%TO.N,Net-(U12-A2)*%
X259950000Y-127670000D03*
%TO.P,R18,2*%
%TO.N,/3.3V_Batt*%
X259950000Y-127030000D03*
%TD*%
D12*
%TO.P,R15,1*%
%TO.N,Net-(U8-A0)*%
X221402500Y-129032500D03*
%TO.P,R15,2*%
%TO.N,/3.3V_Batt*%
X221402500Y-129672500D03*
%TD*%
D14*
%TO.P,U5,1,A1*%
%TO.N,GND*%
X124790000Y-131460000D03*
%TO.P,U5,2,A0*%
X124790000Y-131960000D03*
%TO.P,U5,3,~{Alert}*%
%TO.N,unconnected-(U5-~{Alert}-Pad3)*%
X124790000Y-132460000D03*
%TO.P,U5,4,SDA*%
%TO.N,/IC_I2C_SDA*%
X124790000Y-132960000D03*
%TO.P,U5,5,SCL*%
%TO.N,/IC_I2C_SCL*%
X124790000Y-133460000D03*
%TO.P,U5,6,VS*%
%TO.N,/3.3V_Batt*%
X120390000Y-133460000D03*
%TO.P,U5,7,GND*%
%TO.N,GND*%
X120390000Y-132960000D03*
%TO.P,U5,8,Vbus*%
%TO.N,/VSOLAR_1*%
X120390000Y-132460000D03*
%TO.P,U5,9,Vin-*%
%TO.N,/V_SOLAR*%
X120390000Y-131960000D03*
%TO.P,U5,10,Vin+*%
%TO.N,/VSOLAR_1*%
X120390000Y-131460000D03*
%TD*%
D13*
%TO.P,C21,1*%
%TO.N,/3.3V_Batt*%
X106911666Y-129610000D03*
%TO.P,C21,2*%
%TO.N,GND*%
X106911666Y-128970000D03*
%TD*%
D15*
%TO.P,R1,1*%
%TO.N,/3.3V_Batt*%
X105565000Y-129610000D03*
%TO.P,R1,2*%
%TO.N,/IC_I2C_SCL*%
X104925000Y-129610000D03*
%TD*%
%TO.P,R2,1*%
%TO.N,/3.3V_Batt*%
X105565000Y-128610000D03*
%TO.P,R2,2*%
%TO.N,/IC_I2C_SDA*%
X104925000Y-128610000D03*
%TD*%
D12*
%TO.P,R17,1*%
%TO.N,Net-(U11-A0)*%
X101370000Y-121985000D03*
%TO.P,R17,2*%
%TO.N,/3.3V_Batt*%
X101370000Y-122625000D03*
%TD*%
%TO.P,R19,1*%
%TO.N,Net-(U7-A0)*%
X98590000Y-133795000D03*
%TO.P,R19,2*%
%TO.N,/3.3V_Batt*%
X98590000Y-134435000D03*
%TD*%
%TO.P,C55,1*%
%TO.N,/V_SOLAR*%
X90025000Y-130640000D03*
%TO.P,C55,2*%
%TO.N,GND*%
X90025000Y-131280000D03*
%TD*%
%TO.P,C51,1*%
%TO.N,Net-(U50-SW2)*%
X86525000Y-125295000D03*
%TO.P,C51,2*%
%TO.N,Net-(U50-BST2)*%
X86525000Y-125935000D03*
%TD*%
D13*
%TO.P,C52,1*%
%TO.N,/3.3V_Solar*%
X90025000Y-123935000D03*
%TO.P,C52,2*%
%TO.N,GND*%
X90025000Y-123295000D03*
%TD*%
%TO.P,C56,1*%
%TO.N,Net-(U50-MPPC)*%
X92525000Y-123935000D03*
%TO.P,C56,2*%
%TO.N,GND*%
X92525000Y-123295000D03*
%TD*%
D12*
%TO.P,R50,1*%
%TO.N,/3.3V_Solar*%
X94025000Y-124640000D03*
%TO.P,R50,2*%
%TO.N,Net-(U50-FB)*%
X94025000Y-125280000D03*
%TD*%
%TO.P,C53,1*%
%TO.N,/3.3V_Solar*%
X95025000Y-124640000D03*
%TO.P,C53,2*%
%TO.N,Net-(U50-FB)*%
X95025000Y-125280000D03*
%TD*%
D13*
%TO.P,R51,1*%
%TO.N,Net-(U50-FB)*%
X96025000Y-125280000D03*
%TO.P,R51,2*%
%TO.N,GND*%
X96025000Y-124640000D03*
%TD*%
D12*
%TO.P,R54,1*%
%TO.N,Net-(U50-RT)*%
X95025000Y-128820000D03*
%TO.P,R54,2*%
%TO.N,GND*%
X95025000Y-129460000D03*
%TD*%
%TO.P,C54,1*%
%TO.N,Net-(C54-Pad1)*%
X96115000Y-126240000D03*
%TO.P,C54,2*%
%TO.N,GND*%
X96115000Y-126880000D03*
%TD*%
D13*
%TO.P,R52,1*%
%TO.N,Net-(U50-VC)*%
X95115000Y-126880000D03*
%TO.P,R52,2*%
%TO.N,Net-(C54-Pad1)*%
X95115000Y-126240000D03*
%TD*%
%TO.P,L50,1,1*%
%TO.N,Net-(U50-SW1)*%
X86025000Y-127780000D03*
%TO.P,L50,2,2*%
%TO.N,Net-(U50-SW2)*%
X86025000Y-127140000D03*
%TD*%
%TO.P,C50,1*%
%TO.N,Net-(U50-SW1)*%
X86525000Y-129280000D03*
%TO.P,C50,2*%
%TO.N,Net-(U50-BST1)*%
X86525000Y-128640000D03*
%TD*%
D16*
%TO.P,R55,1*%
%TO.N,/V_SOLAR*%
X91705000Y-130460000D03*
%TO.P,R55,2*%
%TO.N,Net-(U50-RUN)*%
X92345000Y-130460000D03*
%TD*%
D17*
%TO.P,R70,1*%
%TO.N,/V_SOLAR*%
X118312500Y-130590000D03*
%TO.P,R70,2*%
%TO.N,/VSOLAR_1*%
X112387500Y-130590000D03*
%TD*%
D18*
%TO.P,C16,1*%
%TO.N,/V_SOLAR*%
X102190000Y-129550000D03*
%TO.P,C16,2*%
%TO.N,GND*%
X102190000Y-131100000D03*
%TD*%
D19*
%TO.P,C2,1*%
%TO.N,/3.3V_Batt*%
X118565000Y-133430000D03*
%TO.P,C2,2*%
%TO.N,GND*%
X117015000Y-133430000D03*
%TD*%
D18*
%TO.P,C1,1*%
%TO.N,/V_SOLAR*%
X100190000Y-129550000D03*
%TO.P,C1,2*%
%TO.N,GND*%
X100190000Y-131100000D03*
%TD*%
D20*
%TO.P,U12,1,SDA*%
%TO.N,/IC_I2C_SDA*%
X263140000Y-126790000D03*
%TO.P,U12,2,SCL*%
%TO.N,/IC_I2C_SCL*%
X263140000Y-127290000D03*
%TO.P,U12,3,ALERT*%
%TO.N,unconnected-(U12-ALERT-Pad3)*%
X263140000Y-127790000D03*
%TO.P,U12,4,GND*%
%TO.N,GND*%
X263140000Y-128290000D03*
%TO.P,U12,5,A2*%
%TO.N,Net-(U12-A2)*%
X261240000Y-128290000D03*
%TO.P,U12,6,A1*%
%TO.N,GND*%
X261240000Y-127790000D03*
%TO.P,U12,7,A0*%
X261240000Y-127290000D03*
%TO.P,U12,8,V+*%
%TO.N,/3.3V_Batt*%
X261240000Y-126790000D03*
D21*
%TO.P,U12,9,EP*%
%TO.N,GND*%
X262190000Y-127540000D03*
%TD*%
D22*
%TO.P,U7,1,SDA*%
%TO.N,/IC_I2C_SDA*%
X94090000Y-134590000D03*
%TO.P,U7,2,SCL*%
%TO.N,/IC_I2C_SCL*%
X94090000Y-134090000D03*
%TO.P,U7,3,ALERT*%
%TO.N,unconnected-(U7-ALERT-Pad3)*%
X94090000Y-133590000D03*
%TO.P,U7,4,GND*%
%TO.N,GND*%
X94090000Y-133090000D03*
%TO.P,U7,5,A2*%
%TO.N,Net-(U7-A0)*%
X95990000Y-133090000D03*
%TO.P,U7,6,A1*%
%TO.N,GND*%
X95990000Y-133590000D03*
%TO.P,U7,7,A0*%
%TO.N,Net-(U7-A0)*%
X95990000Y-134090000D03*
%TO.P,U7,8,V+*%
%TO.N,/3.3V_Batt*%
X95990000Y-134590000D03*
D21*
%TO.P,U7,9,EP*%
%TO.N,GND*%
X95040000Y-133840000D03*
%TD*%
D23*
%TO.P,J3,01,01*%
%TO.N,/VSOLAR_1*%
X64820000Y-139490000D03*
%TO.P,J3,02,02*%
%TO.N,/3.3V_Batt*%
X69770000Y-139490000D03*
%TO.P,J3,03,03*%
%TO.N,unconnected-(J3-Pad03)*%
X64820000Y-136950000D03*
%TO.P,J3,04,04*%
%TO.N,/3.3V_Solar*%
X69770000Y-136950000D03*
%TO.P,J3,05,05*%
%TO.N,/5V_BAT*%
X64820000Y-134410000D03*
%TO.P,J3,06,06*%
%TO.N,unconnected-(J3-Pad06)*%
X69770000Y-134410000D03*
%TO.P,J3,07,07*%
%TO.N,unconnected-(J3-Pad07)*%
X64820000Y-131870000D03*
%TO.P,J3,08,08*%
%TO.N,unconnected-(J3-Pad08)*%
X69770000Y-131870000D03*
%TO.P,J3,09,09*%
%TO.N,/5V_BAT*%
X64820000Y-129330000D03*
%TO.P,J3,10,10*%
%TO.N,unconnected-(J3-Pad10)*%
X69770000Y-129330000D03*
%TO.P,J3,11,11*%
%TO.N,unconnected-(J3-Pad11)*%
X64820000Y-126790000D03*
%TO.P,J3,12,12*%
%TO.N,unconnected-(J3-Pad12)*%
X69770000Y-126790000D03*
%TO.P,J3,13,13*%
%TO.N,/IC_I2C_SCL*%
X64820000Y-124250000D03*
%TO.P,J3,14,14*%
%TO.N,unconnected-(J3-Pad14)*%
X69770000Y-124250000D03*
%TO.P,J3,15,15*%
%TO.N,/IC_I2C_SDA*%
X64820000Y-121710000D03*
%TO.P,J3,16,16*%
%TO.N,unconnected-(J3-Pad16)*%
X69770000Y-121710000D03*
%TO.P,J3,17,17*%
%TO.N,unconnected-(J3-Pad17)*%
X64820000Y-119170000D03*
%TO.P,J3,18,18*%
%TO.N,unconnected-(J3-Pad18)*%
X69770000Y-119170000D03*
%TO.P,J3,19,19*%
%TO.N,GND*%
X64820000Y-116630000D03*
%TO.P,J3,20,20*%
%TO.N,unconnected-(J3-Pad20)*%
X69770000Y-116630000D03*
%TD*%
D24*
%TO.P,U50,1,PGND*%
%TO.N,GND*%
X88710000Y-125275000D03*
%TO.P,U50,2,SW2*%
%TO.N,Net-(U50-SW2)*%
X89210000Y-125275000D03*
%TO.P,U50,3,PVOUT*%
%TO.N,/3.3V_Solar*%
X89710000Y-125275000D03*
%TO.P,U50,4,PVOUT__1*%
X90210000Y-125275000D03*
%TO.P,U50,5,SW2__1*%
%TO.N,Net-(U50-SW2)*%
X90710000Y-125275000D03*
%TO.P,U50,6,PGND__1*%
%TO.N,GND*%
X91210000Y-125275000D03*
%TO.P,U50,7,PGOOD*%
%TO.N,unconnected-(U50-PGOOD-Pad7)*%
X91710000Y-125275000D03*
%TO.P,U50,8,SVCC*%
%TO.N,Net-(U50-MPPC)*%
X92210000Y-125275000D03*
D25*
%TO.P,U50,9,FB*%
%TO.N,Net-(U50-FB)*%
X92895000Y-125960000D03*
%TO.P,U50,10,VC*%
%TO.N,Net-(U50-VC)*%
X92895000Y-126460000D03*
%TO.P,U50,11,SGND*%
%TO.N,GND*%
X92895000Y-126960000D03*
%TO.P,U50,12,MPPC*%
%TO.N,Net-(U50-MPPC)*%
X92895000Y-127460000D03*
%TO.P,U50,13,VCC*%
X92895000Y-127960000D03*
%TO.P,U50,14,RT*%
%TO.N,Net-(U50-RT)*%
X92895000Y-128460000D03*
D24*
%TO.P,U50,15,RUN*%
%TO.N,Net-(U50-RUN)*%
X92210000Y-129145000D03*
%TO.P,U50,16,VIN*%
%TO.N,/V_SOLAR*%
X91710000Y-129145000D03*
%TO.P,U50,17,PGND__2*%
%TO.N,GND*%
X91210000Y-129145000D03*
%TO.P,U50,18,SW1*%
%TO.N,Net-(U50-SW1)*%
X90710000Y-129145000D03*
%TO.P,U50,19,PVIN*%
%TO.N,/V_SOLAR*%
X90210000Y-129145000D03*
%TO.P,U50,20,PVIN__1*%
X89710000Y-129145000D03*
%TO.P,U50,21,SW1__1*%
%TO.N,Net-(U50-SW1)*%
X89210000Y-129145000D03*
%TO.P,U50,22,PGND__3*%
%TO.N,GND*%
X88710000Y-129145000D03*
D25*
%TO.P,U50,23,BST1*%
%TO.N,Net-(U50-BST1)*%
X88025000Y-128460000D03*
%TO.P,U50,24,NC*%
%TO.N,unconnected-(U50-NC-Pad24)*%
X88025000Y-127960000D03*
%TO.P,U50,25,PWM/SYNC*%
%TO.N,GND*%
X88025000Y-127460000D03*
%TO.P,U50,26,NC__1*%
%TO.N,unconnected-(U50-NC__1-Pad26)*%
X88025000Y-126960000D03*
%TO.P,U50,27,NC__2*%
%TO.N,unconnected-(U50-NC__2-Pad27)*%
X88025000Y-126460000D03*
%TO.P,U50,28,BST2*%
%TO.N,Net-(U50-BST2)*%
X88025000Y-125960000D03*
D26*
%TO.P,U50,29,PGND__4*%
%TO.N,GND*%
X90460000Y-127210000D03*
%TD*%
D22*
%TO.P,U11,1,SDA*%
%TO.N,/IC_I2C_SDA*%
X97930000Y-122860000D03*
%TO.P,U11,2,SCL*%
%TO.N,/IC_I2C_SCL*%
X97930000Y-122360000D03*
%TO.P,U11,3,ALERT*%
%TO.N,unconnected-(U11-ALERT-Pad3)*%
X97930000Y-121860000D03*
%TO.P,U11,4,GND*%
%TO.N,GND*%
X97930000Y-121360000D03*
%TO.P,U11,5,A2*%
X99830000Y-121360000D03*
%TO.P,U11,6,A1*%
%TO.N,Net-(U11-A0)*%
X99830000Y-121860000D03*
%TO.P,U11,7,A0*%
X99830000Y-122360000D03*
%TO.P,U11,8,V+*%
%TO.N,/3.3V_Batt*%
X99830000Y-122860000D03*
D21*
%TO.P,U11,9,EP*%
%TO.N,GND*%
X98880000Y-122110000D03*
%TD*%
D22*
%TO.P,U8,1,SDA*%
%TO.N,/IC_I2C_SDA*%
X217502500Y-129852500D03*
%TO.P,U8,2,SCL*%
%TO.N,/IC_I2C_SCL*%
X217502500Y-129352500D03*
%TO.P,U8,3,ALERT*%
%TO.N,unconnected-(U8-ALERT-Pad3)*%
X217502500Y-128852500D03*
%TO.P,U8,4,GND*%
%TO.N,GND*%
X217502500Y-128352500D03*
%TO.P,U8,5,A2*%
X219402500Y-128352500D03*
%TO.P,U8,6,A1*%
X219402500Y-128852500D03*
%TO.P,U8,7,A0*%
%TO.N,Net-(U8-A0)*%
X219402500Y-129352500D03*
%TO.P,U8,8,V+*%
%TO.N,/3.3V_Batt*%
X219402500Y-129852500D03*
D21*
%TO.P,U8,9,EP*%
%TO.N,GND*%
X218452500Y-129102500D03*
%TD*%
D22*
%TO.P,U9,1,SDA*%
%TO.N,/IC_I2C_SDA*%
X311430000Y-129870000D03*
%TO.P,U9,2,SCL*%
%TO.N,/IC_I2C_SCL*%
X311430000Y-129370000D03*
%TO.P,U9,3,ALERT*%
%TO.N,unconnected-(U9-ALERT-Pad3)*%
X311430000Y-128870000D03*
%TO.P,U9,4,GND*%
%TO.N,GND*%
X311430000Y-128370000D03*
%TO.P,U9,5,A2*%
X313330000Y-128370000D03*
%TO.P,U9,6,A1*%
%TO.N,Net-(U9-A1)*%
X313330000Y-128870000D03*
%TO.P,U9,7,A0*%
%TO.N,GND*%
X313330000Y-129370000D03*
%TO.P,U9,8,V+*%
%TO.N,/3.3V_Batt*%
X313330000Y-129870000D03*
D21*
%TO.P,U9,9,EP*%
%TO.N,GND*%
X312380000Y-129120000D03*
%TD*%
D22*
%TO.P,U10,1,SDA*%
%TO.N,/IC_I2C_SDA*%
X161500000Y-129610000D03*
%TO.P,U10,2,SCL*%
%TO.N,/IC_I2C_SCL*%
X161500000Y-129110000D03*
%TO.P,U10,3,ALERT*%
%TO.N,unconnected-(U10-ALERT-Pad3)*%
X161500000Y-128610000D03*
%TO.P,U10,4,GND*%
%TO.N,GND*%
X161500000Y-128110000D03*
%TO.P,U10,5,A2*%
X163400000Y-128110000D03*
%TO.P,U10,6,A1*%
X163400000Y-128610000D03*
%TO.P,U10,7,A0*%
X163400000Y-129110000D03*
%TO.P,U10,8,V+*%
%TO.N,/3.3V_Batt*%
X163400000Y-129610000D03*
D21*
%TO.P,U10,9,EP*%
%TO.N,GND*%
X162450000Y-128860000D03*
%TD*%
D27*
%TO.N,GND*%
X107990000Y-128970000D03*
X102870000Y-132750000D03*
X95713162Y-127363162D03*
X94443171Y-129993171D03*
%TO.N,/V_SOLAR*%
X99340000Y-128500000D03*
X97331000Y-127520000D03*
%TO.N,/VSOLAR_1*%
X64830000Y-141040000D03*
X110940000Y-131030000D03*
%TO.N,/V_SOLAR*%
X103250000Y-130190000D03*
X109680000Y-131020000D03*
%TO.N,GND*%
X115210000Y-133430000D03*
X122300000Y-129910000D03*
X89530000Y-122540000D03*
X91860000Y-123364000D03*
%TO.N,/IC_I2C_SCL*%
X96620000Y-121110000D03*
X85570000Y-123126000D03*
%TO.N,/IC_I2C_SDA*%
X94927168Y-122392832D03*
%TO.N,GND*%
X89750000Y-131620000D03*
%TO.N,/V_SOLAR*%
X91250000Y-130930000D03*
X89750000Y-130050000D03*
X72874006Y-99575994D03*
%TO.N,/IC_I2C_SDA*%
X99375980Y-126359398D03*
X100221967Y-125678033D03*
%TO.N,/3.3V_Batt*%
X109480000Y-127629000D03*
X107487500Y-131532500D03*
%TO.N,/IC_I2C_SCL*%
X126860000Y-132420000D03*
X126560000Y-133500000D03*
%TO.N,/3.3V_Batt*%
X164970000Y-130620000D03*
X164560000Y-129436000D03*
X222070000Y-129678500D03*
X221530000Y-130920000D03*
X259300000Y-127010000D03*
X257910000Y-128430000D03*
%TO.N,GND*%
X98860000Y-123820000D03*
X162450000Y-127130000D03*
X218462500Y-127542500D03*
%TO.N,Net-(U50-SW2)*%
X90760000Y-124510000D03*
X88010000Y-123810000D03*
%TO.N,Net-(U50-FB)*%
X93385001Y-124740961D03*
X94054736Y-126309000D03*
%TO.N,GND*%
X88710000Y-124210000D03*
X262200000Y-129290000D03*
X312380000Y-127210000D03*
%TO.N,/5V_BAT*%
X200800000Y-117000000D03*
%TD*%
D28*
%TO.N,/5V_BAT*%
X169541000Y-91849000D02*
X169541000Y-89309000D01*
D29*
%TO.N,GND*%
X106911666Y-128970000D02*
X107990000Y-128970000D01*
%TO.N,/3.3V_Batt*%
X107487500Y-131532500D02*
X110485000Y-134530000D01*
X110485000Y-134530000D02*
X117650000Y-134530000D01*
X117650000Y-134530000D02*
X118565000Y-133615000D01*
X118565000Y-133615000D02*
X118565000Y-133430000D01*
X120390000Y-133460000D02*
X118595000Y-133460000D01*
X118595000Y-133460000D02*
X118565000Y-133430000D01*
X118595000Y-133460000D02*
X118720000Y-133460000D01*
D28*
%TO.N,GND*%
X102190000Y-132070000D02*
X102870000Y-132750000D01*
X102190000Y-131100000D02*
X102190000Y-132070000D01*
X96115000Y-126961324D02*
X95713162Y-127363162D01*
X96115000Y-126880000D02*
X96115000Y-126961324D01*
X94976342Y-129460000D02*
X94443171Y-129993171D01*
X95025000Y-129460000D02*
X94976342Y-129460000D01*
D29*
%TO.N,/V_SOLAR*%
X100190000Y-129350000D02*
X99340000Y-128500000D01*
X97331000Y-124032988D02*
X97331000Y-127520000D01*
X100190000Y-129550000D02*
X100190000Y-129350000D01*
%TO.N,/VSOLAR_1*%
X112387500Y-130590000D02*
X111380000Y-130590000D01*
X111380000Y-130590000D02*
X110940000Y-131030000D01*
X64830000Y-141040000D02*
X64830000Y-139500000D01*
X64830000Y-139500000D02*
X64820000Y-139490000D01*
%TO.N,/V_SOLAR*%
X118312500Y-130590000D02*
X116396500Y-132506000D01*
X111166000Y-132506000D02*
X109680000Y-131020000D01*
X116396500Y-132506000D02*
X111166000Y-132506000D01*
X103250000Y-130190000D02*
X102830000Y-130190000D01*
X102830000Y-130190000D02*
X102190000Y-129550000D01*
D28*
%TO.N,GND*%
X115240000Y-133460000D02*
X115210000Y-133430000D01*
X117170000Y-133460000D02*
X115240000Y-133460000D01*
D29*
X123850000Y-131460000D02*
X122300000Y-129910000D01*
X124790000Y-131460000D02*
X123850000Y-131460000D01*
D28*
%TO.N,/5V_BAT*%
X64820000Y-129330000D02*
X64103000Y-129330000D01*
X64103000Y-129330000D02*
X60180000Y-125407000D01*
X60180000Y-125407000D02*
X60180000Y-104832778D01*
X60180000Y-104832778D02*
X67882778Y-97130000D01*
X168300000Y-93090000D02*
X169541000Y-91849000D01*
X169541000Y-89309000D02*
X167059000Y-89309000D01*
X58250000Y-102060000D02*
X58250000Y-129045000D01*
X63615000Y-134410000D02*
X64820000Y-134410000D01*
X162999733Y-93368267D02*
X66941733Y-93368267D01*
X167059000Y-89309000D02*
X162999733Y-93368267D01*
X66941733Y-93368267D02*
X58250000Y-102060000D01*
X58250000Y-129045000D02*
X63615000Y-134410000D01*
X71520000Y-97150000D02*
X71500000Y-97130000D01*
X161720000Y-97130000D02*
X168300000Y-90550000D01*
X71500000Y-97130000D02*
X67882778Y-97130000D01*
X67882778Y-97130000D02*
X161720000Y-97130000D01*
X67882778Y-97130000D02*
X71579000Y-97130000D01*
D29*
%TO.N,/V_SOLAR*%
X94299018Y-130901000D02*
X92070982Y-130901000D01*
X92070982Y-130901000D02*
X91705000Y-130535018D01*
X97331000Y-127520000D02*
X97331000Y-127869018D01*
X97331000Y-127869018D02*
X94299018Y-130901000D01*
X72874006Y-99575994D02*
X97331000Y-124032988D01*
X91705000Y-130535018D02*
X91705000Y-130460000D01*
%TO.N,GND*%
X90025000Y-123035000D02*
X89530000Y-122540000D01*
X90025000Y-123295000D02*
X90025000Y-123035000D01*
%TO.N,/3.3V_Solar*%
X91335999Y-122824000D02*
X91335999Y-122000000D01*
X91335999Y-122000000D02*
X89054910Y-122000000D01*
X89054910Y-122000000D02*
X74104910Y-136950000D01*
X74104910Y-136950000D02*
X70096000Y-136950000D01*
%TO.N,/IC_I2C_SDA*%
X64820000Y-121710000D02*
X65696000Y-122586000D01*
X92454336Y-119920000D02*
X94927168Y-122392832D01*
X65696000Y-122586000D02*
X84304000Y-122586000D01*
X84304000Y-122586000D02*
X86970000Y-119920000D01*
X86970000Y-119920000D02*
X92454336Y-119920000D01*
%TO.N,GND*%
X91929000Y-123295000D02*
X91860000Y-123364000D01*
X92525000Y-123295000D02*
X91929000Y-123295000D01*
%TO.N,/IC_I2C_SCL*%
X64820000Y-124250000D02*
X65696000Y-125126000D01*
X65696000Y-125126000D02*
X83570000Y-125126000D01*
X83570000Y-125126000D02*
X85570000Y-123126000D01*
X97378946Y-121110000D02*
X97439000Y-121170054D01*
X96620000Y-121110000D02*
X97378946Y-121110000D01*
%TO.N,GND*%
X90025000Y-131345000D02*
X89750000Y-131620000D01*
X90025000Y-131280000D02*
X90025000Y-131345000D01*
%TO.N,Net-(U50-SW1)*%
X89210000Y-129145000D02*
X89210000Y-132170000D01*
X89210000Y-132170000D02*
X89220000Y-132160000D01*
X89220000Y-132160000D02*
X90710000Y-132160000D01*
X90710000Y-132160000D02*
X90710000Y-129145000D01*
%TO.N,/V_SOLAR*%
X89710000Y-129145000D02*
X89710000Y-130010000D01*
X89710000Y-130010000D02*
X89750000Y-130050000D01*
X91250000Y-130915000D02*
X91705000Y-130460000D01*
X91250000Y-130930000D02*
X91250000Y-130915000D01*
%TO.N,/IC_I2C_SDA*%
X97930000Y-123655090D02*
X99952943Y-125678033D01*
X100221967Y-125678033D02*
X99952943Y-125678033D01*
X93258000Y-133938946D02*
X93258000Y-132477378D01*
X94090000Y-134590000D02*
X93909054Y-134590000D01*
X93258000Y-132477378D02*
X99375980Y-126359398D01*
X93909054Y-134590000D02*
X93258000Y-133938946D01*
%TO.N,/IC_I2C_SCL*%
X103390258Y-129610000D02*
X100165129Y-126384871D01*
X100114183Y-126384871D02*
X100165129Y-126384871D01*
X94090000Y-134090000D02*
X93909054Y-134090000D01*
X93909054Y-134090000D02*
X93599000Y-133779946D01*
X93599000Y-133779946D02*
X93599000Y-132900054D01*
X93599000Y-132900054D02*
X100114183Y-126384871D01*
%TO.N,/3.3V_Batt*%
X98590000Y-134435000D02*
X104585000Y-134435000D01*
X104585000Y-134435000D02*
X107487500Y-131532500D01*
X105565000Y-129610000D02*
X107487500Y-131532500D01*
X104476000Y-122625000D02*
X109480000Y-127629000D01*
X101370000Y-122625000D02*
X104476000Y-122625000D01*
%TO.N,/IC_I2C_SCL*%
X126860000Y-132420000D02*
X126860000Y-131873783D01*
X126860000Y-131873783D02*
X115980217Y-120994000D01*
X97439000Y-121170054D02*
X97439000Y-122601001D01*
X115980217Y-120994000D02*
X97615054Y-120994000D01*
X97615054Y-120994000D02*
X97439000Y-121170054D01*
%TO.N,/IC_I2C_SDA*%
X125880000Y-132960000D02*
X158150000Y-132960000D01*
X104925000Y-128610000D02*
X104925000Y-128534982D01*
X104925000Y-128534982D02*
X105290982Y-128169000D01*
X105290982Y-128169000D02*
X122672970Y-128169000D01*
X125880000Y-131376030D02*
X125880000Y-132960000D01*
X122672970Y-128169000D02*
X125880000Y-131376030D01*
%TO.N,/IC_I2C_SCL*%
X104925000Y-129610000D02*
X103390258Y-129610000D01*
X100165129Y-126384871D02*
X97439000Y-123658742D01*
X97439000Y-123658742D02*
X97439000Y-122601001D01*
X97680001Y-122360000D02*
X97930000Y-122360000D01*
X97439000Y-122601001D02*
X97680001Y-122360000D01*
%TO.N,/IC_I2C_SDA*%
X97930000Y-122860000D02*
X97930000Y-123655090D01*
X99952943Y-125678033D02*
X102884910Y-128610000D01*
X102884910Y-128610000D02*
X104925000Y-128610000D01*
%TO.N,/3.3V_Batt*%
X118720000Y-133460000D02*
X119301000Y-134041000D01*
X119301000Y-134041000D02*
X161549000Y-134041000D01*
X161549000Y-134041000D02*
X164970000Y-130620000D01*
%TO.N,/IC_I2C_SCL*%
X126560000Y-133500000D02*
X124830000Y-133500000D01*
X124830000Y-133500000D02*
X124790000Y-133460000D01*
X130170000Y-129110000D02*
X126860000Y-132420000D01*
X161500000Y-129110000D02*
X130170000Y-129110000D01*
%TO.N,/IC_I2C_SDA*%
X124790000Y-132960000D02*
X125880000Y-132960000D01*
X158150000Y-132960000D02*
X161500000Y-129610000D01*
%TO.N,/3.3V_Batt*%
X221530000Y-130920000D02*
X165270000Y-130920000D01*
X165270000Y-130920000D02*
X164970000Y-130620000D01*
X164560000Y-129436000D02*
X164386000Y-129610000D01*
X164386000Y-129610000D02*
X163400000Y-129610000D01*
%TO.N,/IC_I2C_SDA*%
X161500000Y-129610000D02*
X161866000Y-129976000D01*
X161866000Y-129976000D02*
X217379000Y-129976000D01*
X217379000Y-129976000D02*
X217502500Y-129852500D01*
%TO.N,/IC_I2C_SCL*%
X217502500Y-129352500D02*
X165437590Y-129352500D01*
X161009000Y-128799946D02*
X161319054Y-129110000D01*
X165437590Y-129352500D02*
X162674090Y-126589000D01*
X161009000Y-127805910D02*
X161009000Y-128799946D01*
X162674090Y-126589000D02*
X162225910Y-126589000D01*
X162225910Y-126589000D02*
X161009000Y-127805910D01*
X161319054Y-129110000D02*
X161500000Y-129110000D01*
%TO.N,/3.3V_Batt*%
X257910000Y-128430000D02*
X255420000Y-130920000D01*
X255420000Y-130920000D02*
X221530000Y-130920000D01*
X222070000Y-129678500D02*
X221408500Y-129678500D01*
X221408500Y-129678500D02*
X221402500Y-129672500D01*
%TO.N,/IC_I2C_SDA*%
X217502500Y-129852500D02*
X217868500Y-130218500D01*
X217868500Y-130218500D02*
X254965500Y-130218500D01*
X254965500Y-130218500D02*
X258760000Y-126424000D01*
%TO.N,/IC_I2C_SCL*%
X263940000Y-127290000D02*
X263140000Y-127290000D01*
X217011500Y-129111499D02*
X217252501Y-129352500D01*
X263940000Y-126330000D02*
X263693000Y-126083000D01*
X263940000Y-127290000D02*
X263940000Y-126330000D01*
X263693000Y-126083000D02*
X219091054Y-126083000D01*
X219091054Y-126083000D02*
X217011500Y-128162554D01*
X217011500Y-128162554D02*
X217011500Y-129111499D01*
X217252501Y-129352500D02*
X217502500Y-129352500D01*
%TO.N,/3.3V_Batt*%
X259300000Y-127010000D02*
X259930000Y-127010000D01*
X259930000Y-127010000D02*
X259950000Y-127030000D01*
%TO.N,/IC_I2C_SDA*%
X263140000Y-126790000D02*
X262774000Y-126424000D01*
X262774000Y-126424000D02*
X258760000Y-126424000D01*
X258760000Y-126424000D02*
X258760000Y-128250000D01*
X258760000Y-128250000D02*
X260380000Y-129870000D01*
X260380000Y-129870000D02*
X311430000Y-129870000D01*
%TO.N,/3.3V_Batt*%
X259716000Y-130236000D02*
X257910000Y-128430000D01*
X312964000Y-130236000D02*
X259716000Y-130236000D01*
X313330000Y-129870000D02*
X312964000Y-130236000D01*
%TO.N,/IC_I2C_SCL*%
X311430000Y-129370000D02*
X310950000Y-129370000D01*
X308870000Y-127290000D02*
X263940000Y-127290000D01*
X310950000Y-129370000D02*
X308870000Y-127290000D01*
%TO.N,/3.3V_Batt*%
X106911666Y-129610000D02*
X105565000Y-129610000D01*
X105565000Y-129610000D02*
X105565000Y-128610000D01*
%TO.N,GND*%
X124790000Y-131960000D02*
X124790000Y-131460000D01*
X120390000Y-132960000D02*
X123116030Y-132960000D01*
X123116030Y-132960000D02*
X124616030Y-131460000D01*
X124616030Y-131460000D02*
X124790000Y-131460000D01*
%TO.N,/VSOLAR_1*%
X120390000Y-131460000D02*
X120390000Y-130178694D01*
X120390000Y-130178694D02*
X118885306Y-128674000D01*
X118885306Y-128674000D02*
X114303500Y-128674000D01*
X114303500Y-128674000D02*
X112387500Y-130590000D01*
X120390000Y-131460000D02*
X121114999Y-131460000D01*
X121114999Y-131460000D02*
X121356000Y-131701001D01*
X121356000Y-131701001D02*
X121356000Y-132167970D01*
X121356000Y-132167970D02*
X121063970Y-132460000D01*
X121063970Y-132460000D02*
X120390000Y-132460000D01*
%TO.N,/V_SOLAR*%
X118312500Y-130590000D02*
X119682500Y-131960000D01*
X119682500Y-131960000D02*
X120390000Y-131960000D01*
X102190000Y-129550000D02*
X100190000Y-129550000D01*
%TO.N,Net-(U8-A0)*%
X221402500Y-129032500D02*
X219903446Y-129032500D01*
X219903446Y-129032500D02*
X219583446Y-129352500D01*
X219583446Y-129352500D02*
X219402500Y-129352500D01*
%TO.N,/3.3V_Batt*%
X221402500Y-129672500D02*
X221222500Y-129852500D01*
X221222500Y-129852500D02*
X219402500Y-129852500D01*
%TO.N,GND*%
X219402500Y-128352500D02*
X219202500Y-128352500D01*
X219202500Y-128352500D02*
X218452500Y-129102500D01*
X217502500Y-128352500D02*
X217702500Y-128352500D01*
X217702500Y-128352500D02*
X218452500Y-129102500D01*
X219402500Y-128852500D02*
X218702500Y-128852500D01*
X218702500Y-128852500D02*
X218452500Y-129102500D01*
X218452500Y-129102500D02*
X218452500Y-127552500D01*
X218452500Y-127552500D02*
X218462500Y-127542500D01*
X94090000Y-133090000D02*
X94290000Y-133090000D01*
X94290000Y-133090000D02*
X95040000Y-133840000D01*
X95990000Y-133590000D02*
X95290000Y-133590000D01*
X95290000Y-133590000D02*
X95040000Y-133840000D01*
%TO.N,Net-(U7-A0)*%
X98095001Y-134090000D02*
X96490000Y-134090000D01*
X96170946Y-133090000D02*
X96490000Y-133409054D01*
X95990000Y-133090000D02*
X96170946Y-133090000D01*
X96490000Y-133409054D02*
X96490000Y-134090000D01*
X98590000Y-133795000D02*
X98390001Y-133795000D01*
X98390001Y-133795000D02*
X98095001Y-134090000D01*
X96490000Y-134090000D02*
X95990000Y-134090000D01*
%TO.N,/3.3V_Batt*%
X98590000Y-134435000D02*
X98435000Y-134590000D01*
X98435000Y-134590000D02*
X95990000Y-134590000D01*
D28*
X69770000Y-139490000D02*
X91422000Y-139490000D01*
X91422000Y-139490000D02*
X95990000Y-134922000D01*
X95990000Y-134922000D02*
X95990000Y-134606000D01*
D29*
%TO.N,GND*%
X98880000Y-123800000D02*
X98860000Y-123820000D01*
X98880000Y-122110000D02*
X98880000Y-123800000D01*
X162450000Y-128860000D02*
X162450000Y-127130000D01*
%TO.N,Net-(U50-SW2)*%
X90710000Y-124560000D02*
X90760000Y-124510000D01*
X90710000Y-125275000D02*
X90710000Y-124560000D01*
X86525000Y-125295000D02*
X88151000Y-123669000D01*
X89251000Y-123985910D02*
X89251000Y-125234000D01*
X88151000Y-123669000D02*
X88934090Y-123669000D01*
X88934090Y-123669000D02*
X89251000Y-123985910D01*
X89251000Y-125234000D02*
X89210000Y-125275000D01*
%TO.N,GND*%
X88710000Y-124210000D02*
X88710000Y-125275000D01*
%TO.N,Net-(U50-BST1)*%
X88025000Y-128460000D02*
X86705000Y-128460000D01*
X86705000Y-128460000D02*
X86525000Y-128640000D01*
%TO.N,Net-(U50-BST2)*%
X86525000Y-125935000D02*
X88000000Y-125935000D01*
X88000000Y-125935000D02*
X88025000Y-125960000D01*
%TO.N,Net-(U50-SW2)*%
X86025000Y-127140000D02*
X86025000Y-125595001D01*
X86025000Y-125595001D02*
X86325001Y-125295000D01*
X86325001Y-125295000D02*
X86525000Y-125295000D01*
%TO.N,Net-(U50-SW1)*%
X86025000Y-127780000D02*
X86025000Y-128979999D01*
X86025000Y-128979999D02*
X86325001Y-129280000D01*
X86325001Y-129280000D02*
X86525000Y-129280000D01*
X89210000Y-129145000D02*
X89210000Y-129531990D01*
X89210000Y-129531990D02*
X88925990Y-129816000D01*
X88925990Y-129816000D02*
X87061000Y-129816000D01*
X87061000Y-129816000D02*
X86525000Y-129280000D01*
%TO.N,/V_SOLAR*%
X90025000Y-130640000D02*
X90025000Y-129330000D01*
X90025000Y-129330000D02*
X90210000Y-129145000D01*
X90210000Y-129145000D02*
X89710000Y-129145000D01*
X91705000Y-130460000D02*
X91705000Y-129150000D01*
X91705000Y-129150000D02*
X91710000Y-129145000D01*
%TO.N,Net-(U50-RUN)*%
X92345000Y-130460000D02*
X92345000Y-129280000D01*
X92345000Y-129280000D02*
X92210000Y-129145000D01*
%TO.N,Net-(U50-RT)*%
X95025000Y-128820000D02*
X93255000Y-128820000D01*
X93255000Y-128820000D02*
X92895000Y-128460000D01*
%TO.N,Net-(U50-FB)*%
X94025000Y-125280000D02*
X96025000Y-125280000D01*
X93924040Y-125280000D02*
X94025000Y-125280000D01*
X92895000Y-125960000D02*
X93460000Y-125960000D01*
X93460000Y-125960000D02*
X93809000Y-126309000D01*
X93385001Y-124740961D02*
X93924040Y-125280000D01*
X93809000Y-126309000D02*
X94054736Y-126309000D01*
%TO.N,Net-(U50-VC)*%
X95115000Y-126880000D02*
X93701990Y-126880000D01*
X93701990Y-126880000D02*
X93281990Y-126460000D01*
X93281990Y-126460000D02*
X92895000Y-126460000D01*
%TO.N,Net-(C54-Pad1)*%
X96115000Y-126240000D02*
X95115000Y-126240000D01*
%TO.N,Net-(U50-MPPC)*%
X96509000Y-125769000D02*
X96990000Y-126250000D01*
X93798982Y-125769000D02*
X96509000Y-125769000D01*
X93304982Y-125275000D02*
X93798982Y-125769000D01*
X92210000Y-125275000D02*
X93304982Y-125275000D01*
X96990000Y-126250000D02*
X96990000Y-126850000D01*
X96990000Y-126850000D02*
X95880000Y-127960000D01*
X95880000Y-127960000D02*
X92895000Y-127960000D01*
X92895000Y-127960000D02*
X92895000Y-127460000D01*
X92525000Y-123935000D02*
X92525000Y-124960000D01*
X92525000Y-124960000D02*
X92210000Y-125275000D01*
%TO.N,/3.3V_Solar*%
X94025000Y-124640000D02*
X94025000Y-124079982D01*
X94025000Y-124079982D02*
X92769018Y-122824000D01*
X92769018Y-122824000D02*
X91335999Y-122824000D01*
X90224999Y-123935000D02*
X90025000Y-123935000D01*
X91335999Y-122824000D02*
X90224999Y-123935000D01*
X94025000Y-124640000D02*
X95025000Y-124640000D01*
X89710000Y-125275000D02*
X90210000Y-125275000D01*
X90025000Y-123935000D02*
X90025000Y-125090000D01*
X90025000Y-125090000D02*
X90210000Y-125275000D01*
%TO.N,/3.3V_Batt*%
X101370000Y-122625000D02*
X101135000Y-122860000D01*
X101135000Y-122860000D02*
X99830000Y-122860000D01*
%TO.N,Net-(U11-A0)*%
X99830000Y-122360000D02*
X99955000Y-122235000D01*
X99955000Y-122235000D02*
X99955000Y-121985000D01*
X101370000Y-121985000D02*
X99955000Y-121985000D01*
X99955000Y-121985000D02*
X99830000Y-121860000D01*
%TO.N,GND*%
X99830000Y-121360000D02*
X99630000Y-121360000D01*
X99630000Y-121360000D02*
X98880000Y-122110000D01*
X97930000Y-121360000D02*
X98130000Y-121360000D01*
X98130000Y-121360000D02*
X98880000Y-122110000D01*
X90460000Y-127210000D02*
X90258010Y-127210000D01*
X90258010Y-127210000D02*
X88710000Y-128758010D01*
X88710000Y-128758010D02*
X88710000Y-129145000D01*
X90460000Y-127210000D02*
X90210000Y-127460000D01*
X90210000Y-127460000D02*
X88025000Y-127460000D01*
X90460000Y-127210000D02*
X91210000Y-127960000D01*
X91210000Y-127960000D02*
X91210000Y-129145000D01*
X90460000Y-127210000D02*
X91210000Y-126460000D01*
X91210000Y-126460000D02*
X91210000Y-125275000D01*
X90460000Y-127210000D02*
X90710000Y-126960000D01*
X90710000Y-126960000D02*
X92895000Y-126960000D01*
X90258010Y-127210000D02*
X88710000Y-125661990D01*
X88710000Y-125661990D02*
X88710000Y-125275000D01*
X161500000Y-128110000D02*
X161700000Y-128110000D01*
X161700000Y-128110000D02*
X162450000Y-128860000D01*
X163400000Y-128110000D02*
X163400000Y-129110000D01*
X162450000Y-128860000D02*
X163150000Y-128860000D01*
X163150000Y-128860000D02*
X163400000Y-128610000D01*
X262190000Y-129280000D02*
X262200000Y-129290000D01*
X262190000Y-127540000D02*
X262190000Y-129280000D01*
X263140000Y-128290000D02*
X262940000Y-128290000D01*
X262940000Y-128290000D02*
X262190000Y-127540000D01*
X261240000Y-127290000D02*
X261240000Y-127790000D01*
X262190000Y-127540000D02*
X261490000Y-127540000D01*
X261490000Y-127540000D02*
X261240000Y-127790000D01*
%TO.N,/3.3V_Batt*%
X259950000Y-127030000D02*
X260190000Y-126790000D01*
X260190000Y-126790000D02*
X261240000Y-126790000D01*
%TO.N,Net-(U12-A2)*%
X259950000Y-127670000D02*
X260570000Y-128290000D01*
X260570000Y-128290000D02*
X261240000Y-128290000D01*
%TO.N,GND*%
X312380000Y-129120000D02*
X312380000Y-127210000D01*
%TO.N,Net-(U9-A1)*%
X313330000Y-128870000D02*
X314700000Y-128870000D01*
X314700000Y-128870000D02*
X315050000Y-129220000D01*
%TO.N,/3.3V_Batt*%
X313330000Y-129870000D02*
X315040000Y-129870000D01*
X315040000Y-129870000D02*
X315050000Y-129860000D01*
%TO.N,GND*%
X313330000Y-129370000D02*
X312630000Y-129370000D01*
X312630000Y-129370000D02*
X312380000Y-129120000D01*
X313330000Y-128370000D02*
X313130000Y-128370000D01*
X313130000Y-128370000D02*
X312380000Y-129120000D01*
X311430000Y-128370000D02*
X311630000Y-128370000D01*
X311630000Y-128370000D02*
X312380000Y-129120000D01*
%TD*%
%TA.AperFunction,Conductor*%
%TO.N,GND*%
G36*
X98590094Y-128860707D02*
G01*
X98646027Y-128902579D01*
X98649862Y-128907998D01*
X98718210Y-129010288D01*
X98718213Y-129010292D01*
X98829707Y-129121786D01*
X98829711Y-129121789D01*
X98960814Y-129209390D01*
X98960827Y-129209397D01*
X99058407Y-129249815D01*
X99106503Y-129269737D01*
X99114691Y-129271365D01*
X99176601Y-129303750D01*
X99211176Y-129364465D01*
X99214500Y-129392983D01*
X99214500Y-129823337D01*
X99214501Y-129823355D01*
X99224650Y-129922707D01*
X99224651Y-129922710D01*
X99277996Y-130083694D01*
X99278001Y-130083705D01*
X99367029Y-130228040D01*
X99367032Y-130228044D01*
X99486955Y-130347967D01*
X99486959Y-130347970D01*
X99631294Y-130436998D01*
X99631297Y-130436999D01*
X99631303Y-130437003D01*
X99792292Y-130490349D01*
X99891655Y-130500500D01*
X100488344Y-130500499D01*
X100488352Y-130500498D01*
X100488355Y-130500498D01*
X100562108Y-130492964D01*
X100587708Y-130490349D01*
X100748697Y-130437003D01*
X100893044Y-130347968D01*
X101012968Y-130228044D01*
X101024465Y-130209403D01*
X101032051Y-130202580D01*
X101036291Y-130193297D01*
X101057589Y-130179609D01*
X101076412Y-130162679D01*
X101088048Y-130160034D01*
X101095069Y-130155523D01*
X101130004Y-130150500D01*
X101249996Y-130150500D01*
X101317035Y-130170185D01*
X101355535Y-130209404D01*
X101367031Y-130228043D01*
X101486955Y-130347967D01*
X101486959Y-130347970D01*
X101631294Y-130436998D01*
X101631297Y-130436999D01*
X101631303Y-130437003D01*
X101792292Y-130490349D01*
X101891655Y-130500500D01*
X102239901Y-130500499D01*
X102306940Y-130520183D01*
X102327582Y-130536818D01*
X102461284Y-130670520D01*
X102461286Y-130670521D01*
X102461290Y-130670524D01*
X102572103Y-130734501D01*
X102598216Y-130749577D01*
X102674426Y-130769997D01*
X102730012Y-130802091D01*
X102739707Y-130811786D01*
X102739711Y-130811789D01*
X102870814Y-130899390D01*
X102870827Y-130899397D01*
X103016498Y-130959735D01*
X103016503Y-130959737D01*
X103171153Y-130990499D01*
X103171156Y-130990500D01*
X103171158Y-130990500D01*
X103328844Y-130990500D01*
X103328845Y-130990499D01*
X103483497Y-130959737D01*
X103629179Y-130899394D01*
X103760289Y-130811789D01*
X103871789Y-130700289D01*
X103959394Y-130569179D01*
X104019737Y-130423497D01*
X104036039Y-130341544D01*
X104042252Y-130310309D01*
X104074637Y-130248398D01*
X104135352Y-130213824D01*
X104163869Y-130210500D01*
X104418743Y-130210500D01*
X104485782Y-130230185D01*
X104491099Y-130233924D01*
X104492157Y-130234534D01*
X104492159Y-130234536D01*
X104492160Y-130234536D01*
X104492163Y-130234538D01*
X104554269Y-130260263D01*
X104638238Y-130295044D01*
X104755639Y-130310500D01*
X105094360Y-130310499D01*
X105094363Y-130310499D01*
X105211755Y-130295045D01*
X105211755Y-130295044D01*
X105211762Y-130295044D01*
X105211767Y-130295041D01*
X105212900Y-130294739D01*
X105215090Y-130294606D01*
X105219821Y-130293984D01*
X105219865Y-130294318D01*
X105221946Y-130294192D01*
X105227159Y-130291802D01*
X105244576Y-130292825D01*
X105262453Y-130291746D01*
X105274364Y-130293439D01*
X105278238Y-130295044D01*
X105378436Y-130308235D01*
X105378927Y-130308305D01*
X105410213Y-130322533D01*
X105441555Y-130336398D01*
X105442391Y-130337167D01*
X105442529Y-130337230D01*
X105442630Y-130337387D01*
X105449154Y-130343389D01*
X106550584Y-131444820D01*
X106584068Y-131506141D01*
X106579084Y-131575833D01*
X106550583Y-131620180D01*
X104372584Y-133798181D01*
X104311261Y-133831666D01*
X104284903Y-133834500D01*
X99414499Y-133834500D01*
X99347460Y-133814815D01*
X99301705Y-133762011D01*
X99290499Y-133710500D01*
X99290499Y-133625636D01*
X99275046Y-133508246D01*
X99275044Y-133508241D01*
X99275044Y-133508238D01*
X99214536Y-133362159D01*
X99118282Y-133236718D01*
X98992841Y-133140464D01*
X98971574Y-133131655D01*
X98846762Y-133079956D01*
X98846760Y-133079955D01*
X98729361Y-133064500D01*
X98450636Y-133064500D01*
X98333246Y-133079953D01*
X98333237Y-133079956D01*
X98187160Y-133140463D01*
X98061718Y-133236718D01*
X97965459Y-133362165D01*
X97962497Y-133367295D01*
X97942799Y-133392965D01*
X97909480Y-133426284D01*
X97909472Y-133426291D01*
X97882583Y-133453181D01*
X97821260Y-133486666D01*
X97794902Y-133489500D01*
X97214500Y-133489500D01*
X97210392Y-133488293D01*
X97206213Y-133489223D01*
X97177155Y-133478534D01*
X97147461Y-133469815D01*
X97144658Y-133466580D01*
X97140639Y-133465102D01*
X97121970Y-133440397D01*
X97101706Y-133417011D01*
X97100364Y-133411806D01*
X97098515Y-133409358D01*
X97095540Y-133393083D01*
X97090857Y-133374905D01*
X97090500Y-133370212D01*
X97090500Y-133329997D01*
X97089223Y-133325233D01*
X97063228Y-133228216D01*
X97049577Y-133177270D01*
X97028327Y-133140463D01*
X96970524Y-133040344D01*
X96970521Y-133040340D01*
X96970520Y-133040338D01*
X96858716Y-132928534D01*
X96858715Y-132928533D01*
X96854385Y-132924203D01*
X96854374Y-132924193D01*
X96660275Y-132730094D01*
X96649580Y-132717899D01*
X96579037Y-132625965D01*
X96561467Y-132612483D01*
X96461429Y-132535721D01*
X96461425Y-132535719D01*
X96324472Y-132478991D01*
X96324470Y-132478990D01*
X96214401Y-132464500D01*
X95765596Y-132464500D01*
X95655536Y-132478988D01*
X95655527Y-132478991D01*
X95518574Y-132535719D01*
X95518571Y-132535720D01*
X95518571Y-132535721D01*
X95400964Y-132625964D01*
X95321063Y-132730094D01*
X95310719Y-132743574D01*
X95253991Y-132880527D01*
X95253990Y-132880529D01*
X95239500Y-132990598D01*
X95239500Y-133189403D01*
X95253988Y-133299463D01*
X95253991Y-133299472D01*
X95310719Y-133436426D01*
X95310721Y-133436429D01*
X95370637Y-133514514D01*
X95395831Y-133579683D01*
X95381792Y-133648128D01*
X95370637Y-133665486D01*
X95310721Y-133743570D01*
X95310719Y-133743573D01*
X95253991Y-133880527D01*
X95253990Y-133880529D01*
X95239500Y-133990598D01*
X95239500Y-134189403D01*
X95253989Y-134299468D01*
X95256094Y-134307322D01*
X95252814Y-134308200D01*
X95254634Y-134325206D01*
X95259299Y-134357647D01*
X95258442Y-134360777D01*
X95258581Y-134362073D01*
X95257494Y-134364240D01*
X95255248Y-134372450D01*
X95256095Y-134372677D01*
X95253990Y-134380529D01*
X95239501Y-134490589D01*
X95239500Y-134490605D01*
X95239500Y-134559770D01*
X95230855Y-134589210D01*
X95224332Y-134619197D01*
X95220577Y-134624212D01*
X95219815Y-134626809D01*
X95203185Y-134647446D01*
X95063545Y-134787087D01*
X95050173Y-134800459D01*
X94988850Y-134833943D01*
X94919158Y-134828959D01*
X94863225Y-134787087D01*
X94838808Y-134721623D01*
X94839552Y-134696596D01*
X94840500Y-134689401D01*
X94840499Y-134490600D01*
X94826009Y-134380528D01*
X94826008Y-134380525D01*
X94823905Y-134372674D01*
X94827207Y-134371789D01*
X94825376Y-134354879D01*
X94820700Y-134322353D01*
X94821633Y-134320308D01*
X94821392Y-134318075D01*
X94824501Y-134307485D01*
X94823905Y-134307326D01*
X94826008Y-134299475D01*
X94826008Y-134299474D01*
X94826009Y-134299472D01*
X94840500Y-134189401D01*
X94840499Y-133990600D01*
X94826009Y-133880528D01*
X94826008Y-133880525D01*
X94823905Y-133872674D01*
X94827207Y-133871789D01*
X94821392Y-133818075D01*
X94824501Y-133807485D01*
X94823905Y-133807326D01*
X94826008Y-133799475D01*
X94826008Y-133799474D01*
X94826009Y-133799472D01*
X94840500Y-133689401D01*
X94840499Y-133490600D01*
X94840499Y-133490596D01*
X94826011Y-133380536D01*
X94826009Y-133380531D01*
X94826009Y-133380528D01*
X94769279Y-133243571D01*
X94679036Y-133125964D01*
X94561429Y-133035721D01*
X94561425Y-133035719D01*
X94556906Y-133033847D01*
X94502504Y-132990004D01*
X94480441Y-132923709D01*
X94497722Y-132856010D01*
X94516677Y-132831610D01*
X98459081Y-128889206D01*
X98520402Y-128855723D01*
X98590094Y-128860707D01*
G37*
%TD.AperFunction*%
%TA.AperFunction,Conductor*%
G36*
X111221028Y-128777523D02*
G01*
X111249063Y-128782543D01*
X111254121Y-128787240D01*
X111260744Y-128789185D01*
X111279391Y-128810704D01*
X111300263Y-128830086D01*
X111301979Y-128836772D01*
X111306499Y-128841989D01*
X111310551Y-128870174D01*
X111317632Y-128897762D01*
X111315905Y-128907406D01*
X111316443Y-128911147D01*
X111311411Y-128932500D01*
X111294181Y-128984500D01*
X111285001Y-129012203D01*
X111285000Y-129012204D01*
X111274500Y-129114983D01*
X111274500Y-129901436D01*
X111254815Y-129968475D01*
X111202011Y-130014230D01*
X111182595Y-130021210D01*
X111148220Y-130030420D01*
X111148217Y-130030422D01*
X111106513Y-130054500D01*
X111106512Y-130054499D01*
X111011287Y-130109477D01*
X110925337Y-130195427D01*
X110864013Y-130228911D01*
X110861848Y-130229362D01*
X110706508Y-130260261D01*
X110706498Y-130260264D01*
X110560827Y-130320602D01*
X110560814Y-130320609D01*
X110429711Y-130408210D01*
X110402679Y-130435242D01*
X110341355Y-130468726D01*
X110271664Y-130463740D01*
X110227317Y-130435239D01*
X110190292Y-130398213D01*
X110190288Y-130398210D01*
X110059185Y-130310609D01*
X110059172Y-130310602D01*
X109913501Y-130250264D01*
X109913489Y-130250261D01*
X109758845Y-130219500D01*
X109758842Y-130219500D01*
X109601158Y-130219500D01*
X109601155Y-130219500D01*
X109446510Y-130250261D01*
X109446498Y-130250264D01*
X109300827Y-130310602D01*
X109300814Y-130310609D01*
X109169711Y-130398210D01*
X109169707Y-130398213D01*
X109058213Y-130509707D01*
X109058210Y-130509711D01*
X108970609Y-130640814D01*
X108970602Y-130640827D01*
X108910264Y-130786498D01*
X108910261Y-130786510D01*
X108879500Y-130941153D01*
X108879500Y-131098846D01*
X108910261Y-131253489D01*
X108910264Y-131253501D01*
X108970602Y-131399172D01*
X108970609Y-131399185D01*
X109058210Y-131530288D01*
X109058213Y-131530292D01*
X109169707Y-131641786D01*
X109169711Y-131641789D01*
X109300814Y-131729390D01*
X109300827Y-131729397D01*
X109423143Y-131780061D01*
X109446503Y-131789737D01*
X109489522Y-131798294D01*
X109601849Y-131820638D01*
X109663760Y-131853023D01*
X109665339Y-131854574D01*
X110681139Y-132870374D01*
X110681149Y-132870385D01*
X110685479Y-132874715D01*
X110685480Y-132874716D01*
X110797284Y-132986520D01*
X110797286Y-132986521D01*
X110797290Y-132986524D01*
X110934209Y-133065573D01*
X110934212Y-133065575D01*
X110934216Y-133065577D01*
X111030156Y-133091284D01*
X111030155Y-133091284D01*
X111042155Y-133094499D01*
X111086942Y-133106500D01*
X111086943Y-133106500D01*
X116309831Y-133106500D01*
X116309847Y-133106501D01*
X116317443Y-133106501D01*
X116475554Y-133106501D01*
X116475557Y-133106501D01*
X116628285Y-133065577D01*
X116685936Y-133032292D01*
X116765216Y-132986520D01*
X116877020Y-132874716D01*
X116877020Y-132874714D01*
X116887224Y-132864511D01*
X116887228Y-132864506D01*
X117225002Y-132526732D01*
X117286325Y-132493247D01*
X117356017Y-132498231D01*
X117400364Y-132526732D01*
X117481344Y-132607712D01*
X117630666Y-132699814D01*
X117630667Y-132699814D01*
X117636038Y-132703127D01*
X117682762Y-132755075D01*
X117693985Y-132824037D01*
X117679848Y-132864194D01*
X117681051Y-132864755D01*
X117677996Y-132871305D01*
X117624651Y-133032290D01*
X117614500Y-133131647D01*
X117614500Y-133664902D01*
X117605854Y-133694344D01*
X117599332Y-133724328D01*
X117595577Y-133729343D01*
X117594815Y-133731941D01*
X117578185Y-133752578D01*
X117437582Y-133893182D01*
X117376262Y-133926666D01*
X117349903Y-133929500D01*
X110785097Y-133929500D01*
X110718058Y-133909815D01*
X110697416Y-133893181D01*
X108322074Y-131517839D01*
X108288589Y-131456516D01*
X108288138Y-131454349D01*
X108257238Y-131299010D01*
X108257237Y-131299003D01*
X108232166Y-131238476D01*
X108196897Y-131153327D01*
X108196890Y-131153314D01*
X108109289Y-131022211D01*
X108109286Y-131022207D01*
X107997792Y-130910713D01*
X107997788Y-130910710D01*
X107866685Y-130823109D01*
X107866672Y-130823102D01*
X107721001Y-130762764D01*
X107720989Y-130762761D01*
X107565651Y-130731862D01*
X107503740Y-130699477D01*
X107502212Y-130697976D01*
X107271968Y-130467733D01*
X107238484Y-130406411D01*
X107243468Y-130336719D01*
X107285340Y-130280786D01*
X107312201Y-130265490D01*
X107314507Y-130264536D01*
X107439948Y-130168282D01*
X107536202Y-130042841D01*
X107596710Y-129896762D01*
X107612166Y-129779361D01*
X107612165Y-129440640D01*
X107612165Y-129440636D01*
X107596712Y-129323246D01*
X107596710Y-129323241D01*
X107596710Y-129323238D01*
X107536202Y-129177159D01*
X107439948Y-129051718D01*
X107439946Y-129051717D01*
X107439946Y-129051716D01*
X107361960Y-128991876D01*
X107320757Y-128935448D01*
X107316602Y-128865702D01*
X107350814Y-128804782D01*
X107412532Y-128772029D01*
X107437446Y-128769500D01*
X111193705Y-128769500D01*
X111221028Y-128777523D01*
G37*
%TD.AperFunction*%
%TA.AperFunction,Conductor*%
G36*
X122439912Y-128789185D02*
G01*
X122460554Y-128805819D01*
X125243181Y-131588446D01*
X125276666Y-131649769D01*
X125279500Y-131676127D01*
X125279500Y-131685500D01*
X125259815Y-131752539D01*
X125207011Y-131798294D01*
X125155500Y-131809500D01*
X124102272Y-131809500D01*
X123989764Y-131824313D01*
X123989763Y-131824313D01*
X123849770Y-131882300D01*
X123849767Y-131882301D01*
X123849767Y-131882302D01*
X123729549Y-131974549D01*
X123640237Y-132090943D01*
X123637300Y-132094770D01*
X123579313Y-132234763D01*
X123579313Y-132234764D01*
X123564500Y-132347272D01*
X123564500Y-132572727D01*
X123580374Y-132693292D01*
X123577399Y-132693683D01*
X123577399Y-132726316D01*
X123580374Y-132726708D01*
X123564500Y-132847272D01*
X123564500Y-133072727D01*
X123580054Y-133190864D01*
X123580106Y-133190974D01*
X123580095Y-133191175D01*
X123580374Y-133193292D01*
X123579980Y-133193343D01*
X123579257Y-133206937D01*
X123580503Y-133226266D01*
X123579409Y-133234531D01*
X123579313Y-133234764D01*
X123566411Y-133332766D01*
X123552254Y-133364710D01*
X123538154Y-133396582D01*
X123538119Y-133396604D01*
X123538102Y-133396644D01*
X123508438Y-133416182D01*
X123479829Y-133435053D01*
X123479776Y-133435060D01*
X123479752Y-133435077D01*
X123479662Y-133435078D01*
X123443482Y-133440500D01*
X121736518Y-133440500D01*
X121669479Y-133420815D01*
X121623724Y-133368011D01*
X121613579Y-133332686D01*
X121603921Y-133259332D01*
X121600687Y-133234764D01*
X121542698Y-133094767D01*
X121497208Y-133035483D01*
X121487166Y-133009508D01*
X121474114Y-132984914D01*
X121474743Y-132977374D01*
X121472015Y-132970317D01*
X121477610Y-132943036D01*
X121479927Y-132915287D01*
X121485243Y-132905820D01*
X121486053Y-132901872D01*
X121497203Y-132884521D01*
X121520358Y-132854344D01*
X121531048Y-132842157D01*
X121561924Y-132811283D01*
X121561932Y-132811272D01*
X121612705Y-132760499D01*
X121836520Y-132536686D01*
X121915577Y-132399755D01*
X121956501Y-132247027D01*
X121956501Y-132088912D01*
X121956501Y-132081317D01*
X121956500Y-132081299D01*
X121956500Y-131790060D01*
X121956501Y-131790047D01*
X121956501Y-131621946D01*
X121956501Y-131621944D01*
X121915577Y-131469216D01*
X121886639Y-131419096D01*
X121836520Y-131332285D01*
X121724716Y-131220481D01*
X121724715Y-131220480D01*
X121720385Y-131216150D01*
X121720374Y-131216140D01*
X121602589Y-131098355D01*
X121602587Y-131098352D01*
X121483717Y-130979482D01*
X121483715Y-130979480D01*
X121439433Y-130953913D01*
X121382358Y-130920961D01*
X121368872Y-130911950D01*
X121330234Y-130882302D01*
X121219660Y-130836501D01*
X121190236Y-130824313D01*
X121158465Y-130820130D01*
X121098314Y-130812211D01*
X121034418Y-130783944D01*
X120995947Y-130725620D01*
X120990500Y-130689272D01*
X120990500Y-130267754D01*
X120990501Y-130267741D01*
X120990501Y-130099638D01*
X120983225Y-130072483D01*
X120949577Y-129946910D01*
X120923323Y-129901436D01*
X120870524Y-129809984D01*
X120870518Y-129809976D01*
X120458157Y-129397615D01*
X120041721Y-128981180D01*
X120008237Y-128919858D01*
X120013221Y-128850167D01*
X120055093Y-128794233D01*
X120120557Y-128769816D01*
X120129403Y-128769500D01*
X122372873Y-128769500D01*
X122439912Y-128789185D01*
G37*
%TD.AperFunction*%
%TA.AperFunction,Conductor*%
G36*
X93101579Y-129400574D02*
G01*
X93175943Y-129420501D01*
X93175946Y-129420501D01*
X93341653Y-129420501D01*
X93341669Y-129420500D01*
X94509646Y-129420500D01*
X94527259Y-129425671D01*
X94545618Y-129425832D01*
X94569405Y-129438047D01*
X94576685Y-129440185D01*
X94577593Y-129440774D01*
X94581465Y-129443310D01*
X94622159Y-129474536D01*
X94641127Y-129482393D01*
X94650867Y-129488773D01*
X94666268Y-129506863D01*
X94684774Y-129521775D01*
X94688504Y-129532981D01*
X94696160Y-129541974D01*
X94699336Y-129565522D01*
X94706841Y-129588069D01*
X94703920Y-129599512D01*
X94705499Y-129611216D01*
X94695440Y-129632742D01*
X94689564Y-129655769D01*
X94677309Y-129671543D01*
X94675921Y-129674516D01*
X94674117Y-129675652D01*
X94670601Y-129680180D01*
X94086602Y-130264181D01*
X94025279Y-130297666D01*
X93998921Y-130300500D01*
X93181253Y-130300500D01*
X93114214Y-130280815D01*
X93068459Y-130228011D01*
X93061477Y-130208589D01*
X93060045Y-130203248D01*
X93060044Y-130203238D01*
X92999536Y-130057159D01*
X92999535Y-130057158D01*
X92999535Y-130057157D01*
X92971124Y-130020131D01*
X92945930Y-129954962D01*
X92945500Y-129944645D01*
X92945500Y-129520353D01*
X92965185Y-129453314D01*
X93017989Y-129407559D01*
X93087147Y-129397615D01*
X93101579Y-129400574D01*
G37*
%TD.AperFunction*%
%TA.AperFunction,Conductor*%
G36*
X257418942Y-126703185D02*
G01*
X257464697Y-126755989D01*
X257474641Y-126825147D01*
X257445616Y-126888703D01*
X257439584Y-126895181D01*
X254753084Y-129581681D01*
X254691761Y-129615166D01*
X254665403Y-129618000D01*
X222975913Y-129618000D01*
X222908874Y-129598315D01*
X222863119Y-129545511D01*
X222854296Y-129518192D01*
X222839738Y-129445008D01*
X222839737Y-129445007D01*
X222839737Y-129445003D01*
X222831796Y-129425832D01*
X222779397Y-129299327D01*
X222779390Y-129299314D01*
X222691789Y-129168211D01*
X222691786Y-129168207D01*
X222580292Y-129056713D01*
X222580288Y-129056710D01*
X222449185Y-128969109D01*
X222449172Y-128969102D01*
X222303501Y-128908764D01*
X222303491Y-128908761D01*
X222190925Y-128886370D01*
X222129014Y-128853985D01*
X222094440Y-128793269D01*
X222092178Y-128780936D01*
X222087545Y-128745746D01*
X222087544Y-128745738D01*
X222027036Y-128599659D01*
X221930782Y-128474218D01*
X221805341Y-128377964D01*
X221746091Y-128353422D01*
X221659262Y-128317456D01*
X221659260Y-128317455D01*
X221541861Y-128302000D01*
X221263136Y-128302000D01*
X221145746Y-128317453D01*
X221145734Y-128317457D01*
X220999663Y-128377961D01*
X220999662Y-128377961D01*
X220989838Y-128385500D01*
X220962630Y-128406376D01*
X220897464Y-128431570D01*
X220887146Y-128432000D01*
X219824385Y-128432000D01*
X219792590Y-128440519D01*
X219792591Y-128440520D01*
X219671660Y-128472923D01*
X219671655Y-128472926D01*
X219534736Y-128551975D01*
X219534728Y-128551981D01*
X219422925Y-128663784D01*
X219422924Y-128663786D01*
X219403940Y-128682770D01*
X219396027Y-128690683D01*
X219334703Y-128724167D01*
X219308348Y-128727000D01*
X219178097Y-128727000D01*
X219068036Y-128741488D01*
X219068027Y-128741491D01*
X218931074Y-128798219D01*
X218931071Y-128798220D01*
X218931071Y-128798221D01*
X218813464Y-128888464D01*
X218727000Y-129001147D01*
X218723219Y-129006074D01*
X218666491Y-129143027D01*
X218666490Y-129143029D01*
X218652000Y-129253098D01*
X218652000Y-129451895D01*
X218655413Y-129477817D01*
X218652776Y-129494718D01*
X218655211Y-129511647D01*
X218647504Y-129528522D01*
X218644645Y-129546853D01*
X218633291Y-129559644D01*
X218626186Y-129575203D01*
X218610578Y-129585233D01*
X218598264Y-129599107D01*
X218581498Y-129603921D01*
X218567408Y-129612977D01*
X218532473Y-129618000D01*
X218372527Y-129618000D01*
X218305488Y-129598315D01*
X218259733Y-129545511D01*
X218249588Y-129477815D01*
X218253000Y-129451901D01*
X218252999Y-129253100D01*
X218250657Y-129235313D01*
X218241824Y-129168211D01*
X218238509Y-129143028D01*
X218238508Y-129143025D01*
X218236405Y-129135174D01*
X218239707Y-129134289D01*
X218233892Y-129080575D01*
X218237001Y-129069985D01*
X218236405Y-129069826D01*
X218238508Y-129061975D01*
X218238508Y-129061974D01*
X218238509Y-129061972D01*
X218253000Y-128951901D01*
X218252999Y-128753100D01*
X218252999Y-128753096D01*
X218238511Y-128643036D01*
X218238509Y-128643031D01*
X218238509Y-128643028D01*
X218181779Y-128506071D01*
X218091536Y-128388464D01*
X217973929Y-128298221D01*
X217973925Y-128298219D01*
X217969406Y-128296347D01*
X217915004Y-128252504D01*
X217892941Y-128186209D01*
X217910222Y-128118510D01*
X217929177Y-128094110D01*
X219303470Y-126719819D01*
X219364793Y-126686334D01*
X219391151Y-126683500D01*
X257351903Y-126683500D01*
X257418942Y-126703185D01*
G37*
%TD.AperFunction*%
%TA.AperFunction,Conductor*%
G36*
X162493334Y-127273325D02*
G01*
X162537681Y-127301826D01*
X163962207Y-128726352D01*
X163995692Y-128787675D01*
X163990708Y-128857367D01*
X163962207Y-128901714D01*
X163938213Y-128925707D01*
X163938210Y-128925711D01*
X163919047Y-128954391D01*
X163912956Y-128959481D01*
X163909658Y-128966703D01*
X163886527Y-128981568D01*
X163865434Y-128999196D01*
X163856060Y-129001147D01*
X163850880Y-129004477D01*
X163815945Y-129009500D01*
X163784508Y-129009500D01*
X163737058Y-129000062D01*
X163734475Y-128998992D01*
X163734470Y-128998990D01*
X163624401Y-128984500D01*
X163175596Y-128984500D01*
X163065536Y-128998988D01*
X163065527Y-128998991D01*
X162928574Y-129055719D01*
X162928571Y-129055720D01*
X162928571Y-129055721D01*
X162810964Y-129145964D01*
X162728757Y-129253099D01*
X162720719Y-129263574D01*
X162706065Y-129298953D01*
X162693521Y-129314518D01*
X162685217Y-129332703D01*
X162672046Y-129341167D01*
X162662224Y-129353356D01*
X162643256Y-129359668D01*
X162626439Y-129370477D01*
X162598878Y-129374439D01*
X162595930Y-129375421D01*
X162591504Y-129375500D01*
X162370027Y-129375500D01*
X162302988Y-129355815D01*
X162257233Y-129303011D01*
X162247088Y-129235315D01*
X162250500Y-129209401D01*
X162250499Y-129010600D01*
X162250458Y-129010292D01*
X162245076Y-128969403D01*
X162236009Y-128900528D01*
X162236008Y-128900525D01*
X162233905Y-128892674D01*
X162237207Y-128891789D01*
X162231392Y-128838075D01*
X162234501Y-128827485D01*
X162233905Y-128827326D01*
X162236008Y-128819475D01*
X162236008Y-128819474D01*
X162236009Y-128819472D01*
X162250500Y-128709401D01*
X162250499Y-128510600D01*
X162250499Y-128510596D01*
X162236011Y-128400536D01*
X162236009Y-128400531D01*
X162236009Y-128400528D01*
X162179279Y-128263571D01*
X162089036Y-128145964D01*
X161971429Y-128055721D01*
X161939514Y-128042501D01*
X161886197Y-128020416D01*
X161831794Y-127976574D01*
X161809730Y-127910280D01*
X161827010Y-127842581D01*
X161845966Y-127818178D01*
X162362319Y-127301826D01*
X162423642Y-127268341D01*
X162493334Y-127273325D01*
G37*
%TD.AperFunction*%
%TA.AperFunction,Conductor*%
G36*
X262286385Y-127029319D02*
G01*
X262303491Y-127029116D01*
X262319215Y-127038959D01*
X262337012Y-127044185D01*
X262348212Y-127057111D01*
X262362714Y-127066189D01*
X262370620Y-127082970D01*
X262382767Y-127096989D01*
X262385352Y-127114241D01*
X262392492Y-127129396D01*
X262392911Y-127164682D01*
X262389500Y-127190599D01*
X262389500Y-127190600D01*
X262389500Y-127389403D01*
X262403989Y-127499468D01*
X262406094Y-127507322D01*
X262402814Y-127508200D01*
X262408581Y-127562073D01*
X262405517Y-127572522D01*
X262406095Y-127572677D01*
X262403990Y-127580529D01*
X262389500Y-127690598D01*
X262389500Y-127889403D01*
X262403988Y-127999463D01*
X262403991Y-127999472D01*
X262453298Y-128118510D01*
X262460721Y-128136429D01*
X262550964Y-128254036D01*
X262668571Y-128344279D01*
X262805528Y-128401009D01*
X262915599Y-128415500D01*
X263364400Y-128415499D01*
X263364403Y-128415499D01*
X263474463Y-128401011D01*
X263474467Y-128401009D01*
X263474472Y-128401009D01*
X263611429Y-128344279D01*
X263729036Y-128254036D01*
X263819279Y-128136429D01*
X263876009Y-127999472D01*
X263876161Y-127998316D01*
X263876559Y-127997416D01*
X263878112Y-127991622D01*
X263879015Y-127991864D01*
X263904426Y-127934420D01*
X263962750Y-127895948D01*
X263999100Y-127890500D01*
X308569903Y-127890500D01*
X308636942Y-127910185D01*
X308657584Y-127926819D01*
X309788584Y-129057819D01*
X309822069Y-129119142D01*
X309817085Y-129188834D01*
X309775213Y-129244767D01*
X309709749Y-129269184D01*
X309700903Y-129269500D01*
X260680097Y-129269500D01*
X260613058Y-129249815D01*
X260592416Y-129233181D01*
X260461416Y-129102181D01*
X260427931Y-129040858D01*
X260432915Y-128971166D01*
X260474787Y-128915233D01*
X260540251Y-128890816D01*
X260549097Y-128890500D01*
X260855492Y-128890500D01*
X260902942Y-128899938D01*
X260905528Y-128901009D01*
X261015599Y-128915500D01*
X261464400Y-128915499D01*
X261464403Y-128915499D01*
X261574463Y-128901011D01*
X261574467Y-128901009D01*
X261574472Y-128901009D01*
X261711429Y-128844279D01*
X261829036Y-128754036D01*
X261919279Y-128636429D01*
X261976009Y-128499472D01*
X261990500Y-128389401D01*
X261990499Y-128190600D01*
X261990499Y-128190596D01*
X261976011Y-128080536D01*
X261976009Y-128080531D01*
X261976009Y-128080528D01*
X261919279Y-127943571D01*
X261829036Y-127825964D01*
X261711429Y-127735721D01*
X261711425Y-127735719D01*
X261574472Y-127678991D01*
X261574470Y-127678990D01*
X261464401Y-127664500D01*
X261015596Y-127664500D01*
X260905531Y-127678989D01*
X260897939Y-127681024D01*
X260886170Y-127680743D01*
X260875157Y-127684899D01*
X260851882Y-127679927D01*
X260828089Y-127679361D01*
X260818340Y-127672762D01*
X260806829Y-127670304D01*
X260778165Y-127648930D01*
X260731416Y-127602181D01*
X260697931Y-127540858D01*
X260702915Y-127471166D01*
X260744787Y-127415233D01*
X260810251Y-127390816D01*
X260819097Y-127390500D01*
X260855492Y-127390500D01*
X260902942Y-127399938D01*
X260905528Y-127401009D01*
X261015599Y-127415500D01*
X261464400Y-127415499D01*
X261464403Y-127415499D01*
X261574463Y-127401011D01*
X261574467Y-127401009D01*
X261574472Y-127401009D01*
X261711429Y-127344279D01*
X261829036Y-127254036D01*
X261919279Y-127136429D01*
X261933094Y-127103078D01*
X261933935Y-127101047D01*
X261977776Y-127046644D01*
X262044070Y-127024579D01*
X262048496Y-127024500D01*
X262269973Y-127024500D01*
X262286385Y-127029319D01*
G37*
%TD.AperFunction*%
%TA.AperFunction,Conductor*%
G36*
X91268750Y-126085781D02*
G01*
X91284915Y-126096169D01*
X91344447Y-126141313D01*
X91481069Y-126195190D01*
X91566922Y-126205500D01*
X91566928Y-126205500D01*
X91840500Y-126205500D01*
X91907539Y-126225185D01*
X91953294Y-126277989D01*
X91964500Y-126329500D01*
X91964500Y-126603078D01*
X91970140Y-126650044D01*
X91974810Y-126688932D01*
X92028685Y-126825549D01*
X92028688Y-126825555D01*
X92073823Y-126885075D01*
X92098646Y-126950387D01*
X92084218Y-127018751D01*
X92073823Y-127034925D01*
X92028688Y-127094444D01*
X92028685Y-127094450D01*
X91974810Y-127231067D01*
X91974810Y-127231069D01*
X91964500Y-127316922D01*
X91964500Y-127603078D01*
X91969482Y-127644570D01*
X91975564Y-127695217D01*
X91975564Y-127724783D01*
X91971786Y-127756250D01*
X91964500Y-127816922D01*
X91964500Y-127816927D01*
X91964500Y-128090500D01*
X91944815Y-128157539D01*
X91892011Y-128203294D01*
X91840500Y-128214500D01*
X91566922Y-128214500D01*
X91502532Y-128222232D01*
X91481067Y-128224810D01*
X91344450Y-128278685D01*
X91344444Y-128278688D01*
X91284925Y-128323823D01*
X91219613Y-128348646D01*
X91151249Y-128334218D01*
X91135075Y-128323823D01*
X91075555Y-128278688D01*
X91075549Y-128278685D01*
X90938932Y-128224810D01*
X90926666Y-128223337D01*
X90853078Y-128214500D01*
X90566922Y-128214500D01*
X90529539Y-128218989D01*
X90474783Y-128225564D01*
X90445217Y-128225564D01*
X90390460Y-128218989D01*
X90353078Y-128214500D01*
X90066922Y-128214500D01*
X90029539Y-128218989D01*
X89974783Y-128225564D01*
X89945217Y-128225564D01*
X89890460Y-128218989D01*
X89853078Y-128214500D01*
X89566922Y-128214500D01*
X89529539Y-128218989D01*
X89474783Y-128225564D01*
X89445217Y-128225564D01*
X89390460Y-128218989D01*
X89353078Y-128214500D01*
X89079500Y-128214500D01*
X89012461Y-128194815D01*
X88966706Y-128142011D01*
X88955500Y-128090500D01*
X88955500Y-127816928D01*
X88955500Y-127816927D01*
X88955500Y-127816922D01*
X88945190Y-127731069D01*
X88891313Y-127594447D01*
X88846174Y-127534922D01*
X88821353Y-127469614D01*
X88835781Y-127401250D01*
X88846169Y-127385084D01*
X88891313Y-127325553D01*
X88945190Y-127188931D01*
X88955500Y-127103078D01*
X88955500Y-126816922D01*
X88945190Y-126731069D01*
X88945189Y-126731067D01*
X88944435Y-126724785D01*
X88944435Y-126695215D01*
X88946592Y-126677259D01*
X88955500Y-126603078D01*
X88955500Y-126329500D01*
X88975185Y-126262461D01*
X89027989Y-126216706D01*
X89079500Y-126205500D01*
X89353078Y-126205500D01*
X89438931Y-126195190D01*
X89438932Y-126195189D01*
X89445215Y-126194435D01*
X89474785Y-126194435D01*
X89481067Y-126195189D01*
X89481069Y-126195190D01*
X89566922Y-126205500D01*
X89853078Y-126205500D01*
X89938931Y-126195190D01*
X89938932Y-126195189D01*
X89945215Y-126194435D01*
X89974785Y-126194435D01*
X89981067Y-126195189D01*
X89981069Y-126195190D01*
X90066922Y-126205500D01*
X90353078Y-126205500D01*
X90438931Y-126195190D01*
X90438932Y-126195189D01*
X90445215Y-126194435D01*
X90474785Y-126194435D01*
X90481067Y-126195189D01*
X90481069Y-126195190D01*
X90566922Y-126205500D01*
X90853072Y-126205500D01*
X90853078Y-126205500D01*
X90938931Y-126195190D01*
X91075553Y-126141313D01*
X91135077Y-126096174D01*
X91200386Y-126071353D01*
X91268750Y-126085781D01*
G37*
%TD.AperFunction*%
%TA.AperFunction,Conductor*%
G36*
X98976385Y-121599319D02*
G01*
X98993491Y-121599116D01*
X99009215Y-121608959D01*
X99027012Y-121614185D01*
X99038212Y-121627111D01*
X99052714Y-121636189D01*
X99060620Y-121652970D01*
X99072767Y-121666989D01*
X99075352Y-121684241D01*
X99082492Y-121699396D01*
X99082911Y-121734682D01*
X99079500Y-121760599D01*
X99079500Y-121760600D01*
X99079500Y-121959403D01*
X99093989Y-122069468D01*
X99096094Y-122077322D01*
X99092814Y-122078200D01*
X99094634Y-122095206D01*
X99099299Y-122127647D01*
X99098442Y-122130777D01*
X99098581Y-122132073D01*
X99097494Y-122134240D01*
X99095248Y-122142450D01*
X99096095Y-122142677D01*
X99093990Y-122150529D01*
X99079500Y-122260598D01*
X99079500Y-122459403D01*
X99093989Y-122569468D01*
X99096094Y-122577322D01*
X99092814Y-122578200D01*
X99094634Y-122595206D01*
X99099299Y-122627647D01*
X99098442Y-122630777D01*
X99098581Y-122632073D01*
X99097494Y-122634240D01*
X99095248Y-122642450D01*
X99096095Y-122642677D01*
X99093990Y-122650529D01*
X99079500Y-122760598D01*
X99079500Y-122959403D01*
X99093988Y-123069463D01*
X99093991Y-123069472D01*
X99150063Y-123204842D01*
X99150721Y-123206429D01*
X99240964Y-123324036D01*
X99358571Y-123414279D01*
X99495528Y-123471009D01*
X99605599Y-123485500D01*
X100054400Y-123485499D01*
X100054403Y-123485499D01*
X100164463Y-123471011D01*
X100164466Y-123471009D01*
X100164472Y-123471009D01*
X100167058Y-123469938D01*
X100214508Y-123460500D01*
X101048331Y-123460500D01*
X101048347Y-123460501D01*
X101055943Y-123460501D01*
X101214054Y-123460501D01*
X101214057Y-123460501D01*
X101366785Y-123419577D01*
X101416904Y-123390639D01*
X101418136Y-123389928D01*
X101448997Y-123372111D01*
X101505390Y-123357000D01*
X101505309Y-123355765D01*
X101509359Y-123355499D01*
X101509360Y-123355499D01*
X101525680Y-123353350D01*
X101626753Y-123340046D01*
X101626757Y-123340044D01*
X101626762Y-123340044D01*
X101772836Y-123279538D01*
X101772837Y-123279538D01*
X101772837Y-123279537D01*
X101772841Y-123279536D01*
X101809869Y-123251123D01*
X101875036Y-123225930D01*
X101885354Y-123225500D01*
X104175903Y-123225500D01*
X104242942Y-123245185D01*
X104263584Y-123261819D01*
X108358583Y-127356819D01*
X108392068Y-127418142D01*
X108387084Y-127487834D01*
X108345212Y-127543767D01*
X108279748Y-127568184D01*
X108270902Y-127568500D01*
X105377652Y-127568500D01*
X105377636Y-127568499D01*
X105370040Y-127568499D01*
X105211925Y-127568499D01*
X105135561Y-127588961D01*
X105059196Y-127609423D01*
X105059191Y-127609426D01*
X104922272Y-127688475D01*
X104922264Y-127688481D01*
X104722762Y-127887983D01*
X104680518Y-127915677D01*
X104666355Y-127921254D01*
X104638238Y-127924956D01*
X104492159Y-127985464D01*
X104480399Y-127994487D01*
X104464180Y-128000875D01*
X104446047Y-128002503D01*
X104429068Y-128009069D01*
X104418743Y-128009500D01*
X103185007Y-128009500D01*
X103117968Y-127989815D01*
X103097326Y-127973181D01*
X101045866Y-125921721D01*
X101012381Y-125860398D01*
X101011930Y-125809848D01*
X101022467Y-125756877D01*
X101022467Y-125599188D01*
X101022466Y-125599186D01*
X101000407Y-125488288D01*
X100991704Y-125444536D01*
X100967251Y-125385500D01*
X100931364Y-125298860D01*
X100931357Y-125298847D01*
X100843756Y-125167744D01*
X100843753Y-125167740D01*
X100732259Y-125056246D01*
X100732255Y-125056243D01*
X100601152Y-124968642D01*
X100601139Y-124968635D01*
X100455468Y-124908297D01*
X100455456Y-124908294D01*
X100300812Y-124877533D01*
X100300809Y-124877533D01*
X100143125Y-124877533D01*
X100090148Y-124888070D01*
X100020557Y-124881841D01*
X99978278Y-124854133D01*
X98566819Y-123442674D01*
X98552115Y-123415746D01*
X98535523Y-123389928D01*
X98534631Y-123383727D01*
X98533334Y-123381351D01*
X98530500Y-123354993D01*
X98530500Y-123351188D01*
X98550185Y-123284149D01*
X98556124Y-123275702D01*
X98579540Y-123245185D01*
X98609279Y-123206429D01*
X98666009Y-123069472D01*
X98680500Y-122959401D01*
X98680499Y-122760600D01*
X98666009Y-122650528D01*
X98666008Y-122650525D01*
X98663905Y-122642674D01*
X98667207Y-122641789D01*
X98665376Y-122624879D01*
X98660700Y-122592353D01*
X98661633Y-122590308D01*
X98661392Y-122588075D01*
X98664501Y-122577485D01*
X98663905Y-122577326D01*
X98666008Y-122569475D01*
X98666008Y-122569474D01*
X98666009Y-122569472D01*
X98680500Y-122459401D01*
X98680499Y-122260600D01*
X98677609Y-122238650D01*
X98668425Y-122168881D01*
X98666009Y-122150528D01*
X98666008Y-122150525D01*
X98663905Y-122142674D01*
X98667207Y-122141789D01*
X98665376Y-122124879D01*
X98660700Y-122092353D01*
X98661633Y-122090308D01*
X98661392Y-122088075D01*
X98664501Y-122077485D01*
X98663905Y-122077326D01*
X98666008Y-122069475D01*
X98666008Y-122069474D01*
X98666009Y-122069472D01*
X98680500Y-121959401D01*
X98680499Y-121760600D01*
X98677087Y-121734682D01*
X98687855Y-121665647D01*
X98734236Y-121613393D01*
X98800027Y-121594500D01*
X98959973Y-121594500D01*
X98976385Y-121599319D01*
G37*
%TD.AperFunction*%
%TA.AperFunction,Conductor*%
G36*
X88583179Y-124476946D02*
G01*
X88629870Y-124528924D01*
X88641048Y-124597894D01*
X88633369Y-124627932D01*
X88584809Y-124751070D01*
X88579141Y-124798273D01*
X88574500Y-124836922D01*
X88574500Y-124836928D01*
X88574500Y-125200500D01*
X88554815Y-125267539D01*
X88502011Y-125313294D01*
X88450500Y-125324500D01*
X87644097Y-125324500D01*
X87577058Y-125304815D01*
X87531303Y-125252011D01*
X87521359Y-125182853D01*
X87550384Y-125119297D01*
X87556416Y-125112819D01*
X87787394Y-124881841D01*
X88024662Y-124644572D01*
X88085983Y-124611089D01*
X88088150Y-124610638D01*
X88152216Y-124597894D01*
X88243497Y-124579737D01*
X88381280Y-124522666D01*
X88389172Y-124519397D01*
X88389172Y-124519396D01*
X88389179Y-124519394D01*
X88449122Y-124479340D01*
X88515799Y-124458462D01*
X88583179Y-124476946D01*
G37*
%TD.AperFunction*%
%TA.AperFunction,Conductor*%
G36*
X91814091Y-123444185D02*
G01*
X91859846Y-123496989D01*
X91869790Y-123566147D01*
X91861613Y-123595952D01*
X91839957Y-123648234D01*
X91839955Y-123648239D01*
X91824500Y-123765638D01*
X91824500Y-124104362D01*
X91837659Y-124204316D01*
X91835023Y-124221215D01*
X91837458Y-124238147D01*
X91829751Y-124255022D01*
X91826893Y-124273351D01*
X91815538Y-124286143D01*
X91808433Y-124301703D01*
X91792826Y-124311732D01*
X91780512Y-124325607D01*
X91763745Y-124330421D01*
X91749655Y-124339477D01*
X91714720Y-124344500D01*
X91640756Y-124344500D01*
X91573717Y-124324815D01*
X91527962Y-124272011D01*
X91526195Y-124267952D01*
X91469397Y-124130827D01*
X91469390Y-124130814D01*
X91381789Y-123999711D01*
X91381786Y-123999707D01*
X91283337Y-123901258D01*
X91249852Y-123839935D01*
X91254836Y-123770243D01*
X91283337Y-123725896D01*
X91413282Y-123595952D01*
X91548415Y-123460819D01*
X91575342Y-123446115D01*
X91601161Y-123429523D01*
X91607361Y-123428631D01*
X91609738Y-123427334D01*
X91636096Y-123424500D01*
X91747052Y-123424500D01*
X91814091Y-123444185D01*
G37*
%TD.AperFunction*%
%TA.AperFunction,Conductor*%
G36*
X90477941Y-122620185D02*
G01*
X90523696Y-122672989D01*
X90533640Y-122742147D01*
X90504615Y-122805703D01*
X90498583Y-122812181D01*
X90142581Y-123168181D01*
X90081258Y-123201666D01*
X90054901Y-123204500D01*
X89885636Y-123204500D01*
X89768246Y-123219953D01*
X89768237Y-123219956D01*
X89622157Y-123280464D01*
X89579780Y-123312982D01*
X89514611Y-123338176D01*
X89446166Y-123324137D01*
X89416613Y-123302287D01*
X89302807Y-123188481D01*
X89302802Y-123188477D01*
X89196032Y-123126834D01*
X89196030Y-123126833D01*
X89185769Y-123120909D01*
X89165875Y-123109423D01*
X89076340Y-123085431D01*
X89072169Y-123083989D01*
X89047162Y-123066188D01*
X89020951Y-123050212D01*
X89018959Y-123046113D01*
X89015248Y-123043471D01*
X89003836Y-123014979D01*
X88990422Y-122987365D01*
X88990963Y-122982839D01*
X88989269Y-122978610D01*
X88995072Y-122948471D01*
X88998717Y-122917989D01*
X89001826Y-122913394D01*
X89002480Y-122910001D01*
X89008149Y-122904053D01*
X89025021Y-122879124D01*
X89267327Y-122636819D01*
X89328650Y-122603334D01*
X89355008Y-122600500D01*
X90410902Y-122600500D01*
X90477941Y-122620185D01*
G37*
%TD.AperFunction*%
%TA.AperFunction,Conductor*%
G36*
X368442539Y-88020185D02*
G01*
X368488294Y-88072989D01*
X368499500Y-88124500D01*
X368499500Y-167875500D01*
X368479815Y-167942539D01*
X368427011Y-167988294D01*
X368375500Y-167999500D01*
X49124500Y-167999500D01*
X49057461Y-167979815D01*
X49011706Y-167927011D01*
X49000500Y-167875500D01*
X49000500Y-165229041D01*
X137599500Y-165229041D01*
X137599500Y-165510958D01*
X137636295Y-165790439D01*
X137709259Y-166062743D01*
X137817135Y-166323179D01*
X137817140Y-166323190D01*
X137958083Y-166567309D01*
X137958088Y-166567317D01*
X138129700Y-166790965D01*
X138129704Y-166790970D01*
X138329029Y-166990295D01*
X138329033Y-166990298D01*
X138329035Y-166990300D01*
X138552683Y-167161912D01*
X138552690Y-167161916D01*
X138796809Y-167302859D01*
X138796814Y-167302861D01*
X138796817Y-167302863D01*
X139057261Y-167410742D01*
X139329558Y-167483704D01*
X139609049Y-167520500D01*
X139609056Y-167520500D01*
X139890944Y-167520500D01*
X139890951Y-167520500D01*
X140170442Y-167483704D01*
X140442739Y-167410742D01*
X140703183Y-167302863D01*
X140947317Y-167161912D01*
X141170965Y-166990300D01*
X141370300Y-166790965D01*
X141541912Y-166567317D01*
X141682863Y-166323183D01*
X141790742Y-166062739D01*
X141863704Y-165790442D01*
X141900500Y-165510951D01*
X141900500Y-165229049D01*
X141900499Y-165229041D01*
X280499500Y-165229041D01*
X280499500Y-165510958D01*
X280536295Y-165790439D01*
X280609259Y-166062743D01*
X280717135Y-166323179D01*
X280717140Y-166323190D01*
X280858083Y-166567309D01*
X280858088Y-166567317D01*
X281029700Y-166790965D01*
X281029704Y-166790970D01*
X281229029Y-166990295D01*
X281229033Y-166990298D01*
X281229035Y-166990300D01*
X281452683Y-167161912D01*
X281452690Y-167161916D01*
X281696809Y-167302859D01*
X281696814Y-167302861D01*
X281696817Y-167302863D01*
X281957261Y-167410742D01*
X282229558Y-167483704D01*
X282509049Y-167520500D01*
X282509056Y-167520500D01*
X282790944Y-167520500D01*
X282790951Y-167520500D01*
X283070442Y-167483704D01*
X283342739Y-167410742D01*
X283603183Y-167302863D01*
X283847317Y-167161912D01*
X284070965Y-166990300D01*
X284270300Y-166790965D01*
X284441912Y-166567317D01*
X284582863Y-166323183D01*
X284690742Y-166062739D01*
X284763704Y-165790442D01*
X284800500Y-165510951D01*
X284800500Y-165229049D01*
X284763704Y-164949558D01*
X284690742Y-164677261D01*
X284582863Y-164416817D01*
X284582861Y-164416814D01*
X284582859Y-164416809D01*
X284441916Y-164172690D01*
X284441912Y-164172683D01*
X284270300Y-163949035D01*
X284270298Y-163949033D01*
X284270295Y-163949029D01*
X284070970Y-163749704D01*
X284070965Y-163749700D01*
X283847317Y-163578088D01*
X283847311Y-163578084D01*
X283847309Y-163578083D01*
X283603190Y-163437140D01*
X283603179Y-163437135D01*
X283342743Y-163329259D01*
X283070439Y-163256295D01*
X282790958Y-163219500D01*
X282790951Y-163219500D01*
X282509049Y-163219500D01*
X282509041Y-163219500D01*
X282229560Y-163256295D01*
X281957256Y-163329259D01*
X281696820Y-163437135D01*
X281696809Y-163437140D01*
X281452690Y-163578083D01*
X281452682Y-163578089D01*
X281229029Y-163749704D01*
X281029704Y-163949029D01*
X280858089Y-164172682D01*
X280858083Y-164172690D01*
X280717140Y-164416809D01*
X280717135Y-164416820D01*
X280609259Y-164677256D01*
X280536295Y-164949560D01*
X280499500Y-165229041D01*
X141900499Y-165229041D01*
X141863704Y-164949558D01*
X141790742Y-164677261D01*
X141682863Y-164416817D01*
X141682861Y-164416814D01*
X141682859Y-164416809D01*
X141541916Y-164172690D01*
X141541912Y-164172683D01*
X141370300Y-163949035D01*
X141370298Y-163949033D01*
X141370295Y-163949029D01*
X141170970Y-163749704D01*
X141170965Y-163749700D01*
X140947317Y-163578088D01*
X140947311Y-163578084D01*
X140947309Y-163578083D01*
X140703190Y-163437140D01*
X140703179Y-163437135D01*
X140442743Y-163329259D01*
X140170439Y-163256295D01*
X139890958Y-163219500D01*
X139890951Y-163219500D01*
X139609049Y-163219500D01*
X139609041Y-163219500D01*
X139329560Y-163256295D01*
X139057256Y-163329259D01*
X138796820Y-163437135D01*
X138796809Y-163437140D01*
X138552690Y-163578083D01*
X138552682Y-163578089D01*
X138329029Y-163749704D01*
X138129704Y-163949029D01*
X137958089Y-164172682D01*
X137958083Y-164172690D01*
X137817140Y-164416809D01*
X137817135Y-164416820D01*
X137709259Y-164677256D01*
X137636295Y-164949560D01*
X137599500Y-165229041D01*
X49000500Y-165229041D01*
X49000500Y-153859041D01*
X49349500Y-153859041D01*
X49349500Y-154140958D01*
X49386295Y-154420439D01*
X49459259Y-154692743D01*
X49567135Y-154953179D01*
X49567140Y-154953190D01*
X49708083Y-155197309D01*
X49708088Y-155197317D01*
X49879700Y-155420965D01*
X49879704Y-155420970D01*
X50079029Y-155620295D01*
X50079033Y-155620298D01*
X50079035Y-155620300D01*
X50302683Y-155791912D01*
X50302690Y-155791916D01*
X50546809Y-155932859D01*
X50546814Y-155932861D01*
X50546817Y-155932863D01*
X50807261Y-156040742D01*
X51079558Y-156113704D01*
X51359049Y-156150500D01*
X51359056Y-156150500D01*
X51640944Y-156150500D01*
X51640951Y-156150500D01*
X51920442Y-156113704D01*
X52192739Y-156040742D01*
X52453183Y-155932863D01*
X52697317Y-155791912D01*
X52920965Y-155620300D01*
X53120300Y-155420965D01*
X53291912Y-155197317D01*
X53432863Y-154953183D01*
X53540742Y-154692739D01*
X53613704Y-154420442D01*
X53650500Y-154140951D01*
X53650500Y-153859049D01*
X53650499Y-153859041D01*
X363849500Y-153859041D01*
X363849500Y-154140958D01*
X363886295Y-154420439D01*
X363959259Y-154692743D01*
X364067135Y-154953179D01*
X364067140Y-154953190D01*
X364208083Y-155197309D01*
X364208088Y-155197317D01*
X364379700Y-155420965D01*
X364379704Y-155420970D01*
X364579029Y-155620295D01*
X364579033Y-155620298D01*
X364579035Y-155620300D01*
X364802683Y-155791912D01*
X364802690Y-155791916D01*
X365046809Y-155932859D01*
X365046814Y-155932861D01*
X365046817Y-155932863D01*
X365307261Y-156040742D01*
X365579558Y-156113704D01*
X365859049Y-156150500D01*
X365859056Y-156150500D01*
X366140944Y-156150500D01*
X366140951Y-156150500D01*
X366420442Y-156113704D01*
X366692739Y-156040742D01*
X366953183Y-155932863D01*
X367197317Y-155791912D01*
X367420965Y-155620300D01*
X367620300Y-155420965D01*
X367791912Y-155197317D01*
X367932863Y-154953183D01*
X368040742Y-154692739D01*
X368113704Y-154420442D01*
X368150500Y-154140951D01*
X368150500Y-153859049D01*
X368113704Y-153579558D01*
X368040742Y-153307261D01*
X367932863Y-153046817D01*
X367932861Y-153046814D01*
X367932859Y-153046809D01*
X367791916Y-152802690D01*
X367791912Y-152802683D01*
X367620300Y-152579035D01*
X367620298Y-152579033D01*
X367620295Y-152579029D01*
X367420970Y-152379704D01*
X367420965Y-152379700D01*
X367197317Y-152208088D01*
X367197311Y-152208084D01*
X367197309Y-152208083D01*
X366953190Y-152067140D01*
X366953179Y-152067135D01*
X366692743Y-151959259D01*
X366420439Y-151886295D01*
X366140958Y-151849500D01*
X366140951Y-151849500D01*
X365859049Y-151849500D01*
X365859041Y-151849500D01*
X365579560Y-151886295D01*
X365307256Y-151959259D01*
X365046820Y-152067135D01*
X365046809Y-152067140D01*
X364802690Y-152208083D01*
X364802682Y-152208089D01*
X364579029Y-152379704D01*
X364379704Y-152579029D01*
X364208089Y-152802682D01*
X364208083Y-152802690D01*
X364067140Y-153046809D01*
X364067135Y-153046820D01*
X363959259Y-153307256D01*
X363886295Y-153579560D01*
X363849500Y-153859041D01*
X53650499Y-153859041D01*
X53613704Y-153579558D01*
X53540742Y-153307261D01*
X53432863Y-153046817D01*
X53432861Y-153046814D01*
X53432859Y-153046809D01*
X53291916Y-152802690D01*
X53291912Y-152802683D01*
X53120300Y-152579035D01*
X53120298Y-152579033D01*
X53120295Y-152579029D01*
X52920970Y-152379704D01*
X52920965Y-152379700D01*
X52697317Y-152208088D01*
X52697311Y-152208084D01*
X52697309Y-152208083D01*
X52453190Y-152067140D01*
X52453179Y-152067135D01*
X52192743Y-151959259D01*
X51920439Y-151886295D01*
X51640958Y-151849500D01*
X51640951Y-151849500D01*
X51359049Y-151849500D01*
X51359041Y-151849500D01*
X51079560Y-151886295D01*
X50807256Y-151959259D01*
X50546820Y-152067135D01*
X50546809Y-152067140D01*
X50302690Y-152208083D01*
X50302682Y-152208089D01*
X50079029Y-152379704D01*
X49879704Y-152579029D01*
X49708089Y-152802682D01*
X49708083Y-152802690D01*
X49567140Y-153046809D01*
X49567135Y-153046820D01*
X49459259Y-153307256D01*
X49386295Y-153579560D01*
X49349500Y-153859041D01*
X49000500Y-153859041D01*
X49000500Y-138807135D01*
X62479500Y-138807135D01*
X62479500Y-140172870D01*
X62479501Y-140172876D01*
X62485908Y-140232483D01*
X62536202Y-140367328D01*
X62536206Y-140367335D01*
X62622452Y-140482544D01*
X62622455Y-140482547D01*
X62737664Y-140568793D01*
X62737671Y-140568797D01*
X62872517Y-140619091D01*
X62872516Y-140619091D01*
X62879444Y-140619835D01*
X62932127Y-140625500D01*
X63949658Y-140625499D01*
X64016697Y-140645183D01*
X64062452Y-140697987D01*
X64072396Y-140767146D01*
X64064220Y-140796950D01*
X64060263Y-140806502D01*
X64060261Y-140806510D01*
X64029500Y-140961153D01*
X64029500Y-141118846D01*
X64060261Y-141273489D01*
X64060264Y-141273501D01*
X64120602Y-141419172D01*
X64120609Y-141419185D01*
X64208210Y-141550288D01*
X64208213Y-141550292D01*
X64319707Y-141661786D01*
X64319711Y-141661789D01*
X64450814Y-141749390D01*
X64450827Y-141749397D01*
X64596498Y-141809735D01*
X64596503Y-141809737D01*
X64751153Y-141840499D01*
X64751156Y-141840500D01*
X64751158Y-141840500D01*
X64908844Y-141840500D01*
X64908845Y-141840499D01*
X65063497Y-141809737D01*
X65209179Y-141749394D01*
X65340289Y-141661789D01*
X65451789Y-141550289D01*
X65539394Y-141419179D01*
X65599737Y-141273497D01*
X65630500Y-141118842D01*
X65630500Y-140961158D01*
X65630500Y-140961155D01*
X65630499Y-140961153D01*
X65599738Y-140806510D01*
X65599737Y-140806503D01*
X65595779Y-140796949D01*
X65588313Y-140727480D01*
X65619589Y-140665001D01*
X65679678Y-140629350D01*
X65710342Y-140625499D01*
X66707871Y-140625499D01*
X66707872Y-140625499D01*
X66767483Y-140619091D01*
X66902331Y-140568796D01*
X67017546Y-140482546D01*
X67103796Y-140367331D01*
X67154091Y-140232483D01*
X67160500Y-140172873D01*
X67160499Y-138807128D01*
X67154091Y-138747517D01*
X67124064Y-138667011D01*
X67103797Y-138612671D01*
X67103793Y-138612664D01*
X67017547Y-138497455D01*
X67017544Y-138497452D01*
X66902335Y-138411206D01*
X66902328Y-138411202D01*
X66767482Y-138360908D01*
X66767483Y-138360908D01*
X66707883Y-138354501D01*
X66707881Y-138354500D01*
X66707873Y-138354500D01*
X66707864Y-138354500D01*
X62932129Y-138354500D01*
X62932123Y-138354501D01*
X62872516Y-138360908D01*
X62737671Y-138411202D01*
X62737664Y-138411206D01*
X62622455Y-138497452D01*
X62622452Y-138497455D01*
X62536206Y-138612664D01*
X62536202Y-138612671D01*
X62485908Y-138747517D01*
X62479501Y-138807116D01*
X62479501Y-138807123D01*
X62479500Y-138807135D01*
X49000500Y-138807135D01*
X49000500Y-136267135D01*
X62479500Y-136267135D01*
X62479500Y-137632870D01*
X62479501Y-137632876D01*
X62485908Y-137692483D01*
X62536202Y-137827328D01*
X62536206Y-137827335D01*
X62622452Y-137942544D01*
X62622455Y-137942547D01*
X62737664Y-138028793D01*
X62737671Y-138028797D01*
X62872517Y-138079091D01*
X62872516Y-138079091D01*
X62879444Y-138079835D01*
X62932127Y-138085500D01*
X66707872Y-138085499D01*
X66767483Y-138079091D01*
X66902331Y-138028796D01*
X67017546Y-137942546D01*
X67103796Y-137827331D01*
X67154091Y-137692483D01*
X67160500Y-137632873D01*
X67160499Y-136267128D01*
X67154091Y-136207517D01*
X67103796Y-136072669D01*
X67103795Y-136072668D01*
X67103793Y-136072664D01*
X67017547Y-135957455D01*
X67017544Y-135957452D01*
X66902335Y-135871206D01*
X66902328Y-135871202D01*
X66767482Y-135820908D01*
X66767483Y-135820908D01*
X66707883Y-135814501D01*
X66707881Y-135814500D01*
X66707873Y-135814500D01*
X66707864Y-135814500D01*
X62932129Y-135814500D01*
X62932123Y-135814501D01*
X62872516Y-135820908D01*
X62737671Y-135871202D01*
X62737664Y-135871206D01*
X62622455Y-135957452D01*
X62622452Y-135957455D01*
X62536206Y-136072664D01*
X62536202Y-136072671D01*
X62485908Y-136207517D01*
X62479501Y-136267116D01*
X62479501Y-136267123D01*
X62479500Y-136267135D01*
X49000500Y-136267135D01*
X49000500Y-129118920D01*
X57499499Y-129118920D01*
X57528340Y-129263907D01*
X57528343Y-129263917D01*
X57584914Y-129400493D01*
X57584915Y-129400494D01*
X57603434Y-129428210D01*
X57667049Y-129523418D01*
X57667052Y-129523421D01*
X62443181Y-134299549D01*
X62476666Y-134360872D01*
X62479500Y-134387230D01*
X62479500Y-135092870D01*
X62479501Y-135092876D01*
X62485908Y-135152483D01*
X62536202Y-135287328D01*
X62536206Y-135287335D01*
X62622452Y-135402544D01*
X62622455Y-135402547D01*
X62737664Y-135488793D01*
X62737671Y-135488797D01*
X62872517Y-135539091D01*
X62872516Y-135539091D01*
X62879444Y-135539835D01*
X62932127Y-135545500D01*
X66707872Y-135545499D01*
X66767483Y-135539091D01*
X66902331Y-135488796D01*
X67017546Y-135402546D01*
X67103796Y-135287331D01*
X67154091Y-135152483D01*
X67160500Y-135092873D01*
X67160499Y-133727135D01*
X67429500Y-133727135D01*
X67429500Y-135092870D01*
X67429501Y-135092876D01*
X67435908Y-135152483D01*
X67486202Y-135287328D01*
X67486206Y-135287335D01*
X67572452Y-135402544D01*
X67572455Y-135402547D01*
X67687664Y-135488793D01*
X67687671Y-135488797D01*
X67822517Y-135539091D01*
X67822516Y-135539091D01*
X67829444Y-135539835D01*
X67882127Y-135545500D01*
X71657872Y-135545499D01*
X71717483Y-135539091D01*
X71852331Y-135488796D01*
X71967546Y-135402546D01*
X72053796Y-135287331D01*
X72104091Y-135152483D01*
X72110500Y-135092873D01*
X72110499Y-133727128D01*
X72104091Y-133667517D01*
X72103333Y-133665486D01*
X72053797Y-133532671D01*
X72053793Y-133532664D01*
X71967547Y-133417455D01*
X71967544Y-133417452D01*
X71852335Y-133331206D01*
X71852328Y-133331202D01*
X71717482Y-133280908D01*
X71717483Y-133280908D01*
X71657883Y-133274501D01*
X71657881Y-133274500D01*
X71657873Y-133274500D01*
X71657864Y-133274500D01*
X67882129Y-133274500D01*
X67882123Y-133274501D01*
X67822516Y-133280908D01*
X67687671Y-133331202D01*
X67687664Y-133331206D01*
X67572455Y-133417452D01*
X67572452Y-133417455D01*
X67486206Y-133532664D01*
X67486202Y-133532671D01*
X67435908Y-133667517D01*
X67430668Y-133716264D01*
X67429501Y-133727123D01*
X67429500Y-133727135D01*
X67160499Y-133727135D01*
X67160499Y-133727128D01*
X67154091Y-133667517D01*
X67153333Y-133665486D01*
X67103797Y-133532671D01*
X67103793Y-133532664D01*
X67017547Y-133417455D01*
X67017544Y-133417452D01*
X66902335Y-133331206D01*
X66902328Y-133331202D01*
X66767482Y-133280908D01*
X66767483Y-133280908D01*
X66707883Y-133274501D01*
X66707881Y-133274500D01*
X66707873Y-133274500D01*
X66707865Y-133274500D01*
X63592230Y-133274500D01*
X63562789Y-133265855D01*
X63532803Y-133259332D01*
X63527787Y-133255577D01*
X63525191Y-133254815D01*
X63504549Y-133238181D01*
X63483548Y-133217180D01*
X63450063Y-133155857D01*
X63455047Y-133086165D01*
X63496919Y-133030232D01*
X63562383Y-133005815D01*
X63571229Y-133005499D01*
X66707871Y-133005499D01*
X66707872Y-133005499D01*
X66767483Y-132999091D01*
X66902331Y-132948796D01*
X67017546Y-132862546D01*
X67103796Y-132747331D01*
X67154091Y-132612483D01*
X67160500Y-132552873D01*
X67160499Y-131187135D01*
X67429500Y-131187135D01*
X67429500Y-132552870D01*
X67429501Y-132552876D01*
X67435908Y-132612483D01*
X67486202Y-132747328D01*
X67486206Y-132747335D01*
X67572452Y-132862544D01*
X67572455Y-132862547D01*
X67687664Y-132948793D01*
X67687671Y-132948797D01*
X67822517Y-132999091D01*
X67822516Y-132999091D01*
X67829444Y-132999835D01*
X67882127Y-133005500D01*
X71657872Y-133005499D01*
X71717483Y-132999091D01*
X71852331Y-132948796D01*
X71967546Y-132862546D01*
X72053796Y-132747331D01*
X72104091Y-132612483D01*
X72110500Y-132552873D01*
X72110499Y-131187128D01*
X72104091Y-131127517D01*
X72093397Y-131098846D01*
X72053797Y-130992671D01*
X72053793Y-130992664D01*
X71967547Y-130877455D01*
X71967544Y-130877452D01*
X71852335Y-130791206D01*
X71852328Y-130791202D01*
X71717482Y-130740908D01*
X71717483Y-130740908D01*
X71657883Y-130734501D01*
X71657881Y-130734500D01*
X71657873Y-130734500D01*
X71657864Y-130734500D01*
X67882129Y-130734500D01*
X67882123Y-130734501D01*
X67822516Y-130740908D01*
X67687671Y-130791202D01*
X67687664Y-130791206D01*
X67572455Y-130877452D01*
X67572452Y-130877455D01*
X67486206Y-130992664D01*
X67486202Y-130992671D01*
X67435908Y-131127517D01*
X67429501Y-131187116D01*
X67429501Y-131187123D01*
X67429500Y-131187135D01*
X67160499Y-131187135D01*
X67160499Y-131187128D01*
X67154091Y-131127517D01*
X67143397Y-131098846D01*
X67103797Y-130992671D01*
X67103793Y-130992664D01*
X67017547Y-130877455D01*
X67017544Y-130877452D01*
X66902335Y-130791206D01*
X66902328Y-130791202D01*
X66767482Y-130740908D01*
X66767483Y-130740908D01*
X66707883Y-130734501D01*
X66707881Y-130734500D01*
X66707873Y-130734500D01*
X66707864Y-130734500D01*
X62932129Y-130734500D01*
X62932123Y-130734501D01*
X62872516Y-130740908D01*
X62737671Y-130791202D01*
X62737664Y-130791206D01*
X62622455Y-130877452D01*
X62622452Y-130877455D01*
X62536206Y-130992664D01*
X62536202Y-130992671D01*
X62485908Y-131127517D01*
X62479501Y-131187116D01*
X62479501Y-131187123D01*
X62479500Y-131187135D01*
X62479500Y-131913770D01*
X62459815Y-131980809D01*
X62407011Y-132026564D01*
X62337853Y-132036508D01*
X62274297Y-132007483D01*
X62267819Y-132001451D01*
X59036819Y-128770451D01*
X59003334Y-128709128D01*
X59000500Y-128682770D01*
X59000500Y-102422230D01*
X59020185Y-102355191D01*
X59036819Y-102334549D01*
X67216282Y-94155086D01*
X67277605Y-94121601D01*
X67303963Y-94118767D01*
X163073653Y-94118767D01*
X163171195Y-94099363D01*
X163218646Y-94089925D01*
X163355228Y-94033351D01*
X163404462Y-94000453D01*
X163478149Y-93951219D01*
X166737819Y-90691546D01*
X166757255Y-90680934D01*
X166773989Y-90666434D01*
X166787320Y-90664517D01*
X166799142Y-90658062D01*
X166821228Y-90659641D01*
X166843147Y-90656490D01*
X166855398Y-90662085D01*
X166868834Y-90663046D01*
X166886560Y-90676316D01*
X166906703Y-90685515D01*
X166913985Y-90696846D01*
X166924767Y-90704918D01*
X166932504Y-90725663D01*
X166944477Y-90744293D01*
X166947628Y-90766211D01*
X166949184Y-90770382D01*
X166949500Y-90779228D01*
X166949500Y-90787770D01*
X166929815Y-90854809D01*
X166913181Y-90875451D01*
X161445451Y-96343181D01*
X161384128Y-96376666D01*
X161357770Y-96379500D01*
X67808858Y-96379500D01*
X67663870Y-96408340D01*
X67663860Y-96408343D01*
X67527286Y-96464913D01*
X67404362Y-96547048D01*
X67404362Y-96547049D01*
X59597050Y-104354358D01*
X59597044Y-104354366D01*
X59547812Y-104428046D01*
X59547813Y-104428047D01*
X59514921Y-104477274D01*
X59514914Y-104477286D01*
X59458342Y-104613864D01*
X59458340Y-104613870D01*
X59429500Y-104758857D01*
X59429500Y-104758860D01*
X59429500Y-125480918D01*
X59429500Y-125480920D01*
X59429499Y-125480920D01*
X59458340Y-125625907D01*
X59458343Y-125625917D01*
X59514914Y-125762492D01*
X59514915Y-125762494D01*
X59514916Y-125762495D01*
X59543275Y-125804938D01*
X59547812Y-125811727D01*
X59547813Y-125811730D01*
X59597046Y-125885414D01*
X59597052Y-125885421D01*
X62443181Y-128731549D01*
X62476666Y-128792872D01*
X62479500Y-128819230D01*
X62479500Y-130012870D01*
X62479501Y-130012876D01*
X62485908Y-130072483D01*
X62536202Y-130207328D01*
X62536206Y-130207335D01*
X62622452Y-130322544D01*
X62622455Y-130322547D01*
X62737664Y-130408793D01*
X62737671Y-130408797D01*
X62872517Y-130459091D01*
X62872516Y-130459091D01*
X62879444Y-130459835D01*
X62932127Y-130465500D01*
X66707872Y-130465499D01*
X66767483Y-130459091D01*
X66902331Y-130408796D01*
X67017546Y-130322546D01*
X67103796Y-130207331D01*
X67154091Y-130072483D01*
X67160500Y-130012873D01*
X67160499Y-128647135D01*
X67429500Y-128647135D01*
X67429500Y-130012870D01*
X67429501Y-130012876D01*
X67435908Y-130072483D01*
X67486202Y-130207328D01*
X67486206Y-130207335D01*
X67572452Y-130322544D01*
X67572455Y-130322547D01*
X67687664Y-130408793D01*
X67687671Y-130408797D01*
X67822517Y-130459091D01*
X67822516Y-130459091D01*
X67829444Y-130459835D01*
X67882127Y-130465500D01*
X71657872Y-130465499D01*
X71717483Y-130459091D01*
X71852331Y-130408796D01*
X71967546Y-130322546D01*
X72053796Y-130207331D01*
X72104091Y-130072483D01*
X72110500Y-130012873D01*
X72110499Y-128647128D01*
X72104091Y-128587517D01*
X72101502Y-128580576D01*
X72053797Y-128452671D01*
X72053793Y-128452664D01*
X71967547Y-128337455D01*
X71967544Y-128337452D01*
X71852335Y-128251206D01*
X71852328Y-128251202D01*
X71717482Y-128200908D01*
X71717483Y-128200908D01*
X71657883Y-128194501D01*
X71657881Y-128194500D01*
X71657873Y-128194500D01*
X71657864Y-128194500D01*
X67882129Y-128194500D01*
X67882123Y-128194501D01*
X67822516Y-128200908D01*
X67687671Y-128251202D01*
X67687664Y-128251206D01*
X67572455Y-128337452D01*
X67572452Y-128337455D01*
X67486206Y-128452664D01*
X67486202Y-128452671D01*
X67435908Y-128587517D01*
X67429940Y-128643036D01*
X67429501Y-128647123D01*
X67429500Y-128647135D01*
X67160499Y-128647135D01*
X67160499Y-128647128D01*
X67154091Y-128587517D01*
X67151502Y-128580576D01*
X67103797Y-128452671D01*
X67103793Y-128452664D01*
X67017547Y-128337455D01*
X67017544Y-128337452D01*
X66902335Y-128251206D01*
X66902328Y-128251202D01*
X66767482Y-128200908D01*
X66767483Y-128200908D01*
X66707883Y-128194501D01*
X66707881Y-128194500D01*
X66707873Y-128194500D01*
X66707865Y-128194500D01*
X64080230Y-128194500D01*
X64050789Y-128185855D01*
X64020803Y-128179332D01*
X64015787Y-128175577D01*
X64013191Y-128174815D01*
X63992549Y-128158181D01*
X63971548Y-128137180D01*
X63938063Y-128075857D01*
X63943047Y-128006165D01*
X63984919Y-127950232D01*
X64050383Y-127925815D01*
X64059229Y-127925499D01*
X66707871Y-127925499D01*
X66707872Y-127925499D01*
X66767483Y-127919091D01*
X66902331Y-127868796D01*
X67017546Y-127782546D01*
X67103796Y-127667331D01*
X67154091Y-127532483D01*
X67160500Y-127472873D01*
X67160499Y-126107128D01*
X67154091Y-126047517D01*
X67150935Y-126039056D01*
X67103797Y-125912673D01*
X67103796Y-125912669D01*
X67103791Y-125912663D01*
X67102300Y-125909930D01*
X67101635Y-125906874D01*
X67100942Y-125905018D01*
X67098337Y-125902011D01*
X67093970Y-125871642D01*
X67087447Y-125841657D01*
X67089043Y-125837376D01*
X67088393Y-125832853D01*
X67101140Y-125804938D01*
X67111862Y-125776192D01*
X67115519Y-125773453D01*
X67117418Y-125769297D01*
X67143228Y-125752709D01*
X67167794Y-125734319D01*
X67173426Y-125733302D01*
X67176196Y-125731523D01*
X67211131Y-125726500D01*
X67378869Y-125726500D01*
X67445908Y-125746185D01*
X67491663Y-125798989D01*
X67501607Y-125868147D01*
X67487700Y-125909930D01*
X67486202Y-125912673D01*
X67435908Y-126047517D01*
X67433346Y-126071353D01*
X67429501Y-126107123D01*
X67429500Y-126107135D01*
X67429500Y-127472870D01*
X67429501Y-127472876D01*
X67435908Y-127532483D01*
X67486202Y-127667328D01*
X67486206Y-127667335D01*
X67572452Y-127782544D01*
X67572455Y-127782547D01*
X67687664Y-127868793D01*
X67687671Y-127868797D01*
X67822517Y-127919091D01*
X67822516Y-127919091D01*
X67829444Y-127919835D01*
X67882127Y-127925500D01*
X71657872Y-127925499D01*
X71717483Y-127919091D01*
X71852331Y-127868796D01*
X71967546Y-127782546D01*
X72053796Y-127667331D01*
X72104091Y-127532483D01*
X72110500Y-127472873D01*
X72110499Y-126107128D01*
X72104091Y-126047517D01*
X72100935Y-126039056D01*
X72053797Y-125912673D01*
X72053796Y-125912669D01*
X72053791Y-125912663D01*
X72052300Y-125909930D01*
X72051635Y-125906874D01*
X72050697Y-125904359D01*
X72051058Y-125904224D01*
X72037447Y-125841657D01*
X72061862Y-125776192D01*
X72117794Y-125734319D01*
X72161131Y-125726500D01*
X83483331Y-125726500D01*
X83483347Y-125726501D01*
X83490943Y-125726501D01*
X83649054Y-125726501D01*
X83649057Y-125726501D01*
X83801785Y-125685577D01*
X83864272Y-125649500D01*
X83938716Y-125606520D01*
X84050520Y-125494716D01*
X84050520Y-125494714D01*
X84060724Y-125484511D01*
X84060727Y-125484506D01*
X85584662Y-123960572D01*
X85645983Y-123927089D01*
X85648150Y-123926638D01*
X85706085Y-123915113D01*
X85803497Y-123895737D01*
X85949179Y-123835394D01*
X86080289Y-123747789D01*
X86191789Y-123636289D01*
X86279394Y-123505179D01*
X86339737Y-123359497D01*
X86370500Y-123204842D01*
X86370500Y-123047158D01*
X86370500Y-123047155D01*
X86370499Y-123047153D01*
X86350870Y-122948471D01*
X86339737Y-122892503D01*
X86320268Y-122845500D01*
X86279397Y-122746827D01*
X86279390Y-122746814D01*
X86191789Y-122615711D01*
X86191786Y-122615707D01*
X86080292Y-122504213D01*
X86080288Y-122504210D01*
X85949185Y-122416609D01*
X85949172Y-122416602D01*
X85803501Y-122356264D01*
X85803489Y-122356261D01*
X85680271Y-122331751D01*
X85618360Y-122299366D01*
X85583785Y-122238650D01*
X85587525Y-122168881D01*
X85616781Y-122122453D01*
X86339735Y-121399500D01*
X87182416Y-120556819D01*
X87243739Y-120523334D01*
X87270097Y-120520500D01*
X92154239Y-120520500D01*
X92221278Y-120540185D01*
X92241920Y-120556819D01*
X94092593Y-122407492D01*
X94126078Y-122468815D01*
X94126529Y-122470981D01*
X94157429Y-122626323D01*
X94157432Y-122626333D01*
X94217770Y-122772004D01*
X94217777Y-122772017D01*
X94305378Y-122903120D01*
X94305381Y-122903124D01*
X94416875Y-123014618D01*
X94416879Y-123014621D01*
X94547982Y-123102222D01*
X94547995Y-123102229D01*
X94607398Y-123126834D01*
X94693671Y-123162569D01*
X94823934Y-123188480D01*
X94848321Y-123193331D01*
X94848324Y-123193332D01*
X94848326Y-123193332D01*
X95006012Y-123193332D01*
X95006013Y-123193331D01*
X95160665Y-123162569D01*
X95306347Y-123102226D01*
X95368395Y-123060766D01*
X95435068Y-123039889D01*
X95502449Y-123058372D01*
X95524965Y-123076188D01*
X96694181Y-124245404D01*
X96727666Y-124306727D01*
X96730500Y-124333085D01*
X96730500Y-124606255D01*
X96710815Y-124673294D01*
X96658011Y-124719049D01*
X96588853Y-124728993D01*
X96531014Y-124704631D01*
X96427842Y-124625464D01*
X96281762Y-124564956D01*
X96281760Y-124564955D01*
X96164361Y-124549500D01*
X95885641Y-124549500D01*
X95861367Y-124552696D01*
X95792332Y-124541928D01*
X95740078Y-124495546D01*
X95722247Y-124445943D01*
X95710044Y-124353238D01*
X95649536Y-124207159D01*
X95553282Y-124081718D01*
X95427841Y-123985464D01*
X95367751Y-123960574D01*
X95281762Y-123924956D01*
X95281760Y-123924955D01*
X95164361Y-123909500D01*
X94885636Y-123909500D01*
X94768246Y-123924953D01*
X94768234Y-123924957D01*
X94752066Y-123931654D01*
X94682596Y-123939121D01*
X94620118Y-123907845D01*
X94588547Y-123855348D01*
X94587686Y-123855705D01*
X94585303Y-123849953D01*
X94584841Y-123849184D01*
X94584577Y-123848199D01*
X94584573Y-123848191D01*
X94505524Y-123711272D01*
X94505518Y-123711264D01*
X93884021Y-123089767D01*
X93256607Y-122462354D01*
X93256606Y-122462352D01*
X93137735Y-122343481D01*
X93137727Y-122343475D01*
X93013515Y-122271762D01*
X93013512Y-122271761D01*
X93000803Y-122264423D01*
X92996806Y-122263352D01*
X92848075Y-122223499D01*
X92689961Y-122223499D01*
X92682365Y-122223499D01*
X92682349Y-122223500D01*
X92060499Y-122223500D01*
X91993460Y-122203815D01*
X91947705Y-122151011D01*
X91936499Y-122099500D01*
X91936499Y-121920945D01*
X91936499Y-121920943D01*
X91895576Y-121768216D01*
X91876218Y-121734687D01*
X91816523Y-121631290D01*
X91816517Y-121631282D01*
X91704716Y-121519481D01*
X91704708Y-121519475D01*
X91567789Y-121440426D01*
X91567785Y-121440424D01*
X91567783Y-121440423D01*
X91415056Y-121399500D01*
X91415055Y-121399500D01*
X89141580Y-121399500D01*
X89141564Y-121399499D01*
X89133968Y-121399499D01*
X88975853Y-121399499D01*
X88899489Y-121419961D01*
X88823124Y-121440423D01*
X88823119Y-121440426D01*
X88686200Y-121519475D01*
X88686192Y-121519481D01*
X73892494Y-136313181D01*
X73831171Y-136346666D01*
X73804813Y-136349500D01*
X72230739Y-136349500D01*
X72163700Y-136329815D01*
X72117945Y-136277011D01*
X72107449Y-136238754D01*
X72107056Y-136235102D01*
X72104091Y-136207517D01*
X72053796Y-136072669D01*
X72053795Y-136072668D01*
X72053793Y-136072664D01*
X71967547Y-135957455D01*
X71967544Y-135957452D01*
X71852335Y-135871206D01*
X71852328Y-135871202D01*
X71717482Y-135820908D01*
X71717483Y-135820908D01*
X71657883Y-135814501D01*
X71657881Y-135814500D01*
X71657873Y-135814500D01*
X71657864Y-135814500D01*
X67882129Y-135814500D01*
X67882123Y-135814501D01*
X67822516Y-135820908D01*
X67687671Y-135871202D01*
X67687664Y-135871206D01*
X67572455Y-135957452D01*
X67572452Y-135957455D01*
X67486206Y-136072664D01*
X67486202Y-136072671D01*
X67435908Y-136207517D01*
X67429501Y-136267116D01*
X67429501Y-136267123D01*
X67429500Y-136267135D01*
X67429500Y-137632870D01*
X67429501Y-137632876D01*
X67435908Y-137692483D01*
X67486202Y-137827328D01*
X67486206Y-137827335D01*
X67572452Y-137942544D01*
X67572455Y-137942547D01*
X67687664Y-138028793D01*
X67687671Y-138028797D01*
X67822517Y-138079091D01*
X67822516Y-138079091D01*
X67829444Y-138079835D01*
X67882127Y-138085500D01*
X71657872Y-138085499D01*
X71717483Y-138079091D01*
X71852331Y-138028796D01*
X71967546Y-137942546D01*
X72053796Y-137827331D01*
X72104091Y-137692483D01*
X72107450Y-137661244D01*
X72134188Y-137596693D01*
X72191581Y-137556845D01*
X72230739Y-137550500D01*
X74018241Y-137550500D01*
X74018257Y-137550501D01*
X74025853Y-137550501D01*
X74183964Y-137550501D01*
X74183967Y-137550501D01*
X74336695Y-137509577D01*
X74386814Y-137480639D01*
X74473626Y-137430520D01*
X74585430Y-137318716D01*
X74585430Y-137318714D01*
X74595638Y-137308507D01*
X74595639Y-137308504D01*
X85125481Y-126778663D01*
X85186802Y-126745180D01*
X85256494Y-126750164D01*
X85312427Y-126792036D01*
X85336844Y-126857500D01*
X85336099Y-126882531D01*
X85324500Y-126970637D01*
X85324500Y-127309363D01*
X85339955Y-127426763D01*
X85340263Y-127427912D01*
X85340263Y-127429101D01*
X85341016Y-127434821D01*
X85340263Y-127434920D01*
X85340265Y-127485081D01*
X85341017Y-127485180D01*
X85340265Y-127490884D01*
X85340266Y-127492079D01*
X85339956Y-127493234D01*
X85324500Y-127610638D01*
X85324500Y-127949363D01*
X85339953Y-128066753D01*
X85339957Y-128066765D01*
X85400461Y-128212836D01*
X85404526Y-128219876D01*
X85402783Y-128220882D01*
X85424069Y-128275932D01*
X85424500Y-128286257D01*
X85424500Y-128893329D01*
X85424499Y-128893347D01*
X85424499Y-129059053D01*
X85424498Y-129059053D01*
X85465424Y-129211788D01*
X85465425Y-129211789D01*
X85489276Y-129253099D01*
X85489277Y-129253101D01*
X85544475Y-129348708D01*
X85544481Y-129348716D01*
X85663349Y-129467584D01*
X85663355Y-129467589D01*
X85844479Y-129648713D01*
X85844481Y-129648716D01*
X85870281Y-129674516D01*
X85877799Y-129682034D01*
X85877802Y-129682040D01*
X85897497Y-129707704D01*
X85900461Y-129712838D01*
X85985264Y-129823355D01*
X85996718Y-129838282D01*
X86122159Y-129934536D01*
X86268238Y-129995044D01*
X86367660Y-130008133D01*
X86388562Y-130017379D01*
X86410901Y-130022239D01*
X86427301Y-130034516D01*
X86431555Y-130036398D01*
X86439155Y-130043390D01*
X86576139Y-130180374D01*
X86576149Y-130180385D01*
X86580479Y-130184715D01*
X86580480Y-130184716D01*
X86692284Y-130296520D01*
X86692286Y-130296521D01*
X86692290Y-130296524D01*
X86807068Y-130362790D01*
X86829216Y-130375577D01*
X86931560Y-130403000D01*
X86931559Y-130403000D01*
X86942206Y-130405852D01*
X86981942Y-130416500D01*
X86981943Y-130416500D01*
X88485500Y-130416500D01*
X88552539Y-130436185D01*
X88598294Y-130488989D01*
X88609500Y-130540500D01*
X88609500Y-132083330D01*
X88609499Y-132083348D01*
X88609499Y-132249054D01*
X88609498Y-132249054D01*
X88650423Y-132401787D01*
X88660670Y-132419533D01*
X88660671Y-132419534D01*
X88728308Y-132536686D01*
X88729479Y-132538714D01*
X88729481Y-132538717D01*
X88841284Y-132650520D01*
X88928095Y-132700639D01*
X88928097Y-132700641D01*
X88957989Y-132717899D01*
X88978215Y-132729577D01*
X89130943Y-132770501D01*
X89130946Y-132770501D01*
X89289055Y-132770501D01*
X89289057Y-132770501D01*
X89305669Y-132766049D01*
X89310614Y-132764725D01*
X89342706Y-132760500D01*
X90789055Y-132760500D01*
X90789057Y-132760500D01*
X90941784Y-132719577D01*
X91078716Y-132640520D01*
X91190520Y-132528716D01*
X91269577Y-132391784D01*
X91310500Y-132239057D01*
X91310500Y-131835912D01*
X91330185Y-131768873D01*
X91382989Y-131723118D01*
X91410302Y-131714296D01*
X91483497Y-131699737D01*
X91604131Y-131649769D01*
X91629172Y-131639397D01*
X91629172Y-131639396D01*
X91629179Y-131639394D01*
X91760289Y-131551789D01*
X91798278Y-131513799D01*
X91859599Y-131480314D01*
X91918052Y-131481705D01*
X91991925Y-131501501D01*
X91991926Y-131501501D01*
X92157636Y-131501501D01*
X92157652Y-131501500D01*
X93085281Y-131501500D01*
X93152320Y-131521185D01*
X93198075Y-131573989D01*
X93208019Y-131643147D01*
X93178994Y-131706703D01*
X93172967Y-131713174D01*
X93016961Y-131869181D01*
X92889286Y-131996856D01*
X92777481Y-132108660D01*
X92777477Y-132108665D01*
X92729490Y-132191783D01*
X92729490Y-132191784D01*
X92698423Y-132245592D01*
X92697495Y-132249057D01*
X92657499Y-132398321D01*
X92657499Y-132398323D01*
X92657499Y-132566424D01*
X92657500Y-132566437D01*
X92657500Y-133852276D01*
X92657499Y-133852294D01*
X92657499Y-134018000D01*
X92657498Y-134018000D01*
X92698423Y-134170732D01*
X92698424Y-134170733D01*
X92709202Y-134189401D01*
X92720745Y-134209394D01*
X92772753Y-134299475D01*
X92777481Y-134307663D01*
X92896349Y-134426531D01*
X92896355Y-134426536D01*
X93419723Y-134949904D01*
X93430413Y-134962092D01*
X93500964Y-135054036D01*
X93618571Y-135144279D01*
X93755528Y-135201009D01*
X93865599Y-135215500D01*
X94314400Y-135215499D01*
X94321592Y-135214552D01*
X94390627Y-135225317D01*
X94442883Y-135271696D01*
X94461769Y-135338965D01*
X94441289Y-135405766D01*
X94425459Y-135425172D01*
X91147451Y-138703181D01*
X91086128Y-138736666D01*
X91059770Y-138739500D01*
X72187196Y-138739500D01*
X72120157Y-138719815D01*
X72074402Y-138667011D01*
X72071014Y-138658832D01*
X72053798Y-138612673D01*
X72053793Y-138612664D01*
X71967547Y-138497455D01*
X71967544Y-138497452D01*
X71852335Y-138411206D01*
X71852328Y-138411202D01*
X71717482Y-138360908D01*
X71717483Y-138360908D01*
X71657883Y-138354501D01*
X71657881Y-138354500D01*
X71657873Y-138354500D01*
X71657864Y-138354500D01*
X67882129Y-138354500D01*
X67882123Y-138354501D01*
X67822516Y-138360908D01*
X67687671Y-138411202D01*
X67687664Y-138411206D01*
X67572455Y-138497452D01*
X67572452Y-138497455D01*
X67486206Y-138612664D01*
X67486202Y-138612671D01*
X67435908Y-138747517D01*
X67429501Y-138807116D01*
X67429501Y-138807123D01*
X67429500Y-138807135D01*
X67429500Y-140172870D01*
X67429501Y-140172876D01*
X67435908Y-140232483D01*
X67486202Y-140367328D01*
X67486206Y-140367335D01*
X67572452Y-140482544D01*
X67572455Y-140482547D01*
X67687664Y-140568793D01*
X67687671Y-140568797D01*
X67822517Y-140619091D01*
X67822516Y-140619091D01*
X67829444Y-140619835D01*
X67882127Y-140625500D01*
X71657872Y-140625499D01*
X71717483Y-140619091D01*
X71852331Y-140568796D01*
X71967546Y-140482546D01*
X72053796Y-140367331D01*
X72071014Y-140321168D01*
X72112884Y-140265234D01*
X72178348Y-140240816D01*
X72187196Y-140240500D01*
X91495920Y-140240500D01*
X91593462Y-140221096D01*
X91640913Y-140211658D01*
X91777495Y-140155084D01*
X91826729Y-140122186D01*
X91900416Y-140072952D01*
X96572952Y-135400415D01*
X96600205Y-135359627D01*
X96655084Y-135277495D01*
X96663267Y-135257737D01*
X96668575Y-135249175D01*
X96687399Y-135232316D01*
X96703254Y-135212643D01*
X96712984Y-135209404D01*
X96720624Y-135202563D01*
X96745572Y-135198558D01*
X96769548Y-135190579D01*
X96773973Y-135190500D01*
X98348331Y-135190500D01*
X98348347Y-135190501D01*
X98355943Y-135190501D01*
X98514056Y-135190501D01*
X98514057Y-135190501D01*
X98591591Y-135169725D01*
X98623686Y-135165499D01*
X98729363Y-135165499D01*
X98846753Y-135150046D01*
X98846757Y-135150044D01*
X98846762Y-135150044D01*
X98992836Y-135089538D01*
X98992837Y-135089538D01*
X98992837Y-135089537D01*
X98992841Y-135089536D01*
X99029869Y-135061123D01*
X99095036Y-135035930D01*
X99105354Y-135035500D01*
X104498331Y-135035500D01*
X104498347Y-135035501D01*
X104505943Y-135035501D01*
X104664054Y-135035501D01*
X104664057Y-135035501D01*
X104816785Y-134994577D01*
X104866904Y-134965639D01*
X104953716Y-134915520D01*
X105065520Y-134803716D01*
X105065520Y-134803714D01*
X105075728Y-134793507D01*
X105075729Y-134793504D01*
X107399822Y-132469412D01*
X107461141Y-132435930D01*
X107530833Y-132440914D01*
X107575180Y-132469415D01*
X110000139Y-134894374D01*
X110000149Y-134894385D01*
X110004479Y-134898715D01*
X110004480Y-134898716D01*
X110116284Y-135010520D01*
X110191657Y-135054036D01*
X110253215Y-135089577D01*
X110405943Y-135130500D01*
X117563331Y-135130500D01*
X117563347Y-135130501D01*
X117570943Y-135130501D01*
X117729054Y-135130501D01*
X117729057Y-135130501D01*
X117881785Y-135089577D01*
X117943343Y-135054036D01*
X118018716Y-135010520D01*
X118130520Y-134898716D01*
X118130520Y-134898714D01*
X118140724Y-134888511D01*
X118140728Y-134888506D01*
X118587416Y-134441818D01*
X118614343Y-134427114D01*
X118640162Y-134410522D01*
X118646362Y-134409630D01*
X118648739Y-134408333D01*
X118675097Y-134405499D01*
X118764900Y-134405499D01*
X118831939Y-134425184D01*
X118852581Y-134441817D01*
X118932284Y-134521520D01*
X118988604Y-134554036D01*
X118998536Y-134559770D01*
X119069211Y-134600575D01*
X119069215Y-134600577D01*
X119221943Y-134641500D01*
X161462331Y-134641500D01*
X161462347Y-134641501D01*
X161469943Y-134641501D01*
X161628054Y-134641501D01*
X161628057Y-134641501D01*
X161780785Y-134600577D01*
X161861396Y-134554036D01*
X161917716Y-134521520D01*
X162029520Y-134409716D01*
X162029520Y-134409714D01*
X162039724Y-134399511D01*
X162039727Y-134399506D01*
X164925638Y-131513596D01*
X164986959Y-131480113D01*
X165045406Y-131481503D01*
X165190943Y-131520500D01*
X165349057Y-131520500D01*
X220950234Y-131520500D01*
X221017273Y-131540185D01*
X221019125Y-131541398D01*
X221150814Y-131629390D01*
X221150827Y-131629397D01*
X221263645Y-131676127D01*
X221296503Y-131689737D01*
X221419959Y-131714294D01*
X221451153Y-131720499D01*
X221451156Y-131720500D01*
X221451158Y-131720500D01*
X221608844Y-131720500D01*
X221608845Y-131720499D01*
X221763497Y-131689737D01*
X221879262Y-131641786D01*
X221909172Y-131629397D01*
X221909172Y-131629396D01*
X221909179Y-131629394D01*
X221989339Y-131575833D01*
X222040875Y-131541398D01*
X222107553Y-131520520D01*
X222109766Y-131520500D01*
X255333331Y-131520500D01*
X255333347Y-131520501D01*
X255340943Y-131520501D01*
X255499054Y-131520501D01*
X255499057Y-131520501D01*
X255651785Y-131479577D01*
X255728516Y-131435276D01*
X255788716Y-131400520D01*
X255900520Y-131288716D01*
X255900520Y-131288714D01*
X255910724Y-131278511D01*
X255910727Y-131278506D01*
X257822320Y-129366914D01*
X257883641Y-129333431D01*
X257953333Y-129338415D01*
X257997680Y-129366916D01*
X258638896Y-130008132D01*
X259347284Y-130716520D01*
X259347286Y-130716521D01*
X259347290Y-130716524D01*
X259476638Y-130791202D01*
X259484216Y-130795577D01*
X259636943Y-130836501D01*
X259636945Y-130836501D01*
X259802654Y-130836501D01*
X259802670Y-130836500D01*
X312877331Y-130836500D01*
X312877347Y-130836501D01*
X312884943Y-130836501D01*
X313043054Y-130836501D01*
X313043057Y-130836501D01*
X313195785Y-130795577D01*
X313258455Y-130759394D01*
X313332716Y-130716520D01*
X313444520Y-130604716D01*
X313444520Y-130604714D01*
X313454723Y-130594512D01*
X313454727Y-130594506D01*
X313523871Y-130525362D01*
X313585192Y-130491879D01*
X313595346Y-130490108D01*
X313664472Y-130481009D01*
X313667058Y-130479938D01*
X313714508Y-130470500D01*
X314547678Y-130470500D01*
X314614717Y-130490185D01*
X314623165Y-130496125D01*
X314647157Y-130514535D01*
X314647158Y-130514535D01*
X314647159Y-130514536D01*
X314793238Y-130575044D01*
X314910639Y-130590500D01*
X315189360Y-130590499D01*
X315189363Y-130590499D01*
X315306753Y-130575046D01*
X315306757Y-130575044D01*
X315306762Y-130575044D01*
X315452841Y-130514536D01*
X315578282Y-130418282D01*
X315674536Y-130292841D01*
X315735044Y-130146762D01*
X315750500Y-130029361D01*
X315750499Y-129690640D01*
X315750499Y-129690636D01*
X315735045Y-129573244D01*
X315735044Y-129573242D01*
X315735044Y-129573238D01*
X315735042Y-129573233D01*
X315734738Y-129572096D01*
X315734737Y-129570906D01*
X315733984Y-129565179D01*
X315734737Y-129565079D01*
X315734737Y-129514919D01*
X315733983Y-129514820D01*
X315734737Y-129509092D01*
X315734737Y-129507905D01*
X315735040Y-129506771D01*
X315735044Y-129506762D01*
X315750500Y-129389361D01*
X315750499Y-129050640D01*
X315750499Y-129050636D01*
X315735046Y-128933246D01*
X315735044Y-128933241D01*
X315735044Y-128933238D01*
X315674536Y-128787159D01*
X315578282Y-128661718D01*
X315452841Y-128565464D01*
X315447329Y-128563181D01*
X315410054Y-128547741D01*
X315306762Y-128504956D01*
X315293120Y-128503160D01*
X315207339Y-128491866D01*
X315192690Y-128485834D01*
X315179307Y-128484775D01*
X315160476Y-128472571D01*
X315148460Y-128467624D01*
X315141777Y-128462541D01*
X315068716Y-128389480D01*
X314980038Y-128338282D01*
X314931785Y-128310423D01*
X314779057Y-128269499D01*
X314620943Y-128269499D01*
X314613347Y-128269499D01*
X314613331Y-128269500D01*
X313714508Y-128269500D01*
X313667058Y-128260062D01*
X313664475Y-128258992D01*
X313664470Y-128258990D01*
X313554401Y-128244500D01*
X313105596Y-128244500D01*
X312995536Y-128258988D01*
X312995527Y-128258991D01*
X312858574Y-128315719D01*
X312858571Y-128315720D01*
X312858571Y-128315721D01*
X312740964Y-128405964D01*
X312669215Y-128499470D01*
X312650719Y-128523574D01*
X312593991Y-128660527D01*
X312593990Y-128660529D01*
X312579500Y-128770598D01*
X312579500Y-128969403D01*
X312593988Y-129079463D01*
X312593991Y-129079472D01*
X312650719Y-129216426D01*
X312650721Y-129216429D01*
X312710637Y-129294514D01*
X312718859Y-129315782D01*
X312731207Y-129334958D01*
X312731218Y-129347751D01*
X312735831Y-129359683D01*
X312731248Y-129382022D01*
X312731269Y-129404828D01*
X312723384Y-129420366D01*
X312721792Y-129428128D01*
X312716637Y-129436946D01*
X312713817Y-129441342D01*
X312650721Y-129523571D01*
X312631839Y-129569154D01*
X312625880Y-129578446D01*
X312607496Y-129594404D01*
X312592224Y-129613356D01*
X312581585Y-129616896D01*
X312573117Y-129624248D01*
X312549025Y-129627734D01*
X312525930Y-129635421D01*
X312521504Y-129635500D01*
X312300027Y-129635500D01*
X312232988Y-129615815D01*
X312187233Y-129563011D01*
X312177088Y-129495315D01*
X312180500Y-129469401D01*
X312180499Y-129270600D01*
X312180385Y-129269737D01*
X312173367Y-129216426D01*
X312166009Y-129160528D01*
X312166008Y-129160525D01*
X312163905Y-129152674D01*
X312167207Y-129151789D01*
X312161392Y-129098075D01*
X312164501Y-129087485D01*
X312163905Y-129087326D01*
X312166008Y-129079475D01*
X312166008Y-129079474D01*
X312166009Y-129079472D01*
X312180500Y-128969401D01*
X312180499Y-128770600D01*
X312180499Y-128770598D01*
X312180499Y-128770596D01*
X312166011Y-128660536D01*
X312166009Y-128660529D01*
X312166009Y-128660528D01*
X312109279Y-128523571D01*
X312019036Y-128405964D01*
X311901429Y-128315721D01*
X311901425Y-128315719D01*
X311764472Y-128258991D01*
X311764470Y-128258990D01*
X311654401Y-128244500D01*
X311205596Y-128244500D01*
X311095536Y-128258988D01*
X311095527Y-128258991D01*
X310958573Y-128315719D01*
X310958570Y-128315721D01*
X310923973Y-128342268D01*
X310858803Y-128367461D01*
X310790358Y-128353422D01*
X310760807Y-128331572D01*
X309357590Y-126928355D01*
X309357588Y-126928352D01*
X309238717Y-126809481D01*
X309238709Y-126809475D01*
X309141907Y-126753587D01*
X309141905Y-126753586D01*
X309101790Y-126730425D01*
X309101789Y-126730424D01*
X309080744Y-126724785D01*
X308949057Y-126689499D01*
X308790943Y-126689499D01*
X308783347Y-126689499D01*
X308783331Y-126689500D01*
X264664500Y-126689500D01*
X264655814Y-126686949D01*
X264646853Y-126688238D01*
X264622812Y-126677259D01*
X264597461Y-126669815D01*
X264591533Y-126662974D01*
X264583297Y-126659213D01*
X264569007Y-126636978D01*
X264551706Y-126617011D01*
X264549418Y-126606496D01*
X264545523Y-126600435D01*
X264540500Y-126565500D01*
X264540500Y-126419060D01*
X264540501Y-126419047D01*
X264540501Y-126250944D01*
X264540501Y-126250943D01*
X264499577Y-126098216D01*
X264465422Y-126039057D01*
X264420524Y-125961290D01*
X264420518Y-125961282D01*
X264308345Y-125849109D01*
X264190960Y-125731725D01*
X264190959Y-125731723D01*
X264061717Y-125602481D01*
X264061716Y-125602480D01*
X263952221Y-125539263D01*
X263952221Y-125539262D01*
X263952218Y-125539262D01*
X263924785Y-125523423D01*
X263772057Y-125482499D01*
X263613943Y-125482499D01*
X263606347Y-125482499D01*
X263606331Y-125482500D01*
X219011995Y-125482500D01*
X218990391Y-125488288D01*
X218990392Y-125488289D01*
X218859268Y-125523423D01*
X218859263Y-125523426D01*
X218722344Y-125602475D01*
X218722336Y-125602481D01*
X216530981Y-127793836D01*
X216530979Y-127793839D01*
X216517650Y-127816927D01*
X216486764Y-127870423D01*
X216472027Y-127895948D01*
X216454204Y-127926819D01*
X216451923Y-127930769D01*
X216410999Y-128083497D01*
X216410999Y-128083499D01*
X216410999Y-128251600D01*
X216411000Y-128251613D01*
X216411000Y-128628000D01*
X216391315Y-128695039D01*
X216338511Y-128740794D01*
X216287000Y-128752000D01*
X165737687Y-128752000D01*
X165670648Y-128732315D01*
X165650006Y-128715681D01*
X163161680Y-126227355D01*
X163161678Y-126227352D01*
X163042807Y-126108481D01*
X163042799Y-126108475D01*
X162922562Y-126039057D01*
X162922559Y-126039056D01*
X162905875Y-126029423D01*
X162753147Y-125988499D01*
X162595033Y-125988499D01*
X162587437Y-125988499D01*
X162587421Y-125988500D01*
X162312580Y-125988500D01*
X162312564Y-125988499D01*
X162304968Y-125988499D01*
X162146853Y-125988499D01*
X162070489Y-126008961D01*
X161994124Y-126029423D01*
X161994119Y-126029426D01*
X161857200Y-126108475D01*
X161857192Y-126108481D01*
X160528479Y-127437194D01*
X160507881Y-127472873D01*
X160491850Y-127500640D01*
X160458390Y-127558593D01*
X160450349Y-127572522D01*
X160449423Y-127574125D01*
X160408499Y-127726853D01*
X160408499Y-127726855D01*
X160408499Y-127894956D01*
X160408500Y-127894969D01*
X160408500Y-128385500D01*
X160388815Y-128452539D01*
X160336011Y-128498294D01*
X160284500Y-128509500D01*
X130256669Y-128509500D01*
X130256653Y-128509499D01*
X130249057Y-128509499D01*
X130090943Y-128509499D01*
X129983587Y-128538265D01*
X129938210Y-128550424D01*
X129938209Y-128550425D01*
X129900345Y-128572287D01*
X129900343Y-128572288D01*
X129801290Y-128629475D01*
X129801282Y-128629481D01*
X127220789Y-131209975D01*
X127159466Y-131243460D01*
X127089774Y-131238476D01*
X127045427Y-131209975D01*
X116467807Y-120632355D01*
X116467805Y-120632352D01*
X116348934Y-120513481D01*
X116348933Y-120513480D01*
X116255436Y-120459500D01*
X116212002Y-120434423D01*
X116059274Y-120393499D01*
X115901160Y-120393499D01*
X115893564Y-120393499D01*
X115893548Y-120393500D01*
X97701723Y-120393500D01*
X97701707Y-120393499D01*
X97694111Y-120393499D01*
X97535997Y-120393499D01*
X97421451Y-120424192D01*
X97383268Y-120434423D01*
X97339835Y-120459500D01*
X97282005Y-120492887D01*
X97266518Y-120497037D01*
X97254942Y-120504477D01*
X97220007Y-120509500D01*
X97199766Y-120509500D01*
X97132727Y-120489815D01*
X97130875Y-120488602D01*
X96999185Y-120400609D01*
X96999172Y-120400602D01*
X96853501Y-120340264D01*
X96853489Y-120340261D01*
X96698845Y-120309500D01*
X96698842Y-120309500D01*
X96541158Y-120309500D01*
X96541155Y-120309500D01*
X96386510Y-120340261D01*
X96386498Y-120340264D01*
X96240827Y-120400602D01*
X96240814Y-120400609D01*
X96109711Y-120488210D01*
X96109707Y-120488213D01*
X95998213Y-120599707D01*
X95998210Y-120599711D01*
X95910609Y-120730814D01*
X95910602Y-120730827D01*
X95850264Y-120876498D01*
X95850261Y-120876510D01*
X95819500Y-121031153D01*
X95819500Y-121188846D01*
X95850261Y-121343489D01*
X95850263Y-121343496D01*
X95865920Y-121381297D01*
X95873388Y-121450766D01*
X95842112Y-121513245D01*
X95782022Y-121548897D01*
X95712197Y-121546402D01*
X95663677Y-121516429D01*
X91068401Y-116921153D01*
X199999500Y-116921153D01*
X199999500Y-117078846D01*
X200030261Y-117233489D01*
X200030264Y-117233501D01*
X200090602Y-117379172D01*
X200090609Y-117379185D01*
X200178210Y-117510288D01*
X200178213Y-117510292D01*
X200289707Y-117621786D01*
X200289711Y-117621789D01*
X200420814Y-117709390D01*
X200420827Y-117709397D01*
X200540801Y-117759091D01*
X200566503Y-117769737D01*
X200721153Y-117800499D01*
X200721156Y-117800500D01*
X200721158Y-117800500D01*
X200878844Y-117800500D01*
X200878845Y-117800499D01*
X201033497Y-117769737D01*
X201179179Y-117709394D01*
X201310289Y-117621789D01*
X201421789Y-117510289D01*
X201509394Y-117379179D01*
X201569737Y-117233497D01*
X201600500Y-117078842D01*
X201600500Y-116921158D01*
X201600500Y-116921155D01*
X201600499Y-116921153D01*
X201569738Y-116766510D01*
X201569737Y-116766503D01*
X201569735Y-116766498D01*
X201509397Y-116620827D01*
X201509390Y-116620814D01*
X201421789Y-116489711D01*
X201421786Y-116489707D01*
X201310292Y-116378213D01*
X201310288Y-116378210D01*
X201179185Y-116290609D01*
X201179172Y-116290602D01*
X201033501Y-116230264D01*
X201033489Y-116230261D01*
X200878845Y-116199500D01*
X200878842Y-116199500D01*
X200721158Y-116199500D01*
X200721155Y-116199500D01*
X200566510Y-116230261D01*
X200566498Y-116230264D01*
X200420827Y-116290602D01*
X200420814Y-116290609D01*
X200289711Y-116378210D01*
X200289707Y-116378213D01*
X200178213Y-116489707D01*
X200178210Y-116489711D01*
X200090609Y-116620814D01*
X200090602Y-116620827D01*
X200030264Y-116766498D01*
X200030261Y-116766510D01*
X199999500Y-116921153D01*
X91068401Y-116921153D01*
X76006289Y-101859041D01*
X363849500Y-101859041D01*
X363849500Y-102140958D01*
X363886295Y-102420439D01*
X363959259Y-102692743D01*
X364067135Y-102953179D01*
X364067140Y-102953190D01*
X364208083Y-103197309D01*
X364208088Y-103197317D01*
X364379700Y-103420965D01*
X364379704Y-103420970D01*
X364579029Y-103620295D01*
X364579033Y-103620298D01*
X364579035Y-103620300D01*
X364802683Y-103791912D01*
X364802690Y-103791916D01*
X365046809Y-103932859D01*
X365046814Y-103932861D01*
X365046817Y-103932863D01*
X365307261Y-104040742D01*
X365579558Y-104113704D01*
X365859049Y-104150500D01*
X365859056Y-104150500D01*
X366140944Y-104150500D01*
X366140951Y-104150500D01*
X366420442Y-104113704D01*
X366692739Y-104040742D01*
X366953183Y-103932863D01*
X367197317Y-103791912D01*
X367420965Y-103620300D01*
X367620300Y-103420965D01*
X367791912Y-103197317D01*
X367932863Y-102953183D01*
X368040742Y-102692739D01*
X368113704Y-102420442D01*
X368150500Y-102140951D01*
X368150500Y-101859049D01*
X368113704Y-101579558D01*
X368040742Y-101307261D01*
X367932863Y-101046817D01*
X367932861Y-101046814D01*
X367932859Y-101046809D01*
X367791916Y-100802690D01*
X367791912Y-100802683D01*
X367620300Y-100579035D01*
X367620298Y-100579033D01*
X367620295Y-100579029D01*
X367420970Y-100379704D01*
X367420965Y-100379700D01*
X367197317Y-100208088D01*
X367197311Y-100208084D01*
X367197309Y-100208083D01*
X366953190Y-100067140D01*
X366953179Y-100067135D01*
X366692743Y-99959259D01*
X366420439Y-99886295D01*
X366140958Y-99849500D01*
X366140951Y-99849500D01*
X365859049Y-99849500D01*
X365859041Y-99849500D01*
X365579560Y-99886295D01*
X365307256Y-99959259D01*
X365046820Y-100067135D01*
X365046809Y-100067140D01*
X364802690Y-100208083D01*
X364802682Y-100208089D01*
X364579029Y-100379704D01*
X364379704Y-100579029D01*
X364208089Y-100802682D01*
X364208083Y-100802690D01*
X364067140Y-101046809D01*
X364067135Y-101046820D01*
X363959259Y-101307256D01*
X363886295Y-101579560D01*
X363849500Y-101859041D01*
X76006289Y-101859041D01*
X73708579Y-99561331D01*
X73675094Y-99500008D01*
X73674643Y-99497841D01*
X73643744Y-99342504D01*
X73643743Y-99342497D01*
X73643741Y-99342492D01*
X73583403Y-99196821D01*
X73583396Y-99196808D01*
X73495795Y-99065705D01*
X73495792Y-99065701D01*
X73384298Y-98954207D01*
X73384294Y-98954204D01*
X73253191Y-98866603D01*
X73253178Y-98866596D01*
X73107507Y-98806258D01*
X73107495Y-98806255D01*
X72952851Y-98775494D01*
X72952848Y-98775494D01*
X72795164Y-98775494D01*
X72795161Y-98775494D01*
X72640516Y-98806255D01*
X72640504Y-98806258D01*
X72494833Y-98866596D01*
X72494820Y-98866603D01*
X72363717Y-98954204D01*
X72363713Y-98954207D01*
X72252219Y-99065701D01*
X72252216Y-99065705D01*
X72164615Y-99196808D01*
X72164608Y-99196821D01*
X72104270Y-99342492D01*
X72104267Y-99342504D01*
X72073506Y-99497147D01*
X72073506Y-99654840D01*
X72104267Y-99809483D01*
X72104270Y-99809495D01*
X72164608Y-99955166D01*
X72164615Y-99955179D01*
X72252216Y-100086282D01*
X72252219Y-100086286D01*
X72363713Y-100197780D01*
X72363717Y-100197783D01*
X72494820Y-100285384D01*
X72494833Y-100285391D01*
X72640504Y-100345729D01*
X72640509Y-100345731D01*
X72705153Y-100358589D01*
X72795855Y-100376632D01*
X72857766Y-100409017D01*
X72859345Y-100410568D01*
X91556595Y-119107819D01*
X91590080Y-119169142D01*
X91585096Y-119238834D01*
X91543224Y-119294767D01*
X91477760Y-119319184D01*
X91468914Y-119319500D01*
X86890940Y-119319500D01*
X86850019Y-119330464D01*
X86850019Y-119330465D01*
X86812751Y-119340451D01*
X86738214Y-119360423D01*
X86738209Y-119360426D01*
X86601290Y-119439475D01*
X86601282Y-119439481D01*
X86489478Y-119551286D01*
X84091584Y-121949181D01*
X84030261Y-121982666D01*
X84003903Y-121985500D01*
X72234500Y-121985500D01*
X72167461Y-121965815D01*
X72121706Y-121913011D01*
X72110500Y-121861500D01*
X72110499Y-121027129D01*
X72110498Y-121027123D01*
X72110497Y-121027116D01*
X72104091Y-120967517D01*
X72053796Y-120832669D01*
X72053795Y-120832668D01*
X72053793Y-120832664D01*
X71967547Y-120717455D01*
X71967544Y-120717452D01*
X71852335Y-120631206D01*
X71852328Y-120631202D01*
X71717482Y-120580908D01*
X71717483Y-120580908D01*
X71657883Y-120574501D01*
X71657881Y-120574500D01*
X71657873Y-120574500D01*
X71657864Y-120574500D01*
X67882129Y-120574500D01*
X67882123Y-120574501D01*
X67822516Y-120580908D01*
X67687671Y-120631202D01*
X67687664Y-120631206D01*
X67572455Y-120717452D01*
X67572452Y-120717455D01*
X67486206Y-120832664D01*
X67486202Y-120832671D01*
X67435908Y-120967517D01*
X67429501Y-121027116D01*
X67429500Y-121027127D01*
X67429500Y-121489179D01*
X67429501Y-121861500D01*
X67426950Y-121870186D01*
X67428239Y-121879147D01*
X67417261Y-121903183D01*
X67409817Y-121928539D01*
X67402974Y-121934467D01*
X67399214Y-121942703D01*
X67376982Y-121956989D01*
X67357013Y-121974294D01*
X67346497Y-121976581D01*
X67340436Y-121980477D01*
X67305501Y-121985500D01*
X67284500Y-121985500D01*
X67217461Y-121965815D01*
X67171706Y-121913011D01*
X67160500Y-121861500D01*
X67160499Y-121027129D01*
X67160498Y-121027123D01*
X67160497Y-121027116D01*
X67154091Y-120967517D01*
X67103796Y-120832669D01*
X67103795Y-120832668D01*
X67103793Y-120832664D01*
X67017547Y-120717455D01*
X67017544Y-120717452D01*
X66902335Y-120631206D01*
X66902328Y-120631202D01*
X66767482Y-120580908D01*
X66767483Y-120580908D01*
X66707883Y-120574501D01*
X66707881Y-120574500D01*
X66707873Y-120574500D01*
X66707864Y-120574500D01*
X62932129Y-120574500D01*
X62932123Y-120574501D01*
X62872516Y-120580908D01*
X62737671Y-120631202D01*
X62737664Y-120631206D01*
X62622455Y-120717452D01*
X62622452Y-120717455D01*
X62536206Y-120832664D01*
X62536202Y-120832671D01*
X62485908Y-120967517D01*
X62479501Y-121027116D01*
X62479501Y-121027123D01*
X62479500Y-121027135D01*
X62479500Y-122392870D01*
X62479501Y-122392876D01*
X62485908Y-122452483D01*
X62536202Y-122587328D01*
X62536206Y-122587335D01*
X62622452Y-122702544D01*
X62622455Y-122702547D01*
X62737664Y-122788793D01*
X62737671Y-122788797D01*
X62872517Y-122839091D01*
X62872516Y-122839091D01*
X62879444Y-122839835D01*
X62932127Y-122845500D01*
X65054902Y-122845499D01*
X65084342Y-122854143D01*
X65114329Y-122860667D01*
X65119344Y-122864421D01*
X65121941Y-122865184D01*
X65142583Y-122881818D01*
X65163584Y-122902819D01*
X65197069Y-122964142D01*
X65192085Y-123033834D01*
X65150213Y-123089767D01*
X65084749Y-123114184D01*
X65075903Y-123114500D01*
X62932129Y-123114500D01*
X62932123Y-123114501D01*
X62872516Y-123120908D01*
X62737671Y-123171202D01*
X62737664Y-123171206D01*
X62622455Y-123257452D01*
X62622452Y-123257455D01*
X62536206Y-123372664D01*
X62536202Y-123372671D01*
X62485908Y-123507517D01*
X62479605Y-123566147D01*
X62479501Y-123567123D01*
X62479500Y-123567135D01*
X62479500Y-124932870D01*
X62479501Y-124932876D01*
X62485908Y-124992483D01*
X62536202Y-125127328D01*
X62536206Y-125127335D01*
X62622452Y-125242544D01*
X62622455Y-125242547D01*
X62737664Y-125328793D01*
X62737671Y-125328797D01*
X62872517Y-125379091D01*
X62872516Y-125379091D01*
X62879444Y-125379835D01*
X62932127Y-125385500D01*
X65054902Y-125385499D01*
X65084342Y-125394143D01*
X65114329Y-125400667D01*
X65119344Y-125404421D01*
X65121941Y-125405184D01*
X65142583Y-125421818D01*
X65163584Y-125442819D01*
X65197069Y-125504142D01*
X65192085Y-125573834D01*
X65150213Y-125629767D01*
X65084749Y-125654184D01*
X65075903Y-125654500D01*
X62932129Y-125654500D01*
X62932123Y-125654501D01*
X62872516Y-125660908D01*
X62737671Y-125711202D01*
X62737664Y-125711206D01*
X62622455Y-125797452D01*
X62622452Y-125797455D01*
X62536206Y-125912664D01*
X62536202Y-125912671D01*
X62485908Y-126047517D01*
X62483346Y-126071353D01*
X62479501Y-126107123D01*
X62479500Y-126107135D01*
X62479500Y-126345770D01*
X62459815Y-126412809D01*
X62407011Y-126458564D01*
X62337853Y-126468508D01*
X62274297Y-126439483D01*
X62267819Y-126433451D01*
X60966819Y-125132451D01*
X60933334Y-125071128D01*
X60930500Y-125044770D01*
X60930500Y-118487135D01*
X62479500Y-118487135D01*
X62479500Y-119852870D01*
X62479501Y-119852876D01*
X62485908Y-119912483D01*
X62536202Y-120047328D01*
X62536206Y-120047335D01*
X62622452Y-120162544D01*
X62622455Y-120162547D01*
X62737664Y-120248793D01*
X62737671Y-120248797D01*
X62872517Y-120299091D01*
X62872516Y-120299091D01*
X62879444Y-120299835D01*
X62932127Y-120305500D01*
X66707872Y-120305499D01*
X66767483Y-120299091D01*
X66902331Y-120248796D01*
X67017546Y-120162546D01*
X67103796Y-120047331D01*
X67154091Y-119912483D01*
X67160500Y-119852873D01*
X67160499Y-118487135D01*
X67429500Y-118487135D01*
X67429500Y-119852870D01*
X67429501Y-119852876D01*
X67435908Y-119912483D01*
X67486202Y-120047328D01*
X67486206Y-120047335D01*
X67572452Y-120162544D01*
X67572455Y-120162547D01*
X67687664Y-120248793D01*
X67687671Y-120248797D01*
X67822517Y-120299091D01*
X67822516Y-120299091D01*
X67829444Y-120299835D01*
X67882127Y-120305500D01*
X71657872Y-120305499D01*
X71717483Y-120299091D01*
X71852331Y-120248796D01*
X71967546Y-120162546D01*
X72053796Y-120047331D01*
X72104091Y-119912483D01*
X72110500Y-119852873D01*
X72110499Y-118487128D01*
X72104091Y-118427517D01*
X72053796Y-118292669D01*
X72053795Y-118292668D01*
X72053793Y-118292664D01*
X71967547Y-118177455D01*
X71967544Y-118177452D01*
X71852335Y-118091206D01*
X71852328Y-118091202D01*
X71717482Y-118040908D01*
X71717483Y-118040908D01*
X71657883Y-118034501D01*
X71657881Y-118034500D01*
X71657873Y-118034500D01*
X71657864Y-118034500D01*
X67882129Y-118034500D01*
X67882123Y-118034501D01*
X67822516Y-118040908D01*
X67687671Y-118091202D01*
X67687664Y-118091206D01*
X67572455Y-118177452D01*
X67572452Y-118177455D01*
X67486206Y-118292664D01*
X67486202Y-118292671D01*
X67435908Y-118427517D01*
X67429501Y-118487116D01*
X67429501Y-118487123D01*
X67429500Y-118487135D01*
X67160499Y-118487135D01*
X67160499Y-118487128D01*
X67154091Y-118427517D01*
X67103796Y-118292669D01*
X67103795Y-118292668D01*
X67103793Y-118292664D01*
X67017547Y-118177455D01*
X67017544Y-118177452D01*
X66902335Y-118091206D01*
X66902328Y-118091202D01*
X66767482Y-118040908D01*
X66767483Y-118040908D01*
X66707883Y-118034501D01*
X66707881Y-118034500D01*
X66707873Y-118034500D01*
X66707864Y-118034500D01*
X62932129Y-118034500D01*
X62932123Y-118034501D01*
X62872516Y-118040908D01*
X62737671Y-118091202D01*
X62737664Y-118091206D01*
X62622455Y-118177452D01*
X62622452Y-118177455D01*
X62536206Y-118292664D01*
X62536202Y-118292671D01*
X62485908Y-118427517D01*
X62479501Y-118487116D01*
X62479501Y-118487123D01*
X62479500Y-118487135D01*
X60930500Y-118487135D01*
X60930500Y-115947135D01*
X67429500Y-115947135D01*
X67429500Y-117312870D01*
X67429501Y-117312876D01*
X67435908Y-117372483D01*
X67486202Y-117507328D01*
X67486206Y-117507335D01*
X67572452Y-117622544D01*
X67572455Y-117622547D01*
X67687664Y-117708793D01*
X67687671Y-117708797D01*
X67822517Y-117759091D01*
X67822516Y-117759091D01*
X67829444Y-117759835D01*
X67882127Y-117765500D01*
X71657872Y-117765499D01*
X71717483Y-117759091D01*
X71852331Y-117708796D01*
X71967546Y-117622546D01*
X72053796Y-117507331D01*
X72104091Y-117372483D01*
X72110500Y-117312873D01*
X72110499Y-115947128D01*
X72104091Y-115887517D01*
X72053796Y-115752669D01*
X72053795Y-115752668D01*
X72053793Y-115752664D01*
X71967547Y-115637455D01*
X71967544Y-115637452D01*
X71852335Y-115551206D01*
X71852328Y-115551202D01*
X71717482Y-115500908D01*
X71717483Y-115500908D01*
X71657883Y-115494501D01*
X71657881Y-115494500D01*
X71657873Y-115494500D01*
X71657864Y-115494500D01*
X67882129Y-115494500D01*
X67882123Y-115494501D01*
X67822516Y-115500908D01*
X67687671Y-115551202D01*
X67687664Y-115551206D01*
X67572455Y-115637452D01*
X67572452Y-115637455D01*
X67486206Y-115752664D01*
X67486202Y-115752671D01*
X67435908Y-115887517D01*
X67429501Y-115947116D01*
X67429501Y-115947123D01*
X67429500Y-115947135D01*
X60930500Y-115947135D01*
X60930500Y-105195007D01*
X60950185Y-105127968D01*
X60966819Y-105107326D01*
X68157326Y-97916819D01*
X68218649Y-97883334D01*
X68245007Y-97880500D01*
X71333326Y-97880500D01*
X71357518Y-97882883D01*
X71446080Y-97900500D01*
X71446082Y-97900500D01*
X71593918Y-97900500D01*
X71682481Y-97882883D01*
X71706673Y-97880500D01*
X161793920Y-97880500D01*
X161891462Y-97861096D01*
X161938913Y-97851658D01*
X162075495Y-97795084D01*
X162124729Y-97762186D01*
X162198416Y-97712952D01*
X166745366Y-93166000D01*
X166806687Y-93132517D01*
X166876379Y-93137501D01*
X166932312Y-93179373D01*
X166955518Y-93234285D01*
X166982753Y-93406239D01*
X167048444Y-93608414D01*
X167144951Y-93797820D01*
X167269890Y-93969786D01*
X167420213Y-94120109D01*
X167592179Y-94245048D01*
X167592181Y-94245049D01*
X167592184Y-94245051D01*
X167781588Y-94341557D01*
X167983757Y-94407246D01*
X168193713Y-94440500D01*
X168193714Y-94440500D01*
X168406286Y-94440500D01*
X168406287Y-94440500D01*
X168616243Y-94407246D01*
X168818412Y-94341557D01*
X169007816Y-94245051D01*
X169029789Y-94229086D01*
X169179786Y-94120109D01*
X169179788Y-94120106D01*
X169179792Y-94120104D01*
X169330104Y-93969792D01*
X169330106Y-93969788D01*
X169330109Y-93969786D01*
X169455048Y-93797820D01*
X169455047Y-93797820D01*
X169455051Y-93797816D01*
X169551557Y-93608412D01*
X169617246Y-93406243D01*
X169650500Y-93196287D01*
X169650500Y-92983713D01*
X169635382Y-92888268D01*
X169644336Y-92818979D01*
X169670169Y-92781197D01*
X170123952Y-92327416D01*
X170175478Y-92250300D01*
X170206084Y-92204495D01*
X170262658Y-92067913D01*
X170291500Y-91922918D01*
X170291500Y-90489041D01*
X274099500Y-90489041D01*
X274099500Y-90770958D01*
X274136295Y-91050439D01*
X274209259Y-91322743D01*
X274317135Y-91583179D01*
X274317140Y-91583190D01*
X274458083Y-91827309D01*
X274458088Y-91827317D01*
X274629700Y-92050965D01*
X274629704Y-92050970D01*
X274829029Y-92250295D01*
X274829033Y-92250298D01*
X274829035Y-92250300D01*
X275052683Y-92421912D01*
X275052690Y-92421916D01*
X275296809Y-92562859D01*
X275296814Y-92562861D01*
X275296817Y-92562863D01*
X275557261Y-92670742D01*
X275829558Y-92743704D01*
X276109049Y-92780500D01*
X276109056Y-92780500D01*
X276390944Y-92780500D01*
X276390951Y-92780500D01*
X276670442Y-92743704D01*
X276942739Y-92670742D01*
X277203183Y-92562863D01*
X277447317Y-92421912D01*
X277670965Y-92250300D01*
X277870300Y-92050965D01*
X278041912Y-91827317D01*
X278182863Y-91583183D01*
X278290742Y-91322739D01*
X278363704Y-91050442D01*
X278400500Y-90770951D01*
X278400500Y-90489049D01*
X278363704Y-90209558D01*
X278290742Y-89937261D01*
X278182863Y-89676817D01*
X278182861Y-89676814D01*
X278182859Y-89676809D01*
X278041916Y-89432690D01*
X278041912Y-89432683D01*
X277870300Y-89209035D01*
X277870298Y-89209033D01*
X277870295Y-89209029D01*
X277670970Y-89009704D01*
X277597738Y-88953511D01*
X277447317Y-88838088D01*
X277447311Y-88838084D01*
X277447309Y-88838083D01*
X277203190Y-88697140D01*
X277203179Y-88697135D01*
X276942743Y-88589259D01*
X276670439Y-88516295D01*
X276390958Y-88479500D01*
X276390951Y-88479500D01*
X276109049Y-88479500D01*
X276109041Y-88479500D01*
X275829560Y-88516295D01*
X275557256Y-88589259D01*
X275296820Y-88697135D01*
X275296809Y-88697140D01*
X275052690Y-88838083D01*
X275052682Y-88838089D01*
X274829029Y-89009704D01*
X274629704Y-89209029D01*
X274458089Y-89432682D01*
X274458083Y-89432690D01*
X274317140Y-89676809D01*
X274317135Y-89676820D01*
X274209259Y-89937256D01*
X274136295Y-90209560D01*
X274099500Y-90489041D01*
X170291500Y-90489041D01*
X170291500Y-89235082D01*
X170291500Y-89235079D01*
X170262659Y-89090092D01*
X170262658Y-89090091D01*
X170262658Y-89090087D01*
X170262656Y-89090082D01*
X170206087Y-88953511D01*
X170206080Y-88953498D01*
X170123951Y-88830584D01*
X170123948Y-88830580D01*
X170019419Y-88726051D01*
X170019415Y-88726048D01*
X169896501Y-88643919D01*
X169896488Y-88643912D01*
X169759917Y-88587343D01*
X169759907Y-88587340D01*
X169614920Y-88558500D01*
X169614918Y-88558500D01*
X166985082Y-88558500D01*
X166985080Y-88558500D01*
X166840092Y-88587340D01*
X166840082Y-88587343D01*
X166703511Y-88643912D01*
X166703498Y-88643919D01*
X166580584Y-88726048D01*
X166580580Y-88726051D01*
X162725184Y-92581448D01*
X162663861Y-92614933D01*
X162637503Y-92617767D01*
X134657366Y-92617767D01*
X134590327Y-92598082D01*
X134544572Y-92545278D01*
X134534628Y-92476120D01*
X134563653Y-92412564D01*
X134581876Y-92395393D01*
X134770965Y-92250300D01*
X134970300Y-92050965D01*
X135141912Y-91827317D01*
X135282863Y-91583183D01*
X135390742Y-91322739D01*
X135463704Y-91050442D01*
X135500500Y-90770951D01*
X135500500Y-90489049D01*
X135463704Y-90209558D01*
X135390742Y-89937261D01*
X135282863Y-89676817D01*
X135282861Y-89676814D01*
X135282859Y-89676809D01*
X135141916Y-89432690D01*
X135141912Y-89432683D01*
X134970300Y-89209035D01*
X134970298Y-89209033D01*
X134970295Y-89209029D01*
X134770970Y-89009704D01*
X134697738Y-88953511D01*
X134547317Y-88838088D01*
X134547311Y-88838084D01*
X134547309Y-88838083D01*
X134303190Y-88697140D01*
X134303179Y-88697135D01*
X134042743Y-88589259D01*
X133770439Y-88516295D01*
X133490958Y-88479500D01*
X133490951Y-88479500D01*
X133209049Y-88479500D01*
X133209041Y-88479500D01*
X132929560Y-88516295D01*
X132657256Y-88589259D01*
X132396820Y-88697135D01*
X132396809Y-88697140D01*
X132152690Y-88838083D01*
X132152682Y-88838089D01*
X131929029Y-89009704D01*
X131729704Y-89209029D01*
X131558089Y-89432682D01*
X131558083Y-89432690D01*
X131417140Y-89676809D01*
X131417135Y-89676820D01*
X131309259Y-89937256D01*
X131236295Y-90209560D01*
X131199500Y-90489041D01*
X131199500Y-90770958D01*
X131236295Y-91050439D01*
X131309259Y-91322743D01*
X131417135Y-91583179D01*
X131417140Y-91583190D01*
X131558083Y-91827309D01*
X131558088Y-91827317D01*
X131729700Y-92050965D01*
X131729704Y-92050970D01*
X131929029Y-92250295D01*
X131929033Y-92250298D01*
X131929035Y-92250300D01*
X132118121Y-92395392D01*
X132159323Y-92451819D01*
X132163478Y-92521565D01*
X132129266Y-92582486D01*
X132067548Y-92615238D01*
X132042634Y-92617767D01*
X66867809Y-92617767D01*
X66838975Y-92623501D01*
X66838976Y-92623502D01*
X66722826Y-92646606D01*
X66722816Y-92646609D01*
X66642814Y-92679746D01*
X66642815Y-92679747D01*
X66586237Y-92703183D01*
X66586235Y-92703184D01*
X66539359Y-92734506D01*
X66539358Y-92734507D01*
X66463322Y-92785310D01*
X66463317Y-92785314D01*
X57667050Y-101581580D01*
X57667044Y-101581588D01*
X57617812Y-101655268D01*
X57617813Y-101655269D01*
X57584921Y-101704496D01*
X57584914Y-101704508D01*
X57528342Y-101841086D01*
X57528340Y-101841092D01*
X57499500Y-101986079D01*
X57499500Y-101986082D01*
X57499500Y-129118918D01*
X57499500Y-129118920D01*
X57499499Y-129118920D01*
X49000500Y-129118920D01*
X49000500Y-101859041D01*
X49349500Y-101859041D01*
X49349500Y-102140958D01*
X49386295Y-102420439D01*
X49459259Y-102692743D01*
X49567135Y-102953179D01*
X49567140Y-102953190D01*
X49708083Y-103197309D01*
X49708088Y-103197317D01*
X49879700Y-103420965D01*
X49879704Y-103420970D01*
X50079029Y-103620295D01*
X50079033Y-103620298D01*
X50079035Y-103620300D01*
X50302683Y-103791912D01*
X50302690Y-103791916D01*
X50546809Y-103932859D01*
X50546814Y-103932861D01*
X50546817Y-103932863D01*
X50807261Y-104040742D01*
X51079558Y-104113704D01*
X51359049Y-104150500D01*
X51359056Y-104150500D01*
X51640944Y-104150500D01*
X51640951Y-104150500D01*
X51920442Y-104113704D01*
X52192739Y-104040742D01*
X52453183Y-103932863D01*
X52697317Y-103791912D01*
X52920965Y-103620300D01*
X53120300Y-103420965D01*
X53291912Y-103197317D01*
X53432863Y-102953183D01*
X53540742Y-102692739D01*
X53613704Y-102420442D01*
X53650500Y-102140951D01*
X53650500Y-101859049D01*
X53613704Y-101579558D01*
X53540742Y-101307261D01*
X53432863Y-101046817D01*
X53432861Y-101046814D01*
X53432859Y-101046809D01*
X53291916Y-100802690D01*
X53291912Y-100802683D01*
X53120300Y-100579035D01*
X53120298Y-100579033D01*
X53120295Y-100579029D01*
X52920970Y-100379704D01*
X52920965Y-100379700D01*
X52697317Y-100208088D01*
X52697311Y-100208084D01*
X52697309Y-100208083D01*
X52453190Y-100067140D01*
X52453179Y-100067135D01*
X52192743Y-99959259D01*
X51920439Y-99886295D01*
X51640958Y-99849500D01*
X51640951Y-99849500D01*
X51359049Y-99849500D01*
X51359041Y-99849500D01*
X51079560Y-99886295D01*
X50807256Y-99959259D01*
X50546820Y-100067135D01*
X50546809Y-100067140D01*
X50302690Y-100208083D01*
X50302682Y-100208089D01*
X50079029Y-100379704D01*
X49879704Y-100579029D01*
X49708089Y-100802682D01*
X49708083Y-100802690D01*
X49567140Y-101046809D01*
X49567135Y-101046820D01*
X49459259Y-101307256D01*
X49386295Y-101579560D01*
X49349500Y-101859041D01*
X49000500Y-101859041D01*
X49000500Y-88124500D01*
X49020185Y-88057461D01*
X49072989Y-88011706D01*
X49124500Y-88000500D01*
X368375500Y-88000500D01*
X368442539Y-88020185D01*
G37*
%TD.AperFunction*%
%TD*%
M02*
