%TF.GenerationSoftware,KiCad,Pcbnew,9.0.7*%
%TF.CreationDate,2026-03-02T21:05:06-07:00*%
%TF.ProjectId,Solar Board 2.0,536f6c61-7220-4426-9f61-726420322e30,rev?*%
%TF.SameCoordinates,Original*%
%TF.FileFunction,Soldermask,Bot*%
%TF.FilePolarity,Negative*%
%FSLAX46Y46*%
G04 Gerber Fmt 4.6, Leading zero omitted, Abs format (unit mm)*
G04 Created by KiCad (PCBNEW 9.0.7) date 2026-03-02 21:05:06*
%MOMM*%
%LPD*%
G01*
G04 APERTURE LIST*
G04 Aperture macros list*
%AMRoundRect*
0 Rectangle with rounded corners*
0 $1 Rounding radius*
0 $2 $3 $4 $5 $6 $7 $8 $9 X,Y pos of 4 corners*
0 Add a 4 corners polygon primitive as box body*
4,1,4,$2,$3,$4,$5,$6,$7,$8,$9,$2,$3,0*
0 Add four circle primitives for the rounded corners*
1,1,$1+$1,$2,$3*
1,1,$1+$1,$4,$5*
1,1,$1+$1,$6,$7*
1,1,$1+$1,$8,$9*
0 Add four rect primitives between the rounded corners*
20,1,$1+$1,$2,$3,$4,$5,0*
20,1,$1+$1,$4,$5,$6,$7,0*
20,1,$1+$1,$6,$7,$8,$9,0*
20,1,$1+$1,$8,$9,$2,$3,0*%
G04 Aperture macros list end*
%ADD10RoundRect,0.059250X-0.177750X0.462750X-0.177750X-0.462750X0.177750X-0.462750X0.177750X0.462750X0*%
%ADD11RoundRect,0.059250X-0.177750X0.472750X-0.177750X-0.472750X0.177750X-0.472750X0.177750X0.472750X0*%
%ADD12RoundRect,0.059250X-0.462750X0.177750X-0.462750X-0.177750X0.462750X-0.177750X0.462750X0.177750X0*%
%ADD13RoundRect,0.059250X-0.472750X0.177750X-0.472750X-0.177750X0.472750X-0.177750X0.472750X0.177750X0*%
%ADD14RoundRect,0.102000X-1.790000X1.290000X-1.790000X-1.290000X1.790000X-1.290000X1.790000X1.290000X0*%
%ADD15R,1.700000X1.700000*%
%ADD16C,1.700000*%
%ADD17RoundRect,0.100000X0.100000X-0.130000X0.100000X0.130000X-0.100000X0.130000X-0.100000X-0.130000X0*%
%ADD18RoundRect,0.100000X-0.100000X0.130000X-0.100000X-0.130000X0.100000X-0.130000X0.100000X0.130000X0*%
%ADD19RoundRect,0.062500X0.187500X0.062500X-0.187500X0.062500X-0.187500X-0.062500X0.187500X-0.062500X0*%
%ADD20R,0.900000X1.600000*%
%ADD21RoundRect,0.075000X0.650000X0.075000X-0.650000X0.075000X-0.650000X-0.075000X0.650000X-0.075000X0*%
%ADD22RoundRect,0.100000X0.130000X0.100000X-0.130000X0.100000X-0.130000X-0.100000X0.130000X-0.100000X0*%
%ADD23RoundRect,0.062500X-0.187500X-0.062500X0.187500X-0.062500X0.187500X0.062500X-0.187500X0.062500X0*%
%ADD24RoundRect,0.225000X-0.250000X0.225000X-0.250000X-0.225000X0.250000X-0.225000X0.250000X0.225000X0*%
%ADD25RoundRect,0.250000X0.475000X-0.250000X0.475000X0.250000X-0.475000X0.250000X-0.475000X-0.250000X0*%
%ADD26RoundRect,0.102000X-1.840000X0.635000X-1.840000X-0.635000X1.840000X-0.635000X1.840000X0.635000X0*%
%ADD27RoundRect,0.250000X0.362500X1.425000X-0.362500X1.425000X-0.362500X-1.425000X0.362500X-1.425000X0*%
%ADD28RoundRect,0.218750X0.256250X-0.218750X0.256250X0.218750X-0.256250X0.218750X-0.256250X-0.218750X0*%
%ADD29RoundRect,0.225000X0.225000X0.250000X-0.225000X0.250000X-0.225000X-0.250000X0.225000X-0.250000X0*%
%ADD30RoundRect,0.140000X0.170000X-0.140000X0.170000X0.140000X-0.170000X0.140000X-0.170000X-0.140000X0*%
%ADD31RoundRect,0.100000X-0.130000X-0.100000X0.130000X-0.100000X0.130000X0.100000X-0.130000X0.100000X0*%
G04 APERTURE END LIST*
D10*
%TO.C,U50*%
X88715000Y-125255000D03*
D11*
X89215000Y-125255000D03*
X89715000Y-125255000D03*
X90215000Y-125255000D03*
X90715000Y-125255000D03*
X91215000Y-125255000D03*
X91715000Y-125255000D03*
D10*
X92215000Y-125255000D03*
D12*
X92900000Y-125940000D03*
D13*
X92900000Y-126440000D03*
X92900000Y-126940000D03*
X92900000Y-127440000D03*
X92900000Y-127940000D03*
D12*
X92900000Y-128440000D03*
D10*
X92215000Y-129125000D03*
D11*
X91715000Y-129125000D03*
X91215000Y-129125000D03*
X90715000Y-129125000D03*
X90215000Y-129125000D03*
X89715000Y-129125000D03*
X89215000Y-129125000D03*
D10*
X88715000Y-129125000D03*
D12*
X88030000Y-128440000D03*
D13*
X88030000Y-127940000D03*
X88030000Y-127440000D03*
X88030000Y-126940000D03*
X88030000Y-126440000D03*
D12*
X88030000Y-125940000D03*
D14*
X90465000Y-127190000D03*
%TD*%
D15*
%TO.C,M1*%
X168300000Y-90550000D03*
D16*
X168300000Y-93090000D03*
%TD*%
D17*
%TO.C,R52*%
X95115000Y-126880000D03*
X95115000Y-126240000D03*
%TD*%
D18*
%TO.C,R16*%
X315050000Y-129220000D03*
X315050000Y-129860000D03*
%TD*%
D19*
%TO.C,U12*%
X263140000Y-126790000D03*
X263140000Y-127290000D03*
X263140000Y-127790000D03*
X263140000Y-128290000D03*
X261240000Y-128290000D03*
X261240000Y-127790000D03*
X261240000Y-127290000D03*
X261240000Y-126790000D03*
D20*
X262190000Y-127540000D03*
%TD*%
D18*
%TO.C,R15*%
X221402500Y-129032500D03*
X221402500Y-129672500D03*
%TD*%
D21*
%TO.C,U5*%
X124790000Y-131460000D03*
X124790000Y-131960000D03*
X124790000Y-132460000D03*
X124790000Y-132960000D03*
X124790000Y-133460000D03*
X120390000Y-133460000D03*
X120390000Y-132960000D03*
X120390000Y-132460000D03*
X120390000Y-131960000D03*
X120390000Y-131460000D03*
%TD*%
D22*
%TO.C,R1*%
X105565000Y-129610000D03*
X104925000Y-129610000D03*
%TD*%
D23*
%TO.C,U7*%
X94090000Y-134590000D03*
X94090000Y-134090000D03*
X94090000Y-133590000D03*
X94090000Y-133090000D03*
X95990000Y-133090000D03*
X95990000Y-133590000D03*
X95990000Y-134090000D03*
X95990000Y-134590000D03*
D20*
X95040000Y-133840000D03*
%TD*%
D18*
%TO.C,R50*%
X94025000Y-124640000D03*
X94025000Y-125280000D03*
%TD*%
D24*
%TO.C,C55*%
X89990000Y-130865000D03*
X89990000Y-132415000D03*
%TD*%
D25*
%TO.C,C56*%
X92310000Y-123250000D03*
X92310000Y-121350000D03*
%TD*%
D26*
%TO.C,J3*%
X62275000Y-139490000D03*
X67225000Y-139490000D03*
X62275000Y-136950000D03*
X67225000Y-136950000D03*
X62275000Y-134410000D03*
X67225000Y-134410000D03*
X62275000Y-131870000D03*
X67225000Y-131870000D03*
X62275000Y-129330000D03*
X67225000Y-129330000D03*
X62275000Y-126790000D03*
X67225000Y-126790000D03*
X62275000Y-124250000D03*
X67225000Y-124250000D03*
X62275000Y-121710000D03*
X67225000Y-121710000D03*
X62275000Y-119170000D03*
X67225000Y-119170000D03*
X62275000Y-116630000D03*
X67225000Y-116630000D03*
%TD*%
D18*
%TO.C,R17*%
X101370000Y-121985000D03*
X101370000Y-122625000D03*
%TD*%
D17*
%TO.C,R18*%
X259950000Y-127670000D03*
X259950000Y-127030000D03*
%TD*%
%TO.C,C52*%
X90025000Y-123935000D03*
X90025000Y-123295000D03*
%TD*%
D18*
%TO.C,C54*%
X96115000Y-126240000D03*
X96115000Y-126880000D03*
%TD*%
D22*
%TO.C,R2*%
X105565000Y-128610000D03*
X104925000Y-128610000D03*
%TD*%
D18*
%TO.C,R54*%
X95025000Y-128820000D03*
X95025000Y-129460000D03*
%TD*%
D23*
%TO.C,U11*%
X97930000Y-122860000D03*
X97930000Y-122360000D03*
X97930000Y-121860000D03*
X97930000Y-121360000D03*
X99830000Y-121360000D03*
X99830000Y-121860000D03*
X99830000Y-122360000D03*
X99830000Y-122860000D03*
D20*
X98880000Y-122110000D03*
%TD*%
D27*
%TO.C,R70*%
X118312500Y-130590000D03*
X112387500Y-130590000D03*
%TD*%
D24*
%TO.C,C16*%
X102190000Y-129550000D03*
X102190000Y-131100000D03*
%TD*%
D17*
%TO.C,R51*%
X96025000Y-125280000D03*
X96025000Y-124640000D03*
%TD*%
D18*
%TO.C,R19*%
X98590000Y-133795000D03*
X98590000Y-134435000D03*
%TD*%
D28*
%TO.C,L50*%
X85410000Y-128387500D03*
X85410000Y-126812500D03*
%TD*%
D17*
%TO.C,C50*%
X86525000Y-129280000D03*
X86525000Y-128640000D03*
%TD*%
D23*
%TO.C,U8*%
X217502500Y-129852500D03*
X217502500Y-129352500D03*
X217502500Y-128852500D03*
X217502500Y-128352500D03*
X219402500Y-128352500D03*
X219402500Y-128852500D03*
X219402500Y-129352500D03*
X219402500Y-129852500D03*
D20*
X218452500Y-129102500D03*
%TD*%
D23*
%TO.C,U9*%
X311430000Y-129870000D03*
X311430000Y-129370000D03*
X311430000Y-128870000D03*
X311430000Y-128370000D03*
X313330000Y-128370000D03*
X313330000Y-128870000D03*
X313330000Y-129370000D03*
X313330000Y-129870000D03*
D20*
X312380000Y-129120000D03*
%TD*%
D23*
%TO.C,U10*%
X161500000Y-129610000D03*
X161500000Y-129110000D03*
X161500000Y-128610000D03*
X161500000Y-128110000D03*
X163400000Y-128110000D03*
X163400000Y-128610000D03*
X163400000Y-129110000D03*
X163400000Y-129610000D03*
D20*
X162450000Y-128860000D03*
%TD*%
D18*
%TO.C,C51*%
X86525000Y-125295000D03*
X86525000Y-125935000D03*
%TD*%
D29*
%TO.C,C2*%
X118565000Y-133430000D03*
X117015000Y-133430000D03*
%TD*%
D30*
%TO.C,C21*%
X106911666Y-129770000D03*
X106911666Y-128810000D03*
%TD*%
D18*
%TO.C,C53*%
X95025000Y-124640000D03*
X95025000Y-125280000D03*
%TD*%
D24*
%TO.C,C1*%
X100190000Y-129550000D03*
X100190000Y-131100000D03*
%TD*%
D31*
%TO.C,R55*%
X91705000Y-130460000D03*
X92345000Y-130460000D03*
%TD*%
M02*
