M48
; DRILL file {KiCad 9.0.7} date 2026-02-18T15:51:52-0700
; FORMAT={-:-/ absolute / metric / decimal}
; #@! TF.CreationDate,2026-02-18T15:51:52-07:00
; #@! TF.GenerationSoftware,Kicad,Pcbnew,9.0.7
; #@! TF.FileFunction,Plated,1,4,PTH
FMAT,2
METRIC
; #@! TA.AperFunction,Plated,PTH,ViaDrill
T1C0.300
; #@! TA.AperFunction,Plated,PTH,ComponentDrill
T2C1.000
%
G90
G05
T1
X64.83Y-141.04
X72.874Y-99.576
X85.57Y-123.126
X88.01Y-123.81
X88.71Y-124.21
X89.53Y-122.54
X89.75Y-130.05
X89.75Y-131.62
X90.76Y-124.51
X91.25Y-130.93
X91.86Y-123.364
X93.385Y-124.741
X94.055Y-126.309
X94.443Y-129.993
X94.927Y-122.393
X95.713Y-127.363
X96.62Y-121.11
X97.331Y-127.52
X98.86Y-123.82
X99.34Y-128.5
X99.376Y-126.359
X100.222Y-125.678
X102.87Y-132.75
X103.25Y-130.19
X107.487Y-131.532
X107.99Y-128.97
X109.48Y-127.629
X109.68Y-131.02
X110.94Y-131.03
X115.21Y-133.43
X122.3Y-129.91
X126.56Y-133.5
X126.86Y-132.42
X162.45Y-127.13
X164.56Y-129.436
X164.97Y-130.62
X200.8Y-117.0
X218.462Y-127.542
X221.53Y-130.92
X222.07Y-129.678
X257.91Y-128.43
X259.3Y-127.01
X262.2Y-129.29
X312.38Y-127.21
T2
X168.3Y-90.55
X168.3Y-93.09
M30
