%TF.GenerationSoftware,KiCad,Pcbnew,9.0.7*%
%TF.CreationDate,2026-03-02T21:05:06-07:00*%
%TF.ProjectId,Solar Board 2.0,536f6c61-7220-4426-9f61-726420322e30,rev?*%
%TF.SameCoordinates,Original*%
%TF.FileFunction,Legend,Top*%
%TF.FilePolarity,Positive*%
%FSLAX46Y46*%
G04 Gerber Fmt 4.6, Leading zero omitted, Abs format (unit mm)*
G04 Created by KiCad (PCBNEW 9.0.7) date 2026-03-02 21:05:06*
%MOMM*%
%LPD*%
G01*
G04 APERTURE LIST*
%ADD10C,0.100000*%
%ADD11C,0.050000*%
%ADD12C,0.120000*%
G04 APERTURE END LIST*
D10*
X158118800Y-129161904D02*
X158166419Y-129019047D01*
X158166419Y-129019047D02*
X158166419Y-128780952D01*
X158166419Y-128780952D02*
X158118800Y-128685714D01*
X158118800Y-128685714D02*
X158071180Y-128638095D01*
X158071180Y-128638095D02*
X157975942Y-128590476D01*
X157975942Y-128590476D02*
X157880704Y-128590476D01*
X157880704Y-128590476D02*
X157785466Y-128638095D01*
X157785466Y-128638095D02*
X157737847Y-128685714D01*
X157737847Y-128685714D02*
X157690228Y-128780952D01*
X157690228Y-128780952D02*
X157642609Y-128971428D01*
X157642609Y-128971428D02*
X157594990Y-129066666D01*
X157594990Y-129066666D02*
X157547371Y-129114285D01*
X157547371Y-129114285D02*
X157452133Y-129161904D01*
X157452133Y-129161904D02*
X157356895Y-129161904D01*
X157356895Y-129161904D02*
X157261657Y-129114285D01*
X157261657Y-129114285D02*
X157214038Y-129066666D01*
X157214038Y-129066666D02*
X157166419Y-128971428D01*
X157166419Y-128971428D02*
X157166419Y-128733333D01*
X157166419Y-128733333D02*
X157214038Y-128590476D01*
X158071180Y-127590476D02*
X158118800Y-127638095D01*
X158118800Y-127638095D02*
X158166419Y-127780952D01*
X158166419Y-127780952D02*
X158166419Y-127876190D01*
X158166419Y-127876190D02*
X158118800Y-128019047D01*
X158118800Y-128019047D02*
X158023561Y-128114285D01*
X158023561Y-128114285D02*
X157928323Y-128161904D01*
X157928323Y-128161904D02*
X157737847Y-128209523D01*
X157737847Y-128209523D02*
X157594990Y-128209523D01*
X157594990Y-128209523D02*
X157404514Y-128161904D01*
X157404514Y-128161904D02*
X157309276Y-128114285D01*
X157309276Y-128114285D02*
X157214038Y-128019047D01*
X157214038Y-128019047D02*
X157166419Y-127876190D01*
X157166419Y-127876190D02*
X157166419Y-127780952D01*
X157166419Y-127780952D02*
X157214038Y-127638095D01*
X157214038Y-127638095D02*
X157261657Y-127590476D01*
X157166419Y-127257142D02*
X157166419Y-126638095D01*
X157166419Y-126638095D02*
X157547371Y-126971428D01*
X157547371Y-126971428D02*
X157547371Y-126828571D01*
X157547371Y-126828571D02*
X157594990Y-126733333D01*
X157594990Y-126733333D02*
X157642609Y-126685714D01*
X157642609Y-126685714D02*
X157737847Y-126638095D01*
X157737847Y-126638095D02*
X157975942Y-126638095D01*
X157975942Y-126638095D02*
X158071180Y-126685714D01*
X158071180Y-126685714D02*
X158118800Y-126733333D01*
X158118800Y-126733333D02*
X158166419Y-126828571D01*
X158166419Y-126828571D02*
X158166419Y-127114285D01*
X158166419Y-127114285D02*
X158118800Y-127209523D01*
X158118800Y-127209523D02*
X158071180Y-127257142D01*
X76159800Y-129161904D02*
X76207419Y-129019047D01*
X76207419Y-129019047D02*
X76207419Y-128780952D01*
X76207419Y-128780952D02*
X76159800Y-128685714D01*
X76159800Y-128685714D02*
X76112180Y-128638095D01*
X76112180Y-128638095D02*
X76016942Y-128590476D01*
X76016942Y-128590476D02*
X75921704Y-128590476D01*
X75921704Y-128590476D02*
X75826466Y-128638095D01*
X75826466Y-128638095D02*
X75778847Y-128685714D01*
X75778847Y-128685714D02*
X75731228Y-128780952D01*
X75731228Y-128780952D02*
X75683609Y-128971428D01*
X75683609Y-128971428D02*
X75635990Y-129066666D01*
X75635990Y-129066666D02*
X75588371Y-129114285D01*
X75588371Y-129114285D02*
X75493133Y-129161904D01*
X75493133Y-129161904D02*
X75397895Y-129161904D01*
X75397895Y-129161904D02*
X75302657Y-129114285D01*
X75302657Y-129114285D02*
X75255038Y-129066666D01*
X75255038Y-129066666D02*
X75207419Y-128971428D01*
X75207419Y-128971428D02*
X75207419Y-128733333D01*
X75207419Y-128733333D02*
X75255038Y-128590476D01*
X76112180Y-127590476D02*
X76159800Y-127638095D01*
X76159800Y-127638095D02*
X76207419Y-127780952D01*
X76207419Y-127780952D02*
X76207419Y-127876190D01*
X76207419Y-127876190D02*
X76159800Y-128019047D01*
X76159800Y-128019047D02*
X76064561Y-128114285D01*
X76064561Y-128114285D02*
X75969323Y-128161904D01*
X75969323Y-128161904D02*
X75778847Y-128209523D01*
X75778847Y-128209523D02*
X75635990Y-128209523D01*
X75635990Y-128209523D02*
X75445514Y-128161904D01*
X75445514Y-128161904D02*
X75350276Y-128114285D01*
X75350276Y-128114285D02*
X75255038Y-128019047D01*
X75255038Y-128019047D02*
X75207419Y-127876190D01*
X75207419Y-127876190D02*
X75207419Y-127780952D01*
X75207419Y-127780952D02*
X75255038Y-127638095D01*
X75255038Y-127638095D02*
X75302657Y-127590476D01*
X75302657Y-127209523D02*
X75255038Y-127161904D01*
X75255038Y-127161904D02*
X75207419Y-127066666D01*
X75207419Y-127066666D02*
X75207419Y-126828571D01*
X75207419Y-126828571D02*
X75255038Y-126733333D01*
X75255038Y-126733333D02*
X75302657Y-126685714D01*
X75302657Y-126685714D02*
X75397895Y-126638095D01*
X75397895Y-126638095D02*
X75493133Y-126638095D01*
X75493133Y-126638095D02*
X75635990Y-126685714D01*
X75635990Y-126685714D02*
X76207419Y-127257142D01*
X76207419Y-127257142D02*
X76207419Y-126638095D01*
X301675800Y-129161904D02*
X301723419Y-129019047D01*
X301723419Y-129019047D02*
X301723419Y-128780952D01*
X301723419Y-128780952D02*
X301675800Y-128685714D01*
X301675800Y-128685714D02*
X301628180Y-128638095D01*
X301628180Y-128638095D02*
X301532942Y-128590476D01*
X301532942Y-128590476D02*
X301437704Y-128590476D01*
X301437704Y-128590476D02*
X301342466Y-128638095D01*
X301342466Y-128638095D02*
X301294847Y-128685714D01*
X301294847Y-128685714D02*
X301247228Y-128780952D01*
X301247228Y-128780952D02*
X301199609Y-128971428D01*
X301199609Y-128971428D02*
X301151990Y-129066666D01*
X301151990Y-129066666D02*
X301104371Y-129114285D01*
X301104371Y-129114285D02*
X301009133Y-129161904D01*
X301009133Y-129161904D02*
X300913895Y-129161904D01*
X300913895Y-129161904D02*
X300818657Y-129114285D01*
X300818657Y-129114285D02*
X300771038Y-129066666D01*
X300771038Y-129066666D02*
X300723419Y-128971428D01*
X300723419Y-128971428D02*
X300723419Y-128733333D01*
X300723419Y-128733333D02*
X300771038Y-128590476D01*
X301628180Y-127590476D02*
X301675800Y-127638095D01*
X301675800Y-127638095D02*
X301723419Y-127780952D01*
X301723419Y-127780952D02*
X301723419Y-127876190D01*
X301723419Y-127876190D02*
X301675800Y-128019047D01*
X301675800Y-128019047D02*
X301580561Y-128114285D01*
X301580561Y-128114285D02*
X301485323Y-128161904D01*
X301485323Y-128161904D02*
X301294847Y-128209523D01*
X301294847Y-128209523D02*
X301151990Y-128209523D01*
X301151990Y-128209523D02*
X300961514Y-128161904D01*
X300961514Y-128161904D02*
X300866276Y-128114285D01*
X300866276Y-128114285D02*
X300771038Y-128019047D01*
X300771038Y-128019047D02*
X300723419Y-127876190D01*
X300723419Y-127876190D02*
X300723419Y-127780952D01*
X300723419Y-127780952D02*
X300771038Y-127638095D01*
X300771038Y-127638095D02*
X300818657Y-127590476D01*
X300723419Y-126733333D02*
X300723419Y-126923809D01*
X300723419Y-126923809D02*
X300771038Y-127019047D01*
X300771038Y-127019047D02*
X300818657Y-127066666D01*
X300818657Y-127066666D02*
X300961514Y-127161904D01*
X300961514Y-127161904D02*
X301151990Y-127209523D01*
X301151990Y-127209523D02*
X301532942Y-127209523D01*
X301532942Y-127209523D02*
X301628180Y-127161904D01*
X301628180Y-127161904D02*
X301675800Y-127114285D01*
X301675800Y-127114285D02*
X301723419Y-127019047D01*
X301723419Y-127019047D02*
X301723419Y-126828571D01*
X301723419Y-126828571D02*
X301675800Y-126733333D01*
X301675800Y-126733333D02*
X301628180Y-126685714D01*
X301628180Y-126685714D02*
X301532942Y-126638095D01*
X301532942Y-126638095D02*
X301294847Y-126638095D01*
X301294847Y-126638095D02*
X301199609Y-126685714D01*
X301199609Y-126685714D02*
X301151990Y-126733333D01*
X301151990Y-126733333D02*
X301104371Y-126828571D01*
X301104371Y-126828571D02*
X301104371Y-127019047D01*
X301104371Y-127019047D02*
X301151990Y-127114285D01*
X301151990Y-127114285D02*
X301199609Y-127161904D01*
X301199609Y-127161904D02*
X301294847Y-127209523D01*
X196272700Y-126625095D02*
X196225080Y-126767952D01*
X196225080Y-126767952D02*
X196225080Y-127006047D01*
X196225080Y-127006047D02*
X196272700Y-127101285D01*
X196272700Y-127101285D02*
X196320319Y-127148904D01*
X196320319Y-127148904D02*
X196415557Y-127196523D01*
X196415557Y-127196523D02*
X196510795Y-127196523D01*
X196510795Y-127196523D02*
X196606033Y-127148904D01*
X196606033Y-127148904D02*
X196653652Y-127101285D01*
X196653652Y-127101285D02*
X196701271Y-127006047D01*
X196701271Y-127006047D02*
X196748890Y-126815571D01*
X196748890Y-126815571D02*
X196796509Y-126720333D01*
X196796509Y-126720333D02*
X196844128Y-126672714D01*
X196844128Y-126672714D02*
X196939366Y-126625095D01*
X196939366Y-126625095D02*
X197034604Y-126625095D01*
X197034604Y-126625095D02*
X197129842Y-126672714D01*
X197129842Y-126672714D02*
X197177461Y-126720333D01*
X197177461Y-126720333D02*
X197225080Y-126815571D01*
X197225080Y-126815571D02*
X197225080Y-127053666D01*
X197225080Y-127053666D02*
X197177461Y-127196523D01*
X196320319Y-128196523D02*
X196272700Y-128148904D01*
X196272700Y-128148904D02*
X196225080Y-128006047D01*
X196225080Y-128006047D02*
X196225080Y-127910809D01*
X196225080Y-127910809D02*
X196272700Y-127767952D01*
X196272700Y-127767952D02*
X196367938Y-127672714D01*
X196367938Y-127672714D02*
X196463176Y-127625095D01*
X196463176Y-127625095D02*
X196653652Y-127577476D01*
X196653652Y-127577476D02*
X196796509Y-127577476D01*
X196796509Y-127577476D02*
X196986985Y-127625095D01*
X196986985Y-127625095D02*
X197082223Y-127672714D01*
X197082223Y-127672714D02*
X197177461Y-127767952D01*
X197177461Y-127767952D02*
X197225080Y-127910809D01*
X197225080Y-127910809D02*
X197225080Y-128006047D01*
X197225080Y-128006047D02*
X197177461Y-128148904D01*
X197177461Y-128148904D02*
X197129842Y-128196523D01*
X196891747Y-129053666D02*
X196225080Y-129053666D01*
X197272700Y-128815571D02*
X196558414Y-128577476D01*
X196558414Y-128577476D02*
X196558414Y-129196523D01*
X257856642Y-126625095D02*
X257809022Y-126767952D01*
X257809022Y-126767952D02*
X257809022Y-127006047D01*
X257809022Y-127006047D02*
X257856642Y-127101285D01*
X257856642Y-127101285D02*
X257904261Y-127148904D01*
X257904261Y-127148904D02*
X257999499Y-127196523D01*
X257999499Y-127196523D02*
X258094737Y-127196523D01*
X258094737Y-127196523D02*
X258189975Y-127148904D01*
X258189975Y-127148904D02*
X258237594Y-127101285D01*
X258237594Y-127101285D02*
X258285213Y-127006047D01*
X258285213Y-127006047D02*
X258332832Y-126815571D01*
X258332832Y-126815571D02*
X258380451Y-126720333D01*
X258380451Y-126720333D02*
X258428070Y-126672714D01*
X258428070Y-126672714D02*
X258523308Y-126625095D01*
X258523308Y-126625095D02*
X258618546Y-126625095D01*
X258618546Y-126625095D02*
X258713784Y-126672714D01*
X258713784Y-126672714D02*
X258761403Y-126720333D01*
X258761403Y-126720333D02*
X258809022Y-126815571D01*
X258809022Y-126815571D02*
X258809022Y-127053666D01*
X258809022Y-127053666D02*
X258761403Y-127196523D01*
X257904261Y-128196523D02*
X257856642Y-128148904D01*
X257856642Y-128148904D02*
X257809022Y-128006047D01*
X257809022Y-128006047D02*
X257809022Y-127910809D01*
X257809022Y-127910809D02*
X257856642Y-127767952D01*
X257856642Y-127767952D02*
X257951880Y-127672714D01*
X257951880Y-127672714D02*
X258047118Y-127625095D01*
X258047118Y-127625095D02*
X258237594Y-127577476D01*
X258237594Y-127577476D02*
X258380451Y-127577476D01*
X258380451Y-127577476D02*
X258570927Y-127625095D01*
X258570927Y-127625095D02*
X258666165Y-127672714D01*
X258666165Y-127672714D02*
X258761403Y-127767952D01*
X258761403Y-127767952D02*
X258809022Y-127910809D01*
X258809022Y-127910809D02*
X258809022Y-128006047D01*
X258809022Y-128006047D02*
X258761403Y-128148904D01*
X258761403Y-128148904D02*
X258713784Y-128196523D01*
X258809022Y-129101285D02*
X258809022Y-128625095D01*
X258809022Y-128625095D02*
X258332832Y-128577476D01*
X258332832Y-128577476D02*
X258380451Y-128625095D01*
X258380451Y-128625095D02*
X258428070Y-128720333D01*
X258428070Y-128720333D02*
X258428070Y-128958428D01*
X258428070Y-128958428D02*
X258380451Y-129053666D01*
X258380451Y-129053666D02*
X258332832Y-129101285D01*
X258332832Y-129101285D02*
X258237594Y-129148904D01*
X258237594Y-129148904D02*
X257999499Y-129148904D01*
X257999499Y-129148904D02*
X257904261Y-129101285D01*
X257904261Y-129101285D02*
X257856642Y-129053666D01*
X257856642Y-129053666D02*
X257809022Y-128958428D01*
X257809022Y-128958428D02*
X257809022Y-128720333D01*
X257809022Y-128720333D02*
X257856642Y-128625095D01*
X257856642Y-128625095D02*
X257904261Y-128577476D01*
X339830200Y-126625095D02*
X339782580Y-126767952D01*
X339782580Y-126767952D02*
X339782580Y-127006047D01*
X339782580Y-127006047D02*
X339830200Y-127101285D01*
X339830200Y-127101285D02*
X339877819Y-127148904D01*
X339877819Y-127148904D02*
X339973057Y-127196523D01*
X339973057Y-127196523D02*
X340068295Y-127196523D01*
X340068295Y-127196523D02*
X340163533Y-127148904D01*
X340163533Y-127148904D02*
X340211152Y-127101285D01*
X340211152Y-127101285D02*
X340258771Y-127006047D01*
X340258771Y-127006047D02*
X340306390Y-126815571D01*
X340306390Y-126815571D02*
X340354009Y-126720333D01*
X340354009Y-126720333D02*
X340401628Y-126672714D01*
X340401628Y-126672714D02*
X340496866Y-126625095D01*
X340496866Y-126625095D02*
X340592104Y-126625095D01*
X340592104Y-126625095D02*
X340687342Y-126672714D01*
X340687342Y-126672714D02*
X340734961Y-126720333D01*
X340734961Y-126720333D02*
X340782580Y-126815571D01*
X340782580Y-126815571D02*
X340782580Y-127053666D01*
X340782580Y-127053666D02*
X340734961Y-127196523D01*
X339877819Y-128196523D02*
X339830200Y-128148904D01*
X339830200Y-128148904D02*
X339782580Y-128006047D01*
X339782580Y-128006047D02*
X339782580Y-127910809D01*
X339782580Y-127910809D02*
X339830200Y-127767952D01*
X339830200Y-127767952D02*
X339925438Y-127672714D01*
X339925438Y-127672714D02*
X340020676Y-127625095D01*
X340020676Y-127625095D02*
X340211152Y-127577476D01*
X340211152Y-127577476D02*
X340354009Y-127577476D01*
X340354009Y-127577476D02*
X340544485Y-127625095D01*
X340544485Y-127625095D02*
X340639723Y-127672714D01*
X340639723Y-127672714D02*
X340734961Y-127767952D01*
X340734961Y-127767952D02*
X340782580Y-127910809D01*
X340782580Y-127910809D02*
X340782580Y-128006047D01*
X340782580Y-128006047D02*
X340734961Y-128148904D01*
X340734961Y-128148904D02*
X340687342Y-128196523D01*
X340782580Y-128529857D02*
X340782580Y-129196523D01*
X340782580Y-129196523D02*
X339782580Y-128767952D01*
X114314200Y-126625095D02*
X114266580Y-126767952D01*
X114266580Y-126767952D02*
X114266580Y-127006047D01*
X114266580Y-127006047D02*
X114314200Y-127101285D01*
X114314200Y-127101285D02*
X114361819Y-127148904D01*
X114361819Y-127148904D02*
X114457057Y-127196523D01*
X114457057Y-127196523D02*
X114552295Y-127196523D01*
X114552295Y-127196523D02*
X114647533Y-127148904D01*
X114647533Y-127148904D02*
X114695152Y-127101285D01*
X114695152Y-127101285D02*
X114742771Y-127006047D01*
X114742771Y-127006047D02*
X114790390Y-126815571D01*
X114790390Y-126815571D02*
X114838009Y-126720333D01*
X114838009Y-126720333D02*
X114885628Y-126672714D01*
X114885628Y-126672714D02*
X114980866Y-126625095D01*
X114980866Y-126625095D02*
X115076104Y-126625095D01*
X115076104Y-126625095D02*
X115171342Y-126672714D01*
X115171342Y-126672714D02*
X115218961Y-126720333D01*
X115218961Y-126720333D02*
X115266580Y-126815571D01*
X115266580Y-126815571D02*
X115266580Y-127053666D01*
X115266580Y-127053666D02*
X115218961Y-127196523D01*
X114361819Y-128196523D02*
X114314200Y-128148904D01*
X114314200Y-128148904D02*
X114266580Y-128006047D01*
X114266580Y-128006047D02*
X114266580Y-127910809D01*
X114266580Y-127910809D02*
X114314200Y-127767952D01*
X114314200Y-127767952D02*
X114409438Y-127672714D01*
X114409438Y-127672714D02*
X114504676Y-127625095D01*
X114504676Y-127625095D02*
X114695152Y-127577476D01*
X114695152Y-127577476D02*
X114838009Y-127577476D01*
X114838009Y-127577476D02*
X115028485Y-127625095D01*
X115028485Y-127625095D02*
X115123723Y-127672714D01*
X115123723Y-127672714D02*
X115218961Y-127767952D01*
X115218961Y-127767952D02*
X115266580Y-127910809D01*
X115266580Y-127910809D02*
X115266580Y-128006047D01*
X115266580Y-128006047D02*
X115218961Y-128148904D01*
X115218961Y-128148904D02*
X115171342Y-128196523D01*
X114266580Y-129148904D02*
X114266580Y-128577476D01*
X114266580Y-128863190D02*
X115266580Y-128863190D01*
X115266580Y-128863190D02*
X115123723Y-128767952D01*
X115123723Y-128767952D02*
X115028485Y-128672714D01*
X115028485Y-128672714D02*
X114980866Y-128577476D01*
D11*
%TO.C,SC3*%
X136709000Y-87900000D02*
X136709000Y-157915438D01*
X136709000Y-87900000D02*
X149689000Y-87900000D01*
X146695883Y-167886883D02*
X136724438Y-157915438D01*
X146695883Y-167886883D02*
X176695883Y-167886883D01*
X176695883Y-87900000D02*
X136709000Y-87900000D01*
X176695883Y-167900000D02*
X176695883Y-87900000D01*
%TO.C,SC2*%
X54750000Y-87900000D02*
X54750000Y-157915438D01*
X54750000Y-87900000D02*
X67730000Y-87900000D01*
X64736883Y-167886883D02*
X54765438Y-157915438D01*
X64736883Y-167886883D02*
X94736883Y-167886883D01*
X94736883Y-87900000D02*
X54750000Y-87900000D01*
X94736883Y-167900000D02*
X94736883Y-87900000D01*
%TO.C,SC6*%
X280266000Y-87900000D02*
X280266000Y-157915438D01*
X280266000Y-87900000D02*
X293246000Y-87900000D01*
X290252883Y-167886883D02*
X280281438Y-157915438D01*
X290252883Y-167886883D02*
X320252883Y-167886883D01*
X320252883Y-87900000D02*
X280266000Y-87900000D01*
X320252883Y-167900000D02*
X320252883Y-87900000D01*
%TO.C,SC4*%
X177695617Y-87887000D02*
X177695617Y-167887000D01*
X177695617Y-167887000D02*
X217682500Y-167887000D01*
X207695617Y-87900117D02*
X177695617Y-87900117D01*
X207695617Y-87900117D02*
X217667062Y-97871562D01*
X217682500Y-167887000D02*
X204702500Y-167887000D01*
X217682500Y-167887000D02*
X217682500Y-97871562D01*
%TO.C,SC5*%
X239279559Y-87887000D02*
X239279559Y-167887000D01*
X239279559Y-167887000D02*
X279266442Y-167887000D01*
X269279559Y-87900117D02*
X239279559Y-87900117D01*
X269279559Y-87900117D02*
X279251004Y-97871562D01*
X279266442Y-167887000D02*
X266286442Y-167887000D01*
X279266442Y-167887000D02*
X279266442Y-97871562D01*
%TO.C,SC7*%
X321253117Y-87887000D02*
X321253117Y-167887000D01*
X321253117Y-167887000D02*
X361240000Y-167887000D01*
X351253117Y-87900117D02*
X321253117Y-87900117D01*
X351253117Y-87900117D02*
X361224562Y-97871562D01*
X361240000Y-167887000D02*
X348260000Y-167887000D01*
X361240000Y-167887000D02*
X361240000Y-97871562D01*
%TO.C,SC1*%
X95737117Y-87887000D02*
X95737117Y-167887000D01*
X95737117Y-167887000D02*
X135724000Y-167887000D01*
X125737117Y-87900117D02*
X95737117Y-87900117D01*
X125737117Y-87900117D02*
X135708562Y-97871562D01*
X135724000Y-167887000D02*
X122744000Y-167887000D01*
X135724000Y-167887000D02*
X135724000Y-97871562D01*
D12*
%TO.C,M1*%
X166920000Y-89170000D02*
X168300000Y-89170000D01*
X166920000Y-90550000D02*
X166920000Y-89170000D01*
X166920000Y-91820000D02*
X166920000Y-94470000D01*
X166920000Y-91820000D02*
X169680000Y-91820000D01*
X166920000Y-94470000D02*
X169680000Y-94470000D01*
X169680000Y-91820000D02*
X169680000Y-94470000D01*
%TD*%
M02*
