M48
; DRILL file {KiCad 9.0.4} date 2025-12-11T07:36:34-0700
; FORMAT={-:-/ absolute / metric / decimal}
; #@! TF.CreationDate,2025-12-11T07:36:34-07:00
; #@! TF.GenerationSoftware,Kicad,Pcbnew,9.0.4
; #@! TF.FileFunction,Plated,1,4,PTH
FMAT,2
METRIC
; #@! TA.AperFunction,Plated,PTH,ViaDrill
T1C0.300
; #@! TA.AperFunction,Plated,PTH,ComponentDrill
T2C0.800
; #@! TA.AperFunction,Plated,PTH,ComponentDrill
T3C1.000
; #@! TA.AperFunction,Plated,PTH,ComponentDrill
T4C1.040
%
G90
G05
T1
X101.85Y-69.0
X101.85Y-70.0
X101.85Y-71.0
X101.85Y-72.0
X101.85Y-73.0
X101.85Y-74.0
X101.85Y-75.0
X101.85Y-76.0
X101.85Y-77.0
X101.85Y-78.0
X101.85Y-79.0
X101.85Y-80.0
X101.85Y-81.0
X101.85Y-82.0
X101.85Y-83.0
X101.85Y-84.0
X101.85Y-85.0
X101.85Y-86.0
X101.85Y-87.0
X101.85Y-88.0
X101.85Y-89.0
X101.85Y-90.0
X101.85Y-91.0
X101.85Y-92.0
X101.85Y-93.0
X101.85Y-94.0
X101.85Y-95.0
X101.85Y-96.0
X101.85Y-97.0
X101.85Y-98.0
X101.85Y-99.0
X101.85Y-100.0
X101.85Y-101.0
X101.85Y-102.0
X101.85Y-103.0
X101.85Y-104.0
X101.85Y-105.0
X101.85Y-106.0
X101.85Y-107.0
X101.85Y-108.0
X101.85Y-109.0
X101.85Y-110.0
X101.85Y-111.0
X101.85Y-112.0
X101.85Y-113.0
X101.85Y-114.0
X101.85Y-115.0
X101.85Y-116.0
X101.85Y-117.0
X101.85Y-118.0
X101.85Y-119.0
X101.85Y-120.0
X101.85Y-121.0
X101.85Y-122.0
X101.85Y-123.0
X101.85Y-124.0
X101.85Y-125.0
X101.85Y-126.0
X101.85Y-127.0
X101.85Y-128.0
X101.85Y-129.0
X101.85Y-130.0
X101.85Y-131.0
X101.85Y-132.0
X101.85Y-133.0
X101.85Y-134.0
X101.85Y-135.0
X101.85Y-136.0
X101.85Y-137.0
X101.85Y-138.0
X101.85Y-139.0
X101.85Y-140.0
X101.85Y-141.0
X101.85Y-142.0
X101.85Y-143.0
X101.85Y-144.0
X101.85Y-145.0
X102.85Y-69.0
X102.85Y-70.0
X102.85Y-71.0
X102.85Y-72.0
X102.85Y-73.0
X102.85Y-74.0
X102.85Y-75.0
X102.85Y-76.0
X102.85Y-77.0
X102.85Y-78.0
X102.85Y-79.0
X102.85Y-80.0
X102.85Y-81.0
X102.85Y-82.0
X102.85Y-83.0
X102.85Y-84.0
X102.85Y-85.0
X102.85Y-86.0
X102.85Y-87.0
X102.85Y-88.0
X102.85Y-89.0
X102.85Y-90.0
X102.85Y-91.0
X102.85Y-92.0
X102.85Y-93.0
X102.85Y-94.0
X102.85Y-95.0
X102.85Y-96.0
X102.85Y-97.0
X102.85Y-98.0
X102.85Y-99.0
X102.85Y-100.0
X102.85Y-101.0
X102.85Y-102.0
X102.85Y-103.0
X102.85Y-104.0
X102.85Y-105.0
X102.85Y-106.0
X102.85Y-107.0
X102.85Y-108.0
X102.85Y-109.0
X102.85Y-110.0
X102.85Y-111.0
X102.85Y-112.0
X102.85Y-113.0
X102.85Y-114.0
X102.85Y-115.0
X102.85Y-116.0
X102.85Y-117.0
X102.85Y-118.0
X102.85Y-119.0
X102.85Y-120.0
X102.85Y-121.0
X102.85Y-122.0
X102.85Y-123.0
X102.85Y-124.0
X102.85Y-125.0
X102.85Y-126.0
X102.85Y-127.0
X102.85Y-128.0
X102.85Y-129.0
X102.85Y-130.0
X102.85Y-131.0
X102.85Y-132.0
X102.85Y-133.0
X102.85Y-134.0
X102.85Y-135.0
X102.85Y-136.0
X102.85Y-137.0
X102.85Y-138.0
X102.85Y-139.0
X102.85Y-140.0
X102.85Y-141.0
X102.85Y-142.0
X102.85Y-143.0
X102.85Y-144.0
X102.85Y-145.0
X103.85Y-69.0
X103.85Y-70.0
X103.85Y-71.0
X103.85Y-72.0
X103.85Y-73.0
X103.85Y-74.0
X103.85Y-75.0
X103.85Y-76.0
X103.85Y-77.0
X103.85Y-78.0
X103.85Y-79.0
X103.85Y-80.0
X103.85Y-81.0
X103.85Y-82.0
X103.85Y-83.0
X103.85Y-84.0
X103.85Y-85.0
X103.85Y-86.0
X103.85Y-87.0
X103.85Y-88.0
X103.85Y-89.0
X103.85Y-90.0
X103.85Y-91.0
X103.85Y-92.0
X103.85Y-93.0
X103.85Y-94.0
X103.85Y-95.0
X103.85Y-96.0
X103.85Y-97.0
X103.85Y-98.0
X103.85Y-99.0
X103.85Y-100.0
X103.85Y-101.0
X103.85Y-102.0
X103.85Y-103.0
X103.85Y-104.0
X103.85Y-105.0
X103.85Y-106.0
X103.85Y-107.0
X103.85Y-108.0
X103.85Y-109.0
X103.85Y-110.0
X103.85Y-111.0
X103.85Y-112.0
X103.85Y-113.0
X103.85Y-114.0
X103.85Y-115.0
X103.85Y-116.0
X103.85Y-117.0
X103.85Y-118.0
X103.85Y-119.0
X103.85Y-120.0
X103.85Y-121.0
X103.85Y-122.0
X103.85Y-123.0
X103.85Y-124.0
X103.85Y-125.0
X103.85Y-126.0
X103.85Y-127.0
X103.85Y-128.0
X103.85Y-129.0
X103.85Y-130.0
X103.85Y-131.0
X103.85Y-132.0
X103.85Y-133.0
X103.85Y-134.0
X103.85Y-135.0
X103.85Y-136.0
X103.85Y-137.0
X103.85Y-138.0
X103.85Y-139.0
X103.85Y-140.0
X103.85Y-141.0
X103.85Y-142.0
X103.85Y-143.0
X103.85Y-144.0
X103.85Y-145.0
X105.973Y-119.6
X106.587Y-118.166
X107.22Y-109.456
X107.4Y-108.2
X107.8Y-110.8
X108.379Y-110.2
X109.225Y-106.399
X109.276Y-104.875
X110.475Y-103.625
X110.953Y-101.66
X111.2Y-102.4
X111.768Y-107.112
X112.025Y-105.625
X112.086Y-120.55
X112.268Y-140.208
X112.416Y-127.701
X112.8Y-106.4
X113.0Y-90.025
X113.4Y-95.0
X113.425Y-95.825
X113.475Y-94.175
X113.69Y-90.367
X113.975Y-93.175
X114.046Y-140.208
X114.151Y-107.168
X114.535Y-122.351
X114.725Y-86.462
X114.725Y-97.425
X115.0Y-147.5
X115.7Y-89.8
X116.0Y-140.25
X116.086Y-136.55
X116.114Y-128.002
X116.4Y-102.2
X117.2Y-112.4
X117.225Y-92.925
X117.697Y-105.85
X117.725Y-90.675
X117.725Y-98.462
X117.725Y-99.212
X117.845Y-107.15
X117.905Y-109.201
X117.961Y-104.111
X118.336Y-119.55
X118.406Y-112.825
X118.492Y-92.668
X118.65Y-121.882
X118.725Y-86.462
X118.725Y-90.675
X118.801Y-113.497
X119.336Y-136.05
X119.475Y-90.675
X120.005Y-108.226
X120.025Y-106.425
X120.106Y-104.806
X120.225Y-90.675
X120.725Y-93.462
X120.925Y-90.675
X121.0Y-145.75
X121.231Y-103.682
X121.6Y-116.6
X121.725Y-98.712
X122.381Y-119.3
X122.625Y-107.625
X122.7Y-127.0
X122.8Y-91.2
X122.825Y-106.225
X122.881Y-122.05
X122.9Y-116.2
X123.066Y-110.052
X123.081Y-95.269
X123.475Y-90.675
X123.6Y-128.4
X123.9Y-140.75
X123.975Y-85.161
X124.225Y-86.462
X124.225Y-92.775
X124.225Y-93.475
X124.225Y-94.175
X124.225Y-94.875
X124.225Y-95.575
X124.496Y-135.932
X124.872Y-90.839
X125.1Y-142.0
X125.348Y-128.42
X125.8Y-102.2
X126.549Y-130.47
X126.7Y-102.2
X127.253Y-132.601
X127.631Y-115.3
X127.7Y-102.3
X127.75Y-130.25
X128.24Y-129.617
X128.259Y-130.867
X128.311Y-107.511
X128.425Y-105.625
X128.425Y-108.825
X128.642Y-104.176
X129.0Y-85.7
X129.4Y-94.9
X129.75Y-136.144
X129.75Y-137.16
X130.0Y-98.9
X130.631Y-116.3
X130.881Y-124.8
X131.4Y-128.0
X132.2Y-86.9
X132.201Y-125.451
X132.674Y-126.674
X132.678Y-108.078
X133.0Y-135.5
X133.2Y-105.6
X133.25Y-124.5
X133.25Y-130.75
X133.3Y-97.5
X133.412Y-108.925
X133.449Y-125.9
X133.85Y-134.826
X133.881Y-120.3
X134.0Y-94.7
X134.0Y-102.364
X134.0Y-140.5
X134.5Y-129.25
X134.734Y-137.714
X134.75Y-119.25
X134.995Y-141.2
X135.049Y-124.951
X135.275Y-97.449
X135.4Y-90.1
X135.7Y-134.3
X135.78Y-137.665
X135.812Y-104.368
X136.0Y-108.2
X136.0Y-121.45
X136.15Y-124.25
X136.25Y-123.402
X136.6Y-131.4
X136.906Y-140.462
X137.36Y-101.16
X137.415Y-114.615
X137.749Y-125.75
X137.922Y-140.462
X138.25Y-129.5
X138.325Y-106.411
X138.338Y-93.825
X138.574Y-104.963
X138.874Y-102.364
X139.0Y-142.0
X139.098Y-120.451
X139.2Y-134.2
X139.343Y-103.057
X139.35Y-125.297
X139.4Y-107.0
X139.7Y-132.0
X140.0Y-137.75
X140.2Y-142.6
X140.8Y-115.2
X141.0Y-116.5
X141.0Y-140.25
X141.2Y-132.1
X141.25Y-134.0
X141.25Y-137.75
X141.518Y-90.482
X141.732Y-133.35
X141.739Y-130.3
X141.75Y-117.0
X141.75Y-129.5
X141.85Y-123.2
X142.012Y-106.725
X142.088Y-98.075
X142.5Y-85.5
X142.727Y-113.58
X143.1Y-106.3
X143.2Y-140.2
X143.812Y-108.125
X144.0Y-102.6
X144.3Y-106.5
X144.822Y-133.502
X145.4Y-93.8
X145.4Y-95.9
X145.712Y-133.461
X145.918Y-134.234
X146.75Y-92.25
X147.0Y-141.3
X147.1Y-131.5
X147.2Y-142.8
X147.3Y-132.6
X147.4Y-130.7
X147.4Y-137.9
X147.4Y-139.5
X148.0Y-101.0
X148.0Y-102.7
X148.0Y-104.4
X148.0Y-115.7
X148.9Y-113.6
X149.0Y-134.25
X149.026Y-124.572
X149.1Y-141.25
X149.2Y-96.5
X149.2Y-130.5
X149.6Y-93.7
X149.626Y-124.007
X150.299Y-123.299
X150.3Y-101.0
X150.3Y-102.7
X150.3Y-104.4
X150.4Y-142.0
X150.633Y-144.167
X151.3Y-96.5
X151.5Y-116.35
X152.25Y-141.5
X152.275Y-143.452
X152.324Y-116.374
X152.6Y-101.0
X152.6Y-102.7
X152.6Y-104.4
X153.124Y-116.35
X153.242Y-128.701
X153.6Y-144.6
X153.75Y-90.75
X153.874Y-121.286
X153.92Y-114.15
X155.186Y-140.212
X155.2Y-114.6
X155.224Y-123.117
X155.9Y-90.8
X156.542Y-136.979
X156.749Y-96.5
X156.75Y-141.0
X157.0Y-128.9
X157.25Y-116.35
X157.349Y-89.0
X157.5Y-112.0
X157.597Y-85.579
X158.2Y-143.2
X158.434Y-111.544
X158.561Y-85.579
X158.593Y-109.72
X158.901Y-108.9
X159.0Y-105.25
X159.0Y-118.68
X159.1Y-106.044
X159.1Y-111.1
X159.128Y-107.688
X159.25Y-90.5
X159.25Y-95.2
X159.25Y-96.0
X159.35Y-89.033
X159.35Y-94.286
X159.35Y-101.25
X159.35Y-102.75
X159.35Y-96.794
X159.436Y-120.212
X159.749Y-114.749
X159.75Y-104.0
X159.75Y-109.75
X159.936Y-136.712
X160.0Y-92.5
X160.0Y-98.25
X160.3Y-143.0
X160.374Y-114.124
X160.549Y-113.1
X160.6Y-124.6
X161.2Y-138.6
X161.25Y-116.35
X161.45Y-125.2
X161.9Y-114.2
X161.951Y-143.65
X162.25Y-121.75
X162.3Y-128.7
X162.4Y-84.9
X162.499Y-106.5
X162.499Y-108.251
X162.5Y-120.0
X162.6Y-113.1
X162.6Y-129.9
X162.675Y-100.425
X162.75Y-102.025
X162.75Y-105.5
X163.046Y-93.886
X163.046Y-95.836
X163.046Y-98.0
X163.1Y-114.6
X163.2Y-134.9
X163.2Y-139.5
X163.5Y-142.5
X163.521Y-145.632
X163.776Y-113.624
X164.452Y-86.85
X164.5Y-85.0
X164.6Y-136.7
X164.66Y-109.34
X164.686Y-127.587
X164.949Y-113.1
X165.25Y-92.25
X165.25Y-101.75
X165.3Y-89.3
X165.3Y-86.85
X165.709Y-132.291
X165.738Y-133.169
X165.8Y-84.7
X165.85Y-103.5
X165.887Y-129.637
X166.0Y-110.697
X166.0Y-115.75
X166.249Y-86.85
X166.5Y-134.1
X166.972Y-130.25
X166.989Y-113.348
X167.25Y-129.5
X167.25Y-131.0
X167.25Y-134.75
X167.789Y-113.348
X168.25Y-87.75
X168.25Y-93.5
X168.25Y-95.0
X168.25Y-97.0
X168.25Y-99.25
X168.25Y-102.75
X168.25Y-105.0
X168.5Y-89.975
X168.5Y-91.925
X168.5Y-106.5
X168.55Y-113.1
X168.75Y-95.75
X168.75Y-110.5
X168.999Y-91.175
X168.999Y-97.7
X168.999Y-100.0
X169.0Y-108.0
X169.1Y-87.2
X169.248Y-102.0
X169.5Y-115.152
X169.624Y-127.976
X169.632Y-110.697
X170.0Y-116.0
X170.2Y-83.4
X170.5Y-124.5
X170.612Y-90.362
X170.75Y-87.7
X170.75Y-88.5
X170.833Y-110.697
X171.0Y-98.0
X171.25Y-103.75
X171.25Y-125.75
X171.4Y-84.0
X171.63Y-110.62
X171.8Y-128.2
X171.85Y-125.15
X171.975Y-96.35
X172.0Y-135.5
X172.225Y-102.9
X172.225Y-108.95
X172.25Y-130.75
X172.3Y-115.152
X172.416Y-124.55
X172.549Y-126.299
X172.75Y-129.5
X172.85Y-134.75
X173.0Y-74.8
X173.0Y-120.0
X173.005Y-123.986
X173.1Y-73.6
X173.2Y-84.2
X173.219Y-141.011
X173.25Y-118.25
X173.392Y-86.707
X173.4Y-123.25
X173.5Y-87.5
X173.5Y-137.75
X173.7Y-71.2
X173.75Y-90.5
X173.9Y-83.6
X173.975Y-140.75
X174.0Y-115.5
X174.299Y-122.451
X174.4Y-81.9
X174.499Y-84.999
X174.78Y-137.665
X175.323Y-117.897
X175.75Y-147.5
X176.0Y-140.25
X176.25Y-72.25
X176.481Y-82.1
X176.501Y-84.0
X176.693Y-128.761
X176.7Y-115.5
X176.902Y-84.999
X177.0Y-130.0
X177.0Y-140.25
X177.15Y-87.5
X177.2Y-112.0
X177.3Y-102.8
X177.3Y-113.2
X177.482Y-120.037
X177.75Y-86.75
X178.0Y-109.5
X178.0Y-141.75
X178.266Y-124.75
X178.3Y-116.5
X178.35Y-88.0
X178.4Y-133.8
X178.475Y-93.1
X178.475Y-99.4
X178.475Y-105.7
X178.75Y-96.25
X178.75Y-102.25
X178.75Y-104.75
X178.75Y-108.5
X178.874Y-131.95
X178.874Y-132.75
X179.0Y-137.75
X179.0Y-140.5
X179.018Y-136.95
X179.143Y-88.1
X179.25Y-79.0
X179.286Y-69.0
X179.81Y-126.21
X180.0Y-86.0
X180.074Y-131.7
X180.074Y-132.5
X180.199Y-125.0
X180.25Y-134.0
X180.25Y-137.75
X180.463Y-130.463
X180.608Y-133.284
X180.75Y-115.4
X180.75Y-129.5
X180.75Y-144.75
X181.1Y-117.0
X181.15Y-123.8
X181.25Y-79.0
X181.565Y-106.532
X181.75Y-115.4
X182.0Y-111.22
X182.243Y-100.498
X182.25Y-92.75
X182.955Y-83.15
X183.036Y-73.5
X183.98Y-110.62
X184.0Y-108.75
X184.2Y-96.7
X184.25Y-137.5
X184.4Y-129.6
X184.5Y-134.898
X184.6Y-102.8
X184.814Y-96.2
X185.0Y-72.0
X185.1Y-133.399
X185.1Y-134.199
X185.127Y-98.816
X185.25Y-137.0
X185.366Y-105.166
X185.743Y-136.265
X186.081Y-135.541
X186.15Y-131.5
X186.286Y-76.75
X186.3Y-119.8
X186.305Y-86.5
X186.415Y-96.25
X186.5Y-107.25
X186.6Y-101.784
X186.75Y-77.951
X186.951Y-127.201
X187.0Y-130.617
X187.25Y-91.0
X187.951Y-126.201
X188.058Y-130.0
X188.1Y-125.25
X188.2Y-115.5
X188.75Y-129.25
X188.847Y-124.963
X188.896Y-107.506
X188.897Y-113.75
X189.5Y-128.25
X189.833Y-77.833
X193.15Y-68.95
X193.15Y-69.95
X193.15Y-70.95
X193.15Y-71.95
X193.15Y-72.95
X193.15Y-73.95
X193.15Y-74.95
X193.15Y-75.95
X193.15Y-76.95
X193.15Y-77.95
X193.15Y-78.95
X193.15Y-79.95
X193.15Y-80.95
X193.15Y-81.95
X193.15Y-82.95
X193.15Y-83.95
X193.15Y-84.95
X193.15Y-85.95
X193.15Y-86.95
X193.15Y-87.95
X193.15Y-88.95
X193.15Y-89.95
X193.15Y-90.95
X193.15Y-91.95
X193.15Y-92.95
X193.15Y-93.95
X193.15Y-94.95
X193.15Y-95.95
X193.15Y-96.95
X193.15Y-97.95
X193.15Y-98.95
X193.15Y-99.95
X193.15Y-100.95
X193.15Y-101.95
X193.15Y-102.95
X193.15Y-103.95
X193.15Y-104.95
X193.15Y-105.95
X193.15Y-106.95
X193.15Y-107.95
X193.15Y-108.95
X193.15Y-109.95
X193.15Y-110.95
X193.15Y-111.95
X193.15Y-112.95
X193.15Y-113.95
X193.15Y-114.95
X193.15Y-115.95
X193.15Y-116.95
X193.15Y-117.95
X193.15Y-118.95
X193.15Y-119.95
X193.15Y-120.95
X193.15Y-121.95
X193.15Y-122.95
X193.15Y-123.95
X193.15Y-124.95
X193.15Y-125.95
X193.15Y-126.95
X193.15Y-127.95
X193.15Y-128.95
X193.15Y-129.95
X193.15Y-130.95
X193.15Y-131.95
X193.15Y-132.95
X193.15Y-133.95
X193.15Y-134.95
X193.15Y-135.95
X193.15Y-136.95
X193.15Y-137.95
X193.15Y-138.95
X193.15Y-139.95
X193.15Y-140.95
X193.15Y-141.95
X193.15Y-142.95
X193.15Y-143.95
X193.15Y-144.95
X194.15Y-68.95
X194.15Y-69.95
X194.15Y-70.95
X194.15Y-71.95
X194.15Y-72.95
X194.15Y-73.95
X194.15Y-74.95
X194.15Y-75.95
X194.15Y-76.95
X194.15Y-77.95
X194.15Y-78.95
X194.15Y-79.95
X194.15Y-80.95
X194.15Y-81.95
X194.15Y-82.95
X194.15Y-83.95
X194.15Y-84.95
X194.15Y-85.95
X194.15Y-86.95
X194.15Y-87.95
X194.15Y-88.95
X194.15Y-89.95
X194.15Y-90.95
X194.15Y-91.95
X194.15Y-92.95
X194.15Y-93.95
X194.15Y-94.95
X194.15Y-95.95
X194.15Y-96.95
X194.15Y-97.95
X194.15Y-98.95
X194.15Y-99.95
X194.15Y-100.95
X194.15Y-101.95
X194.15Y-102.95
X194.15Y-103.95
X194.15Y-104.95
X194.15Y-105.95
X194.15Y-106.95
X194.15Y-107.95
X194.15Y-108.95
X194.15Y-109.95
X194.15Y-110.95
X194.15Y-111.95
X194.15Y-112.95
X194.15Y-113.95
X194.15Y-114.95
X194.15Y-115.95
X194.15Y-116.95
X194.15Y-117.95
X194.15Y-118.95
X194.15Y-119.95
X194.15Y-120.95
X194.15Y-121.95
X194.15Y-122.95
X194.15Y-123.95
X194.15Y-124.95
X194.15Y-125.95
X194.15Y-126.95
X194.15Y-127.95
X194.15Y-128.95
X194.15Y-129.95
X194.15Y-130.95
X194.15Y-131.95
X194.15Y-132.95
X194.15Y-133.95
X194.15Y-134.95
X194.15Y-135.95
X194.15Y-136.95
X194.15Y-137.95
X194.15Y-138.95
X194.15Y-139.95
X194.15Y-140.95
X194.15Y-141.95
X194.15Y-142.95
X194.15Y-143.95
X194.15Y-144.95
X195.15Y-68.95
X195.15Y-69.95
X195.15Y-70.95
X195.15Y-71.95
X195.15Y-72.95
X195.15Y-73.95
X195.15Y-74.95
X195.15Y-75.95
X195.15Y-76.95
X195.15Y-77.95
X195.15Y-78.95
X195.15Y-79.95
X195.15Y-80.95
X195.15Y-81.95
X195.15Y-82.95
X195.15Y-83.95
X195.15Y-84.95
X195.15Y-85.95
X195.15Y-86.95
X195.15Y-87.95
X195.15Y-88.95
X195.15Y-89.95
X195.15Y-90.95
X195.15Y-91.95
X195.15Y-92.95
X195.15Y-93.95
X195.15Y-94.95
X195.15Y-95.95
X195.15Y-96.95
X195.15Y-97.95
X195.15Y-98.95
X195.15Y-99.95
X195.15Y-100.95
X195.15Y-101.95
X195.15Y-102.95
X195.15Y-103.95
X195.15Y-104.95
X195.15Y-105.95
X195.15Y-106.95
X195.15Y-107.95
X195.15Y-108.95
X195.15Y-109.95
X195.15Y-110.95
X195.15Y-111.95
X195.15Y-112.95
X195.15Y-113.95
X195.15Y-114.95
X195.15Y-115.95
X195.15Y-116.95
X195.15Y-117.95
X195.15Y-118.95
X195.15Y-119.95
X195.15Y-120.95
X195.15Y-121.95
X195.15Y-122.95
X195.15Y-123.95
X195.15Y-124.95
X195.15Y-125.95
X195.15Y-126.95
X195.15Y-127.95
X195.15Y-128.95
X195.15Y-129.95
X195.15Y-130.95
X195.15Y-131.95
X195.15Y-132.95
X195.15Y-133.95
X195.15Y-134.95
X195.15Y-135.95
X195.15Y-136.95
X195.15Y-137.95
X195.15Y-138.95
X195.15Y-139.95
X195.15Y-140.95
X195.15Y-141.95
X195.15Y-142.95
X195.15Y-143.95
X195.15Y-144.95
T2
X123.5Y-148.0
X126.04Y-148.0
X170.96Y-148.0
X173.5Y-148.0
T3
X145.2Y-115.72
X145.2Y-118.26
X145.2Y-120.8
X145.2Y-123.34
X145.2Y-125.88
X183.8Y-116.58
X183.8Y-119.12
X183.8Y-121.66
X183.8Y-124.2
X183.8Y-126.74
T4
X124.657Y-77.65
X124.657Y-80.19
X127.197Y-77.65
X127.197Y-80.19
X129.737Y-77.65
X129.737Y-80.19
X132.278Y-77.65
X132.278Y-80.19
X134.817Y-77.65
X134.817Y-80.19
X137.357Y-77.65
X137.357Y-80.19
X139.897Y-77.65
X139.897Y-80.19
X142.438Y-77.65
X142.438Y-80.19
X144.977Y-77.65
X144.977Y-80.19
X147.517Y-77.65
X147.517Y-80.19
X150.058Y-77.65
X150.058Y-80.19
X152.597Y-77.65
X152.597Y-80.19
X155.137Y-77.65
X155.137Y-80.19
X157.677Y-77.65
X157.677Y-80.19
X160.218Y-77.65
X160.218Y-80.19
X162.757Y-77.65
X162.757Y-80.19
X165.297Y-77.65
X165.297Y-80.19
X167.838Y-77.65
X167.838Y-80.19
X170.377Y-77.65
X170.377Y-80.19
X172.917Y-77.65
X172.917Y-80.19
M30
