%TF.GenerationSoftware,KiCad,Pcbnew,9.0.4*%
%TF.CreationDate,2025-12-11T07:36:02-07:00*%
%TF.ProjectId,command_data_handling_v0.5,636f6d6d-616e-4645-9f64-6174615f6861,v0.1*%
%TF.SameCoordinates,Original*%
%TF.FileFunction,Paste,Bot*%
%TF.FilePolarity,Positive*%
%FSLAX46Y46*%
G04 Gerber Fmt 4.6, Leading zero omitted, Abs format (unit mm)*
G04 Created by KiCad (PCBNEW 9.0.4) date 2025-12-11 07:36:02*
%MOMM*%
%LPD*%
G01*
G04 APERTURE LIST*
G04 Aperture macros list*
%AMRoundRect*
0 Rectangle with rounded corners*
0 $1 Rounding radius*
0 $2 $3 $4 $5 $6 $7 $8 $9 X,Y pos of 4 corners*
0 Add a 4 corners polygon primitive as box body*
4,1,4,$2,$3,$4,$5,$6,$7,$8,$9,$2,$3,0*
0 Add four circle primitives for the rounded corners*
1,1,$1+$1,$2,$3*
1,1,$1+$1,$4,$5*
1,1,$1+$1,$6,$7*
1,1,$1+$1,$8,$9*
0 Add four rect primitives between the rounded corners*
20,1,$1+$1,$2,$3,$4,$5,0*
20,1,$1+$1,$4,$5,$6,$7,0*
20,1,$1+$1,$6,$7,$8,$9,0*
20,1,$1+$1,$8,$9,$2,$3,0*%
G04 Aperture macros list end*
%ADD10RoundRect,0.234166X0.327834X0.427834X-0.327834X0.427834X-0.327834X-0.427834X0.327834X-0.427834X0*%
%ADD11RoundRect,0.233830X-0.453170X0.315670X-0.453170X-0.315670X0.453170X-0.315670X0.453170X0.315670X0*%
%ADD12RoundRect,0.233830X0.315670X0.453170X-0.315670X0.453170X-0.315670X-0.453170X0.315670X-0.453170X0*%
%ADD13RoundRect,0.218500X0.218500X-0.231000X0.218500X0.231000X-0.218500X0.231000X-0.218500X-0.231000X0*%
%ADD14R,0.750000X0.650000*%
%ADD15RoundRect,0.043500X0.168500X0.043500X-0.168500X0.043500X-0.168500X-0.043500X0.168500X-0.043500X0*%
%ADD16RoundRect,0.131000X-0.568500X-0.131000X0.568500X-0.131000X0.568500X0.131000X-0.568500X0.131000X0*%
%ADD17RoundRect,0.234166X-0.327834X-0.427834X0.327834X-0.427834X0.327834X0.427834X-0.327834X0.427834X0*%
%ADD18RoundRect,0.234166X-0.427834X0.327834X-0.427834X-0.327834X0.427834X-0.327834X0.427834X0.327834X0*%
%ADD19RoundRect,0.218500X-0.281000X-0.218500X0.281000X-0.218500X0.281000X0.218500X-0.281000X0.218500X0*%
%ADD20RoundRect,0.233830X-0.315670X-0.453170X0.315670X-0.453170X0.315670X0.453170X-0.315670X0.453170X0*%
%ADD21RoundRect,0.218500X0.218500X-0.281000X0.218500X0.281000X-0.218500X0.281000X-0.218500X-0.281000X0*%
%ADD22RoundRect,0.234166X0.427834X-0.327834X0.427834X0.327834X-0.427834X0.327834X-0.427834X-0.327834X0*%
%ADD23RoundRect,0.218500X0.281000X0.218500X-0.281000X0.218500X-0.281000X-0.218500X0.281000X-0.218500X0*%
%ADD24R,0.274000X0.524000*%
%ADD25R,1.624000X1.024000*%
%ADD26RoundRect,0.131000X-0.131000X0.806000X-0.131000X-0.806000X0.131000X-0.806000X0.131000X0.806000X0*%
%ADD27R,0.524000X0.274000*%
%ADD28R,1.024000X1.624000*%
%ADD29RoundRect,0.218500X-0.218500X0.281000X-0.218500X-0.281000X0.218500X-0.281000X0.218500X0.281000X0*%
%ADD30RoundRect,0.131000X0.568500X0.131000X-0.568500X0.131000X-0.568500X-0.131000X0.568500X-0.131000X0*%
%ADD31R,1.399000X0.374000*%
%ADD32RoundRect,0.131000X0.131000X0.181000X-0.131000X0.181000X-0.131000X-0.181000X0.131000X-0.181000X0*%
%ADD33R,0.650000X0.750000*%
%ADD34RoundRect,0.043500X0.043500X-0.168500X0.043500X0.168500X-0.043500X0.168500X-0.043500X-0.168500X0*%
%ADD35RoundRect,0.233830X0.453170X-0.315670X0.453170X0.315670X-0.453170X0.315670X-0.453170X-0.315670X0*%
G04 APERTURE END LIST*
D10*
%TO.C,R3_FAULT1*%
X179250000Y-118000000D03*
X177250000Y-118000000D03*
%TD*%
D11*
%TO.C,C33*%
X112725000Y-91137482D03*
X112725000Y-93212482D03*
%TD*%
D12*
%TO.C,C32*%
X116725000Y-89674982D03*
X114650000Y-89674982D03*
%TD*%
D13*
%TO.C,R16*%
X181412500Y-107500000D03*
X181412500Y-105675000D03*
%TD*%
D14*
%TO.C,U10*%
X137325000Y-133650000D03*
X137325000Y-132850000D03*
D15*
X138275000Y-132500000D03*
X138275000Y-133000000D03*
X138275000Y-133500000D03*
X138275000Y-134000000D03*
X136375000Y-134000000D03*
X136375000Y-133500000D03*
X136375000Y-133000000D03*
X136375000Y-132500000D03*
%TD*%
D12*
%TO.C,C20*%
X139037500Y-137750000D03*
X136962500Y-137750000D03*
%TD*%
D16*
%TO.C,Q18*%
X167262500Y-125550000D03*
X167262500Y-123650000D03*
X169137500Y-124600000D03*
%TD*%
D12*
%TO.C,C8*%
X139037500Y-135750000D03*
X136962500Y-135750000D03*
%TD*%
D17*
%TO.C,R53*%
X127631250Y-118050000D03*
X129631250Y-118050000D03*
%TD*%
%TO.C,R3*%
X129500000Y-134000000D03*
X131500000Y-134000000D03*
%TD*%
%TO.C,R29*%
X115336160Y-119300000D03*
X117336160Y-119300000D03*
%TD*%
D18*
%TO.C,R43*%
X151224000Y-131280580D03*
X151224000Y-133280580D03*
%TD*%
D17*
%TO.C,R24*%
X125725000Y-93924982D03*
X127725000Y-93924982D03*
%TD*%
D13*
%TO.C,R13*%
X134750000Y-133412500D03*
X134750000Y-131587500D03*
%TD*%
D19*
%TO.C,C27*%
X173500000Y-91600000D03*
X175225000Y-91600000D03*
%TD*%
D20*
%TO.C,C40*%
X114650000Y-87712482D03*
X116725000Y-87712482D03*
%TD*%
D21*
%TO.C,C4*%
X133250000Y-133362500D03*
X133250000Y-131637500D03*
%TD*%
D10*
%TO.C,R61*%
X165200000Y-123600000D03*
X163200000Y-123600000D03*
%TD*%
D14*
%TO.C,U9*%
X176350000Y-133650000D03*
X176350000Y-132850000D03*
D15*
X177300000Y-132500000D03*
X177300000Y-133000000D03*
X177300000Y-133500000D03*
X177300000Y-134000000D03*
X175400000Y-134000000D03*
X175400000Y-133500000D03*
X175400000Y-133000000D03*
X175400000Y-132500000D03*
%TD*%
D22*
%TO.C,R5_ILIM1*%
X177225000Y-95100000D03*
X177225000Y-93100000D03*
%TD*%
D10*
%TO.C,R19*%
X116725000Y-96174982D03*
X114725000Y-96174982D03*
%TD*%
D22*
%TO.C,R28*%
X110561160Y-128825000D03*
X110561160Y-126825000D03*
%TD*%
D23*
%TO.C,C7_RETRY2*%
X175200000Y-108700000D03*
X173475000Y-108700000D03*
%TD*%
D19*
%TO.C,C15*%
X166537500Y-128200000D03*
X168262500Y-128200000D03*
%TD*%
D12*
%TO.C,C36*%
X116725000Y-98674982D03*
X114650000Y-98674982D03*
%TD*%
D19*
%TO.C,C14*%
X173887500Y-129500000D03*
X175612500Y-129500000D03*
%TD*%
D12*
%TO.C,C38*%
X120800000Y-98712482D03*
X118725000Y-98712482D03*
%TD*%
D17*
%TO.C,R55*%
X127631250Y-120050000D03*
X129631250Y-120050000D03*
%TD*%
D14*
%TO.C,U13*%
X183912500Y-107055000D03*
X183912500Y-106255000D03*
D15*
X184862500Y-105905000D03*
X184862500Y-106405000D03*
X184862500Y-106905000D03*
X184862500Y-107405000D03*
X182962500Y-107405000D03*
X182962500Y-106905000D03*
X182962500Y-106405000D03*
X182962500Y-105905000D03*
%TD*%
D18*
%TO.C,FB1*%
X131000000Y-136750000D03*
X131000000Y-138750000D03*
%TD*%
D17*
%TO.C,R21*%
X125725000Y-95924982D03*
X127725000Y-95924982D03*
%TD*%
D19*
%TO.C,C17*%
X178137500Y-129500000D03*
X179862500Y-129500000D03*
%TD*%
D13*
%TO.C,R12*%
X173750000Y-133412500D03*
X173750000Y-131587500D03*
%TD*%
D24*
%TO.C,IC2*%
X141050000Y-122100000D03*
X140400000Y-122100000D03*
X139750000Y-122100000D03*
X139750000Y-120000000D03*
X140400000Y-120000000D03*
X141050000Y-120000000D03*
D25*
X140400000Y-121050000D03*
%TD*%
D10*
%TO.C,R52*%
X125881250Y-125800000D03*
X123881250Y-125800000D03*
%TD*%
%TO.C,R54*%
X125881250Y-123800000D03*
X123881250Y-123800000D03*
%TD*%
D26*
%TO.C,U14*%
X112406160Y-125350000D03*
X113676160Y-125350000D03*
X114946160Y-125350000D03*
X116216160Y-125350000D03*
X116216160Y-130300000D03*
X114946160Y-130300000D03*
X113676160Y-130300000D03*
X112406160Y-130300000D03*
%TD*%
D27*
%TO.C,IC7*%
X175525000Y-99500000D03*
X175525000Y-100150000D03*
X175525000Y-100800000D03*
X173425000Y-100800000D03*
X173425000Y-100150000D03*
X173425000Y-99500000D03*
D28*
X174475000Y-100150000D03*
%TD*%
D10*
%TO.C,R59*%
X165200000Y-125600000D03*
X163200000Y-125600000D03*
%TD*%
D19*
%TO.C,C16*%
X139137500Y-129500000D03*
X140862500Y-129500000D03*
%TD*%
D11*
%TO.C,C6*%
X133000000Y-136682500D03*
X133000000Y-138757500D03*
%TD*%
D29*
%TO.C,C23*%
X178700000Y-145750000D03*
X178700000Y-147475000D03*
%TD*%
D23*
%TO.C,C55*%
X125856250Y-122050000D03*
X124131250Y-122050000D03*
%TD*%
D29*
%TO.C,C2*%
X181000000Y-119887500D03*
X181000000Y-121612500D03*
%TD*%
D10*
%TO.C,R30*%
X117336160Y-121300000D03*
X115336160Y-121300000D03*
%TD*%
D20*
%TO.C,C52*%
X157186500Y-133530580D03*
X159261500Y-133530580D03*
%TD*%
D17*
%TO.C,R26*%
X125725000Y-87924982D03*
X127725000Y-87924982D03*
%TD*%
%TO.C,R45*%
X153474000Y-135530580D03*
X155474000Y-135530580D03*
%TD*%
D20*
%TO.C,C46*%
X116273660Y-134825000D03*
X118348660Y-134825000D03*
%TD*%
D29*
%TO.C,C1_RETRY1*%
X138100000Y-120200000D03*
X138100000Y-121925000D03*
%TD*%
D23*
%TO.C,C6_RETRY1*%
X175287500Y-102500000D03*
X173562500Y-102500000D03*
%TD*%
D21*
%TO.C,C13*%
X180250000Y-136725000D03*
X180250000Y-135000000D03*
%TD*%
D17*
%TO.C,R23*%
X125725000Y-89924982D03*
X127725000Y-89924982D03*
%TD*%
D10*
%TO.C,R1_ILIM1*%
X140600000Y-123700000D03*
X138600000Y-123700000D03*
%TD*%
D17*
%TO.C,R40*%
X156224000Y-120280580D03*
X158224000Y-120280580D03*
%TD*%
D30*
%TO.C,Q14*%
X125568750Y-118350000D03*
X125568750Y-120250000D03*
X123693750Y-119300000D03*
%TD*%
D22*
%TO.C,R20*%
X121475000Y-89674982D03*
X121475000Y-87674982D03*
%TD*%
%TO.C,R7_ILIM2*%
X177225000Y-107700000D03*
X177225000Y-105700000D03*
%TD*%
D30*
%TO.C,Q19*%
X164937500Y-118050000D03*
X164937500Y-119950000D03*
X163062500Y-119000000D03*
%TD*%
D21*
%TO.C,C5*%
X172250000Y-133362500D03*
X172250000Y-131637500D03*
%TD*%
D24*
%TO.C,IC3*%
X179500000Y-121800000D03*
X178850000Y-121800000D03*
X178200000Y-121800000D03*
X178200000Y-119700000D03*
X178850000Y-119700000D03*
X179500000Y-119700000D03*
D25*
X178850000Y-120750000D03*
%TD*%
D31*
%TO.C,IC13*%
X116413000Y-104350000D03*
X116413000Y-105000000D03*
X116413000Y-105650000D03*
X116413000Y-106300000D03*
X116413000Y-106950000D03*
X116413000Y-107600000D03*
X116413000Y-108250000D03*
X116413000Y-108900000D03*
X110537000Y-108900000D03*
X110537000Y-108250000D03*
X110537000Y-107600000D03*
X110537000Y-106950000D03*
X110537000Y-106300000D03*
X110537000Y-105650000D03*
X110537000Y-105000000D03*
X110537000Y-104350000D03*
%TD*%
D19*
%TO.C,C28*%
X173550000Y-97750000D03*
X175275000Y-97750000D03*
%TD*%
D32*
%TO.C,D11*%
X155824000Y-124030580D03*
X157224000Y-124030580D03*
%TD*%
D29*
%TO.C,C1*%
X142600000Y-120200000D03*
X142600000Y-121925000D03*
%TD*%
D10*
%TO.C,R3_ILIM1*%
X179000000Y-123500000D03*
X177000000Y-123500000D03*
%TD*%
D22*
%TO.C,R5_FAULT1*%
X171725000Y-95100000D03*
X171725000Y-93100000D03*
%TD*%
D23*
%TO.C,C5_RETRY1*%
X175225000Y-96100000D03*
X173500000Y-96100000D03*
%TD*%
D17*
%TO.C,R60*%
X167000000Y-117800000D03*
X169000000Y-117800000D03*
%TD*%
D33*
%TO.C,U8*%
X118575000Y-94424982D03*
X119375000Y-94424982D03*
D34*
X119725000Y-95374982D03*
X119225000Y-95374982D03*
X118725000Y-95374982D03*
X118225000Y-95374982D03*
X118225000Y-93474982D03*
X118725000Y-93474982D03*
X119225000Y-93474982D03*
X119725000Y-93474982D03*
%TD*%
D16*
%TO.C,Q13*%
X127756250Y-125750000D03*
X127756250Y-123850000D03*
X129631250Y-124800000D03*
%TD*%
D21*
%TO.C,C50*%
X152974000Y-124005580D03*
X152974000Y-122280580D03*
%TD*%
D12*
%TO.C,C37*%
X120800000Y-100712482D03*
X118725000Y-100712482D03*
%TD*%
D17*
%TO.C,R27*%
X125725000Y-91924982D03*
X127725000Y-91924982D03*
%TD*%
D13*
%TO.C,R15*%
X181412500Y-101250000D03*
X181412500Y-99425000D03*
%TD*%
D10*
%TO.C,R1_FAULT1*%
X140600000Y-118450000D03*
X138600000Y-118450000D03*
%TD*%
D29*
%TO.C,C43*%
X113561160Y-121575000D03*
X113561160Y-123300000D03*
%TD*%
D20*
%TO.C,C45*%
X116273660Y-132825000D03*
X118348660Y-132825000D03*
%TD*%
D31*
%TO.C,IC14*%
X127163000Y-104350000D03*
X127163000Y-105000000D03*
X127163000Y-105650000D03*
X127163000Y-106300000D03*
X127163000Y-106950000D03*
X127163000Y-107600000D03*
X127163000Y-108250000D03*
X127163000Y-108900000D03*
X121287000Y-108900000D03*
X121287000Y-108250000D03*
X121287000Y-107600000D03*
X121287000Y-106950000D03*
X121287000Y-106300000D03*
X121287000Y-105650000D03*
X121287000Y-105000000D03*
X121287000Y-104350000D03*
%TD*%
D12*
%TO.C,C35*%
X116700000Y-91825000D03*
X114625000Y-91825000D03*
%TD*%
D21*
%TO.C,C10*%
X141250000Y-136612500D03*
X141250000Y-134887500D03*
%TD*%
D11*
%TO.C,C42*%
X123475000Y-87637482D03*
X123475000Y-89712482D03*
%TD*%
D14*
%TO.C,U11*%
X183912500Y-94900000D03*
X183912500Y-94100000D03*
D15*
X184862500Y-93750000D03*
X184862500Y-94250000D03*
X184862500Y-94750000D03*
X184862500Y-95250000D03*
X182962500Y-95250000D03*
X182962500Y-94750000D03*
X182962500Y-94250000D03*
X182962500Y-93750000D03*
%TD*%
D18*
%TO.C,FB2*%
X170000000Y-136750000D03*
X170000000Y-138750000D03*
%TD*%
D22*
%TO.C,R7_FAULT2*%
X171725000Y-107700000D03*
X171725000Y-105700000D03*
%TD*%
%TO.C,R39*%
X151224000Y-129530580D03*
X151224000Y-127530580D03*
%TD*%
D17*
%TO.C,R1*%
X129500000Y-130000000D03*
X131500000Y-130000000D03*
%TD*%
D32*
%TO.C,D10*%
X114861160Y-123325000D03*
X116261160Y-123325000D03*
%TD*%
D17*
%TO.C,R2*%
X129500000Y-132000000D03*
X131500000Y-132000000D03*
%TD*%
D35*
%TO.C,C41*%
X121225000Y-96537482D03*
X121225000Y-94462482D03*
%TD*%
D11*
%TO.C,C39*%
X119475000Y-87599982D03*
X119475000Y-89674982D03*
%TD*%
D21*
%TO.C,C18*%
X134750000Y-136725000D03*
X134750000Y-135000000D03*
%TD*%
D19*
%TO.C,C11*%
X135525000Y-129250000D03*
X137250000Y-129250000D03*
%TD*%
D27*
%TO.C,IC6*%
X175525000Y-93200000D03*
X175525000Y-93850000D03*
X175525000Y-94500000D03*
X173425000Y-94500000D03*
X173425000Y-93850000D03*
X173425000Y-93200000D03*
D28*
X174475000Y-93850000D03*
%TD*%
D18*
%TO.C,R32*%
X110561160Y-130575000D03*
X110561160Y-132575000D03*
%TD*%
D17*
%TO.C,R62*%
X167000000Y-119800000D03*
X169000000Y-119800000D03*
%TD*%
%TO.C,R4*%
X168500000Y-130000000D03*
X170500000Y-130000000D03*
%TD*%
D19*
%TO.C,C12*%
X128537500Y-128200000D03*
X130262500Y-128200000D03*
%TD*%
D29*
%TO.C,C49*%
X154474000Y-122280580D03*
X154474000Y-124005580D03*
%TD*%
D21*
%TO.C,C44*%
X112061160Y-123300000D03*
X112061160Y-121575000D03*
%TD*%
D22*
%TO.C,R6_FAULT1*%
X171675000Y-101250000D03*
X171675000Y-99250000D03*
%TD*%
%TO.C,R6_ILIM1*%
X177175000Y-101250000D03*
X177175000Y-99250000D03*
%TD*%
D35*
%TO.C,C34*%
X112725000Y-89037482D03*
X112725000Y-86962482D03*
%TD*%
D20*
%TO.C,C51*%
X157186500Y-135530580D03*
X159261500Y-135530580D03*
%TD*%
D10*
%TO.C,R31*%
X114561160Y-132825000D03*
X112561160Y-132825000D03*
%TD*%
D17*
%TO.C,R6*%
X168500000Y-134000000D03*
X170500000Y-134000000D03*
%TD*%
D10*
%TO.C,R42*%
X155474000Y-133530580D03*
X153474000Y-133530580D03*
%TD*%
D17*
%TO.C,R22*%
X125725000Y-97924982D03*
X127725000Y-97924982D03*
%TD*%
%TO.C,R34*%
X112561160Y-134825000D03*
X114561160Y-134825000D03*
%TD*%
D12*
%TO.C,C9*%
X178000000Y-135750000D03*
X175925000Y-135750000D03*
%TD*%
D29*
%TO.C,C3_RETRY1*%
X176500000Y-119900000D03*
X176500000Y-121625000D03*
%TD*%
%TO.C,C22*%
X118250000Y-145775000D03*
X118250000Y-147500000D03*
%TD*%
D11*
%TO.C,C7*%
X172000000Y-136675000D03*
X172000000Y-138750000D03*
%TD*%
D19*
%TO.C,C29*%
X173500000Y-104200000D03*
X175225000Y-104200000D03*
%TD*%
D21*
%TO.C,C19*%
X173750000Y-136725000D03*
X173750000Y-135000000D03*
%TD*%
D12*
%TO.C,C21*%
X178000000Y-137750000D03*
X175925000Y-137750000D03*
%TD*%
D14*
%TO.C,U12*%
X183912500Y-100900000D03*
X183912500Y-100100000D03*
D15*
X184862500Y-99750000D03*
X184862500Y-100250000D03*
X184862500Y-100750000D03*
X184862500Y-101250000D03*
X182962500Y-101250000D03*
X182962500Y-100750000D03*
X182962500Y-100250000D03*
X182962500Y-99750000D03*
%TD*%
D26*
%TO.C,U15*%
X153224000Y-126080580D03*
X154494000Y-126080580D03*
X155764000Y-126080580D03*
X157034000Y-126080580D03*
X157034000Y-131030580D03*
X155764000Y-131030580D03*
X154494000Y-131030580D03*
X153224000Y-131030580D03*
%TD*%
D27*
%TO.C,IC8*%
X175575000Y-105700000D03*
X175575000Y-106350000D03*
X175575000Y-107000000D03*
X173475000Y-107000000D03*
X173475000Y-106350000D03*
X173475000Y-105700000D03*
D28*
X174525000Y-106350000D03*
%TD*%
D17*
%TO.C,R5*%
X168500000Y-132000000D03*
X170500000Y-132000000D03*
%TD*%
D10*
%TO.C,R25*%
X127725000Y-99924982D03*
X125725000Y-99924982D03*
%TD*%
%TO.C,R41*%
X158224000Y-122280580D03*
X156224000Y-122280580D03*
%TD*%
D13*
%TO.C,R14*%
X181412500Y-95325000D03*
X181412500Y-93500000D03*
%TD*%
D10*
%TO.C,R18*%
X116725000Y-94174982D03*
X114725000Y-94174982D03*
%TD*%
D23*
%TO.C,C57*%
X165062500Y-121800000D03*
X163337500Y-121800000D03*
%TD*%
M02*
