%TF.GenerationSoftware,KiCad,Pcbnew,9.0.4*%
%TF.CreationDate,2025-12-11T07:36:02-07:00*%
%TF.ProjectId,command_data_handling_v0.5,636f6d6d-616e-4645-9f64-6174615f6861,v0.1*%
%TF.SameCoordinates,Original*%
%TF.FileFunction,Paste,Top*%
%TF.FilePolarity,Positive*%
%FSLAX46Y46*%
G04 Gerber Fmt 4.6, Leading zero omitted, Abs format (unit mm)*
G04 Created by KiCad (PCBNEW 9.0.4) date 2025-12-11 07:36:02*
%MOMM*%
%LPD*%
G01*
G04 APERTURE LIST*
G04 Aperture macros list*
%AMRoundRect*
0 Rectangle with rounded corners*
0 $1 Rounding radius*
0 $2 $3 $4 $5 $6 $7 $8 $9 X,Y pos of 4 corners*
0 Add a 4 corners polygon primitive as box body*
4,1,4,$2,$3,$4,$5,$6,$7,$8,$9,$2,$3,0*
0 Add four circle primitives for the rounded corners*
1,1,$1+$1,$2,$3*
1,1,$1+$1,$4,$5*
1,1,$1+$1,$6,$7*
1,1,$1+$1,$8,$9*
0 Add four rect primitives between the rounded corners*
20,1,$1+$1,$2,$3,$4,$5,0*
20,1,$1+$1,$4,$5,$6,$7,0*
20,1,$1+$1,$6,$7,$8,$9,0*
20,1,$1+$1,$8,$9,$2,$3,0*%
G04 Aperture macros list end*
%ADD10R,1.397200X0.457400*%
%ADD11R,1.399000X0.374000*%
%ADD12R,0.524000X0.274000*%
%ADD13R,1.024000X1.624000*%
%ADD14RoundRect,0.234166X0.427834X-0.327834X0.427834X0.327834X-0.427834X0.327834X-0.427834X-0.327834X0*%
%ADD15RoundRect,0.056000X-0.681000X-0.056000X0.681000X-0.056000X0.681000X0.056000X-0.681000X0.056000X0*%
%ADD16RoundRect,0.056000X-0.056000X-0.681000X0.056000X-0.681000X0.056000X0.681000X-0.056000X0.681000X0*%
%ADD17RoundRect,0.234166X-0.427834X0.327834X-0.427834X-0.327834X0.427834X-0.327834X0.427834X0.327834X0*%
%ADD18RoundRect,0.131000X0.568500X0.131000X-0.568500X0.131000X-0.568500X-0.131000X0.568500X-0.131000X0*%
%ADD19RoundRect,0.131000X0.131000X-0.806000X0.131000X0.806000X-0.131000X0.806000X-0.131000X-0.806000X0*%
%ADD20RoundRect,0.090000X-0.139000X-0.090000X0.139000X-0.090000X0.139000X0.090000X-0.139000X0.090000X0*%
%ADD21RoundRect,0.131000X0.131000X-0.568500X0.131000X0.568500X-0.131000X0.568500X-0.131000X-0.568500X0*%
%ADD22RoundRect,0.234166X0.327834X0.427834X-0.327834X0.427834X-0.327834X-0.427834X0.327834X-0.427834X0*%
%ADD23RoundRect,0.131000X-0.568500X-0.131000X0.568500X-0.131000X0.568500X0.131000X-0.568500X0.131000X0*%
%ADD24RoundRect,0.131000X-0.131000X0.568500X-0.131000X-0.568500X0.131000X-0.568500X0.131000X0.568500X0*%
%ADD25RoundRect,0.234166X-0.327834X-0.427834X0.327834X-0.427834X0.327834X0.427834X-0.327834X0.427834X0*%
%ADD26RoundRect,0.218500X-0.281000X-0.218500X0.281000X-0.218500X0.281000X0.218500X-0.281000X0.218500X0*%
%ADD27RoundRect,0.218500X-0.231000X-0.218500X0.231000X-0.218500X0.231000X0.218500X-0.231000X0.218500X0*%
%ADD28R,0.824000X0.924000*%
%ADD29RoundRect,0.239444X0.622556X-0.972556X0.622556X0.972556X-0.622556X0.972556X-0.622556X-0.972556X0*%
%ADD30RoundRect,0.233830X-0.315670X-0.453170X0.315670X-0.453170X0.315670X0.453170X-0.315670X0.453170X0*%
%ADD31C,0.214000*%
%ADD32RoundRect,0.218500X0.281000X0.218500X-0.281000X0.218500X-0.281000X-0.218500X0.281000X-0.218500X0*%
G04 APERTURE END LIST*
D10*
%TO.C,U7*%
X180166000Y-104750000D03*
X180166000Y-106020000D03*
X180166000Y-107290000D03*
X180166000Y-108560000D03*
X187659000Y-108560000D03*
X187659000Y-107290000D03*
X187659000Y-106020000D03*
X187659000Y-104750000D03*
%TD*%
D11*
%TO.C,IC9*%
X167000000Y-109775000D03*
X167000000Y-109125000D03*
X167000000Y-108475000D03*
X167000000Y-107825000D03*
X167000000Y-107175000D03*
X167000000Y-106525000D03*
X167000000Y-105875000D03*
X167000000Y-105225000D03*
X161124000Y-105225000D03*
X161124000Y-105875000D03*
X161124000Y-106525000D03*
X161124000Y-107175000D03*
X161124000Y-107825000D03*
X161124000Y-108475000D03*
X161124000Y-109125000D03*
X161124000Y-109775000D03*
%TD*%
D12*
%TO.C,IC1*%
X140325000Y-97574982D03*
X140325000Y-96924982D03*
X140325000Y-96274982D03*
X138225000Y-96274982D03*
X138225000Y-96924982D03*
X138225000Y-97574982D03*
D13*
X139275000Y-96924982D03*
%TD*%
D14*
%TO.C,R48*%
X158099000Y-135899330D03*
X158099000Y-133899330D03*
%TD*%
D15*
%TO.C,U4*%
X170650000Y-129500000D03*
X170650000Y-130000000D03*
X170650000Y-130500000D03*
X170650000Y-131000000D03*
X170650000Y-131500000D03*
X170650000Y-132000000D03*
X170650000Y-132500000D03*
X170650000Y-133000000D03*
X170650000Y-133500000D03*
X170650000Y-134000000D03*
X170650000Y-134500000D03*
X170650000Y-135000000D03*
X170650000Y-135500000D03*
X170650000Y-136000000D03*
X170650000Y-136500000D03*
X170650000Y-137000000D03*
D16*
X172575000Y-138925000D03*
X173075000Y-138925000D03*
X173575000Y-138925000D03*
X174075000Y-138925000D03*
X174575000Y-138925000D03*
X175075000Y-138925000D03*
X175575000Y-138925000D03*
X176075000Y-138925000D03*
X176575000Y-138925000D03*
X177075000Y-138925000D03*
X177575000Y-138925000D03*
X178075000Y-138925000D03*
X178575000Y-138925000D03*
X179075000Y-138925000D03*
X179575000Y-138925000D03*
X180075000Y-138925000D03*
D15*
X182000000Y-137000000D03*
X182000000Y-136500000D03*
X182000000Y-136000000D03*
X182000000Y-135500000D03*
X182000000Y-135000000D03*
X182000000Y-134500000D03*
X182000000Y-134000000D03*
X182000000Y-133500000D03*
X182000000Y-133000000D03*
X182000000Y-132500000D03*
X182000000Y-132000000D03*
X182000000Y-131500000D03*
X182000000Y-131000000D03*
X182000000Y-130500000D03*
X182000000Y-130000000D03*
X182000000Y-129500000D03*
D16*
X180075000Y-127575000D03*
X179575000Y-127575000D03*
X179075000Y-127575000D03*
X178575000Y-127575000D03*
X178075000Y-127575000D03*
X177575000Y-127575000D03*
X177075000Y-127575000D03*
X176575000Y-127575000D03*
X176075000Y-127575000D03*
X175575000Y-127575000D03*
X175075000Y-127575000D03*
X174575000Y-127575000D03*
X174075000Y-127575000D03*
X173575000Y-127575000D03*
X173075000Y-127575000D03*
X172575000Y-127575000D03*
%TD*%
D17*
%TO.C,R2_ILIM1*%
X183036250Y-70250000D03*
X183036250Y-72250000D03*
%TD*%
D12*
%TO.C,IC4*%
X181286250Y-72800000D03*
X181286250Y-72150000D03*
X181286250Y-71500000D03*
X179186250Y-71500000D03*
X179186250Y-72150000D03*
X179186250Y-72800000D03*
D13*
X180236250Y-72150000D03*
%TD*%
D18*
%TO.C,Q12*%
X125568750Y-120250000D03*
X125568750Y-118350000D03*
X123693750Y-119300000D03*
%TD*%
D19*
%TO.C,U2*%
X185055029Y-84725000D03*
X186325029Y-84725000D03*
X187595029Y-84725000D03*
X188865029Y-84725000D03*
X188865029Y-79775000D03*
X187595029Y-79775000D03*
X186325029Y-79775000D03*
X185055029Y-79775000D03*
%TD*%
D12*
%TO.C,IC5*%
X181305029Y-82900000D03*
X181305029Y-82250000D03*
X181305029Y-81600000D03*
X179205029Y-81600000D03*
X179205029Y-82250000D03*
X179205029Y-82900000D03*
D13*
X180255029Y-82250000D03*
%TD*%
D18*
%TO.C,Q5*%
X113073660Y-124950000D03*
X113073660Y-123050000D03*
X111198660Y-124000000D03*
%TD*%
D20*
%TO.C,D3*%
X128910000Y-129500000D03*
X129775000Y-129500000D03*
%TD*%
D21*
%TO.C,Q9*%
X152399000Y-139836830D03*
X154299000Y-139836830D03*
X153349000Y-137961830D03*
%TD*%
D18*
%TO.C,Q17*%
X164937500Y-119950000D03*
X164937500Y-118050000D03*
X163062500Y-119000000D03*
%TD*%
D22*
%TO.C,R17*%
X153750000Y-92250000D03*
X151750000Y-92250000D03*
%TD*%
D23*
%TO.C,Q15*%
X131631250Y-118350000D03*
X131631250Y-120250000D03*
X133506250Y-119300000D03*
%TD*%
D20*
%TO.C,D4*%
X167885000Y-131000000D03*
X168750000Y-131000000D03*
%TD*%
D24*
%TO.C,Q2*%
X117036160Y-137000000D03*
X115136160Y-137000000D03*
X116086160Y-138875000D03*
%TD*%
D25*
%TO.C,R8*%
X136000000Y-143250000D03*
X138000000Y-143250000D03*
%TD*%
D21*
%TO.C,Q4*%
X111686160Y-138875000D03*
X113586160Y-138875000D03*
X112636160Y-137000000D03*
%TD*%
D26*
%TO.C,C3*%
X138462500Y-99074982D03*
X140187500Y-99074982D03*
%TD*%
D27*
%TO.C,R11*%
X178925000Y-112500000D03*
X180750000Y-112500000D03*
%TD*%
D25*
%TO.C,R7*%
X176250000Y-143000000D03*
X178250000Y-143000000D03*
%TD*%
D17*
%TO.C,R4_FAULT1*%
X177500000Y-80250000D03*
X177500000Y-82250000D03*
%TD*%
D14*
%TO.C,R33*%
X111086160Y-135000000D03*
X111086160Y-133000000D03*
%TD*%
D28*
%TO.C,S2*%
X176650000Y-147500000D03*
X180750000Y-147500000D03*
X180750000Y-145900000D03*
X176650000Y-145900000D03*
%TD*%
D25*
%TO.C,R56*%
X127631250Y-118050000D03*
X129631250Y-118050000D03*
%TD*%
D23*
%TO.C,Q8*%
X156399000Y-127711830D03*
X156399000Y-129611830D03*
X158274000Y-128661830D03*
%TD*%
D18*
%TO.C,Q10*%
X153899000Y-125961830D03*
X153899000Y-124061830D03*
X152024000Y-125011830D03*
%TD*%
D26*
%TO.C,C24*%
X179423750Y-74250000D03*
X181148750Y-74250000D03*
%TD*%
D22*
%TO.C,R38*%
X117336160Y-124250000D03*
X115336160Y-124250000D03*
%TD*%
D29*
%TO.C,D8*%
X147250000Y-89500000D03*
X147250000Y-85500000D03*
%TD*%
D23*
%TO.C,Q16*%
X167200000Y-123600000D03*
X167200000Y-125500000D03*
X169075000Y-124550000D03*
%TD*%
D20*
%TO.C,D5*%
X167885000Y-130250000D03*
X168750000Y-130250000D03*
%TD*%
D29*
%TO.C,D7*%
X143750000Y-89500000D03*
X143750000Y-85500000D03*
%TD*%
D30*
%TO.C,C54*%
X156111500Y-131711830D03*
X158186500Y-131711830D03*
%TD*%
D23*
%TO.C,Q20*%
X170862500Y-118050000D03*
X170862500Y-119950000D03*
X172737500Y-119000000D03*
%TD*%
D27*
%TO.C,R10*%
X178925000Y-111000000D03*
X180750000Y-111000000D03*
%TD*%
D15*
%TO.C,U3*%
X131650000Y-129500000D03*
X131650000Y-130000000D03*
X131650000Y-130500000D03*
X131650000Y-131000000D03*
X131650000Y-131500000D03*
X131650000Y-132000000D03*
X131650000Y-132500000D03*
X131650000Y-133000000D03*
X131650000Y-133500000D03*
X131650000Y-134000000D03*
X131650000Y-134500000D03*
X131650000Y-135000000D03*
X131650000Y-135500000D03*
X131650000Y-136000000D03*
X131650000Y-136500000D03*
X131650000Y-137000000D03*
D16*
X133575000Y-138925000D03*
X134075000Y-138925000D03*
X134575000Y-138925000D03*
X135075000Y-138925000D03*
X135575000Y-138925000D03*
X136075000Y-138925000D03*
X136575000Y-138925000D03*
X137075000Y-138925000D03*
X137575000Y-138925000D03*
X138075000Y-138925000D03*
X138575000Y-138925000D03*
X139075000Y-138925000D03*
X139575000Y-138925000D03*
X140075000Y-138925000D03*
X140575000Y-138925000D03*
X141075000Y-138925000D03*
D15*
X143000000Y-137000000D03*
X143000000Y-136500000D03*
X143000000Y-136000000D03*
X143000000Y-135500000D03*
X143000000Y-135000000D03*
X143000000Y-134500000D03*
X143000000Y-134000000D03*
X143000000Y-133500000D03*
X143000000Y-133000000D03*
X143000000Y-132500000D03*
X143000000Y-132000000D03*
X143000000Y-131500000D03*
X143000000Y-131000000D03*
X143000000Y-130500000D03*
X143000000Y-130000000D03*
X143000000Y-129500000D03*
D16*
X141075000Y-127575000D03*
X140575000Y-127575000D03*
X140075000Y-127575000D03*
X139575000Y-127575000D03*
X139075000Y-127575000D03*
X138575000Y-127575000D03*
X138075000Y-127575000D03*
X137575000Y-127575000D03*
X137075000Y-127575000D03*
X136575000Y-127575000D03*
X136075000Y-127575000D03*
X135575000Y-127575000D03*
X135075000Y-127575000D03*
X134575000Y-127575000D03*
X134075000Y-127575000D03*
X133575000Y-127575000D03*
%TD*%
D30*
%TO.C,C47*%
X111311160Y-130750000D03*
X113386160Y-130750000D03*
%TD*%
D24*
%TO.C,Q7*%
X157799000Y-137961830D03*
X155899000Y-137961830D03*
X156849000Y-139836830D03*
%TD*%
D22*
%TO.C,R57*%
X169000000Y-121800000D03*
X167000000Y-121800000D03*
%TD*%
D30*
%TO.C,C48*%
X115136160Y-130750000D03*
X117211160Y-130750000D03*
%TD*%
D31*
%TO.C,IC16*%
X122225000Y-91174982D03*
X122225000Y-91674982D03*
X122225000Y-92174982D03*
X122225000Y-92674982D03*
X122225000Y-93174982D03*
X122225000Y-93674982D03*
X122225000Y-94174982D03*
X122225000Y-94674982D03*
X122225000Y-95174982D03*
X122225000Y-95674982D03*
X122225000Y-96174982D03*
X122225000Y-96674982D03*
X122225000Y-97174982D03*
X122225000Y-97674982D03*
X121725000Y-91174982D03*
X121725000Y-91674982D03*
X121725000Y-92174982D03*
X121725000Y-92674982D03*
X121725000Y-93174982D03*
X121725000Y-93674982D03*
X121725000Y-94174982D03*
X121725000Y-94674982D03*
X121725000Y-95174982D03*
X121725000Y-95674982D03*
X121725000Y-96174982D03*
X121725000Y-96674982D03*
X121725000Y-97174982D03*
X121725000Y-97674982D03*
X121225000Y-91174982D03*
X121225000Y-91674982D03*
X121225000Y-92174982D03*
X121225000Y-92674982D03*
X121225000Y-93174982D03*
X121225000Y-93674982D03*
X121225000Y-94174982D03*
X121225000Y-94674982D03*
X121225000Y-95174982D03*
X121225000Y-95674982D03*
X121225000Y-96174982D03*
X121225000Y-96674982D03*
X121225000Y-97174982D03*
X121225000Y-97674982D03*
X120725000Y-91174982D03*
X120725000Y-91674982D03*
X120725000Y-92174982D03*
X120725000Y-92674982D03*
X120725000Y-96674982D03*
X120725000Y-97174982D03*
X120725000Y-97674982D03*
X120225000Y-91174982D03*
X120225000Y-91674982D03*
X120225000Y-92174982D03*
X120225000Y-93174982D03*
X120225000Y-93674982D03*
X120225000Y-94174982D03*
X120225000Y-94674982D03*
X120225000Y-95174982D03*
X120225000Y-95674982D03*
X120225000Y-96674982D03*
X120225000Y-97174982D03*
X120225000Y-97674982D03*
X119725000Y-91174982D03*
X119725000Y-91674982D03*
X119725000Y-92174982D03*
X119725000Y-93174982D03*
X119725000Y-95674982D03*
X119725000Y-96674982D03*
X119725000Y-97174982D03*
X119725000Y-97674982D03*
X119225000Y-91174982D03*
X119225000Y-91674982D03*
X119225000Y-92174982D03*
X119225000Y-93174982D03*
X119225000Y-95674982D03*
X119225000Y-96674982D03*
X119225000Y-97174982D03*
X119225000Y-97674982D03*
X118725000Y-91174982D03*
X118725000Y-91674982D03*
X118725000Y-92174982D03*
X118725000Y-93174982D03*
X118725000Y-95674982D03*
X118725000Y-96674982D03*
X118725000Y-97174982D03*
X118725000Y-97674982D03*
X118225000Y-91174982D03*
X118225000Y-91674982D03*
X118225000Y-92174982D03*
X118225000Y-93174982D03*
X118225000Y-95674982D03*
X118225000Y-96674982D03*
X118225000Y-97174982D03*
X118225000Y-97674982D03*
X117725000Y-91174982D03*
X117725000Y-91674982D03*
X117725000Y-92174982D03*
X117725000Y-93174982D03*
X117725000Y-93674982D03*
X117725000Y-94174982D03*
X117725000Y-94674982D03*
X117725000Y-95174982D03*
X117725000Y-95674982D03*
X117725000Y-96674982D03*
X117725000Y-97174982D03*
X117725000Y-97674982D03*
X117225000Y-91174982D03*
X117225000Y-91674982D03*
X117225000Y-92174982D03*
X117225000Y-96674982D03*
X117225000Y-97174982D03*
X117225000Y-97674982D03*
X116725000Y-91174982D03*
X116725000Y-91674982D03*
X116725000Y-92174982D03*
X116725000Y-92674982D03*
X116725000Y-93174982D03*
X116725000Y-93674982D03*
X116725000Y-94174982D03*
X116725000Y-94674982D03*
X116725000Y-95174982D03*
X116725000Y-95674982D03*
X116725000Y-96174982D03*
X116725000Y-96674982D03*
X116725000Y-97174982D03*
X116725000Y-97674982D03*
X116225000Y-91174982D03*
X116225000Y-91674982D03*
X116225000Y-92174982D03*
X116225000Y-92674982D03*
X116225000Y-93174982D03*
X116225000Y-93674982D03*
X116225000Y-94174982D03*
X116225000Y-94674982D03*
X116225000Y-95174982D03*
X116225000Y-95674982D03*
X116225000Y-96174982D03*
X116225000Y-96674982D03*
X116225000Y-97174982D03*
X116225000Y-97674982D03*
X115725000Y-91174982D03*
X115725000Y-91674982D03*
X115725000Y-92174982D03*
X115725000Y-92674982D03*
X115725000Y-93174982D03*
X115725000Y-93674982D03*
X115725000Y-94174982D03*
X115725000Y-94674982D03*
X115725000Y-95174982D03*
X115725000Y-95674982D03*
X115725000Y-96174982D03*
X115725000Y-96674982D03*
X115725000Y-97174982D03*
X115725000Y-97674982D03*
%TD*%
D18*
%TO.C,Q1*%
X113073660Y-128700000D03*
X113073660Y-126800000D03*
X111198660Y-127750000D03*
%TD*%
D22*
%TO.C,R58*%
X169000000Y-119800000D03*
X167000000Y-119800000D03*
%TD*%
D26*
%TO.C,C31*%
X148025000Y-92250000D03*
X149750000Y-92250000D03*
%TD*%
D32*
%TO.C,C4_RETRY1*%
X181180029Y-80000000D03*
X179455029Y-80000000D03*
%TD*%
D26*
%TO.C,C26*%
X179025000Y-114000000D03*
X180750000Y-114000000D03*
%TD*%
D19*
%TO.C,U1*%
X185018750Y-75070000D03*
X186288750Y-75070000D03*
X187558750Y-75070000D03*
X188828750Y-75070000D03*
X188828750Y-70120000D03*
X187558750Y-70120000D03*
X186288750Y-70120000D03*
X185018750Y-70120000D03*
%TD*%
D14*
%TO.C,R47*%
X156099000Y-135899330D03*
X156099000Y-133899330D03*
%TD*%
D26*
%TO.C,C58*%
X166937500Y-116000000D03*
X168662500Y-116000000D03*
%TD*%
%TO.C,C25*%
X179480029Y-84500000D03*
X181205029Y-84500000D03*
%TD*%
D14*
%TO.C,R37*%
X117136160Y-135000000D03*
X117136160Y-133000000D03*
%TD*%
D10*
%TO.C,U6*%
X180166000Y-98595000D03*
X180166000Y-99865000D03*
X180166000Y-101135000D03*
X180166000Y-102405000D03*
X187659000Y-102405000D03*
X187659000Y-101135000D03*
X187659000Y-99865000D03*
X187659000Y-98595000D03*
%TD*%
D22*
%TO.C,R49*%
X158149000Y-125211830D03*
X156149000Y-125211830D03*
%TD*%
D11*
%TO.C,IC11*%
X167000000Y-98300000D03*
X167000000Y-97650000D03*
X167000000Y-97000000D03*
X167000000Y-96350000D03*
X167000000Y-95700000D03*
X167000000Y-95050000D03*
X167000000Y-94400000D03*
X167000000Y-93750000D03*
X161124000Y-93750000D03*
X161124000Y-94400000D03*
X161124000Y-95050000D03*
X161124000Y-95700000D03*
X161124000Y-96350000D03*
X161124000Y-97000000D03*
X161124000Y-97650000D03*
X161124000Y-98300000D03*
%TD*%
D22*
%TO.C,R50*%
X129631250Y-122050000D03*
X127631250Y-122050000D03*
%TD*%
D17*
%TO.C,R2_FAULT1*%
X177536250Y-70250000D03*
X177536250Y-72250000D03*
%TD*%
%TO.C,R4_ILIM1*%
X182955029Y-80000000D03*
X182955029Y-82000000D03*
%TD*%
D32*
%TO.C,C30*%
X145600000Y-92000000D03*
X143875000Y-92000000D03*
%TD*%
D17*
%TO.C,R7_ILIM1*%
X142088095Y-95074982D03*
X142088095Y-97074982D03*
%TD*%
D32*
%TO.C,C2_RETRY1*%
X181148750Y-70000000D03*
X179423750Y-70000000D03*
%TD*%
D29*
%TO.C,D9*%
X150750000Y-89500000D03*
X150750000Y-85500000D03*
%TD*%
D26*
%TO.C,C56*%
X127656250Y-116300000D03*
X129381250Y-116300000D03*
%TD*%
D18*
%TO.C,Q6*%
X153899000Y-129661830D03*
X153899000Y-127761830D03*
X152024000Y-128711830D03*
%TD*%
D30*
%TO.C,C53*%
X152111500Y-131711830D03*
X154186500Y-131711830D03*
%TD*%
D17*
%TO.C,R7_FAULT1*%
X136588095Y-95324982D03*
X136588095Y-97324982D03*
%TD*%
D28*
%TO.C,S1*%
X116150000Y-147500000D03*
X120250000Y-147500000D03*
X120250000Y-145900000D03*
X116150000Y-145900000D03*
%TD*%
D20*
%TO.C,D2*%
X128910000Y-130250000D03*
X129775000Y-130250000D03*
%TD*%
D11*
%TO.C,IC10*%
X167000000Y-104025000D03*
X167000000Y-103375000D03*
X167000000Y-102725000D03*
X167000000Y-102075000D03*
X167000000Y-101425000D03*
X167000000Y-100775000D03*
X167000000Y-100125000D03*
X167000000Y-99475000D03*
X161124000Y-99475000D03*
X161124000Y-100125000D03*
X161124000Y-100775000D03*
X161124000Y-101425000D03*
X161124000Y-102075000D03*
X161124000Y-102725000D03*
X161124000Y-103375000D03*
X161124000Y-104025000D03*
%TD*%
D20*
%TO.C,D6*%
X167885000Y-129500000D03*
X168750000Y-129500000D03*
%TD*%
D22*
%TO.C,R9*%
X174500000Y-143000000D03*
X172500000Y-143000000D03*
%TD*%
%TO.C,R51*%
X129631250Y-120050000D03*
X127631250Y-120050000D03*
%TD*%
D14*
%TO.C,R44*%
X152099000Y-135899330D03*
X152099000Y-133899330D03*
%TD*%
D11*
%TO.C,IC15*%
X134723515Y-104299982D03*
X134723515Y-104949982D03*
X134723515Y-105599982D03*
X134723515Y-106249982D03*
X134723515Y-106899982D03*
X134723515Y-107549982D03*
X134723515Y-108199982D03*
X134723515Y-108849982D03*
X140599515Y-108849982D03*
X140599515Y-108199982D03*
X140599515Y-107549982D03*
X140599515Y-106899982D03*
X140599515Y-106249982D03*
X140599515Y-105599982D03*
X140599515Y-104949982D03*
X140599515Y-104299982D03*
%TD*%
D25*
%TO.C,R63*%
X167000000Y-117800000D03*
X169000000Y-117800000D03*
%TD*%
D14*
%TO.C,R46*%
X154099000Y-135899330D03*
X154099000Y-133899330D03*
%TD*%
D20*
%TO.C,D1*%
X128910000Y-131000000D03*
X129775000Y-131000000D03*
%TD*%
D14*
%TO.C,R36*%
X115136160Y-135000000D03*
X115136160Y-133000000D03*
%TD*%
D10*
%TO.C,U5*%
X180169500Y-92505600D03*
X180169500Y-93775600D03*
X180169500Y-95045600D03*
X180169500Y-96315600D03*
X187662500Y-96315600D03*
X187662500Y-95045600D03*
X187662500Y-93775600D03*
X187662500Y-92505600D03*
%TD*%
D32*
%TO.C,C7_RETRY1*%
X140187500Y-94824982D03*
X138462500Y-94824982D03*
%TD*%
D14*
%TO.C,R35*%
X113086160Y-135000000D03*
X113086160Y-133000000D03*
%TD*%
D11*
%TO.C,IC12*%
X167000000Y-92525000D03*
X167000000Y-91875000D03*
X167000000Y-91225000D03*
X167000000Y-90575000D03*
X167000000Y-89925000D03*
X167000000Y-89275000D03*
X167000000Y-88625000D03*
X167000000Y-87975000D03*
X161124000Y-87975000D03*
X161124000Y-88625000D03*
X161124000Y-89275000D03*
X161124000Y-89925000D03*
X161124000Y-90575000D03*
X161124000Y-91225000D03*
X161124000Y-91875000D03*
X161124000Y-92525000D03*
%TD*%
D23*
%TO.C,Q11*%
X127756250Y-123850000D03*
X127756250Y-125750000D03*
X129631250Y-124800000D03*
%TD*%
%TO.C,Q3*%
X115448660Y-126800000D03*
X115448660Y-128700000D03*
X117323660Y-127750000D03*
%TD*%
M02*
