%TF.GenerationSoftware,KiCad,Pcbnew,9.0.4*%
%TF.CreationDate,2025-12-11T07:36:02-07:00*%
%TF.ProjectId,command_data_handling_v0.5,636f6d6d-616e-4645-9f64-6174615f6861,v0.1*%
%TF.SameCoordinates,Original*%
%TF.FileFunction,Copper,L3,Inr*%
%TF.FilePolarity,Positive*%
%FSLAX46Y46*%
G04 Gerber Fmt 4.6, Leading zero omitted, Abs format (unit mm)*
G04 Created by KiCad (PCBNEW 9.0.4) date 2025-12-11 07:36:02*
%MOMM*%
%LPD*%
G01*
G04 APERTURE LIST*
%TA.AperFunction,ComponentPad*%
%ADD10C,1.400000*%
%TD*%
%TA.AperFunction,ComponentPad*%
%ADD11R,1.700000X1.700000*%
%TD*%
%TA.AperFunction,ComponentPad*%
%ADD12C,1.700000*%
%TD*%
%TA.AperFunction,ComponentPad*%
%ADD13R,1.390000X1.390000*%
%TD*%
%TA.AperFunction,ComponentPad*%
%ADD14C,1.390000*%
%TD*%
%TA.AperFunction,ViaPad*%
%ADD15C,0.600000*%
%TD*%
%TA.AperFunction,Conductor*%
%ADD16C,0.200000*%
%TD*%
%TA.AperFunction,Conductor*%
%ADD17C,0.101600*%
%TD*%
%TA.AperFunction,Conductor*%
%ADD18C,0.300000*%
%TD*%
G04 APERTURE END LIST*
D10*
%TO.N,GND*%
%TO.C,JP2*%
X173500000Y-148000000D03*
%TO.N,Net-(JP2-B)*%
X170960000Y-148000000D03*
%TD*%
%TO.N,GND*%
%TO.C,JP1*%
X123500000Y-148000000D03*
%TO.N,Net-(JP1-B)*%
X126040000Y-148000000D03*
%TD*%
D11*
%TO.N,GND*%
%TO.C,J2*%
X145200000Y-115720000D03*
D12*
%TO.N,/VREF1*%
X145200000Y-118260000D03*
%TO.N,Net-(J2-Pin_3)*%
X145200000Y-120800000D03*
%TO.N,Net-(J2-Pin_4)*%
X145200000Y-123340000D03*
%TO.N,/NRST1*%
X145200000Y-125880000D03*
%TD*%
D11*
%TO.N,GND*%
%TO.C,J3*%
X183800000Y-116580000D03*
D12*
%TO.N,/VREF2*%
X183800000Y-119120000D03*
%TO.N,Net-(J3-Pin_3)*%
X183800000Y-121660000D03*
%TO.N,Net-(J3-Pin_4)*%
X183800000Y-124200000D03*
%TO.N,/NRST2*%
X183800000Y-126740000D03*
%TD*%
D13*
%TO.N,unconnected-(J1-Pad01)*%
%TO.C,J1*%
X124657500Y-77650000D03*
D14*
%TO.N,unconnected-(J1-Pad02)*%
X124657500Y-80190000D03*
%TO.N,unconnected-(J1-Pad03)*%
X127197500Y-77650000D03*
%TO.N,unconnected-(J1-Pad04)*%
X127197500Y-80190000D03*
%TO.N,unconnected-(J1-Pad05)*%
X129737500Y-77650000D03*
%TO.N,unconnected-(J1-Pad06)*%
X129737500Y-80190000D03*
%TO.N,unconnected-(J1-Pad07)*%
X132277500Y-77650000D03*
%TO.N,unconnected-(J1-Pad08)*%
X132277500Y-80190000D03*
%TO.N,/CDH1_3V3*%
X134817500Y-77650000D03*
%TO.N,unconnected-(J1-Pad10)*%
X134817500Y-80190000D03*
%TO.N,/CDH2_3V3*%
X137357500Y-77650000D03*
%TO.N,unconnected-(J1-Pad12)*%
X137357500Y-80190000D03*
%TO.N,unconnected-(J1-Pad13)*%
X139897500Y-77650000D03*
%TO.N,unconnected-(J1-Pad14)*%
X139897500Y-80190000D03*
%TO.N,unconnected-(J1-Pad15)*%
X142437500Y-77650000D03*
%TO.N,unconnected-(J1-Pad16)*%
X142437500Y-80190000D03*
%TO.N,unconnected-(J1-Pad17)*%
X144977500Y-77650000D03*
%TO.N,unconnected-(J1-Pad18)*%
X144977500Y-80190000D03*
%TO.N,unconnected-(J1-Pad19)*%
X147517500Y-77650000D03*
%TO.N,unconnected-(J1-Pad20)*%
X147517500Y-80190000D03*
%TO.N,unconnected-(J1-Pad21)*%
X150057500Y-77650000D03*
%TO.N,unconnected-(J1-Pad22)*%
X150057500Y-80190000D03*
%TO.N,unconnected-(J1-Pad23)*%
X152597500Y-77650000D03*
%TO.N,unconnected-(J1-Pad24)*%
X152597500Y-80190000D03*
%TO.N,unconnected-(J1-Pad25)*%
X155137500Y-77650000D03*
%TO.N,unconnected-(J1-Pad26)*%
X155137500Y-80190000D03*
%TO.N,unconnected-(J1-Pad27)*%
X157677500Y-77650000D03*
%TO.N,unconnected-(J1-Pad28)*%
X157677500Y-80190000D03*
%TO.N,unconnected-(J1-Pad29)*%
X160217500Y-77650000D03*
%TO.N,unconnected-(J1-Pad30)*%
X160217500Y-80190000D03*
%TO.N,unconnected-(J1-Pad31)*%
X162757500Y-77650000D03*
%TO.N,unconnected-(J1-Pad32)*%
X162757500Y-80190000D03*
%TO.N,unconnected-(J1-Pad33)*%
X165297500Y-77650000D03*
%TO.N,unconnected-(J1-Pad34)*%
X165297500Y-80190000D03*
%TO.N,unconnected-(J1-Pad35)*%
X167837500Y-77650000D03*
%TO.N,GND*%
X167837500Y-80190000D03*
%TO.N,unconnected-(J1-Pad37)*%
X170377500Y-77650000D03*
%TO.N,/CANL*%
X170377500Y-80190000D03*
%TO.N,unconnected-(J1-Pad39)*%
X172917500Y-77650000D03*
%TO.N,/CANH*%
X172917500Y-80190000D03*
%TD*%
D15*
%TO.N,GND*%
X193150000Y-130950000D03*
X101850000Y-103000000D03*
X102850000Y-137000000D03*
X102850000Y-87000000D03*
X103850000Y-73000000D03*
X101850000Y-137000000D03*
X112416160Y-127700521D03*
X195150000Y-100950000D03*
X133850000Y-134825735D03*
X101850000Y-91000000D03*
X103850000Y-83000000D03*
X103850000Y-108000000D03*
X101850000Y-133000000D03*
X194150000Y-97950000D03*
X101850000Y-79000000D03*
X195150000Y-83950000D03*
X163100000Y-114600000D03*
X103850000Y-121000000D03*
X101850000Y-132000000D03*
X195150000Y-72950000D03*
X102850000Y-111000000D03*
X103850000Y-134000000D03*
X129400000Y-94900000D03*
X103850000Y-138000000D03*
X195150000Y-137950000D03*
X194150000Y-140950000D03*
X102850000Y-82000000D03*
X194150000Y-90950000D03*
X101850000Y-104000000D03*
X194150000Y-101950000D03*
X101850000Y-114000000D03*
X195150000Y-89950000D03*
X193150000Y-68950000D03*
X195150000Y-106950000D03*
X102850000Y-84000000D03*
X103850000Y-71000000D03*
X103850000Y-95000000D03*
X102850000Y-125000000D03*
X195150000Y-112950000D03*
X121725000Y-98712482D03*
X195150000Y-102950000D03*
X147300000Y-132600000D03*
X103850000Y-101000000D03*
X195150000Y-97950000D03*
X193150000Y-136950000D03*
X103850000Y-104000000D03*
X195150000Y-109950000D03*
X195150000Y-131950000D03*
X195150000Y-144950000D03*
X103850000Y-117000000D03*
X122881250Y-122050000D03*
X141200000Y-132100000D03*
X164500000Y-85000000D03*
X101850000Y-112000000D03*
X193150000Y-115950000D03*
X193150000Y-113950000D03*
X103850000Y-77000000D03*
X194150000Y-105950000D03*
X103850000Y-136000000D03*
X195150000Y-99950000D03*
X173100000Y-73600000D03*
X194150000Y-86950000D03*
X193150000Y-85950000D03*
X195150000Y-138950000D03*
X102850000Y-136000000D03*
X103850000Y-141000000D03*
X163200000Y-134900000D03*
X101850000Y-136000000D03*
X193150000Y-97950000D03*
X195150000Y-107950000D03*
X193150000Y-134950000D03*
X195150000Y-133950000D03*
X118336160Y-119550000D03*
X102850000Y-80000000D03*
X103850000Y-103000000D03*
X159436500Y-120211830D03*
X194150000Y-112950000D03*
X101850000Y-97000000D03*
X193150000Y-137950000D03*
X102850000Y-91000000D03*
X133250000Y-130750000D03*
X102850000Y-140000000D03*
X195150000Y-104950000D03*
X194150000Y-96950000D03*
X194150000Y-137950000D03*
X152600000Y-101000000D03*
X102850000Y-95000000D03*
X193150000Y-117950000D03*
X195150000Y-122950000D03*
X194150000Y-82950000D03*
X103850000Y-119000000D03*
X195150000Y-113950000D03*
X162300000Y-128700000D03*
X194150000Y-129950000D03*
X195150000Y-74950000D03*
X101850000Y-95000000D03*
X162400000Y-84900000D03*
X194150000Y-68950000D03*
X194150000Y-113950000D03*
X152600000Y-102700000D03*
X148000000Y-102700000D03*
X101850000Y-88000000D03*
X102850000Y-83000000D03*
X194150000Y-87950000D03*
X194150000Y-73950000D03*
X195150000Y-143950000D03*
X193150000Y-95950000D03*
X193150000Y-83950000D03*
X194150000Y-136950000D03*
X194150000Y-138950000D03*
X144300000Y-106500000D03*
X101850000Y-69000000D03*
X102850000Y-127000000D03*
X101850000Y-116000000D03*
X149200000Y-96500000D03*
X103850000Y-105000000D03*
X148900000Y-113600000D03*
X141000000Y-140250000D03*
X133881250Y-120300000D03*
X101850000Y-83000000D03*
X193150000Y-99950000D03*
X172250000Y-130750000D03*
X181100000Y-117000000D03*
X103850000Y-100000000D03*
X193150000Y-112950000D03*
X102850000Y-104000000D03*
X147400000Y-139500000D03*
X193150000Y-72950000D03*
X194150000Y-98950000D03*
X102850000Y-96000000D03*
X193150000Y-77950000D03*
X193150000Y-143950000D03*
X101850000Y-75000000D03*
X193150000Y-94950000D03*
X102850000Y-105000000D03*
X103850000Y-120000000D03*
X145400000Y-95900000D03*
X195150000Y-142950000D03*
X194150000Y-83950000D03*
X101850000Y-72000000D03*
X194150000Y-125950000D03*
X193150000Y-141950000D03*
X103850000Y-93000000D03*
X103850000Y-107000000D03*
X194150000Y-89950000D03*
X194150000Y-104950000D03*
X103850000Y-86000000D03*
X193150000Y-140950000D03*
X193150000Y-135950000D03*
X194150000Y-142950000D03*
X194150000Y-127950000D03*
X102850000Y-108000000D03*
X177200000Y-112000000D03*
X103850000Y-91000000D03*
X193150000Y-109950000D03*
X173900000Y-83600000D03*
X194150000Y-74950000D03*
X194150000Y-133950000D03*
X162600000Y-113100000D03*
X195150000Y-101950000D03*
X177000000Y-130000000D03*
X194150000Y-77950000D03*
X102850000Y-76000000D03*
X186286250Y-76750000D03*
X103850000Y-139000000D03*
X103850000Y-124000000D03*
X102850000Y-118000000D03*
X168250000Y-99250000D03*
X116114205Y-128002285D03*
X182955029Y-83150000D03*
X102850000Y-70000000D03*
X193150000Y-103950000D03*
X103850000Y-106000000D03*
X193150000Y-76950000D03*
X184813500Y-96200000D03*
X103850000Y-72000000D03*
X195150000Y-141950000D03*
X194150000Y-80950000D03*
X194150000Y-128950000D03*
X195150000Y-86950000D03*
X170000000Y-116000000D03*
X178475000Y-93100000D03*
X122700000Y-127000000D03*
X114046000Y-140208000D03*
X193150000Y-128950000D03*
X195150000Y-69950000D03*
X146750000Y-92250000D03*
X102850000Y-130000000D03*
X194150000Y-139950000D03*
X194150000Y-79950000D03*
X101850000Y-140000000D03*
X102850000Y-117000000D03*
X101850000Y-93000000D03*
X102850000Y-134000000D03*
X101850000Y-139000000D03*
X101850000Y-74000000D03*
X194150000Y-108950000D03*
X153750000Y-90750000D03*
X194150000Y-106950000D03*
X139098207Y-120450566D03*
X102850000Y-145000000D03*
X193150000Y-86950000D03*
X141738615Y-130299920D03*
X102850000Y-93000000D03*
X194150000Y-71950000D03*
X101850000Y-125000000D03*
X193150000Y-133950000D03*
X195150000Y-111950000D03*
X133300000Y-97500000D03*
X128425000Y-108825000D03*
X102850000Y-75000000D03*
X101850000Y-143000000D03*
X121600000Y-116600000D03*
X101850000Y-86000000D03*
X195150000Y-130950000D03*
X195150000Y-78950000D03*
X102850000Y-69000000D03*
X101850000Y-71000000D03*
X101850000Y-87000000D03*
X101850000Y-115000000D03*
X101850000Y-124000000D03*
X194150000Y-121950000D03*
X141250000Y-134000000D03*
X103850000Y-114000000D03*
X103850000Y-144000000D03*
X114725000Y-86462482D03*
X155900000Y-90800000D03*
X150300000Y-102700000D03*
X159936500Y-136711830D03*
X194150000Y-75950000D03*
X193150000Y-78950000D03*
X101850000Y-77000000D03*
X103850000Y-79000000D03*
X193150000Y-81950000D03*
X180750000Y-115400000D03*
X101850000Y-110000000D03*
X193150000Y-129950000D03*
X173218700Y-141010793D03*
X194150000Y-117950000D03*
X102850000Y-101000000D03*
X185365515Y-105165515D03*
X103850000Y-135000000D03*
X193150000Y-116950000D03*
X194150000Y-85950000D03*
X193150000Y-79950000D03*
X194150000Y-102950000D03*
X117904752Y-109200690D03*
X183036250Y-73500000D03*
X101850000Y-113000000D03*
X150300000Y-104400000D03*
X135400000Y-90100000D03*
X103850000Y-76000000D03*
X102850000Y-121000000D03*
X102850000Y-107000000D03*
X193150000Y-74950000D03*
X113425000Y-95825000D03*
X195150000Y-132950000D03*
X101850000Y-129000000D03*
X101850000Y-76000000D03*
X193150000Y-96950000D03*
X195150000Y-73950000D03*
X194150000Y-103950000D03*
X102850000Y-73000000D03*
X193150000Y-101950000D03*
X102850000Y-98000000D03*
X151300000Y-96500000D03*
X103850000Y-112000000D03*
X193150000Y-98950000D03*
X193150000Y-104950000D03*
X118725000Y-86462482D03*
X101850000Y-100000000D03*
X101850000Y-117000000D03*
X153241500Y-128700510D03*
X101850000Y-89000000D03*
X194150000Y-131950000D03*
X195150000Y-71950000D03*
X102850000Y-131000000D03*
X194150000Y-118950000D03*
X101850000Y-134000000D03*
X102850000Y-138000000D03*
X101850000Y-90000000D03*
X195150000Y-136950000D03*
X180750000Y-144750000D03*
X102850000Y-129000000D03*
X102850000Y-106000000D03*
X155224000Y-123117229D03*
X186300000Y-119800000D03*
X195150000Y-119950000D03*
X112086160Y-120550000D03*
X195150000Y-76950000D03*
X102850000Y-142000000D03*
X101850000Y-131000000D03*
X195150000Y-108950000D03*
X173000000Y-74800000D03*
X103850000Y-80000000D03*
X168250000Y-105000000D03*
X173200000Y-84200000D03*
X113000000Y-90024982D03*
X171975000Y-96350000D03*
X147400000Y-137900000D03*
X102850000Y-86000000D03*
X101850000Y-119000000D03*
X103850000Y-88000000D03*
X101850000Y-120000000D03*
X102850000Y-120000000D03*
X195150000Y-77950000D03*
X103850000Y-97000000D03*
X195150000Y-139950000D03*
X101850000Y-78000000D03*
X179018190Y-136949857D03*
X148000000Y-115700000D03*
X101850000Y-144000000D03*
X101850000Y-85000000D03*
X178750000Y-102250000D03*
X150300000Y-101000000D03*
X103850000Y-129000000D03*
X102850000Y-123000000D03*
X103850000Y-125000000D03*
X102850000Y-116000000D03*
X193150000Y-144950000D03*
X103850000Y-109000000D03*
X147100000Y-131500000D03*
X162250000Y-121750000D03*
X101850000Y-80000000D03*
X193150000Y-88950000D03*
X194150000Y-81950000D03*
X194150000Y-72950000D03*
X193150000Y-87950000D03*
X102850000Y-89000000D03*
X195150000Y-125950000D03*
X194150000Y-126950000D03*
X153874000Y-121285905D03*
X195150000Y-115950000D03*
X160300000Y-143000000D03*
X101850000Y-122000000D03*
X135779815Y-137664566D03*
X101850000Y-126000000D03*
X103850000Y-127000000D03*
X195150000Y-75950000D03*
X194150000Y-110950000D03*
X193150000Y-122950000D03*
X193150000Y-110950000D03*
X195150000Y-140950000D03*
X101850000Y-135000000D03*
X101850000Y-118000000D03*
X101850000Y-128000000D03*
X194150000Y-132950000D03*
X195150000Y-129950000D03*
X102850000Y-88000000D03*
X103850000Y-145000000D03*
X101850000Y-123000000D03*
X102850000Y-110000000D03*
X194150000Y-69950000D03*
X103850000Y-89000000D03*
X103850000Y-82000000D03*
X102850000Y-71000000D03*
X121000000Y-145750000D03*
X180462733Y-130462734D03*
X101850000Y-109000000D03*
X195150000Y-84950000D03*
X101850000Y-127000000D03*
X102850000Y-133000000D03*
X193150000Y-69950000D03*
X101850000Y-111000000D03*
X101850000Y-105000000D03*
X152600000Y-104400000D03*
X193150000Y-124950000D03*
X194150000Y-134950000D03*
X195150000Y-121950000D03*
X194150000Y-84950000D03*
X103850000Y-81000000D03*
X103850000Y-113000000D03*
X101850000Y-107000000D03*
X176700000Y-115500000D03*
X123600000Y-128400000D03*
X165800000Y-84700000D03*
X179250000Y-79000000D03*
X102850000Y-109000000D03*
X155186500Y-140211830D03*
X138338095Y-93824982D03*
X130631250Y-116300000D03*
X194150000Y-119950000D03*
X168250000Y-93500000D03*
X194150000Y-94950000D03*
X102850000Y-78000000D03*
X193150000Y-142950000D03*
X193150000Y-91950000D03*
X103850000Y-94000000D03*
X194150000Y-135950000D03*
X102850000Y-113000000D03*
X102850000Y-81000000D03*
X194150000Y-111950000D03*
X117725000Y-99212482D03*
X148000000Y-104400000D03*
X103850000Y-128000000D03*
X103850000Y-92000000D03*
X193150000Y-125950000D03*
X132200000Y-86900000D03*
X147000000Y-141300000D03*
X194150000Y-100950000D03*
X164600000Y-136700000D03*
X101850000Y-98000000D03*
X125800000Y-102200000D03*
X193150000Y-107950000D03*
X194150000Y-99950000D03*
X188200000Y-115500000D03*
X193150000Y-75950000D03*
X103850000Y-116000000D03*
X193150000Y-102950000D03*
X101850000Y-138000000D03*
X193150000Y-93950000D03*
X194150000Y-130950000D03*
X103850000Y-142000000D03*
X102850000Y-72000000D03*
X147200000Y-142800000D03*
X193150000Y-89950000D03*
X143100000Y-106300000D03*
X194150000Y-95950000D03*
X172225000Y-102900000D03*
X101850000Y-82000000D03*
X103850000Y-131000000D03*
X101850000Y-121000000D03*
X102850000Y-90000000D03*
X103850000Y-75000000D03*
X193150000Y-108950000D03*
X195150000Y-96950000D03*
X193150000Y-90950000D03*
X178475000Y-105700000D03*
X102850000Y-74000000D03*
X195150000Y-79950000D03*
X193150000Y-138950000D03*
X193150000Y-120950000D03*
X195150000Y-124950000D03*
X139700000Y-132000000D03*
X119336160Y-136050000D03*
X195150000Y-123950000D03*
X103850000Y-137000000D03*
X194150000Y-76950000D03*
X173000000Y-120000000D03*
X102850000Y-85000000D03*
X103850000Y-118000000D03*
X113475000Y-94174982D03*
X195150000Y-110950000D03*
X194150000Y-88950000D03*
X194150000Y-115950000D03*
X103850000Y-74000000D03*
X194150000Y-120950000D03*
X193150000Y-106950000D03*
X102850000Y-114000000D03*
X130000000Y-98900000D03*
X103850000Y-98000000D03*
X103850000Y-70000000D03*
X195150000Y-94950000D03*
X193150000Y-92950000D03*
X102850000Y-126000000D03*
X133411515Y-108924982D03*
X195150000Y-120950000D03*
X103850000Y-122000000D03*
X101850000Y-99000000D03*
X162600000Y-129900000D03*
X102850000Y-143000000D03*
X193150000Y-82950000D03*
X102850000Y-144000000D03*
X103850000Y-143000000D03*
X102850000Y-100000000D03*
X102850000Y-92000000D03*
X193150000Y-111950000D03*
X118725000Y-90674982D03*
X193150000Y-84950000D03*
X195150000Y-105950000D03*
X193150000Y-132950000D03*
X194150000Y-144950000D03*
X193150000Y-139950000D03*
X195150000Y-95950000D03*
X195150000Y-116950000D03*
X195150000Y-118950000D03*
X193150000Y-119950000D03*
X195150000Y-127950000D03*
X134000000Y-140500000D03*
X123081000Y-95268761D03*
X193150000Y-123950000D03*
X193150000Y-126950000D03*
X103850000Y-123000000D03*
X194150000Y-122950000D03*
X102850000Y-132000000D03*
X140200000Y-142600000D03*
X102850000Y-139000000D03*
X101850000Y-81000000D03*
X134000000Y-94700000D03*
X150400000Y-142000000D03*
X102850000Y-77000000D03*
X103850000Y-90000000D03*
X195150000Y-91950000D03*
X102850000Y-135000000D03*
X173700000Y-71200000D03*
X195150000Y-85950000D03*
X195150000Y-81950000D03*
X193150000Y-70950000D03*
X102850000Y-79000000D03*
X194150000Y-114950000D03*
X103850000Y-87000000D03*
X174779815Y-137664566D03*
X143200000Y-140200000D03*
X101850000Y-108000000D03*
X103850000Y-130000000D03*
X193150000Y-105950000D03*
X193150000Y-127950000D03*
X101850000Y-141000000D03*
X172850000Y-134750000D03*
X172549265Y-126299265D03*
X194150000Y-93950000D03*
X103850000Y-69000000D03*
X102850000Y-122000000D03*
X120225000Y-90674982D03*
X102850000Y-99000000D03*
X161900000Y-114200000D03*
X135700000Y-134300000D03*
X103850000Y-140000000D03*
X193150000Y-131950000D03*
X195150000Y-128950000D03*
X180250000Y-134000000D03*
X115700000Y-89800000D03*
X102850000Y-141000000D03*
X195150000Y-98950000D03*
X147400000Y-130700000D03*
X195150000Y-68950000D03*
X102850000Y-103000000D03*
X178750000Y-96250000D03*
X194150000Y-123950000D03*
X103850000Y-99000000D03*
X103850000Y-126000000D03*
X102850000Y-128000000D03*
X193150000Y-114950000D03*
X103850000Y-96000000D03*
X193150000Y-121950000D03*
X101850000Y-130000000D03*
X195150000Y-92950000D03*
X178300000Y-116500000D03*
X103850000Y-115000000D03*
X102850000Y-112000000D03*
X185127320Y-98815500D03*
X163200000Y-139500000D03*
X103850000Y-85000000D03*
X163500000Y-142500000D03*
X101850000Y-94000000D03*
X178400000Y-133800000D03*
X195150000Y-88950000D03*
X101850000Y-92000000D03*
X103850000Y-102000000D03*
X114535424Y-122350846D03*
X195150000Y-114950000D03*
X102850000Y-102000000D03*
X101850000Y-73000000D03*
X194150000Y-78950000D03*
X193150000Y-118950000D03*
X195150000Y-103950000D03*
X195150000Y-87950000D03*
X101850000Y-106000000D03*
X195150000Y-135950000D03*
X194150000Y-143950000D03*
X149200000Y-130500000D03*
X127700000Y-102300000D03*
X101850000Y-101000000D03*
X103850000Y-84000000D03*
X193150000Y-100950000D03*
X101850000Y-96000000D03*
X194150000Y-92950000D03*
X101850000Y-102000000D03*
X165300000Y-89300000D03*
X169100000Y-87200000D03*
X102850000Y-124000000D03*
X126700000Y-102200000D03*
X129000000Y-85700000D03*
X177300000Y-113200000D03*
X168250000Y-87750000D03*
X194150000Y-116950000D03*
X194150000Y-70950000D03*
X193150000Y-73950000D03*
X172225000Y-108950000D03*
X138250000Y-129500000D03*
X195150000Y-82950000D03*
X101850000Y-70000000D03*
X102850000Y-115000000D03*
X194150000Y-107950000D03*
X178475000Y-99400000D03*
X177300000Y-102800000D03*
X148000000Y-101000000D03*
X122900000Y-116200000D03*
X157000000Y-128900000D03*
X195150000Y-80950000D03*
X193150000Y-71950000D03*
X102850000Y-119000000D03*
X177481671Y-120036657D03*
X102850000Y-97000000D03*
X194150000Y-109950000D03*
X194150000Y-124950000D03*
X195150000Y-126950000D03*
X102850000Y-94000000D03*
X142088095Y-98074982D03*
X186305029Y-86500000D03*
X101850000Y-145000000D03*
X194150000Y-91950000D03*
X194150000Y-141950000D03*
X195150000Y-90950000D03*
X101850000Y-142000000D03*
X195150000Y-70950000D03*
X139200000Y-134200000D03*
X195150000Y-117950000D03*
X103850000Y-78000000D03*
X195150000Y-93950000D03*
X101850000Y-84000000D03*
X195150000Y-134950000D03*
X178750000Y-108500000D03*
X103850000Y-111000000D03*
X103850000Y-133000000D03*
X124225000Y-86462482D03*
X174400000Y-81900000D03*
X158200000Y-143200000D03*
X132674265Y-126674265D03*
X103850000Y-110000000D03*
X103850000Y-132000000D03*
X179286250Y-69000000D03*
X193150000Y-80950000D03*
%TO.N,/VREF1*%
X141850000Y-123200000D03*
X134734131Y-137713877D03*
X141750000Y-129500000D03*
X134500000Y-129250000D03*
X141250000Y-137750000D03*
%TO.N,Net-(IC5-EN)*%
X181250000Y-79000000D03*
X186150000Y-131500000D03*
%TO.N,/FRAM1_F*%
X170612235Y-90362235D03*
%TO.N,/FRAM2_F*%
X170750000Y-88500000D03*
%TO.N,/NRST1*%
X118650000Y-121882105D03*
X124495693Y-135932000D03*
X125348000Y-128420191D03*
X115000000Y-147500000D03*
X134750000Y-119250000D03*
X127252791Y-132601320D03*
%TO.N,/FRAM3_F*%
X170750000Y-87699997D03*
%TO.N,/EMMC_F*%
X138573530Y-104962967D03*
X138325000Y-106411497D03*
X138874198Y-102364001D03*
X137360039Y-101160039D03*
%TO.N,/CDH1_3V3*%
X152250000Y-141500000D03*
X141000000Y-116500000D03*
X176250000Y-72250000D03*
X142500000Y-85500000D03*
X159100001Y-106043728D03*
X116000000Y-140250000D03*
X142726570Y-113580000D03*
%TO.N,/CDH2_3V3*%
X180000000Y-86000000D03*
X156750000Y-141000000D03*
X176481000Y-82100000D03*
X112268000Y-140208000D03*
X159000000Y-105250000D03*
X157597128Y-85579000D03*
%TO.N,/MCU2_WD*%
X178000000Y-141750000D03*
%TO.N,/VREF2*%
X181150000Y-123800000D03*
X180250000Y-137750000D03*
X180750000Y-129500000D03*
X172750000Y-129500000D03*
X173500000Y-137750000D03*
%TO.N,/NRST2*%
X175750000Y-147500000D03*
X164685569Y-127587042D03*
X179809622Y-126209622D03*
X173250000Y-118250000D03*
%TO.N,/MUX_3V3*%
X176902000Y-84999000D03*
X164948528Y-113100000D03*
X135275000Y-97449247D03*
X171000000Y-98000000D03*
X173750000Y-90500000D03*
X182250000Y-92750000D03*
X181564782Y-106532500D03*
X136600000Y-131400000D03*
X174499000Y-84999000D03*
X163775735Y-113624265D03*
X118492462Y-92667886D03*
X162750000Y-105500000D03*
X182242900Y-100498306D03*
X171800000Y-128200000D03*
X171250000Y-103750000D03*
X161200000Y-138600000D03*
%TO.N,/MUX_SEL*%
X170200000Y-83400000D03*
X171400000Y-84000000D03*
X149600000Y-93700000D03*
X128641600Y-104175598D03*
X135811515Y-104368402D03*
X117960525Y-104110525D03*
%TO.N,/EMMC_VCC*%
X119475000Y-90674982D03*
X113690190Y-90366896D03*
X114725000Y-97424982D03*
X120725000Y-93462482D03*
X113975000Y-93174982D03*
X117725000Y-98462482D03*
%TO.N,/MCU1_WD*%
X139000000Y-142000000D03*
%TO.N,Net-(JP1-B)*%
X123900000Y-140750000D03*
X125100000Y-142000000D03*
%TO.N,Net-(JP2-B)*%
X161950735Y-143650000D03*
X163521416Y-145632000D03*
%TO.N,Net-(IC4-EN)*%
X149026265Y-124572265D03*
X151500000Y-116350000D03*
%TO.N,Net-(U3-VDDA)*%
X133000000Y-135500000D03*
%TO.N,/VCC_MUX*%
X159750000Y-109750000D03*
X110475000Y-103625000D03*
X160000000Y-98250000D03*
X121230988Y-103681788D03*
X159750000Y-104000000D03*
X160000000Y-92500000D03*
X145400000Y-93800000D03*
X158560998Y-85579000D03*
X139343266Y-103056734D03*
%TO.N,Net-(D2-K)*%
X127750000Y-130250000D03*
%TO.N,Net-(D3-K)*%
X128239621Y-129617326D03*
%TO.N,Net-(D4-K)*%
X167250000Y-131000000D03*
%TO.N,Net-(D6-K)*%
X167250000Y-129500000D03*
%TO.N,Net-(U4-VDDA)*%
X172000000Y-135500000D03*
%TO.N,Net-(U3-VBAT)*%
X131400000Y-128000000D03*
%TO.N,Net-(U4-VBAT)*%
X169624265Y-127975735D03*
%TO.N,Net-(U3-VCAP)*%
X140000000Y-137750000D03*
%TO.N,Net-(U4-VCAP)*%
X179000000Y-137750000D03*
%TO.N,Net-(IC16-NC_19)*%
X123475000Y-90674982D03*
%TO.N,/AND_Lock/LCK1_OUT*%
X133250000Y-124500000D03*
%TO.N,Net-(Q14-E)*%
X127631250Y-115300000D03*
%TO.N,/AND_Lock1/LCK1_OUT*%
X172415687Y-124550000D03*
%TO.N,/CLK*%
X113400000Y-95000000D03*
X139400000Y-107000000D03*
%TO.N,Net-(Q19-E)*%
X166000000Y-115750000D03*
%TO.N,Net-(D1-K)*%
X128259093Y-130867112D03*
%TO.N,/DAT6*%
X124225000Y-94875000D03*
%TO.N,Net-(D5-K)*%
X166971609Y-130250002D03*
%TO.N,/CMD*%
X136000000Y-108200000D03*
X117225000Y-92924982D03*
%TO.N,/DAT0*%
X124225000Y-92774991D03*
%TO.N,/DAT4*%
X124871917Y-90838724D03*
%TO.N,/DAT3*%
X122800000Y-91200000D03*
%TO.N,/DAT5*%
X123975000Y-85161482D03*
X120925003Y-90674982D03*
%TO.N,/RST_N*%
X117725000Y-90674982D03*
%TO.N,/DAT1*%
X124225000Y-93474994D03*
%TO.N,/DAT7*%
X124225000Y-95575003D03*
%TO.N,/DAT2*%
X124225000Y-94174997D03*
%TO.N,/IC_I2C_SDA*%
X171629710Y-110620283D03*
X178874000Y-131949997D03*
X180074000Y-131699997D03*
X183979660Y-110620283D03*
%TO.N,/MCU1_I2C1_SCL*%
X136150000Y-124250000D03*
X188896600Y-113750000D03*
X150632526Y-144167474D03*
X181750000Y-115400000D03*
X168750000Y-110500000D03*
%TO.N,/IC_I2C_SCL*%
X178874000Y-132750000D03*
X137415000Y-114615122D03*
X170833394Y-110697001D03*
X180074000Y-132500000D03*
X184000000Y-108750000D03*
X174000000Y-115500000D03*
X140800000Y-115200000D03*
X182000000Y-111220283D03*
X175323000Y-117897283D03*
%TO.N,/MCU2_I2C1_SDA*%
X173005046Y-123986124D03*
X172300471Y-115152000D03*
X168500000Y-106500000D03*
%TO.N,/MCU2_SPI2_MOSI*%
X186081378Y-135540689D03*
X159127883Y-107688337D03*
%TO.N,/MCU2_I2C1_SCL*%
X169632394Y-110697000D03*
X173400000Y-123250000D03*
%TO.N,/MCU_MR*%
X109275800Y-104875000D03*
X153600000Y-144600000D03*
X158593064Y-109720382D03*
X152274600Y-143451864D03*
X120106306Y-104806470D03*
X155200000Y-114600000D03*
X144000000Y-102600000D03*
X141517982Y-90482018D03*
%TO.N,/IC_SI*%
X188895600Y-107505871D03*
X186600000Y-101783875D03*
X186414500Y-96250000D03*
X166249500Y-86850000D03*
%TO.N,/MCU1_SPI2_MOSI*%
X158901318Y-108900000D03*
X152324266Y-116374263D03*
X149626265Y-124006577D03*
%TO.N,/MCU1_I2C1_SDA*%
X169000000Y-108000000D03*
X135049265Y-124950735D03*
X163046000Y-93885973D03*
%TO.N,Net-(IC6-OUT)*%
X187250000Y-91000000D03*
%TO.N,Net-(IC7-OUT)*%
X184200000Y-96700000D03*
%TO.N,Net-(IC8-OUT)*%
X184600000Y-102800000D03*
%TO.N,/MCU1_CS1*%
X149100000Y-141250000D03*
X159350000Y-101250000D03*
%TO.N,/CS1*%
X164451946Y-86850000D03*
X179142708Y-88100000D03*
%TO.N,/IC_SO*%
X168550000Y-113100000D03*
X166000000Y-110697000D03*
%TO.N,/MCU2_WP1*%
X162750000Y-102025000D03*
X188058465Y-130000000D03*
X184250000Y-137500000D03*
X187950735Y-126200735D03*
%TO.N,/MCU1_SPI2_MISO*%
X165850000Y-103500000D03*
X153123900Y-116349999D03*
X150299265Y-123299265D03*
X153920001Y-114150243D03*
%TO.N,/IC_SCK*%
X186500000Y-107250000D03*
X168999000Y-100000000D03*
%TO.N,/MCU1_WP1*%
X159350000Y-102750000D03*
X149000000Y-134250000D03*
%TO.N,/MCU2_SPI2_MISO*%
X168250000Y-102750000D03*
X185742761Y-136265494D03*
%TO.N,/MCU2_CS1*%
X162675000Y-100425000D03*
X188100000Y-125250000D03*
X188750000Y-129250000D03*
X179000000Y-140500000D03*
%TO.N,/WP1*%
X178350000Y-88000000D03*
X165300473Y-86850000D03*
%TO.N,/MCU2_SPI2_SCK*%
X169248000Y-102000000D03*
X186950735Y-127200735D03*
X187000000Y-130616930D03*
X185250000Y-137000000D03*
%TO.N,/MCU1_SPI2_SCK*%
X165250000Y-101750000D03*
X157250000Y-116350000D03*
%TO.N,/MCU2_CS3*%
X159350000Y-94285973D03*
X176692846Y-128761313D03*
%TO.N,/CS2*%
X173391757Y-86707354D03*
X177750000Y-86750000D03*
%TO.N,/MCU1_WP2*%
X168999000Y-97700000D03*
X133448527Y-125900000D03*
%TO.N,/MCU1_CS3*%
X159250000Y-95199997D03*
X141750000Y-117000000D03*
X139350000Y-125296859D03*
X137749000Y-125750000D03*
%TO.N,/MCU1_CS2*%
X132200735Y-125450735D03*
X168750000Y-95750000D03*
%TO.N,/MCU1_WP3*%
X159350001Y-96793728D03*
X136250236Y-123401764D03*
X136000000Y-121450000D03*
%TO.N,/CS3*%
X163046000Y-95835973D03*
X166989406Y-113348000D03*
X178750000Y-104750000D03*
X178000000Y-109500000D03*
%TO.N,/MCU2_WP3*%
X156749000Y-96500000D03*
X157500000Y-112000000D03*
X174299236Y-122450764D03*
X169500000Y-115152000D03*
X159748793Y-114749000D03*
X159250000Y-96000000D03*
%TO.N,/MCU2_CS2*%
X171850000Y-125150000D03*
X168250000Y-95000000D03*
X165250000Y-92250000D03*
X164660476Y-109340231D03*
%TO.N,/WP2*%
X173500000Y-87500000D03*
X177150000Y-87500000D03*
%TO.N,/WP3*%
X163046000Y-98000000D03*
X167789408Y-113348001D03*
%TO.N,/MCU2_WP2*%
X168250000Y-97000000D03*
X162499000Y-108251368D03*
X162499000Y-106500000D03*
X171250000Y-125750000D03*
%TO.N,/MCU2_EMMC_F*%
X178265880Y-124750307D03*
X143811515Y-108124982D03*
%TO.N,/MCU2_RST_N*%
X134000000Y-102364000D03*
X133200000Y-105599982D03*
X165737510Y-133168711D03*
%TO.N,/MCU2_CLK*%
X142011515Y-106724979D03*
X180199000Y-125000000D03*
%TO.N,/MCU2_CMD*%
X165708664Y-132291336D03*
X132678371Y-108078371D03*
%TO.N,/MCU2_DAT4*%
X128425000Y-105625000D03*
X177000000Y-140250000D03*
X105973000Y-119600000D03*
%TO.N,/MCU1_DAT6*%
X122625000Y-107625000D03*
%TO.N,/MCU2_DAT6*%
X107800000Y-110800000D03*
X167250000Y-134750000D03*
X120004575Y-108225625D03*
%TO.N,/MCU2_DAT5*%
X176000000Y-140250000D03*
X110953342Y-101660025D03*
X128310525Y-107510525D03*
X116400000Y-102200000D03*
%TO.N,/MCU1_DAT4*%
X118801250Y-113497277D03*
X137922000Y-140462000D03*
%TO.N,/MCU1_DAT7*%
X122825000Y-106225000D03*
%TO.N,/MCU1_DAT5*%
X123066386Y-110052386D03*
X136906000Y-140462000D03*
%TO.N,/MCU2_DAT7*%
X120025000Y-106425000D03*
X108379000Y-110200000D03*
X166500000Y-134100000D03*
%TO.N,/MCU2_DAT0*%
X111200000Y-102400000D03*
X185100000Y-133398528D03*
X117697052Y-105850000D03*
%TO.N,/MCU2_DAT2*%
X107220000Y-109455905D03*
X184500000Y-134897826D03*
%TO.N,/MCU2_DAT1*%
X185100000Y-134198531D03*
X112800000Y-106400000D03*
X106586500Y-118166256D03*
%TO.N,/MCU1_DAT1*%
X117200000Y-112400000D03*
X117844627Y-107150000D03*
X144822258Y-133501884D03*
%TO.N,/MCU1_DAT2*%
X111768485Y-107112275D03*
X145712043Y-133460629D03*
%TO.N,/MCU2_DAT3*%
X107400000Y-108200000D03*
X180607772Y-133284456D03*
X109225000Y-106399200D03*
%TO.N,/MCU1_DAT0*%
X114150990Y-107168250D03*
X118405977Y-112824847D03*
X141732000Y-133350000D03*
%TO.N,/MCU1_DAT3*%
X112025000Y-105625000D03*
X145917735Y-134233735D03*
%TO.N,/MCU2_FRAM3_F*%
X161450000Y-125200000D03*
X158434370Y-111543738D03*
X161250000Y-116350000D03*
X157349000Y-89000000D03*
X159350000Y-89033027D03*
X160373897Y-114123897D03*
%TO.N,/MCU1_FRAM3_F*%
X159250000Y-90500000D03*
X129750000Y-136144000D03*
%TO.N,/MCU2_FRAM2_F*%
X160600000Y-124600001D03*
X160549265Y-113100000D03*
X159100085Y-111100085D03*
X159000000Y-118679580D03*
%TO.N,/MCU1_FRAM2_F*%
X129750000Y-137160000D03*
X168500000Y-89975000D03*
%TO.N,/MCU2_FRAM1_F*%
X189500000Y-128250000D03*
X173975000Y-140750000D03*
X188846679Y-124962816D03*
X168999000Y-91175000D03*
%TO.N,/MCU1_FRAM1_F*%
X134995000Y-141200000D03*
X168500000Y-91925000D03*
%TO.N,Net-(Q7-B)*%
X156541999Y-136979329D03*
%TO.N,Net-(Q12-C)*%
X122381250Y-119300000D03*
%TO.N,Net-(Q16-C)*%
X170500000Y-124500000D03*
%TO.N,Net-(Q2-B)*%
X116086160Y-136550000D03*
%TO.N,Net-(Q11-C)*%
X130881250Y-124800000D03*
%TO.N,Net-(Q17-C)*%
X162500000Y-120000000D03*
%TO.N,/AND_Lock/LCK1_2*%
X126549000Y-130469718D03*
%TO.N,/AND_Lock1/LCK1_2*%
X165886569Y-129636569D03*
%TO.N,Net-(U1-S)*%
X176501000Y-84000000D03*
X185000000Y-72000000D03*
%TO.N,Net-(U1-SHDN)*%
X186750000Y-77951000D03*
X189832815Y-77832815D03*
%TO.N,Net-(J3-Pin_4)*%
X184400000Y-129600000D03*
%TD*%
D16*
%TO.N,Net-(IC5-EN)*%
X186150000Y-131500000D02*
X186150000Y-128850000D01*
X189496600Y-125503400D02*
X189496600Y-87246600D01*
X189496600Y-87246600D02*
X181250000Y-79000000D01*
X186150000Y-128850000D02*
X189496600Y-125503400D01*
%TO.N,/NRST2*%
X173250000Y-118250000D02*
X173250000Y-118872659D01*
X179809622Y-125432281D02*
X179809622Y-126209622D01*
X173250000Y-118872659D02*
X179809622Y-125432281D01*
%TO.N,/MUX_3V3*%
X161200000Y-133400000D02*
X161200000Y-138600000D01*
X170868350Y-128097295D02*
X169971055Y-127200000D01*
D17*
X120382114Y-92667886D02*
X122225000Y-90825000D01*
D16*
X170868350Y-128097295D02*
X163775735Y-121004680D01*
X171097295Y-128097295D02*
X170868350Y-128097295D01*
X171800000Y-128200000D02*
X171200000Y-128200000D01*
X164000000Y-130600000D02*
X161200000Y-133400000D01*
D17*
X127425753Y-89600000D02*
X135275000Y-97449247D01*
X122225000Y-90025000D02*
X122650000Y-89600000D01*
D16*
X171200000Y-128200000D02*
X171097295Y-128097295D01*
X169971055Y-127200000D02*
X167000000Y-127200000D01*
X163775735Y-121004680D02*
X163775735Y-113624265D01*
D17*
X122225000Y-90825000D02*
X122225000Y-90025000D01*
D16*
X164000000Y-130200000D02*
X164000000Y-130600000D01*
D17*
X122650000Y-89600000D02*
X127425753Y-89600000D01*
X118492462Y-92667886D02*
X120382114Y-92667886D01*
D16*
X167000000Y-127200000D02*
X164000000Y-130200000D01*
%TO.N,/MUX_SEL*%
X149600000Y-93700000D02*
X138931598Y-104368402D01*
X138931598Y-104368402D02*
X135811515Y-104368402D01*
D18*
%TO.N,/VCC_MUX*%
X145400000Y-93800000D02*
X143750000Y-95450000D01*
X143750000Y-98650000D02*
X139343266Y-103056734D01*
X143750000Y-95450000D02*
X143750000Y-98650000D01*
X121918776Y-102994000D02*
X121230988Y-103681788D01*
X139280532Y-102994000D02*
X121918776Y-102994000D01*
X139343266Y-103056734D02*
X139280532Y-102994000D01*
D16*
%TO.N,/MCU1_I2C1_SCL*%
X167649000Y-102501057D02*
X168001057Y-102149000D01*
X141849943Y-128750000D02*
X148500000Y-135400057D01*
X148500000Y-135400057D02*
X148500000Y-142034947D01*
X137500000Y-128750000D02*
X141849943Y-128750000D01*
X167649000Y-109399000D02*
X167649000Y-102501057D01*
X136323470Y-124423470D02*
X136323470Y-124761735D01*
X168750000Y-110500000D02*
X167649000Y-109399000D01*
X136500000Y-127750000D02*
X137500000Y-128750000D01*
X136323470Y-124761735D02*
X136500000Y-124938265D01*
X168499000Y-102149000D02*
X181750000Y-115400000D01*
X148500000Y-142034947D02*
X150632526Y-144167474D01*
X136500000Y-124938265D02*
X136500000Y-127750000D01*
X136150000Y-124250000D02*
X136323470Y-124423470D01*
X168001057Y-102149000D02*
X168499000Y-102149000D01*
%TO.N,/MCU2_I2C1_SDA*%
X172300471Y-115152000D02*
X172300471Y-110300471D01*
X168500000Y-106500000D02*
X172300471Y-110300471D01*
%TO.N,/MCU2_SPI2_MOSI*%
X186350000Y-135272067D02*
X186081378Y-135540689D01*
X163951311Y-107651368D02*
X181250000Y-124950057D01*
X159127883Y-107688337D02*
X159164852Y-107651368D01*
X181349000Y-125099000D02*
X181349000Y-128116043D01*
X181250000Y-125000000D02*
X181349000Y-125099000D01*
X186350000Y-133117044D02*
X186350000Y-135272067D01*
X181349000Y-128116043D02*
X186350000Y-133117044D01*
X159164852Y-107651368D02*
X163951311Y-107651368D01*
X181250000Y-124950057D02*
X181250000Y-125000000D01*
%TO.N,/MCU_MR*%
X154500000Y-141400000D02*
X152448136Y-143451864D01*
X158593064Y-109720382D02*
X158529618Y-109720382D01*
X154500000Y-115000000D02*
X154500000Y-141400000D01*
X158529618Y-109720382D02*
X154500000Y-113750000D01*
X155200000Y-114600000D02*
X154900000Y-114600000D01*
X154500000Y-113750000D02*
X154500000Y-115000000D01*
X154900000Y-114600000D02*
X154500000Y-115000000D01*
X152448136Y-143451864D02*
X152274600Y-143451864D01*
%TO.N,/MCU1_SPI2_MOSI*%
X158901318Y-108900000D02*
X158100000Y-108900000D01*
X152324266Y-114675734D02*
X152324266Y-116374263D01*
X158100000Y-108900000D02*
X152324266Y-114675734D01*
%TO.N,/MCU1_I2C1_SDA*%
X135049265Y-121550792D02*
X135049265Y-124950735D01*
X156148000Y-96251057D02*
X156148000Y-101900700D01*
X156500057Y-95899000D02*
X156148000Y-96251057D01*
X156601000Y-95899000D02*
X156500057Y-95899000D01*
X158814027Y-93685973D02*
X156601000Y-95899000D01*
X151512547Y-112000000D02*
X151369546Y-112143000D01*
X139599000Y-116901000D02*
X137900735Y-118599265D01*
X137900735Y-118699322D02*
X135049265Y-121550792D01*
X151369546Y-112143000D02*
X142212263Y-112143001D01*
X155446350Y-108151050D02*
X151597400Y-112000000D01*
X156148000Y-101900700D02*
X155446350Y-102602350D01*
X142212263Y-112143001D02*
X139599000Y-114756264D01*
X163046000Y-93885973D02*
X162846000Y-93685973D01*
X139599000Y-114756264D02*
X139599000Y-116901000D01*
X151597400Y-112000000D02*
X151512547Y-112000000D01*
X137900735Y-118599265D02*
X137900735Y-118699322D01*
X155446350Y-102602350D02*
X155446350Y-108151050D01*
X162846000Y-93685973D02*
X158814027Y-93685973D01*
%TO.N,/MCU1_CS1*%
X148024265Y-117841535D02*
X157190450Y-108675350D01*
X149100000Y-141250000D02*
X149100000Y-135199943D01*
X148024265Y-134124208D02*
X148024265Y-117841535D01*
X158641450Y-101958550D02*
X159350000Y-101250000D01*
X157190450Y-104342450D02*
X158641450Y-102891450D01*
X149100000Y-135199943D02*
X148024265Y-134124208D01*
X157190450Y-108675350D02*
X157190450Y-104342450D01*
X158641450Y-102891450D02*
X158641450Y-101958550D01*
%TO.N,/MCU2_WP1*%
X187500000Y-125499943D02*
X187499000Y-125498943D01*
X181759341Y-111801283D02*
X181419000Y-111460942D01*
X179331000Y-108259341D02*
X178990659Y-107919000D01*
X187500000Y-125000057D02*
X187500000Y-117100000D01*
X163773000Y-101002000D02*
X162750000Y-102025000D01*
X182201283Y-111801283D02*
X181759341Y-111801283D01*
X178509341Y-107919000D02*
X178414170Y-108014170D01*
X181419000Y-111019000D02*
X179235829Y-108835829D01*
X186005210Y-137601000D02*
X184351000Y-137601000D01*
X187499000Y-125001057D02*
X187500000Y-125000057D01*
X187499000Y-125498943D02*
X187499000Y-125001057D01*
X179235829Y-108835829D02*
X179331000Y-108740659D01*
X188058465Y-130000000D02*
X188000000Y-130058465D01*
X172826000Y-102651057D02*
X171176943Y-101002000D01*
X179331000Y-108740659D02*
X179331000Y-108259341D01*
X178990659Y-107919000D02*
X178509341Y-107919000D01*
X187950735Y-126200735D02*
X187500000Y-125750000D01*
X184351000Y-137601000D02*
X184250000Y-137500000D01*
X187500000Y-117100000D02*
X182201283Y-111801283D01*
X178414170Y-108014170D02*
X173051057Y-102651057D01*
X171176943Y-101002000D02*
X163773000Y-101002000D01*
X188000000Y-135606210D02*
X186005210Y-137601000D01*
X181419000Y-111460942D02*
X181419000Y-111019000D01*
X188000000Y-130058465D02*
X188000000Y-135606210D01*
X173051057Y-102651057D02*
X172826000Y-102651057D01*
X187500000Y-125750000D02*
X187500000Y-125499943D01*
%TO.N,/MCU1_WP1*%
X148425265Y-118007635D02*
X157591450Y-108841450D01*
X157591450Y-108841450D02*
X157591450Y-104508550D01*
X149000000Y-134250000D02*
X148425265Y-133675265D01*
X148425265Y-133675265D02*
X148425265Y-118007635D01*
X157591450Y-104508550D02*
X159350000Y-102750000D01*
%TO.N,/MCU2_SPI2_MISO*%
X168250000Y-102750000D02*
X174601000Y-109101000D01*
X174601000Y-116101000D02*
X181750000Y-123250000D01*
X186751000Y-135721010D02*
X186206516Y-136265494D01*
X181750000Y-127949943D02*
X186751000Y-132950943D01*
X186751000Y-132950943D02*
X186751000Y-135721010D01*
X174601000Y-109101000D02*
X174601000Y-116101000D01*
X181750000Y-123250000D02*
X181750000Y-127949943D01*
X186206516Y-136265494D02*
X185742761Y-136265494D01*
%TO.N,/MCU2_CS1*%
X188750000Y-135423310D02*
X188750000Y-129250000D01*
X188000000Y-116370340D02*
X188000000Y-125150000D01*
X162851000Y-100601000D02*
X172230660Y-100601000D01*
X179000000Y-140500000D02*
X183673310Y-140500000D01*
X188000000Y-125150000D02*
X188100000Y-125250000D01*
X162675000Y-100425000D02*
X162851000Y-100601000D01*
X172230660Y-100601000D02*
X188000000Y-116370340D01*
X183673310Y-140500000D02*
X188750000Y-135423310D01*
%TO.N,/MCU2_SPI2_SCK*%
X187000000Y-132632843D02*
X187152000Y-132784843D01*
X176751057Y-108276000D02*
X176751057Y-109101000D01*
X176751057Y-109101000D02*
X177751057Y-110101000D01*
X170475057Y-102000000D02*
X176751057Y-108276000D01*
X187152000Y-132784843D02*
X187152000Y-135887110D01*
X179501000Y-110101000D02*
X186950735Y-117550735D01*
X186039110Y-137000000D02*
X185250000Y-137000000D01*
X187000000Y-130616930D02*
X187000000Y-132632843D01*
X177751057Y-110101000D02*
X179501000Y-110101000D01*
X187152000Y-135887110D02*
X186039110Y-137000000D01*
X186950735Y-117550735D02*
X186950735Y-127200735D01*
X169248000Y-102000000D02*
X170475057Y-102000000D01*
%TO.N,/MCU1_SPI2_SCK*%
X158500000Y-107910397D02*
X158500000Y-107466277D01*
X159352000Y-108299000D02*
X158888603Y-108299000D01*
X162250057Y-107101000D02*
X162747943Y-107101000D01*
X160600000Y-111847000D02*
X160600000Y-109547000D01*
X162149057Y-107000000D02*
X162250057Y-107101000D01*
X158500000Y-107466277D02*
X158966277Y-107000000D01*
X158966277Y-107000000D02*
X162149057Y-107000000D01*
X157250000Y-116350000D02*
X157250000Y-115197000D01*
X157250000Y-115197000D02*
X160600000Y-111847000D01*
X160600000Y-109547000D02*
X159352000Y-108299000D01*
X158888603Y-108299000D02*
X158500000Y-107910397D01*
X162747943Y-107101000D02*
X165250000Y-104598943D01*
X165250000Y-104598943D02*
X165250000Y-101750000D01*
%TO.N,/MCU1_WP2*%
X135650265Y-125199678D02*
X134949943Y-125900000D01*
X156649350Y-108649350D02*
X145907700Y-119391000D01*
X135450265Y-124501792D02*
X135650265Y-124701792D01*
X168999000Y-96899057D02*
X168498943Y-96399000D01*
X134949943Y-125900000D02*
X133448527Y-125900000D01*
X139882350Y-119849566D02*
X138849264Y-119849566D01*
X140340916Y-119391000D02*
X139882350Y-119849566D01*
X135450265Y-123248565D02*
X135450265Y-124501792D01*
X138849264Y-119849566D02*
X135450265Y-123248565D01*
X156649350Y-103100650D02*
X156649350Y-108649350D01*
X163351000Y-96399000D02*
X156649350Y-103100650D01*
X135650265Y-124701792D02*
X135650265Y-125199678D01*
X168999000Y-97700000D02*
X168999000Y-96899057D01*
X168498943Y-96399000D02*
X163351000Y-96399000D01*
X145907700Y-119391000D02*
X140340916Y-119391000D01*
%TO.N,/MCU1_CS3*%
X159250000Y-97750000D02*
X159951001Y-97048999D01*
X141750000Y-113682896D02*
X142432896Y-113000000D01*
X151731600Y-113000000D02*
X156248350Y-108483250D01*
X159299940Y-95199997D02*
X159250000Y-95199997D01*
X156248350Y-102934550D02*
X159250000Y-99932900D01*
X159951001Y-97048999D02*
X159951001Y-95851058D01*
X142432896Y-113000000D02*
X151731600Y-113000000D01*
X141750000Y-117000000D02*
X141750000Y-113682896D01*
X159951001Y-95851058D02*
X159299940Y-95199997D01*
X159250000Y-99932900D02*
X159250000Y-97750000D01*
X156248350Y-108483250D02*
X156248350Y-102934550D01*
%TO.N,/MCU1_CS2*%
X139198000Y-114618448D02*
X139198000Y-116734900D01*
X163294943Y-93284973D02*
X158647927Y-93284973D01*
X155045350Y-107984950D02*
X151430300Y-111600000D01*
X132200735Y-124799265D02*
X132200735Y-125450735D01*
X142054448Y-111762000D02*
X139198000Y-114618448D01*
X156333957Y-95498000D02*
X155747000Y-96084957D01*
X133101000Y-123899000D02*
X133001057Y-123899000D01*
X132649000Y-124251057D02*
X132649000Y-124351000D01*
X156434900Y-95498000D02*
X156333957Y-95498000D01*
X134648265Y-121384692D02*
X134648265Y-122351735D01*
X133001057Y-123899000D02*
X132649000Y-124251057D01*
X151211731Y-111762000D02*
X142054448Y-111762000D01*
X151373732Y-111600000D02*
X151211731Y-111762000D01*
X151430300Y-111600000D02*
X151373732Y-111600000D01*
X139198000Y-116734900D02*
X137499735Y-118433165D01*
X158647927Y-93284973D02*
X156434900Y-95498000D01*
X165759970Y-95750000D02*
X163294943Y-93284973D01*
X155747000Y-101734600D02*
X155045350Y-102436250D01*
X137499735Y-118533222D02*
X134648265Y-121384692D01*
X134648265Y-122351735D02*
X133101000Y-123899000D01*
X155747000Y-96084957D02*
X155747000Y-101734600D01*
X168750000Y-95750000D02*
X165759970Y-95750000D01*
X132649000Y-124351000D02*
X132200735Y-124799265D01*
X155045350Y-102436250D02*
X155045350Y-107984950D01*
X137499735Y-118433165D02*
X137499735Y-118533222D01*
%TO.N,/MCU1_WP3*%
X136681730Y-121450000D02*
X136000000Y-121450000D01*
X159350001Y-97082899D02*
X158849000Y-97583900D01*
X140000000Y-118131730D02*
X136681730Y-121450000D01*
X158849000Y-99766800D02*
X155847350Y-102768450D01*
X155847350Y-102768450D02*
X155847350Y-108317150D01*
X159350001Y-96793728D02*
X159350001Y-97082899D01*
X158849000Y-97583900D02*
X158849000Y-99766800D01*
X140000000Y-114894080D02*
X140000000Y-118131730D01*
X142294080Y-112600000D02*
X140000000Y-114894080D01*
X151564500Y-112600000D02*
X142294080Y-112600000D01*
X155847350Y-108317150D02*
X151564500Y-112600000D01*
%TO.N,/MCU2_WP3*%
X158750000Y-96500000D02*
X156749000Y-96500000D01*
X159250000Y-96000000D02*
X158750000Y-96500000D01*
%TO.N,/MCU2_CS2*%
X164660476Y-109340231D02*
X164600707Y-109400000D01*
X171750000Y-125050000D02*
X171850000Y-125150000D01*
X164600707Y-109400000D02*
X164600707Y-110147650D01*
X165549528Y-111096471D02*
X165549528Y-113549528D01*
X171750000Y-119750000D02*
X171750000Y-125050000D01*
X164600707Y-110147650D02*
X165549528Y-111096471D01*
X165549528Y-113549528D02*
X171750000Y-119750000D01*
%TO.N,/MCU2_WP2*%
X161899000Y-100001057D02*
X164900057Y-97000000D01*
X161899000Y-105900000D02*
X161899000Y-100001057D01*
X166601000Y-115601000D02*
X166601000Y-115501057D01*
X166149000Y-115149000D02*
X162499000Y-111499000D01*
X166248943Y-115149000D02*
X166149000Y-115149000D01*
X171250000Y-120250000D02*
X166601000Y-115601000D01*
X162499000Y-106500000D02*
X161899000Y-105900000D01*
X162499000Y-111499000D02*
X162499000Y-108251368D01*
X164900057Y-97000000D02*
X168250000Y-97000000D01*
X171250000Y-125750000D02*
X171250000Y-120250000D01*
X166601000Y-115501057D02*
X166248943Y-115149000D01*
%TO.N,/MCU2_RST_N*%
X165737510Y-134654553D02*
X165737510Y-133168711D01*
X163251057Y-145051000D02*
X163991000Y-145051000D01*
X108984341Y-105818200D02*
X108644000Y-106158541D01*
X130600000Y-102364000D02*
X129530000Y-101294000D01*
X127226850Y-141525607D02*
X127226850Y-142756050D01*
X108644000Y-106665200D02*
X108959000Y-106980200D01*
X113989859Y-101294000D02*
X109465659Y-105818200D01*
X168198000Y-137115043D02*
X165737510Y-134654553D01*
X117846300Y-139259000D02*
X122428000Y-139259000D01*
X109465659Y-105818200D02*
X108984341Y-105818200D01*
X116991300Y-138404000D02*
X117846300Y-139259000D01*
X108959000Y-106980200D02*
X108959000Y-135961600D01*
X134000000Y-102364000D02*
X130600000Y-102364000D01*
X163991000Y-145051000D02*
X164792000Y-144250000D01*
X122749000Y-138938000D02*
X124639243Y-138938000D01*
X122428000Y-139259000D02*
X122749000Y-138938000D01*
X108644000Y-106158541D02*
X108644000Y-106665200D01*
X164792000Y-144250000D02*
X164792000Y-143239900D01*
X127226850Y-142756050D02*
X130070800Y-145600000D01*
X108959000Y-135961600D02*
X111401400Y-138404000D01*
X111401400Y-138404000D02*
X116991300Y-138404000D01*
X124639243Y-138938000D02*
X127226850Y-141525607D01*
X164792000Y-143239900D02*
X168198000Y-139833900D01*
X168198000Y-139833900D02*
X168198000Y-137115043D01*
X129530000Y-101294000D02*
X113989859Y-101294000D01*
X130070800Y-145600000D02*
X162702057Y-145600000D01*
X162702057Y-145600000D02*
X163251057Y-145051000D01*
%TO.N,/MCU2_CMD*%
X162534957Y-145200000D02*
X163084957Y-144650000D01*
X128710742Y-109646000D02*
X128710742Y-110091652D01*
X127870742Y-109406000D02*
X127750742Y-109406000D01*
X130510742Y-110091658D02*
X130510742Y-108720342D01*
X111567500Y-138003000D02*
X117157400Y-138003000D01*
X128470742Y-110331652D02*
X128350742Y-110331652D01*
X163824900Y-144650000D02*
X164391000Y-144083900D01*
X130870742Y-110331658D02*
X130750742Y-110331658D01*
X129310742Y-110091652D02*
X129310742Y-109646000D01*
X117254752Y-109469929D02*
X117254752Y-109226467D01*
X127627850Y-142589950D02*
X130237900Y-145200000D01*
X132678371Y-108078371D02*
X131350742Y-109406000D01*
X128110742Y-110091652D02*
X128110742Y-109646000D01*
X124805343Y-138537000D02*
X127627850Y-141359507D01*
X117254752Y-109226467D02*
X113072285Y-105044000D01*
X111784341Y-105044000D02*
X109340000Y-107488341D01*
X117635513Y-109850690D02*
X117254752Y-109469929D01*
X130237900Y-145200000D02*
X162534957Y-145200000D01*
X167797000Y-139667800D02*
X167797000Y-137281143D01*
X167797000Y-137281143D02*
X165100000Y-134584143D01*
X118554752Y-109406000D02*
X118110062Y-109850690D01*
X113072285Y-105044000D02*
X111784341Y-105044000D01*
X127270742Y-110331646D02*
X127150742Y-110331646D01*
X129670742Y-110331652D02*
X129550742Y-110331652D01*
X126910742Y-110091646D02*
X126910742Y-109646000D01*
X118012400Y-138858000D02*
X122254000Y-138858000D01*
X164391000Y-144083900D02*
X164391000Y-143073800D01*
X130270742Y-108480342D02*
X130150742Y-108480342D01*
X164391000Y-143073800D02*
X167797000Y-139667800D01*
X109340000Y-135775500D02*
X111567500Y-138003000D01*
X163084957Y-144650000D02*
X163824900Y-144650000D01*
X109340000Y-107488341D02*
X109340000Y-135775500D01*
X129070742Y-109406000D02*
X128950742Y-109406000D01*
X165100000Y-132900000D02*
X165708664Y-132291336D01*
X127510742Y-109646000D02*
X127510742Y-110091646D01*
X118110062Y-109850690D02*
X117635513Y-109850690D01*
X131110742Y-109646000D02*
X131110742Y-110091658D01*
X165100000Y-134584143D02*
X165100000Y-132900000D01*
X129910742Y-108720342D02*
X129910742Y-110091652D01*
X118554752Y-109406000D02*
X126670742Y-109406000D01*
X122575000Y-138537000D02*
X124805343Y-138537000D01*
X127627850Y-141359507D02*
X127627850Y-142589950D01*
X117157400Y-138003000D02*
X118012400Y-138858000D01*
X122254000Y-138858000D02*
X122575000Y-138537000D01*
X129310742Y-109646000D02*
G75*
G03*
X129070742Y-109405958I-240042J0D01*
G01*
X130150742Y-108480342D02*
G75*
G03*
X129910742Y-108720342I-42J-239958D01*
G01*
X128110742Y-109646000D02*
G75*
G03*
X127870742Y-109405958I-240042J0D01*
G01*
X128350742Y-110331652D02*
G75*
G02*
X128110748Y-110091652I-42J239952D01*
G01*
X127510742Y-110091646D02*
G75*
G02*
X127270742Y-110331642I-240042J46D01*
G01*
X127150742Y-110331646D02*
G75*
G02*
X126910654Y-110091646I-42J240046D01*
G01*
X129910742Y-110091652D02*
G75*
G02*
X129670742Y-110331742I-240042J-48D01*
G01*
X126910742Y-109646000D02*
G75*
G03*
X126670742Y-109405958I-240042J0D01*
G01*
X131110742Y-110091658D02*
G75*
G02*
X130870742Y-110331742I-240042J-42D01*
G01*
X130510742Y-108720342D02*
G75*
G03*
X130270742Y-108480258I-240042J42D01*
G01*
X129550742Y-110331652D02*
G75*
G02*
X129310748Y-110091652I-42J239952D01*
G01*
X130750742Y-110331658D02*
G75*
G02*
X130510742Y-110091658I-42J239958D01*
G01*
X127750742Y-109406000D02*
G75*
G03*
X127510700Y-109646000I-42J-240000D01*
G01*
X131350742Y-109406000D02*
G75*
G03*
X131110700Y-109646000I-42J-240000D01*
G01*
X128710742Y-110091652D02*
G75*
G02*
X128470742Y-110331742I-240042J-48D01*
G01*
X128950742Y-109406000D02*
G75*
G03*
X128710700Y-109646000I-42J-240000D01*
G01*
%TO.N,/MCU2_DAT4*%
X106154550Y-128536033D02*
X106154550Y-128786033D01*
X106154550Y-126136033D02*
X106154550Y-126386033D01*
X106154550Y-127336033D02*
X106154550Y-127586033D01*
X105804550Y-130336033D02*
X105804550Y-130586033D01*
X106154550Y-123736033D02*
X106154550Y-123986033D01*
X106154550Y-132136033D02*
X106154550Y-132386033D01*
X106600026Y-138998033D02*
X106684878Y-139082885D01*
X106154550Y-137845450D02*
X106614169Y-138305069D01*
X176151000Y-139401000D02*
X177000000Y-140250000D01*
X105804550Y-129136033D02*
X105804550Y-129386033D01*
X161768737Y-148267000D02*
X162020738Y-148519000D01*
X106614169Y-138644480D02*
X106600026Y-138658622D01*
X106154550Y-136936033D02*
X106154550Y-137845450D01*
X105804550Y-135136033D02*
X105804550Y-135386033D01*
X105804550Y-126736033D02*
X105804550Y-126986033D01*
X167599000Y-146001000D02*
X167599000Y-144468100D01*
X165355261Y-148000000D02*
X165600000Y-148000000D01*
X105804550Y-125536033D02*
X105804550Y-125786033D01*
X106154550Y-130936033D02*
X106154550Y-131186033D01*
X105804550Y-123136033D02*
X105804550Y-123386033D01*
X106154550Y-133336033D02*
X106154550Y-133586033D01*
X128728953Y-148143000D02*
X128842092Y-148143000D01*
X106154550Y-119781550D02*
X106154550Y-121586033D01*
X167599000Y-144468100D02*
X172666100Y-139401000D01*
X107377843Y-139068742D02*
X107462697Y-139153597D01*
X109923427Y-141614326D02*
X110402100Y-142093000D01*
X107872818Y-139931413D02*
X107886960Y-139917270D01*
X164836260Y-148519000D02*
X165355261Y-148000000D01*
X105804550Y-124336033D02*
X105804550Y-124586033D01*
X128501100Y-148000000D02*
X128585953Y-148000000D01*
X128585953Y-148000000D02*
X128728953Y-148143000D01*
X105804550Y-136336033D02*
X105804550Y-136586033D01*
X106154550Y-135736033D02*
X106154550Y-135986033D01*
X162020738Y-148519000D02*
X164836260Y-148519000D01*
X106154550Y-124936033D02*
X106154550Y-125186033D01*
X106154550Y-122536033D02*
X106154550Y-122786033D01*
X109074899Y-140765798D02*
X109159753Y-140850653D01*
X106154550Y-129736033D02*
X106154550Y-129986033D01*
X128966093Y-148267000D02*
X161768737Y-148267000D01*
X107448554Y-139846561D02*
X107533406Y-139931413D01*
X110402100Y-142093000D02*
X122594100Y-142093000D01*
X172666100Y-139401000D02*
X176151000Y-139401000D01*
X105804550Y-131536033D02*
X105804550Y-131786033D01*
X108311225Y-140341536D02*
X108297082Y-140355678D01*
X105804550Y-127936033D02*
X105804550Y-128186033D01*
X128842092Y-148143000D02*
X128966093Y-148267000D01*
X107024290Y-139082885D02*
X107038432Y-139068742D01*
X107462697Y-139493008D02*
X107448554Y-139507150D01*
X105973000Y-119600000D02*
X106154550Y-119781550D01*
X105804550Y-121936033D02*
X105804550Y-122186033D01*
X106154550Y-134536033D02*
X106154550Y-134786033D01*
X108226371Y-139917270D02*
X108311225Y-140002125D01*
X109159753Y-141190064D02*
X109145610Y-141204206D01*
X108721346Y-140779941D02*
X108735488Y-140765798D01*
X165600000Y-148000000D02*
X167599000Y-146001000D01*
X108297082Y-140695089D02*
X108381934Y-140779941D01*
X122594100Y-142093000D02*
X128501100Y-148000000D01*
X105804550Y-132736033D02*
X105804550Y-132986033D01*
X105804550Y-133936033D02*
X105804550Y-134186033D01*
X109569874Y-141628469D02*
X109584016Y-141614326D01*
X109145610Y-141543617D02*
X109230462Y-141628469D01*
X105979550Y-122961033D02*
G75*
G03*
X105804533Y-123136033I-50J-174967D01*
G01*
X105979550Y-133161033D02*
G75*
G02*
X106154567Y-133336033I50J-174967D01*
G01*
X105804550Y-128186033D02*
G75*
G03*
X105979550Y-128360950I174950J33D01*
G01*
X106154550Y-131186033D02*
G75*
G02*
X105979550Y-131360950I-174950J33D01*
G01*
X109230462Y-141628469D02*
G75*
G03*
X109569874Y-141628469I169706J169704D01*
G01*
X105804550Y-136586033D02*
G75*
G03*
X105979550Y-136760950I174950J33D01*
G01*
X106154550Y-127586033D02*
G75*
G02*
X105979550Y-127760950I-174950J33D01*
G01*
X109584016Y-141614326D02*
G75*
G02*
X109923427Y-141614325I169706J-169707D01*
G01*
X107462697Y-139153597D02*
G75*
G02*
X107462695Y-139493005I-169697J-169703D01*
G01*
X105979550Y-136761033D02*
G75*
G02*
X106154567Y-136936033I50J-174967D01*
G01*
X105979550Y-135561033D02*
G75*
G02*
X106154567Y-135736033I50J-174967D01*
G01*
X106154550Y-121586033D02*
G75*
G02*
X105979550Y-121760950I-174950J33D01*
G01*
X105979550Y-132561033D02*
G75*
G03*
X105804533Y-132736033I-50J-174967D01*
G01*
X105979550Y-130161033D02*
G75*
G03*
X105804533Y-130336033I-50J-174967D01*
G01*
X108381934Y-140779941D02*
G75*
G03*
X108721346Y-140779941I169706J169704D01*
G01*
X106154550Y-133586033D02*
G75*
G02*
X105979550Y-133760950I-174950J33D01*
G01*
X109159753Y-140850653D02*
G75*
G02*
X109159795Y-141190105I-169753J-169747D01*
G01*
X105804550Y-131786033D02*
G75*
G03*
X105979550Y-131960950I174950J33D01*
G01*
X105979550Y-121761033D02*
G75*
G03*
X105804533Y-121936033I-50J-174967D01*
G01*
X106154550Y-123986033D02*
G75*
G02*
X105979550Y-124160950I-174950J33D01*
G01*
X105979550Y-125961033D02*
G75*
G02*
X106154567Y-126136033I50J-174967D01*
G01*
X108735488Y-140765798D02*
G75*
G02*
X109074899Y-140765798I169705J-169707D01*
G01*
X108311225Y-140002125D02*
G75*
G02*
X108311195Y-140341506I-169725J-169675D01*
G01*
X105804550Y-132986033D02*
G75*
G03*
X105979550Y-133160950I174950J33D01*
G01*
X105979550Y-123561033D02*
G75*
G02*
X106154567Y-123736033I50J-174967D01*
G01*
X105979550Y-125361033D02*
G75*
G03*
X105804533Y-125536033I-50J-174967D01*
G01*
X107038432Y-139068742D02*
G75*
G02*
X107377843Y-139068741I169706J-169707D01*
G01*
X105979550Y-126561033D02*
G75*
G03*
X105804533Y-126736033I-50J-174967D01*
G01*
X106154550Y-129986033D02*
G75*
G02*
X105979550Y-130160950I-174950J33D01*
G01*
X105979550Y-127761033D02*
G75*
G03*
X105804533Y-127936033I-50J-174967D01*
G01*
X105979550Y-134961033D02*
G75*
G03*
X105804533Y-135136033I-50J-174967D01*
G01*
X105804550Y-123386033D02*
G75*
G03*
X105979550Y-123560950I174950J33D01*
G01*
X105979550Y-134361033D02*
G75*
G02*
X106154567Y-134536033I50J-174967D01*
G01*
X105979550Y-122361033D02*
G75*
G02*
X106154567Y-122536033I50J-174967D01*
G01*
X105979550Y-131961033D02*
G75*
G02*
X106154567Y-132136033I50J-174967D01*
G01*
X106684878Y-139082885D02*
G75*
G03*
X107024290Y-139082885I169706J169704D01*
G01*
X106614169Y-138305069D02*
G75*
G02*
X106614195Y-138644506I-169669J-169731D01*
G01*
X105979550Y-130761033D02*
G75*
G02*
X106154567Y-130936033I50J-174967D01*
G01*
X105804550Y-122186033D02*
G75*
G03*
X105979550Y-122360950I174950J33D01*
G01*
X106154550Y-135986033D02*
G75*
G02*
X105979550Y-136160950I-174950J33D01*
G01*
X109145610Y-141204206D02*
G75*
G03*
X109145621Y-141543605I169690J-169694D01*
G01*
X105979550Y-128961033D02*
G75*
G03*
X105804533Y-129136033I-50J-174967D01*
G01*
X106600026Y-138658622D02*
G75*
G03*
X106600053Y-138998005I169674J-169678D01*
G01*
X105804550Y-134186033D02*
G75*
G03*
X105979550Y-134360950I174950J33D01*
G01*
X105979550Y-128361033D02*
G75*
G02*
X106154567Y-128536033I50J-174967D01*
G01*
X106154550Y-128786033D02*
G75*
G02*
X105979550Y-128960950I-174950J33D01*
G01*
X105804550Y-129386033D02*
G75*
G03*
X105979550Y-129560950I174950J33D01*
G01*
X105979550Y-129561033D02*
G75*
G02*
X106154567Y-129736033I50J-174967D01*
G01*
X105804550Y-124586033D02*
G75*
G03*
X105979550Y-124760950I174950J33D01*
G01*
X106154550Y-126386033D02*
G75*
G02*
X105979550Y-126560950I-174950J33D01*
G01*
X107533406Y-139931413D02*
G75*
G03*
X107872818Y-139931413I169706J169704D01*
G01*
X105804550Y-125786033D02*
G75*
G03*
X105979550Y-125960950I174950J33D01*
G01*
X105804550Y-126986033D02*
G75*
G03*
X105979550Y-127160950I174950J33D01*
G01*
X106154550Y-125186033D02*
G75*
G02*
X105979550Y-125360950I-174950J33D01*
G01*
X106154550Y-122786033D02*
G75*
G02*
X105979550Y-122960950I-174950J33D01*
G01*
X105979550Y-124161033D02*
G75*
G03*
X105804533Y-124336033I-50J-174967D01*
G01*
X105979550Y-136161033D02*
G75*
G03*
X105804533Y-136336033I-50J-174967D01*
G01*
X105979550Y-124761033D02*
G75*
G02*
X106154567Y-124936033I50J-174967D01*
G01*
X107886960Y-139917270D02*
G75*
G02*
X108226371Y-139917269I169706J-169707D01*
G01*
X105979550Y-127161033D02*
G75*
G02*
X106154567Y-127336033I50J-174967D01*
G01*
X106154550Y-134786033D02*
G75*
G02*
X105979550Y-134960950I-174950J33D01*
G01*
X106154550Y-132386033D02*
G75*
G02*
X105979550Y-132560950I-174950J33D01*
G01*
X105979550Y-131361033D02*
G75*
G03*
X105804533Y-131536033I-50J-174967D01*
G01*
X105804550Y-130586033D02*
G75*
G03*
X105979550Y-130760950I174950J33D01*
G01*
X105979550Y-133761033D02*
G75*
G03*
X105804533Y-133936033I-50J-174967D01*
G01*
X105804550Y-135386033D02*
G75*
G03*
X105979550Y-135560950I174950J33D01*
G01*
X107448554Y-139507150D02*
G75*
G03*
X107448509Y-139846605I169746J-169750D01*
G01*
X108297082Y-140355678D02*
G75*
G03*
X108297065Y-140695105I169718J-169722D01*
G01*
%TO.N,/MCU2_DAT6*%
X107800000Y-114305000D02*
X108137000Y-114642000D01*
X163101525Y-146614000D02*
X163898474Y-146614000D01*
X165594000Y-143637600D02*
X169000000Y-140231600D01*
X169000000Y-140231600D02*
X169000000Y-136500000D01*
X162849525Y-146362000D02*
X163101525Y-146614000D01*
X126151750Y-142815150D02*
X129536600Y-146200000D01*
X163898474Y-146614000D02*
X164150475Y-146362000D01*
X165574000Y-144964816D02*
X165574000Y-144426000D01*
X122769900Y-140061000D02*
X123082900Y-139748000D01*
X164176815Y-146362000D02*
X165574000Y-144964816D01*
X108137000Y-136537000D02*
X110806000Y-139206000D01*
X124315043Y-139748000D02*
X126151750Y-141584707D01*
X165594000Y-144406000D02*
X165594000Y-143637600D01*
X110806000Y-139206000D02*
X116659100Y-139206000D01*
X129755168Y-146362000D02*
X162849525Y-146362000D01*
X126151750Y-141584707D02*
X126151750Y-142815150D01*
X169000000Y-136500000D02*
X167250000Y-134750000D01*
X164150475Y-146362000D02*
X164176815Y-146362000D01*
X123082900Y-139748000D02*
X124315043Y-139748000D01*
X117514100Y-140061000D02*
X122769900Y-140061000D01*
X129536600Y-146200000D02*
X129593168Y-146200000D01*
X108137000Y-114642000D02*
X108137000Y-136537000D01*
X107800000Y-110800000D02*
X107800000Y-114305000D01*
X116659100Y-139206000D02*
X117514100Y-140061000D01*
X129593168Y-146200000D02*
X129755168Y-146362000D01*
X165574000Y-144426000D02*
X165594000Y-144406000D01*
%TO.N,/MCU2_DAT5*%
X109494000Y-142494000D02*
X122428000Y-142494000D01*
X168000000Y-144634200D02*
X172832200Y-139802000D01*
X167980000Y-146020000D02*
X168000000Y-146000000D01*
X128315000Y-148381000D02*
X128428138Y-148381000D01*
X122428000Y-142494000D02*
X128315000Y-148381000D01*
X175552000Y-139802000D02*
X176000000Y-140250000D01*
X165757816Y-148381000D02*
X167980000Y-146158815D01*
X164994075Y-148900000D02*
X165513076Y-148381000D01*
X105392000Y-138392000D02*
X109494000Y-142494000D01*
X128274943Y-104625000D02*
X120774779Y-104625000D01*
X161610923Y-148648000D02*
X161862923Y-148900000D01*
X129026000Y-105376057D02*
X128274943Y-104625000D01*
X110953342Y-101660025D02*
X105392000Y-107221367D01*
X128571138Y-148524000D02*
X128684277Y-148524000D01*
X119659304Y-103509525D02*
X117800000Y-103509525D01*
X116490475Y-102200000D02*
X116400000Y-102200000D01*
X172832200Y-139802000D02*
X175552000Y-139802000D01*
X128310525Y-107510525D02*
X129026000Y-106795050D01*
X128684277Y-148524000D02*
X128808278Y-148648000D01*
X128428138Y-148381000D02*
X128571138Y-148524000D01*
X161862923Y-148900000D02*
X164994075Y-148900000D01*
X165513076Y-148381000D02*
X165757816Y-148381000D01*
X117800000Y-103509525D02*
X116490475Y-102200000D01*
X105392000Y-107221367D02*
X105392000Y-138392000D01*
X167980000Y-146158815D02*
X167980000Y-146020000D01*
X168000000Y-146000000D02*
X168000000Y-144634200D01*
X120774779Y-104625000D02*
X119659304Y-103509525D01*
X128808278Y-148648000D02*
X161610923Y-148648000D01*
X129026000Y-106795050D02*
X129026000Y-105376057D01*
%TO.N,/MCU1_DAT4*%
X115207452Y-116946461D02*
X116105478Y-117844487D01*
X113510392Y-118304109D02*
X113595247Y-118219257D01*
X117378274Y-116571691D02*
X116480249Y-115673666D01*
X111345000Y-120469501D02*
X112661863Y-119152639D01*
X114832684Y-119117281D02*
X113934659Y-118219256D01*
X129632850Y-140529007D02*
X129632850Y-141759450D01*
X118801250Y-113497277D02*
X118317224Y-113497277D01*
X135384000Y-143000000D02*
X137922000Y-140462000D01*
X112746717Y-119067787D02*
X112661863Y-119152639D01*
X115207452Y-116607049D02*
X115292307Y-116522197D01*
X114358922Y-117455579D02*
X114443777Y-117370727D01*
X111345000Y-120469501D02*
X111345000Y-134945000D01*
X121744500Y-136532000D02*
X125635843Y-136532000D01*
X112398000Y-135998000D02*
X113967800Y-135998000D01*
X113967800Y-135998000D02*
X114818800Y-135147000D01*
X116529744Y-117420221D02*
X115631719Y-116522196D01*
X116954007Y-117335369D02*
X116869156Y-117420221D01*
X114408417Y-119880959D02*
X114323566Y-119965811D01*
X113984154Y-119965811D02*
X113086129Y-119067786D01*
X116904512Y-115249401D02*
X117802538Y-116147427D01*
X121423500Y-136853000D02*
X121744500Y-136532000D01*
X118842900Y-136853000D02*
X121423500Y-136853000D01*
X118317224Y-113497277D02*
X116904512Y-114909989D01*
X117136900Y-135147000D02*
X118842900Y-136853000D01*
X115256947Y-119032429D02*
X115172096Y-119117281D01*
X113510392Y-118643521D02*
X114408418Y-119541547D01*
X125635843Y-136532000D02*
X129632850Y-140529007D01*
X116055982Y-116097931D02*
X116954008Y-116995957D01*
X114818800Y-135147000D02*
X117136900Y-135147000D01*
X130873400Y-143000000D02*
X135384000Y-143000000D01*
X117802537Y-116486839D02*
X117717686Y-116571691D01*
X116105477Y-118183899D02*
X116020626Y-118268751D01*
X115681214Y-118268751D02*
X114783189Y-117370726D01*
X116055982Y-115758519D02*
X116140837Y-115673667D01*
X129632850Y-141759450D02*
X130873400Y-143000000D01*
X111345000Y-134945000D02*
X112398000Y-135998000D01*
X114358922Y-117794991D02*
X115256948Y-118693017D01*
X115172096Y-119117281D02*
G75*
G02*
X114832684Y-119117281I-169706J169701D01*
G01*
X114408418Y-119541547D02*
G75*
G02*
X114408465Y-119881006I-169718J-169753D01*
G01*
X116020626Y-118268751D02*
G75*
G02*
X115681214Y-118268751I-169706J169701D01*
G01*
X116105478Y-117844487D02*
G75*
G02*
X116105485Y-118183907I-169678J-169713D01*
G01*
X116954008Y-116995957D02*
G75*
G02*
X116954045Y-117335406I-169708J-169743D01*
G01*
X117802538Y-116147427D02*
G75*
G02*
X117802505Y-116486807I-169738J-169673D01*
G01*
X116904512Y-114909989D02*
G75*
G03*
X116904507Y-115249406I169688J-169711D01*
G01*
X114323566Y-119965811D02*
G75*
G02*
X113984154Y-119965811I-169706J169701D01*
G01*
X115207452Y-116607049D02*
G75*
G03*
X115207407Y-116946506I169748J-169751D01*
G01*
X115631719Y-116522196D02*
G75*
G03*
X115292294Y-116522183I-169719J-169704D01*
G01*
X116480249Y-115673666D02*
G75*
G03*
X116140794Y-115673623I-169749J-169734D01*
G01*
X117717686Y-116571691D02*
G75*
G02*
X117378274Y-116571691I-169706J169701D01*
G01*
X115256948Y-118693017D02*
G75*
G02*
X115256925Y-119032407I-169748J-169683D01*
G01*
X114358922Y-117455579D02*
G75*
G03*
X114358907Y-117795006I169678J-169721D01*
G01*
X113086129Y-119067786D02*
G75*
G03*
X112746694Y-119067763I-169729J-169714D01*
G01*
X113934659Y-118219256D02*
G75*
G03*
X113595293Y-118219303I-169659J-169744D01*
G01*
X116055982Y-115758519D02*
G75*
G03*
X116056007Y-116097906I169718J-169681D01*
G01*
X113510392Y-118304109D02*
G75*
G03*
X113510407Y-118643506I169708J-169691D01*
G01*
X114783189Y-117370726D02*
G75*
G03*
X114443794Y-117370743I-169689J-169674D01*
G01*
X116869156Y-117420221D02*
G75*
G02*
X116529744Y-117420221I-169706J169701D01*
G01*
%TO.N,/MCU1_DAT5*%
X119548413Y-112848704D02*
X122002352Y-115302644D01*
X123066386Y-110052386D02*
X123066386Y-111784614D01*
X121578086Y-115726911D02*
X120520795Y-114669620D01*
X120821199Y-111575899D02*
X123275110Y-114029810D01*
X121245445Y-111151614D02*
X123699376Y-113605544D01*
X120396934Y-112000163D02*
X122850836Y-114454066D01*
X121330298Y-110727350D02*
X121245445Y-110812202D01*
X124870943Y-135200000D02*
X130033850Y-140362907D01*
X119633267Y-112424440D02*
X119548413Y-112509293D01*
X119972678Y-112424440D02*
X122426570Y-114878332D01*
X114652700Y-134746000D02*
X117303000Y-134746000D01*
X122726974Y-111784614D02*
X121669710Y-110727350D01*
X111746000Y-121740103D02*
X111746000Y-134778900D01*
X135200000Y-142600000D02*
X136906000Y-140894000D01*
X114052057Y-120798943D02*
X112687160Y-120798943D01*
X136906000Y-140894000D02*
X136906000Y-140462000D01*
X120481788Y-111575899D02*
X120396934Y-111660752D01*
X123699375Y-113944956D02*
X123614522Y-114029810D01*
X122850835Y-114793478D02*
X122765982Y-114878332D01*
X130033850Y-141593350D02*
X131040500Y-142600000D01*
X114052057Y-120798943D02*
X120096530Y-114754471D01*
X112687160Y-120798943D02*
X111746000Y-121740103D01*
X120181385Y-114669619D02*
X120096530Y-114754471D01*
X131040500Y-142600000D02*
X135200000Y-142600000D01*
X130033850Y-140362907D02*
X130033850Y-141593350D01*
X113801700Y-135597000D02*
X114652700Y-134746000D01*
X117757000Y-135200000D02*
X124870943Y-135200000D01*
X122002351Y-115642056D02*
X121917498Y-115726910D01*
X112564100Y-135597000D02*
X113801700Y-135597000D01*
X111746000Y-134778900D02*
X112564100Y-135597000D01*
X117303000Y-134746000D02*
X117757000Y-135200000D01*
X123614522Y-114029810D02*
G75*
G02*
X123275110Y-114029810I-169706J169701D01*
G01*
X121917498Y-115726910D02*
G75*
G02*
X121578094Y-115726903I-169698J169710D01*
G01*
X119972678Y-112424440D02*
G75*
G03*
X119633266Y-112424439I-169706J-169703D01*
G01*
X122002352Y-115302644D02*
G75*
G02*
X122002302Y-115642007I-169752J-169656D01*
G01*
X120821199Y-111575899D02*
G75*
G03*
X120481789Y-111575899I-169705J-169703D01*
G01*
X122850836Y-114454066D02*
G75*
G02*
X122850864Y-114793506I-169736J-169734D01*
G01*
X120520795Y-114669620D02*
G75*
G03*
X120181396Y-114669629I-169695J-169680D01*
G01*
X123699376Y-113605544D02*
G75*
G02*
X123699326Y-113944906I-169676J-169656D01*
G01*
X123066386Y-111784614D02*
G75*
G02*
X122726974Y-111784614I-169706J169704D01*
G01*
X120396934Y-111660752D02*
G75*
G03*
X120396891Y-112000206I169666J-169748D01*
G01*
X121669710Y-110727350D02*
G75*
G03*
X121330298Y-110727350I-169706J-169704D01*
G01*
X122765982Y-114878332D02*
G75*
G02*
X122426570Y-114878332I-169706J169701D01*
G01*
X119548413Y-112509293D02*
G75*
G03*
X119548411Y-112848706I169687J-169707D01*
G01*
X121245445Y-110812202D02*
G75*
G03*
X121245453Y-111151606I169655J-169698D01*
G01*
%TO.N,/MCU2_DAT7*%
X165193000Y-144807000D02*
X164019000Y-145981000D01*
X165193000Y-143406000D02*
X165193000Y-144807000D01*
X166500000Y-134100000D02*
X166500000Y-134849943D01*
X117680200Y-139660000D02*
X116825200Y-138805000D01*
X163740659Y-146233000D02*
X163259341Y-146233000D01*
X163259341Y-146233000D02*
X163007341Y-145981000D01*
X126746000Y-141611857D02*
X124481143Y-139347000D01*
X108558000Y-136127700D02*
X108558000Y-110379000D01*
X116825200Y-138805000D02*
X111235300Y-138805000D01*
X129912984Y-145981000D02*
X129531984Y-145600000D01*
X168599000Y-136948943D02*
X168599000Y-140000000D01*
X166500000Y-134849943D02*
X168599000Y-136948943D01*
X164019000Y-145981000D02*
X163992659Y-145981000D01*
X122603800Y-139660000D02*
X117680200Y-139660000D01*
X124481143Y-139347000D02*
X122916800Y-139347000D01*
X163007341Y-145981000D02*
X129912984Y-145981000D01*
X122916800Y-139347000D02*
X122603800Y-139660000D01*
X163992659Y-145981000D02*
X163740659Y-146233000D01*
X168599000Y-140000000D02*
X165193000Y-143406000D01*
X108558000Y-136127700D02*
X111235300Y-138805000D01*
X129531984Y-145600000D02*
X129503700Y-145600000D01*
X126746000Y-142842300D02*
X126746000Y-141611857D01*
X129503700Y-145600000D02*
X126746000Y-142842300D01*
X108558000Y-110379000D02*
X108379000Y-110200000D01*
%TO.N,/MCU2_DAT0*%
X106506019Y-106772323D02*
X106400000Y-106878341D01*
X106137011Y-110507748D02*
X105773000Y-110871759D01*
X183500000Y-137750000D02*
X183500000Y-137500000D01*
X183649000Y-137351000D02*
X183649000Y-137251057D01*
X161926553Y-147886000D02*
X162178553Y-148138000D01*
X107354548Y-106263205D02*
X107575741Y-106484398D01*
X106137011Y-110026430D02*
X106137011Y-110507748D01*
X107354548Y-105923793D02*
X107485442Y-105792902D01*
X122760200Y-141692000D02*
X128668200Y-147600000D01*
X162178553Y-148138000D02*
X164678445Y-148138000D01*
X105773000Y-110871759D02*
X105773000Y-118173000D01*
X128668200Y-147600000D02*
X128724768Y-147600000D01*
X182250000Y-139000000D02*
X183500000Y-137750000D01*
X106400000Y-106878341D02*
X106400000Y-109763441D01*
X111200000Y-102400000D02*
X110878341Y-102400000D01*
X129123909Y-147886001D02*
X161926553Y-147886000D01*
X128886768Y-147762000D02*
X128999908Y-147762000D01*
X167198000Y-145802000D02*
X167198000Y-144302000D01*
X106590873Y-106687472D02*
X106506019Y-106772323D01*
X105773000Y-118173000D02*
X106553000Y-118953000D01*
X185701000Y-133949588D02*
X185149940Y-133398528D01*
X165400000Y-147600000D02*
X167198000Y-145802000D01*
X167198000Y-144302000D02*
X172500000Y-139000000D01*
X107151477Y-106908664D02*
X106930285Y-106687472D01*
X185480378Y-135519622D02*
X185480378Y-135291746D01*
X106553000Y-118953000D02*
X106553000Y-137648515D01*
X183649000Y-137251057D02*
X184001057Y-136899000D01*
X184101000Y-136899000D02*
X185480378Y-135519622D01*
X107575741Y-106823810D02*
X107490887Y-106908665D01*
X185480378Y-135291746D02*
X185701000Y-135071124D01*
X108203078Y-105662007D02*
X108072184Y-105792902D01*
X185701000Y-135071124D02*
X185701000Y-133949588D01*
X164678445Y-148138000D02*
X165216446Y-147600000D01*
X128724768Y-147600000D02*
X128886768Y-147762000D01*
X165216446Y-147600000D02*
X165400000Y-147600000D01*
X106553000Y-137648515D02*
X107400000Y-138495516D01*
X172500000Y-139000000D02*
X182250000Y-139000000D01*
X128999908Y-147762000D02*
X129123909Y-147886001D01*
X183500000Y-137500000D02*
X183649000Y-137351000D01*
X185149940Y-133398528D02*
X185100000Y-133398528D01*
X107400000Y-138495516D02*
X107400000Y-138523800D01*
X184001057Y-136899000D02*
X184101000Y-136899000D01*
X107400000Y-138523800D02*
X110568200Y-141692000D01*
X106400000Y-109763441D02*
X106137011Y-110026430D01*
X110878341Y-102400000D02*
X108203078Y-105075263D01*
X110568200Y-141692000D02*
X122760200Y-141692000D01*
X106930285Y-106687472D02*
G75*
G03*
X106590873Y-106687472I-169706J-169708D01*
G01*
X107490887Y-106908665D02*
G75*
G02*
X107151495Y-106908647I-169687J169665D01*
G01*
X108203078Y-105075263D02*
G75*
G03*
X108203127Y-105368586I146722J-146637D01*
G01*
X107778814Y-105792901D02*
G75*
G03*
X107485414Y-105792873I-146714J-146699D01*
G01*
X108072184Y-105792902D02*
G75*
G02*
X107778814Y-105792901I-146684J146702D01*
G01*
X107354548Y-105923793D02*
G75*
G03*
X107354547Y-106263206I169652J-169707D01*
G01*
X108203078Y-105368635D02*
G75*
G02*
X108203057Y-105661986I-146678J-146665D01*
G01*
X107575741Y-106484398D02*
G75*
G02*
X107575737Y-106823806I-169741J-169702D01*
G01*
%TO.N,/MCU2_DAT2*%
X107038000Y-109962000D02*
X107038000Y-110142000D01*
X166396000Y-145404000D02*
X166396000Y-143969800D01*
X176732174Y-135857150D02*
X176852174Y-135857150D01*
X106188000Y-112462475D02*
X106188000Y-112538475D01*
X106340000Y-114210475D02*
X106886000Y-114210475D01*
X107038000Y-114620630D02*
X107375000Y-114957631D01*
X166396000Y-143969800D02*
X167315238Y-143050560D01*
X106886000Y-113830475D02*
X106340000Y-113830475D01*
X107375000Y-117161631D02*
X107375000Y-117237631D01*
X106925000Y-117541631D02*
X106925000Y-117617631D01*
X107375000Y-116401631D02*
X107375000Y-116477631D01*
X106340000Y-111930475D02*
X106886000Y-111930475D01*
X107038000Y-112842475D02*
X107038000Y-112918475D01*
X164822434Y-146916380D02*
X164938816Y-146800000D01*
X115150400Y-140440000D02*
X115300400Y-140440000D01*
X178532174Y-134897826D02*
X184500000Y-134897826D01*
X109224264Y-138789600D02*
X109436396Y-139001732D01*
X173690411Y-137149000D02*
X173711176Y-137169765D01*
X177332174Y-134897826D02*
X177452174Y-134897826D01*
X106538000Y-110392000D02*
X106538000Y-110472000D01*
X162494184Y-147376000D02*
X164362815Y-147376000D01*
X107220000Y-109455905D02*
X107144095Y-109455905D01*
X106175000Y-115261631D02*
X106175000Y-115337631D01*
X175217285Y-136639405D02*
X175302137Y-136554552D01*
X174050587Y-137169765D02*
X174135439Y-137084912D01*
X106327000Y-116249631D02*
X107223000Y-116249631D01*
X110900400Y-140890000D02*
X112850400Y-140890000D01*
X174538940Y-136300471D02*
X174877874Y-136639405D01*
X107077000Y-117769631D02*
X107223000Y-117769631D01*
X129439536Y-147124000D02*
X162242185Y-147124000D01*
X106327000Y-115489631D02*
X107223000Y-115489631D01*
X162242185Y-147124000D02*
X162494184Y-147376000D01*
X107223000Y-116629631D02*
X106327000Y-116629631D01*
X175048057Y-135451942D02*
X175602174Y-134897826D01*
X174135439Y-136745500D02*
X174114673Y-136724734D01*
X107375000Y-115641631D02*
X107375000Y-115717631D01*
X106886000Y-112310475D02*
X106340000Y-112310475D01*
X110284924Y-140274524D02*
X110900400Y-140890000D01*
X124416940Y-142214541D02*
X129202400Y-147000000D01*
X124487652Y-141295303D02*
X124572504Y-141380155D01*
X106175000Y-116781631D02*
X106175000Y-116857631D01*
X113200400Y-140540000D02*
X113450400Y-140540000D01*
X107223000Y-115109631D02*
X106327000Y-115109631D01*
X106886000Y-111550475D02*
X106340000Y-111550475D01*
X172899000Y-137501057D02*
X173251057Y-137149000D01*
X106340000Y-112690475D02*
X106886000Y-112690475D01*
X106175000Y-116021631D02*
X106175000Y-116097631D01*
X178292174Y-135617145D02*
X178292174Y-135137826D01*
X107038000Y-114362475D02*
X107038000Y-114620630D01*
X177932174Y-135857145D02*
X178052174Y-135857145D01*
X106188000Y-113982475D02*
X106188000Y-114058475D01*
X115750400Y-140890000D02*
X123092400Y-140890000D01*
X107038000Y-113602475D02*
X107038000Y-113678475D01*
X177692174Y-135137826D02*
X177692174Y-135617145D01*
X165919238Y-145880760D02*
X166396000Y-145404000D01*
X173251057Y-137149000D02*
X173351000Y-137149000D01*
X164938816Y-146800000D02*
X165000000Y-146800000D01*
X174963202Y-135536794D02*
X175048057Y-135451942D01*
X106327000Y-117009631D02*
X107223000Y-117009631D01*
X106886000Y-113070475D02*
X106340000Y-113070475D01*
X109436396Y-139425996D02*
X109648528Y-139638128D01*
X123992678Y-141450867D02*
X124148240Y-141295302D01*
X176492174Y-135137826D02*
X176492174Y-135617150D01*
X107038000Y-112082475D02*
X107038000Y-112158475D01*
X107223000Y-117389631D02*
X107077000Y-117389631D01*
X175602174Y-134897826D02*
X176252174Y-134897826D01*
X107223000Y-115869631D02*
X106327000Y-115869631D01*
X110072792Y-139638128D02*
X110284924Y-139850260D01*
X107375000Y-136913815D02*
X108800000Y-138338816D01*
X129315536Y-147000000D02*
X129439536Y-147124000D01*
X172302000Y-138198000D02*
X172899000Y-137601000D01*
X167315238Y-143050560D02*
X172167800Y-138198000D01*
X108800000Y-138338816D02*
X108800000Y-138789600D01*
X106838000Y-110772000D02*
X106838000Y-111198474D01*
X106688000Y-110242000D02*
X106938000Y-110242000D01*
X172167800Y-138198000D02*
X172302000Y-138198000D01*
X106188000Y-111702475D02*
X106188000Y-111778475D01*
X129202400Y-147000000D02*
X129315536Y-147000000D01*
X106838000Y-111198474D02*
X107038000Y-111398475D01*
X175302137Y-136215140D02*
X174963202Y-135876205D01*
X106340000Y-113450475D02*
X106886000Y-113450475D01*
X164362815Y-147376000D02*
X164822434Y-146916380D01*
X174114673Y-136385323D02*
X174199529Y-136300471D01*
X172899000Y-137601000D02*
X172899000Y-137501057D01*
X165000000Y-146800000D02*
X165919238Y-145880760D01*
X106188000Y-113222475D02*
X106188000Y-113298475D01*
X124572504Y-141719567D02*
X124416939Y-141875129D01*
X177092174Y-135617150D02*
X177092174Y-135137826D01*
X107144095Y-109455905D02*
X106838000Y-109762000D01*
X113800400Y-140890000D02*
X114700400Y-140890000D01*
X123092400Y-140890000D02*
X123653266Y-141450866D01*
X107375000Y-117921631D02*
X107375000Y-136913815D01*
X106175000Y-115337631D02*
G75*
G03*
X106327000Y-115489600I152000J31D01*
G01*
X107375000Y-117237631D02*
G75*
G02*
X107223000Y-117389600I-152000J31D01*
G01*
X174114673Y-136724734D02*
G75*
G02*
X174114644Y-136385295I169727J169734D01*
G01*
X124572504Y-141380155D02*
G75*
G02*
X124572543Y-141719606I-169704J-169745D01*
G01*
X109860660Y-139638128D02*
G75*
G02*
X110072792Y-139638128I106066J-106066D01*
G01*
X107038000Y-112158475D02*
G75*
G02*
X106886000Y-112310500I-152000J-25D01*
G01*
X107038000Y-112918475D02*
G75*
G02*
X106886000Y-113070500I-152000J-25D01*
G01*
X114700400Y-140890000D02*
G75*
G03*
X114925400Y-140665000I0J225000D01*
G01*
X106688000Y-110622000D02*
G75*
G02*
X106838000Y-110772000I0J-150000D01*
G01*
X106886000Y-114210475D02*
G75*
G02*
X107038025Y-114362475I0J-152025D01*
G01*
X106188000Y-111778475D02*
G75*
G03*
X106340000Y-111930500I152000J-25D01*
G01*
X175302137Y-136554552D02*
G75*
G03*
X175302183Y-136215094I-169737J169752D01*
G01*
X107038000Y-111398475D02*
G75*
G02*
X106886000Y-111550500I-152000J-25D01*
G01*
X113025400Y-140715000D02*
G75*
G02*
X113200400Y-140540000I175000J0D01*
G01*
X177452174Y-134897826D02*
G75*
G02*
X177692174Y-135137826I26J-239974D01*
G01*
X106886000Y-113450475D02*
G75*
G02*
X107038025Y-113602475I0J-152025D01*
G01*
X106188000Y-114058475D02*
G75*
G03*
X106340000Y-114210500I152000J-25D01*
G01*
X113450400Y-140540000D02*
G75*
G02*
X113625400Y-140715000I0J-175000D01*
G01*
X106327000Y-115109631D02*
G75*
G03*
X106175031Y-115261631I0J-151969D01*
G01*
X106340000Y-112310475D02*
G75*
G03*
X106187975Y-112462475I0J-152025D01*
G01*
X107223000Y-116249631D02*
G75*
G02*
X107374969Y-116401631I0J-151969D01*
G01*
X112850400Y-140890000D02*
G75*
G03*
X113025400Y-140715000I0J175000D01*
G01*
X124416939Y-141875129D02*
G75*
G03*
X124416974Y-142214506I169661J-169671D01*
G01*
X107223000Y-117009631D02*
G75*
G02*
X107374969Y-117161631I0J-151969D01*
G01*
X106938000Y-109862000D02*
G75*
G02*
X107038000Y-109962000I0J-100000D01*
G01*
X107038000Y-113678475D02*
G75*
G02*
X106886000Y-113830500I-152000J-25D01*
G01*
X176492174Y-135617150D02*
G75*
G03*
X176732174Y-135857226I240026J-50D01*
G01*
X106327000Y-116629631D02*
G75*
G03*
X106175031Y-116781631I0J-151969D01*
G01*
X106688000Y-110242000D02*
G75*
G03*
X106538000Y-110392000I0J-150000D01*
G01*
X109012132Y-138789600D02*
G75*
G02*
X109224264Y-138789600I106066J-106066D01*
G01*
X106175000Y-116857631D02*
G75*
G03*
X106327000Y-117009600I152000J31D01*
G01*
X106175000Y-116097631D02*
G75*
G03*
X106327000Y-116249600I152000J31D01*
G01*
X107077000Y-117389631D02*
G75*
G03*
X106925031Y-117541631I0J-151969D01*
G01*
X115525400Y-140665000D02*
G75*
G03*
X115750400Y-140890000I225000J0D01*
G01*
X107375000Y-116477631D02*
G75*
G02*
X107223000Y-116629600I-152000J31D01*
G01*
X107223000Y-115489631D02*
G75*
G02*
X107374969Y-115641631I0J-151969D01*
G01*
X123653266Y-141450866D02*
G75*
G03*
X123992706Y-141450895I169734J169666D01*
G01*
X106340000Y-113070475D02*
G75*
G03*
X106187975Y-113222475I0J-152025D01*
G01*
X106188000Y-112538475D02*
G75*
G03*
X106340000Y-112690500I152000J-25D01*
G01*
X106925000Y-117617631D02*
G75*
G03*
X107077000Y-117769600I152000J31D01*
G01*
X107223000Y-117769631D02*
G75*
G02*
X107374969Y-117921631I0J-151969D01*
G01*
X106327000Y-115869631D02*
G75*
G03*
X106175031Y-116021631I0J-151969D01*
G01*
X109648528Y-139638128D02*
G75*
G03*
X109860660Y-139638128I106066J106066D01*
G01*
X113625400Y-140715000D02*
G75*
G03*
X113800400Y-140890000I175000J0D01*
G01*
X173711176Y-137169765D02*
G75*
G03*
X174050587Y-137169766I169706J169707D01*
G01*
X174135439Y-137084912D02*
G75*
G03*
X174135445Y-136745494I-169739J169712D01*
G01*
X176852174Y-135857150D02*
G75*
G03*
X177092150Y-135617150I26J239950D01*
G01*
X115300400Y-140440000D02*
G75*
G02*
X115525400Y-140665000I0J-225000D01*
G01*
X106340000Y-111550475D02*
G75*
G03*
X106187975Y-111702475I0J-152025D01*
G01*
X174199529Y-136300471D02*
G75*
G02*
X174538940Y-136300470I169706J-169707D01*
G01*
X109436396Y-139213864D02*
G75*
G03*
X109436426Y-139425966I106104J-106036D01*
G01*
X178052174Y-135857145D02*
G75*
G03*
X178292245Y-135617145I26J240045D01*
G01*
X106886000Y-112690475D02*
G75*
G02*
X107038025Y-112842475I0J-152025D01*
G01*
X174963202Y-135876205D02*
G75*
G02*
X174963202Y-135536795I169698J169705D01*
G01*
X107375000Y-114957631D02*
G75*
G02*
X107223000Y-115109600I-152000J31D01*
G01*
X107038000Y-110142000D02*
G75*
G02*
X106938000Y-110242000I-100000J0D01*
G01*
X124148240Y-141295302D02*
G75*
G02*
X124487606Y-141295348I169660J-169698D01*
G01*
X173351000Y-137149000D02*
G75*
G02*
X173690411Y-137148999I169706J-169707D01*
G01*
X178292174Y-135137826D02*
G75*
G02*
X178532174Y-134897774I240026J26D01*
G01*
X174877874Y-136639405D02*
G75*
G03*
X175217285Y-136639406I169706J169707D01*
G01*
X108800000Y-138789600D02*
G75*
G03*
X109012132Y-138789600I106066J106066D01*
G01*
X106188000Y-113298475D02*
G75*
G03*
X106340000Y-113450500I152000J-25D01*
G01*
X106538000Y-110472000D02*
G75*
G03*
X106688000Y-110622000I150000J0D01*
G01*
X110284924Y-139850260D02*
G75*
G02*
X110284898Y-140062366I-106024J-106040D01*
G01*
X114925400Y-140665000D02*
G75*
G02*
X115150400Y-140440000I225000J0D01*
G01*
X106838000Y-109762000D02*
G75*
G03*
X106938000Y-109862000I100000J0D01*
G01*
X106886000Y-111930475D02*
G75*
G02*
X107038025Y-112082475I0J-152025D01*
G01*
X177092174Y-135137826D02*
G75*
G02*
X177332174Y-134897774I240026J26D01*
G01*
X177692174Y-135617145D02*
G75*
G03*
X177932174Y-135857126I240026J45D01*
G01*
X106340000Y-113830475D02*
G75*
G03*
X106187975Y-113982475I0J-152025D01*
G01*
X109436396Y-139001732D02*
G75*
G02*
X109436398Y-139213866I-106096J-106068D01*
G01*
X110284924Y-140062392D02*
G75*
G03*
X110284882Y-140274566I106076J-106108D01*
G01*
X176252174Y-134897826D02*
G75*
G02*
X176492174Y-135137826I26J-239974D01*
G01*
X107375000Y-115717631D02*
G75*
G02*
X107223000Y-115869600I-152000J31D01*
G01*
%TO.N,/MCU2_DAT1*%
X106934000Y-137490700D02*
X110734300Y-141291000D01*
X162336369Y-147757000D02*
X164520630Y-147757000D01*
X185101000Y-134648883D02*
X185100000Y-134647883D01*
X185081000Y-135138485D02*
X185081000Y-135124024D01*
X185081000Y-135124024D02*
X185101000Y-135104024D01*
X185079378Y-135140107D02*
X185081000Y-135138485D01*
X185101000Y-135104024D02*
X185101000Y-134648883D01*
X185100000Y-134647883D02*
X185100000Y-134198531D01*
X106934000Y-118513756D02*
X106934000Y-137490700D01*
X164520630Y-147757000D02*
X165096631Y-147181000D01*
X128635300Y-147000000D02*
X128663584Y-147000000D01*
X165157816Y-147181000D02*
X165338816Y-147000000D01*
X183091450Y-137591450D02*
X183091450Y-137241507D01*
X122926300Y-141291000D02*
X128635300Y-147000000D01*
X185079378Y-135253579D02*
X185079378Y-135140107D01*
X106586500Y-118166256D02*
X106934000Y-118513756D01*
X183091450Y-137241507D02*
X185079378Y-135253579D01*
X182083900Y-138599000D02*
X183091450Y-137591450D01*
X129281723Y-147505000D02*
X162084369Y-147505000D01*
X165096631Y-147181000D02*
X165157816Y-147181000D01*
X128663584Y-147000000D02*
X129044584Y-147381000D01*
X165338816Y-147000000D02*
X165400000Y-147000000D01*
X172333900Y-138599000D02*
X182083900Y-138599000D01*
X129044584Y-147381000D02*
X129157722Y-147381000D01*
X166797000Y-145603000D02*
X166797000Y-144135900D01*
X166797000Y-144135900D02*
X172333900Y-138599000D01*
X165400000Y-147000000D02*
X166797000Y-145603000D01*
X129157722Y-147381000D02*
X129281723Y-147505000D01*
X162084369Y-147505000D02*
X162336369Y-147757000D01*
X110734300Y-141291000D02*
X122926300Y-141291000D01*
%TO.N,/MCU1_DAT1*%
X115525200Y-114619600D02*
X115352798Y-114447198D01*
X112637508Y-116823081D02*
X112351953Y-116537526D01*
X114897548Y-113991948D02*
X115352800Y-114447200D01*
X113624782Y-115264766D02*
X114080009Y-115719993D01*
X144895735Y-135974920D02*
X144895735Y-140843081D01*
X113200516Y-115349620D02*
X113285372Y-115264765D01*
X110543000Y-135277200D02*
X110543000Y-119257000D01*
X115151000Y-135949000D02*
X114300000Y-136800000D01*
X114928538Y-114871466D02*
X114928536Y-114871464D01*
X125303643Y-137334000D02*
X122076700Y-137334000D01*
X114591803Y-115892376D02*
X114676655Y-115807523D01*
X117200000Y-112600000D02*
X117200000Y-112400000D01*
X144915735Y-133884265D02*
X143860408Y-134939592D01*
X114080009Y-115719993D02*
X114080008Y-115719992D01*
X121755700Y-137655000D02*
X118510700Y-137655000D01*
X115946772Y-113853230D02*
X117200000Y-112600000D01*
X128830850Y-140861207D02*
X125303643Y-137334000D01*
X114676655Y-115468111D02*
X114504270Y-115295726D01*
X141957815Y-143781000D02*
X130520200Y-143781000D01*
X122076700Y-137334000D02*
X121755700Y-137655000D01*
X112065800Y-136800000D02*
X110543000Y-135277200D01*
X130520200Y-143781000D02*
X128830850Y-142091650D01*
X113401186Y-116398817D02*
X113486037Y-116313963D01*
X144895735Y-140843081D02*
X141957815Y-143781000D01*
X115321815Y-113567682D02*
X115607362Y-113853229D01*
X116804700Y-135949000D02*
X115151000Y-135949000D01*
X144915735Y-133595361D02*
X144915735Y-133884265D01*
X110543000Y-119257000D02*
X112637507Y-117162493D01*
X143860408Y-134939592D02*
X144895735Y-135974920D01*
X114504272Y-115295728D02*
X114049000Y-114840456D01*
X112351953Y-116198114D02*
X112436806Y-116113262D01*
X114080008Y-115719992D02*
X114252392Y-115892376D01*
X115352798Y-114447198D02*
X115352800Y-114447200D01*
X114928536Y-114871464D02*
X115100937Y-115043865D01*
X112776218Y-116113261D02*
X113061774Y-116398817D01*
X114897549Y-113652536D02*
X114982403Y-113567683D01*
X115440348Y-115043865D02*
X115525200Y-114959012D01*
X114049001Y-114501044D02*
X114133853Y-114416193D01*
X113486038Y-115974551D02*
X113200517Y-115689030D01*
X128830850Y-142091650D02*
X128830850Y-140861207D01*
X114300000Y-136800000D02*
X112065800Y-136800000D01*
X114473265Y-114416193D02*
X114928538Y-114871466D01*
X144822258Y-133501884D02*
X144915735Y-133595361D01*
X118510700Y-137655000D02*
X116804700Y-135949000D01*
X114504270Y-115295726D02*
X114504272Y-115295728D01*
X114049000Y-114840456D02*
G75*
G02*
X114049050Y-114501094I169700J169656D01*
G01*
X114897548Y-113991948D02*
G75*
G02*
X114897506Y-113652494I169752J169748D01*
G01*
X115525200Y-114959012D02*
G75*
G03*
X115525206Y-114619594I-169700J169712D01*
G01*
X115607362Y-113853229D02*
G75*
G03*
X115946804Y-113853263I169738J169729D01*
G01*
X113200517Y-115689030D02*
G75*
G02*
X113200491Y-115349595I169683J169730D01*
G01*
X113285372Y-115264765D02*
G75*
G02*
X113624805Y-115264742I169728J-169735D01*
G01*
X112436806Y-116113262D02*
G75*
G02*
X112776206Y-116113273I169694J-169738D01*
G01*
X112351953Y-116537526D02*
G75*
G02*
X112351933Y-116198094I169747J169726D01*
G01*
X113061774Y-116398817D02*
G75*
G03*
X113401186Y-116398817I169706J169701D01*
G01*
X115100937Y-115043865D02*
G75*
G03*
X115440348Y-115043865I169705J169707D01*
G01*
X114982403Y-113567683D02*
G75*
G02*
X115321806Y-113567691I169697J-169717D01*
G01*
X112637507Y-117162493D02*
G75*
G03*
X112637495Y-116823095I-169707J169693D01*
G01*
X113486037Y-116313963D02*
G75*
G03*
X113485995Y-115974594I-169737J169663D01*
G01*
X114252392Y-115892376D02*
G75*
G03*
X114591803Y-115892377I169706J169707D01*
G01*
X114133853Y-114416193D02*
G75*
G02*
X114473265Y-114416193I169706J-169701D01*
G01*
X114676655Y-115807523D02*
G75*
G03*
X114676672Y-115468094I-169655J169723D01*
G01*
%TO.N,/MCU1_DAT2*%
X110890286Y-110559635D02*
X110890286Y-110679635D01*
X128429850Y-142257750D02*
X130372100Y-144200000D01*
X112696707Y-112359635D02*
X112696707Y-112479635D01*
X145316735Y-133857350D02*
X145423258Y-133750827D01*
X128429850Y-141027307D02*
X128429850Y-142257750D01*
X112008485Y-109719635D02*
X112456694Y-109719635D01*
X112456707Y-113919635D02*
X112008485Y-113919635D01*
X111130286Y-112719635D02*
X112456707Y-112719635D01*
X111130286Y-111519635D02*
X112456707Y-111519635D01*
X145423258Y-133749414D02*
X145712043Y-133460629D01*
X130372100Y-144200000D02*
X142200000Y-144200000D01*
X110890286Y-111759635D02*
X110890286Y-111879635D01*
X111768485Y-137069785D02*
X111899700Y-137201000D01*
X111768485Y-117492699D02*
X110162000Y-119099184D01*
X122242800Y-137735000D02*
X125137543Y-137735000D01*
X111768485Y-114159635D02*
X111768485Y-117492699D01*
X118344600Y-138056000D02*
X121921800Y-138056000D01*
X121921800Y-138056000D02*
X122242800Y-137735000D01*
X125137543Y-137735000D02*
X128429850Y-141027307D01*
X111899700Y-137201000D02*
X117489600Y-137201000D01*
X110890286Y-112959635D02*
X110890286Y-113079635D01*
X142200000Y-144200000D02*
X145316735Y-141083265D01*
X111130286Y-110319635D02*
X112456694Y-110319635D01*
X110162000Y-119099184D02*
X110162000Y-135435015D01*
X111768485Y-137041501D02*
X111768485Y-137069785D01*
X111130286Y-112119635D02*
X112456707Y-112119635D01*
X117489600Y-137201000D02*
X118344600Y-138056000D01*
X145316735Y-141083265D02*
X145316735Y-133857350D01*
X112696694Y-109959635D02*
X112696694Y-110079635D01*
X111130286Y-113319635D02*
X112456707Y-113319635D01*
X111768485Y-107112275D02*
X111768485Y-109479635D01*
X110162000Y-135435015D02*
X111768485Y-137041501D01*
X145423258Y-133750827D02*
X145423258Y-133749414D01*
X112696707Y-111159635D02*
X112696707Y-111279635D01*
X112696707Y-113559635D02*
X112696707Y-113679635D01*
X111130286Y-110919635D02*
X112456707Y-110919635D01*
X111130286Y-111519635D02*
G75*
G03*
X110890335Y-111759635I14J-239965D01*
G01*
X112696707Y-111279635D02*
G75*
G02*
X112456707Y-111519607I-240007J35D01*
G01*
X112456694Y-109719635D02*
G75*
G02*
X112696665Y-109959635I6J-239965D01*
G01*
X112696707Y-112479635D02*
G75*
G02*
X112456707Y-112719607I-240007J35D01*
G01*
X112456707Y-113319635D02*
G75*
G02*
X112696665Y-113559635I-7J-239965D01*
G01*
X110890286Y-111879635D02*
G75*
G03*
X111130286Y-112119614I240014J35D01*
G01*
X112456707Y-110919635D02*
G75*
G02*
X112696665Y-111159635I-7J-239965D01*
G01*
X112456707Y-112119635D02*
G75*
G02*
X112696665Y-112359635I-7J-239965D01*
G01*
X111130286Y-112719635D02*
G75*
G03*
X110890335Y-112959635I14J-239965D01*
G01*
X112008485Y-113919635D02*
G75*
G03*
X111768535Y-114159635I15J-239965D01*
G01*
X111130286Y-110319635D02*
G75*
G03*
X110890335Y-110559635I14J-239965D01*
G01*
X112696694Y-110079635D02*
G75*
G02*
X112456694Y-110319594I-239994J35D01*
G01*
X111768485Y-109479635D02*
G75*
G03*
X112008485Y-109719615I240015J35D01*
G01*
X110890286Y-110679635D02*
G75*
G03*
X111130286Y-110919614I240014J35D01*
G01*
X110890286Y-113079635D02*
G75*
G03*
X111130286Y-113319614I240014J35D01*
G01*
X112696707Y-113679635D02*
G75*
G02*
X112456707Y-113919607I-240007J35D01*
G01*
%TO.N,/MCU2_DAT3*%
X107800000Y-108574200D02*
X107800000Y-109957341D01*
X129454352Y-146600000D02*
X129597352Y-146743000D01*
X107219000Y-110559341D02*
X107219000Y-111040659D01*
X107798000Y-109959341D02*
X107798000Y-110219000D01*
X175336131Y-134496826D02*
X178903231Y-134496826D01*
X107800000Y-109957341D02*
X107798000Y-109959341D01*
X117348000Y-140462000D02*
X122936000Y-140462000D01*
X107419000Y-111240659D02*
X107419000Y-114462815D01*
X125750750Y-141750807D02*
X125750750Y-142981250D01*
X107419000Y-114462815D02*
X107756000Y-114799816D01*
X124148943Y-140149000D02*
X125750750Y-141750807D01*
X107559341Y-110219000D02*
X107219000Y-110559341D01*
X122936000Y-140462000D02*
X123249000Y-140149000D01*
X162652000Y-146995000D02*
X164205000Y-146995000D01*
X110607000Y-139607000D02*
X116493000Y-139607000D01*
X129369500Y-146600000D02*
X129454352Y-146600000D01*
X116493000Y-139607000D02*
X117348000Y-140462000D01*
X129597352Y-146743000D02*
X162400000Y-146743000D01*
X107756000Y-136756000D02*
X110607000Y-139607000D01*
X165995000Y-143803700D02*
X172101643Y-137697057D01*
X172101643Y-137697057D02*
X172135900Y-137697057D01*
X172135900Y-137697057D02*
X175336131Y-134496826D01*
X178903231Y-134496826D02*
X180115601Y-133284456D01*
X164205000Y-146995000D02*
X165995000Y-145205000D01*
X107219000Y-111040659D02*
X107419000Y-111240659D01*
X123249000Y-140149000D02*
X124148943Y-140149000D01*
X125750750Y-142981250D02*
X129369500Y-146600000D01*
X165995000Y-145205000D02*
X165995000Y-143803700D01*
X107798000Y-110219000D02*
X107559341Y-110219000D01*
X107756000Y-114799816D02*
X107756000Y-136756000D01*
X162400000Y-146743000D02*
X162652000Y-146995000D01*
X180115601Y-133284456D02*
X180607772Y-133284456D01*
X107425800Y-108200000D02*
X107800000Y-108574200D01*
X107400000Y-108200000D02*
X107425800Y-108200000D01*
%TO.N,/MCU1_DAT0*%
X114995274Y-116235549D02*
X118405977Y-112824847D01*
X141732000Y-133350000D02*
X144514735Y-136132735D01*
X112838596Y-118052817D02*
X112735583Y-117949804D01*
X118676800Y-137254000D02*
X116970800Y-135548000D01*
X114008413Y-116677044D02*
X114111392Y-116780023D01*
X112231900Y-136399000D02*
X110944000Y-135111100D01*
X113602273Y-117628554D02*
X113687125Y-117543699D01*
X144514735Y-136132735D02*
X144514735Y-140685265D01*
X130706300Y-143400000D02*
X129231850Y-141925550D01*
X110944000Y-135111100D02*
X110944000Y-120286824D01*
X141800000Y-143400000D02*
X130706300Y-143400000D01*
X116970800Y-135548000D02*
X114984900Y-135548000D01*
X114133900Y-136399000D02*
X112231900Y-136399000D01*
X144514735Y-140685265D02*
X141800000Y-143400000D01*
X112735582Y-117610394D02*
X112820437Y-117525540D01*
X113687126Y-117204287D02*
X113584148Y-117101309D01*
X121910600Y-136933000D02*
X121589600Y-137254000D01*
X129231850Y-140695107D02*
X125469743Y-136933000D01*
X113159847Y-117525541D02*
X113262861Y-117628555D01*
X121589600Y-137254000D02*
X118676800Y-137254000D01*
X114450804Y-116780023D02*
X114995274Y-116235549D01*
X113584148Y-116761897D02*
X113669001Y-116677045D01*
X125469743Y-136933000D02*
X121910600Y-136933000D01*
X114984900Y-135548000D02*
X114133900Y-136399000D01*
X129231850Y-141925550D02*
X129231850Y-140695107D01*
X110944000Y-120286824D02*
X112838595Y-118392229D01*
X113584148Y-117101309D02*
G75*
G02*
X113584145Y-116761894I169652J169709D01*
G01*
X112838595Y-118392229D02*
G75*
G03*
X112838619Y-118052795I-169695J169729D01*
G01*
X113669001Y-116677045D02*
G75*
G02*
X114008405Y-116677051I169699J-169655D01*
G01*
X113687125Y-117543699D02*
G75*
G03*
X113687119Y-117204294I-169725J169699D01*
G01*
X114111392Y-116780023D02*
G75*
G03*
X114450804Y-116780023I169706J169701D01*
G01*
X112735583Y-117949804D02*
G75*
G02*
X112735584Y-117610395I169717J169704D01*
G01*
X112820437Y-117525540D02*
G75*
G02*
X113159805Y-117525582I169663J-169660D01*
G01*
X113262861Y-117628555D02*
G75*
G03*
X113602307Y-117628588I169739J169655D01*
G01*
%TO.N,/MCU1_DAT3*%
X128028850Y-141193407D02*
X128028850Y-142423850D01*
X111021261Y-109332212D02*
X110640000Y-109332212D01*
X109838743Y-112692212D02*
X109838743Y-112572212D01*
X109838743Y-113892212D02*
X109838743Y-113772212D01*
X110160000Y-111732212D02*
X110078743Y-111732212D01*
X110800000Y-136668400D02*
X111733600Y-137602000D01*
X130205000Y-144600000D02*
X142400000Y-144600000D01*
X128028850Y-142423850D02*
X130205000Y-144600000D01*
X110078743Y-113532212D02*
X110160000Y-113532212D01*
X109990000Y-116353876D02*
X111110000Y-116353876D01*
X118178500Y-138457000D02*
X122087900Y-138457000D01*
X110400000Y-117793876D02*
X110400000Y-118322368D01*
X111060000Y-117553876D02*
X110640000Y-117553876D01*
X122087900Y-138457000D02*
X122408900Y-138136000D01*
X111350000Y-115993876D02*
X111350000Y-116113876D01*
X109838716Y-110292212D02*
X109838716Y-110172212D01*
X142400000Y-144600000D02*
X145917735Y-141082265D01*
X109838743Y-111492212D02*
X109838743Y-111372212D01*
X110400000Y-112092212D02*
X110400000Y-111972212D01*
X117323500Y-137602000D02*
X118178500Y-138457000D01*
X110160000Y-110532212D02*
X110078716Y-110532212D01*
X110400000Y-108400000D02*
X111118485Y-107681515D01*
X110078743Y-114132212D02*
X111021261Y-114132212D01*
X109750000Y-116593876D02*
X109750000Y-116713876D01*
X110400000Y-109092212D02*
X110400000Y-108400000D01*
X111261261Y-109692212D02*
X111261261Y-109572212D01*
X110640000Y-114732212D02*
X111021261Y-114732212D01*
X109990000Y-116953876D02*
X111060000Y-116953876D01*
X110078743Y-112332212D02*
X110160000Y-112332212D01*
X122408900Y-138136000D02*
X124971443Y-138136000D01*
X110400000Y-110892212D02*
X110400000Y-110772212D01*
X112000000Y-105650000D02*
X112025000Y-105625000D01*
X110640000Y-115753876D02*
X111110000Y-115753876D01*
X111118485Y-107681515D02*
X111118485Y-106843036D01*
X111733600Y-137602000D02*
X117323500Y-137602000D01*
X145917735Y-141082265D02*
X145917735Y-134233735D01*
X111261261Y-114492212D02*
X111261261Y-114372212D01*
X110078716Y-109932212D02*
X111021261Y-109932212D01*
X110160000Y-112932212D02*
X110078743Y-112932212D01*
X110800000Y-136611832D02*
X110800000Y-136668400D01*
X111300000Y-117193876D02*
X111300000Y-117313876D01*
X110400000Y-115513876D02*
X110400000Y-114972212D01*
X124971443Y-138136000D02*
X128028850Y-141193407D01*
X110078743Y-111132212D02*
X110160000Y-111132212D01*
X110400000Y-118322368D02*
X109781000Y-118941368D01*
X111118485Y-106843036D02*
X112000000Y-105961521D01*
X112000000Y-105961521D02*
X112000000Y-105650000D01*
X110400000Y-113292212D02*
X110400000Y-113172212D01*
X109781000Y-135592830D02*
X110800000Y-136611832D01*
X109781000Y-118941368D02*
X109781000Y-135592830D01*
X111261261Y-109572212D02*
G75*
G03*
X111021261Y-109332239I-239961J12D01*
G01*
X110078743Y-111732212D02*
G75*
G02*
X109838688Y-111492212I-43J240012D01*
G01*
X110160000Y-111132212D02*
G75*
G03*
X110400012Y-110892212I0J240012D01*
G01*
X111110000Y-115753876D02*
G75*
G02*
X111350024Y-115993876I0J-240024D01*
G01*
X110640000Y-109332212D02*
G75*
G02*
X110399988Y-109092212I0J240012D01*
G01*
X110400000Y-113172212D02*
G75*
G03*
X110160000Y-112932200I-240000J12D01*
G01*
X110400000Y-114972212D02*
G75*
G02*
X110640000Y-114732200I240000J12D01*
G01*
X110400000Y-110772212D02*
G75*
G03*
X110160000Y-110532200I-240000J12D01*
G01*
X110078743Y-114132212D02*
G75*
G02*
X109838688Y-113892212I-43J240012D01*
G01*
X111060000Y-116953876D02*
G75*
G02*
X111300024Y-117193876I0J-240024D01*
G01*
X110400000Y-115513876D02*
G75*
G03*
X110640000Y-115753900I240000J-24D01*
G01*
X110640000Y-117553876D02*
G75*
G03*
X110399976Y-117793876I0J-240024D01*
G01*
X109838716Y-110172212D02*
G75*
G02*
X110078716Y-109932216I239984J12D01*
G01*
X110078743Y-112932212D02*
G75*
G02*
X109838688Y-112692212I-43J240012D01*
G01*
X109838743Y-111372212D02*
G75*
G02*
X110078743Y-111132243I239957J12D01*
G01*
X110078716Y-110532212D02*
G75*
G02*
X109838688Y-110292212I-16J240012D01*
G01*
X110400000Y-111972212D02*
G75*
G03*
X110160000Y-111732200I-240000J12D01*
G01*
X109838743Y-112572212D02*
G75*
G02*
X110078743Y-112332243I239957J12D01*
G01*
X111300000Y-117313876D02*
G75*
G02*
X111060000Y-117553900I-240000J-24D01*
G01*
X109838743Y-113772212D02*
G75*
G02*
X110078743Y-113532243I239957J12D01*
G01*
X109990000Y-116353876D02*
G75*
G03*
X109749976Y-116593876I0J-240024D01*
G01*
X110160000Y-113532212D02*
G75*
G03*
X110400012Y-113292212I0J240012D01*
G01*
X111350000Y-116113876D02*
G75*
G02*
X111110000Y-116353900I-240000J-24D01*
G01*
X109750000Y-116713876D02*
G75*
G03*
X109990000Y-116953900I240000J-24D01*
G01*
X110160000Y-112332212D02*
G75*
G03*
X110400012Y-112092212I0J240012D01*
G01*
X111261261Y-114372212D02*
G75*
G03*
X111021261Y-114132239I-239961J12D01*
G01*
X111021261Y-109932212D02*
G75*
G03*
X111261312Y-109692212I39J240012D01*
G01*
X111021261Y-114732212D02*
G75*
G03*
X111261312Y-114492212I39J240012D01*
G01*
%TO.N,/MCU2_FRAM3_F*%
X157349000Y-89000000D02*
X159316973Y-89000000D01*
X159316973Y-89000000D02*
X159350000Y-89033027D01*
%TO.N,/MCU1_FRAM3_F*%
X158149627Y-92081973D02*
X158200000Y-92081973D01*
X137995000Y-116236600D02*
X137995000Y-114205000D01*
X137995000Y-114205000D02*
X141600000Y-110600000D01*
X159250000Y-91265857D02*
X159250000Y-90500000D01*
X131300003Y-135699997D02*
X131849000Y-135151000D01*
X158363116Y-91918857D02*
X158597000Y-91918857D01*
X129879250Y-122553650D02*
X134184900Y-118248000D01*
X158597000Y-91918857D02*
X159250000Y-91265857D01*
X155936600Y-94295000D02*
X158149627Y-92081973D01*
X154544000Y-101236300D02*
X154544000Y-95586657D01*
X130194003Y-135699997D02*
X131300003Y-135699997D01*
X129879250Y-127946350D02*
X129879250Y-122553650D01*
X129750000Y-136144000D02*
X130194003Y-135699997D01*
X153842350Y-101937950D02*
X154544000Y-101236300D01*
X153842350Y-107486650D02*
X153842350Y-101937950D01*
X155835657Y-94295000D02*
X155936600Y-94295000D01*
X158200000Y-92081973D02*
X158363116Y-91918857D01*
X131849000Y-129916100D02*
X129879250Y-127946350D01*
X136296735Y-117934865D02*
X137995000Y-116236600D01*
X131849000Y-135151000D02*
X131849000Y-129916100D01*
X154544000Y-95586657D02*
X155835657Y-94295000D01*
X136296735Y-118034922D02*
X136296735Y-117934865D01*
X150729000Y-110600000D02*
X153842350Y-107486650D01*
X141600000Y-110600000D02*
X150729000Y-110600000D01*
X136083657Y-118248000D02*
X136296735Y-118034922D01*
X134184900Y-118248000D02*
X136083657Y-118248000D01*
%TO.N,/MCU1_FRAM2_F*%
X160934900Y-91248000D02*
X162252000Y-91248000D01*
X132250000Y-136000000D02*
X132250000Y-129750000D01*
X158315727Y-92482973D02*
X158317027Y-92482973D01*
X160415043Y-91498000D02*
X160513043Y-91400000D01*
X160513043Y-91400000D02*
X160782900Y-91400000D01*
X129750000Y-137160000D02*
X130410000Y-136500000D01*
X130280250Y-127780250D02*
X130280250Y-122719750D01*
X158969716Y-92084957D02*
X158998000Y-92084957D01*
X131750000Y-136500000D02*
X132250000Y-136000000D01*
X162252000Y-91248000D02*
X163525000Y-89975000D01*
X158337027Y-92462973D02*
X158357816Y-92462973D01*
X158754816Y-92299857D02*
X158969716Y-92084957D01*
X138396000Y-114342816D02*
X141738816Y-111000000D01*
X159584957Y-91498000D02*
X160415043Y-91498000D01*
X156001757Y-94696000D02*
X156102700Y-94696000D01*
X134351000Y-118649000D02*
X136249757Y-118649000D01*
X160782900Y-91400000D02*
X160934900Y-91248000D01*
X156102700Y-94696000D02*
X158315727Y-92482973D01*
X158317027Y-92482973D02*
X158337027Y-92462973D01*
X130280250Y-122719750D02*
X134351000Y-118649000D01*
X130410000Y-136500000D02*
X131750000Y-136500000D01*
X136249757Y-118649000D02*
X136697735Y-118201022D01*
X132250000Y-129750000D02*
X130280250Y-127780250D01*
X136697735Y-118201022D02*
X136697735Y-118100965D01*
X141738816Y-111000000D02*
X150896100Y-111000000D01*
X158357816Y-92462973D02*
X158520932Y-92299857D01*
X138396000Y-116402700D02*
X138396000Y-114342816D01*
X154945000Y-101402400D02*
X154945000Y-95752757D01*
X154243350Y-102104050D02*
X154945000Y-101402400D01*
X158998000Y-92084957D02*
X159584957Y-91498000D01*
X154945000Y-95752757D02*
X156001757Y-94696000D01*
X163525000Y-89975000D02*
X168500000Y-89975000D01*
X136697735Y-118100965D02*
X138396000Y-116402700D01*
X150896100Y-111000000D02*
X154243350Y-107652750D01*
X154243350Y-107652750D02*
X154243350Y-102104050D01*
X158520932Y-92299857D02*
X158754816Y-92299857D01*
%TO.N,/MCU2_FRAM1_F*%
X178599943Y-141500000D02*
X183240410Y-141500000D01*
X173975000Y-140750000D02*
X174725000Y-141500000D01*
X174725000Y-141500000D02*
X177400057Y-141500000D01*
X178149000Y-102498943D02*
X179351000Y-103700943D01*
X179351000Y-103700943D02*
X179351000Y-105141680D01*
X183240410Y-141500000D02*
X189500000Y-135240410D01*
X179351000Y-105141680D02*
X188846679Y-114637359D01*
X177400057Y-141500000D02*
X177751057Y-141149000D01*
X177751057Y-141149000D02*
X178248943Y-141149000D01*
X178149000Y-100399000D02*
X178149000Y-102498943D01*
X188846679Y-114637359D02*
X188846679Y-124962816D01*
X189500000Y-135240410D02*
X189500000Y-128250000D01*
X168999000Y-91175000D02*
X168999000Y-91249000D01*
X168999000Y-91249000D02*
X178149000Y-100399000D01*
X178248943Y-141149000D02*
X178599943Y-141500000D01*
%TO.N,/MCU1_FRAM1_F*%
X151234916Y-111200000D02*
X151263200Y-111200000D01*
X132834957Y-123498000D02*
X132934900Y-123498000D01*
X159751057Y-91899000D02*
X160248943Y-91899000D01*
X156167857Y-95097000D02*
X156268800Y-95097000D01*
X141896632Y-111381000D02*
X151053916Y-111381000D01*
X131799735Y-125899678D02*
X131599735Y-125699678D01*
X134995000Y-141200000D02*
X134995000Y-140270000D01*
X160268943Y-91879000D02*
X160572859Y-91879000D01*
X131799735Y-125001792D02*
X131799735Y-124633165D01*
X134133131Y-139408131D02*
X134133131Y-137464934D01*
X158709516Y-92883973D02*
X159127532Y-92465957D01*
X156268800Y-95097000D02*
X158481827Y-92883973D01*
X131799735Y-124633165D02*
X132248000Y-124184900D01*
X155346000Y-95918857D02*
X156167857Y-95097000D01*
X134247265Y-121218592D02*
X137098735Y-118367122D01*
X132248000Y-124084957D02*
X132834957Y-123498000D01*
X159370716Y-92251057D02*
X159399000Y-92251057D01*
X161101000Y-91649000D02*
X168224000Y-91649000D01*
X134247265Y-122185635D02*
X134247265Y-121218592D01*
X155346000Y-101568500D02*
X155346000Y-95918857D01*
X159127532Y-92465957D02*
X159155816Y-92465957D01*
X160572859Y-91879000D02*
X160651859Y-91800000D01*
X160651859Y-91800000D02*
X160950000Y-91800000D01*
X138797000Y-116568800D02*
X138797000Y-114480632D01*
X134500000Y-130100000D02*
X131799735Y-127399735D01*
X159155816Y-92465957D02*
X159370716Y-92251057D01*
X151053916Y-111381000D02*
X151234916Y-111200000D01*
X160950000Y-91800000D02*
X161101000Y-91649000D01*
X154644350Y-102270150D02*
X155346000Y-101568500D01*
X151263200Y-111200000D02*
X154644350Y-107818850D01*
X137098735Y-118367122D02*
X137098735Y-118267065D01*
X154644350Y-107818850D02*
X154644350Y-102270150D01*
X131599735Y-125201792D02*
X131799735Y-125001792D01*
X168224000Y-91649000D02*
X168500000Y-91925000D01*
X159399000Y-92251057D02*
X159751057Y-91899000D01*
X131599735Y-125699678D02*
X131599735Y-125201792D01*
X132934900Y-123498000D02*
X134247265Y-122185635D01*
X132248000Y-124184900D02*
X132248000Y-124084957D01*
X137098735Y-118267065D02*
X138797000Y-116568800D01*
X134133131Y-137464934D02*
X134500000Y-137098065D01*
X134995000Y-140270000D02*
X134133131Y-139408131D01*
X158481827Y-92883973D02*
X158709516Y-92883973D01*
X138797000Y-114480632D02*
X141896632Y-111381000D01*
X131799735Y-127399735D02*
X131799735Y-125899678D01*
X134500000Y-137098065D02*
X134500000Y-130100000D01*
X160248943Y-91899000D02*
X160268943Y-91879000D01*
%TD*%
M02*
