M48
; DRILL file {KiCad 9.0.5} date 2026-03-02T16:07:18-0700
; FORMAT={-:-/ absolute / metric / decimal}
; #@! TF.CreationDate,2026-03-02T16:07:18-07:00
; #@! TF.GenerationSoftware,Kicad,Pcbnew,9.0.5
; #@! TF.FileFunction,Plated,1,4,PTH
FMAT,2
METRIC
; #@! TA.AperFunction,Plated,PTH,ViaDrill
T1C0.300
; #@! TA.AperFunction,Plated,PTH,ComponentDrill
T2C0.800
; #@! TA.AperFunction,Plated,PTH,ComponentDrill
T3C1.000
; #@! TA.AperFunction,Plated,PTH,ComponentDrill
T4C1.040
%
G90
G05
T1
X101.85Y-69.0
X101.85Y-70.0
X101.85Y-71.0
X101.85Y-72.0
X101.85Y-73.0
X101.85Y-74.0
X101.85Y-75.0
X101.85Y-76.0
X101.85Y-77.0
X101.85Y-78.0
X101.85Y-79.0
X101.85Y-80.0
X101.85Y-81.0
X101.85Y-82.0
X101.85Y-83.0
X101.85Y-84.0
X101.85Y-85.0
X101.85Y-86.0
X101.85Y-87.0
X101.85Y-88.0
X101.85Y-89.0
X101.85Y-90.0
X101.85Y-91.0
X101.85Y-92.0
X101.85Y-93.0
X101.85Y-94.0
X101.85Y-95.0
X101.85Y-96.0
X101.85Y-97.0
X101.85Y-98.0
X101.85Y-99.0
X101.85Y-100.0
X101.85Y-101.0
X101.85Y-102.0
X101.85Y-103.0
X101.85Y-104.0
X101.85Y-105.0
X101.85Y-106.0
X101.85Y-107.0
X101.85Y-108.0
X101.85Y-109.0
X101.85Y-110.0
X101.85Y-111.0
X101.85Y-112.0
X101.85Y-113.0
X101.85Y-114.0
X101.85Y-115.0
X101.85Y-116.0
X101.85Y-117.0
X101.85Y-118.0
X101.85Y-119.0
X101.85Y-120.0
X101.85Y-121.0
X101.85Y-122.0
X101.85Y-123.0
X101.85Y-124.0
X101.85Y-125.0
X101.85Y-126.0
X101.85Y-127.0
X101.85Y-128.0
X101.85Y-129.0
X101.85Y-130.0
X101.85Y-131.0
X101.85Y-132.0
X101.85Y-133.0
X101.85Y-134.0
X101.85Y-135.0
X101.85Y-136.0
X101.85Y-137.0
X101.85Y-138.0
X101.85Y-139.0
X101.85Y-140.0
X101.85Y-141.0
X101.85Y-142.0
X101.85Y-143.0
X101.85Y-144.0
X101.85Y-145.0
X102.85Y-69.0
X102.85Y-70.0
X102.85Y-71.0
X102.85Y-72.0
X102.85Y-73.0
X102.85Y-74.0
X102.85Y-75.0
X102.85Y-76.0
X102.85Y-77.0
X102.85Y-78.0
X102.85Y-79.0
X102.85Y-80.0
X102.85Y-81.0
X102.85Y-82.0
X102.85Y-83.0
X102.85Y-84.0
X102.85Y-85.0
X102.85Y-86.0
X102.85Y-87.0
X102.85Y-88.0
X102.85Y-89.0
X102.85Y-90.0
X102.85Y-91.0
X102.85Y-92.0
X102.85Y-93.0
X102.85Y-94.0
X102.85Y-95.0
X102.85Y-96.0
X102.85Y-97.0
X102.85Y-98.0
X102.85Y-99.0
X102.85Y-100.0
X102.85Y-101.0
X102.85Y-102.0
X102.85Y-103.0
X102.85Y-104.0
X102.85Y-105.0
X102.85Y-106.0
X102.85Y-107.0
X102.85Y-108.0
X102.85Y-109.0
X102.85Y-110.0
X102.85Y-111.0
X102.85Y-112.0
X102.85Y-113.0
X102.85Y-114.0
X102.85Y-115.0
X102.85Y-116.0
X102.85Y-117.0
X102.85Y-118.0
X102.85Y-119.0
X102.85Y-120.0
X102.85Y-121.0
X102.85Y-122.0
X102.85Y-123.0
X102.85Y-124.0
X102.85Y-125.0
X102.85Y-126.0
X102.85Y-127.0
X102.85Y-128.0
X102.85Y-129.0
X102.85Y-130.0
X102.85Y-131.0
X102.85Y-132.0
X102.85Y-133.0
X102.85Y-134.0
X102.85Y-135.0
X102.85Y-136.0
X102.85Y-137.0
X102.85Y-138.0
X102.85Y-139.0
X102.85Y-140.0
X102.85Y-141.0
X102.85Y-142.0
X102.85Y-143.0
X102.85Y-144.0
X102.85Y-145.0
X103.85Y-69.0
X103.85Y-70.0
X103.85Y-71.0
X103.85Y-72.0
X103.85Y-73.0
X103.85Y-74.0
X103.85Y-75.0
X103.85Y-76.0
X103.85Y-77.0
X103.85Y-78.0
X103.85Y-79.0
X103.85Y-80.0
X103.85Y-81.0
X103.85Y-82.0
X103.85Y-83.0
X103.85Y-84.0
X103.85Y-85.0
X103.85Y-86.0
X103.85Y-87.0
X103.85Y-88.0
X103.85Y-89.0
X103.85Y-90.0
X103.85Y-91.0
X103.85Y-92.0
X103.85Y-93.0
X103.85Y-94.0
X103.85Y-95.0
X103.85Y-96.0
X103.85Y-97.0
X103.85Y-98.0
X103.85Y-99.0
X103.85Y-100.0
X103.85Y-101.0
X103.85Y-102.0
X103.85Y-103.0
X103.85Y-104.0
X103.85Y-105.0
X103.85Y-106.0
X103.85Y-107.0
X103.85Y-108.0
X103.85Y-109.0
X103.85Y-110.0
X103.85Y-111.0
X103.85Y-112.0
X103.85Y-113.0
X103.85Y-114.0
X103.85Y-115.0
X103.85Y-116.0
X103.85Y-117.0
X103.85Y-118.0
X103.85Y-119.0
X103.85Y-120.0
X103.85Y-121.0
X103.85Y-122.0
X103.85Y-123.0
X103.85Y-124.0
X103.85Y-125.0
X103.85Y-126.0
X103.85Y-127.0
X103.85Y-128.0
X103.85Y-129.0
X103.85Y-130.0
X103.85Y-131.0
X103.85Y-132.0
X103.85Y-133.0
X103.85Y-134.0
X103.85Y-135.0
X103.85Y-136.0
X103.85Y-137.0
X103.85Y-138.0
X103.85Y-139.0
X103.85Y-140.0
X103.85Y-141.0
X103.85Y-142.0
X103.85Y-143.0
X103.85Y-144.0
X103.85Y-145.0
X106.7Y-95.3
X107.2Y-99.7
X107.5Y-79.5
X107.5Y-81.433
X107.5Y-83.367
X107.5Y-85.3
X107.5Y-87.233
X107.5Y-89.167
X107.5Y-91.1
X109.1Y-132.4
X109.24Y-130.46
X109.3Y-124.8
X109.8Y-127.3
X109.9Y-131.07
X109.98Y-134.1
X109.994Y-135.632
X110.1Y-129.9
X110.133Y-134.865
X110.137Y-136.399
X110.8Y-125.8
X111.0Y-130.8
X111.0Y-137.0
X111.4Y-136.0
X111.4Y-142.9
X111.6Y-122.6
X111.8Y-141.1
X112.6Y-141.32
X112.7Y-143.4
X112.8Y-121.5
X113.0Y-124.3
X113.5Y-139.2
X114.0Y-122.2
X114.02Y-120.51
X114.139Y-97.9
X114.2Y-139.6
X114.3Y-141.0
X114.52Y-93.3
X114.6Y-129.5
X115.1Y-79.7
X115.185Y-123.315
X115.2Y-121.5
X115.63Y-139.7
X115.7Y-128.4
X116.061Y-92.8
X116.061Y-97.4
X116.1Y-136.8
X117.0Y-113.9
X117.1Y-122.0
X117.2Y-108.38
X117.6Y-116.7
X117.63Y-123.6
X118.0Y-108.4
X118.0Y-119.0
X118.3Y-115.9
X118.4Y-139.6
X118.43Y-123.62
X118.63Y-124.377
X118.7Y-119.6
X118.8Y-142.3
X118.887Y-140.209
X119.0Y-79.6
X119.089Y-125.1
X119.9Y-121.6
X119.9Y-140.4
X120.0Y-118.5
X120.2Y-147.9
X120.5Y-141.3
X120.685Y-130.466
X121.0Y-131.18
X121.0Y-119.1
X121.4Y-128.0
X121.6Y-136.7
X121.808Y-119.9
X122.0Y-122.7
X122.0Y-124.5
X122.18Y-131.22
X122.408Y-130.474
X122.6Y-136.8
X123.22Y-132.227
X123.232Y-130.461
X123.3Y-128.7
X123.4Y-125.9
X123.4Y-139.0
X123.9Y-138.2
X124.0Y-90.5
X124.7Y-109.5
X124.8Y-120.2
X125.0Y-112.5
X125.5Y-108.8
X125.7Y-127.2
X125.78Y-90.0
X125.8Y-119.4
X125.8Y-130.15
X125.8Y-130.93
X126.5Y-110.7
X126.8Y-93.7
X127.1Y-137.101
X127.51Y-134.71
X127.56Y-139.86
X127.6Y-106.7
X127.8Y-136.4
X128.376Y-139.28
X128.39Y-135.89
X128.546Y-133.99
X128.6Y-105.6
X128.6Y-116.7
X129.11Y-138.21
X129.4Y-130.2
X129.5Y-88.1
X129.5Y-89.2
X129.5Y-90.2
X129.6Y-133.5
X129.8Y-132.1
X130.1Y-104.4
X130.195Y-138.025
X130.8Y-136.5
X130.9Y-132.4
X131.0Y-114.3
X131.2Y-119.3
X131.4Y-102.5
X132.3Y-104.9
X132.4Y-122.7
X132.5Y-112.8
X132.643Y-84.16
X133.29Y-83.58
X133.5Y-90.9
X133.5Y-117.1
X133.5Y-125.1
X133.56Y-106.84
X133.9Y-111.6
X134.5Y-109.6
X134.836Y-104.871
X134.9Y-93.0
X135.0Y-120.2
X135.2Y-98.7
X135.4Y-132.3
X135.7Y-102.7
X135.7Y-114.9
X135.8Y-122.8
X135.9Y-109.0
X136.0Y-94.9
X136.01Y-98.71
X136.1Y-104.4
X136.22Y-101.9
X136.5Y-92.8
X136.7Y-126.8
X137.2Y-94.9
X137.2Y-113.5
X137.2Y-118.2
X137.29Y-136.89
X137.8Y-88.0
X137.9Y-98.7
X137.9Y-101.6
X137.9Y-102.7
X137.91Y-114.81
X138.3Y-104.6
X138.5Y-90.0
X139.1Y-101.5
X139.18Y-108.9
X139.272Y-111.769
X139.4Y-93.8
X139.4Y-96.8
X139.4Y-111.0
X139.5Y-107.5
X140.074Y-83.58
X140.1Y-118.8
X140.169Y-110.868
X140.3Y-123.1
X140.4Y-95.9
X140.4Y-102.8
X140.5Y-104.83
X141.0Y-97.37
X141.0Y-98.63
X141.1Y-101.5
X141.5Y-111.5
X141.5Y-117.2
X141.8Y-98.8
X141.8Y-121.4
X141.859Y-107.641
X142.048Y-109.548
X142.2Y-88.2
X142.2Y-89.1
X142.2Y-90.1
X142.29Y-101.39
X142.4Y-104.83
X142.5Y-112.6
X142.8Y-84.16
X142.9Y-97.37
X143.0Y-98.63
X143.1Y-123.4
X143.4Y-111.5
X143.5Y-102.8
X143.602Y-107.451
X143.7Y-119.5
X143.738Y-98.881
X144.3Y-101.4
X144.3Y-107.8
X144.4Y-108.7
X144.603Y-111.206
X145.0Y-112.9
X145.155Y-110.655
X145.3Y-114.5
X145.7Y-93.3
X145.8Y-109.5
X145.9Y-132.3
X146.1Y-123.8
X146.195Y-111.53
X146.3Y-97.1
X146.6Y-119.0
X146.7Y-95.2
X146.8Y-98.8
X146.8Y-104.1
X146.8Y-107.5
X146.9Y-131.1
X147.0Y-132.3
X147.1Y-112.3
X147.2Y-123.8
X147.4Y-101.6
X147.7Y-115.5
X147.88Y-118.561
X148.0Y-110.0
X148.2Y-101.5
X148.3Y-97.2
X148.4Y-123.8
X148.573Y-107.57
X148.7Y-114.6
X148.7Y-118.561
X148.9Y-91.0
X149.0Y-127.1
X149.4Y-101.6
X149.4Y-123.9
X149.401Y-104.101
X149.6Y-118.7
X150.027Y-107.382
X150.1Y-98.9
X150.1Y-126.6
X150.3Y-87.8
X150.3Y-95.4
X150.3Y-123.8
X150.7Y-128.6
X150.8Y-112.5
X150.9Y-94.4
X151.123Y-114.689
X151.305Y-107.3
X151.5Y-123.8
X151.6Y-101.6
X151.895Y-110.9
X151.895Y-112.0
X151.895Y-114.8
X152.2Y-103.0
X152.215Y-94.385
X152.3Y-83.48
X152.3Y-97.5
X152.4Y-108.0
X153.0Y-144.5
X153.0Y-145.2
X153.0Y-145.9
X153.0Y-146.6
X153.155Y-110.8
X153.155Y-113.7
X153.2Y-133.4
X153.271Y-101.871
X153.3Y-143.9
X153.3Y-147.3
X153.414Y-134.15
X153.5Y-94.3
X153.8Y-104.8
X153.8Y-113.1
X153.895Y-98.8
X153.9Y-147.6
X154.0Y-143.8
X154.2Y-101.4
X154.216Y-107.226
X154.4Y-112.5
X154.6Y-143.5
X154.6Y-147.6
X154.8Y-83.9
X154.9Y-136.07
X155.0Y-139.3
X155.0Y-140.0
X155.0Y-140.7
X155.0Y-141.4
X155.0Y-142.1
X155.0Y-142.8
X155.02Y-138.63
X155.023Y-107.411
X155.3Y-147.6
X155.4Y-90.2
X155.4Y-101.6
X155.6Y-136.07
X155.795Y-107.3
X155.9Y-113.8
X155.9Y-116.7
X156.0Y-97.5
X156.0Y-132.1
X156.0Y-147.6
X156.056Y-119.344
X156.3Y-139.3
X156.3Y-140.0
X156.3Y-140.7
X156.3Y-141.4
X156.3Y-142.1
X156.3Y-142.8
X156.3Y-136.07
X156.32Y-138.63
X156.5Y-117.3
X156.55Y-143.5
X156.552Y-118.172
X156.7Y-91.6
X156.7Y-103.4
X156.7Y-147.6
X156.887Y-114.513
X157.2Y-143.8
X157.24Y-121.098
X157.4Y-109.4
X157.4Y-131.3
X157.4Y-147.6
X157.424Y-107.392
X157.448Y-115.148
X157.6Y-103.9
X157.9Y-143.9
X158.0Y-115.7
X158.0Y-147.3
X158.02Y-121.12
X158.1Y-144.5
X158.1Y-145.2
X158.1Y-145.9
X158.1Y-146.6
X158.2Y-107.47
X158.4Y-104.6
X158.542Y-98.207
X158.661Y-109.385
X158.9Y-98.9
X159.0Y-107.47
X159.1Y-117.2
X159.3Y-104.82
X159.5Y-98.4
X159.5Y-109.3
X159.6Y-101.8
X159.8Y-121.6
X159.9Y-93.3
X159.9Y-97.4
X160.1Y-126.5
X160.1Y-131.6
X160.1Y-136.0
X160.15Y-98.93
X160.2Y-107.4
X160.4Y-122.2
X160.487Y-118.113
X160.5Y-109.4
X160.749Y-113.414
X160.778Y-112.573
X160.8Y-98.4
X160.8Y-103.2
X160.89Y-121.0
X160.89Y-120.18
X160.9Y-104.7
X161.4Y-98.9
X161.4Y-103.9
X161.47Y-107.305
X161.658Y-112.349
X161.658Y-114.2
X162.05Y-121.0
X162.05Y-121.8
X162.115Y-120.223
X162.6Y-133.8
X162.999Y-129.101
X163.1Y-82.4
X163.58Y-110.72
X163.59Y-112.21
X164.2Y-124.7
X164.3Y-98.73
X164.4Y-97.47
X164.4Y-129.3
X164.405Y-128.48
X164.8Y-116.3
X164.9Y-130.2
X164.9Y-133.305
X165.3Y-84.4
X165.7Y-113.8
X165.7Y-115.8
X166.4Y-84.4
X166.4Y-116.9
X166.6Y-101.1
X166.6Y-126.2
X166.7Y-72.6
X166.8Y-138.1
X167.2Y-115.2
X167.706Y-133.306
X168.0Y-73.8
X168.524Y-122.5
X168.525Y-126.7
X168.7Y-119.5
X168.9Y-99.3
X168.91Y-138.19
X169.1Y-75.1
X169.1Y-115.2
X169.28Y-118.2
X169.5Y-135.5
X169.685Y-122.374
X170.063Y-123.056
X170.3Y-98.2
X170.4Y-135.5
X170.445Y-123.736
X170.9Y-78.4
X171.0Y-119.3
X171.2Y-117.5
X171.21Y-122.69
X171.8Y-129.8
X172.1Y-121.1
X172.2Y-119.2
X173.7Y-142.7
X173.8Y-110.5
X174.0Y-131.4
X174.0Y-132.2
X174.511Y-118.9
X174.511Y-120.4
X174.52Y-121.889
X174.733Y-134.655
X174.9Y-88.6
X175.1Y-79.5
X175.2Y-78.5
X175.3Y-121.9
X176.0Y-135.6
X176.2Y-120.1
X176.3Y-112.3
X176.4Y-137.977
X176.8Y-127.3
X177.2Y-121.9
X177.5Y-91.9
X177.6Y-123.8
X177.7Y-110.4
X177.8Y-71.7
X178.1Y-118.9
X178.5Y-120.4
X178.7Y-122.4
X178.7Y-125.5
X179.1Y-147.2
X179.2Y-93.9
X179.29Y-134.072
X179.3Y-119.8
X179.4Y-133.3
X179.4Y-135.6
X179.463Y-131.005
X179.47Y-121.611
X179.5Y-128.7
X179.5Y-147.9
X179.503Y-129.48
X179.635Y-134.771
X179.646Y-130.247
X179.9Y-71.6
X180.9Y-71.6
X181.4Y-147.8
X181.41Y-84.49
X181.42Y-85.3
X182.1Y-71.6
X182.961Y-117.3
X183.004Y-118.079
X184.3Y-71.0
X184.4Y-100.8
X184.5Y-75.3
X185.9Y-102.9
X185.9Y-123.0
X186.0Y-75.3
X186.8Y-103.9
X188.2Y-131.5
X189.6Y-102.5
X189.8Y-126.8
X190.6Y-103.7
X190.62Y-130.1
X193.15Y-68.95
X193.15Y-69.95
X193.15Y-70.95
X193.15Y-71.95
X193.15Y-72.95
X193.15Y-73.95
X193.15Y-74.95
X193.15Y-75.95
X193.15Y-76.95
X193.15Y-77.95
X193.15Y-78.95
X193.15Y-79.95
X193.15Y-80.95
X193.15Y-81.95
X193.15Y-82.95
X193.15Y-83.95
X193.15Y-84.95
X193.15Y-85.95
X193.15Y-86.95
X193.15Y-87.95
X193.15Y-88.95
X193.15Y-89.95
X193.15Y-90.95
X193.15Y-91.95
X193.15Y-92.95
X193.15Y-93.95
X193.15Y-94.95
X193.15Y-95.95
X193.15Y-96.95
X193.15Y-97.95
X193.15Y-98.95
X193.15Y-99.95
X193.15Y-100.95
X193.15Y-101.95
X193.15Y-102.95
X193.15Y-103.95
X193.15Y-104.95
X193.15Y-105.95
X193.15Y-106.95
X193.15Y-107.95
X193.15Y-108.95
X193.15Y-109.95
X193.15Y-110.95
X193.15Y-111.95
X193.15Y-112.95
X193.15Y-113.95
X193.15Y-114.95
X193.15Y-115.95
X193.15Y-116.95
X193.15Y-117.95
X193.15Y-118.95
X193.15Y-119.95
X193.15Y-120.95
X193.15Y-121.95
X193.15Y-122.95
X193.15Y-123.95
X193.15Y-124.95
X193.15Y-125.95
X193.15Y-126.95
X193.15Y-127.95
X193.15Y-128.95
X193.15Y-129.95
X193.15Y-130.95
X193.15Y-131.95
X193.15Y-132.95
X193.15Y-133.95
X193.15Y-134.95
X193.15Y-135.95
X193.15Y-136.95
X193.15Y-137.95
X193.15Y-138.95
X193.15Y-139.95
X193.15Y-140.95
X193.15Y-141.95
X193.15Y-142.95
X193.15Y-143.95
X193.15Y-144.95
X194.15Y-68.95
X194.15Y-69.95
X194.15Y-70.95
X194.15Y-71.95
X194.15Y-72.95
X194.15Y-73.95
X194.15Y-74.95
X194.15Y-75.95
X194.15Y-76.95
X194.15Y-77.95
X194.15Y-78.95
X194.15Y-79.95
X194.15Y-80.95
X194.15Y-81.95
X194.15Y-82.95
X194.15Y-83.95
X194.15Y-84.95
X194.15Y-85.95
X194.15Y-86.95
X194.15Y-87.95
X194.15Y-88.95
X194.15Y-89.95
X194.15Y-90.95
X194.15Y-91.95
X194.15Y-92.95
X194.15Y-93.95
X194.15Y-94.95
X194.15Y-95.95
X194.15Y-96.95
X194.15Y-97.95
X194.15Y-98.95
X194.15Y-99.95
X194.15Y-100.95
X194.15Y-101.95
X194.15Y-102.95
X194.15Y-103.95
X194.15Y-104.95
X194.15Y-105.95
X194.15Y-106.95
X194.15Y-107.95
X194.15Y-108.95
X194.15Y-109.95
X194.15Y-110.95
X194.15Y-111.95
X194.15Y-112.95
X194.15Y-113.95
X194.15Y-114.95
X194.15Y-115.95
X194.15Y-116.95
X194.15Y-117.95
X194.15Y-118.95
X194.15Y-119.95
X194.15Y-120.95
X194.15Y-121.95
X194.15Y-122.95
X194.15Y-123.95
X194.15Y-124.95
X194.15Y-125.95
X194.15Y-126.95
X194.15Y-127.95
X194.15Y-128.95
X194.15Y-129.95
X194.15Y-130.95
X194.15Y-131.95
X194.15Y-132.95
X194.15Y-133.95
X194.15Y-134.95
X194.15Y-135.95
X194.15Y-136.95
X194.15Y-137.95
X194.15Y-138.95
X194.15Y-139.95
X194.15Y-140.95
X194.15Y-141.95
X194.15Y-142.95
X194.15Y-143.95
X194.15Y-144.95
X195.15Y-68.95
X195.15Y-69.95
X195.15Y-70.95
X195.15Y-71.95
X195.15Y-72.95
X195.15Y-73.95
X195.15Y-74.95
X195.15Y-75.95
X195.15Y-76.95
X195.15Y-77.95
X195.15Y-78.95
X195.15Y-79.95
X195.15Y-80.95
X195.15Y-81.95
X195.15Y-82.95
X195.15Y-83.95
X195.15Y-84.95
X195.15Y-85.95
X195.15Y-86.95
X195.15Y-87.95
X195.15Y-88.95
X195.15Y-89.95
X195.15Y-90.95
X195.15Y-91.95
X195.15Y-92.95
X195.15Y-93.95
X195.15Y-94.95
X195.15Y-95.95
X195.15Y-96.95
X195.15Y-97.95
X195.15Y-98.95
X195.15Y-99.95
X195.15Y-100.95
X195.15Y-101.95
X195.15Y-102.95
X195.15Y-103.95
X195.15Y-104.95
X195.15Y-105.95
X195.15Y-106.95
X195.15Y-107.95
X195.15Y-108.95
X195.15Y-109.95
X195.15Y-110.95
X195.15Y-111.95
X195.15Y-112.95
X195.15Y-113.95
X195.15Y-114.95
X195.15Y-115.95
X195.15Y-116.95
X195.15Y-117.95
X195.15Y-118.95
X195.15Y-119.95
X195.15Y-120.95
X195.15Y-121.95
X195.15Y-122.95
X195.15Y-123.95
X195.15Y-124.95
X195.15Y-125.95
X195.15Y-126.95
X195.15Y-127.95
X195.15Y-128.95
X195.15Y-129.95
X195.15Y-130.95
X195.15Y-131.95
X195.15Y-132.95
X195.15Y-133.95
X195.15Y-134.95
X195.15Y-135.95
X195.15Y-136.95
X195.15Y-137.95
X195.15Y-138.95
X195.15Y-139.95
X195.15Y-140.95
X195.15Y-141.95
X195.15Y-142.95
X195.15Y-143.95
X195.15Y-144.95
T2
X123.1Y-146.95
X125.64Y-146.95
X171.9Y-146.7
X174.44Y-146.7
T3
X107.3Y-141.9
X107.3Y-144.44
X108.05Y-107.74
X108.05Y-110.28
X108.05Y-112.82
X108.05Y-115.36
X108.05Y-117.9
X189.15Y-107.74
X189.15Y-110.28
X189.15Y-112.82
X189.15Y-115.36
X189.15Y-117.9
X190.0Y-141.86
X190.0Y-144.4
T4
X124.657Y-77.1
X124.657Y-79.64
X127.197Y-77.1
X127.197Y-79.64
X129.737Y-77.1
X129.737Y-79.64
X132.278Y-77.1
X132.278Y-79.64
X134.817Y-77.1
X134.817Y-79.64
X137.357Y-77.1
X137.357Y-79.64
X139.897Y-77.1
X139.897Y-79.64
X142.438Y-77.1
X142.438Y-79.64
X144.977Y-77.1
X144.977Y-79.64
X147.517Y-77.1
X147.517Y-79.64
X150.058Y-77.1
X150.058Y-79.64
X152.597Y-77.1
X152.597Y-79.64
X155.137Y-77.1
X155.137Y-79.64
X157.677Y-77.1
X157.677Y-79.64
X160.218Y-77.1
X160.218Y-79.64
X162.757Y-77.1
X162.757Y-79.64
X165.297Y-77.1
X165.297Y-79.64
X167.838Y-77.1
X167.838Y-79.64
X170.377Y-77.1
X170.377Y-79.64
X172.917Y-77.1
X172.917Y-79.64
M30
