%TF.GenerationSoftware,KiCad,Pcbnew,9.0.5*%
%TF.CreationDate,2026-03-02T16:07:09-07:00*%
%TF.ProjectId,gnss_v0.2,676e7373-5f76-4302-9e32-2e6b69636164,v0.2*%
%TF.SameCoordinates,Original*%
%TF.FileFunction,Paste,Bot*%
%TF.FilePolarity,Positive*%
%FSLAX46Y46*%
G04 Gerber Fmt 4.6, Leading zero omitted, Abs format (unit mm)*
G04 Created by KiCad (PCBNEW 9.0.5) date 2026-03-02 16:07:09*
%MOMM*%
%LPD*%
G01*
G04 APERTURE LIST*
G04 Aperture macros list*
%AMRoundRect*
0 Rectangle with rounded corners*
0 $1 Rounding radius*
0 $2 $3 $4 $5 $6 $7 $8 $9 X,Y pos of 4 corners*
0 Add a 4 corners polygon primitive as box body*
4,1,4,$2,$3,$4,$5,$6,$7,$8,$9,$2,$3,0*
0 Add four circle primitives for the rounded corners*
1,1,$1+$1,$2,$3*
1,1,$1+$1,$4,$5*
1,1,$1+$1,$6,$7*
1,1,$1+$1,$8,$9*
0 Add four rect primitives between the rounded corners*
20,1,$1+$1,$2,$3,$4,$5,0*
20,1,$1+$1,$4,$5,$6,$7,0*
20,1,$1+$1,$6,$7,$8,$9,0*
20,1,$1+$1,$8,$9,$2,$3,0*%
G04 Aperture macros list end*
%ADD10RoundRect,0.237500X0.250000X0.237500X-0.250000X0.237500X-0.250000X-0.237500X0.250000X-0.237500X0*%
%ADD11R,0.750000X0.650000*%
%ADD12RoundRect,0.062500X0.187500X0.062500X-0.187500X0.062500X-0.187500X-0.062500X0.187500X-0.062500X0*%
%ADD13RoundRect,0.250000X0.337500X0.475000X-0.337500X0.475000X-0.337500X-0.475000X0.337500X-0.475000X0*%
%ADD14RoundRect,0.150000X0.150000X-0.587500X0.150000X0.587500X-0.150000X0.587500X-0.150000X-0.587500X0*%
%ADD15RoundRect,0.250000X0.450000X-0.350000X0.450000X0.350000X-0.450000X0.350000X-0.450000X-0.350000X0*%
%ADD16RoundRect,0.250000X-0.350000X-0.450000X0.350000X-0.450000X0.350000X0.450000X-0.350000X0.450000X0*%
%ADD17RoundRect,0.237500X0.237500X-0.250000X0.237500X0.250000X-0.237500X0.250000X-0.237500X-0.250000X0*%
%ADD18RoundRect,0.237500X0.237500X-0.300000X0.237500X0.300000X-0.237500X0.300000X-0.237500X-0.300000X0*%
%ADD19RoundRect,0.250000X-0.450000X0.350000X-0.450000X-0.350000X0.450000X-0.350000X0.450000X0.350000X0*%
%ADD20RoundRect,0.237500X-0.300000X-0.237500X0.300000X-0.237500X0.300000X0.237500X-0.300000X0.237500X0*%
%ADD21R,0.650000X0.750000*%
%ADD22RoundRect,0.062500X-0.062500X0.187500X-0.062500X-0.187500X0.062500X-0.187500X0.062500X0.187500X0*%
%ADD23RoundRect,0.237500X-0.237500X0.300000X-0.237500X-0.300000X0.237500X-0.300000X0.237500X0.300000X0*%
%ADD24RoundRect,0.250000X-0.475000X0.337500X-0.475000X-0.337500X0.475000X-0.337500X0.475000X0.337500X0*%
%ADD25R,1.651000X1.422400*%
%ADD26RoundRect,0.150000X-0.150000X0.587500X-0.150000X-0.587500X0.150000X-0.587500X0.150000X0.587500X0*%
%ADD27RoundRect,0.237500X0.300000X0.237500X-0.300000X0.237500X-0.300000X-0.237500X0.300000X-0.237500X0*%
G04 APERTURE END LIST*
D10*
%TO.C,R16*%
X153695000Y-91650000D03*
X151870000Y-91650000D03*
%TD*%
D11*
%TO.C,U10*%
X118800000Y-132800000D03*
X118800000Y-132000000D03*
D12*
X119750000Y-131650000D03*
X119750000Y-132150000D03*
X119750000Y-132650000D03*
X119750000Y-133150000D03*
X117850000Y-133150000D03*
X117850000Y-132650000D03*
X117850000Y-132150000D03*
X117850000Y-131650000D03*
%TD*%
D13*
%TO.C,C20*%
X120512500Y-136900000D03*
X118437500Y-136900000D03*
%TD*%
D14*
%TO.C,Q18*%
X178700000Y-113687500D03*
X176800000Y-113687500D03*
X177750000Y-111812500D03*
%TD*%
D13*
%TO.C,C8*%
X120512500Y-134900000D03*
X118437500Y-134900000D03*
%TD*%
D15*
%TO.C,R53*%
X119750000Y-113950000D03*
X119750000Y-111950000D03*
%TD*%
D16*
%TO.C,R3*%
X123100000Y-124500000D03*
X125100000Y-124500000D03*
%TD*%
D15*
%TO.C,R18*%
X150650000Y-122450000D03*
X150650000Y-120450000D03*
%TD*%
D17*
%TO.C,R13*%
X116225000Y-132562500D03*
X116225000Y-130737500D03*
%TD*%
D18*
%TO.C,C4*%
X114725000Y-132512500D03*
X114725000Y-130787500D03*
%TD*%
D19*
%TO.C,R61*%
X176750000Y-115750000D03*
X176750000Y-117750000D03*
%TD*%
D11*
%TO.C,U9*%
X172300000Y-131500000D03*
X172300000Y-130700000D03*
D12*
X173250000Y-130350000D03*
X173250000Y-130850000D03*
X173250000Y-131350000D03*
X173250000Y-131850000D03*
X171350000Y-131850000D03*
X171350000Y-131350000D03*
X171350000Y-130850000D03*
X171350000Y-130350000D03*
%TD*%
D20*
%TO.C,C15*%
X163937500Y-126100000D03*
X165662500Y-126100000D03*
%TD*%
D18*
%TO.C,C35*%
X160100000Y-134662500D03*
X160100000Y-132937500D03*
%TD*%
D20*
%TO.C,C14*%
X169837500Y-127350000D03*
X171562500Y-127350000D03*
%TD*%
D15*
%TO.C,R55*%
X121750000Y-113950000D03*
X121750000Y-111950000D03*
%TD*%
D21*
%TO.C,U13*%
X153250000Y-89150000D03*
X152450000Y-89150000D03*
D22*
X152100000Y-88200000D03*
X152600000Y-88200000D03*
X153100000Y-88200000D03*
X153600000Y-88200000D03*
X153600000Y-90100000D03*
X153100000Y-90100000D03*
X152600000Y-90100000D03*
X152100000Y-90100000D03*
%TD*%
D19*
%TO.C,FB1*%
X112475000Y-135900000D03*
X112475000Y-137900000D03*
%TD*%
D23*
%TO.C,C36*%
X107600000Y-125275000D03*
X107600000Y-127000000D03*
%TD*%
D20*
%TO.C,C17*%
X174087500Y-127350000D03*
X175812500Y-127350000D03*
%TD*%
D17*
%TO.C,R12*%
X169700000Y-131262500D03*
X169700000Y-129437500D03*
%TD*%
D19*
%TO.C,R52*%
X127500000Y-115700000D03*
X127500000Y-117700000D03*
%TD*%
%TO.C,R54*%
X125500000Y-115700000D03*
X125500000Y-117700000D03*
%TD*%
%TO.C,R59*%
X178750000Y-115750000D03*
X178750000Y-117750000D03*
%TD*%
D20*
%TO.C,C16*%
X120612500Y-128650000D03*
X122337500Y-128650000D03*
%TD*%
D24*
%TO.C,C6*%
X114475000Y-135832500D03*
X114475000Y-137907500D03*
%TD*%
D23*
%TO.C,C23*%
X182550000Y-146150000D03*
X182550000Y-147875000D03*
%TD*%
%TO.C,C55*%
X123750000Y-115725000D03*
X123750000Y-117450000D03*
%TD*%
D25*
%TO.C,XTAL3*%
X160100000Y-130100000D03*
X160100000Y-127864800D03*
%TD*%
D18*
%TO.C,C13*%
X176200000Y-134575000D03*
X176200000Y-132850000D03*
%TD*%
D26*
%TO.C,Q14*%
X120050000Y-116012500D03*
X121950000Y-116012500D03*
X121000000Y-117887500D03*
%TD*%
%TO.C,Q19*%
X171200000Y-116012500D03*
X173100000Y-116012500D03*
X172150000Y-117887500D03*
%TD*%
D18*
%TO.C,C5*%
X168200000Y-131212500D03*
X168200000Y-129487500D03*
%TD*%
D15*
%TO.C,R19*%
X148650000Y-122450000D03*
X148650000Y-120450000D03*
%TD*%
D23*
%TO.C,C34*%
X160100000Y-123337500D03*
X160100000Y-125062500D03*
%TD*%
D15*
%TO.C,R60*%
X170950000Y-113950000D03*
X170950000Y-111950000D03*
%TD*%
D11*
%TO.C,U8*%
X149200000Y-131600000D03*
X149200000Y-130800000D03*
D12*
X150150000Y-130450000D03*
X150150000Y-130950000D03*
X150150000Y-131450000D03*
X150150000Y-131950000D03*
X148250000Y-131950000D03*
X148250000Y-131450000D03*
X148250000Y-130950000D03*
X148250000Y-130450000D03*
%TD*%
D14*
%TO.C,Q13*%
X127450000Y-113825000D03*
X125550000Y-113825000D03*
X126500000Y-111950000D03*
%TD*%
D10*
%TO.C,R15*%
X140800000Y-91300000D03*
X138975000Y-91300000D03*
%TD*%
D25*
%TO.C,XTAL1*%
X107600000Y-131517600D03*
X107600000Y-129282400D03*
%TD*%
D18*
%TO.C,C10*%
X122725000Y-135762500D03*
X122725000Y-134037500D03*
%TD*%
D21*
%TO.C,U11*%
X127850000Y-88650000D03*
X127050000Y-88650000D03*
D22*
X126700000Y-87700000D03*
X127200000Y-87700000D03*
X127700000Y-87700000D03*
X128200000Y-87700000D03*
X128200000Y-89600000D03*
X127700000Y-89600000D03*
X127200000Y-89600000D03*
X126700000Y-89600000D03*
%TD*%
D19*
%TO.C,FB2*%
X165950000Y-134600000D03*
X165950000Y-136600000D03*
%TD*%
D18*
%TO.C,C37*%
X107700000Y-135525000D03*
X107700000Y-133800000D03*
%TD*%
D16*
%TO.C,R1*%
X110900000Y-132900000D03*
X112900000Y-132900000D03*
%TD*%
%TO.C,R2*%
X123100000Y-122600000D03*
X125100000Y-122600000D03*
%TD*%
D18*
%TO.C,C18*%
X116225000Y-135875000D03*
X116225000Y-134150000D03*
%TD*%
D20*
%TO.C,C11*%
X117000000Y-128400000D03*
X118725000Y-128400000D03*
%TD*%
D15*
%TO.C,R62*%
X172950000Y-113950000D03*
X172950000Y-111950000D03*
%TD*%
D16*
%TO.C,R4*%
X164500000Y-131700000D03*
X166500000Y-131700000D03*
%TD*%
D27*
%TO.C,C12*%
X112725000Y-127300000D03*
X111000000Y-127300000D03*
%TD*%
D19*
%TO.C,R6*%
X175700000Y-123100000D03*
X175700000Y-125100000D03*
%TD*%
D13*
%TO.C,C9*%
X173950000Y-133600000D03*
X171875000Y-133600000D03*
%TD*%
D23*
%TO.C,C22*%
X119050000Y-146125000D03*
X119050000Y-147850000D03*
%TD*%
D24*
%TO.C,C7*%
X167950000Y-134525000D03*
X167950000Y-136600000D03*
%TD*%
D18*
%TO.C,C19*%
X169700000Y-134575000D03*
X169700000Y-132850000D03*
%TD*%
D13*
%TO.C,C21*%
X173950000Y-135600000D03*
X171875000Y-135600000D03*
%TD*%
D21*
%TO.C,U12*%
X140450000Y-88800000D03*
X139650000Y-88800000D03*
D22*
X139300000Y-87850000D03*
X139800000Y-87850000D03*
X140300000Y-87850000D03*
X140800000Y-87850000D03*
X140800000Y-89750000D03*
X140300000Y-89750000D03*
X139800000Y-89750000D03*
X139300000Y-89750000D03*
%TD*%
D19*
%TO.C,R5*%
X173800000Y-123100000D03*
X173800000Y-125100000D03*
%TD*%
D10*
%TO.C,R14*%
X128275000Y-91150000D03*
X126450000Y-91150000D03*
%TD*%
D23*
%TO.C,C57*%
X174950000Y-115887500D03*
X174950000Y-117612500D03*
%TD*%
M02*
