%TF.GenerationSoftware,KiCad,Pcbnew,9.0.5*%
%TF.CreationDate,2026-03-02T16:07:09-07:00*%
%TF.ProjectId,gnss_v0.2,676e7373-5f76-4302-9e32-2e6b69636164,v0.2*%
%TF.SameCoordinates,Original*%
%TF.FileFunction,Paste,Top*%
%TF.FilePolarity,Positive*%
%FSLAX46Y46*%
G04 Gerber Fmt 4.6, Leading zero omitted, Abs format (unit mm)*
G04 Created by KiCad (PCBNEW 9.0.5) date 2026-03-02 16:07:09*
%MOMM*%
%LPD*%
G01*
G04 APERTURE LIST*
G04 Aperture macros list*
%AMRoundRect*
0 Rectangle with rounded corners*
0 $1 Rounding radius*
0 $2 $3 $4 $5 $6 $7 $8 $9 X,Y pos of 4 corners*
0 Add a 4 corners polygon primitive as box body*
4,1,4,$2,$3,$4,$5,$6,$7,$8,$9,$2,$3,0*
0 Add four circle primitives for the rounded corners*
1,1,$1+$1,$2,$3*
1,1,$1+$1,$4,$5*
1,1,$1+$1,$6,$7*
1,1,$1+$1,$8,$9*
0 Add four rect primitives between the rounded corners*
20,1,$1+$1,$2,$3,$4,$5,0*
20,1,$1+$1,$4,$5,$6,$7,0*
20,1,$1+$1,$6,$7,$8,$9,0*
20,1,$1+$1,$8,$9,$2,$3,0*%
G04 Aperture macros list end*
%ADD10C,0.000000*%
%ADD11R,0.533400X1.473200*%
%ADD12RoundRect,0.250000X-0.350000X-0.450000X0.350000X-0.450000X0.350000X0.450000X-0.350000X0.450000X0*%
%ADD13RoundRect,0.250000X-0.450000X0.350000X-0.450000X-0.350000X0.450000X-0.350000X0.450000X0.350000X0*%
%ADD14R,0.450000X1.475000*%
%ADD15R,0.350000X0.600000*%
%ADD16R,1.700000X1.100000*%
%ADD17RoundRect,0.075000X-0.700000X-0.075000X0.700000X-0.075000X0.700000X0.075000X-0.700000X0.075000X0*%
%ADD18RoundRect,0.075000X-0.075000X-0.700000X0.075000X-0.700000X0.075000X0.700000X-0.075000X0.700000X0*%
%ADD19RoundRect,0.237500X0.300000X0.237500X-0.300000X0.237500X-0.300000X-0.237500X0.300000X-0.237500X0*%
%ADD20R,0.600000X0.350000*%
%ADD21R,1.100000X1.700000*%
%ADD22RoundRect,0.237500X0.237500X-0.300000X0.237500X0.300000X-0.237500X0.300000X-0.237500X-0.300000X0*%
%ADD23RoundRect,0.150000X-0.150000X0.587500X-0.150000X-0.587500X0.150000X-0.587500X0.150000X0.587500X0*%
%ADD24RoundRect,0.150000X0.150000X-0.825000X0.150000X0.825000X-0.150000X0.825000X-0.150000X-0.825000X0*%
%ADD25RoundRect,0.090000X-0.090000X0.139000X-0.090000X-0.139000X0.090000X-0.139000X0.090000X0.139000X0*%
%ADD26RoundRect,0.250000X0.350000X0.450000X-0.350000X0.450000X-0.350000X-0.450000X0.350000X-0.450000X0*%
%ADD27RoundRect,0.150000X0.150000X-0.587500X0.150000X0.587500X-0.150000X0.587500X-0.150000X-0.587500X0*%
%ADD28RoundRect,0.090000X-0.139000X-0.090000X0.139000X-0.090000X0.139000X0.090000X-0.139000X0.090000X0*%
%ADD29RoundRect,0.237500X-0.237500X0.300000X-0.237500X-0.300000X0.237500X-0.300000X0.237500X0.300000X0*%
%ADD30RoundRect,0.237500X-0.237500X0.250000X-0.237500X-0.250000X0.237500X-0.250000X0.237500X0.250000X0*%
%ADD31R,0.254000X0.812800*%
%ADD32RoundRect,0.250000X0.450000X-0.350000X0.450000X0.350000X-0.450000X0.350000X-0.450000X-0.350000X0*%
%ADD33RoundRect,0.237500X-0.300000X-0.237500X0.300000X-0.237500X0.300000X0.237500X-0.300000X0.237500X0*%
%ADD34R,1.000000X1.100000*%
%ADD35R,2.000000X0.700000*%
%ADD36RoundRect,0.250000X0.650000X-1.000000X0.650000X1.000000X-0.650000X1.000000X-0.650000X-1.000000X0*%
%ADD37R,0.990600X1.041400*%
%ADD38R,1.041400X2.209800*%
%ADD39R,0.800000X1.600000*%
%ADD40RoundRect,0.250000X0.475000X-0.337500X0.475000X0.337500X-0.475000X0.337500X-0.475000X-0.337500X0*%
G04 APERTURE END LIST*
D10*
%TO.C,U14*%
G36*
X132712600Y-131614879D02*
G01*
X132571179Y-131756300D01*
X132468430Y-131756300D01*
X132468430Y-131499430D01*
X132712600Y-131499430D01*
X132712600Y-131614879D01*
G37*
G36*
X132712600Y-132885121D02*
G01*
X132712600Y-133000570D01*
X132468430Y-133000570D01*
X132468430Y-132743700D01*
X132571179Y-132743700D01*
X132712600Y-132885121D01*
G37*
G36*
X134731570Y-131756300D02*
G01*
X134628821Y-131756300D01*
X134487400Y-131614879D01*
X134487400Y-131499430D01*
X134731570Y-131499430D01*
X134731570Y-131756300D01*
G37*
G36*
X134731570Y-133000570D02*
G01*
X134487400Y-133000570D01*
X134487400Y-132885121D01*
X134628821Y-132743700D01*
X134731570Y-132743700D01*
X134731570Y-133000570D01*
G37*
G36*
X132712600Y-132097721D02*
G01*
X132712600Y-132402279D01*
X132571179Y-132543700D01*
X132468430Y-132543700D01*
X132468430Y-131956300D01*
X132571179Y-131956300D01*
X132712600Y-132097721D01*
G37*
G36*
X133500000Y-131614879D02*
G01*
X133358579Y-131756300D01*
X133054021Y-131756300D01*
X132912600Y-131614879D01*
X132912600Y-131499430D01*
X133500000Y-131499430D01*
X133500000Y-131614879D01*
G37*
G36*
X133500000Y-132885121D02*
G01*
X133500000Y-133000570D01*
X132912600Y-133000570D01*
X132912600Y-132885121D01*
X133054021Y-132743700D01*
X133358579Y-132743700D01*
X133500000Y-132885121D01*
G37*
G36*
X134287400Y-131614879D02*
G01*
X134145979Y-131756300D01*
X133841421Y-131756300D01*
X133700000Y-131614879D01*
X133700000Y-131499430D01*
X134287400Y-131499430D01*
X134287400Y-131614879D01*
G37*
G36*
X134287400Y-132885121D02*
G01*
X134287400Y-133000570D01*
X133700000Y-133000570D01*
X133700000Y-132885121D01*
X133841421Y-132743700D01*
X134145979Y-132743700D01*
X134287400Y-132885121D01*
G37*
G36*
X134731570Y-132543700D02*
G01*
X134628821Y-132543700D01*
X134487400Y-132402279D01*
X134487400Y-132097721D01*
X134628821Y-131956300D01*
X134731570Y-131956300D01*
X134731570Y-132543700D01*
G37*
G36*
X133500000Y-132097721D02*
G01*
X133500000Y-132402279D01*
X133358579Y-132543700D01*
X133054021Y-132543700D01*
X132912600Y-132402279D01*
X132912600Y-132097721D01*
X133054021Y-131956300D01*
X133358579Y-131956300D01*
X133500000Y-132097721D01*
G37*
G36*
X134287400Y-132097721D02*
G01*
X134287400Y-132402279D01*
X134145979Y-132543700D01*
X133841421Y-132543700D01*
X133700000Y-132402279D01*
X133700000Y-132097721D01*
X133841421Y-131956300D01*
X134145979Y-131956300D01*
X134287400Y-132097721D01*
G37*
%TO.C,U15*%
G36*
X185562600Y-130862679D02*
G01*
X185421179Y-131004100D01*
X185318430Y-131004100D01*
X185318430Y-130747230D01*
X185562600Y-130747230D01*
X185562600Y-130862679D01*
G37*
G36*
X185562600Y-132132921D02*
G01*
X185562600Y-132248370D01*
X185318430Y-132248370D01*
X185318430Y-131991500D01*
X185421179Y-131991500D01*
X185562600Y-132132921D01*
G37*
G36*
X187581570Y-131004100D02*
G01*
X187478821Y-131004100D01*
X187337400Y-130862679D01*
X187337400Y-130747230D01*
X187581570Y-130747230D01*
X187581570Y-131004100D01*
G37*
G36*
X187581570Y-132248370D02*
G01*
X187337400Y-132248370D01*
X187337400Y-132132921D01*
X187478821Y-131991500D01*
X187581570Y-131991500D01*
X187581570Y-132248370D01*
G37*
G36*
X185562600Y-131345521D02*
G01*
X185562600Y-131650079D01*
X185421179Y-131791500D01*
X185318430Y-131791500D01*
X185318430Y-131204100D01*
X185421179Y-131204100D01*
X185562600Y-131345521D01*
G37*
G36*
X186350000Y-130862679D02*
G01*
X186208579Y-131004100D01*
X185904021Y-131004100D01*
X185762600Y-130862679D01*
X185762600Y-130747230D01*
X186350000Y-130747230D01*
X186350000Y-130862679D01*
G37*
G36*
X186350000Y-132132921D02*
G01*
X186350000Y-132248370D01*
X185762600Y-132248370D01*
X185762600Y-132132921D01*
X185904021Y-131991500D01*
X186208579Y-131991500D01*
X186350000Y-132132921D01*
G37*
G36*
X187137400Y-130862679D02*
G01*
X186995979Y-131004100D01*
X186691421Y-131004100D01*
X186550000Y-130862679D01*
X186550000Y-130747230D01*
X187137400Y-130747230D01*
X187137400Y-130862679D01*
G37*
G36*
X187137400Y-132132921D02*
G01*
X187137400Y-132248370D01*
X186550000Y-132248370D01*
X186550000Y-132132921D01*
X186691421Y-131991500D01*
X186995979Y-131991500D01*
X187137400Y-132132921D01*
G37*
G36*
X187581570Y-131791500D02*
G01*
X187478821Y-131791500D01*
X187337400Y-131650079D01*
X187337400Y-131345521D01*
X187478821Y-131204100D01*
X187581570Y-131204100D01*
X187581570Y-131791500D01*
G37*
G36*
X186350000Y-131345521D02*
G01*
X186350000Y-131650079D01*
X186208579Y-131791500D01*
X185904021Y-131791500D01*
X185762600Y-131650079D01*
X185762600Y-131345521D01*
X185904021Y-131204100D01*
X186208579Y-131204100D01*
X186350000Y-131345521D01*
G37*
G36*
X187137400Y-131345521D02*
G01*
X187137400Y-131650079D01*
X186995979Y-131791500D01*
X186691421Y-131791500D01*
X186550000Y-131650079D01*
X186550000Y-131345521D01*
X186691421Y-131204100D01*
X186995979Y-131204100D01*
X187137400Y-131345521D01*
G37*
%TD*%
D11*
%TO.C,U7*%
X150945000Y-92896500D03*
X152215000Y-92896500D03*
X153485000Y-92896500D03*
X154755000Y-92896500D03*
X154755000Y-85403500D03*
X153485000Y-85403500D03*
X152215000Y-85403500D03*
X150945000Y-85403500D03*
%TD*%
D12*
%TO.C,R3_FAULT1*%
X187350000Y-94900000D03*
X189350000Y-94900000D03*
%TD*%
D13*
%TO.C,R8*%
X117100000Y-140300000D03*
X117100000Y-142300000D03*
%TD*%
D14*
%TO.C,IC9*%
X156425000Y-100162000D03*
X155775000Y-100162000D03*
X155125000Y-100162000D03*
X154475000Y-100162000D03*
X153825000Y-100162000D03*
X153175000Y-100162000D03*
X152525000Y-100162000D03*
X151875000Y-100162000D03*
X151875000Y-106038000D03*
X152525000Y-106038000D03*
X153175000Y-106038000D03*
X153825000Y-106038000D03*
X154475000Y-106038000D03*
X155125000Y-106038000D03*
X155775000Y-106038000D03*
X156425000Y-106038000D03*
%TD*%
D15*
%TO.C,IC1*%
X152275000Y-120750000D03*
X152925000Y-120750000D03*
X153575000Y-120750000D03*
X153575000Y-118650000D03*
X152925000Y-118650000D03*
X152275000Y-118650000D03*
D16*
X152925000Y-119700000D03*
%TD*%
D17*
%TO.C,U4*%
X166600000Y-127350000D03*
X166600000Y-127850000D03*
X166600000Y-128350000D03*
X166600000Y-128850000D03*
X166600000Y-129350000D03*
X166600000Y-129850000D03*
X166600000Y-130350000D03*
X166600000Y-130850000D03*
X166600000Y-131350000D03*
X166600000Y-131850000D03*
X166600000Y-132350000D03*
X166600000Y-132850000D03*
X166600000Y-133350000D03*
X166600000Y-133850000D03*
X166600000Y-134350000D03*
X166600000Y-134850000D03*
D18*
X168525000Y-136775000D03*
X169025000Y-136775000D03*
X169525000Y-136775000D03*
X170025000Y-136775000D03*
X170525000Y-136775000D03*
X171025000Y-136775000D03*
X171525000Y-136775000D03*
X172025000Y-136775000D03*
X172525000Y-136775000D03*
X173025000Y-136775000D03*
X173525000Y-136775000D03*
X174025000Y-136775000D03*
X174525000Y-136775000D03*
X175025000Y-136775000D03*
X175525000Y-136775000D03*
X176025000Y-136775000D03*
D17*
X177950000Y-134850000D03*
X177950000Y-134350000D03*
X177950000Y-133850000D03*
X177950000Y-133350000D03*
X177950000Y-132850000D03*
X177950000Y-132350000D03*
X177950000Y-131850000D03*
X177950000Y-131350000D03*
X177950000Y-130850000D03*
X177950000Y-130350000D03*
X177950000Y-129850000D03*
X177950000Y-129350000D03*
X177950000Y-128850000D03*
X177950000Y-128350000D03*
X177950000Y-127850000D03*
X177950000Y-127350000D03*
D18*
X176025000Y-125425000D03*
X175525000Y-125425000D03*
X175025000Y-125425000D03*
X174525000Y-125425000D03*
X174025000Y-125425000D03*
X173525000Y-125425000D03*
X173025000Y-125425000D03*
X172525000Y-125425000D03*
X172025000Y-125425000D03*
X171525000Y-125425000D03*
X171025000Y-125425000D03*
X170525000Y-125425000D03*
X170025000Y-125425000D03*
X169525000Y-125425000D03*
X169025000Y-125425000D03*
X168525000Y-125425000D03*
%TD*%
D13*
%TO.C,R2_ILIM1*%
X113150000Y-73005000D03*
X113150000Y-75005000D03*
%TD*%
D19*
%TO.C,C46*%
X189512499Y-134500000D03*
X187787499Y-134500000D03*
%TD*%
D20*
%TO.C,IC4*%
X111400000Y-75555000D03*
X111400000Y-74905000D03*
X111400000Y-74255000D03*
X109300000Y-74255000D03*
X109300000Y-74905000D03*
X109300000Y-75555000D03*
D21*
X110350000Y-74905000D03*
%TD*%
D22*
%TO.C,C27*%
X135925000Y-89825000D03*
X135925000Y-88100000D03*
%TD*%
D23*
%TO.C,Q12*%
X121950000Y-116012500D03*
X120050000Y-116012500D03*
X121000000Y-117887500D03*
%TD*%
D19*
%TO.C,C45*%
X186162499Y-134500000D03*
X184437499Y-134500000D03*
%TD*%
D24*
%TO.C,U2*%
X184795000Y-77825000D03*
X186065000Y-77825000D03*
X187335000Y-77825000D03*
X188605000Y-77825000D03*
X188605000Y-72875000D03*
X187335000Y-72875000D03*
X186065000Y-72875000D03*
X184795000Y-72875000D03*
%TD*%
D20*
%TO.C,IC5*%
X181045000Y-76000000D03*
X181045000Y-75350000D03*
X181045000Y-74700000D03*
X178945000Y-74700000D03*
X178945000Y-75350000D03*
X178945000Y-76000000D03*
D21*
X179995000Y-75350000D03*
%TD*%
D25*
%TO.C,D3*%
X121300000Y-124167500D03*
X121300000Y-125032500D03*
%TD*%
D12*
%TO.C,R5_ILIM1*%
X132425000Y-86100000D03*
X134425000Y-86100000D03*
%TD*%
D23*
%TO.C,Q17*%
X173100000Y-116012500D03*
X171200000Y-116012500D03*
X172150000Y-117887500D03*
%TD*%
D26*
%TO.C,R17*%
X174475000Y-93200000D03*
X172475000Y-93200000D03*
%TD*%
D27*
%TO.C,Q15*%
X120050000Y-109950000D03*
X121950000Y-109950000D03*
X121000000Y-108075000D03*
%TD*%
D28*
%TO.C,D4*%
X163867500Y-127800000D03*
X164732500Y-127800000D03*
%TD*%
D19*
%TO.C,C44*%
X133324999Y-135302200D03*
X131599999Y-135302200D03*
%TD*%
D29*
%TO.C,C7_RETRY2*%
X156850000Y-88275000D03*
X156850000Y-90000000D03*
%TD*%
%TO.C,C3*%
X150775000Y-118887500D03*
X150775000Y-120612500D03*
%TD*%
D30*
%TO.C,R11*%
X153400000Y-95787500D03*
X153400000Y-97612500D03*
%TD*%
D26*
%TO.C,R29*%
X132999999Y-129052200D03*
X130999999Y-129052200D03*
%TD*%
D13*
%TO.C,R7*%
X176950000Y-140750000D03*
X176950000Y-142750000D03*
%TD*%
D15*
%TO.C,IC2*%
X108100000Y-98500000D03*
X108750000Y-98500000D03*
X109400000Y-98500000D03*
X109400000Y-96400000D03*
X108750000Y-96400000D03*
X108100000Y-96400000D03*
D16*
X108750000Y-97450000D03*
%TD*%
D13*
%TO.C,R4_FAULT1*%
X177239971Y-73350000D03*
X177239971Y-75350000D03*
%TD*%
D31*
%TO.C,U14*%
X132599999Y-133697800D03*
X133100001Y-133697800D03*
X133600000Y-133697800D03*
X134099999Y-133697800D03*
X134600001Y-133697800D03*
X134600001Y-130802200D03*
X134099999Y-130802200D03*
X133600000Y-130802200D03*
X133100001Y-130802200D03*
X132599999Y-130802200D03*
%TD*%
D15*
%TO.C,IC7*%
X147050000Y-87800000D03*
X146400000Y-87800000D03*
X145750000Y-87800000D03*
X145750000Y-89900000D03*
X146400000Y-89900000D03*
X147050000Y-89900000D03*
D16*
X146400000Y-88850000D03*
%TD*%
D13*
%TO.C,R28*%
X136499999Y-131252200D03*
X136499999Y-133252200D03*
%TD*%
D32*
%TO.C,R56*%
X119750000Y-113950000D03*
X119750000Y-111950000D03*
%TD*%
D33*
%TO.C,C24*%
X109537500Y-77005000D03*
X111262500Y-77005000D03*
%TD*%
D34*
%TO.C,SW2*%
X177950000Y-146200000D03*
X182550000Y-146200000D03*
X177950000Y-147800000D03*
X182550000Y-147800000D03*
D35*
X180250000Y-145476000D03*
%TD*%
D36*
%TO.C,D8*%
X167975000Y-90450000D03*
X167975000Y-86450000D03*
%TD*%
D27*
%TO.C,Q16*%
X176750000Y-113750000D03*
X178650000Y-113750000D03*
X177700000Y-111875000D03*
%TD*%
D29*
%TO.C,C2*%
X185600000Y-96787500D03*
X185600000Y-98512500D03*
%TD*%
D25*
%TO.C,D5*%
X174100000Y-122867500D03*
X174100000Y-123732500D03*
%TD*%
D36*
%TO.C,D7*%
X164475000Y-90450000D03*
X164475000Y-86450000D03*
%TD*%
D27*
%TO.C,Q2*%
X187549999Y-128275000D03*
X189449999Y-128275000D03*
X188499999Y-126400000D03*
%TD*%
D26*
%TO.C,R33*%
X185849999Y-126300000D03*
X183849999Y-126300000D03*
%TD*%
D29*
%TO.C,C1_RETRY1*%
X111050000Y-96600000D03*
X111050000Y-98325000D03*
%TD*%
%TO.C,C6_RETRY1*%
X144050000Y-88037500D03*
X144050000Y-89762500D03*
%TD*%
D12*
%TO.C,R1_ILIM1*%
X108550000Y-100100000D03*
X110550000Y-100100000D03*
%TD*%
D13*
%TO.C,R31*%
X189349999Y-130500000D03*
X189349999Y-132500000D03*
%TD*%
D12*
%TO.C,R7_ILIM2*%
X157850000Y-86250000D03*
X159850000Y-86250000D03*
%TD*%
D27*
%TO.C,Q20*%
X171200000Y-110087500D03*
X173100000Y-110087500D03*
X172150000Y-108212500D03*
%TD*%
D34*
%TO.C,SW1*%
X114450000Y-146200000D03*
X119050000Y-146200000D03*
X114450000Y-147800000D03*
X119050000Y-147800000D03*
D35*
X116750000Y-145476000D03*
%TD*%
D30*
%TO.C,R10*%
X154900000Y-95787500D03*
X154900000Y-97612500D03*
%TD*%
D15*
%TO.C,IC3*%
X187100000Y-98700000D03*
X187750000Y-98700000D03*
X188400000Y-98700000D03*
X188400000Y-96600000D03*
X187750000Y-96600000D03*
X187100000Y-96600000D03*
D16*
X187750000Y-97650000D03*
%TD*%
D17*
%TO.C,U3*%
X113125000Y-128650000D03*
X113125000Y-129150000D03*
X113125000Y-129650000D03*
X113125000Y-130150000D03*
X113125000Y-130650000D03*
X113125000Y-131150000D03*
X113125000Y-131650000D03*
X113125000Y-132150000D03*
X113125000Y-132650000D03*
X113125000Y-133150000D03*
X113125000Y-133650000D03*
X113125000Y-134150000D03*
X113125000Y-134650000D03*
X113125000Y-135150000D03*
X113125000Y-135650000D03*
X113125000Y-136150000D03*
D18*
X115050000Y-138075000D03*
X115550000Y-138075000D03*
X116050000Y-138075000D03*
X116550000Y-138075000D03*
X117050000Y-138075000D03*
X117550000Y-138075000D03*
X118050000Y-138075000D03*
X118550000Y-138075000D03*
X119050000Y-138075000D03*
X119550000Y-138075000D03*
X120050000Y-138075000D03*
X120550000Y-138075000D03*
X121050000Y-138075000D03*
X121550000Y-138075000D03*
X122050000Y-138075000D03*
X122550000Y-138075000D03*
D17*
X124475000Y-136150000D03*
X124475000Y-135650000D03*
X124475000Y-135150000D03*
X124475000Y-134650000D03*
X124475000Y-134150000D03*
X124475000Y-133650000D03*
X124475000Y-133150000D03*
X124475000Y-132650000D03*
X124475000Y-132150000D03*
X124475000Y-131650000D03*
X124475000Y-131150000D03*
X124475000Y-130650000D03*
X124475000Y-130150000D03*
X124475000Y-129650000D03*
X124475000Y-129150000D03*
X124475000Y-128650000D03*
D18*
X122550000Y-126725000D03*
X122050000Y-126725000D03*
X121550000Y-126725000D03*
X121050000Y-126725000D03*
X120550000Y-126725000D03*
X120050000Y-126725000D03*
X119550000Y-126725000D03*
X119050000Y-126725000D03*
X118550000Y-126725000D03*
X118050000Y-126725000D03*
X117550000Y-126725000D03*
X117050000Y-126725000D03*
X116550000Y-126725000D03*
X116050000Y-126725000D03*
X115550000Y-126725000D03*
X115050000Y-126725000D03*
%TD*%
D14*
%TO.C,IC13*%
X162100000Y-100162000D03*
X161450000Y-100162000D03*
X160800000Y-100162000D03*
X160150000Y-100162000D03*
X159500000Y-100162000D03*
X158850000Y-100162000D03*
X158200000Y-100162000D03*
X157550000Y-100162000D03*
X157550000Y-106038000D03*
X158200000Y-106038000D03*
X158850000Y-106038000D03*
X159500000Y-106038000D03*
X160150000Y-106038000D03*
X160800000Y-106038000D03*
X161450000Y-106038000D03*
X162100000Y-106038000D03*
%TD*%
D13*
%TO.C,R57*%
X174950000Y-111950000D03*
X174950000Y-113950000D03*
%TD*%
D22*
%TO.C,C28*%
X148800000Y-89775000D03*
X148800000Y-88050000D03*
%TD*%
D13*
%TO.C,R58*%
X172950000Y-111950000D03*
X172950000Y-113950000D03*
%TD*%
D33*
%TO.C,C31*%
X168750000Y-93200000D03*
X170475000Y-93200000D03*
%TD*%
D19*
%TO.C,C4_RETRY1*%
X180920000Y-73100000D03*
X179195000Y-73100000D03*
%TD*%
D33*
%TO.C,C26*%
X152537500Y-109600000D03*
X154262500Y-109600000D03*
%TD*%
D29*
%TO.C,C1*%
X106550000Y-96600000D03*
X106550000Y-98325000D03*
%TD*%
D12*
%TO.C,R3_ILIM1*%
X187600000Y-100400000D03*
X189600000Y-100400000D03*
%TD*%
%TO.C,R5_FAULT1*%
X132425000Y-91600000D03*
X134425000Y-91600000D03*
%TD*%
D29*
%TO.C,C5_RETRY1*%
X131425000Y-88100000D03*
X131425000Y-89825000D03*
%TD*%
D24*
%TO.C,U1*%
X115132500Y-77825000D03*
X116402500Y-77825000D03*
X117672500Y-77825000D03*
X118942500Y-77825000D03*
X118942500Y-72875000D03*
X117672500Y-72875000D03*
X116402500Y-72875000D03*
X115132500Y-72875000D03*
%TD*%
D22*
%TO.C,C58*%
X169150000Y-114012500D03*
X169150000Y-112287500D03*
%TD*%
D33*
%TO.C,C25*%
X179220000Y-77600000D03*
X180945000Y-77600000D03*
%TD*%
D11*
%TO.C,U6*%
X138145000Y-92546500D03*
X139415000Y-92546500D03*
X140685000Y-92546500D03*
X141955000Y-92546500D03*
X141955000Y-85053500D03*
X140685000Y-85053500D03*
X139415000Y-85053500D03*
X138145000Y-85053500D03*
%TD*%
D37*
%TO.C,J4*%
X155574999Y-143875600D03*
D38*
X154099998Y-145400000D03*
X157050000Y-145400000D03*
%TD*%
D12*
%TO.C,R1_FAULT1*%
X108550000Y-94850000D03*
X110550000Y-94850000D03*
%TD*%
D29*
%TO.C,C33*%
X147150000Y-120600000D03*
X147150000Y-122325000D03*
%TD*%
D14*
%TO.C,IC11*%
X144950000Y-100162000D03*
X144300000Y-100162000D03*
X143650000Y-100162000D03*
X143000000Y-100162000D03*
X142350000Y-100162000D03*
X141700000Y-100162000D03*
X141050000Y-100162000D03*
X140400000Y-100162000D03*
X140400000Y-106038000D03*
X141050000Y-106038000D03*
X141700000Y-106038000D03*
X142350000Y-106038000D03*
X143000000Y-106038000D03*
X143650000Y-106038000D03*
X144300000Y-106038000D03*
X144950000Y-106038000D03*
%TD*%
D13*
%TO.C,R50*%
X123750000Y-111950000D03*
X123750000Y-113950000D03*
%TD*%
%TO.C,R2_FAULT1*%
X107650000Y-73005000D03*
X107650000Y-75005000D03*
%TD*%
%TO.C,R4_ILIM1*%
X182695000Y-73100000D03*
X182695000Y-75100000D03*
%TD*%
D19*
%TO.C,C30*%
X166325000Y-92950000D03*
X164600000Y-92950000D03*
%TD*%
D26*
%TO.C,R7_ILIM1*%
X154775000Y-122513095D03*
X152775000Y-122513095D03*
%TD*%
D12*
%TO.C,R32*%
X130999999Y-127052200D03*
X132999999Y-127052200D03*
%TD*%
%TO.C,R7_FAULT2*%
X157850000Y-91750000D03*
X159850000Y-91750000D03*
%TD*%
D27*
%TO.C,Q1*%
X134699999Y-129002200D03*
X136599999Y-129002200D03*
X135649999Y-127127200D03*
%TD*%
D19*
%TO.C,C2_RETRY1*%
X111262500Y-72755000D03*
X109537500Y-72755000D03*
%TD*%
D15*
%TO.C,IC6*%
X134325000Y-87800000D03*
X133675000Y-87800000D03*
X133025000Y-87800000D03*
X133025000Y-89900000D03*
X133675000Y-89900000D03*
X134325000Y-89900000D03*
D16*
X133675000Y-88850000D03*
%TD*%
D36*
%TO.C,D9*%
X171475000Y-90450000D03*
X171475000Y-86450000D03*
%TD*%
D22*
%TO.C,C56*%
X118000000Y-113925000D03*
X118000000Y-112200000D03*
%TD*%
D26*
%TO.C,R7_FAULT1*%
X154525000Y-117013095D03*
X152525000Y-117013095D03*
%TD*%
D12*
%TO.C,R6_FAULT1*%
X145300000Y-91650000D03*
X147300000Y-91650000D03*
%TD*%
%TO.C,R6_ILIM1*%
X145300000Y-86150000D03*
X147300000Y-86150000D03*
%TD*%
D25*
%TO.C,D2*%
X120600000Y-124167500D03*
X120600000Y-125032500D03*
%TD*%
D14*
%TO.C,IC10*%
X150675000Y-100162000D03*
X150025000Y-100162000D03*
X149375000Y-100162000D03*
X148725000Y-100162000D03*
X148075000Y-100162000D03*
X147425000Y-100162000D03*
X146775000Y-100162000D03*
X146125000Y-100162000D03*
X146125000Y-106038000D03*
X146775000Y-106038000D03*
X147425000Y-106038000D03*
X148075000Y-106038000D03*
X148725000Y-106038000D03*
X149375000Y-106038000D03*
X150025000Y-106038000D03*
X150675000Y-106038000D03*
%TD*%
D31*
%TO.C,U15*%
X185449999Y-132945600D03*
X185950001Y-132945600D03*
X186450000Y-132945600D03*
X186949999Y-132945600D03*
X187450001Y-132945600D03*
X187450001Y-130050000D03*
X186949999Y-130050000D03*
X186450000Y-130050000D03*
X185950001Y-130050000D03*
X185449999Y-130050000D03*
%TD*%
D25*
%TO.C,D6*%
X174800000Y-122867500D03*
X174800000Y-123732500D03*
%TD*%
D26*
%TO.C,R30*%
X185849999Y-128300000D03*
X183849999Y-128300000D03*
%TD*%
D13*
%TO.C,R9*%
X175000000Y-140750000D03*
X175000000Y-142750000D03*
%TD*%
D29*
%TO.C,C3_RETRY1*%
X190100000Y-96800000D03*
X190100000Y-98525000D03*
%TD*%
D13*
%TO.C,R51*%
X121750000Y-111950000D03*
X121750000Y-113950000D03*
%TD*%
D32*
%TO.C,R63*%
X170950000Y-113950000D03*
X170950000Y-111950000D03*
%TD*%
D39*
%TO.C,U16*%
X142750000Y-137350000D03*
X143850000Y-137350000D03*
X144950000Y-137350000D03*
X146050000Y-137350000D03*
X147150000Y-137350000D03*
X148250000Y-137350000D03*
X149350000Y-137350000D03*
X152350000Y-137350000D03*
X153450000Y-137350000D03*
X154550000Y-137350000D03*
X155650000Y-137350000D03*
X156750000Y-137350000D03*
X156750000Y-125150000D03*
X155650000Y-125150000D03*
X154550000Y-125150000D03*
X153450000Y-125150000D03*
X152350000Y-125150000D03*
X149350000Y-125150000D03*
X148250000Y-125150000D03*
X147150000Y-125150000D03*
X146050000Y-125150000D03*
X144950000Y-125150000D03*
X143850000Y-125150000D03*
X142750000Y-125150000D03*
%TD*%
D19*
%TO.C,C43*%
X136674999Y-135302200D03*
X134949999Y-135302200D03*
%TD*%
D28*
%TO.C,D1*%
X110535000Y-129200000D03*
X111400000Y-129200000D03*
%TD*%
D22*
%TO.C,C29*%
X161350000Y-89975000D03*
X161350000Y-88250000D03*
%TD*%
D11*
%TO.C,U5*%
X125455600Y-92393000D03*
X126725600Y-92393000D03*
X127995600Y-92393000D03*
X129265600Y-92393000D03*
X129265600Y-84900000D03*
X127995600Y-84900000D03*
X126725600Y-84900000D03*
X125455600Y-84900000D03*
%TD*%
D22*
%TO.C,C7_RETRY1*%
X155025000Y-120612500D03*
X155025000Y-118887500D03*
%TD*%
D15*
%TO.C,IC8*%
X159850000Y-87900000D03*
X159200000Y-87900000D03*
X158550000Y-87900000D03*
X158550000Y-90000000D03*
X159200000Y-90000000D03*
X159850000Y-90000000D03*
D16*
X159200000Y-88950000D03*
%TD*%
D14*
%TO.C,IC12*%
X139175000Y-100162000D03*
X138525000Y-100162000D03*
X137875000Y-100162000D03*
X137225000Y-100162000D03*
X136575000Y-100162000D03*
X135925000Y-100162000D03*
X135275000Y-100162000D03*
X134625000Y-100162000D03*
X134625000Y-106038000D03*
X135275000Y-106038000D03*
X135925000Y-106038000D03*
X136575000Y-106038000D03*
X137225000Y-106038000D03*
X137875000Y-106038000D03*
X138525000Y-106038000D03*
X139175000Y-106038000D03*
%TD*%
D27*
%TO.C,Q11*%
X125550000Y-113825000D03*
X127450000Y-113825000D03*
X126500000Y-111950000D03*
%TD*%
D40*
%TO.C,C32*%
X145350000Y-122475000D03*
X145350000Y-120400000D03*
%TD*%
M02*
