%TF.GenerationSoftware,KiCad,Pcbnew,9.0.4*%
%TF.CreationDate,2026-03-02T15:41:38-07:00*%
%TF.ProjectId,Motor_Board_V2,4d6f746f-725f-4426-9f61-72645f56322e,v0.1*%
%TF.SameCoordinates,Original*%
%TF.FileFunction,Paste,Top*%
%TF.FilePolarity,Positive*%
%FSLAX46Y46*%
G04 Gerber Fmt 4.6, Leading zero omitted, Abs format (unit mm)*
G04 Created by KiCad (PCBNEW 9.0.4) date 2026-03-02 15:41:38*
%MOMM*%
%LPD*%
G01*
G04 APERTURE LIST*
G04 Aperture macros list*
%AMRoundRect*
0 Rectangle with rounded corners*
0 $1 Rounding radius*
0 $2 $3 $4 $5 $6 $7 $8 $9 X,Y pos of 4 corners*
0 Add a 4 corners polygon primitive as box body*
4,1,4,$2,$3,$4,$5,$6,$7,$8,$9,$2,$3,0*
0 Add four circle primitives for the rounded corners*
1,1,$1+$1,$2,$3*
1,1,$1+$1,$4,$5*
1,1,$1+$1,$6,$7*
1,1,$1+$1,$8,$9*
0 Add four rect primitives between the rounded corners*
20,1,$1+$1,$2,$3,$4,$5,0*
20,1,$1+$1,$4,$5,$6,$7,0*
20,1,$1+$1,$6,$7,$8,$9,0*
20,1,$1+$1,$8,$9,$2,$3,0*%
G04 Aperture macros list end*
%ADD10C,0.010000*%
%ADD11RoundRect,0.200000X0.275000X-0.200000X0.275000X0.200000X-0.275000X0.200000X-0.275000X-0.200000X0*%
%ADD12R,0.350000X0.600000*%
%ADD13R,1.700000X1.100000*%
%ADD14RoundRect,0.250000X0.262500X0.450000X-0.262500X0.450000X-0.262500X-0.450000X0.262500X-0.450000X0*%
%ADD15RoundRect,0.200000X-0.275000X0.200000X-0.275000X-0.200000X0.275000X-0.200000X0.275000X0.200000X0*%
%ADD16R,1.475000X0.450000*%
%ADD17RoundRect,0.225000X-0.250000X0.225000X-0.250000X-0.225000X0.250000X-0.225000X0.250000X0.225000X0*%
%ADD18RoundRect,0.150000X0.587500X0.150000X-0.587500X0.150000X-0.587500X-0.150000X0.587500X-0.150000X0*%
%ADD19RoundRect,0.075000X-0.725000X-0.075000X0.725000X-0.075000X0.725000X0.075000X-0.725000X0.075000X0*%
%ADD20RoundRect,0.075000X-0.075000X-0.725000X0.075000X-0.725000X0.075000X0.725000X-0.075000X0.725000X0*%
%ADD21RoundRect,0.250000X-0.262500X-0.450000X0.262500X-0.450000X0.262500X0.450000X-0.262500X0.450000X0*%
%ADD22R,0.450000X1.475000*%
%ADD23RoundRect,0.237500X-0.250000X-0.237500X0.250000X-0.237500X0.250000X0.237500X-0.250000X0.237500X0*%
%ADD24RoundRect,0.250000X-0.450000X0.262500X-0.450000X-0.262500X0.450000X-0.262500X0.450000X0.262500X0*%
%ADD25R,1.650000X0.600000*%
%ADD26R,1.850000X0.600000*%
%ADD27R,5.500000X0.600000*%
%ADD28RoundRect,0.237500X0.300000X0.237500X-0.300000X0.237500X-0.300000X-0.237500X0.300000X-0.237500X0*%
%ADD29RoundRect,0.237500X-0.300000X-0.237500X0.300000X-0.237500X0.300000X0.237500X-0.300000X0.237500X0*%
%ADD30RoundRect,0.250000X-0.350000X-0.450000X0.350000X-0.450000X0.350000X0.450000X-0.350000X0.450000X0*%
%ADD31RoundRect,0.250000X0.325000X1.100000X-0.325000X1.100000X-0.325000X-1.100000X0.325000X-1.100000X0*%
%ADD32R,0.200000X0.599999*%
%ADD33R,0.599999X0.200000*%
%ADD34RoundRect,0.250000X-0.475000X0.337500X-0.475000X-0.337500X0.475000X-0.337500X0.475000X0.337500X0*%
%ADD35RoundRect,0.225000X0.225000X0.250000X-0.225000X0.250000X-0.225000X-0.250000X0.225000X-0.250000X0*%
%ADD36RoundRect,0.250000X0.350000X0.450000X-0.350000X0.450000X-0.350000X-0.450000X0.350000X-0.450000X0*%
%ADD37RoundRect,0.250000X-1.100000X0.325000X-1.100000X-0.325000X1.100000X-0.325000X1.100000X0.325000X0*%
%ADD38RoundRect,0.237500X-0.237500X0.300000X-0.237500X-0.300000X0.237500X-0.300000X0.237500X0.300000X0*%
%ADD39RoundRect,0.150000X0.825000X0.150000X-0.825000X0.150000X-0.825000X-0.150000X0.825000X-0.150000X0*%
%ADD40R,0.600000X1.650000*%
%ADD41R,0.600000X1.850000*%
%ADD42R,0.600000X5.500000*%
%ADD43RoundRect,0.200000X-0.200000X-0.275000X0.200000X-0.275000X0.200000X0.275000X-0.200000X0.275000X0*%
%ADD44RoundRect,0.237500X0.237500X-0.300000X0.237500X0.300000X-0.237500X0.300000X-0.237500X-0.300000X0*%
%ADD45R,0.650000X0.750000*%
%ADD46RoundRect,0.062500X0.062500X-0.187500X0.062500X0.187500X-0.062500X0.187500X-0.062500X-0.187500X0*%
%ADD47RoundRect,0.030000X-0.090000X0.270000X-0.090000X-0.270000X0.090000X-0.270000X0.090000X0.270000X0*%
%ADD48RoundRect,0.250000X-0.450000X0.350000X-0.450000X-0.350000X0.450000X-0.350000X0.450000X0.350000X0*%
%ADD49RoundRect,0.237500X0.250000X0.237500X-0.250000X0.237500X-0.250000X-0.237500X0.250000X-0.237500X0*%
%ADD50RoundRect,0.090000X-0.139000X-0.090000X0.139000X-0.090000X0.139000X0.090000X-0.139000X0.090000X0*%
%ADD51RoundRect,0.150000X-0.587500X-0.150000X0.587500X-0.150000X0.587500X0.150000X-0.587500X0.150000X0*%
%ADD52RoundRect,0.200000X0.200000X0.275000X-0.200000X0.275000X-0.200000X-0.275000X0.200000X-0.275000X0*%
%ADD53RoundRect,0.237500X-0.237500X0.250000X-0.237500X-0.250000X0.237500X-0.250000X0.237500X0.250000X0*%
%ADD54RoundRect,0.250000X-0.325000X-1.100000X0.325000X-1.100000X0.325000X1.100000X-0.325000X1.100000X0*%
%ADD55RoundRect,0.225000X0.250000X-0.225000X0.250000X0.225000X-0.250000X0.225000X-0.250000X-0.225000X0*%
%ADD56R,0.900000X1.000000*%
%ADD57R,1.700000X0.550000*%
%ADD58RoundRect,0.150000X-0.825000X-0.150000X0.825000X-0.150000X0.825000X0.150000X-0.825000X0.150000X0*%
%ADD59RoundRect,0.062500X-0.062500X0.187500X-0.062500X-0.187500X0.062500X-0.187500X0.062500X0.187500X0*%
%ADD60R,0.750000X0.650000*%
%ADD61RoundRect,0.062500X0.187500X0.062500X-0.187500X0.062500X-0.187500X-0.062500X0.187500X-0.062500X0*%
%ADD62RoundRect,0.225000X-0.225000X-0.250000X0.225000X-0.250000X0.225000X0.250000X-0.225000X0.250000X0*%
%ADD63RoundRect,0.250000X1.100000X-0.325000X1.100000X0.325000X-1.100000X0.325000X-1.100000X-0.325000X0*%
G04 APERTURE END LIST*
D10*
%TO.C,U51*%
X87390000Y-144650000D02*
X87100000Y-144650000D01*
X87097000Y-144650000D01*
X87095000Y-144650000D01*
X87092000Y-144649000D01*
X87090000Y-144649000D01*
X87087000Y-144648000D01*
X87085000Y-144648000D01*
X87082000Y-144647000D01*
X87080000Y-144646000D01*
X87077000Y-144645000D01*
X87075000Y-144643000D01*
X87073000Y-144642000D01*
X87071000Y-144640000D01*
X87069000Y-144639000D01*
X87067000Y-144637000D01*
X87065000Y-144635000D01*
X87063000Y-144633000D01*
X87061000Y-144631000D01*
X87060000Y-144629000D01*
X87058000Y-144627000D01*
X87057000Y-144625000D01*
X87055000Y-144623000D01*
X87054000Y-144620000D01*
X87053000Y-144618000D01*
X87052000Y-144615000D01*
X87052000Y-144613000D01*
X87051000Y-144610000D01*
X87051000Y-144608000D01*
X87050000Y-144605000D01*
X87050000Y-144603000D01*
X87050000Y-144600000D01*
X87050000Y-144450000D01*
X87050000Y-144447000D01*
X87050000Y-144445000D01*
X87051000Y-144442000D01*
X87051000Y-144440000D01*
X87052000Y-144437000D01*
X87052000Y-144435000D01*
X87053000Y-144432000D01*
X87054000Y-144430000D01*
X87055000Y-144427000D01*
X87057000Y-144425000D01*
X87058000Y-144423000D01*
X87060000Y-144421000D01*
X87061000Y-144419000D01*
X87063000Y-144417000D01*
X87065000Y-144415000D01*
X87067000Y-144413000D01*
X87069000Y-144411000D01*
X87071000Y-144410000D01*
X87073000Y-144408000D01*
X87075000Y-144407000D01*
X87077000Y-144405000D01*
X87080000Y-144404000D01*
X87082000Y-144403000D01*
X87085000Y-144402000D01*
X87087000Y-144402000D01*
X87090000Y-144401000D01*
X87092000Y-144401000D01*
X87095000Y-144400000D01*
X87097000Y-144400000D01*
X87100000Y-144400000D01*
X87390000Y-144400000D01*
X87390000Y-144650000D01*
G36*
X87390000Y-144650000D02*
G01*
X87100000Y-144650000D01*
X87097000Y-144650000D01*
X87095000Y-144650000D01*
X87092000Y-144649000D01*
X87090000Y-144649000D01*
X87087000Y-144648000D01*
X87085000Y-144648000D01*
X87082000Y-144647000D01*
X87080000Y-144646000D01*
X87077000Y-144645000D01*
X87075000Y-144643000D01*
X87073000Y-144642000D01*
X87071000Y-144640000D01*
X87069000Y-144639000D01*
X87067000Y-144637000D01*
X87065000Y-144635000D01*
X87063000Y-144633000D01*
X87061000Y-144631000D01*
X87060000Y-144629000D01*
X87058000Y-144627000D01*
X87057000Y-144625000D01*
X87055000Y-144623000D01*
X87054000Y-144620000D01*
X87053000Y-144618000D01*
X87052000Y-144615000D01*
X87052000Y-144613000D01*
X87051000Y-144610000D01*
X87051000Y-144608000D01*
X87050000Y-144605000D01*
X87050000Y-144603000D01*
X87050000Y-144600000D01*
X87050000Y-144450000D01*
X87050000Y-144447000D01*
X87050000Y-144445000D01*
X87051000Y-144442000D01*
X87051000Y-144440000D01*
X87052000Y-144437000D01*
X87052000Y-144435000D01*
X87053000Y-144432000D01*
X87054000Y-144430000D01*
X87055000Y-144427000D01*
X87057000Y-144425000D01*
X87058000Y-144423000D01*
X87060000Y-144421000D01*
X87061000Y-144419000D01*
X87063000Y-144417000D01*
X87065000Y-144415000D01*
X87067000Y-144413000D01*
X87069000Y-144411000D01*
X87071000Y-144410000D01*
X87073000Y-144408000D01*
X87075000Y-144407000D01*
X87077000Y-144405000D01*
X87080000Y-144404000D01*
X87082000Y-144403000D01*
X87085000Y-144402000D01*
X87087000Y-144402000D01*
X87090000Y-144401000D01*
X87092000Y-144401000D01*
X87095000Y-144400000D01*
X87097000Y-144400000D01*
X87100000Y-144400000D01*
X87390000Y-144400000D01*
X87390000Y-144650000D01*
G37*
X87390000Y-145150000D02*
X87100000Y-145150000D01*
X87097000Y-145150000D01*
X87095000Y-145150000D01*
X87092000Y-145149000D01*
X87090000Y-145149000D01*
X87087000Y-145148000D01*
X87085000Y-145148000D01*
X87082000Y-145147000D01*
X87080000Y-145146000D01*
X87077000Y-145145000D01*
X87075000Y-145143000D01*
X87073000Y-145142000D01*
X87071000Y-145140000D01*
X87069000Y-145139000D01*
X87067000Y-145137000D01*
X87065000Y-145135000D01*
X87063000Y-145133000D01*
X87061000Y-145131000D01*
X87060000Y-145129000D01*
X87058000Y-145127000D01*
X87057000Y-145125000D01*
X87055000Y-145123000D01*
X87054000Y-145120000D01*
X87053000Y-145118000D01*
X87052000Y-145115000D01*
X87052000Y-145113000D01*
X87051000Y-145110000D01*
X87051000Y-145108000D01*
X87050000Y-145105000D01*
X87050000Y-145103000D01*
X87050000Y-145100000D01*
X87050000Y-144950000D01*
X87050000Y-144947000D01*
X87050000Y-144945000D01*
X87051000Y-144942000D01*
X87051000Y-144940000D01*
X87052000Y-144937000D01*
X87052000Y-144935000D01*
X87053000Y-144932000D01*
X87054000Y-144930000D01*
X87055000Y-144927000D01*
X87057000Y-144925000D01*
X87058000Y-144923000D01*
X87060000Y-144921000D01*
X87061000Y-144919000D01*
X87063000Y-144917000D01*
X87065000Y-144915000D01*
X87067000Y-144913000D01*
X87069000Y-144911000D01*
X87071000Y-144910000D01*
X87073000Y-144908000D01*
X87075000Y-144907000D01*
X87077000Y-144905000D01*
X87080000Y-144904000D01*
X87082000Y-144903000D01*
X87085000Y-144902000D01*
X87087000Y-144902000D01*
X87090000Y-144901000D01*
X87092000Y-144901000D01*
X87095000Y-144900000D01*
X87097000Y-144900000D01*
X87100000Y-144900000D01*
X87390000Y-144900000D01*
X87390000Y-145150000D01*
G36*
X87390000Y-145150000D02*
G01*
X87100000Y-145150000D01*
X87097000Y-145150000D01*
X87095000Y-145150000D01*
X87092000Y-145149000D01*
X87090000Y-145149000D01*
X87087000Y-145148000D01*
X87085000Y-145148000D01*
X87082000Y-145147000D01*
X87080000Y-145146000D01*
X87077000Y-145145000D01*
X87075000Y-145143000D01*
X87073000Y-145142000D01*
X87071000Y-145140000D01*
X87069000Y-145139000D01*
X87067000Y-145137000D01*
X87065000Y-145135000D01*
X87063000Y-145133000D01*
X87061000Y-145131000D01*
X87060000Y-145129000D01*
X87058000Y-145127000D01*
X87057000Y-145125000D01*
X87055000Y-145123000D01*
X87054000Y-145120000D01*
X87053000Y-145118000D01*
X87052000Y-145115000D01*
X87052000Y-145113000D01*
X87051000Y-145110000D01*
X87051000Y-145108000D01*
X87050000Y-145105000D01*
X87050000Y-145103000D01*
X87050000Y-145100000D01*
X87050000Y-144950000D01*
X87050000Y-144947000D01*
X87050000Y-144945000D01*
X87051000Y-144942000D01*
X87051000Y-144940000D01*
X87052000Y-144937000D01*
X87052000Y-144935000D01*
X87053000Y-144932000D01*
X87054000Y-144930000D01*
X87055000Y-144927000D01*
X87057000Y-144925000D01*
X87058000Y-144923000D01*
X87060000Y-144921000D01*
X87061000Y-144919000D01*
X87063000Y-144917000D01*
X87065000Y-144915000D01*
X87067000Y-144913000D01*
X87069000Y-144911000D01*
X87071000Y-144910000D01*
X87073000Y-144908000D01*
X87075000Y-144907000D01*
X87077000Y-144905000D01*
X87080000Y-144904000D01*
X87082000Y-144903000D01*
X87085000Y-144902000D01*
X87087000Y-144902000D01*
X87090000Y-144901000D01*
X87092000Y-144901000D01*
X87095000Y-144900000D01*
X87097000Y-144900000D01*
X87100000Y-144900000D01*
X87390000Y-144900000D01*
X87390000Y-145150000D01*
G37*
X90408000Y-144401000D02*
X90410000Y-144401000D01*
X90413000Y-144402000D01*
X90415000Y-144402000D01*
X90418000Y-144403000D01*
X90420000Y-144404000D01*
X90423000Y-144405000D01*
X90425000Y-144407000D01*
X90427000Y-144408000D01*
X90429000Y-144410000D01*
X90431000Y-144411000D01*
X90433000Y-144413000D01*
X90435000Y-144415000D01*
X90437000Y-144417000D01*
X90439000Y-144419000D01*
X90440000Y-144421000D01*
X90442000Y-144423000D01*
X90443000Y-144425000D01*
X90445000Y-144427000D01*
X90446000Y-144430000D01*
X90447000Y-144432000D01*
X90448000Y-144435000D01*
X90448000Y-144437000D01*
X90449000Y-144440000D01*
X90449000Y-144442000D01*
X90450000Y-144445000D01*
X90450000Y-144447000D01*
X90450000Y-144450000D01*
X90450000Y-144600000D01*
X90450000Y-144603000D01*
X90450000Y-144605000D01*
X90449000Y-144608000D01*
X90449000Y-144610000D01*
X90448000Y-144613000D01*
X90448000Y-144615000D01*
X90447000Y-144618000D01*
X90446000Y-144620000D01*
X90445000Y-144623000D01*
X90443000Y-144625000D01*
X90442000Y-144627000D01*
X90440000Y-144629000D01*
X90439000Y-144631000D01*
X90437000Y-144633000D01*
X90435000Y-144635000D01*
X90433000Y-144637000D01*
X90431000Y-144639000D01*
X90429000Y-144640000D01*
X90427000Y-144642000D01*
X90425000Y-144643000D01*
X90423000Y-144645000D01*
X90420000Y-144646000D01*
X90418000Y-144647000D01*
X90415000Y-144648000D01*
X90413000Y-144648000D01*
X90410000Y-144649000D01*
X90408000Y-144649000D01*
X90405000Y-144650000D01*
X90403000Y-144650000D01*
X90400000Y-144650000D01*
X90110000Y-144650000D01*
X90110000Y-144400000D01*
X90400000Y-144400000D01*
X90403000Y-144400000D01*
X90405000Y-144400000D01*
X90408000Y-144401000D01*
G36*
X90408000Y-144401000D02*
G01*
X90410000Y-144401000D01*
X90413000Y-144402000D01*
X90415000Y-144402000D01*
X90418000Y-144403000D01*
X90420000Y-144404000D01*
X90423000Y-144405000D01*
X90425000Y-144407000D01*
X90427000Y-144408000D01*
X90429000Y-144410000D01*
X90431000Y-144411000D01*
X90433000Y-144413000D01*
X90435000Y-144415000D01*
X90437000Y-144417000D01*
X90439000Y-144419000D01*
X90440000Y-144421000D01*
X90442000Y-144423000D01*
X90443000Y-144425000D01*
X90445000Y-144427000D01*
X90446000Y-144430000D01*
X90447000Y-144432000D01*
X90448000Y-144435000D01*
X90448000Y-144437000D01*
X90449000Y-144440000D01*
X90449000Y-144442000D01*
X90450000Y-144445000D01*
X90450000Y-144447000D01*
X90450000Y-144450000D01*
X90450000Y-144600000D01*
X90450000Y-144603000D01*
X90450000Y-144605000D01*
X90449000Y-144608000D01*
X90449000Y-144610000D01*
X90448000Y-144613000D01*
X90448000Y-144615000D01*
X90447000Y-144618000D01*
X90446000Y-144620000D01*
X90445000Y-144623000D01*
X90443000Y-144625000D01*
X90442000Y-144627000D01*
X90440000Y-144629000D01*
X90439000Y-144631000D01*
X90437000Y-144633000D01*
X90435000Y-144635000D01*
X90433000Y-144637000D01*
X90431000Y-144639000D01*
X90429000Y-144640000D01*
X90427000Y-144642000D01*
X90425000Y-144643000D01*
X90423000Y-144645000D01*
X90420000Y-144646000D01*
X90418000Y-144647000D01*
X90415000Y-144648000D01*
X90413000Y-144648000D01*
X90410000Y-144649000D01*
X90408000Y-144649000D01*
X90405000Y-144650000D01*
X90403000Y-144650000D01*
X90400000Y-144650000D01*
X90110000Y-144650000D01*
X90110000Y-144400000D01*
X90400000Y-144400000D01*
X90403000Y-144400000D01*
X90405000Y-144400000D01*
X90408000Y-144401000D01*
G37*
X90408000Y-144901000D02*
X90410000Y-144901000D01*
X90413000Y-144902000D01*
X90415000Y-144902000D01*
X90418000Y-144903000D01*
X90420000Y-144904000D01*
X90423000Y-144905000D01*
X90425000Y-144907000D01*
X90427000Y-144908000D01*
X90429000Y-144910000D01*
X90431000Y-144911000D01*
X90433000Y-144913000D01*
X90435000Y-144915000D01*
X90437000Y-144917000D01*
X90439000Y-144919000D01*
X90440000Y-144921000D01*
X90442000Y-144923000D01*
X90443000Y-144925000D01*
X90445000Y-144927000D01*
X90446000Y-144930000D01*
X90447000Y-144932000D01*
X90448000Y-144935000D01*
X90448000Y-144937000D01*
X90449000Y-144940000D01*
X90449000Y-144942000D01*
X90450000Y-144945000D01*
X90450000Y-144947000D01*
X90450000Y-144950000D01*
X90450000Y-145100000D01*
X90450000Y-145103000D01*
X90450000Y-145105000D01*
X90449000Y-145108000D01*
X90449000Y-145110000D01*
X90448000Y-145113000D01*
X90448000Y-145115000D01*
X90447000Y-145118000D01*
X90446000Y-145120000D01*
X90445000Y-145123000D01*
X90443000Y-145125000D01*
X90442000Y-145127000D01*
X90440000Y-145129000D01*
X90439000Y-145131000D01*
X90437000Y-145133000D01*
X90435000Y-145135000D01*
X90433000Y-145137000D01*
X90431000Y-145139000D01*
X90429000Y-145140000D01*
X90427000Y-145142000D01*
X90425000Y-145143000D01*
X90423000Y-145145000D01*
X90420000Y-145146000D01*
X90418000Y-145147000D01*
X90415000Y-145148000D01*
X90413000Y-145148000D01*
X90410000Y-145149000D01*
X90408000Y-145149000D01*
X90405000Y-145150000D01*
X90403000Y-145150000D01*
X90400000Y-145150000D01*
X90110000Y-145150000D01*
X90110000Y-144900000D01*
X90400000Y-144900000D01*
X90403000Y-144900000D01*
X90405000Y-144900000D01*
X90408000Y-144901000D01*
G36*
X90408000Y-144901000D02*
G01*
X90410000Y-144901000D01*
X90413000Y-144902000D01*
X90415000Y-144902000D01*
X90418000Y-144903000D01*
X90420000Y-144904000D01*
X90423000Y-144905000D01*
X90425000Y-144907000D01*
X90427000Y-144908000D01*
X90429000Y-144910000D01*
X90431000Y-144911000D01*
X90433000Y-144913000D01*
X90435000Y-144915000D01*
X90437000Y-144917000D01*
X90439000Y-144919000D01*
X90440000Y-144921000D01*
X90442000Y-144923000D01*
X90443000Y-144925000D01*
X90445000Y-144927000D01*
X90446000Y-144930000D01*
X90447000Y-144932000D01*
X90448000Y-144935000D01*
X90448000Y-144937000D01*
X90449000Y-144940000D01*
X90449000Y-144942000D01*
X90450000Y-144945000D01*
X90450000Y-144947000D01*
X90450000Y-144950000D01*
X90450000Y-145100000D01*
X90450000Y-145103000D01*
X90450000Y-145105000D01*
X90449000Y-145108000D01*
X90449000Y-145110000D01*
X90448000Y-145113000D01*
X90448000Y-145115000D01*
X90447000Y-145118000D01*
X90446000Y-145120000D01*
X90445000Y-145123000D01*
X90443000Y-145125000D01*
X90442000Y-145127000D01*
X90440000Y-145129000D01*
X90439000Y-145131000D01*
X90437000Y-145133000D01*
X90435000Y-145135000D01*
X90433000Y-145137000D01*
X90431000Y-145139000D01*
X90429000Y-145140000D01*
X90427000Y-145142000D01*
X90425000Y-145143000D01*
X90423000Y-145145000D01*
X90420000Y-145146000D01*
X90418000Y-145147000D01*
X90415000Y-145148000D01*
X90413000Y-145148000D01*
X90410000Y-145149000D01*
X90408000Y-145149000D01*
X90405000Y-145150000D01*
X90403000Y-145150000D01*
X90400000Y-145150000D01*
X90110000Y-145150000D01*
X90110000Y-144900000D01*
X90400000Y-144900000D01*
X90403000Y-144900000D01*
X90405000Y-144900000D01*
X90408000Y-144901000D01*
G37*
X88608000Y-144026000D02*
X88610000Y-144026000D01*
X88613000Y-144027000D01*
X88615000Y-144027000D01*
X88618000Y-144028000D01*
X88620000Y-144029000D01*
X88623000Y-144030000D01*
X88625000Y-144032000D01*
X88627000Y-144033000D01*
X88629000Y-144035000D01*
X88631000Y-144036000D01*
X88633000Y-144038000D01*
X88635000Y-144040000D01*
X88637000Y-144042000D01*
X88639000Y-144044000D01*
X88640000Y-144046000D01*
X88642000Y-144048000D01*
X88643000Y-144050000D01*
X88645000Y-144052000D01*
X88646000Y-144055000D01*
X88647000Y-144057000D01*
X88648000Y-144060000D01*
X88648000Y-144062000D01*
X88649000Y-144065000D01*
X88649000Y-144067000D01*
X88650000Y-144070000D01*
X88650000Y-144072000D01*
X88650000Y-144075000D01*
X88650000Y-145475000D01*
X88650000Y-145478000D01*
X88650000Y-145480000D01*
X88649000Y-145483000D01*
X88649000Y-145485000D01*
X88648000Y-145488000D01*
X88648000Y-145490000D01*
X88647000Y-145493000D01*
X88646000Y-145495000D01*
X88645000Y-145498000D01*
X88643000Y-145500000D01*
X88642000Y-145502000D01*
X88640000Y-145504000D01*
X88639000Y-145506000D01*
X88637000Y-145508000D01*
X88635000Y-145510000D01*
X88633000Y-145512000D01*
X88631000Y-145514000D01*
X88629000Y-145515000D01*
X88627000Y-145517000D01*
X88625000Y-145518000D01*
X88623000Y-145520000D01*
X88620000Y-145521000D01*
X88618000Y-145522000D01*
X88615000Y-145523000D01*
X88613000Y-145523000D01*
X88610000Y-145524000D01*
X88608000Y-145524000D01*
X88605000Y-145525000D01*
X88603000Y-145525000D01*
X88600000Y-145525000D01*
X87640000Y-145525000D01*
X87637000Y-145525000D01*
X87635000Y-145525000D01*
X87632000Y-145524000D01*
X87630000Y-145524000D01*
X87627000Y-145523000D01*
X87625000Y-145523000D01*
X87622000Y-145522000D01*
X87620000Y-145521000D01*
X87617000Y-145520000D01*
X87615000Y-145518000D01*
X87613000Y-145517000D01*
X87611000Y-145515000D01*
X87609000Y-145514000D01*
X87607000Y-145512000D01*
X87605000Y-145510000D01*
X87603000Y-145508000D01*
X87601000Y-145506000D01*
X87600000Y-145504000D01*
X87598000Y-145502000D01*
X87597000Y-145500000D01*
X87595000Y-145498000D01*
X87594000Y-145495000D01*
X87593000Y-145493000D01*
X87592000Y-145490000D01*
X87592000Y-145488000D01*
X87591000Y-145485000D01*
X87591000Y-145483000D01*
X87590000Y-145480000D01*
X87590000Y-145478000D01*
X87590000Y-145475000D01*
X87590000Y-144075000D01*
X87590000Y-144072000D01*
X87590000Y-144070000D01*
X87591000Y-144067000D01*
X87591000Y-144065000D01*
X87592000Y-144062000D01*
X87592000Y-144060000D01*
X87593000Y-144057000D01*
X87594000Y-144055000D01*
X87595000Y-144052000D01*
X87597000Y-144050000D01*
X87598000Y-144048000D01*
X87600000Y-144046000D01*
X87601000Y-144044000D01*
X87603000Y-144042000D01*
X87605000Y-144040000D01*
X87607000Y-144038000D01*
X87609000Y-144036000D01*
X87611000Y-144035000D01*
X87613000Y-144033000D01*
X87615000Y-144032000D01*
X87617000Y-144030000D01*
X87620000Y-144029000D01*
X87622000Y-144028000D01*
X87625000Y-144027000D01*
X87627000Y-144027000D01*
X87630000Y-144026000D01*
X87632000Y-144026000D01*
X87635000Y-144025000D01*
X87637000Y-144025000D01*
X87640000Y-144025000D01*
X88600000Y-144025000D01*
X88603000Y-144025000D01*
X88605000Y-144025000D01*
X88608000Y-144026000D01*
G36*
X88608000Y-144026000D02*
G01*
X88610000Y-144026000D01*
X88613000Y-144027000D01*
X88615000Y-144027000D01*
X88618000Y-144028000D01*
X88620000Y-144029000D01*
X88623000Y-144030000D01*
X88625000Y-144032000D01*
X88627000Y-144033000D01*
X88629000Y-144035000D01*
X88631000Y-144036000D01*
X88633000Y-144038000D01*
X88635000Y-144040000D01*
X88637000Y-144042000D01*
X88639000Y-144044000D01*
X88640000Y-144046000D01*
X88642000Y-144048000D01*
X88643000Y-144050000D01*
X88645000Y-144052000D01*
X88646000Y-144055000D01*
X88647000Y-144057000D01*
X88648000Y-144060000D01*
X88648000Y-144062000D01*
X88649000Y-144065000D01*
X88649000Y-144067000D01*
X88650000Y-144070000D01*
X88650000Y-144072000D01*
X88650000Y-144075000D01*
X88650000Y-145475000D01*
X88650000Y-145478000D01*
X88650000Y-145480000D01*
X88649000Y-145483000D01*
X88649000Y-145485000D01*
X88648000Y-145488000D01*
X88648000Y-145490000D01*
X88647000Y-145493000D01*
X88646000Y-145495000D01*
X88645000Y-145498000D01*
X88643000Y-145500000D01*
X88642000Y-145502000D01*
X88640000Y-145504000D01*
X88639000Y-145506000D01*
X88637000Y-145508000D01*
X88635000Y-145510000D01*
X88633000Y-145512000D01*
X88631000Y-145514000D01*
X88629000Y-145515000D01*
X88627000Y-145517000D01*
X88625000Y-145518000D01*
X88623000Y-145520000D01*
X88620000Y-145521000D01*
X88618000Y-145522000D01*
X88615000Y-145523000D01*
X88613000Y-145523000D01*
X88610000Y-145524000D01*
X88608000Y-145524000D01*
X88605000Y-145525000D01*
X88603000Y-145525000D01*
X88600000Y-145525000D01*
X87640000Y-145525000D01*
X87637000Y-145525000D01*
X87635000Y-145525000D01*
X87632000Y-145524000D01*
X87630000Y-145524000D01*
X87627000Y-145523000D01*
X87625000Y-145523000D01*
X87622000Y-145522000D01*
X87620000Y-145521000D01*
X87617000Y-145520000D01*
X87615000Y-145518000D01*
X87613000Y-145517000D01*
X87611000Y-145515000D01*
X87609000Y-145514000D01*
X87607000Y-145512000D01*
X87605000Y-145510000D01*
X87603000Y-145508000D01*
X87601000Y-145506000D01*
X87600000Y-145504000D01*
X87598000Y-145502000D01*
X87597000Y-145500000D01*
X87595000Y-145498000D01*
X87594000Y-145495000D01*
X87593000Y-145493000D01*
X87592000Y-145490000D01*
X87592000Y-145488000D01*
X87591000Y-145485000D01*
X87591000Y-145483000D01*
X87590000Y-145480000D01*
X87590000Y-145478000D01*
X87590000Y-145475000D01*
X87590000Y-144075000D01*
X87590000Y-144072000D01*
X87590000Y-144070000D01*
X87591000Y-144067000D01*
X87591000Y-144065000D01*
X87592000Y-144062000D01*
X87592000Y-144060000D01*
X87593000Y-144057000D01*
X87594000Y-144055000D01*
X87595000Y-144052000D01*
X87597000Y-144050000D01*
X87598000Y-144048000D01*
X87600000Y-144046000D01*
X87601000Y-144044000D01*
X87603000Y-144042000D01*
X87605000Y-144040000D01*
X87607000Y-144038000D01*
X87609000Y-144036000D01*
X87611000Y-144035000D01*
X87613000Y-144033000D01*
X87615000Y-144032000D01*
X87617000Y-144030000D01*
X87620000Y-144029000D01*
X87622000Y-144028000D01*
X87625000Y-144027000D01*
X87627000Y-144027000D01*
X87630000Y-144026000D01*
X87632000Y-144026000D01*
X87635000Y-144025000D01*
X87637000Y-144025000D01*
X87640000Y-144025000D01*
X88600000Y-144025000D01*
X88603000Y-144025000D01*
X88605000Y-144025000D01*
X88608000Y-144026000D01*
G37*
X89868000Y-144026000D02*
X89870000Y-144026000D01*
X89873000Y-144027000D01*
X89875000Y-144027000D01*
X89878000Y-144028000D01*
X89880000Y-144029000D01*
X89883000Y-144030000D01*
X89885000Y-144032000D01*
X89887000Y-144033000D01*
X89889000Y-144035000D01*
X89891000Y-144036000D01*
X89893000Y-144038000D01*
X89895000Y-144040000D01*
X89897000Y-144042000D01*
X89899000Y-144044000D01*
X89900000Y-144046000D01*
X89902000Y-144048000D01*
X89903000Y-144050000D01*
X89905000Y-144052000D01*
X89906000Y-144055000D01*
X89907000Y-144057000D01*
X89908000Y-144060000D01*
X89908000Y-144062000D01*
X89909000Y-144065000D01*
X89909000Y-144067000D01*
X89910000Y-144070000D01*
X89910000Y-144072000D01*
X89910000Y-144075000D01*
X89910000Y-145475000D01*
X89910000Y-145478000D01*
X89910000Y-145480000D01*
X89909000Y-145483000D01*
X89909000Y-145485000D01*
X89908000Y-145488000D01*
X89908000Y-145490000D01*
X89907000Y-145493000D01*
X89906000Y-145495000D01*
X89905000Y-145498000D01*
X89903000Y-145500000D01*
X89902000Y-145502000D01*
X89900000Y-145504000D01*
X89899000Y-145506000D01*
X89897000Y-145508000D01*
X89895000Y-145510000D01*
X89893000Y-145512000D01*
X89891000Y-145514000D01*
X89889000Y-145515000D01*
X89887000Y-145517000D01*
X89885000Y-145518000D01*
X89883000Y-145520000D01*
X89880000Y-145521000D01*
X89878000Y-145522000D01*
X89875000Y-145523000D01*
X89873000Y-145523000D01*
X89870000Y-145524000D01*
X89868000Y-145524000D01*
X89865000Y-145525000D01*
X89863000Y-145525000D01*
X89860000Y-145525000D01*
X88900000Y-145525000D01*
X88897000Y-145525000D01*
X88895000Y-145525000D01*
X88892000Y-145524000D01*
X88890000Y-145524000D01*
X88887000Y-145523000D01*
X88885000Y-145523000D01*
X88882000Y-145522000D01*
X88880000Y-145521000D01*
X88877000Y-145520000D01*
X88875000Y-145518000D01*
X88873000Y-145517000D01*
X88871000Y-145515000D01*
X88869000Y-145514000D01*
X88867000Y-145512000D01*
X88865000Y-145510000D01*
X88863000Y-145508000D01*
X88861000Y-145506000D01*
X88860000Y-145504000D01*
X88858000Y-145502000D01*
X88857000Y-145500000D01*
X88855000Y-145498000D01*
X88854000Y-145495000D01*
X88853000Y-145493000D01*
X88852000Y-145490000D01*
X88852000Y-145488000D01*
X88851000Y-145485000D01*
X88851000Y-145483000D01*
X88850000Y-145480000D01*
X88850000Y-145478000D01*
X88850000Y-145475000D01*
X88850000Y-144075000D01*
X88850000Y-144072000D01*
X88850000Y-144070000D01*
X88851000Y-144067000D01*
X88851000Y-144065000D01*
X88852000Y-144062000D01*
X88852000Y-144060000D01*
X88853000Y-144057000D01*
X88854000Y-144055000D01*
X88855000Y-144052000D01*
X88857000Y-144050000D01*
X88858000Y-144048000D01*
X88860000Y-144046000D01*
X88861000Y-144044000D01*
X88863000Y-144042000D01*
X88865000Y-144040000D01*
X88867000Y-144038000D01*
X88869000Y-144036000D01*
X88871000Y-144035000D01*
X88873000Y-144033000D01*
X88875000Y-144032000D01*
X88877000Y-144030000D01*
X88880000Y-144029000D01*
X88882000Y-144028000D01*
X88885000Y-144027000D01*
X88887000Y-144027000D01*
X88890000Y-144026000D01*
X88892000Y-144026000D01*
X88895000Y-144025000D01*
X88897000Y-144025000D01*
X88900000Y-144025000D01*
X89860000Y-144025000D01*
X89863000Y-144025000D01*
X89865000Y-144025000D01*
X89868000Y-144026000D01*
G36*
X89868000Y-144026000D02*
G01*
X89870000Y-144026000D01*
X89873000Y-144027000D01*
X89875000Y-144027000D01*
X89878000Y-144028000D01*
X89880000Y-144029000D01*
X89883000Y-144030000D01*
X89885000Y-144032000D01*
X89887000Y-144033000D01*
X89889000Y-144035000D01*
X89891000Y-144036000D01*
X89893000Y-144038000D01*
X89895000Y-144040000D01*
X89897000Y-144042000D01*
X89899000Y-144044000D01*
X89900000Y-144046000D01*
X89902000Y-144048000D01*
X89903000Y-144050000D01*
X89905000Y-144052000D01*
X89906000Y-144055000D01*
X89907000Y-144057000D01*
X89908000Y-144060000D01*
X89908000Y-144062000D01*
X89909000Y-144065000D01*
X89909000Y-144067000D01*
X89910000Y-144070000D01*
X89910000Y-144072000D01*
X89910000Y-144075000D01*
X89910000Y-145475000D01*
X89910000Y-145478000D01*
X89910000Y-145480000D01*
X89909000Y-145483000D01*
X89909000Y-145485000D01*
X89908000Y-145488000D01*
X89908000Y-145490000D01*
X89907000Y-145493000D01*
X89906000Y-145495000D01*
X89905000Y-145498000D01*
X89903000Y-145500000D01*
X89902000Y-145502000D01*
X89900000Y-145504000D01*
X89899000Y-145506000D01*
X89897000Y-145508000D01*
X89895000Y-145510000D01*
X89893000Y-145512000D01*
X89891000Y-145514000D01*
X89889000Y-145515000D01*
X89887000Y-145517000D01*
X89885000Y-145518000D01*
X89883000Y-145520000D01*
X89880000Y-145521000D01*
X89878000Y-145522000D01*
X89875000Y-145523000D01*
X89873000Y-145523000D01*
X89870000Y-145524000D01*
X89868000Y-145524000D01*
X89865000Y-145525000D01*
X89863000Y-145525000D01*
X89860000Y-145525000D01*
X88900000Y-145525000D01*
X88897000Y-145525000D01*
X88895000Y-145525000D01*
X88892000Y-145524000D01*
X88890000Y-145524000D01*
X88887000Y-145523000D01*
X88885000Y-145523000D01*
X88882000Y-145522000D01*
X88880000Y-145521000D01*
X88877000Y-145520000D01*
X88875000Y-145518000D01*
X88873000Y-145517000D01*
X88871000Y-145515000D01*
X88869000Y-145514000D01*
X88867000Y-145512000D01*
X88865000Y-145510000D01*
X88863000Y-145508000D01*
X88861000Y-145506000D01*
X88860000Y-145504000D01*
X88858000Y-145502000D01*
X88857000Y-145500000D01*
X88855000Y-145498000D01*
X88854000Y-145495000D01*
X88853000Y-145493000D01*
X88852000Y-145490000D01*
X88852000Y-145488000D01*
X88851000Y-145485000D01*
X88851000Y-145483000D01*
X88850000Y-145480000D01*
X88850000Y-145478000D01*
X88850000Y-145475000D01*
X88850000Y-144075000D01*
X88850000Y-144072000D01*
X88850000Y-144070000D01*
X88851000Y-144067000D01*
X88851000Y-144065000D01*
X88852000Y-144062000D01*
X88852000Y-144060000D01*
X88853000Y-144057000D01*
X88854000Y-144055000D01*
X88855000Y-144052000D01*
X88857000Y-144050000D01*
X88858000Y-144048000D01*
X88860000Y-144046000D01*
X88861000Y-144044000D01*
X88863000Y-144042000D01*
X88865000Y-144040000D01*
X88867000Y-144038000D01*
X88869000Y-144036000D01*
X88871000Y-144035000D01*
X88873000Y-144033000D01*
X88875000Y-144032000D01*
X88877000Y-144030000D01*
X88880000Y-144029000D01*
X88882000Y-144028000D01*
X88885000Y-144027000D01*
X88887000Y-144027000D01*
X88890000Y-144026000D01*
X88892000Y-144026000D01*
X88895000Y-144025000D01*
X88897000Y-144025000D01*
X88900000Y-144025000D01*
X89860000Y-144025000D01*
X89863000Y-144025000D01*
X89865000Y-144025000D01*
X89868000Y-144026000D01*
G37*
%TO.C,U52*%
X137740000Y-144400000D02*
X137450000Y-144400000D01*
X137447000Y-144400000D01*
X137445000Y-144400000D01*
X137442000Y-144399000D01*
X137440000Y-144399000D01*
X137437000Y-144398000D01*
X137435000Y-144398000D01*
X137432000Y-144397000D01*
X137430000Y-144396000D01*
X137427000Y-144395000D01*
X137425000Y-144393000D01*
X137423000Y-144392000D01*
X137421000Y-144390000D01*
X137419000Y-144389000D01*
X137417000Y-144387000D01*
X137415000Y-144385000D01*
X137413000Y-144383000D01*
X137411000Y-144381000D01*
X137410000Y-144379000D01*
X137408000Y-144377000D01*
X137407000Y-144375000D01*
X137405000Y-144373000D01*
X137404000Y-144370000D01*
X137403000Y-144368000D01*
X137402000Y-144365000D01*
X137402000Y-144363000D01*
X137401000Y-144360000D01*
X137401000Y-144358000D01*
X137400000Y-144355000D01*
X137400000Y-144353000D01*
X137400000Y-144350000D01*
X137400000Y-144200000D01*
X137400000Y-144197000D01*
X137400000Y-144195000D01*
X137401000Y-144192000D01*
X137401000Y-144190000D01*
X137402000Y-144187000D01*
X137402000Y-144185000D01*
X137403000Y-144182000D01*
X137404000Y-144180000D01*
X137405000Y-144177000D01*
X137407000Y-144175000D01*
X137408000Y-144173000D01*
X137410000Y-144171000D01*
X137411000Y-144169000D01*
X137413000Y-144167000D01*
X137415000Y-144165000D01*
X137417000Y-144163000D01*
X137419000Y-144161000D01*
X137421000Y-144160000D01*
X137423000Y-144158000D01*
X137425000Y-144157000D01*
X137427000Y-144155000D01*
X137430000Y-144154000D01*
X137432000Y-144153000D01*
X137435000Y-144152000D01*
X137437000Y-144152000D01*
X137440000Y-144151000D01*
X137442000Y-144151000D01*
X137445000Y-144150000D01*
X137447000Y-144150000D01*
X137450000Y-144150000D01*
X137740000Y-144150000D01*
X137740000Y-144400000D01*
G36*
X137740000Y-144400000D02*
G01*
X137450000Y-144400000D01*
X137447000Y-144400000D01*
X137445000Y-144400000D01*
X137442000Y-144399000D01*
X137440000Y-144399000D01*
X137437000Y-144398000D01*
X137435000Y-144398000D01*
X137432000Y-144397000D01*
X137430000Y-144396000D01*
X137427000Y-144395000D01*
X137425000Y-144393000D01*
X137423000Y-144392000D01*
X137421000Y-144390000D01*
X137419000Y-144389000D01*
X137417000Y-144387000D01*
X137415000Y-144385000D01*
X137413000Y-144383000D01*
X137411000Y-144381000D01*
X137410000Y-144379000D01*
X137408000Y-144377000D01*
X137407000Y-144375000D01*
X137405000Y-144373000D01*
X137404000Y-144370000D01*
X137403000Y-144368000D01*
X137402000Y-144365000D01*
X137402000Y-144363000D01*
X137401000Y-144360000D01*
X137401000Y-144358000D01*
X137400000Y-144355000D01*
X137400000Y-144353000D01*
X137400000Y-144350000D01*
X137400000Y-144200000D01*
X137400000Y-144197000D01*
X137400000Y-144195000D01*
X137401000Y-144192000D01*
X137401000Y-144190000D01*
X137402000Y-144187000D01*
X137402000Y-144185000D01*
X137403000Y-144182000D01*
X137404000Y-144180000D01*
X137405000Y-144177000D01*
X137407000Y-144175000D01*
X137408000Y-144173000D01*
X137410000Y-144171000D01*
X137411000Y-144169000D01*
X137413000Y-144167000D01*
X137415000Y-144165000D01*
X137417000Y-144163000D01*
X137419000Y-144161000D01*
X137421000Y-144160000D01*
X137423000Y-144158000D01*
X137425000Y-144157000D01*
X137427000Y-144155000D01*
X137430000Y-144154000D01*
X137432000Y-144153000D01*
X137435000Y-144152000D01*
X137437000Y-144152000D01*
X137440000Y-144151000D01*
X137442000Y-144151000D01*
X137445000Y-144150000D01*
X137447000Y-144150000D01*
X137450000Y-144150000D01*
X137740000Y-144150000D01*
X137740000Y-144400000D01*
G37*
X137740000Y-144900000D02*
X137450000Y-144900000D01*
X137447000Y-144900000D01*
X137445000Y-144900000D01*
X137442000Y-144899000D01*
X137440000Y-144899000D01*
X137437000Y-144898000D01*
X137435000Y-144898000D01*
X137432000Y-144897000D01*
X137430000Y-144896000D01*
X137427000Y-144895000D01*
X137425000Y-144893000D01*
X137423000Y-144892000D01*
X137421000Y-144890000D01*
X137419000Y-144889000D01*
X137417000Y-144887000D01*
X137415000Y-144885000D01*
X137413000Y-144883000D01*
X137411000Y-144881000D01*
X137410000Y-144879000D01*
X137408000Y-144877000D01*
X137407000Y-144875000D01*
X137405000Y-144873000D01*
X137404000Y-144870000D01*
X137403000Y-144868000D01*
X137402000Y-144865000D01*
X137402000Y-144863000D01*
X137401000Y-144860000D01*
X137401000Y-144858000D01*
X137400000Y-144855000D01*
X137400000Y-144853000D01*
X137400000Y-144850000D01*
X137400000Y-144700000D01*
X137400000Y-144697000D01*
X137400000Y-144695000D01*
X137401000Y-144692000D01*
X137401000Y-144690000D01*
X137402000Y-144687000D01*
X137402000Y-144685000D01*
X137403000Y-144682000D01*
X137404000Y-144680000D01*
X137405000Y-144677000D01*
X137407000Y-144675000D01*
X137408000Y-144673000D01*
X137410000Y-144671000D01*
X137411000Y-144669000D01*
X137413000Y-144667000D01*
X137415000Y-144665000D01*
X137417000Y-144663000D01*
X137419000Y-144661000D01*
X137421000Y-144660000D01*
X137423000Y-144658000D01*
X137425000Y-144657000D01*
X137427000Y-144655000D01*
X137430000Y-144654000D01*
X137432000Y-144653000D01*
X137435000Y-144652000D01*
X137437000Y-144652000D01*
X137440000Y-144651000D01*
X137442000Y-144651000D01*
X137445000Y-144650000D01*
X137447000Y-144650000D01*
X137450000Y-144650000D01*
X137740000Y-144650000D01*
X137740000Y-144900000D01*
G36*
X137740000Y-144900000D02*
G01*
X137450000Y-144900000D01*
X137447000Y-144900000D01*
X137445000Y-144900000D01*
X137442000Y-144899000D01*
X137440000Y-144899000D01*
X137437000Y-144898000D01*
X137435000Y-144898000D01*
X137432000Y-144897000D01*
X137430000Y-144896000D01*
X137427000Y-144895000D01*
X137425000Y-144893000D01*
X137423000Y-144892000D01*
X137421000Y-144890000D01*
X137419000Y-144889000D01*
X137417000Y-144887000D01*
X137415000Y-144885000D01*
X137413000Y-144883000D01*
X137411000Y-144881000D01*
X137410000Y-144879000D01*
X137408000Y-144877000D01*
X137407000Y-144875000D01*
X137405000Y-144873000D01*
X137404000Y-144870000D01*
X137403000Y-144868000D01*
X137402000Y-144865000D01*
X137402000Y-144863000D01*
X137401000Y-144860000D01*
X137401000Y-144858000D01*
X137400000Y-144855000D01*
X137400000Y-144853000D01*
X137400000Y-144850000D01*
X137400000Y-144700000D01*
X137400000Y-144697000D01*
X137400000Y-144695000D01*
X137401000Y-144692000D01*
X137401000Y-144690000D01*
X137402000Y-144687000D01*
X137402000Y-144685000D01*
X137403000Y-144682000D01*
X137404000Y-144680000D01*
X137405000Y-144677000D01*
X137407000Y-144675000D01*
X137408000Y-144673000D01*
X137410000Y-144671000D01*
X137411000Y-144669000D01*
X137413000Y-144667000D01*
X137415000Y-144665000D01*
X137417000Y-144663000D01*
X137419000Y-144661000D01*
X137421000Y-144660000D01*
X137423000Y-144658000D01*
X137425000Y-144657000D01*
X137427000Y-144655000D01*
X137430000Y-144654000D01*
X137432000Y-144653000D01*
X137435000Y-144652000D01*
X137437000Y-144652000D01*
X137440000Y-144651000D01*
X137442000Y-144651000D01*
X137445000Y-144650000D01*
X137447000Y-144650000D01*
X137450000Y-144650000D01*
X137740000Y-144650000D01*
X137740000Y-144900000D01*
G37*
X140758000Y-144151000D02*
X140760000Y-144151000D01*
X140763000Y-144152000D01*
X140765000Y-144152000D01*
X140768000Y-144153000D01*
X140770000Y-144154000D01*
X140773000Y-144155000D01*
X140775000Y-144157000D01*
X140777000Y-144158000D01*
X140779000Y-144160000D01*
X140781000Y-144161000D01*
X140783000Y-144163000D01*
X140785000Y-144165000D01*
X140787000Y-144167000D01*
X140789000Y-144169000D01*
X140790000Y-144171000D01*
X140792000Y-144173000D01*
X140793000Y-144175000D01*
X140795000Y-144177000D01*
X140796000Y-144180000D01*
X140797000Y-144182000D01*
X140798000Y-144185000D01*
X140798000Y-144187000D01*
X140799000Y-144190000D01*
X140799000Y-144192000D01*
X140800000Y-144195000D01*
X140800000Y-144197000D01*
X140800000Y-144200000D01*
X140800000Y-144350000D01*
X140800000Y-144353000D01*
X140800000Y-144355000D01*
X140799000Y-144358000D01*
X140799000Y-144360000D01*
X140798000Y-144363000D01*
X140798000Y-144365000D01*
X140797000Y-144368000D01*
X140796000Y-144370000D01*
X140795000Y-144373000D01*
X140793000Y-144375000D01*
X140792000Y-144377000D01*
X140790000Y-144379000D01*
X140789000Y-144381000D01*
X140787000Y-144383000D01*
X140785000Y-144385000D01*
X140783000Y-144387000D01*
X140781000Y-144389000D01*
X140779000Y-144390000D01*
X140777000Y-144392000D01*
X140775000Y-144393000D01*
X140773000Y-144395000D01*
X140770000Y-144396000D01*
X140768000Y-144397000D01*
X140765000Y-144398000D01*
X140763000Y-144398000D01*
X140760000Y-144399000D01*
X140758000Y-144399000D01*
X140755000Y-144400000D01*
X140753000Y-144400000D01*
X140750000Y-144400000D01*
X140460000Y-144400000D01*
X140460000Y-144150000D01*
X140750000Y-144150000D01*
X140753000Y-144150000D01*
X140755000Y-144150000D01*
X140758000Y-144151000D01*
G36*
X140758000Y-144151000D02*
G01*
X140760000Y-144151000D01*
X140763000Y-144152000D01*
X140765000Y-144152000D01*
X140768000Y-144153000D01*
X140770000Y-144154000D01*
X140773000Y-144155000D01*
X140775000Y-144157000D01*
X140777000Y-144158000D01*
X140779000Y-144160000D01*
X140781000Y-144161000D01*
X140783000Y-144163000D01*
X140785000Y-144165000D01*
X140787000Y-144167000D01*
X140789000Y-144169000D01*
X140790000Y-144171000D01*
X140792000Y-144173000D01*
X140793000Y-144175000D01*
X140795000Y-144177000D01*
X140796000Y-144180000D01*
X140797000Y-144182000D01*
X140798000Y-144185000D01*
X140798000Y-144187000D01*
X140799000Y-144190000D01*
X140799000Y-144192000D01*
X140800000Y-144195000D01*
X140800000Y-144197000D01*
X140800000Y-144200000D01*
X140800000Y-144350000D01*
X140800000Y-144353000D01*
X140800000Y-144355000D01*
X140799000Y-144358000D01*
X140799000Y-144360000D01*
X140798000Y-144363000D01*
X140798000Y-144365000D01*
X140797000Y-144368000D01*
X140796000Y-144370000D01*
X140795000Y-144373000D01*
X140793000Y-144375000D01*
X140792000Y-144377000D01*
X140790000Y-144379000D01*
X140789000Y-144381000D01*
X140787000Y-144383000D01*
X140785000Y-144385000D01*
X140783000Y-144387000D01*
X140781000Y-144389000D01*
X140779000Y-144390000D01*
X140777000Y-144392000D01*
X140775000Y-144393000D01*
X140773000Y-144395000D01*
X140770000Y-144396000D01*
X140768000Y-144397000D01*
X140765000Y-144398000D01*
X140763000Y-144398000D01*
X140760000Y-144399000D01*
X140758000Y-144399000D01*
X140755000Y-144400000D01*
X140753000Y-144400000D01*
X140750000Y-144400000D01*
X140460000Y-144400000D01*
X140460000Y-144150000D01*
X140750000Y-144150000D01*
X140753000Y-144150000D01*
X140755000Y-144150000D01*
X140758000Y-144151000D01*
G37*
X140758000Y-144651000D02*
X140760000Y-144651000D01*
X140763000Y-144652000D01*
X140765000Y-144652000D01*
X140768000Y-144653000D01*
X140770000Y-144654000D01*
X140773000Y-144655000D01*
X140775000Y-144657000D01*
X140777000Y-144658000D01*
X140779000Y-144660000D01*
X140781000Y-144661000D01*
X140783000Y-144663000D01*
X140785000Y-144665000D01*
X140787000Y-144667000D01*
X140789000Y-144669000D01*
X140790000Y-144671000D01*
X140792000Y-144673000D01*
X140793000Y-144675000D01*
X140795000Y-144677000D01*
X140796000Y-144680000D01*
X140797000Y-144682000D01*
X140798000Y-144685000D01*
X140798000Y-144687000D01*
X140799000Y-144690000D01*
X140799000Y-144692000D01*
X140800000Y-144695000D01*
X140800000Y-144697000D01*
X140800000Y-144700000D01*
X140800000Y-144850000D01*
X140800000Y-144853000D01*
X140800000Y-144855000D01*
X140799000Y-144858000D01*
X140799000Y-144860000D01*
X140798000Y-144863000D01*
X140798000Y-144865000D01*
X140797000Y-144868000D01*
X140796000Y-144870000D01*
X140795000Y-144873000D01*
X140793000Y-144875000D01*
X140792000Y-144877000D01*
X140790000Y-144879000D01*
X140789000Y-144881000D01*
X140787000Y-144883000D01*
X140785000Y-144885000D01*
X140783000Y-144887000D01*
X140781000Y-144889000D01*
X140779000Y-144890000D01*
X140777000Y-144892000D01*
X140775000Y-144893000D01*
X140773000Y-144895000D01*
X140770000Y-144896000D01*
X140768000Y-144897000D01*
X140765000Y-144898000D01*
X140763000Y-144898000D01*
X140760000Y-144899000D01*
X140758000Y-144899000D01*
X140755000Y-144900000D01*
X140753000Y-144900000D01*
X140750000Y-144900000D01*
X140460000Y-144900000D01*
X140460000Y-144650000D01*
X140750000Y-144650000D01*
X140753000Y-144650000D01*
X140755000Y-144650000D01*
X140758000Y-144651000D01*
G36*
X140758000Y-144651000D02*
G01*
X140760000Y-144651000D01*
X140763000Y-144652000D01*
X140765000Y-144652000D01*
X140768000Y-144653000D01*
X140770000Y-144654000D01*
X140773000Y-144655000D01*
X140775000Y-144657000D01*
X140777000Y-144658000D01*
X140779000Y-144660000D01*
X140781000Y-144661000D01*
X140783000Y-144663000D01*
X140785000Y-144665000D01*
X140787000Y-144667000D01*
X140789000Y-144669000D01*
X140790000Y-144671000D01*
X140792000Y-144673000D01*
X140793000Y-144675000D01*
X140795000Y-144677000D01*
X140796000Y-144680000D01*
X140797000Y-144682000D01*
X140798000Y-144685000D01*
X140798000Y-144687000D01*
X140799000Y-144690000D01*
X140799000Y-144692000D01*
X140800000Y-144695000D01*
X140800000Y-144697000D01*
X140800000Y-144700000D01*
X140800000Y-144850000D01*
X140800000Y-144853000D01*
X140800000Y-144855000D01*
X140799000Y-144858000D01*
X140799000Y-144860000D01*
X140798000Y-144863000D01*
X140798000Y-144865000D01*
X140797000Y-144868000D01*
X140796000Y-144870000D01*
X140795000Y-144873000D01*
X140793000Y-144875000D01*
X140792000Y-144877000D01*
X140790000Y-144879000D01*
X140789000Y-144881000D01*
X140787000Y-144883000D01*
X140785000Y-144885000D01*
X140783000Y-144887000D01*
X140781000Y-144889000D01*
X140779000Y-144890000D01*
X140777000Y-144892000D01*
X140775000Y-144893000D01*
X140773000Y-144895000D01*
X140770000Y-144896000D01*
X140768000Y-144897000D01*
X140765000Y-144898000D01*
X140763000Y-144898000D01*
X140760000Y-144899000D01*
X140758000Y-144899000D01*
X140755000Y-144900000D01*
X140753000Y-144900000D01*
X140750000Y-144900000D01*
X140460000Y-144900000D01*
X140460000Y-144650000D01*
X140750000Y-144650000D01*
X140753000Y-144650000D01*
X140755000Y-144650000D01*
X140758000Y-144651000D01*
G37*
X138958000Y-143776000D02*
X138960000Y-143776000D01*
X138963000Y-143777000D01*
X138965000Y-143777000D01*
X138968000Y-143778000D01*
X138970000Y-143779000D01*
X138973000Y-143780000D01*
X138975000Y-143782000D01*
X138977000Y-143783000D01*
X138979000Y-143785000D01*
X138981000Y-143786000D01*
X138983000Y-143788000D01*
X138985000Y-143790000D01*
X138987000Y-143792000D01*
X138989000Y-143794000D01*
X138990000Y-143796000D01*
X138992000Y-143798000D01*
X138993000Y-143800000D01*
X138995000Y-143802000D01*
X138996000Y-143805000D01*
X138997000Y-143807000D01*
X138998000Y-143810000D01*
X138998000Y-143812000D01*
X138999000Y-143815000D01*
X138999000Y-143817000D01*
X139000000Y-143820000D01*
X139000000Y-143822000D01*
X139000000Y-143825000D01*
X139000000Y-145225000D01*
X139000000Y-145228000D01*
X139000000Y-145230000D01*
X138999000Y-145233000D01*
X138999000Y-145235000D01*
X138998000Y-145238000D01*
X138998000Y-145240000D01*
X138997000Y-145243000D01*
X138996000Y-145245000D01*
X138995000Y-145248000D01*
X138993000Y-145250000D01*
X138992000Y-145252000D01*
X138990000Y-145254000D01*
X138989000Y-145256000D01*
X138987000Y-145258000D01*
X138985000Y-145260000D01*
X138983000Y-145262000D01*
X138981000Y-145264000D01*
X138979000Y-145265000D01*
X138977000Y-145267000D01*
X138975000Y-145268000D01*
X138973000Y-145270000D01*
X138970000Y-145271000D01*
X138968000Y-145272000D01*
X138965000Y-145273000D01*
X138963000Y-145273000D01*
X138960000Y-145274000D01*
X138958000Y-145274000D01*
X138955000Y-145275000D01*
X138953000Y-145275000D01*
X138950000Y-145275000D01*
X137990000Y-145275000D01*
X137987000Y-145275000D01*
X137985000Y-145275000D01*
X137982000Y-145274000D01*
X137980000Y-145274000D01*
X137977000Y-145273000D01*
X137975000Y-145273000D01*
X137972000Y-145272000D01*
X137970000Y-145271000D01*
X137967000Y-145270000D01*
X137965000Y-145268000D01*
X137963000Y-145267000D01*
X137961000Y-145265000D01*
X137959000Y-145264000D01*
X137957000Y-145262000D01*
X137955000Y-145260000D01*
X137953000Y-145258000D01*
X137951000Y-145256000D01*
X137950000Y-145254000D01*
X137948000Y-145252000D01*
X137947000Y-145250000D01*
X137945000Y-145248000D01*
X137944000Y-145245000D01*
X137943000Y-145243000D01*
X137942000Y-145240000D01*
X137942000Y-145238000D01*
X137941000Y-145235000D01*
X137941000Y-145233000D01*
X137940000Y-145230000D01*
X137940000Y-145228000D01*
X137940000Y-145225000D01*
X137940000Y-143825000D01*
X137940000Y-143822000D01*
X137940000Y-143820000D01*
X137941000Y-143817000D01*
X137941000Y-143815000D01*
X137942000Y-143812000D01*
X137942000Y-143810000D01*
X137943000Y-143807000D01*
X137944000Y-143805000D01*
X137945000Y-143802000D01*
X137947000Y-143800000D01*
X137948000Y-143798000D01*
X137950000Y-143796000D01*
X137951000Y-143794000D01*
X137953000Y-143792000D01*
X137955000Y-143790000D01*
X137957000Y-143788000D01*
X137959000Y-143786000D01*
X137961000Y-143785000D01*
X137963000Y-143783000D01*
X137965000Y-143782000D01*
X137967000Y-143780000D01*
X137970000Y-143779000D01*
X137972000Y-143778000D01*
X137975000Y-143777000D01*
X137977000Y-143777000D01*
X137980000Y-143776000D01*
X137982000Y-143776000D01*
X137985000Y-143775000D01*
X137987000Y-143775000D01*
X137990000Y-143775000D01*
X138950000Y-143775000D01*
X138953000Y-143775000D01*
X138955000Y-143775000D01*
X138958000Y-143776000D01*
G36*
X138958000Y-143776000D02*
G01*
X138960000Y-143776000D01*
X138963000Y-143777000D01*
X138965000Y-143777000D01*
X138968000Y-143778000D01*
X138970000Y-143779000D01*
X138973000Y-143780000D01*
X138975000Y-143782000D01*
X138977000Y-143783000D01*
X138979000Y-143785000D01*
X138981000Y-143786000D01*
X138983000Y-143788000D01*
X138985000Y-143790000D01*
X138987000Y-143792000D01*
X138989000Y-143794000D01*
X138990000Y-143796000D01*
X138992000Y-143798000D01*
X138993000Y-143800000D01*
X138995000Y-143802000D01*
X138996000Y-143805000D01*
X138997000Y-143807000D01*
X138998000Y-143810000D01*
X138998000Y-143812000D01*
X138999000Y-143815000D01*
X138999000Y-143817000D01*
X139000000Y-143820000D01*
X139000000Y-143822000D01*
X139000000Y-143825000D01*
X139000000Y-145225000D01*
X139000000Y-145228000D01*
X139000000Y-145230000D01*
X138999000Y-145233000D01*
X138999000Y-145235000D01*
X138998000Y-145238000D01*
X138998000Y-145240000D01*
X138997000Y-145243000D01*
X138996000Y-145245000D01*
X138995000Y-145248000D01*
X138993000Y-145250000D01*
X138992000Y-145252000D01*
X138990000Y-145254000D01*
X138989000Y-145256000D01*
X138987000Y-145258000D01*
X138985000Y-145260000D01*
X138983000Y-145262000D01*
X138981000Y-145264000D01*
X138979000Y-145265000D01*
X138977000Y-145267000D01*
X138975000Y-145268000D01*
X138973000Y-145270000D01*
X138970000Y-145271000D01*
X138968000Y-145272000D01*
X138965000Y-145273000D01*
X138963000Y-145273000D01*
X138960000Y-145274000D01*
X138958000Y-145274000D01*
X138955000Y-145275000D01*
X138953000Y-145275000D01*
X138950000Y-145275000D01*
X137990000Y-145275000D01*
X137987000Y-145275000D01*
X137985000Y-145275000D01*
X137982000Y-145274000D01*
X137980000Y-145274000D01*
X137977000Y-145273000D01*
X137975000Y-145273000D01*
X137972000Y-145272000D01*
X137970000Y-145271000D01*
X137967000Y-145270000D01*
X137965000Y-145268000D01*
X137963000Y-145267000D01*
X137961000Y-145265000D01*
X137959000Y-145264000D01*
X137957000Y-145262000D01*
X137955000Y-145260000D01*
X137953000Y-145258000D01*
X137951000Y-145256000D01*
X137950000Y-145254000D01*
X137948000Y-145252000D01*
X137947000Y-145250000D01*
X137945000Y-145248000D01*
X137944000Y-145245000D01*
X137943000Y-145243000D01*
X137942000Y-145240000D01*
X137942000Y-145238000D01*
X137941000Y-145235000D01*
X137941000Y-145233000D01*
X137940000Y-145230000D01*
X137940000Y-145228000D01*
X137940000Y-145225000D01*
X137940000Y-143825000D01*
X137940000Y-143822000D01*
X137940000Y-143820000D01*
X137941000Y-143817000D01*
X137941000Y-143815000D01*
X137942000Y-143812000D01*
X137942000Y-143810000D01*
X137943000Y-143807000D01*
X137944000Y-143805000D01*
X137945000Y-143802000D01*
X137947000Y-143800000D01*
X137948000Y-143798000D01*
X137950000Y-143796000D01*
X137951000Y-143794000D01*
X137953000Y-143792000D01*
X137955000Y-143790000D01*
X137957000Y-143788000D01*
X137959000Y-143786000D01*
X137961000Y-143785000D01*
X137963000Y-143783000D01*
X137965000Y-143782000D01*
X137967000Y-143780000D01*
X137970000Y-143779000D01*
X137972000Y-143778000D01*
X137975000Y-143777000D01*
X137977000Y-143777000D01*
X137980000Y-143776000D01*
X137982000Y-143776000D01*
X137985000Y-143775000D01*
X137987000Y-143775000D01*
X137990000Y-143775000D01*
X138950000Y-143775000D01*
X138953000Y-143775000D01*
X138955000Y-143775000D01*
X138958000Y-143776000D01*
G37*
X140218000Y-143776000D02*
X140220000Y-143776000D01*
X140223000Y-143777000D01*
X140225000Y-143777000D01*
X140228000Y-143778000D01*
X140230000Y-143779000D01*
X140233000Y-143780000D01*
X140235000Y-143782000D01*
X140237000Y-143783000D01*
X140239000Y-143785000D01*
X140241000Y-143786000D01*
X140243000Y-143788000D01*
X140245000Y-143790000D01*
X140247000Y-143792000D01*
X140249000Y-143794000D01*
X140250000Y-143796000D01*
X140252000Y-143798000D01*
X140253000Y-143800000D01*
X140255000Y-143802000D01*
X140256000Y-143805000D01*
X140257000Y-143807000D01*
X140258000Y-143810000D01*
X140258000Y-143812000D01*
X140259000Y-143815000D01*
X140259000Y-143817000D01*
X140260000Y-143820000D01*
X140260000Y-143822000D01*
X140260000Y-143825000D01*
X140260000Y-145225000D01*
X140260000Y-145228000D01*
X140260000Y-145230000D01*
X140259000Y-145233000D01*
X140259000Y-145235000D01*
X140258000Y-145238000D01*
X140258000Y-145240000D01*
X140257000Y-145243000D01*
X140256000Y-145245000D01*
X140255000Y-145248000D01*
X140253000Y-145250000D01*
X140252000Y-145252000D01*
X140250000Y-145254000D01*
X140249000Y-145256000D01*
X140247000Y-145258000D01*
X140245000Y-145260000D01*
X140243000Y-145262000D01*
X140241000Y-145264000D01*
X140239000Y-145265000D01*
X140237000Y-145267000D01*
X140235000Y-145268000D01*
X140233000Y-145270000D01*
X140230000Y-145271000D01*
X140228000Y-145272000D01*
X140225000Y-145273000D01*
X140223000Y-145273000D01*
X140220000Y-145274000D01*
X140218000Y-145274000D01*
X140215000Y-145275000D01*
X140213000Y-145275000D01*
X140210000Y-145275000D01*
X139250000Y-145275000D01*
X139247000Y-145275000D01*
X139245000Y-145275000D01*
X139242000Y-145274000D01*
X139240000Y-145274000D01*
X139237000Y-145273000D01*
X139235000Y-145273000D01*
X139232000Y-145272000D01*
X139230000Y-145271000D01*
X139227000Y-145270000D01*
X139225000Y-145268000D01*
X139223000Y-145267000D01*
X139221000Y-145265000D01*
X139219000Y-145264000D01*
X139217000Y-145262000D01*
X139215000Y-145260000D01*
X139213000Y-145258000D01*
X139211000Y-145256000D01*
X139210000Y-145254000D01*
X139208000Y-145252000D01*
X139207000Y-145250000D01*
X139205000Y-145248000D01*
X139204000Y-145245000D01*
X139203000Y-145243000D01*
X139202000Y-145240000D01*
X139202000Y-145238000D01*
X139201000Y-145235000D01*
X139201000Y-145233000D01*
X139200000Y-145230000D01*
X139200000Y-145228000D01*
X139200000Y-145225000D01*
X139200000Y-143825000D01*
X139200000Y-143822000D01*
X139200000Y-143820000D01*
X139201000Y-143817000D01*
X139201000Y-143815000D01*
X139202000Y-143812000D01*
X139202000Y-143810000D01*
X139203000Y-143807000D01*
X139204000Y-143805000D01*
X139205000Y-143802000D01*
X139207000Y-143800000D01*
X139208000Y-143798000D01*
X139210000Y-143796000D01*
X139211000Y-143794000D01*
X139213000Y-143792000D01*
X139215000Y-143790000D01*
X139217000Y-143788000D01*
X139219000Y-143786000D01*
X139221000Y-143785000D01*
X139223000Y-143783000D01*
X139225000Y-143782000D01*
X139227000Y-143780000D01*
X139230000Y-143779000D01*
X139232000Y-143778000D01*
X139235000Y-143777000D01*
X139237000Y-143777000D01*
X139240000Y-143776000D01*
X139242000Y-143776000D01*
X139245000Y-143775000D01*
X139247000Y-143775000D01*
X139250000Y-143775000D01*
X140210000Y-143775000D01*
X140213000Y-143775000D01*
X140215000Y-143775000D01*
X140218000Y-143776000D01*
G36*
X140218000Y-143776000D02*
G01*
X140220000Y-143776000D01*
X140223000Y-143777000D01*
X140225000Y-143777000D01*
X140228000Y-143778000D01*
X140230000Y-143779000D01*
X140233000Y-143780000D01*
X140235000Y-143782000D01*
X140237000Y-143783000D01*
X140239000Y-143785000D01*
X140241000Y-143786000D01*
X140243000Y-143788000D01*
X140245000Y-143790000D01*
X140247000Y-143792000D01*
X140249000Y-143794000D01*
X140250000Y-143796000D01*
X140252000Y-143798000D01*
X140253000Y-143800000D01*
X140255000Y-143802000D01*
X140256000Y-143805000D01*
X140257000Y-143807000D01*
X140258000Y-143810000D01*
X140258000Y-143812000D01*
X140259000Y-143815000D01*
X140259000Y-143817000D01*
X140260000Y-143820000D01*
X140260000Y-143822000D01*
X140260000Y-143825000D01*
X140260000Y-145225000D01*
X140260000Y-145228000D01*
X140260000Y-145230000D01*
X140259000Y-145233000D01*
X140259000Y-145235000D01*
X140258000Y-145238000D01*
X140258000Y-145240000D01*
X140257000Y-145243000D01*
X140256000Y-145245000D01*
X140255000Y-145248000D01*
X140253000Y-145250000D01*
X140252000Y-145252000D01*
X140250000Y-145254000D01*
X140249000Y-145256000D01*
X140247000Y-145258000D01*
X140245000Y-145260000D01*
X140243000Y-145262000D01*
X140241000Y-145264000D01*
X140239000Y-145265000D01*
X140237000Y-145267000D01*
X140235000Y-145268000D01*
X140233000Y-145270000D01*
X140230000Y-145271000D01*
X140228000Y-145272000D01*
X140225000Y-145273000D01*
X140223000Y-145273000D01*
X140220000Y-145274000D01*
X140218000Y-145274000D01*
X140215000Y-145275000D01*
X140213000Y-145275000D01*
X140210000Y-145275000D01*
X139250000Y-145275000D01*
X139247000Y-145275000D01*
X139245000Y-145275000D01*
X139242000Y-145274000D01*
X139240000Y-145274000D01*
X139237000Y-145273000D01*
X139235000Y-145273000D01*
X139232000Y-145272000D01*
X139230000Y-145271000D01*
X139227000Y-145270000D01*
X139225000Y-145268000D01*
X139223000Y-145267000D01*
X139221000Y-145265000D01*
X139219000Y-145264000D01*
X139217000Y-145262000D01*
X139215000Y-145260000D01*
X139213000Y-145258000D01*
X139211000Y-145256000D01*
X139210000Y-145254000D01*
X139208000Y-145252000D01*
X139207000Y-145250000D01*
X139205000Y-145248000D01*
X139204000Y-145245000D01*
X139203000Y-145243000D01*
X139202000Y-145240000D01*
X139202000Y-145238000D01*
X139201000Y-145235000D01*
X139201000Y-145233000D01*
X139200000Y-145230000D01*
X139200000Y-145228000D01*
X139200000Y-145225000D01*
X139200000Y-143825000D01*
X139200000Y-143822000D01*
X139200000Y-143820000D01*
X139201000Y-143817000D01*
X139201000Y-143815000D01*
X139202000Y-143812000D01*
X139202000Y-143810000D01*
X139203000Y-143807000D01*
X139204000Y-143805000D01*
X139205000Y-143802000D01*
X139207000Y-143800000D01*
X139208000Y-143798000D01*
X139210000Y-143796000D01*
X139211000Y-143794000D01*
X139213000Y-143792000D01*
X139215000Y-143790000D01*
X139217000Y-143788000D01*
X139219000Y-143786000D01*
X139221000Y-143785000D01*
X139223000Y-143783000D01*
X139225000Y-143782000D01*
X139227000Y-143780000D01*
X139230000Y-143779000D01*
X139232000Y-143778000D01*
X139235000Y-143777000D01*
X139237000Y-143777000D01*
X139240000Y-143776000D01*
X139242000Y-143776000D01*
X139245000Y-143775000D01*
X139247000Y-143775000D01*
X139250000Y-143775000D01*
X140210000Y-143775000D01*
X140213000Y-143775000D01*
X140215000Y-143775000D01*
X140218000Y-143776000D01*
G37*
%TD*%
D11*
%TO.C,R16*%
X127910000Y-97465000D03*
X127910000Y-95815000D03*
%TD*%
D12*
%TO.C,IC7*%
X79800000Y-112675000D03*
X80450000Y-112675000D03*
X81100000Y-112675000D03*
X81100000Y-110575000D03*
X80450000Y-110575000D03*
X79800000Y-110575000D03*
D13*
X80450000Y-111625000D03*
%TD*%
D14*
%TO.C,R47*%
X102528345Y-129851000D03*
X100703345Y-129851000D03*
%TD*%
D15*
%TO.C,R55*%
X101525000Y-115300000D03*
X101525000Y-116950000D03*
%TD*%
D16*
%TO.C,IC15*%
X145275000Y-76100000D03*
X145275000Y-76750000D03*
X145275000Y-77400000D03*
X145275000Y-78050000D03*
X145275000Y-78700000D03*
X145275000Y-79350000D03*
X145275000Y-80000000D03*
X145275000Y-80650000D03*
X151151000Y-80650000D03*
X151151000Y-80000000D03*
X151151000Y-79350000D03*
X151151000Y-78700000D03*
X151151000Y-78050000D03*
X151151000Y-77400000D03*
X151151000Y-76750000D03*
X151151000Y-76100000D03*
%TD*%
D17*
%TO.C,C1*%
X76525000Y-74999999D03*
X76525000Y-76549999D03*
%TD*%
D18*
%TO.C,Q5*%
X75812500Y-141487500D03*
X75812500Y-139587500D03*
X73937500Y-140537500D03*
%TD*%
D19*
%TO.C,U16*%
X136850000Y-123375000D03*
X136850000Y-123875000D03*
X136850000Y-124375000D03*
X136850000Y-124875000D03*
X136850000Y-125375000D03*
X136850000Y-125875000D03*
X136850000Y-126375000D03*
X136850000Y-126875000D03*
X136850000Y-127375000D03*
X136850000Y-127875000D03*
X136850000Y-128375000D03*
X136850000Y-128875000D03*
X136850000Y-129375000D03*
X136850000Y-129875000D03*
X136850000Y-130375000D03*
X136850000Y-130875000D03*
X136850000Y-131375000D03*
X136850000Y-131875000D03*
X136850000Y-132375000D03*
X136850000Y-132875000D03*
X136850000Y-133375000D03*
X136850000Y-133875000D03*
X136850000Y-134375000D03*
X136850000Y-134875000D03*
X136850000Y-135375000D03*
D20*
X138525000Y-137050000D03*
X139025000Y-137050000D03*
X139525000Y-137050000D03*
X140025000Y-137050000D03*
X140525000Y-137050000D03*
X141025000Y-137050000D03*
X141525000Y-137050000D03*
X142025000Y-137050000D03*
X142525000Y-137050000D03*
X143025000Y-137050000D03*
X143525000Y-137050000D03*
X144025000Y-137050000D03*
X144525000Y-137050000D03*
X145025000Y-137050000D03*
X145525000Y-137050000D03*
X146025000Y-137050000D03*
X146525000Y-137050000D03*
X147025000Y-137050000D03*
X147525000Y-137050000D03*
X148025000Y-137050000D03*
X148525000Y-137050000D03*
X149025000Y-137050000D03*
X149525000Y-137050000D03*
X150025000Y-137050000D03*
X150525000Y-137050000D03*
D19*
X152200000Y-135375000D03*
X152200000Y-134875000D03*
X152200000Y-134375000D03*
X152200000Y-133875000D03*
X152200000Y-133375000D03*
X152200000Y-132875000D03*
X152200000Y-132375000D03*
X152200000Y-131875000D03*
X152200000Y-131375000D03*
X152200000Y-130875000D03*
X152200000Y-130375000D03*
X152200000Y-129875000D03*
X152200000Y-129375000D03*
X152200000Y-128875000D03*
X152200000Y-128375000D03*
X152200000Y-127875000D03*
X152200000Y-127375000D03*
X152200000Y-126875000D03*
X152200000Y-126375000D03*
X152200000Y-125875000D03*
X152200000Y-125375000D03*
X152200000Y-124875000D03*
X152200000Y-124375000D03*
X152200000Y-123875000D03*
X152200000Y-123375000D03*
D20*
X150525000Y-121700000D03*
X150025000Y-121700000D03*
X149525000Y-121700000D03*
X149025000Y-121700000D03*
X148525000Y-121700000D03*
X148025000Y-121700000D03*
X147525000Y-121700000D03*
X147025000Y-121700000D03*
X146525000Y-121700000D03*
X146025000Y-121700000D03*
X145525000Y-121700000D03*
X145025000Y-121700000D03*
X144525000Y-121700000D03*
X144025000Y-121700000D03*
X143525000Y-121700000D03*
X143025000Y-121700000D03*
X142525000Y-121700000D03*
X142025000Y-121700000D03*
X141525000Y-121700000D03*
X141025000Y-121700000D03*
X140525000Y-121700000D03*
X140025000Y-121700000D03*
X139525000Y-121700000D03*
X139025000Y-121700000D03*
X138525000Y-121700000D03*
%TD*%
D21*
%TO.C,R21*%
X114790845Y-128051000D03*
X116615845Y-128051000D03*
%TD*%
D12*
%TO.C,IC6*%
X140875000Y-118750000D03*
X141525000Y-118750000D03*
X142175000Y-118750000D03*
X142175000Y-116650000D03*
X141525000Y-116650000D03*
X140875000Y-116650000D03*
D13*
X141525000Y-117700000D03*
%TD*%
D22*
%TO.C,IC19*%
X124650000Y-133800000D03*
X124000000Y-133800000D03*
X123350000Y-133800000D03*
X122700000Y-133800000D03*
X122050000Y-133800000D03*
X121400000Y-133800000D03*
X120750000Y-133800000D03*
X120100000Y-133800000D03*
X120100000Y-139676000D03*
X120750000Y-139676000D03*
X121400000Y-139676000D03*
X122050000Y-139676000D03*
X122700000Y-139676000D03*
X123350000Y-139676000D03*
X124000000Y-139676000D03*
X124650000Y-139676000D03*
%TD*%
D14*
%TO.C,R45*%
X123603345Y-129951000D03*
X121778345Y-129951000D03*
%TD*%
D15*
%TO.C,R54*%
X103625000Y-115325000D03*
X103625000Y-116975000D03*
%TD*%
D23*
%TO.C,R74*%
X103765000Y-113040730D03*
X105590000Y-113040730D03*
%TD*%
D21*
%TO.C,R9*%
X93625500Y-90975500D03*
X95450500Y-90975500D03*
%TD*%
%TO.C,R10*%
X93625500Y-85200500D03*
X95450500Y-85200500D03*
%TD*%
D24*
%TO.C,R14*%
X78250000Y-74837499D03*
X78250000Y-76662499D03*
%TD*%
D14*
%TO.C,R46*%
X127115845Y-129951000D03*
X125290845Y-129951000D03*
%TD*%
D25*
%TO.C,J_Motor4*%
X101035000Y-109715000D03*
D26*
X97285000Y-108715000D03*
D25*
X101035000Y-107715000D03*
D26*
X97285000Y-106715000D03*
D25*
X101035000Y-105715000D03*
D26*
X97285000Y-104715000D03*
D25*
X101035000Y-103715000D03*
D26*
X97285000Y-102715000D03*
D27*
X99110000Y-110715000D03*
X99110000Y-101715000D03*
%TD*%
D28*
%TO.C,C63*%
X155562500Y-119900000D03*
X153837500Y-119900000D03*
%TD*%
D21*
%TO.C,R51*%
X115903345Y-143401000D03*
X117728345Y-143401000D03*
%TD*%
D28*
%TO.C,C31*%
X105902500Y-119880000D03*
X104177500Y-119880000D03*
%TD*%
D29*
%TO.C,C56*%
X73650000Y-110230000D03*
X75375000Y-110230000D03*
%TD*%
D30*
%TO.C,R5_FAULT1*%
X133034483Y-88622000D03*
X135034483Y-88622000D03*
%TD*%
D14*
%TO.C,R39*%
X109615845Y-129951000D03*
X107790845Y-129951000D03*
%TD*%
D16*
%TO.C,IC12*%
X145275000Y-69525000D03*
X145275000Y-70175000D03*
X145275000Y-70825000D03*
X145275000Y-71475000D03*
X145275000Y-72125000D03*
X145275000Y-72775000D03*
X145275000Y-73425000D03*
X145275000Y-74075000D03*
X151151000Y-74075000D03*
X151151000Y-73425000D03*
X151151000Y-72775000D03*
X151151000Y-72125000D03*
X151151000Y-71475000D03*
X151151000Y-70825000D03*
X151151000Y-70175000D03*
X151151000Y-69525000D03*
%TD*%
D21*
%TO.C,R52*%
X112390845Y-143426000D03*
X114215845Y-143426000D03*
%TD*%
D17*
%TO.C,C35*%
X76699999Y-86125001D03*
X76699999Y-87675001D03*
%TD*%
D31*
%TO.C,C234*%
X90515000Y-103880000D03*
X87565000Y-103880000D03*
%TD*%
D30*
%TO.C,R7_FAULT1*%
X132984483Y-83297000D03*
X134984483Y-83297000D03*
%TD*%
D32*
%TO.C,U4*%
X82750000Y-71900000D03*
X83249999Y-71900000D03*
X83750000Y-71900000D03*
X84250000Y-71900000D03*
X84750001Y-71900000D03*
X85250000Y-71900000D03*
D33*
X85899999Y-71250001D03*
X85899999Y-70750000D03*
X85899999Y-70250000D03*
X85899999Y-69749999D03*
D32*
X85250000Y-69100000D03*
X84750001Y-69100000D03*
X84250000Y-69100000D03*
X83750000Y-69100000D03*
X83249999Y-69100000D03*
X82750000Y-69100000D03*
D33*
X82100001Y-69749999D03*
X82100001Y-70250000D03*
X82100001Y-70750000D03*
X82100001Y-71250001D03*
%TD*%
D22*
%TO.C,IC26*%
X130400000Y-133788000D03*
X129750000Y-133788000D03*
X129100000Y-133788000D03*
X128450000Y-133788000D03*
X127800000Y-133788000D03*
X127150000Y-133788000D03*
X126500000Y-133788000D03*
X125850000Y-133788000D03*
X125850000Y-139664000D03*
X126500000Y-139664000D03*
X127150000Y-139664000D03*
X127800000Y-139664000D03*
X128450000Y-139664000D03*
X129100000Y-139664000D03*
X129750000Y-139664000D03*
X130400000Y-139664000D03*
%TD*%
%TO.C,IC21*%
X101512500Y-133638000D03*
X100862500Y-133638000D03*
X100212500Y-133638000D03*
X99562500Y-133638000D03*
X98912500Y-133638000D03*
X98262500Y-133638000D03*
X97612500Y-133638000D03*
X96962500Y-133638000D03*
X96962500Y-139514000D03*
X97612500Y-139514000D03*
X98262500Y-139514000D03*
X98912500Y-139514000D03*
X99562500Y-139514000D03*
X100212500Y-139514000D03*
X100862500Y-139514000D03*
X101512500Y-139514000D03*
%TD*%
D17*
%TO.C,C22*%
X75099999Y-69900001D03*
X75099999Y-71450001D03*
%TD*%
D34*
%TO.C,C67*%
X132587500Y-141237500D03*
X132587500Y-143312500D03*
%TD*%
D35*
%TO.C,C134*%
X78125000Y-92075000D03*
X76575000Y-92075000D03*
%TD*%
D36*
%TO.C,R67*%
X132450000Y-125600000D03*
X130450000Y-125600000D03*
%TD*%
D24*
%TO.C,R44*%
X78349999Y-80112500D03*
X78349999Y-81937500D03*
%TD*%
D37*
%TO.C,C233*%
X105370000Y-121465000D03*
X105370000Y-124415000D03*
%TD*%
D21*
%TO.C,R122*%
X76337500Y-96825000D03*
X78162500Y-96825000D03*
%TD*%
D12*
%TO.C,IC10*%
X140559483Y-88297000D03*
X139909483Y-88297000D03*
X139259483Y-88297000D03*
X139259483Y-90397000D03*
X139909483Y-90397000D03*
X140559483Y-90397000D03*
D13*
X139909483Y-89347000D03*
%TD*%
D29*
%TO.C,C58*%
X73662500Y-113200000D03*
X75387500Y-113200000D03*
%TD*%
D14*
%TO.C,R33*%
X110715845Y-145351000D03*
X108890845Y-145351000D03*
%TD*%
D38*
%TO.C,C69*%
X96800000Y-120737500D03*
X96800000Y-122462500D03*
%TD*%
D24*
%TO.C,R59*%
X78374999Y-86087501D03*
X78374999Y-87912501D03*
%TD*%
D39*
%TO.C,U13*%
X89000000Y-117960000D03*
X89000000Y-116690000D03*
X89000000Y-115420000D03*
X89000000Y-114150000D03*
X84050000Y-114150000D03*
X84050000Y-115420000D03*
X84050000Y-116690000D03*
X84050000Y-117960000D03*
%TD*%
D40*
%TO.C,J_Motor3*%
X117660000Y-114315000D03*
D41*
X116660000Y-118065000D03*
D40*
X115660000Y-114315000D03*
D41*
X114660000Y-118065000D03*
D40*
X113660000Y-114315000D03*
D41*
X112660000Y-118065000D03*
D40*
X111660000Y-114315000D03*
D41*
X110660000Y-118065000D03*
D42*
X118660000Y-116240000D03*
X109660000Y-116240000D03*
%TD*%
D43*
%TO.C,R34*%
X123760000Y-115165000D03*
X125410000Y-115165000D03*
%TD*%
D38*
%TO.C,C2_RETRY2*%
X149125000Y-109157500D03*
X149125000Y-110882500D03*
%TD*%
%TO.C,C2_RETRY1*%
X82700000Y-108550000D03*
X82700000Y-110275000D03*
%TD*%
D44*
%TO.C,C82*%
X142600000Y-71462500D03*
X142600000Y-69737500D03*
%TD*%
D32*
%TO.C,U1*%
X82700000Y-77300000D03*
X83199999Y-77300000D03*
X83700000Y-77300000D03*
X84200000Y-77300000D03*
X84700001Y-77300000D03*
X85200000Y-77300000D03*
D33*
X85849999Y-76650001D03*
X85849999Y-76150000D03*
X85849999Y-75650000D03*
X85849999Y-75149999D03*
D32*
X85200000Y-74500000D03*
X84700001Y-74500000D03*
X84200000Y-74500000D03*
X83700000Y-74500000D03*
X83199999Y-74500000D03*
X82700000Y-74500000D03*
D33*
X82050001Y-75149999D03*
X82050001Y-75650000D03*
X82050001Y-76150000D03*
X82050001Y-76650001D03*
%TD*%
D45*
%TO.C,U21*%
X153500000Y-139675000D03*
X154300000Y-139675000D03*
D46*
X153150000Y-140625000D03*
X153650000Y-140625000D03*
X154150000Y-140625000D03*
X154650000Y-140625000D03*
X154650000Y-138725000D03*
X154150000Y-138725000D03*
X153650000Y-138725000D03*
X153150000Y-138725000D03*
%TD*%
D34*
%TO.C,C68*%
X134850000Y-141237500D03*
X134850000Y-143312500D03*
%TD*%
D28*
%TO.C,C64*%
X155562500Y-118425000D03*
X153837500Y-118425000D03*
%TD*%
D14*
%TO.C,R5*%
X91700500Y-89700500D03*
X89875500Y-89700500D03*
%TD*%
D47*
%TO.C,U51*%
X89750000Y-143375000D03*
X89250000Y-143375000D03*
X88750000Y-143375000D03*
X88250000Y-143375000D03*
X87750000Y-143375000D03*
X87750000Y-146175000D03*
X88250000Y-146175000D03*
X88750000Y-146175000D03*
X89250000Y-146175000D03*
X89750000Y-146175000D03*
%TD*%
D25*
%TO.C,J_Motor2*%
X127410000Y-102715000D03*
D26*
X131160000Y-103715000D03*
D25*
X127410000Y-104715000D03*
D26*
X131160000Y-105715000D03*
D25*
X127410000Y-106715000D03*
D26*
X131160000Y-107715000D03*
D25*
X127410000Y-108715000D03*
D26*
X131160000Y-109715000D03*
D27*
X129335000Y-101715000D03*
X129335000Y-110715000D03*
%TD*%
D12*
%TO.C,IC11*%
X125456850Y-82813500D03*
X124806850Y-82813500D03*
X124156850Y-82813500D03*
X124156850Y-84913500D03*
X124806850Y-84913500D03*
X125456850Y-84913500D03*
D13*
X124806850Y-83863500D03*
%TD*%
D48*
%TO.C,R7_ILIM1*%
X130925416Y-83049000D03*
X130925416Y-85049000D03*
%TD*%
D49*
%TO.C,R70*%
X154850000Y-137100000D03*
X153025000Y-137100000D03*
%TD*%
D50*
%TO.C,D7*%
X76317500Y-124750000D03*
X77182500Y-124750000D03*
%TD*%
D14*
%TO.C,R1*%
X91775500Y-83550500D03*
X89950500Y-83550500D03*
%TD*%
D45*
%TO.C,U22*%
X75600000Y-136125000D03*
X76400000Y-136125000D03*
D46*
X75250000Y-137075000D03*
X75750000Y-137075000D03*
X76250000Y-137075000D03*
X76750000Y-137075000D03*
X76750000Y-135175000D03*
X76250000Y-135175000D03*
X75750000Y-135175000D03*
X75250000Y-135175000D03*
%TD*%
D47*
%TO.C,U52*%
X140100000Y-143125000D03*
X139600000Y-143125000D03*
X139100000Y-143125000D03*
X138600000Y-143125000D03*
X138100000Y-143125000D03*
X138100000Y-145925000D03*
X138600000Y-145925000D03*
X139100000Y-145925000D03*
X139600000Y-145925000D03*
X140100000Y-145925000D03*
%TD*%
D36*
%TO.C,R63*%
X75000000Y-126400000D03*
X73000000Y-126400000D03*
%TD*%
%TO.C,R61*%
X140100000Y-140800000D03*
X138100000Y-140800000D03*
%TD*%
D28*
%TO.C,C53*%
X155550000Y-114000000D03*
X153825000Y-114000000D03*
%TD*%
D36*
%TO.C,R66*%
X132440000Y-127650000D03*
X130440000Y-127650000D03*
%TD*%
D30*
%TO.C,R100*%
X148775000Y-142525000D03*
X150775000Y-142525000D03*
%TD*%
D29*
%TO.C,C5_RETRY1*%
X133146983Y-90497000D03*
X134871983Y-90497000D03*
%TD*%
D30*
%TO.C,R60*%
X87650000Y-141300000D03*
X89650000Y-141300000D03*
%TD*%
%TO.C,R6_FAULT1*%
X118319350Y-83138500D03*
X120319350Y-83138500D03*
%TD*%
D14*
%TO.C,R42*%
X120115845Y-129951000D03*
X118290845Y-129951000D03*
%TD*%
D34*
%TO.C,C61*%
X75975000Y-144412500D03*
X75975000Y-146487500D03*
%TD*%
D40*
%TO.C,J_Motor1*%
X110710000Y-99265000D03*
D41*
X111710000Y-95515000D03*
D40*
X112710000Y-99265000D03*
D41*
X113710000Y-95515000D03*
D40*
X114710000Y-99265000D03*
D41*
X115710000Y-95515000D03*
D40*
X116710000Y-99265000D03*
D41*
X117710000Y-95515000D03*
D42*
X109710000Y-97340000D03*
X118710000Y-97340000D03*
%TD*%
D29*
%TO.C,C57*%
X73662500Y-111700000D03*
X75387500Y-111700000D03*
%TD*%
D44*
%TO.C,C79*%
X153700000Y-71512500D03*
X153700000Y-69787500D03*
%TD*%
D35*
%TO.C,C230*%
X89000000Y-106260000D03*
X87450000Y-106260000D03*
%TD*%
D38*
%TO.C,C81*%
X121944350Y-83013500D03*
X121944350Y-84738500D03*
%TD*%
D51*
%TO.C,Q52*%
X143375000Y-142025000D03*
X143375000Y-143925000D03*
X145250000Y-142975000D03*
%TD*%
D21*
%TO.C,R121*%
X76212500Y-90225000D03*
X78037500Y-90225000D03*
%TD*%
D29*
%TO.C,C7_RETRY1*%
X133221983Y-85122000D03*
X134946983Y-85122000D03*
%TD*%
D50*
%TO.C,D10*%
X133935000Y-126100000D03*
X134800000Y-126100000D03*
%TD*%
D43*
%TO.C,R4*%
X103335000Y-95265000D03*
X104985000Y-95265000D03*
%TD*%
D28*
%TO.C,C65*%
X155562500Y-116950000D03*
X153837500Y-116950000D03*
%TD*%
D12*
%TO.C,IC5*%
X80350000Y-118300000D03*
X81000000Y-118300000D03*
X81650000Y-118300000D03*
X81650000Y-116200000D03*
X81000000Y-116200000D03*
X80350000Y-116200000D03*
D13*
X81000000Y-117250000D03*
%TD*%
D29*
%TO.C,C59*%
X73662500Y-114725000D03*
X75387500Y-114725000D03*
%TD*%
D36*
%TO.C,R64*%
X75000000Y-124325000D03*
X73000000Y-124325000D03*
%TD*%
D29*
%TO.C,C72*%
X140612500Y-115050000D03*
X142337500Y-115050000D03*
%TD*%
D38*
%TO.C,C78*%
X136884483Y-83284500D03*
X136884483Y-85009500D03*
%TD*%
D51*
%TO.C,Q15*%
X153175000Y-142325000D03*
X153175000Y-144225000D03*
X155050000Y-143275000D03*
%TD*%
D17*
%TO.C,C33*%
X75049999Y-80199999D03*
X75049999Y-81749999D03*
%TD*%
D29*
%TO.C,C9*%
X117070000Y-92890000D03*
X118795000Y-92890000D03*
%TD*%
%TO.C,C6_RETRY1*%
X118281850Y-84963500D03*
X120006850Y-84963500D03*
%TD*%
D52*
%TO.C,R6*%
X104985000Y-93165000D03*
X103335000Y-93165000D03*
%TD*%
D14*
%TO.C,R228*%
X75025000Y-128400000D03*
X73200000Y-128400000D03*
%TD*%
%TO.C,R8*%
X91750500Y-86650500D03*
X89925500Y-86650500D03*
%TD*%
D22*
%TO.C,IC18*%
X107337500Y-133638000D03*
X106687500Y-133638000D03*
X106037500Y-133638000D03*
X105387500Y-133638000D03*
X104737500Y-133638000D03*
X104087500Y-133638000D03*
X103437500Y-133638000D03*
X102787500Y-133638000D03*
X102787500Y-139514000D03*
X103437500Y-139514000D03*
X104087500Y-139514000D03*
X104737500Y-139514000D03*
X105387500Y-139514000D03*
X106037500Y-139514000D03*
X106687500Y-139514000D03*
X107337500Y-139514000D03*
%TD*%
D53*
%TO.C,R73*%
X121767500Y-101125000D03*
X121767500Y-102950000D03*
%TD*%
D54*
%TO.C,C232*%
X140470000Y-102500000D03*
X143420000Y-102500000D03*
%TD*%
D28*
%TO.C,C66*%
X155550000Y-111050000D03*
X153825000Y-111050000D03*
%TD*%
D34*
%TO.C,C60*%
X73850000Y-144337500D03*
X73850000Y-146412500D03*
%TD*%
D22*
%TO.C,IC17*%
X113062500Y-133688000D03*
X112412500Y-133688000D03*
X111762500Y-133688000D03*
X111112500Y-133688000D03*
X110462500Y-133688000D03*
X109812500Y-133688000D03*
X109162500Y-133688000D03*
X108512500Y-133688000D03*
X108512500Y-139564000D03*
X109162500Y-139564000D03*
X109812500Y-139564000D03*
X110462500Y-139564000D03*
X111112500Y-139564000D03*
X111762500Y-139564000D03*
X112412500Y-139564000D03*
X113062500Y-139564000D03*
%TD*%
D38*
%TO.C,C80*%
X136734483Y-88609500D03*
X136734483Y-90334500D03*
%TD*%
D50*
%TO.C,D6*%
X76382500Y-126850000D03*
X77247500Y-126850000D03*
%TD*%
D30*
%TO.C,R2_ILIM1*%
X82800000Y-112075000D03*
X84800000Y-112075000D03*
%TD*%
D21*
%TO.C,R27*%
X100690845Y-127951000D03*
X102515845Y-127951000D03*
%TD*%
D52*
%TO.C,R3*%
X105010000Y-97440000D03*
X103360000Y-97440000D03*
%TD*%
D21*
%TO.C,R23*%
X107815845Y-128001000D03*
X109640845Y-128001000D03*
%TD*%
D14*
%TO.C,R41*%
X116615845Y-129951000D03*
X114790845Y-129951000D03*
%TD*%
D17*
%TO.C,C11*%
X75000000Y-74974999D03*
X75000000Y-76524999D03*
%TD*%
D28*
%TO.C,C51*%
X134200000Y-132100000D03*
X132475000Y-132100000D03*
%TD*%
D35*
%TO.C,C136*%
X78025000Y-94200000D03*
X76475000Y-94200000D03*
%TD*%
D29*
%TO.C,C50*%
X73600000Y-119200000D03*
X75325000Y-119200000D03*
%TD*%
D55*
%TO.C,C227*%
X108600000Y-84465000D03*
X108600000Y-82915000D03*
%TD*%
D48*
%TO.C,R5_ILIM1*%
X131009483Y-88522000D03*
X131009483Y-90522000D03*
%TD*%
D38*
%TO.C,C20*%
X134010000Y-110877500D03*
X134010000Y-112602500D03*
%TD*%
D12*
%TO.C,IC8*%
X145250000Y-113120000D03*
X145900000Y-113120000D03*
X146550000Y-113120000D03*
X146550000Y-111020000D03*
X145900000Y-111020000D03*
X145250000Y-111020000D03*
D13*
X145900000Y-112070000D03*
%TD*%
D14*
%TO.C,R40*%
X113115845Y-129951000D03*
X111290845Y-129951000D03*
%TD*%
D21*
%TO.C,R20*%
X118290845Y-128051000D03*
X120115845Y-128051000D03*
%TD*%
%TO.C,R50*%
X105387500Y-143451000D03*
X107212500Y-143451000D03*
%TD*%
D14*
%TO.C,R30*%
X114215845Y-145351000D03*
X112390845Y-145351000D03*
%TD*%
D16*
%TO.C,IC13*%
X145175000Y-88750000D03*
X145175000Y-89400000D03*
X145175000Y-90050000D03*
X145175000Y-90700000D03*
X145175000Y-91350000D03*
X145175000Y-92000000D03*
X145175000Y-92650000D03*
X145175000Y-93300000D03*
X151051000Y-93300000D03*
X151051000Y-92650000D03*
X151051000Y-92000000D03*
X151051000Y-91350000D03*
X151051000Y-90700000D03*
X151051000Y-90050000D03*
X151051000Y-89400000D03*
X151051000Y-88750000D03*
%TD*%
D22*
%TO.C,IC16*%
X118900000Y-133700000D03*
X118250000Y-133700000D03*
X117600000Y-133700000D03*
X116950000Y-133700000D03*
X116300000Y-133700000D03*
X115650000Y-133700000D03*
X115000000Y-133700000D03*
X114350000Y-133700000D03*
X114350000Y-139576000D03*
X115000000Y-139576000D03*
X115650000Y-139576000D03*
X116300000Y-139576000D03*
X116950000Y-139576000D03*
X117600000Y-139576000D03*
X118250000Y-139576000D03*
X118900000Y-139576000D03*
%TD*%
D56*
%TO.C,S1*%
X80650000Y-146925000D03*
X80650000Y-148525000D03*
X84750000Y-148525000D03*
X84750000Y-146925000D03*
D57*
X82700000Y-146300000D03*
%TD*%
D58*
%TO.C,U14*%
X144375000Y-114900000D03*
X144375000Y-116170000D03*
X144375000Y-117440000D03*
X144375000Y-118710000D03*
X149325000Y-118710000D03*
X149325000Y-117440000D03*
X149325000Y-116170000D03*
X149325000Y-114900000D03*
%TD*%
D28*
%TO.C,C52*%
X155550000Y-115475000D03*
X153825000Y-115475000D03*
%TD*%
D45*
%TO.C,U25*%
X105085000Y-110683230D03*
X104285000Y-110683230D03*
D59*
X105435000Y-109733230D03*
X104935000Y-109733230D03*
X104435000Y-109733230D03*
X103935000Y-109733230D03*
X103935000Y-111633230D03*
X104435000Y-111633230D03*
X104935000Y-111633230D03*
X105435000Y-111633230D03*
%TD*%
D60*
%TO.C,U24*%
X124150000Y-102432500D03*
X124150000Y-101632500D03*
D61*
X125100000Y-102782500D03*
X125100000Y-102282500D03*
X125100000Y-101782500D03*
X125100000Y-101282500D03*
X123200000Y-101282500D03*
X123200000Y-101782500D03*
X123200000Y-102282500D03*
X123200000Y-102782500D03*
%TD*%
D32*
%TO.C,U7*%
X83000000Y-82300000D03*
X83499999Y-82300000D03*
X84000000Y-82300000D03*
X84500000Y-82300000D03*
X85000001Y-82300000D03*
X85500000Y-82300000D03*
D33*
X86149999Y-81650001D03*
X86149999Y-81150000D03*
X86149999Y-80650000D03*
X86149999Y-80149999D03*
D32*
X85500000Y-79500000D03*
X85000001Y-79500000D03*
X84500000Y-79500000D03*
X84000000Y-79500000D03*
X83499999Y-79500000D03*
X83000000Y-79500000D03*
D33*
X82350001Y-80149999D03*
X82350001Y-80650000D03*
X82350001Y-81150000D03*
X82350001Y-81650001D03*
%TD*%
D21*
%TO.C,R25*%
X104290845Y-127951000D03*
X106115845Y-127951000D03*
%TD*%
D56*
%TO.C,S2*%
X143500000Y-146800000D03*
X143500000Y-148400000D03*
X147600000Y-148400000D03*
X147600000Y-146800000D03*
D57*
X145550000Y-146175000D03*
%TD*%
D11*
%TO.C,R17*%
X125910000Y-97465000D03*
X125910000Y-95815000D03*
%TD*%
D15*
%TO.C,R53*%
X105700000Y-115300000D03*
X105700000Y-116950000D03*
%TD*%
D14*
%TO.C,R229*%
X132462500Y-129600000D03*
X130637500Y-129600000D03*
%TD*%
D21*
%TO.C,R49*%
X108890845Y-143451000D03*
X110715845Y-143451000D03*
%TD*%
%TO.C,R29*%
X121778345Y-128051000D03*
X123603345Y-128051000D03*
%TD*%
D48*
%TO.C,R75*%
X142950000Y-74350000D03*
X142950000Y-76350000D03*
%TD*%
D11*
%TO.C,R15*%
X123910000Y-97465000D03*
X123910000Y-95815000D03*
%TD*%
D62*
%TO.C,C228*%
X141970000Y-100075000D03*
X143520000Y-100075000D03*
%TD*%
D36*
%TO.C,R2_FAULT2*%
X147325000Y-109420000D03*
X145325000Y-109420000D03*
%TD*%
D21*
%TO.C,R114*%
X93638000Y-82775500D03*
X95463000Y-82775500D03*
%TD*%
D30*
%TO.C,R2_ILIM2*%
X148250000Y-112645000D03*
X150250000Y-112645000D03*
%TD*%
D28*
%TO.C,C62*%
X134187500Y-133800000D03*
X132462500Y-133800000D03*
%TD*%
D16*
%TO.C,IC14*%
X145236000Y-82437500D03*
X145236000Y-83087500D03*
X145236000Y-83737500D03*
X145236000Y-84387500D03*
X145236000Y-85037500D03*
X145236000Y-85687500D03*
X145236000Y-86337500D03*
X145236000Y-86987500D03*
X151112000Y-86987500D03*
X151112000Y-86337500D03*
X151112000Y-85687500D03*
X151112000Y-85037500D03*
X151112000Y-84387500D03*
X151112000Y-83737500D03*
X151112000Y-83087500D03*
X151112000Y-82437500D03*
%TD*%
D63*
%TO.C,C231*%
X111080000Y-86005000D03*
X111080000Y-83055000D03*
%TD*%
D17*
%TO.C,C23*%
X76524999Y-80200000D03*
X76524999Y-81750000D03*
%TD*%
D28*
%TO.C,C54*%
X155550000Y-112525000D03*
X153825000Y-112525000D03*
%TD*%
D38*
%TO.C,C70*%
X155100000Y-121462500D03*
X155100000Y-123187500D03*
%TD*%
D17*
%TO.C,C43*%
X75174999Y-86112500D03*
X75174999Y-87662500D03*
%TD*%
%TO.C,C229*%
X107800000Y-122725000D03*
X107800000Y-124275000D03*
%TD*%
D49*
%TO.C,R71*%
X76312500Y-133450000D03*
X74487500Y-133450000D03*
%TD*%
D19*
%TO.C,U15*%
X79300000Y-122325000D03*
X79300000Y-122825000D03*
X79300000Y-123325000D03*
X79300000Y-123825000D03*
X79300000Y-124325000D03*
X79300000Y-124825000D03*
X79300000Y-125325000D03*
X79300000Y-125825000D03*
X79300000Y-126325000D03*
X79300000Y-126825000D03*
X79300000Y-127325000D03*
X79300000Y-127825000D03*
X79300000Y-128325000D03*
X79300000Y-128825000D03*
X79300000Y-129325000D03*
X79300000Y-129825000D03*
X79300000Y-130325000D03*
X79300000Y-130825000D03*
X79300000Y-131325000D03*
X79300000Y-131825000D03*
X79300000Y-132325000D03*
X79300000Y-132825000D03*
X79300000Y-133325000D03*
X79300000Y-133825000D03*
X79300000Y-134325000D03*
D20*
X80975000Y-136000000D03*
X81475000Y-136000000D03*
X81975000Y-136000000D03*
X82475000Y-136000000D03*
X82975000Y-136000000D03*
X83475000Y-136000000D03*
X83975000Y-136000000D03*
X84475000Y-136000000D03*
X84975000Y-136000000D03*
X85475000Y-136000000D03*
X85975000Y-136000000D03*
X86475000Y-136000000D03*
X86975000Y-136000000D03*
X87475000Y-136000000D03*
X87975000Y-136000000D03*
X88475000Y-136000000D03*
X88975000Y-136000000D03*
X89475000Y-136000000D03*
X89975000Y-136000000D03*
X90475000Y-136000000D03*
X90975000Y-136000000D03*
X91475000Y-136000000D03*
X91975000Y-136000000D03*
X92475000Y-136000000D03*
X92975000Y-136000000D03*
D19*
X94650000Y-134325000D03*
X94650000Y-133825000D03*
X94650000Y-133325000D03*
X94650000Y-132825000D03*
X94650000Y-132325000D03*
X94650000Y-131825000D03*
X94650000Y-131325000D03*
X94650000Y-130825000D03*
X94650000Y-130325000D03*
X94650000Y-129825000D03*
X94650000Y-129325000D03*
X94650000Y-128825000D03*
X94650000Y-128325000D03*
X94650000Y-127825000D03*
X94650000Y-127325000D03*
X94650000Y-126825000D03*
X94650000Y-126325000D03*
X94650000Y-125825000D03*
X94650000Y-125325000D03*
X94650000Y-124825000D03*
X94650000Y-124325000D03*
X94650000Y-123825000D03*
X94650000Y-123325000D03*
X94650000Y-122825000D03*
X94650000Y-122325000D03*
D20*
X92975000Y-120650000D03*
X92475000Y-120650000D03*
X91975000Y-120650000D03*
X91475000Y-120650000D03*
X90975000Y-120650000D03*
X90475000Y-120650000D03*
X89975000Y-120650000D03*
X89475000Y-120650000D03*
X88975000Y-120650000D03*
X88475000Y-120650000D03*
X87975000Y-120650000D03*
X87475000Y-120650000D03*
X86975000Y-120650000D03*
X86475000Y-120650000D03*
X85975000Y-120650000D03*
X85475000Y-120650000D03*
X84975000Y-120650000D03*
X84475000Y-120650000D03*
X83975000Y-120650000D03*
X83475000Y-120650000D03*
X82975000Y-120650000D03*
X82475000Y-120650000D03*
X81975000Y-120650000D03*
X81475000Y-120650000D03*
X80975000Y-120650000D03*
%TD*%
D17*
%TO.C,C12*%
X76624999Y-69887500D03*
X76624999Y-71437500D03*
%TD*%
D14*
%TO.C,R32*%
X107212500Y-145351000D03*
X105387500Y-145351000D03*
%TD*%
D29*
%TO.C,C49*%
X73600000Y-117725000D03*
X75325000Y-117725000D03*
%TD*%
D32*
%TO.C,U10*%
X82750000Y-88350001D03*
X83249999Y-88350001D03*
X83750000Y-88350001D03*
X84250000Y-88350001D03*
X84750001Y-88350001D03*
X85250000Y-88350001D03*
D33*
X85899999Y-87700002D03*
X85899999Y-87200001D03*
X85899999Y-86700001D03*
X85899999Y-86200000D03*
D32*
X85250000Y-85550001D03*
X84750001Y-85550001D03*
X84250000Y-85550001D03*
X83750000Y-85550001D03*
X83249999Y-85550001D03*
X82750000Y-85550001D03*
D33*
X82100001Y-86200000D03*
X82100001Y-86700001D03*
X82100001Y-87200001D03*
X82100001Y-87700002D03*
%TD*%
D18*
%TO.C,Q51*%
X84400000Y-144225000D03*
X84400000Y-142325000D03*
X82525000Y-143275000D03*
%TD*%
D14*
%TO.C,R31*%
X117715845Y-145351000D03*
X115890845Y-145351000D03*
%TD*%
D29*
%TO.C,C48*%
X73662500Y-116225000D03*
X75387500Y-116225000D03*
%TD*%
D14*
%TO.C,R48*%
X106103345Y-129926000D03*
X104278345Y-129926000D03*
%TD*%
D30*
%TO.C,FB2*%
X132500000Y-135700000D03*
X134500000Y-135700000D03*
%TD*%
D14*
%TO.C,R7*%
X91700500Y-92725500D03*
X89875500Y-92725500D03*
%TD*%
D50*
%TO.C,D9*%
X134017500Y-128100000D03*
X134882500Y-128100000D03*
%TD*%
D21*
%TO.C,R22*%
X111278345Y-128051000D03*
X113103345Y-128051000D03*
%TD*%
D12*
%TO.C,IC9*%
X140559483Y-83197000D03*
X139909483Y-83197000D03*
X139259483Y-83197000D03*
X139259483Y-85297000D03*
X139909483Y-85297000D03*
X140559483Y-85297000D03*
D13*
X139909483Y-84247000D03*
%TD*%
D36*
%TO.C,R2_FAULT1*%
X80975000Y-108825000D03*
X78975000Y-108825000D03*
%TD*%
D48*
%TO.C,R6_ILIM1*%
X116256850Y-83013500D03*
X116256850Y-85013500D03*
%TD*%
D21*
%TO.C,R2*%
X93625500Y-87975500D03*
X95450500Y-87975500D03*
%TD*%
D43*
%TO.C,R36*%
X123785000Y-117240000D03*
X125435000Y-117240000D03*
%TD*%
%TO.C,R35*%
X123785000Y-119365000D03*
X125435000Y-119365000D03*
%TD*%
D24*
%TO.C,R26*%
X78299999Y-69675000D03*
X78299999Y-71500000D03*
%TD*%
D44*
%TO.C,C42*%
X94910000Y-103822500D03*
X94910000Y-102097500D03*
%TD*%
D21*
%TO.C,R28*%
X125290845Y-128051000D03*
X127115845Y-128051000D03*
%TD*%
D29*
%TO.C,C71*%
X80237500Y-114900000D03*
X81962500Y-114900000D03*
%TD*%
D36*
%TO.C,R82*%
X80150000Y-142375000D03*
X78150000Y-142375000D03*
%TD*%
M02*
