%TF.GenerationSoftware,KiCad,Pcbnew,9.0.4*%
%TF.CreationDate,2026-03-02T15:41:38-07:00*%
%TF.ProjectId,Motor_Board_V2,4d6f746f-725f-4426-9f61-72645f56322e,v0.1*%
%TF.SameCoordinates,Original*%
%TF.FileFunction,Soldermask,Bot*%
%TF.FilePolarity,Negative*%
%FSLAX46Y46*%
G04 Gerber Fmt 4.6, Leading zero omitted, Abs format (unit mm)*
G04 Created by KiCad (PCBNEW 9.0.4) date 2026-03-02 15:41:38*
%MOMM*%
%LPD*%
G01*
G04 APERTURE LIST*
G04 Aperture macros list*
%AMRoundRect*
0 Rectangle with rounded corners*
0 $1 Rounding radius*
0 $2 $3 $4 $5 $6 $7 $8 $9 X,Y pos of 4 corners*
0 Add a 4 corners polygon primitive as box body*
4,1,4,$2,$3,$4,$5,$6,$7,$8,$9,$2,$3,0*
0 Add four circle primitives for the rounded corners*
1,1,$1+$1,$2,$3*
1,1,$1+$1,$4,$5*
1,1,$1+$1,$6,$7*
1,1,$1+$1,$8,$9*
0 Add four rect primitives between the rounded corners*
20,1,$1+$1,$2,$3,$4,$5,0*
20,1,$1+$1,$4,$5,$6,$7,0*
20,1,$1+$1,$6,$7,$8,$9,0*
20,1,$1+$1,$8,$9,$2,$3,0*%
G04 Aperture macros list end*
%ADD10C,0.600000*%
%ADD11R,1.700000X1.700000*%
%ADD12C,1.700000*%
%ADD13RoundRect,0.102000X0.695000X0.695000X-0.695000X0.695000X-0.695000X-0.695000X0.695000X-0.695000X0*%
%ADD14C,1.594000*%
%ADD15C,1.400000*%
%ADD16R,0.450000X1.475000*%
%ADD17RoundRect,0.250000X0.362500X1.425000X-0.362500X1.425000X-0.362500X-1.425000X0.362500X-1.425000X0*%
%ADD18RoundRect,0.250000X-1.000000X-0.650000X1.000000X-0.650000X1.000000X0.650000X-1.000000X0.650000X0*%
%ADD19RoundRect,0.237500X-0.300000X-0.237500X0.300000X-0.237500X0.300000X0.237500X-0.300000X0.237500X0*%
%ADD20RoundRect,0.150000X0.150000X0.200000X-0.150000X0.200000X-0.150000X-0.200000X0.150000X-0.200000X0*%
%ADD21RoundRect,0.250000X0.350000X0.450000X-0.350000X0.450000X-0.350000X-0.450000X0.350000X-0.450000X0*%
%ADD22RoundRect,0.100500X-0.301500X0.986500X-0.301500X-0.986500X0.301500X-0.986500X0.301500X0.986500X0*%
%ADD23RoundRect,0.225000X0.225000X0.250000X-0.225000X0.250000X-0.225000X-0.250000X0.225000X-0.250000X0*%
%ADD24RoundRect,0.250000X-0.450000X0.262500X-0.450000X-0.262500X0.450000X-0.262500X0.450000X0.262500X0*%
%ADD25RoundRect,0.250000X-0.350000X-0.450000X0.350000X-0.450000X0.350000X0.450000X-0.350000X0.450000X0*%
%ADD26RoundRect,0.250000X-0.450000X0.350000X-0.450000X-0.350000X0.450000X-0.350000X0.450000X0.350000X0*%
%ADD27RoundRect,0.150000X-0.587500X-0.150000X0.587500X-0.150000X0.587500X0.150000X-0.587500X0.150000X0*%
%ADD28RoundRect,0.150000X-0.200000X0.150000X-0.200000X-0.150000X0.200000X-0.150000X0.200000X0.150000X0*%
%ADD29RoundRect,0.250000X1.425000X-0.362500X1.425000X0.362500X-1.425000X0.362500X-1.425000X-0.362500X0*%
%ADD30RoundRect,0.237500X-0.237500X0.300000X-0.237500X-0.300000X0.237500X-0.300000X0.237500X0.300000X0*%
%ADD31RoundRect,0.066720X1.030280X0.350280X-1.030280X0.350280X-1.030280X-0.350280X1.030280X-0.350280X0*%
%ADD32RoundRect,0.102000X3.000000X4.800000X-3.000000X4.800000X-3.000000X-4.800000X3.000000X-4.800000X0*%
%ADD33RoundRect,0.102000X1.450000X1.575000X-1.450000X1.575000X-1.450000X-1.575000X1.450000X-1.575000X0*%
%ADD34RoundRect,0.225000X-0.250000X0.225000X-0.250000X-0.225000X0.250000X-0.225000X0.250000X0.225000X0*%
%ADD35RoundRect,0.100500X-0.986500X-0.301500X0.986500X-0.301500X0.986500X0.301500X-0.986500X0.301500X0*%
%ADD36RoundRect,0.225000X0.250000X-0.225000X0.250000X0.225000X-0.250000X0.225000X-0.250000X-0.225000X0*%
%ADD37RoundRect,0.225000X-0.225000X-0.250000X0.225000X-0.250000X0.225000X0.250000X-0.225000X0.250000X0*%
%ADD38RoundRect,0.066720X-0.350280X1.030280X-0.350280X-1.030280X0.350280X-1.030280X0.350280X1.030280X0*%
%ADD39RoundRect,0.102000X-4.800000X3.000000X-4.800000X-3.000000X4.800000X-3.000000X4.800000X3.000000X0*%
%ADD40RoundRect,0.102000X-1.575000X1.450000X-1.575000X-1.450000X1.575000X-1.450000X1.575000X1.450000X0*%
%ADD41RoundRect,0.150000X-0.150000X-0.200000X0.150000X-0.200000X0.150000X0.200000X-0.150000X0.200000X0*%
%ADD42RoundRect,0.150000X0.587500X0.150000X-0.587500X0.150000X-0.587500X-0.150000X0.587500X-0.150000X0*%
%ADD43RoundRect,0.100500X0.986500X0.301500X-0.986500X0.301500X-0.986500X-0.301500X0.986500X-0.301500X0*%
%ADD44RoundRect,0.102000X-0.900000X0.500000X-0.900000X-0.500000X0.900000X-0.500000X0.900000X0.500000X0*%
%ADD45RoundRect,0.250000X-0.325000X-1.100000X0.325000X-1.100000X0.325000X1.100000X-0.325000X1.100000X0*%
%ADD46RoundRect,0.250000X-1.425000X0.362500X-1.425000X-0.362500X1.425000X-0.362500X1.425000X0.362500X0*%
%ADD47RoundRect,0.100500X0.301500X-0.986500X0.301500X0.986500X-0.301500X0.986500X-0.301500X-0.986500X0*%
%ADD48RoundRect,0.237500X0.300000X0.237500X-0.300000X0.237500X-0.300000X-0.237500X0.300000X-0.237500X0*%
%ADD49R,1.473200X0.533400*%
%ADD50RoundRect,0.250000X-0.362500X-1.425000X0.362500X-1.425000X0.362500X1.425000X-0.362500X1.425000X0*%
%ADD51RoundRect,0.250000X1.100000X-0.325000X1.100000X0.325000X-1.100000X0.325000X-1.100000X-0.325000X0*%
%ADD52RoundRect,0.062500X-0.187500X-0.062500X0.187500X-0.062500X0.187500X0.062500X-0.187500X0.062500X0*%
%ADD53R,0.900000X1.600000*%
%ADD54RoundRect,0.250000X0.475000X-0.337500X0.475000X0.337500X-0.475000X0.337500X-0.475000X-0.337500X0*%
%ADD55RoundRect,0.250000X0.650000X-1.000000X0.650000X1.000000X-0.650000X1.000000X-0.650000X-1.000000X0*%
%ADD56RoundRect,0.237500X0.237500X-0.300000X0.237500X0.300000X-0.237500X0.300000X-0.237500X-0.300000X0*%
%ADD57RoundRect,0.250000X0.450000X-0.262500X0.450000X0.262500X-0.450000X0.262500X-0.450000X-0.262500X0*%
%ADD58RoundRect,0.237500X-0.237500X0.250000X-0.237500X-0.250000X0.237500X-0.250000X0.237500X0.250000X0*%
%ADD59RoundRect,0.250000X-0.262500X-0.450000X0.262500X-0.450000X0.262500X0.450000X-0.262500X0.450000X0*%
%ADD60RoundRect,0.150000X0.200000X-0.150000X0.200000X0.150000X-0.200000X0.150000X-0.200000X-0.150000X0*%
%ADD61RoundRect,0.237500X0.250000X0.237500X-0.250000X0.237500X-0.250000X-0.237500X0.250000X-0.237500X0*%
%ADD62RoundRect,0.066720X0.350280X-1.030280X0.350280X1.030280X-0.350280X1.030280X-0.350280X-1.030280X0*%
%ADD63RoundRect,0.102000X4.800000X-3.000000X4.800000X3.000000X-4.800000X3.000000X-4.800000X-3.000000X0*%
%ADD64RoundRect,0.102000X1.575000X-1.450000X1.575000X1.450000X-1.575000X1.450000X-1.575000X-1.450000X0*%
%ADD65RoundRect,0.250000X-1.100000X0.325000X-1.100000X-0.325000X1.100000X-0.325000X1.100000X0.325000X0*%
%ADD66RoundRect,0.066720X-1.030280X-0.350280X1.030280X-0.350280X1.030280X0.350280X-1.030280X0.350280X0*%
%ADD67RoundRect,0.102000X-3.000000X-4.800000X3.000000X-4.800000X3.000000X4.800000X-3.000000X4.800000X0*%
%ADD68RoundRect,0.102000X-1.450000X-1.575000X1.450000X-1.575000X1.450000X1.575000X-1.450000X1.575000X0*%
%ADD69C,4.000000*%
G04 APERTURE END LIST*
D10*
%TO.C,U4*%
X82950000Y-71049999D03*
X84000000Y-71049999D03*
X85050000Y-71049999D03*
X82950000Y-69950001D03*
X84000000Y-69950001D03*
X85050000Y-69950001D03*
%TD*%
D11*
%TO.C,J3*%
X154600000Y-92255000D03*
D12*
X154600000Y-94795000D03*
X154600000Y-97335000D03*
X154600000Y-99875000D03*
X154600000Y-102415000D03*
%TD*%
D10*
%TO.C,U1*%
X82900000Y-76449999D03*
X83950000Y-76449999D03*
X85000000Y-76449999D03*
X82900000Y-75350001D03*
X83950000Y-75350001D03*
X85000000Y-75350001D03*
%TD*%
D13*
%TO.C,J1*%
X90370000Y-77890000D03*
D14*
X90370000Y-80430000D03*
X92910000Y-77890000D03*
X92910000Y-80430000D03*
X95450000Y-77890000D03*
X95450000Y-80430000D03*
X97990000Y-77890000D03*
X97990000Y-80430000D03*
X100530000Y-77890000D03*
X100530000Y-80430000D03*
X103070000Y-77890000D03*
X103070000Y-80430000D03*
X105610000Y-77890000D03*
X105610000Y-80430000D03*
X108150000Y-77890000D03*
X108150000Y-80430000D03*
X110690000Y-77890000D03*
X110690000Y-80430000D03*
X113230000Y-77890000D03*
X113230000Y-80430000D03*
X115770000Y-77890000D03*
X115770000Y-80430000D03*
X118310000Y-77890000D03*
X118310000Y-80430000D03*
X120850000Y-77890000D03*
X120850000Y-80430000D03*
X123390000Y-77890000D03*
X123390000Y-80430000D03*
X125930000Y-77890000D03*
X125930000Y-80430000D03*
X128470000Y-77890000D03*
X128470000Y-80430000D03*
X131010000Y-77890000D03*
X131010000Y-80430000D03*
X133550000Y-77890000D03*
X133550000Y-80430000D03*
X136090000Y-77890000D03*
X136090000Y-80430000D03*
X138630000Y-77890000D03*
X138630000Y-80430000D03*
%TD*%
D15*
%TO.C,JP10*%
X89950000Y-148650000D03*
X87410000Y-148650000D03*
%TD*%
D11*
%TO.C,J11*%
X154625000Y-108500000D03*
D12*
X154625000Y-105960000D03*
%TD*%
D11*
%TO.C,J2*%
X73625000Y-91170000D03*
D12*
X73625000Y-93710000D03*
X73625000Y-96250000D03*
X73625000Y-98790000D03*
X73625000Y-101330000D03*
%TD*%
D11*
%TO.C,J10*%
X73650000Y-107465000D03*
D12*
X73650000Y-104925000D03*
%TD*%
D10*
%TO.C,U7*%
X83200000Y-81449999D03*
X84250000Y-81449999D03*
X85300000Y-81449999D03*
X83200000Y-80350001D03*
X84250000Y-80350001D03*
X85300000Y-80350001D03*
%TD*%
%TO.C,U10*%
X82950000Y-87500000D03*
X84000000Y-87500000D03*
X85050000Y-87500000D03*
X82950000Y-86400002D03*
X84000000Y-86400002D03*
X85050000Y-86400002D03*
%TD*%
D15*
%TO.C,JP11*%
X138075000Y-148375000D03*
X140615000Y-148375000D03*
%TD*%
D16*
%TO.C,IC23*%
X113125000Y-139425000D03*
X113775000Y-139425000D03*
X114425000Y-139425000D03*
X115075000Y-139425000D03*
X115725000Y-139425000D03*
X116375000Y-139425000D03*
X117025000Y-139425000D03*
X117675000Y-139425000D03*
X117675000Y-145301000D03*
X117025000Y-145301000D03*
X116375000Y-145301000D03*
X115725000Y-145301000D03*
X115075000Y-145301000D03*
X114425000Y-145301000D03*
X113775000Y-145301000D03*
X113125000Y-145301000D03*
%TD*%
D17*
%TO.C,R56*%
X87525000Y-114225000D03*
X81600000Y-114225000D03*
%TD*%
D18*
%TO.C,D13*%
X99900000Y-139250000D03*
X103900000Y-139250000D03*
%TD*%
D19*
%TO.C,C154*%
X144587500Y-143600000D03*
X146312500Y-143600000D03*
%TD*%
D20*
%TO.C,D1*%
X125340000Y-87110000D03*
X126740000Y-87110000D03*
%TD*%
D21*
%TO.C,R106*%
X146450000Y-141925000D03*
X144450000Y-141925000D03*
%TD*%
D22*
%TO.C,U2*%
X117601588Y-68627824D03*
X118871588Y-68627824D03*
X120141588Y-68627824D03*
X121411588Y-68627824D03*
X121411588Y-73567824D03*
X120141588Y-73567824D03*
X118871588Y-73567824D03*
X117601588Y-73567824D03*
%TD*%
D23*
%TO.C,C24*%
X129775000Y-124040000D03*
X128225000Y-124040000D03*
%TD*%
D24*
%TO.C,R222*%
X78000000Y-144537500D03*
X78000000Y-146362500D03*
%TD*%
D23*
%TO.C,C226*%
X134050000Y-131000000D03*
X132500000Y-131000000D03*
%TD*%
D19*
%TO.C,C46*%
X152450000Y-116880000D03*
X154175000Y-116880000D03*
%TD*%
D25*
%TO.C,R1_FAULT2*%
X152075000Y-115130000D03*
X154075000Y-115130000D03*
%TD*%
D21*
%TO.C,R97*%
X142700000Y-128325000D03*
X140700000Y-128325000D03*
%TD*%
D26*
%TO.C,R77*%
X93850000Y-122500000D03*
X93850000Y-124500000D03*
%TD*%
D27*
%TO.C,Q14*%
X140650000Y-135225000D03*
X140650000Y-133325000D03*
X142525000Y-134275000D03*
%TD*%
D16*
%TO.C,IC20*%
X118750000Y-139387000D03*
X119400000Y-139387000D03*
X120050000Y-139387000D03*
X120700000Y-139387000D03*
X121350000Y-139387000D03*
X122000000Y-139387000D03*
X122650000Y-139387000D03*
X123300000Y-139387000D03*
X123300000Y-145263000D03*
X122650000Y-145263000D03*
X122000000Y-145263000D03*
X121350000Y-145263000D03*
X120700000Y-145263000D03*
X120050000Y-145263000D03*
X119400000Y-145263000D03*
X118750000Y-145263000D03*
%TD*%
D23*
%TO.C,C26*%
X116275000Y-126600000D03*
X114725000Y-126600000D03*
%TD*%
D28*
%TO.C,D17*%
X91920000Y-97660000D03*
X91920000Y-96260000D03*
%TD*%
D29*
%TO.C,R11*%
X104106588Y-75455324D03*
X104106588Y-69530324D03*
%TD*%
D19*
%TO.C,C47*%
X73250000Y-136025000D03*
X74975000Y-136025000D03*
%TD*%
D30*
%TO.C,C91*%
X138550000Y-123612500D03*
X138550000Y-125337500D03*
%TD*%
D24*
%TO.C,R24*%
X124075000Y-95512500D03*
X124075000Y-97337500D03*
%TD*%
D31*
%TO.C,IC4*%
X104480000Y-100750000D03*
X104480000Y-102020000D03*
X104480000Y-103290000D03*
X104480000Y-104560000D03*
X104480000Y-105830000D03*
X104480000Y-107100000D03*
X104480000Y-108370000D03*
X104480000Y-109640000D03*
X104480000Y-110910000D03*
X104480000Y-112180000D03*
X91260000Y-112180000D03*
X91260000Y-110910000D03*
X91260000Y-109640000D03*
X91260000Y-108370000D03*
X91260000Y-107100000D03*
X91260000Y-105830000D03*
X91260000Y-104560000D03*
X91260000Y-103290000D03*
X91260000Y-102020000D03*
X91260000Y-100750000D03*
D32*
X97870000Y-106465000D03*
D33*
X97870000Y-100090000D03*
X97870000Y-112840000D03*
%TD*%
D34*
%TO.C,C44*%
X99475000Y-118725000D03*
X99475000Y-120275000D03*
%TD*%
D24*
%TO.C,R43*%
X123800000Y-116000000D03*
X123800000Y-117825000D03*
%TD*%
D26*
%TO.C,R96*%
X138850000Y-127425000D03*
X138850000Y-129425000D03*
%TD*%
%TO.C,R78*%
X81225000Y-126225000D03*
X81225000Y-128225000D03*
%TD*%
D22*
%TO.C,U3*%
X107326588Y-68477824D03*
X108596588Y-68477824D03*
X109866588Y-68477824D03*
X111136588Y-68477824D03*
X111136588Y-73417824D03*
X109866588Y-73417824D03*
X108596588Y-73417824D03*
X107326588Y-73417824D03*
%TD*%
D35*
%TO.C,U11*%
X80810000Y-100780000D03*
X80810000Y-99510000D03*
X80810000Y-98240000D03*
X80810000Y-96970000D03*
X85750000Y-96970000D03*
X85750000Y-98240000D03*
X85750000Y-99510000D03*
X85750000Y-100780000D03*
%TD*%
D18*
%TO.C,D12*%
X99975000Y-143025000D03*
X103975000Y-143025000D03*
%TD*%
D36*
%TO.C,C21*%
X129375000Y-94250000D03*
X129375000Y-92700000D03*
%TD*%
D37*
%TO.C,C2*%
X99962500Y-88625000D03*
X101512500Y-88625000D03*
%TD*%
D38*
%TO.C,IC3*%
X108390000Y-110980000D03*
X109660000Y-110980000D03*
X110930000Y-110980000D03*
X112200000Y-110980000D03*
X113470000Y-110980000D03*
X114740000Y-110980000D03*
X116010000Y-110980000D03*
X117280000Y-110980000D03*
X118550000Y-110980000D03*
X119820000Y-110980000D03*
X119820000Y-124200000D03*
X118550000Y-124200000D03*
X117280000Y-124200000D03*
X116010000Y-124200000D03*
X114740000Y-124200000D03*
X113470000Y-124200000D03*
X112200000Y-124200000D03*
X110930000Y-124200000D03*
X109660000Y-124200000D03*
X108390000Y-124200000D03*
D39*
X114105000Y-117590000D03*
D40*
X107730000Y-117590000D03*
X120480000Y-117590000D03*
%TD*%
D41*
%TO.C,D16*%
X104847500Y-124260000D03*
X103447500Y-124260000D03*
%TD*%
D30*
%TO.C,C92*%
X138500000Y-133550000D03*
X138500000Y-135275000D03*
%TD*%
D25*
%TO.C,R1_ILIM2*%
X152500000Y-118605000D03*
X154500000Y-118605000D03*
%TD*%
D42*
%TO.C,Q11*%
X147437500Y-123362500D03*
X147437500Y-125262500D03*
X145562500Y-124312500D03*
%TD*%
D43*
%TO.C,U5*%
X146245000Y-111595000D03*
X146245000Y-112865000D03*
X146245000Y-114135000D03*
X146245000Y-115405000D03*
X141305000Y-115405000D03*
X141305000Y-114135000D03*
X141305000Y-112865000D03*
X141305000Y-111595000D03*
%TD*%
D23*
%TO.C,C10*%
X101562500Y-91575000D03*
X100012500Y-91575000D03*
%TD*%
D44*
%TO.C,Y1*%
X75150000Y-124875000D03*
X75150000Y-127425000D03*
%TD*%
D36*
%TO.C,C222*%
X75950000Y-146175000D03*
X75950000Y-144625000D03*
%TD*%
D37*
%TO.C,C32*%
X128225000Y-120850000D03*
X129775000Y-120850000D03*
%TD*%
D21*
%TO.C,R103*%
X83600000Y-141300000D03*
X81600000Y-141300000D03*
%TD*%
D29*
%TO.C,R12*%
X114731588Y-75430324D03*
X114731588Y-69505324D03*
%TD*%
D36*
%TO.C,C40*%
X87800000Y-101425000D03*
X87800000Y-99875000D03*
%TD*%
D45*
%TO.C,C39*%
X93525000Y-96250000D03*
X96475000Y-96250000D03*
%TD*%
D27*
%TO.C,Q13*%
X142512500Y-126500000D03*
X142512500Y-124600000D03*
X144387500Y-125550000D03*
%TD*%
D16*
%TO.C,IC25*%
X107425000Y-139437000D03*
X108075000Y-139437000D03*
X108725000Y-139437000D03*
X109375000Y-139437000D03*
X110025000Y-139437000D03*
X110675000Y-139437000D03*
X111325000Y-139437000D03*
X111975000Y-139437000D03*
X111975000Y-145313000D03*
X111325000Y-145313000D03*
X110675000Y-145313000D03*
X110025000Y-145313000D03*
X109375000Y-145313000D03*
X108725000Y-145313000D03*
X108075000Y-145313000D03*
X107425000Y-145313000D03*
%TD*%
D26*
%TO.C,R94*%
X149450000Y-123950000D03*
X149450000Y-125950000D03*
%TD*%
%TO.C,R80*%
X82925000Y-122500000D03*
X82925000Y-124500000D03*
%TD*%
D25*
%TO.C,R108*%
X81600000Y-148175000D03*
X83600000Y-148175000D03*
%TD*%
D19*
%TO.C,C151*%
X81762500Y-144500000D03*
X83487500Y-144500000D03*
%TD*%
D26*
%TO.C,R76*%
X91787500Y-122425000D03*
X91787500Y-124425000D03*
%TD*%
%TO.C,R98*%
X140300000Y-123450000D03*
X140300000Y-125450000D03*
%TD*%
D45*
%TO.C,C17*%
X127975000Y-116600000D03*
X130925000Y-116600000D03*
%TD*%
D46*
%TO.C,R37*%
X122000000Y-127400000D03*
X122000000Y-133325000D03*
%TD*%
D42*
%TO.C,Q1*%
X89825000Y-122162500D03*
X89825000Y-124062500D03*
X87950000Y-123112500D03*
%TD*%
D36*
%TO.C,C221*%
X152300000Y-146075000D03*
X152300000Y-144525000D03*
%TD*%
D21*
%TO.C,R104*%
X146450000Y-146800000D03*
X144450000Y-146800000D03*
%TD*%
D26*
%TO.C,R95*%
X151600000Y-123675000D03*
X151600000Y-125675000D03*
%TD*%
D36*
%TO.C,C37*%
X87750000Y-108400000D03*
X87750000Y-106850000D03*
%TD*%
D30*
%TO.C,C83*%
X81000000Y-122462500D03*
X81000000Y-124187500D03*
%TD*%
D17*
%TO.C,R57*%
X87700000Y-104125000D03*
X81775000Y-104125000D03*
%TD*%
D47*
%TO.C,U8*%
X108930000Y-133720000D03*
X107660000Y-133720000D03*
X106390000Y-133720000D03*
X105120000Y-133720000D03*
X105120000Y-128780000D03*
X106390000Y-128780000D03*
X107660000Y-128780000D03*
X108930000Y-128780000D03*
%TD*%
D16*
%TO.C,IC24*%
X124587500Y-139387000D03*
X125237500Y-139387000D03*
X125887500Y-139387000D03*
X126537500Y-139387000D03*
X127187500Y-139387000D03*
X127837500Y-139387000D03*
X128487500Y-139387000D03*
X129137500Y-139387000D03*
X129137500Y-145263000D03*
X128487500Y-145263000D03*
X127837500Y-145263000D03*
X127187500Y-145263000D03*
X126537500Y-145263000D03*
X125887500Y-145263000D03*
X125237500Y-145263000D03*
X124587500Y-145263000D03*
%TD*%
D34*
%TO.C,C38*%
X98000000Y-118725000D03*
X98000000Y-120275000D03*
%TD*%
D48*
%TO.C,C152*%
X83487500Y-143000000D03*
X81762500Y-143000000D03*
%TD*%
D35*
%TO.C,U12*%
X80655000Y-111080000D03*
X80655000Y-109810000D03*
X80655000Y-108540000D03*
X80655000Y-107270000D03*
X85595000Y-107270000D03*
X85595000Y-108540000D03*
X85595000Y-109810000D03*
X85595000Y-111080000D03*
%TD*%
D25*
%TO.C,FB1*%
X73325000Y-133975000D03*
X75325000Y-133975000D03*
%TD*%
D42*
%TO.C,Q2*%
X89550000Y-131650000D03*
X89550000Y-133550000D03*
X87675000Y-132600000D03*
%TD*%
D34*
%TO.C,C13*%
X132375000Y-92700000D03*
X132375000Y-94250000D03*
%TD*%
D27*
%TO.C,Q3*%
X85000000Y-125275000D03*
X85000000Y-123375000D03*
X86875000Y-124325000D03*
%TD*%
D36*
%TO.C,C15*%
X139100000Y-115975000D03*
X139100000Y-114425000D03*
%TD*%
D19*
%TO.C,C55*%
X73200000Y-137650000D03*
X74925000Y-137650000D03*
%TD*%
D49*
%TO.C,U17*%
X154999000Y-79327500D03*
X154999000Y-80597500D03*
X154999000Y-81867500D03*
X154999000Y-83137500D03*
X147506000Y-83137500D03*
X147506000Y-81867500D03*
X147506000Y-80597500D03*
X147506000Y-79327500D03*
%TD*%
D23*
%TO.C,C29*%
X109200000Y-126600000D03*
X107650000Y-126600000D03*
%TD*%
D34*
%TO.C,C14*%
X139050000Y-104400000D03*
X139050000Y-105950000D03*
%TD*%
D50*
%TO.C,R19*%
X139237500Y-108625000D03*
X145162500Y-108625000D03*
%TD*%
D36*
%TO.C,C225*%
X131800000Y-128925000D03*
X131800000Y-127375000D03*
%TD*%
D51*
%TO.C,C28*%
X103750000Y-122725000D03*
X103750000Y-119775000D03*
%TD*%
D36*
%TO.C,C16*%
X130875000Y-94250000D03*
X130875000Y-92700000D03*
%TD*%
D28*
%TO.C,D2*%
X133825000Y-117700000D03*
X133825000Y-116300000D03*
%TD*%
D37*
%TO.C,C27*%
X128250000Y-122350000D03*
X129800000Y-122350000D03*
%TD*%
D16*
%TO.C,IC22*%
X130312500Y-139337000D03*
X130962500Y-139337000D03*
X131612500Y-139337000D03*
X132262500Y-139337000D03*
X132912500Y-139337000D03*
X133562500Y-139337000D03*
X134212500Y-139337000D03*
X134862500Y-139337000D03*
X134862500Y-145213000D03*
X134212500Y-145213000D03*
X133562500Y-145213000D03*
X132912500Y-145213000D03*
X132262500Y-145213000D03*
X131612500Y-145213000D03*
X130962500Y-145213000D03*
X130312500Y-145213000D03*
%TD*%
D52*
%TO.C,U20*%
X147250000Y-71375000D03*
X147250000Y-70875000D03*
X147250000Y-70375000D03*
X147250000Y-69875000D03*
X149150000Y-69875000D03*
X149150000Y-70375000D03*
X149150000Y-70875000D03*
X149150000Y-71375000D03*
D53*
X148200000Y-70625000D03*
%TD*%
D25*
%TO.C,R102*%
X81600000Y-146200000D03*
X83600000Y-146200000D03*
%TD*%
D54*
%TO.C,C74*%
X149300000Y-134437500D03*
X149300000Y-132362500D03*
%TD*%
D34*
%TO.C,C36*%
X87800000Y-96875000D03*
X87800000Y-98425000D03*
%TD*%
D55*
%TO.C,D11*%
X96525000Y-143100000D03*
X96525000Y-139100000D03*
%TD*%
D56*
%TO.C,C77*%
X79725000Y-81612500D03*
X79725000Y-79887500D03*
%TD*%
D42*
%TO.C,Q12*%
X146875000Y-133325000D03*
X146875000Y-135225000D03*
X145000000Y-134275000D03*
%TD*%
D21*
%TO.C,R99*%
X143250000Y-130900000D03*
X141250000Y-130900000D03*
%TD*%
D57*
%TO.C,R58*%
X104650000Y-117312500D03*
X104650000Y-115487500D03*
%TD*%
D58*
%TO.C,R72*%
X79725000Y-76362500D03*
X79725000Y-78187500D03*
%TD*%
D34*
%TO.C,C18*%
X139100000Y-111350000D03*
X139100000Y-112900000D03*
%TD*%
%TO.C,C224*%
X73350000Y-129075000D03*
X73350000Y-130625000D03*
%TD*%
D59*
%TO.C,R13*%
X103087500Y-96000000D03*
X104912500Y-96000000D03*
%TD*%
D36*
%TO.C,C41*%
X87750000Y-111425000D03*
X87750000Y-109875000D03*
%TD*%
D49*
%TO.C,U18*%
X154946500Y-73420000D03*
X154946500Y-74690000D03*
X154946500Y-75960000D03*
X154946500Y-77230000D03*
X147453500Y-77230000D03*
X147453500Y-75960000D03*
X147453500Y-74690000D03*
X147453500Y-73420000D03*
%TD*%
D23*
%TO.C,C25*%
X106200000Y-126575000D03*
X104650000Y-126575000D03*
%TD*%
D48*
%TO.C,C45*%
X77187500Y-115800000D03*
X75462500Y-115800000D03*
%TD*%
D30*
%TO.C,C1_RETRY2*%
X155750000Y-115142500D03*
X155750000Y-116867500D03*
%TD*%
D50*
%TO.C,R18*%
X139162500Y-98450000D03*
X145087500Y-98450000D03*
%TD*%
D49*
%TO.C,U19*%
X154999000Y-85502500D03*
X154999000Y-86772500D03*
X154999000Y-88042500D03*
X154999000Y-89312500D03*
X147506000Y-89312500D03*
X147506000Y-88042500D03*
X147506000Y-86772500D03*
X147506000Y-85502500D03*
%TD*%
D34*
%TO.C,C19*%
X139025000Y-101275000D03*
X139025000Y-102825000D03*
%TD*%
D21*
%TO.C,R1_ILIM1*%
X77475000Y-117550000D03*
X75475000Y-117550000D03*
%TD*%
D28*
%TO.C,D4*%
X90490000Y-96590000D03*
X90490000Y-95190000D03*
%TD*%
D34*
%TO.C,C223*%
X73400000Y-121675000D03*
X73400000Y-123225000D03*
%TD*%
D52*
%TO.C,U23*%
X75500000Y-78050000D03*
X75500000Y-77550000D03*
X75500000Y-77050000D03*
X75500000Y-76550000D03*
X77400000Y-76550000D03*
X77400000Y-77050000D03*
X77400000Y-77550000D03*
X77400000Y-78050000D03*
D53*
X76450000Y-77300000D03*
%TD*%
D21*
%TO.C,R1_FAULT1*%
X77500000Y-113975000D03*
X75500000Y-113975000D03*
%TD*%
D47*
%TO.C,U9*%
X118805000Y-133745000D03*
X117535000Y-133745000D03*
X116265000Y-133745000D03*
X114995000Y-133745000D03*
X114995000Y-128805000D03*
X116265000Y-128805000D03*
X117535000Y-128805000D03*
X118805000Y-128805000D03*
%TD*%
D37*
%TO.C,C8*%
X106969088Y-75567824D03*
X108519088Y-75567824D03*
%TD*%
D27*
%TO.C,Q4*%
X83662500Y-133662500D03*
X83662500Y-131762500D03*
X85537500Y-132712500D03*
%TD*%
D54*
%TO.C,C73*%
X91925000Y-133137500D03*
X91925000Y-131062500D03*
%TD*%
D20*
%TO.C,D14*%
X123770000Y-88560000D03*
X125170000Y-88560000D03*
%TD*%
D23*
%TO.C,C5*%
X101537500Y-90100000D03*
X99987500Y-90100000D03*
%TD*%
D21*
%TO.C,R81*%
X85150000Y-129225000D03*
X83150000Y-129225000D03*
%TD*%
%TO.C,R79*%
X85150000Y-127150000D03*
X83150000Y-127150000D03*
%TD*%
D60*
%TO.C,D15*%
X135270000Y-117112500D03*
X135270000Y-118512500D03*
%TD*%
D23*
%TO.C,C3*%
X122634088Y-75679000D03*
X121084088Y-75679000D03*
%TD*%
D41*
%TO.C,D3*%
X102300000Y-125500000D03*
X100900000Y-125500000D03*
%TD*%
D37*
%TO.C,C7*%
X117654088Y-75627824D03*
X119204088Y-75627824D03*
%TD*%
D44*
%TO.C,Y2*%
X133850000Y-126875000D03*
X133850000Y-129425000D03*
%TD*%
D61*
%TO.C,R69*%
X77537500Y-81750000D03*
X75712500Y-81750000D03*
%TD*%
D30*
%TO.C,C1_RETRY1*%
X73825000Y-113937500D03*
X73825000Y-115662500D03*
%TD*%
D62*
%TO.C,IC1*%
X119835000Y-102575000D03*
X118565000Y-102575000D03*
X117295000Y-102575000D03*
X116025000Y-102575000D03*
X114755000Y-102575000D03*
X113485000Y-102575000D03*
X112215000Y-102575000D03*
X110945000Y-102575000D03*
X109675000Y-102575000D03*
X108405000Y-102575000D03*
X108405000Y-89355000D03*
X109675000Y-89355000D03*
X110945000Y-89355000D03*
X112215000Y-89355000D03*
X113485000Y-89355000D03*
X114755000Y-89355000D03*
X116025000Y-89355000D03*
X117295000Y-89355000D03*
X118565000Y-89355000D03*
X119835000Y-89355000D03*
D63*
X114120000Y-95965000D03*
D64*
X120495000Y-95965000D03*
X107745000Y-95965000D03*
%TD*%
D21*
%TO.C,R105*%
X146500000Y-148850000D03*
X144500000Y-148850000D03*
%TD*%
D36*
%TO.C,C34*%
X96500000Y-120275000D03*
X96500000Y-118725000D03*
%TD*%
D37*
%TO.C,C4*%
X110269088Y-75592824D03*
X111819088Y-75592824D03*
%TD*%
D48*
%TO.C,C153*%
X146337500Y-145100000D03*
X144612500Y-145100000D03*
%TD*%
D65*
%TO.C,C6*%
X125000000Y-90125000D03*
X125000000Y-93075000D03*
%TD*%
D24*
%TO.C,R221*%
X150400000Y-144525000D03*
X150400000Y-146350000D03*
%TD*%
D23*
%TO.C,C30*%
X119275000Y-126575000D03*
X117725000Y-126575000D03*
%TD*%
D66*
%TO.C,IC2*%
X123710000Y-112155000D03*
X123710000Y-110885000D03*
X123710000Y-109615000D03*
X123710000Y-108345000D03*
X123710000Y-107075000D03*
X123710000Y-105805000D03*
X123710000Y-104535000D03*
X123710000Y-103265000D03*
X123710000Y-101995000D03*
X123710000Y-100725000D03*
X136930000Y-100725000D03*
X136930000Y-101995000D03*
X136930000Y-103265000D03*
X136930000Y-104535000D03*
X136930000Y-105805000D03*
X136930000Y-107075000D03*
X136930000Y-108345000D03*
X136930000Y-109615000D03*
X136930000Y-110885000D03*
X136930000Y-112155000D03*
D67*
X130320000Y-106440000D03*
D68*
X130320000Y-112815000D03*
X130320000Y-100065000D03*
%TD*%
D46*
%TO.C,R38*%
X111900000Y-127400000D03*
X111900000Y-133325000D03*
%TD*%
D30*
%TO.C,C84*%
X81675000Y-131812500D03*
X81675000Y-133537500D03*
%TD*%
D43*
%TO.C,U6*%
X146245000Y-101845000D03*
X146245000Y-103115000D03*
X146245000Y-104385000D03*
X146245000Y-105655000D03*
X141305000Y-105655000D03*
X141305000Y-104385000D03*
X141305000Y-103115000D03*
X141305000Y-101845000D03*
%TD*%
D61*
%TO.C,R68*%
X77500000Y-80000000D03*
X75675000Y-80000000D03*
%TD*%
D69*
X160400000Y-70325000D02*
X160400000Y-145125000D01*
X68725000Y-70350000D02*
X68725000Y-145150000D01*
M02*
