M48
; DRILL file {KiCad 9.0.4} date 2026-03-02T15:41:35-0700
; FORMAT={-:-/ absolute / metric / decimal}
; #@! TF.CreationDate,2026-03-02T15:41:35-07:00
; #@! TF.GenerationSoftware,Kicad,Pcbnew,9.0.4
; #@! TF.FileFunction,Plated,1,6,PTH
FMAT,2
METRIC
; #@! TA.AperFunction,Plated,PTH,ViaDrill
T1C0.300
; #@! TA.AperFunction,Plated,PTH,ComponentDrill
T2C0.300
; #@! TA.AperFunction,Plated,PTH,ViaDrill
T3C0.400
; #@! TA.AperFunction,Plated,PTH,ViaDrill
T4C0.500
; #@! TA.AperFunction,Plated,PTH,ComponentDrill
T5C0.800
; #@! TA.AperFunction,Plated,PTH,ComponentDrill
T6C1.000
; #@! TA.AperFunction,Plated,PTH,ComponentDrill
T7C1.040
%
G90
G05
T1
X67.725Y-69.35
X67.725Y-70.35
X67.725Y-71.35
X67.725Y-72.35
X67.725Y-73.35
X67.725Y-74.35
X67.725Y-75.35
X67.725Y-76.35
X67.725Y-77.35
X67.725Y-78.35
X67.725Y-79.35
X67.725Y-80.35
X67.725Y-81.35
X67.725Y-82.35
X67.725Y-83.35
X67.725Y-84.35
X67.725Y-85.35
X67.725Y-86.35
X67.725Y-87.35
X67.725Y-88.35
X67.725Y-89.35
X67.725Y-90.35
X67.725Y-91.35
X67.725Y-92.35
X67.725Y-93.35
X67.725Y-94.35
X67.725Y-95.35
X67.725Y-96.35
X67.725Y-97.35
X67.725Y-98.35
X67.725Y-99.35
X67.725Y-100.35
X67.725Y-101.35
X67.725Y-102.35
X67.725Y-103.35
X67.725Y-104.35
X67.725Y-105.35
X67.725Y-106.35
X67.725Y-107.35
X67.725Y-108.35
X67.725Y-109.35
X67.725Y-110.35
X67.725Y-111.35
X67.725Y-112.35
X67.725Y-113.35
X67.725Y-114.35
X67.725Y-115.35
X67.725Y-116.35
X67.725Y-117.35
X67.725Y-118.35
X67.725Y-119.35
X67.725Y-120.35
X67.725Y-121.35
X67.725Y-122.35
X67.725Y-123.35
X67.725Y-124.35
X67.725Y-125.35
X67.725Y-126.35
X67.725Y-127.35
X67.725Y-128.35
X67.725Y-129.35
X67.725Y-130.35
X67.725Y-131.35
X67.725Y-132.35
X67.725Y-133.35
X67.725Y-134.35
X67.725Y-135.35
X67.725Y-136.35
X67.725Y-137.35
X67.725Y-138.35
X67.725Y-139.35
X67.725Y-140.35
X67.725Y-141.35
X67.725Y-142.35
X67.725Y-143.35
X67.725Y-144.35
X67.725Y-145.35
X68.725Y-69.35
X68.725Y-70.35
X68.725Y-71.35
X68.725Y-72.35
X68.725Y-73.35
X68.725Y-74.35
X68.725Y-75.35
X68.725Y-76.35
X68.725Y-77.35
X68.725Y-78.35
X68.725Y-79.35
X68.725Y-80.35
X68.725Y-81.35
X68.725Y-82.35
X68.725Y-83.35
X68.725Y-84.35
X68.725Y-85.35
X68.725Y-86.35
X68.725Y-87.35
X68.725Y-88.35
X68.725Y-89.35
X68.725Y-90.35
X68.725Y-91.35
X68.725Y-92.35
X68.725Y-93.35
X68.725Y-94.35
X68.725Y-95.35
X68.725Y-96.35
X68.725Y-97.35
X68.725Y-98.35
X68.725Y-99.35
X68.725Y-100.35
X68.725Y-101.35
X68.725Y-102.35
X68.725Y-103.35
X68.725Y-104.35
X68.725Y-105.35
X68.725Y-106.35
X68.725Y-107.35
X68.725Y-108.35
X68.725Y-109.35
X68.725Y-110.35
X68.725Y-111.35
X68.725Y-112.35
X68.725Y-113.35
X68.725Y-114.35
X68.725Y-115.35
X68.725Y-116.35
X68.725Y-117.35
X68.725Y-118.35
X68.725Y-119.35
X68.725Y-120.35
X68.725Y-121.35
X68.725Y-122.35
X68.725Y-123.35
X68.725Y-124.35
X68.725Y-125.35
X68.725Y-126.35
X68.725Y-127.35
X68.725Y-128.35
X68.725Y-129.35
X68.725Y-130.35
X68.725Y-131.35
X68.725Y-132.35
X68.725Y-133.35
X68.725Y-134.35
X68.725Y-135.35
X68.725Y-136.35
X68.725Y-137.35
X68.725Y-138.35
X68.725Y-139.35
X68.725Y-140.35
X68.725Y-141.35
X68.725Y-142.35
X68.725Y-143.35
X68.725Y-144.35
X68.725Y-145.35
X69.725Y-69.35
X69.725Y-70.35
X69.725Y-71.35
X69.725Y-72.35
X69.725Y-73.35
X69.725Y-74.35
X69.725Y-75.35
X69.725Y-76.35
X69.725Y-77.35
X69.725Y-78.35
X69.725Y-79.35
X69.725Y-80.35
X69.725Y-81.35
X69.725Y-82.35
X69.725Y-83.35
X69.725Y-84.35
X69.725Y-85.35
X69.725Y-86.35
X69.725Y-87.35
X69.725Y-88.35
X69.725Y-89.35
X69.725Y-90.35
X69.725Y-91.35
X69.725Y-92.35
X69.725Y-93.35
X69.725Y-94.35
X69.725Y-95.35
X69.725Y-96.35
X69.725Y-97.35
X69.725Y-98.35
X69.725Y-99.35
X69.725Y-100.35
X69.725Y-101.35
X69.725Y-102.35
X69.725Y-103.35
X69.725Y-104.35
X69.725Y-105.35
X69.725Y-106.35
X69.725Y-107.35
X69.725Y-108.35
X69.725Y-109.35
X69.725Y-110.35
X69.725Y-111.35
X69.725Y-112.35
X69.725Y-113.35
X69.725Y-114.35
X69.725Y-115.35
X69.725Y-116.35
X69.725Y-117.35
X69.725Y-118.35
X69.725Y-119.35
X69.725Y-120.35
X69.725Y-121.35
X69.725Y-122.35
X69.725Y-123.35
X69.725Y-124.35
X69.725Y-125.35
X69.725Y-126.35
X69.725Y-127.35
X69.725Y-128.35
X69.725Y-129.35
X69.725Y-130.35
X69.725Y-131.35
X69.725Y-132.35
X69.725Y-133.35
X69.725Y-134.35
X69.725Y-135.35
X69.725Y-136.35
X69.725Y-137.35
X69.725Y-138.35
X69.725Y-139.35
X69.725Y-140.35
X69.725Y-141.35
X69.725Y-142.35
X69.725Y-143.35
X69.725Y-144.35
X69.725Y-145.35
X72.4Y-140.5
X72.699Y-110.2
X72.7Y-113.95
X73.0Y-120.1
X73.0Y-142.2
X73.05Y-86.05
X73.151Y-131.75
X73.5Y-139.0
X73.624Y-80.65
X73.624Y-82.8
X74.224Y-73.2
X74.5Y-132.15
X74.9Y-145.35
X75.62Y-100.72
X75.641Y-88.75
X75.8Y-122.8
X75.887Y-138.221
X75.908Y-130.958
X75.935Y-130.083
X76.157Y-129.106
X76.577Y-126.079
X76.7Y-123.4
X76.803Y-130.914
X76.849Y-131.809
X76.925Y-103.05
X77.072Y-125.45
X77.251Y-107.1
X77.326Y-123.925
X77.335Y-130.308
X77.4Y-98.3
X77.474Y-109.0
X77.5Y-110.85
X77.587Y-127.704
X77.75Y-132.425
X77.774Y-133.276
X77.785Y-108.263
X78.02Y-126.925
X78.5Y-135.4
X78.6Y-139.699
X79.0Y-99.51
X79.1Y-115.85
X79.138Y-145.262
X79.2Y-117.4
X79.2Y-121.1
X79.45Y-135.3
X79.95Y-143.8
X80.0Y-140.899
X80.15Y-145.1
X80.301Y-91.05
X80.374Y-119.2
X80.5Y-71.1
X80.6Y-129.305
X80.7Y-131.645
X80.825Y-69.075
X80.875Y-137.7
X80.9Y-81.4
X81.0Y-87.7
X81.201Y-119.201
X81.3Y-76.6
X81.317Y-138.957
X81.4Y-73.8
X81.4Y-84.9
X81.45Y-90.35
X81.45Y-129.8
X81.6Y-79.1
X81.828Y-123.231
X82.375Y-138.701
X82.826Y-118.841
X83.1Y-134.6
X83.2Y-97.1
X83.481Y-126.001
X83.65Y-138.95
X83.654Y-118.771
X83.7Y-100.779
X83.8Y-96.4
X83.95Y-134.65
X84.0Y-104.509
X84.05Y-108.0
X84.35Y-139.65
X84.6Y-145.25
X84.7Y-122.3
X84.875Y-119.265
X85.033Y-140.25
X85.1Y-93.45
X85.503Y-118.282
X85.6Y-122.15
X85.65Y-105.45
X85.834Y-131.819
X85.9Y-115.4
X85.9Y-117.1
X85.9Y-144.125
X86.15Y-142.05
X86.254Y-130.556
X86.376Y-119.199
X86.4Y-126.5
X87.087Y-118.833
X87.176Y-128.201
X87.5Y-122.1
X87.621Y-138.22
X87.81Y-131.529
X87.983Y-133.4
X88.0Y-86.6
X88.05Y-127.0
X88.139Y-95.65
X88.271Y-122.312
X88.316Y-119.113
X88.5Y-87.6
X88.5Y-89.6
X88.5Y-93.4
X88.647Y-139.203
X88.705Y-126.541
X89.066Y-118.834
X89.213Y-139.769
X89.55Y-127.001
X89.702Y-130.649
X89.879Y-125.7
X89.9Y-119.1
X89.997Y-129.45
X90.1Y-124.9
X90.37Y-134.432
X90.794Y-125.298
X91.05Y-132.035
X91.099Y-141.9
X91.117Y-127.367
X91.25Y-145.75
X91.45Y-99.55
X91.6Y-129.65
X92.001Y-116.201
X92.002Y-134.399
X92.076Y-118.56
X92.18Y-113.1
X92.183Y-128.873
X92.45Y-96.949
X92.526Y-103.848
X92.65Y-147.4
X92.74Y-129.546
X92.934Y-134.1
X92.95Y-127.4
X93.0Y-118.56
X93.023Y-138.376
X93.1Y-102.0
X93.174Y-128.874
X93.189Y-117.25
X93.2Y-130.2
X93.2Y-131.3
X93.25Y-109.2
X93.342Y-111.71
X93.56Y-115.499
X93.6Y-93.8
X93.6Y-143.05
X93.624Y-138.976
X93.65Y-99.4
X93.65Y-144.4
X93.9Y-106.7
X93.9Y-118.499
X93.99Y-139.7
X94.047Y-104.552
X94.05Y-119.7
X94.224Y-135.698
X94.288Y-137.701
X94.464Y-138.902
X94.675Y-119.05
X94.925Y-139.573
X94.95Y-115.9
X95.112Y-135.777
X95.15Y-120.3
X95.452Y-136.501
X95.459Y-100.75
X95.5Y-83.9
X95.725Y-147.05
X96.1Y-131.4
X96.1Y-132.3
X96.244Y-128.291
X96.25Y-129.599
X96.357Y-126.84
X96.7Y-90.3
X96.7Y-91.3
X96.715Y-130.8
X96.9Y-82.9
X97.0Y-86.85
X97.0Y-87.9
X97.106Y-140.87
X97.15Y-128.4
X97.25Y-129.4
X97.599Y-92.149
X97.903Y-141.8
X97.926Y-147.402
X98.161Y-129.66
X98.2Y-131.4
X98.294Y-135.845
X98.349Y-115.5
X98.7Y-124.15
X98.862Y-132.2
X99.143Y-115.597
X99.3Y-87.6
X99.3Y-123.45
X99.3Y-135.9
X99.45Y-136.899
X99.53Y-117.33
X99.6Y-127.3
X99.76Y-130.626
X99.85Y-96.9
X100.144Y-122.458
X100.2Y-141.2
X100.463Y-123.927
X100.518Y-131.133
X100.7Y-135.15
X100.702Y-147.45
X100.744Y-136.201
X101.05Y-123.327
X101.29Y-126.359
X101.31Y-122.31
X101.45Y-119.53
X101.5Y-135.551
X101.634Y-132.266
X102.034Y-94.566
X102.184Y-120.836
X102.3Y-141.1
X102.5Y-109.2
X102.55Y-112.55
X102.7Y-91.575
X103.018Y-120.851
X103.042Y-141.4
X103.05Y-135.3
X103.2Y-72.05
X103.25Y-131.55
X103.4Y-126.575
X103.948Y-131.124
X104.05Y-136.199
X104.1Y-141.3
X104.2Y-91.0
X104.894Y-141.4
X104.9Y-74.2
X105.35Y-147.55
X105.44Y-118.9
X105.55Y-82.775
X105.681Y-141.541
X105.72Y-123.29
X105.8Y-131.951
X105.973Y-142.286
X106.066Y-122.54
X106.087Y-140.852
X106.25Y-136.2
X106.323Y-148.275
X106.35Y-102.85
X106.426Y-113.726
X106.488Y-108.3
X106.488Y-109.25
X106.65Y-93.614
X106.675Y-99.7
X107.0Y-114.831
X107.0Y-125.3
X107.0Y-132.236
X107.525Y-91.025
X107.6Y-88.5
X107.777Y-147.675
X108.025Y-137.0
X108.285Y-142.2
X108.418Y-141.411
X108.45Y-98.25
X108.597Y-70.479
X108.629Y-136.475
X108.812Y-147.012
X109.1Y-104.1
X109.363Y-136.793
X109.652Y-122.303
X109.762Y-131.718
X109.8Y-109.2
X109.816Y-141.076
X109.867Y-70.843
X109.95Y-136.25
X110.037Y-91.988
X110.232Y-125.662
X110.5Y-112.55
X110.5Y-132.2
X110.625Y-137.124
X110.876Y-91.85
X110.926Y-148.274
X111.1Y-141.95
X111.2Y-71.2
X111.205Y-112.929
X111.312Y-146.963
X111.553Y-136.25
X111.67Y-121.63
X111.7Y-126.0
X111.712Y-131.66
X112.026Y-141.874
X112.112Y-146.962
X112.15Y-104.2
X112.2Y-109.2
X112.598Y-122.401
X113.033Y-147.845
X113.2Y-71.7
X113.2Y-126.0
X113.3Y-142.3
X113.396Y-86.854
X113.4Y-131.661
X113.799Y-104.9
X113.8Y-137.0
X113.849Y-146.962
X113.919Y-83.8
X114.366Y-136.434
X114.43Y-121.6
X114.6Y-105.5
X114.651Y-147.0
X114.7Y-100.679
X114.7Y-147.874
X114.774Y-81.85
X114.816Y-141.3
X114.9Y-73.0
X114.9Y-104.15
X115.025Y-137.124
X115.4Y-132.066
X115.5Y-91.699
X115.55Y-122.15
X115.606Y-112.876
X115.7Y-136.5
X115.7Y-141.3
X115.75Y-147.901
X116.0Y-109.2
X116.125Y-131.325
X116.247Y-132.253
X116.325Y-137.124
X116.35Y-147.234
X116.624Y-104.076
X116.8Y-91.6
X116.9Y-136.5
X116.9Y-141.644
X117.0Y-147.7
X117.05Y-86.35
X117.198Y-122.399
X117.3Y-112.803
X117.35Y-105.65
X117.55Y-100.75
X117.576Y-141.176
X117.601Y-131.489
X117.7Y-147.2
X117.825Y-99.5
X118.15Y-107.65
X118.2Y-132.3
X118.45Y-122.127
X118.6Y-91.1
X118.8Y-143.6
X118.899Y-147.714
X119.1Y-141.3
X119.175Y-108.324
X120.0Y-141.3
X120.02Y-136.477
X120.052Y-115.3
X120.1Y-147.3
X120.193Y-100.743
X120.504Y-93.396
X120.65Y-102.25
X120.666Y-146.734
X120.7Y-106.25
X120.7Y-137.124
X120.8Y-88.6
X120.849Y-141.3
X120.995Y-112.155
X121.0Y-113.15
X121.2Y-110.65
X121.25Y-104.925
X121.25Y-107.65
X121.3Y-136.5
X121.3Y-147.3
X121.35Y-132.213
X121.364Y-131.214
X121.384Y-121.85
X121.562Y-108.642
X121.697Y-141.3
X121.725Y-86.875
X121.925Y-92.699
X121.95Y-137.124
X122.0Y-146.8
X122.1Y-108.05
X122.1Y-110.8
X122.15Y-104.8
X122.3Y-90.3
X122.364Y-142.914
X122.5Y-136.5
X122.535Y-141.3
X122.615Y-147.312
X122.85Y-123.9
X122.863Y-88.277
X122.95Y-125.95
X123.0Y-73.6
X123.003Y-122.495
X123.023Y-82.337
X123.123Y-84.691
X123.3Y-146.8
X123.5Y-137.5
X123.524Y-99.326
X123.603Y-113.15
X123.85Y-135.75
X123.892Y-98.421
X124.55Y-113.15
X124.65Y-125.25
X124.7Y-141.3
X124.777Y-132.284
X124.8Y-143.8
X124.865Y-99.835
X124.9Y-96.6
X125.049Y-131.349
X125.086Y-142.364
X125.25Y-137.124
X125.6Y-141.3
X125.75Y-136.499
X125.9Y-147.3
X126.14Y-88.07
X126.25Y-124.05
X126.287Y-143.25
X126.45Y-132.3
X126.487Y-137.124
X126.5Y-98.85
X126.549Y-123.24
X126.6Y-107.725
X126.6Y-122.3
X126.6Y-146.7
X126.65Y-141.3
X126.7Y-131.5
X126.8Y-81.9
X126.8Y-82.7
X126.902Y-112.718
X127.075Y-100.8
X127.2Y-147.3
X127.245Y-136.409
X127.499Y-141.3
X127.75Y-125.502
X127.75Y-132.299
X127.787Y-137.124
X127.8Y-146.6
X127.974Y-131.499
X128.05Y-147.65
X128.2Y-112.718
X128.319Y-141.3
X128.39Y-142.828
X128.446Y-136.669
X128.65Y-128.0
X128.85Y-129.101
X128.851Y-125.401
X129.05Y-132.2
X129.088Y-146.585
X129.4Y-95.8
X129.43Y-115.62
X129.45Y-135.55
X129.8Y-131.6
X130.868Y-146.584
X130.95Y-141.05
X131.0Y-142.5
X131.2Y-123.5
X131.45Y-133.05
X131.562Y-138.0
X132.3Y-147.2
X132.549Y-123.4
X132.7Y-112.718
X132.92Y-113.53
X133.0Y-146.6
X133.25Y-95.55
X133.25Y-137.1
X133.35Y-94.5
X133.6Y-137.9
X133.9Y-92.6
X134.2Y-147.0
X134.202Y-125.398
X134.343Y-124.121
X134.358Y-123.259
X134.75Y-105.225
X134.75Y-113.6
X134.9Y-96.55
X134.9Y-146.5
X135.05Y-131.15
X135.068Y-122.891
X135.2Y-130.35
X135.25Y-104.6
X135.3Y-108.3
X135.3Y-109.1
X135.333Y-115.749
X135.345Y-103.265
X135.345Y-107.1
X135.345Y-110.9
X135.35Y-112.85
X135.5Y-133.0
X135.55Y-73.1
X135.55Y-127.027
X135.55Y-129.453
X135.55Y-131.775
X135.6Y-135.901
X135.8Y-122.3
X135.825Y-91.049
X135.949Y-137.506
X135.95Y-139.75
X136.221Y-115.72
X136.299Y-113.95
X136.45Y-141.2
X136.45Y-142.95
X136.6Y-138.9
X136.65Y-122.301
X137.023Y-136.175
X137.39Y-94.56
X137.602Y-137.551
X137.676Y-117.098
X137.775Y-82.699
X137.775Y-88.199
X137.825Y-120.725
X137.9Y-99.8
X138.15Y-126.357
X138.254Y-130.521
X138.375Y-90.398
X138.549Y-82.495
X138.87Y-142.177
X139.023Y-130.742
X139.237Y-108.625
X139.832Y-130.572
X139.848Y-119.847
X139.9Y-117.3
X140.1Y-94.9
X140.101Y-93.036
X140.335Y-129.95
X140.4Y-126.951
X140.456Y-108.995
X140.575Y-87.299
X140.576Y-120.28
X140.863Y-77.882
X141.125Y-139.859
X141.15Y-146.45
X141.204Y-138.658
X141.3Y-140.9
X141.3Y-145.34
X141.367Y-120.406
X141.8Y-125.5
X141.863Y-82.038
X141.9Y-123.3
X141.95Y-135.075
X142.3Y-147.9
X142.347Y-133.224
X142.541Y-123.779
X142.8Y-135.15
X142.904Y-116.446
X143.15Y-138.55
X143.172Y-123.287
X143.18Y-113.5
X143.25Y-97.8
X143.25Y-105.1
X143.26Y-83.056
X143.35Y-95.85
X143.4Y-119.9
X143.4Y-141.3
X143.46Y-129.5
X143.599Y-85.4
X143.6Y-84.4
X143.6Y-86.3
X143.6Y-133.249
X143.7Y-72.8
X143.8Y-71.9
X143.8Y-90.05
X143.848Y-78.1
X143.851Y-79.4
X143.89Y-82.562
X143.9Y-92.4
X144.102Y-135.2
X144.2Y-120.15
X144.35Y-123.7
X144.358Y-138.45
X144.45Y-139.4
X144.65Y-105.2
X144.968Y-129.437
X145.05Y-120.15
X145.3Y-133.2
X145.424Y-123.081
X145.5Y-140.05
X145.623Y-138.689
X145.637Y-135.074
X145.65Y-68.5
X145.75Y-125.9
X145.813Y-119.911
X146.2Y-98.6
X146.4Y-71.4
X146.425Y-138.659
X146.429Y-93.244
X146.449Y-91.287
X146.75Y-66.799
X146.8Y-117.3
X146.85Y-78.275
X147.144Y-134.125
X147.25Y-129.9
X147.375Y-72.125
X147.415Y-119.911
X147.433Y-127.633
X147.6Y-142.35
X147.648Y-78.338
X147.7Y-141.45
X147.7Y-145.4
X147.85Y-117.409
X147.875Y-92.425
X147.9Y-68.401
X147.95Y-66.799
X148.05Y-135.75
X148.1Y-99.0
X148.125Y-139.1
X148.194Y-129.402
X148.25Y-126.08
X148.397Y-72.097
X148.4Y-144.749
X148.479Y-119.911
X148.551Y-86.051
X148.701Y-84.7
X148.75Y-90.05
X148.85Y-139.5
X148.9Y-91.65
X148.901Y-128.999
X148.979Y-107.706
X148.99Y-127.775
X149.0Y-145.45
X149.05Y-148.4
X149.25Y-89.15
X149.3Y-73.401
X149.3Y-119.911
X149.326Y-138.8
X149.45Y-90.7
X149.5Y-135.8
X149.598Y-80.289
X149.65Y-92.4
X149.9Y-70.803
X149.9Y-72.75
X150.151Y-119.911
X150.3Y-133.4
X150.439Y-123.072
X150.465Y-126.8
X150.55Y-131.3
X150.7Y-130.1
X150.8Y-115.4
X150.824Y-109.299
X150.85Y-132.1
X150.9Y-75.201
X151.0Y-117.2
X151.099Y-137.749
X151.101Y-117.994
X151.2Y-87.8
X151.325Y-101.725
X151.5Y-120.325
X151.706Y-141.596
X151.75Y-109.9
X151.75Y-111.3
X151.82Y-113.0
X152.3Y-141.05
X152.35Y-86.337
X152.45Y-85.087
X152.476Y-83.55
X152.549Y-80.6
X152.59Y-70.341
X152.674Y-81.875
X152.717Y-72.733
X152.718Y-77.8
X152.718Y-84.334
X152.8Y-120.15
X153.15Y-86.25
X153.5Y-127.698
X153.5Y-131.475
X153.517Y-88.767
X153.75Y-133.35
X153.834Y-126.275
X153.85Y-135.4
X154.05Y-130.7
X154.065Y-128.264
X154.085Y-132.624
X154.373Y-136.005
X154.4Y-125.4
X154.4Y-126.9
X154.561Y-84.35
X154.65Y-142.2
X154.9Y-78.275
X154.95Y-135.45
X155.136Y-134.413
X155.361Y-84.324
X155.45Y-139.7
X155.95Y-136.3
X156.475Y-76.675
X156.602Y-120.78
X156.85Y-126.775
X157.374Y-73.426
X159.4Y-69.325
X159.4Y-70.325
X159.4Y-71.325
X159.4Y-72.325
X159.4Y-73.325
X159.4Y-74.325
X159.4Y-75.325
X159.4Y-76.325
X159.4Y-77.325
X159.4Y-78.325
X159.4Y-79.325
X159.4Y-80.325
X159.4Y-81.325
X159.4Y-82.325
X159.4Y-83.325
X159.4Y-84.325
X159.4Y-85.325
X159.4Y-86.325
X159.4Y-87.325
X159.4Y-88.325
X159.4Y-89.325
X159.4Y-90.325
X159.4Y-91.325
X159.4Y-92.325
X159.4Y-93.325
X159.4Y-94.325
X159.4Y-95.325
X159.4Y-96.325
X159.4Y-97.325
X159.4Y-98.325
X159.4Y-99.325
X159.4Y-100.325
X159.4Y-101.325
X159.4Y-102.325
X159.4Y-103.325
X159.4Y-104.325
X159.4Y-105.325
X159.4Y-106.325
X159.4Y-107.325
X159.4Y-108.325
X159.4Y-109.325
X159.4Y-110.325
X159.4Y-111.325
X159.4Y-112.325
X159.4Y-113.325
X159.4Y-114.325
X159.4Y-115.325
X159.4Y-116.325
X159.4Y-117.325
X159.4Y-118.325
X159.4Y-119.325
X159.4Y-120.325
X159.4Y-121.325
X159.4Y-122.325
X159.4Y-123.325
X159.4Y-124.325
X159.4Y-125.325
X159.4Y-126.325
X159.4Y-127.325
X159.4Y-128.325
X159.4Y-129.325
X159.4Y-130.325
X159.4Y-131.325
X159.4Y-132.325
X159.4Y-133.325
X159.4Y-134.325
X159.4Y-135.325
X159.4Y-136.325
X159.4Y-137.325
X159.4Y-138.325
X159.4Y-139.325
X159.4Y-140.325
X159.4Y-141.325
X159.4Y-142.325
X159.4Y-143.325
X159.4Y-144.325
X159.4Y-145.325
X160.4Y-69.325
X160.4Y-70.325
X160.4Y-71.325
X160.4Y-72.325
X160.4Y-73.325
X160.4Y-74.325
X160.4Y-75.325
X160.4Y-76.325
X160.4Y-77.325
X160.4Y-78.325
X160.4Y-79.325
X160.4Y-80.325
X160.4Y-81.325
X160.4Y-82.325
X160.4Y-83.325
X160.4Y-84.325
X160.4Y-85.325
X160.4Y-86.325
X160.4Y-87.325
X160.4Y-88.325
X160.4Y-89.325
X160.4Y-90.325
X160.4Y-91.325
X160.4Y-92.325
X160.4Y-93.325
X160.4Y-94.325
X160.4Y-95.325
X160.4Y-96.325
X160.4Y-97.325
X160.4Y-98.325
X160.4Y-99.325
X160.4Y-100.325
X160.4Y-101.325
X160.4Y-102.325
X160.4Y-103.325
X160.4Y-104.325
X160.4Y-105.325
X160.4Y-106.325
X160.4Y-107.325
X160.4Y-108.325
X160.4Y-109.325
X160.4Y-110.325
X160.4Y-111.325
X160.4Y-112.325
X160.4Y-113.325
X160.4Y-114.325
X160.4Y-115.325
X160.4Y-116.325
X160.4Y-117.325
X160.4Y-118.325
X160.4Y-119.325
X160.4Y-120.325
X160.4Y-121.325
X160.4Y-122.325
X160.4Y-123.325
X160.4Y-124.325
X160.4Y-125.325
X160.4Y-126.325
X160.4Y-127.325
X160.4Y-128.325
X160.4Y-129.325
X160.4Y-130.325
X160.4Y-131.325
X160.4Y-132.325
X160.4Y-133.325
X160.4Y-134.325
X160.4Y-135.325
X160.4Y-136.325
X160.4Y-137.325
X160.4Y-138.325
X160.4Y-139.325
X160.4Y-140.325
X160.4Y-141.325
X160.4Y-142.325
X160.4Y-143.325
X160.4Y-144.325
X160.4Y-145.325
X161.4Y-69.325
X161.4Y-70.325
X161.4Y-71.325
X161.4Y-72.325
X161.4Y-73.325
X161.4Y-74.325
X161.4Y-75.325
X161.4Y-76.325
X161.4Y-77.325
X161.4Y-78.325
X161.4Y-79.325
X161.4Y-80.325
X161.4Y-81.325
X161.4Y-82.325
X161.4Y-83.325
X161.4Y-84.325
X161.4Y-85.325
X161.4Y-86.325
X161.4Y-87.325
X161.4Y-88.325
X161.4Y-89.325
X161.4Y-90.325
X161.4Y-91.325
X161.4Y-92.325
X161.4Y-93.325
X161.4Y-94.325
X161.4Y-95.325
X161.4Y-96.325
X161.4Y-97.325
X161.4Y-98.325
X161.4Y-99.325
X161.4Y-100.325
X161.4Y-101.325
X161.4Y-102.325
X161.4Y-103.325
X161.4Y-104.325
X161.4Y-105.325
X161.4Y-106.325
X161.4Y-107.325
X161.4Y-108.325
X161.4Y-109.325
X161.4Y-110.325
X161.4Y-111.325
X161.4Y-112.325
X161.4Y-113.325
X161.4Y-114.325
X161.4Y-115.325
X161.4Y-116.325
X161.4Y-117.325
X161.4Y-118.325
X161.4Y-119.325
X161.4Y-120.325
X161.4Y-121.325
X161.4Y-122.325
X161.4Y-123.325
X161.4Y-124.325
X161.4Y-125.325
X161.4Y-126.325
X161.4Y-127.325
X161.4Y-128.325
X161.4Y-129.325
X161.4Y-130.325
X161.4Y-131.325
X161.4Y-132.325
X161.4Y-133.325
X161.4Y-134.325
X161.4Y-135.325
X161.4Y-136.325
X161.4Y-137.325
X161.4Y-138.325
X161.4Y-139.325
X161.4Y-140.325
X161.4Y-141.325
X161.4Y-142.325
X161.4Y-143.325
X161.4Y-144.325
X161.4Y-145.325
T2
X82.9Y-75.35
X82.9Y-76.45
X82.95Y-69.95
X82.95Y-71.05
X82.95Y-86.4
X82.95Y-87.5
X83.2Y-80.35
X83.2Y-81.45
X83.95Y-75.35
X83.95Y-76.45
X84.0Y-69.95
X84.0Y-71.05
X84.0Y-86.4
X84.0Y-87.5
X84.25Y-80.35
X84.25Y-81.45
X85.0Y-75.35
X85.0Y-76.45
X85.05Y-69.95
X85.05Y-71.05
X85.05Y-86.4
X85.05Y-87.5
X85.3Y-80.35
X85.3Y-81.45
X87.8Y-144.775
X88.75Y-144.2
X88.75Y-145.35
X89.7Y-144.775
X138.15Y-144.525
X139.1Y-143.95
X139.1Y-145.1
X140.05Y-144.525
T3
X78.2Y-104.85
X82.3Y-92.0
X85.25Y-89.0
X86.05Y-82.7
X86.5Y-76.25
X86.75Y-70.75
X92.95Y-110.9
X95.8Y-112.17
X102.425Y-104.925
X102.6Y-106.6
X102.625Y-107.775
X108.3Y-93.1
X108.875Y-91.05
X109.039Y-112.468
X109.325Y-107.5
X110.836Y-122.127
X111.593Y-100.443
X113.485Y-91.375
X113.5Y-109.2
X113.524Y-122.127
X114.7Y-109.2
X121.075Y-115.275
X121.925Y-106.85
X121.95Y-105.8
X126.6Y-105.775
X128.2Y-100.25
X135.25Y-106.125
X137.4Y-73.5
T4
X135.36Y-95.028
T5
X87.41Y-148.65
X89.95Y-148.65
X138.075Y-148.375
X140.615Y-148.375
T6
X73.625Y-91.17
X73.625Y-93.71
X73.625Y-96.25
X73.625Y-98.79
X73.625Y-101.33
X73.65Y-104.925
X73.65Y-107.465
X154.6Y-92.255
X154.6Y-94.795
X154.6Y-97.335
X154.6Y-99.875
X154.6Y-102.415
X154.625Y-105.96
X154.625Y-108.5
T7
X90.37Y-77.89
X90.37Y-80.43
X92.91Y-77.89
X92.91Y-80.43
X95.45Y-77.89
X95.45Y-80.43
X97.99Y-77.89
X97.99Y-80.43
X100.53Y-77.89
X100.53Y-80.43
X103.07Y-77.89
X103.07Y-80.43
X105.61Y-77.89
X105.61Y-80.43
X108.15Y-77.89
X108.15Y-80.43
X110.69Y-77.89
X110.69Y-80.43
X113.23Y-77.89
X113.23Y-80.43
X115.77Y-77.89
X115.77Y-80.43
X118.31Y-77.89
X118.31Y-80.43
X120.85Y-77.89
X120.85Y-80.43
X123.39Y-77.89
X123.39Y-80.43
X125.93Y-77.89
X125.93Y-80.43
X128.47Y-77.89
X128.47Y-80.43
X131.01Y-77.89
X131.01Y-80.43
X133.55Y-77.89
X133.55Y-80.43
X136.09Y-77.89
X136.09Y-80.43
X138.63Y-77.89
X138.63Y-80.43
M30
