%TF.GenerationSoftware,KiCad,Pcbnew,9.0.7*%
%TF.CreationDate,2026-02-23T15:03:22-07:00*%
%TF.ProjectId,Solar_Conglomerator,536f6c61-725f-4436-9f6e-676c6f6d6572,v0.1*%
%TF.SameCoordinates,Original*%
%TF.FileFunction,Paste,Top*%
%TF.FilePolarity,Positive*%
%FSLAX46Y46*%
G04 Gerber Fmt 4.6, Leading zero omitted, Abs format (unit mm)*
G04 Created by KiCad (PCBNEW 9.0.7) date 2026-02-23 15:03:22*
%MOMM*%
%LPD*%
G01*
G04 APERTURE LIST*
G04 Aperture macros list*
%AMRoundRect*
0 Rectangle with rounded corners*
0 $1 Rounding radius*
0 $2 $3 $4 $5 $6 $7 $8 $9 X,Y pos of 4 corners*
0 Add a 4 corners polygon primitive as box body*
4,1,4,$2,$3,$4,$5,$6,$7,$8,$9,$2,$3,0*
0 Add four circle primitives for the rounded corners*
1,1,$1+$1,$2,$3*
1,1,$1+$1,$4,$5*
1,1,$1+$1,$6,$7*
1,1,$1+$1,$8,$9*
0 Add four rect primitives between the rounded corners*
20,1,$1+$1,$2,$3,$4,$5,0*
20,1,$1+$1,$4,$5,$6,$7,0*
20,1,$1+$1,$6,$7,$8,$9,0*
20,1,$1+$1,$8,$9,$2,$3,0*%
G04 Aperture macros list end*
%ADD10C,0.000000*%
%ADD11R,1.397200X0.457400*%
%ADD12R,1.399000X0.374000*%
%ADD13RoundRect,0.131000X0.568500X0.131000X-0.568500X0.131000X-0.568500X-0.131000X0.568500X-0.131000X0*%
%ADD14RoundRect,0.056000X-0.681000X-0.056000X0.681000X-0.056000X0.681000X0.056000X-0.681000X0.056000X0*%
%ADD15RoundRect,0.056000X-0.056000X-0.681000X0.056000X-0.681000X0.056000X0.681000X-0.056000X0.681000X0*%
%ADD16RoundRect,0.234166X-0.427834X0.327834X-0.427834X-0.327834X0.427834X-0.327834X0.427834X0.327834X0*%
%ADD17R,0.524000X0.274000*%
%ADD18R,1.024000X1.624000*%
%ADD19RoundRect,0.131000X0.131000X-0.806000X0.131000X0.806000X-0.131000X0.806000X-0.131000X-0.806000X0*%
%ADD20R,0.178000X0.736800*%
%ADD21RoundRect,0.234166X-0.327834X-0.427834X0.327834X-0.427834X0.327834X0.427834X-0.327834X0.427834X0*%
%ADD22RoundRect,0.090000X-0.139000X-0.090000X0.139000X-0.090000X0.139000X0.090000X-0.139000X0.090000X0*%
%ADD23RoundRect,0.234166X0.327834X0.427834X-0.327834X0.427834X-0.327834X-0.427834X0.327834X-0.427834X0*%
%ADD24RoundRect,0.131000X-0.568500X-0.131000X0.568500X-0.131000X0.568500X0.131000X-0.568500X0.131000X0*%
%ADD25RoundRect,0.090000X0.139000X0.090000X-0.139000X0.090000X-0.139000X-0.090000X0.139000X-0.090000X0*%
%ADD26RoundRect,0.218500X-0.231000X-0.218500X0.231000X-0.218500X0.231000X0.218500X-0.231000X0.218500X0*%
%ADD27RoundRect,0.218500X-0.281000X-0.218500X0.281000X-0.218500X0.281000X0.218500X-0.281000X0.218500X0*%
%ADD28RoundRect,0.239444X0.622556X-0.972556X0.622556X0.972556X-0.622556X0.972556X-0.622556X-0.972556X0*%
%ADD29RoundRect,0.218500X0.281000X0.218500X-0.281000X0.218500X-0.281000X-0.218500X0.281000X-0.218500X0*%
%ADD30RoundRect,0.239444X-0.972556X-0.622556X0.972556X-0.622556X0.972556X0.622556X-0.972556X0.622556X0*%
%ADD31RoundRect,0.239444X0.972556X0.622556X-0.972556X0.622556X-0.972556X-0.622556X0.972556X-0.622556X0*%
%ADD32RoundRect,0.131000X-0.131000X0.568500X-0.131000X-0.568500X0.131000X-0.568500X0.131000X0.568500X0*%
%ADD33RoundRect,0.218500X-0.218500X0.281000X-0.218500X-0.281000X0.218500X-0.281000X0.218500X0.281000X0*%
%ADD34R,0.924000X1.024000*%
%ADD35R,1.924000X0.624000*%
%ADD36RoundRect,0.218500X0.218500X-0.281000X0.218500X0.281000X-0.218500X0.281000X-0.218500X-0.281000X0*%
G04 APERTURE END LIST*
D10*
%TO.C,U14*%
G36*
X112534600Y-122871878D02*
G01*
X112393179Y-123013299D01*
X112290430Y-123013299D01*
X112290430Y-122756429D01*
X112534600Y-122756429D01*
X112534600Y-122871878D01*
G37*
G36*
X112534600Y-124142120D02*
G01*
X112534600Y-124257569D01*
X112290430Y-124257569D01*
X112290430Y-124000699D01*
X112393179Y-124000699D01*
X112534600Y-124142120D01*
G37*
G36*
X114553570Y-123013299D02*
G01*
X114450821Y-123013299D01*
X114309400Y-122871878D01*
X114309400Y-122756429D01*
X114553570Y-122756429D01*
X114553570Y-123013299D01*
G37*
G36*
X114553570Y-124257569D02*
G01*
X114309400Y-124257569D01*
X114309400Y-124142120D01*
X114450821Y-124000699D01*
X114553570Y-124000699D01*
X114553570Y-124257569D01*
G37*
G36*
X112534600Y-123354720D02*
G01*
X112534600Y-123659278D01*
X112393179Y-123800699D01*
X112290430Y-123800699D01*
X112290430Y-123213299D01*
X112393179Y-123213299D01*
X112534600Y-123354720D01*
G37*
G36*
X113322000Y-122871878D02*
G01*
X113180579Y-123013299D01*
X112876021Y-123013299D01*
X112734600Y-122871878D01*
X112734600Y-122756429D01*
X113322000Y-122756429D01*
X113322000Y-122871878D01*
G37*
G36*
X113322000Y-124142120D02*
G01*
X113322000Y-124257569D01*
X112734600Y-124257569D01*
X112734600Y-124142120D01*
X112876021Y-124000699D01*
X113180579Y-124000699D01*
X113322000Y-124142120D01*
G37*
G36*
X114109400Y-122871878D02*
G01*
X113967979Y-123013299D01*
X113663421Y-123013299D01*
X113522000Y-122871878D01*
X113522000Y-122756429D01*
X114109400Y-122756429D01*
X114109400Y-122871878D01*
G37*
G36*
X114109400Y-124142120D02*
G01*
X114109400Y-124257569D01*
X113522000Y-124257569D01*
X113522000Y-124142120D01*
X113663421Y-124000699D01*
X113967979Y-124000699D01*
X114109400Y-124142120D01*
G37*
G36*
X114553570Y-123800699D02*
G01*
X114450821Y-123800699D01*
X114309400Y-123659278D01*
X114309400Y-123354720D01*
X114450821Y-123213299D01*
X114553570Y-123213299D01*
X114553570Y-123800699D01*
G37*
G36*
X113322000Y-123354720D02*
G01*
X113322000Y-123659278D01*
X113180579Y-123800699D01*
X112876021Y-123800699D01*
X112734600Y-123659278D01*
X112734600Y-123354720D01*
X112876021Y-123213299D01*
X113180579Y-123213299D01*
X113322000Y-123354720D01*
G37*
G36*
X114109400Y-123354720D02*
G01*
X114109400Y-123659278D01*
X113967979Y-123800699D01*
X113663421Y-123800699D01*
X113522000Y-123659278D01*
X113522000Y-123354720D01*
X113663421Y-123213299D01*
X113967979Y-123213299D01*
X114109400Y-123354720D01*
G37*
%TO.C,U15*%
G36*
X154444600Y-128070879D02*
G01*
X154303179Y-128212300D01*
X154200430Y-128212300D01*
X154200430Y-127955430D01*
X154444600Y-127955430D01*
X154444600Y-128070879D01*
G37*
G36*
X154444600Y-129341121D02*
G01*
X154444600Y-129456570D01*
X154200430Y-129456570D01*
X154200430Y-129199700D01*
X154303179Y-129199700D01*
X154444600Y-129341121D01*
G37*
G36*
X156463570Y-128212300D02*
G01*
X156360821Y-128212300D01*
X156219400Y-128070879D01*
X156219400Y-127955430D01*
X156463570Y-127955430D01*
X156463570Y-128212300D01*
G37*
G36*
X156463570Y-129456570D02*
G01*
X156219400Y-129456570D01*
X156219400Y-129341121D01*
X156360821Y-129199700D01*
X156463570Y-129199700D01*
X156463570Y-129456570D01*
G37*
G36*
X154444600Y-128553721D02*
G01*
X154444600Y-128858279D01*
X154303179Y-128999700D01*
X154200430Y-128999700D01*
X154200430Y-128412300D01*
X154303179Y-128412300D01*
X154444600Y-128553721D01*
G37*
G36*
X155232000Y-128070879D02*
G01*
X155090579Y-128212300D01*
X154786021Y-128212300D01*
X154644600Y-128070879D01*
X154644600Y-127955430D01*
X155232000Y-127955430D01*
X155232000Y-128070879D01*
G37*
G36*
X155232000Y-129341121D02*
G01*
X155232000Y-129456570D01*
X154644600Y-129456570D01*
X154644600Y-129341121D01*
X154786021Y-129199700D01*
X155090579Y-129199700D01*
X155232000Y-129341121D01*
G37*
G36*
X156019400Y-128070879D02*
G01*
X155877979Y-128212300D01*
X155573421Y-128212300D01*
X155432000Y-128070879D01*
X155432000Y-127955430D01*
X156019400Y-127955430D01*
X156019400Y-128070879D01*
G37*
G36*
X156019400Y-129341121D02*
G01*
X156019400Y-129456570D01*
X155432000Y-129456570D01*
X155432000Y-129341121D01*
X155573421Y-129199700D01*
X155877979Y-129199700D01*
X156019400Y-129341121D01*
G37*
G36*
X156463570Y-128999700D02*
G01*
X156360821Y-128999700D01*
X156219400Y-128858279D01*
X156219400Y-128553721D01*
X156360821Y-128412300D01*
X156463570Y-128412300D01*
X156463570Y-128999700D01*
G37*
G36*
X155232000Y-128553721D02*
G01*
X155232000Y-128858279D01*
X155090579Y-128999700D01*
X154786021Y-128999700D01*
X154644600Y-128858279D01*
X154644600Y-128553721D01*
X154786021Y-128412300D01*
X155090579Y-128412300D01*
X155232000Y-128553721D01*
G37*
G36*
X156019400Y-128553721D02*
G01*
X156019400Y-128858279D01*
X155877979Y-128999700D01*
X155573421Y-128999700D01*
X155432000Y-128858279D01*
X155432000Y-128553721D01*
X155573421Y-128412300D01*
X155877979Y-128412300D01*
X156019400Y-128553721D01*
G37*
%TD*%
D11*
%TO.C,U7*%
X158463500Y-103392500D03*
X158463500Y-104662500D03*
X158463500Y-105932500D03*
X158463500Y-107202500D03*
X165956500Y-107202500D03*
X165956500Y-105932500D03*
X165956500Y-104662500D03*
X165956500Y-103392500D03*
%TD*%
D12*
%TO.C,IC9*%
X146978000Y-109487500D03*
X146978000Y-108837500D03*
X146978000Y-108187500D03*
X146978000Y-107537500D03*
X146978000Y-106887500D03*
X146978000Y-106237500D03*
X146978000Y-105587500D03*
X146978000Y-104937500D03*
X141102000Y-104937500D03*
X141102000Y-105587500D03*
X141102000Y-106237500D03*
X141102000Y-106887500D03*
X141102000Y-107537500D03*
X141102000Y-108187500D03*
X141102000Y-108837500D03*
X141102000Y-109487500D03*
%TD*%
D13*
%TO.C,Q53*%
X147665000Y-137160000D03*
X147665000Y-135260000D03*
X145790000Y-136210000D03*
%TD*%
D14*
%TO.C,U4*%
X169010000Y-127650000D03*
X169010000Y-128150000D03*
X169010000Y-128650000D03*
X169010000Y-129150000D03*
X169010000Y-129650000D03*
X169010000Y-130150000D03*
X169010000Y-130650000D03*
X169010000Y-131150000D03*
X169010000Y-131650000D03*
X169010000Y-132150000D03*
X169010000Y-132650000D03*
X169010000Y-133150000D03*
X169010000Y-133650000D03*
X169010000Y-134150000D03*
X169010000Y-134650000D03*
X169010000Y-135150000D03*
D15*
X170935000Y-137075000D03*
X171435000Y-137075000D03*
X171935000Y-137075000D03*
X172435000Y-137075000D03*
X172935000Y-137075000D03*
X173435000Y-137075000D03*
X173935000Y-137075000D03*
X174435000Y-137075000D03*
X174935000Y-137075000D03*
X175435000Y-137075000D03*
X175935000Y-137075000D03*
X176435000Y-137075000D03*
X176935000Y-137075000D03*
X177435000Y-137075000D03*
X177935000Y-137075000D03*
X178435000Y-137075000D03*
D14*
X180360000Y-135150000D03*
X180360000Y-134650000D03*
X180360000Y-134150000D03*
X180360000Y-133650000D03*
X180360000Y-133150000D03*
X180360000Y-132650000D03*
X180360000Y-132150000D03*
X180360000Y-131650000D03*
X180360000Y-131150000D03*
X180360000Y-130650000D03*
X180360000Y-130150000D03*
X180360000Y-129650000D03*
X180360000Y-129150000D03*
X180360000Y-128650000D03*
X180360000Y-128150000D03*
X180360000Y-127650000D03*
D15*
X178435000Y-125725000D03*
X177935000Y-125725000D03*
X177435000Y-125725000D03*
X176935000Y-125725000D03*
X176435000Y-125725000D03*
X175935000Y-125725000D03*
X175435000Y-125725000D03*
X174935000Y-125725000D03*
X174435000Y-125725000D03*
X173935000Y-125725000D03*
X173435000Y-125725000D03*
X172935000Y-125725000D03*
X172435000Y-125725000D03*
X171935000Y-125725000D03*
X171435000Y-125725000D03*
X170935000Y-125725000D03*
%TD*%
D16*
%TO.C,R2_ILIM1*%
X181265000Y-69610000D03*
X181265000Y-71610000D03*
%TD*%
D17*
%TO.C,IC4*%
X179515000Y-72160000D03*
X179515000Y-71510000D03*
X179515000Y-70860000D03*
X177415000Y-70860000D03*
X177415000Y-71510000D03*
X177415000Y-72160000D03*
D18*
X178465000Y-71510000D03*
%TD*%
D13*
%TO.C,Q12*%
X123928750Y-118400000D03*
X123928750Y-116500000D03*
X122053750Y-117450000D03*
%TD*%
D19*
%TO.C,U2*%
X183415029Y-82875000D03*
X184685029Y-82875000D03*
X185955029Y-82875000D03*
X187225029Y-82875000D03*
X187225029Y-77925000D03*
X185955029Y-77925000D03*
X184685029Y-77925000D03*
X183415029Y-77925000D03*
%TD*%
D17*
%TO.C,IC5*%
X179665029Y-81050000D03*
X179665029Y-80400000D03*
X179665029Y-79750000D03*
X177565029Y-79750000D03*
X177565029Y-80400000D03*
X177565029Y-81050000D03*
D18*
X178615029Y-80400000D03*
%TD*%
D20*
%TO.C,U14*%
X114422001Y-122059199D03*
X113921999Y-122059199D03*
X113422000Y-122059199D03*
X112922001Y-122059199D03*
X112421999Y-122059199D03*
X112421999Y-124954799D03*
X112922001Y-124954799D03*
X113422000Y-124954799D03*
X113921999Y-124954799D03*
X114422001Y-124954799D03*
%TD*%
D21*
%TO.C,R32*%
X108612001Y-119874799D03*
X110612001Y-119874799D03*
%TD*%
D22*
%TO.C,D3*%
X127270000Y-127650000D03*
X128135000Y-127650000D03*
%TD*%
D13*
%TO.C,Q17*%
X163297500Y-118100000D03*
X163297500Y-116200000D03*
X161422500Y-117150000D03*
%TD*%
D23*
%TO.C,R17*%
X137420000Y-95860000D03*
X135420000Y-95860000D03*
%TD*%
D24*
%TO.C,Q15*%
X129991250Y-116500000D03*
X129991250Y-118400000D03*
X131866250Y-117450000D03*
%TD*%
D25*
%TO.C,D4*%
X182785000Y-130050000D03*
X181920000Y-130050000D03*
%TD*%
D23*
%TO.C,R8*%
X132440000Y-141220000D03*
X130440000Y-141220000D03*
%TD*%
D24*
%TO.C,Q11*%
X126152500Y-122170000D03*
X126152500Y-124070000D03*
X128027500Y-123120000D03*
%TD*%
D12*
%TO.C,IC50*%
X118712000Y-104555000D03*
X118712000Y-105205000D03*
X118712000Y-105855000D03*
X118712000Y-106505000D03*
X118712000Y-107155000D03*
X118712000Y-107805000D03*
X118712000Y-108455000D03*
X118712000Y-109105000D03*
X124588000Y-109105000D03*
X124588000Y-108455000D03*
X124588000Y-107805000D03*
X124588000Y-107155000D03*
X124588000Y-106505000D03*
X124588000Y-105855000D03*
X124588000Y-105205000D03*
X124588000Y-104555000D03*
%TD*%
D26*
%TO.C,R11*%
X177285000Y-110650000D03*
X179110000Y-110650000D03*
%TD*%
D16*
%TO.C,R29*%
X113914001Y-126748799D03*
X113914001Y-128748799D03*
%TD*%
D21*
%TO.C,R7*%
X174610000Y-141150000D03*
X176610000Y-141150000D03*
%TD*%
D16*
%TO.C,R4_FAULT1*%
X175860000Y-78400000D03*
X175860000Y-80400000D03*
%TD*%
%TO.C,R30*%
X155840000Y-132008000D03*
X155840000Y-134008000D03*
%TD*%
D21*
%TO.C,R33*%
X150538000Y-125150000D03*
X152538000Y-125150000D03*
%TD*%
D24*
%TO.C,Q51*%
X123032500Y-83370000D03*
X123032500Y-85270000D03*
X124907500Y-84320000D03*
%TD*%
D21*
%TO.C,R56*%
X125991250Y-116200000D03*
X127991250Y-116200000D03*
%TD*%
D27*
%TO.C,C24*%
X177652500Y-73610000D03*
X179377500Y-73610000D03*
%TD*%
D28*
%TO.C,D8*%
X130920000Y-93110000D03*
X130920000Y-89110000D03*
%TD*%
D24*
%TO.C,Q16*%
X165560000Y-121750000D03*
X165560000Y-123650000D03*
X167435000Y-122700000D03*
%TD*%
D25*
%TO.C,D5*%
X183292500Y-127250000D03*
X182427500Y-127250000D03*
%TD*%
D28*
%TO.C,D7*%
X127420000Y-93110000D03*
X127420000Y-89110000D03*
%TD*%
D27*
%TO.C,C46*%
X156401000Y-125658000D03*
X158126000Y-125658000D03*
%TD*%
D29*
%TO.C,C44*%
X116300501Y-120382799D03*
X114575501Y-120382799D03*
%TD*%
D24*
%TO.C,Q52*%
X178192500Y-89190000D03*
X178192500Y-91090000D03*
X180067500Y-90140000D03*
%TD*%
%TO.C,Q20*%
X169222500Y-116200000D03*
X169222500Y-118100000D03*
X171097500Y-117150000D03*
%TD*%
D26*
%TO.C,R10*%
X177277500Y-109120000D03*
X179102500Y-109120000D03*
%TD*%
D14*
%TO.C,U3*%
X130010000Y-127650000D03*
X130010000Y-128150000D03*
X130010000Y-128650000D03*
X130010000Y-129150000D03*
X130010000Y-129650000D03*
X130010000Y-130150000D03*
X130010000Y-130650000D03*
X130010000Y-131150000D03*
X130010000Y-131650000D03*
X130010000Y-132150000D03*
X130010000Y-132650000D03*
X130010000Y-133150000D03*
X130010000Y-133650000D03*
X130010000Y-134150000D03*
X130010000Y-134650000D03*
X130010000Y-135150000D03*
D15*
X131935000Y-137075000D03*
X132435000Y-137075000D03*
X132935000Y-137075000D03*
X133435000Y-137075000D03*
X133935000Y-137075000D03*
X134435000Y-137075000D03*
X134935000Y-137075000D03*
X135435000Y-137075000D03*
X135935000Y-137075000D03*
X136435000Y-137075000D03*
X136935000Y-137075000D03*
X137435000Y-137075000D03*
X137935000Y-137075000D03*
X138435000Y-137075000D03*
X138935000Y-137075000D03*
X139435000Y-137075000D03*
D14*
X141360000Y-135150000D03*
X141360000Y-134650000D03*
X141360000Y-134150000D03*
X141360000Y-133650000D03*
X141360000Y-133150000D03*
X141360000Y-132650000D03*
X141360000Y-132150000D03*
X141360000Y-131650000D03*
X141360000Y-131150000D03*
X141360000Y-130650000D03*
X141360000Y-130150000D03*
X141360000Y-129650000D03*
X141360000Y-129150000D03*
X141360000Y-128650000D03*
X141360000Y-128150000D03*
X141360000Y-127650000D03*
D15*
X139435000Y-125725000D03*
X138935000Y-125725000D03*
X138435000Y-125725000D03*
X137935000Y-125725000D03*
X137435000Y-125725000D03*
X136935000Y-125725000D03*
X136435000Y-125725000D03*
X135935000Y-125725000D03*
X135435000Y-125725000D03*
X134935000Y-125725000D03*
X134435000Y-125725000D03*
X133935000Y-125725000D03*
X133435000Y-125725000D03*
X132935000Y-125725000D03*
X132435000Y-125725000D03*
X131935000Y-125725000D03*
%TD*%
D23*
%TO.C,R57*%
X167360000Y-119950000D03*
X165360000Y-119950000D03*
%TD*%
D30*
%TO.C,D52*%
X177052500Y-86640000D03*
X181052500Y-86640000D03*
%TD*%
D20*
%TO.C,U15*%
X156332001Y-127258200D03*
X155831999Y-127258200D03*
X155332000Y-127258200D03*
X154832001Y-127258200D03*
X154331999Y-127258200D03*
X154331999Y-130153800D03*
X154832001Y-130153800D03*
X155332000Y-130153800D03*
X155831999Y-130153800D03*
X156332001Y-130153800D03*
%TD*%
D23*
%TO.C,R58*%
X167360000Y-117950000D03*
X165360000Y-117950000D03*
%TD*%
D27*
%TO.C,C31*%
X131695000Y-95860000D03*
X133420000Y-95860000D03*
%TD*%
D29*
%TO.C,C4_RETRY1*%
X179540029Y-78150000D03*
X177815029Y-78150000D03*
%TD*%
D27*
%TO.C,C26*%
X177327500Y-112170000D03*
X179052500Y-112170000D03*
%TD*%
D19*
%TO.C,U1*%
X183378750Y-73220000D03*
X184648750Y-73220000D03*
X185918750Y-73220000D03*
X187188750Y-73220000D03*
X187188750Y-68270000D03*
X185918750Y-68270000D03*
X184648750Y-68270000D03*
X183378750Y-68270000D03*
%TD*%
D27*
%TO.C,C58*%
X165297500Y-114150000D03*
X167022500Y-114150000D03*
%TD*%
%TO.C,C25*%
X177840029Y-82650000D03*
X179565029Y-82650000D03*
%TD*%
D11*
%TO.C,U6*%
X158463500Y-97237500D03*
X158463500Y-98507500D03*
X158463500Y-99777500D03*
X158463500Y-101047500D03*
X165956500Y-101047500D03*
X165956500Y-99777500D03*
X165956500Y-98507500D03*
X165956500Y-97237500D03*
%TD*%
D30*
%TO.C,D51*%
X127440000Y-84060000D03*
X131440000Y-84060000D03*
%TD*%
D31*
%TO.C,D50*%
X109640000Y-83260000D03*
X105640000Y-83260000D03*
%TD*%
D12*
%TO.C,IC11*%
X146978000Y-98012500D03*
X146978000Y-97362500D03*
X146978000Y-96712500D03*
X146978000Y-96062500D03*
X146978000Y-95412500D03*
X146978000Y-94762500D03*
X146978000Y-94112500D03*
X146978000Y-93462500D03*
X141102000Y-93462500D03*
X141102000Y-94112500D03*
X141102000Y-94762500D03*
X141102000Y-95412500D03*
X141102000Y-96062500D03*
X141102000Y-96712500D03*
X141102000Y-97362500D03*
X141102000Y-98012500D03*
%TD*%
D23*
%TO.C,R50*%
X127991250Y-120200000D03*
X125991250Y-120200000D03*
%TD*%
D16*
%TO.C,R2_FAULT1*%
X175765000Y-69610000D03*
X175765000Y-71610000D03*
%TD*%
%TO.C,R4_ILIM1*%
X181315029Y-78150000D03*
X181315029Y-80150000D03*
%TD*%
D29*
%TO.C,C30*%
X129270000Y-95610000D03*
X127545000Y-95610000D03*
%TD*%
D32*
%TO.C,Q2*%
X152472000Y-127514500D03*
X150572000Y-127514500D03*
X151522000Y-129389500D03*
%TD*%
D30*
%TO.C,D53*%
X134860000Y-141930000D03*
X138860000Y-141930000D03*
%TD*%
D32*
%TO.C,Q1*%
X110546001Y-122239299D03*
X108646001Y-122239299D03*
X109596001Y-124114299D03*
%TD*%
D29*
%TO.C,C2_RETRY1*%
X179377500Y-69360000D03*
X177652500Y-69360000D03*
%TD*%
D16*
%TO.C,R28*%
X111882001Y-126748799D03*
X111882001Y-128748799D03*
%TD*%
D28*
%TO.C,D9*%
X134420000Y-93110000D03*
X134420000Y-89110000D03*
%TD*%
D27*
%TO.C,C56*%
X126016250Y-114450000D03*
X127741250Y-114450000D03*
%TD*%
D33*
%TO.C,C45*%
X158126000Y-128505000D03*
X158126000Y-130230000D03*
%TD*%
D13*
%TO.C,Q50*%
X113457500Y-87810000D03*
X113457500Y-85910000D03*
X111582500Y-86860000D03*
%TD*%
D25*
%TO.C,D2*%
X143060000Y-126350000D03*
X142195000Y-126350000D03*
%TD*%
D12*
%TO.C,IC10*%
X146978000Y-103737500D03*
X146978000Y-103087500D03*
X146978000Y-102437500D03*
X146978000Y-101787500D03*
X146978000Y-101137500D03*
X146978000Y-100487500D03*
X146978000Y-99837500D03*
X146978000Y-99187500D03*
X141102000Y-99187500D03*
X141102000Y-99837500D03*
X141102000Y-100487500D03*
X141102000Y-101137500D03*
X141102000Y-101787500D03*
X141102000Y-102437500D03*
X141102000Y-103087500D03*
X141102000Y-103737500D03*
%TD*%
D34*
%TO.C,SW2*%
X176160000Y-144454000D03*
X180760000Y-144454000D03*
X176160000Y-146054000D03*
X180760000Y-146054000D03*
D35*
X178460000Y-143730000D03*
%TD*%
D22*
%TO.C,D6*%
X166245000Y-127650000D03*
X167110000Y-127650000D03*
%TD*%
D23*
%TO.C,R9*%
X172860000Y-141150000D03*
X170860000Y-141150000D03*
%TD*%
%TO.C,R51*%
X127991250Y-118200000D03*
X125991250Y-118200000D03*
%TD*%
D21*
%TO.C,R63*%
X165360000Y-115950000D03*
X167360000Y-115950000D03*
%TD*%
D16*
%TO.C,R31*%
X153808000Y-132024000D03*
X153808000Y-134024000D03*
%TD*%
D25*
%TO.C,D1*%
X143785000Y-130150000D03*
X142920000Y-130150000D03*
%TD*%
D11*
%TO.C,U5*%
X158467000Y-91148100D03*
X158467000Y-92418100D03*
X158467000Y-93688100D03*
X158467000Y-94958100D03*
X165960000Y-94958100D03*
X165960000Y-93688100D03*
X165960000Y-92418100D03*
X165960000Y-91148100D03*
%TD*%
D12*
%TO.C,IC12*%
X146978000Y-92237500D03*
X146978000Y-91587500D03*
X146978000Y-90937500D03*
X146978000Y-90287500D03*
X146978000Y-89637500D03*
X146978000Y-88987500D03*
X146978000Y-88337500D03*
X146978000Y-87687500D03*
X141102000Y-87687500D03*
X141102000Y-88337500D03*
X141102000Y-88987500D03*
X141102000Y-89637500D03*
X141102000Y-90287500D03*
X141102000Y-90937500D03*
X141102000Y-91587500D03*
X141102000Y-92237500D03*
%TD*%
D34*
%TO.C,SW1*%
X112886000Y-144454000D03*
X117486000Y-144454000D03*
X112886000Y-146054000D03*
X117486000Y-146054000D03*
D35*
X115186000Y-143730000D03*
%TD*%
D36*
%TO.C,C43*%
X116200001Y-124853199D03*
X116200001Y-123128199D03*
%TD*%
M02*
