%TF.GenerationSoftware,KiCad,Pcbnew,9.0.7*%
%TF.CreationDate,2026-02-23T15:03:23-07:00*%
%TF.ProjectId,Solar_Conglomerator,536f6c61-725f-4436-9f6e-676c6f6d6572,v0.1*%
%TF.SameCoordinates,Original*%
%TF.FileFunction,Soldermask,Bot*%
%TF.FilePolarity,Negative*%
%FSLAX46Y46*%
G04 Gerber Fmt 4.6, Leading zero omitted, Abs format (unit mm)*
G04 Created by KiCad (PCBNEW 9.0.7) date 2026-02-23 15:03:23*
%MOMM*%
%LPD*%
G01*
G04 APERTURE LIST*
G04 Aperture macros list*
%AMRoundRect*
0 Rectangle with rounded corners*
0 $1 Rounding radius*
0 $2 $3 $4 $5 $6 $7 $8 $9 X,Y pos of 4 corners*
0 Add a 4 corners polygon primitive as box body*
4,1,4,$2,$3,$4,$5,$6,$7,$8,$9,$2,$3,0*
0 Add four circle primitives for the rounded corners*
1,1,$1+$1,$2,$3*
1,1,$1+$1,$4,$5*
1,1,$1+$1,$6,$7*
1,1,$1+$1,$8,$9*
0 Add four rect primitives between the rounded corners*
20,1,$1+$1,$2,$3,$4,$5,0*
20,1,$1+$1,$4,$5,$6,$7,0*
20,1,$1+$1,$6,$7,$8,$9,0*
20,1,$1+$1,$8,$9,$2,$3,0*%
G04 Aperture macros list end*
%ADD10C,1.400000*%
%ADD11R,1.700000X1.700000*%
%ADD12C,1.700000*%
%ADD13RoundRect,0.102000X0.695000X0.695000X-0.695000X0.695000X-0.695000X-0.695000X0.695000X-0.695000X0*%
%ADD14C,1.594000*%
%ADD15RoundRect,0.250000X0.350000X0.450000X-0.350000X0.450000X-0.350000X-0.450000X0.350000X-0.450000X0*%
%ADD16RoundRect,0.237500X0.237500X-0.250000X0.237500X0.250000X-0.237500X0.250000X-0.237500X-0.250000X0*%
%ADD17RoundRect,0.062500X0.187500X0.062500X-0.187500X0.062500X-0.187500X-0.062500X0.187500X-0.062500X0*%
%ADD18R,0.900000X1.600000*%
%ADD19RoundRect,0.250000X0.337500X0.475000X-0.337500X0.475000X-0.337500X-0.475000X0.337500X-0.475000X0*%
%ADD20RoundRect,0.150000X-0.587500X-0.150000X0.587500X-0.150000X0.587500X0.150000X-0.587500X0.150000X0*%
%ADD21RoundRect,0.250000X-0.350000X-0.450000X0.350000X-0.450000X0.350000X0.450000X-0.350000X0.450000X0*%
%ADD22RoundRect,0.237500X-0.300000X-0.237500X0.300000X-0.237500X0.300000X0.237500X-0.300000X0.237500X0*%
%ADD23RoundRect,0.237500X0.237500X-0.300000X0.237500X0.300000X-0.237500X0.300000X-0.237500X-0.300000X0*%
%ADD24RoundRect,0.250000X0.450000X-0.350000X0.450000X0.350000X-0.450000X0.350000X-0.450000X-0.350000X0*%
%ADD25RoundRect,0.237500X0.300000X0.237500X-0.300000X0.237500X-0.300000X-0.237500X0.300000X-0.237500X0*%
%ADD26R,0.550000X0.400000*%
%ADD27RoundRect,0.250000X-0.450000X0.350000X-0.450000X-0.350000X0.450000X-0.350000X0.450000X0.350000X0*%
%ADD28R,0.350000X0.600000*%
%ADD29R,1.700000X1.100000*%
%ADD30R,0.600000X0.350000*%
%ADD31R,1.100000X1.700000*%
%ADD32RoundRect,0.250000X-0.475000X0.337500X-0.475000X-0.337500X0.475000X-0.337500X0.475000X0.337500X0*%
%ADD33RoundRect,0.237500X-0.237500X0.300000X-0.237500X-0.300000X0.237500X-0.300000X0.237500X0.300000X0*%
%ADD34R,1.422400X1.651000*%
%ADD35RoundRect,0.150000X0.587500X0.150000X-0.587500X0.150000X-0.587500X-0.150000X0.587500X-0.150000X0*%
%ADD36C,0.600000*%
%ADD37C,0.250000*%
%ADD38C,4.000000*%
G04 APERTURE END LIST*
D10*
%TO.C,JP2*%
X151522000Y-131774000D03*
X151522000Y-134314000D03*
%TD*%
D11*
%TO.C,J53*%
X142170000Y-142390000D03*
D12*
X142170000Y-139850000D03*
X144710000Y-142390000D03*
X144710000Y-139850000D03*
X147250000Y-142390000D03*
X147250000Y-139850000D03*
X149790000Y-142390000D03*
X149790000Y-139850000D03*
X152330000Y-142390000D03*
X152330000Y-139850000D03*
X154870000Y-142390000D03*
X154870000Y-139850000D03*
X157410000Y-142390000D03*
X157410000Y-139850000D03*
X159950000Y-142390000D03*
X159950000Y-139850000D03*
X162490000Y-142390000D03*
X162490000Y-139850000D03*
X165030000Y-142390000D03*
X165030000Y-139850000D03*
%TD*%
D11*
%TO.C,J50*%
X105670000Y-86850000D03*
D12*
X108210000Y-86850000D03*
X105670000Y-89390000D03*
X108210000Y-89390000D03*
X105670000Y-91930000D03*
X108210000Y-91930000D03*
X105670000Y-94470000D03*
X108210000Y-94470000D03*
X105670000Y-97010000D03*
X108210000Y-97010000D03*
X105670000Y-99550000D03*
X108210000Y-99550000D03*
X105670000Y-102090000D03*
X108210000Y-102090000D03*
X105670000Y-104630000D03*
X108210000Y-104630000D03*
X105670000Y-107170000D03*
X108210000Y-107170000D03*
X105670000Y-109710000D03*
X108210000Y-109710000D03*
%TD*%
D10*
%TO.C,JP1*%
X120415000Y-123605000D03*
X120415000Y-121065000D03*
%TD*%
D11*
%TO.C,J2*%
X143560000Y-113870000D03*
D12*
X143560000Y-116410000D03*
X143560000Y-118950000D03*
X143560000Y-121490000D03*
X143560000Y-124030000D03*
%TD*%
D11*
%TO.C,J51*%
X134800000Y-84200000D03*
D12*
X134800000Y-81660000D03*
X137340000Y-84200000D03*
X137340000Y-81660000D03*
X139880000Y-84200000D03*
X139880000Y-81660000D03*
X142420000Y-84200000D03*
X142420000Y-81660000D03*
X144960000Y-84200000D03*
X144960000Y-81660000D03*
X147500000Y-84200000D03*
X147500000Y-81660000D03*
X150040000Y-84200000D03*
X150040000Y-81660000D03*
X152580000Y-84200000D03*
X152580000Y-81660000D03*
X155120000Y-84200000D03*
X155120000Y-81660000D03*
X157660000Y-84200000D03*
X157660000Y-81660000D03*
%TD*%
D11*
%TO.C,J3*%
X182160000Y-114730000D03*
D12*
X182160000Y-117270000D03*
X182160000Y-119810000D03*
X182160000Y-122350000D03*
X182160000Y-124890000D03*
%TD*%
D11*
%TO.C,J5*%
X170820000Y-145650000D03*
D12*
X173360000Y-145650000D03*
%TD*%
D11*
%TO.C,J52*%
X184380000Y-86850000D03*
D12*
X186920000Y-86850000D03*
X184380000Y-89390000D03*
X186920000Y-89390000D03*
X184380000Y-91930000D03*
X186920000Y-91930000D03*
X184380000Y-94470000D03*
X186920000Y-94470000D03*
X184380000Y-97010000D03*
X186920000Y-97010000D03*
X184380000Y-99550000D03*
X186920000Y-99550000D03*
X184380000Y-102090000D03*
X186920000Y-102090000D03*
X184380000Y-104630000D03*
X186920000Y-104630000D03*
X184380000Y-107170000D03*
X186920000Y-107170000D03*
X184380000Y-109710000D03*
X186920000Y-109710000D03*
%TD*%
D11*
%TO.C,J4*%
X123587000Y-145550000D03*
D12*
X121047000Y-145550000D03*
%TD*%
D13*
%TO.C,J1*%
X122729500Y-75840000D03*
D14*
X122729500Y-78380000D03*
X125269500Y-75840000D03*
X125269500Y-78380000D03*
X127809500Y-75840000D03*
X127809500Y-78380000D03*
X130349500Y-75840000D03*
X130349500Y-78380000D03*
X132889500Y-75840000D03*
X132889500Y-78380000D03*
X135429500Y-75840000D03*
X135429500Y-78380000D03*
X137969500Y-75840000D03*
X137969500Y-78380000D03*
X140509500Y-75840000D03*
X140509500Y-78380000D03*
X143049500Y-75840000D03*
X143049500Y-78380000D03*
X145589500Y-75840000D03*
X145589500Y-78380000D03*
X148129500Y-75840000D03*
X148129500Y-78380000D03*
X150669500Y-75840000D03*
X150669500Y-78380000D03*
X153209500Y-75840000D03*
X153209500Y-78380000D03*
X155749500Y-75840000D03*
X155749500Y-78380000D03*
X158289500Y-75840000D03*
X158289500Y-78380000D03*
X160829500Y-75840000D03*
X160829500Y-78380000D03*
X163369500Y-75840000D03*
X163369500Y-78380000D03*
X165909500Y-75840000D03*
X165909500Y-78380000D03*
X168449500Y-75840000D03*
X168449500Y-78380000D03*
X170989500Y-75840000D03*
X170989500Y-78380000D03*
%TD*%
D15*
%TO.C,R3_FAULT1*%
X177610000Y-116150000D03*
X175610000Y-116150000D03*
%TD*%
D16*
%TO.C,R16*%
X159710000Y-106142500D03*
X159710000Y-104317500D03*
%TD*%
D17*
%TO.C,U10*%
X136635000Y-130650000D03*
X136635000Y-131150000D03*
X136635000Y-131650000D03*
X136635000Y-132150000D03*
X134735000Y-132150000D03*
X134735000Y-131650000D03*
X134735000Y-131150000D03*
X134735000Y-130650000D03*
D18*
X135685000Y-131400000D03*
%TD*%
D19*
%TO.C,C20*%
X137397500Y-135900000D03*
X135322500Y-135900000D03*
%TD*%
D20*
%TO.C,Q18*%
X165622500Y-123700000D03*
X165622500Y-121800000D03*
X167497500Y-122750000D03*
%TD*%
D19*
%TO.C,C8*%
X137397500Y-133900000D03*
X135322500Y-133900000D03*
%TD*%
D21*
%TO.C,R53*%
X125991250Y-116200000D03*
X127991250Y-116200000D03*
%TD*%
%TO.C,R3*%
X127860000Y-132150000D03*
X129860000Y-132150000D03*
%TD*%
D16*
%TO.C,R13*%
X133110000Y-131562500D03*
X133110000Y-129737500D03*
%TD*%
D22*
%TO.C,C27*%
X151797500Y-90242500D03*
X153522500Y-90242500D03*
%TD*%
D23*
%TO.C,C4*%
X131610000Y-131512500D03*
X131610000Y-129787500D03*
%TD*%
D15*
%TO.C,R61*%
X163560000Y-121750000D03*
X161560000Y-121750000D03*
%TD*%
D17*
%TO.C,U9*%
X175660000Y-130650000D03*
X175660000Y-131150000D03*
X175660000Y-131650000D03*
X175660000Y-132150000D03*
X173760000Y-132150000D03*
X173760000Y-131650000D03*
X173760000Y-131150000D03*
X173760000Y-130650000D03*
D18*
X174710000Y-131400000D03*
%TD*%
D24*
%TO.C,R5_ILIM1*%
X155522500Y-93742500D03*
X155522500Y-91742500D03*
%TD*%
D25*
%TO.C,C7_RETRY2*%
X153497500Y-107342500D03*
X151772500Y-107342500D03*
%TD*%
D22*
%TO.C,C15*%
X164897500Y-126350000D03*
X166622500Y-126350000D03*
%TD*%
%TO.C,C14*%
X172247500Y-127650000D03*
X173972500Y-127650000D03*
%TD*%
D21*
%TO.C,R55*%
X125991250Y-118200000D03*
X127991250Y-118200000D03*
%TD*%
D17*
%TO.C,U13*%
X163160000Y-104547500D03*
X163160000Y-105047500D03*
X163160000Y-105547500D03*
X163160000Y-106047500D03*
X161260000Y-106047500D03*
X161260000Y-105547500D03*
X161260000Y-105047500D03*
X161260000Y-104547500D03*
D18*
X162210000Y-105297500D03*
%TD*%
D26*
%TO.C,U17*%
X142560000Y-129350000D03*
X141210000Y-129350000D03*
X141210000Y-130050000D03*
X142560000Y-130050000D03*
%TD*%
D22*
%TO.C,C34*%
X122735000Y-127450000D03*
X124460000Y-127450000D03*
%TD*%
D26*
%TO.C,U18*%
X181960000Y-129850000D03*
X180610000Y-129850000D03*
X180610000Y-130550000D03*
X181960000Y-130550000D03*
%TD*%
D27*
%TO.C,FB1*%
X129360000Y-134900000D03*
X129360000Y-136900000D03*
%TD*%
D22*
%TO.C,C17*%
X176497500Y-127650000D03*
X178222500Y-127650000D03*
%TD*%
D16*
%TO.C,R12*%
X172110000Y-131562500D03*
X172110000Y-129737500D03*
%TD*%
D28*
%TO.C,IC2*%
X139410000Y-120250000D03*
X138760000Y-120250000D03*
X138110000Y-120250000D03*
X138110000Y-118150000D03*
X138760000Y-118150000D03*
X139410000Y-118150000D03*
D29*
X138760000Y-119200000D03*
%TD*%
D15*
%TO.C,R52*%
X124241250Y-123950000D03*
X122241250Y-123950000D03*
%TD*%
%TO.C,R54*%
X124241250Y-121950000D03*
X122241250Y-121950000D03*
%TD*%
D30*
%TO.C,IC7*%
X153822500Y-98142500D03*
X153822500Y-98792500D03*
X153822500Y-99442500D03*
X151722500Y-99442500D03*
X151722500Y-98792500D03*
X151722500Y-98142500D03*
D31*
X152772500Y-98792500D03*
%TD*%
D15*
%TO.C,R59*%
X163560000Y-123750000D03*
X161560000Y-123750000D03*
%TD*%
D22*
%TO.C,C16*%
X137497500Y-127650000D03*
X139222500Y-127650000D03*
%TD*%
D32*
%TO.C,C6*%
X131360000Y-134832500D03*
X131360000Y-136907500D03*
%TD*%
D33*
%TO.C,C23*%
X180732000Y-144353500D03*
X180732000Y-146078500D03*
%TD*%
D25*
%TO.C,C55*%
X124216250Y-120200000D03*
X122491250Y-120200000D03*
%TD*%
D34*
%TO.C,XTAL2*%
X129795200Y-129250000D03*
X127560000Y-129250000D03*
%TD*%
D33*
%TO.C,C2*%
X179360000Y-118037500D03*
X179360000Y-119762500D03*
%TD*%
%TO.C,C1_RETRY1*%
X136460000Y-118350000D03*
X136460000Y-120075000D03*
%TD*%
D25*
%TO.C,C6_RETRY1*%
X153585000Y-101142500D03*
X151860000Y-101142500D03*
%TD*%
D23*
%TO.C,C13*%
X178610000Y-134875000D03*
X178610000Y-133150000D03*
%TD*%
D15*
%TO.C,R1_ILIM1*%
X138960000Y-121850000D03*
X136960000Y-121850000D03*
%TD*%
D35*
%TO.C,Q14*%
X123928750Y-116500000D03*
X123928750Y-118400000D03*
X122053750Y-117450000D03*
%TD*%
D24*
%TO.C,R7_ILIM2*%
X155522500Y-106342500D03*
X155522500Y-104342500D03*
%TD*%
D35*
%TO.C,Q19*%
X163297500Y-116200000D03*
X163297500Y-118100000D03*
X161422500Y-117150000D03*
%TD*%
D23*
%TO.C,C5*%
X170610000Y-131512500D03*
X170610000Y-129787500D03*
%TD*%
D28*
%TO.C,IC3*%
X177860000Y-119950000D03*
X177210000Y-119950000D03*
X176560000Y-119950000D03*
X176560000Y-117850000D03*
X177210000Y-117850000D03*
X177860000Y-117850000D03*
D29*
X177210000Y-118900000D03*
%TD*%
D22*
%TO.C,C28*%
X151847500Y-96392500D03*
X153572500Y-96392500D03*
%TD*%
D23*
%TO.C,C32*%
X163360000Y-130075000D03*
X163360000Y-128350000D03*
%TD*%
D33*
%TO.C,C1*%
X140960000Y-118350000D03*
X140960000Y-120075000D03*
%TD*%
D15*
%TO.C,R3_ILIM1*%
X177360000Y-121650000D03*
X175360000Y-121650000D03*
%TD*%
D24*
%TO.C,R5_FAULT1*%
X150022500Y-93742500D03*
X150022500Y-91742500D03*
%TD*%
D25*
%TO.C,C5_RETRY1*%
X153522500Y-94742500D03*
X151797500Y-94742500D03*
%TD*%
D21*
%TO.C,R60*%
X165360000Y-115950000D03*
X167360000Y-115950000D03*
%TD*%
D20*
%TO.C,Q13*%
X126116250Y-123900000D03*
X126116250Y-122000000D03*
X127991250Y-122950000D03*
%TD*%
D16*
%TO.C,R15*%
X159710000Y-99892500D03*
X159710000Y-98067500D03*
%TD*%
D15*
%TO.C,R1_FAULT1*%
X138960000Y-116600000D03*
X136960000Y-116600000D03*
%TD*%
D34*
%TO.C,XTAL3*%
X168795200Y-130150000D03*
X166560000Y-130150000D03*
%TD*%
D23*
%TO.C,C10*%
X139610000Y-134762500D03*
X139610000Y-133037500D03*
%TD*%
D17*
%TO.C,U11*%
X163160000Y-92392500D03*
X163160000Y-92892500D03*
X163160000Y-93392500D03*
X163160000Y-93892500D03*
X161260000Y-93892500D03*
X161260000Y-93392500D03*
X161260000Y-92892500D03*
X161260000Y-92392500D03*
D18*
X162210000Y-93142500D03*
%TD*%
D27*
%TO.C,FB2*%
X168360000Y-134900000D03*
X168360000Y-136900000D03*
%TD*%
D24*
%TO.C,R7_FAULT2*%
X150022500Y-106342500D03*
X150022500Y-104342500D03*
%TD*%
D21*
%TO.C,R1*%
X145760000Y-129950000D03*
X147760000Y-129950000D03*
%TD*%
%TO.C,R2*%
X145160000Y-126650000D03*
X147160000Y-126650000D03*
%TD*%
D23*
%TO.C,C18*%
X133110000Y-134875000D03*
X133110000Y-133150000D03*
%TD*%
D22*
%TO.C,C11*%
X133885000Y-127400000D03*
X135610000Y-127400000D03*
%TD*%
D30*
%TO.C,IC6*%
X153822500Y-91842500D03*
X153822500Y-92492500D03*
X153822500Y-93142500D03*
X151722500Y-93142500D03*
X151722500Y-92492500D03*
X151722500Y-91842500D03*
D31*
X152772500Y-92492500D03*
%TD*%
D21*
%TO.C,R62*%
X165360000Y-117950000D03*
X167360000Y-117950000D03*
%TD*%
%TO.C,R4*%
X185060000Y-131450000D03*
X187060000Y-131450000D03*
%TD*%
D22*
%TO.C,C12*%
X126897500Y-126350000D03*
X128622500Y-126350000D03*
%TD*%
D24*
%TO.C,R6_FAULT1*%
X149972500Y-99892500D03*
X149972500Y-97892500D03*
%TD*%
%TO.C,R6_ILIM1*%
X155472500Y-99892500D03*
X155472500Y-97892500D03*
%TD*%
D21*
%TO.C,R6*%
X166760000Y-128050000D03*
X168760000Y-128050000D03*
%TD*%
D19*
%TO.C,C9*%
X176360000Y-133900000D03*
X174285000Y-133900000D03*
%TD*%
D33*
%TO.C,C3_RETRY1*%
X174860000Y-118050000D03*
X174860000Y-119775000D03*
%TD*%
%TO.C,C22*%
X117486000Y-144353500D03*
X117486000Y-146078500D03*
%TD*%
D32*
%TO.C,C7*%
X170360000Y-134825000D03*
X170360000Y-136900000D03*
%TD*%
D25*
%TO.C,C33*%
X168922500Y-132850000D03*
X167197500Y-132850000D03*
%TD*%
D22*
%TO.C,C35*%
X122735000Y-129050000D03*
X124460000Y-129050000D03*
%TD*%
%TO.C,C29*%
X151797500Y-102842500D03*
X153522500Y-102842500D03*
%TD*%
D23*
%TO.C,C19*%
X172110000Y-134875000D03*
X172110000Y-133150000D03*
%TD*%
D19*
%TO.C,C21*%
X176360000Y-135900000D03*
X174285000Y-135900000D03*
%TD*%
D17*
%TO.C,U12*%
X163160000Y-98392500D03*
X163160000Y-98892500D03*
X163160000Y-99392500D03*
X163160000Y-99892500D03*
X161260000Y-99892500D03*
X161260000Y-99392500D03*
X161260000Y-98892500D03*
X161260000Y-98392500D03*
D18*
X162210000Y-99142500D03*
%TD*%
D30*
%TO.C,IC8*%
X153872500Y-104342500D03*
X153872500Y-104992500D03*
X153872500Y-105642500D03*
X151772500Y-105642500D03*
X151772500Y-104992500D03*
X151772500Y-104342500D03*
D31*
X152822500Y-104992500D03*
%TD*%
D21*
%TO.C,R5*%
X185560000Y-121250000D03*
X187560000Y-121250000D03*
%TD*%
D16*
%TO.C,R14*%
X159710000Y-93967500D03*
X159710000Y-92142500D03*
%TD*%
D25*
%TO.C,C57*%
X163422500Y-119950000D03*
X161697500Y-119950000D03*
%TD*%
D36*
X191510000Y-129100000D03*
X100210000Y-101150000D03*
X101210000Y-135150000D03*
X101210000Y-85150000D03*
X102210000Y-71150000D03*
D37*
X123910000Y-102940000D03*
D36*
X100210000Y-135150000D03*
X193510000Y-99100000D03*
D37*
X166730000Y-88830000D03*
D36*
X132210000Y-132975735D03*
X100210000Y-89150000D03*
D37*
X117900000Y-96310000D03*
D36*
X102210000Y-81150000D03*
X102210000Y-106150000D03*
X100210000Y-131150000D03*
X192510000Y-96100000D03*
X100210000Y-77150000D03*
X193510000Y-82100000D03*
D37*
X119790000Y-97130000D03*
D36*
X102210000Y-119150000D03*
X100210000Y-130150000D03*
X193510000Y-71100000D03*
D37*
X179080000Y-128580000D03*
X132320000Y-94940000D03*
D36*
X101210000Y-109150000D03*
X102210000Y-132150000D03*
D37*
X169440000Y-114290000D03*
D36*
X102210000Y-136150000D03*
X193510000Y-136100000D03*
X192510000Y-139100000D03*
D37*
X108780000Y-79350000D03*
D36*
X101210000Y-80150000D03*
X192510000Y-89100000D03*
X100210000Y-102150000D03*
D37*
X183480000Y-70480000D03*
D36*
X192510000Y-100100000D03*
X100210000Y-112150000D03*
D37*
X187310000Y-80820000D03*
D36*
X193510000Y-88100000D03*
X191510000Y-67100000D03*
X193510000Y-105100000D03*
X101210000Y-82150000D03*
X102210000Y-69150000D03*
X102210000Y-93150000D03*
X101210000Y-123150000D03*
X193510000Y-111100000D03*
D37*
X113580000Y-70850000D03*
D36*
X193510000Y-101100000D03*
X102210000Y-99150000D03*
D37*
X127160000Y-70210000D03*
D36*
X193510000Y-96100000D03*
X191510000Y-135100000D03*
X102210000Y-102150000D03*
X193510000Y-108100000D03*
D37*
X131150000Y-102630000D03*
D36*
X193510000Y-130100000D03*
X193510000Y-143100000D03*
X102210000Y-115150000D03*
X139560000Y-130250000D03*
D37*
X129560000Y-104520000D03*
X169550000Y-83500000D03*
D36*
X100210000Y-110150000D03*
X191510000Y-114100000D03*
D37*
X111390000Y-138010000D03*
D36*
X191510000Y-112100000D03*
X102210000Y-75150000D03*
X192510000Y-104100000D03*
D37*
X129150000Y-101970000D03*
D36*
X102210000Y-134150000D03*
D37*
X147840000Y-71260000D03*
D36*
X193510000Y-98100000D03*
D37*
X108170000Y-133020000D03*
D36*
X192510000Y-85100000D03*
X191510000Y-84100000D03*
X193510000Y-137100000D03*
X101210000Y-134150000D03*
X102210000Y-139150000D03*
D37*
X154730000Y-95440000D03*
D36*
X100210000Y-134150000D03*
X191510000Y-96100000D03*
D37*
X106360000Y-128130000D03*
X110860000Y-78000000D03*
D36*
X193510000Y-106100000D03*
X191510000Y-133100000D03*
X193510000Y-132100000D03*
D37*
X154560000Y-88480000D03*
X119080000Y-145330000D03*
D36*
X101210000Y-78150000D03*
D37*
X105550000Y-143910000D03*
D36*
X102210000Y-101150000D03*
X192510000Y-111100000D03*
D37*
X112530000Y-119460000D03*
D36*
X100210000Y-95150000D03*
D37*
X114340000Y-75720000D03*
D36*
X191510000Y-136100000D03*
D37*
X129780000Y-100630000D03*
X117830000Y-78550000D03*
D36*
X101210000Y-89150000D03*
D37*
X107990000Y-112510000D03*
D36*
X132051328Y-128978672D03*
X101210000Y-138150000D03*
X193510000Y-103100000D03*
X192510000Y-95100000D03*
X192510000Y-136100000D03*
X101210000Y-93150000D03*
D37*
X156190000Y-101110000D03*
D36*
X191510000Y-116100000D03*
X193510000Y-121100000D03*
X192510000Y-81100000D03*
D37*
X157430000Y-114500000D03*
D36*
X102210000Y-117150000D03*
X193510000Y-112100000D03*
X192510000Y-128100000D03*
X193510000Y-73100000D03*
X100210000Y-93150000D03*
X192510000Y-67100000D03*
X192510000Y-112100000D03*
X100210000Y-86150000D03*
D37*
X118800000Y-72380000D03*
D36*
X101210000Y-81150000D03*
D37*
X170070000Y-138220000D03*
D36*
X192510000Y-86100000D03*
D37*
X112070000Y-101480000D03*
X148160000Y-131580000D03*
D36*
X192510000Y-72100000D03*
X193510000Y-142100000D03*
X191510000Y-94100000D03*
X191510000Y-82100000D03*
X192510000Y-135100000D03*
X192510000Y-137100000D03*
X100210000Y-67150000D03*
X101210000Y-125150000D03*
D37*
X110100000Y-79120000D03*
D36*
X100210000Y-114150000D03*
X102210000Y-103150000D03*
D37*
X119360000Y-119030000D03*
D36*
X100210000Y-81150000D03*
D37*
X149270000Y-130000000D03*
D36*
X191510000Y-98100000D03*
D37*
X107950000Y-70260000D03*
D36*
X102210000Y-98150000D03*
X191510000Y-111100000D03*
X101210000Y-102150000D03*
D37*
X107730000Y-117740000D03*
D36*
X191510000Y-71100000D03*
X192510000Y-97100000D03*
X101210000Y-94150000D03*
D37*
X130300000Y-100300000D03*
D36*
X191510000Y-76100000D03*
X191510000Y-142100000D03*
X100210000Y-73150000D03*
X191510000Y-93100000D03*
X101210000Y-103150000D03*
X102210000Y-118150000D03*
X193510000Y-141100000D03*
X192510000Y-82100000D03*
D37*
X151140000Y-127120000D03*
X130550000Y-64720000D03*
X118320000Y-117570000D03*
X156950000Y-69740000D03*
D36*
X100210000Y-70150000D03*
D37*
X117530000Y-116050000D03*
X152770000Y-123290000D03*
D36*
X192510000Y-124100000D03*
X191510000Y-140100000D03*
X102210000Y-91150000D03*
D37*
X153520000Y-126460000D03*
D36*
X102210000Y-105150000D03*
D37*
X119710000Y-94940000D03*
D36*
X192510000Y-88100000D03*
X192510000Y-103100000D03*
X102210000Y-84150000D03*
X191510000Y-139100000D03*
X191510000Y-134100000D03*
X192510000Y-141100000D03*
X192510000Y-126100000D03*
X101210000Y-106150000D03*
X102210000Y-89150000D03*
X191510000Y-108100000D03*
X192510000Y-73100000D03*
X192510000Y-132100000D03*
X193510000Y-100100000D03*
X175360000Y-128150000D03*
X192510000Y-76100000D03*
X101210000Y-74150000D03*
X102210000Y-137150000D03*
X102210000Y-122150000D03*
X101210000Y-116150000D03*
X101210000Y-68150000D03*
X191510000Y-102100000D03*
X102210000Y-104150000D03*
X191510000Y-75100000D03*
D37*
X159690000Y-111630000D03*
D36*
X102210000Y-70150000D03*
X193510000Y-140100000D03*
X192510000Y-79100000D03*
X192510000Y-127100000D03*
X193510000Y-85100000D03*
D37*
X148390000Y-99110000D03*
D36*
X191510000Y-127100000D03*
X193510000Y-68100000D03*
D37*
X149330000Y-133050000D03*
X117240000Y-102220000D03*
X162480000Y-111980000D03*
X114980000Y-116050000D03*
X132440000Y-126870000D03*
D36*
X101210000Y-128150000D03*
X192510000Y-138100000D03*
X192510000Y-78100000D03*
D37*
X170290000Y-128660000D03*
D36*
X100210000Y-138150000D03*
D37*
X167510000Y-111230000D03*
X122970000Y-97650000D03*
D36*
X101210000Y-115150000D03*
X100210000Y-91150000D03*
D37*
X151380000Y-106700000D03*
D36*
X101210000Y-132150000D03*
X100210000Y-137150000D03*
D37*
X105510000Y-114080000D03*
X122910000Y-93430000D03*
D36*
X100210000Y-72150000D03*
D37*
X117270000Y-98190000D03*
D36*
X192510000Y-107100000D03*
D37*
X134290000Y-69630000D03*
D36*
X192510000Y-105100000D03*
X101210000Y-143150000D03*
D37*
X164170000Y-109280000D03*
D36*
X191510000Y-85100000D03*
D37*
X151460000Y-128020000D03*
X110740000Y-116960000D03*
D36*
X140098615Y-128449920D03*
X101210000Y-91150000D03*
X192510000Y-70100000D03*
X100210000Y-123150000D03*
D37*
X114790000Y-81550000D03*
D36*
X191510000Y-132100000D03*
X193510000Y-110100000D03*
D37*
X119660000Y-133990000D03*
D36*
X138170000Y-127665331D03*
X101210000Y-73150000D03*
X100210000Y-141150000D03*
X100210000Y-84150000D03*
X193510000Y-129100000D03*
X193510000Y-77100000D03*
X101210000Y-67150000D03*
X100210000Y-69150000D03*
X100210000Y-85150000D03*
X100210000Y-113150000D03*
X100210000Y-122150000D03*
X143009000Y-127480000D03*
D37*
X107500000Y-140680000D03*
X148180000Y-93500000D03*
D36*
X192510000Y-120100000D03*
X139610000Y-132150000D03*
D37*
X114540000Y-96660000D03*
D36*
X102210000Y-112150000D03*
D37*
X122430000Y-121030000D03*
X112210000Y-97240000D03*
D36*
X102210000Y-142150000D03*
X192510000Y-74100000D03*
X191510000Y-77100000D03*
X100210000Y-75150000D03*
X102210000Y-77150000D03*
D37*
X170070000Y-125890000D03*
X149330000Y-131120000D03*
D36*
X191510000Y-80100000D03*
D37*
X124940000Y-64130000D03*
D36*
X100210000Y-108150000D03*
X191510000Y-128100000D03*
X192510000Y-116100000D03*
X101210000Y-99150000D03*
X102210000Y-133150000D03*
X191510000Y-115100000D03*
X192510000Y-84100000D03*
D37*
X115220000Y-138310000D03*
D36*
X191510000Y-78100000D03*
X192510000Y-101100000D03*
D37*
X129590000Y-119250000D03*
D36*
X100210000Y-111150000D03*
D37*
X152410000Y-95420000D03*
X119720000Y-131130000D03*
D36*
X102210000Y-74150000D03*
D37*
X111450000Y-115910000D03*
D36*
X101210000Y-119150000D03*
X101210000Y-105150000D03*
X191510000Y-73100000D03*
X193510000Y-131100000D03*
D37*
X118200000Y-121280000D03*
D36*
X100210000Y-127150000D03*
X100210000Y-74150000D03*
D37*
X112130000Y-104300000D03*
X122350000Y-105100000D03*
X118560000Y-77680000D03*
D36*
X191510000Y-95100000D03*
X193510000Y-72100000D03*
X192510000Y-102100000D03*
X101210000Y-71150000D03*
X191510000Y-100100000D03*
D37*
X117780000Y-125720000D03*
D36*
X101210000Y-96150000D03*
D37*
X123210000Y-94830000D03*
X127040000Y-100110000D03*
D36*
X102210000Y-110150000D03*
X191510000Y-97100000D03*
X191510000Y-103100000D03*
X100210000Y-98150000D03*
D37*
X118740000Y-144090000D03*
D36*
X100210000Y-115150000D03*
X100210000Y-87150000D03*
D37*
X156630000Y-104800000D03*
D36*
X192510000Y-130100000D03*
X193510000Y-70100000D03*
X101210000Y-129150000D03*
X177580000Y-76360000D03*
X192510000Y-117100000D03*
X100210000Y-132150000D03*
X101210000Y-136150000D03*
X100210000Y-88150000D03*
X193510000Y-135100000D03*
D37*
X164900000Y-64480000D03*
D36*
X101210000Y-127150000D03*
X101210000Y-104150000D03*
X193510000Y-118100000D03*
X193510000Y-75100000D03*
X101210000Y-140150000D03*
X100210000Y-129150000D03*
X193510000Y-107100000D03*
D37*
X111270000Y-135210000D03*
X115270000Y-147230000D03*
X131810000Y-99780000D03*
D36*
X102210000Y-78150000D03*
D37*
X110330000Y-80480000D03*
X150640000Y-121370000D03*
D36*
X101210000Y-84150000D03*
X100210000Y-117150000D03*
X102210000Y-86150000D03*
D37*
X184370000Y-80140000D03*
D36*
X100210000Y-118150000D03*
X101210000Y-118150000D03*
X193510000Y-76100000D03*
X102210000Y-95150000D03*
X193510000Y-138100000D03*
X100210000Y-76150000D03*
D37*
X109500000Y-144520000D03*
D36*
X177378190Y-135099857D03*
X100210000Y-142150000D03*
D37*
X107340000Y-120750000D03*
D36*
X100210000Y-83150000D03*
D37*
X161160000Y-71730000D03*
D36*
X102210000Y-127150000D03*
X101210000Y-121150000D03*
X102210000Y-123150000D03*
D37*
X159980000Y-95100000D03*
X138260000Y-64370000D03*
D36*
X101210000Y-114150000D03*
X191510000Y-143100000D03*
D37*
X106220000Y-138920000D03*
D36*
X102210000Y-107150000D03*
X100210000Y-78150000D03*
X191510000Y-87100000D03*
X192510000Y-80100000D03*
D37*
X115260000Y-71540000D03*
D36*
X192510000Y-71100000D03*
X191510000Y-86100000D03*
X101210000Y-87150000D03*
X193510000Y-124100000D03*
X192510000Y-125100000D03*
D37*
X166830000Y-108660000D03*
D36*
X193510000Y-114100000D03*
X100210000Y-120150000D03*
X134139815Y-135814566D03*
D37*
X162060000Y-107300000D03*
D36*
X100210000Y-124150000D03*
X102210000Y-125150000D03*
X193510000Y-74100000D03*
X192510000Y-109100000D03*
X191510000Y-121100000D03*
X191510000Y-109100000D03*
D37*
X150530000Y-64480000D03*
D36*
X193510000Y-139100000D03*
X100210000Y-133150000D03*
D37*
X116830000Y-95430000D03*
X150180000Y-101260000D03*
D36*
X100210000Y-116150000D03*
X100210000Y-126150000D03*
X192510000Y-131100000D03*
X193510000Y-128100000D03*
X101210000Y-86150000D03*
X102210000Y-143150000D03*
X100210000Y-121150000D03*
X101210000Y-108150000D03*
X192510000Y-68100000D03*
X102210000Y-87150000D03*
X102210000Y-80150000D03*
X101210000Y-69150000D03*
D37*
X150550000Y-128770000D03*
D36*
X100210000Y-107150000D03*
X193510000Y-83100000D03*
X100210000Y-125150000D03*
X101210000Y-131150000D03*
D37*
X138260000Y-69630000D03*
X169620000Y-125840000D03*
D36*
X191510000Y-68100000D03*
X100210000Y-109150000D03*
D37*
X184640000Y-84520000D03*
D36*
X100210000Y-103150000D03*
D37*
X125620000Y-103050000D03*
D36*
X191510000Y-123100000D03*
D37*
X165750000Y-111070000D03*
X116800000Y-118300000D03*
D36*
X192510000Y-133100000D03*
X193510000Y-120100000D03*
X192510000Y-83100000D03*
D37*
X120610000Y-95320000D03*
X176280000Y-90820000D03*
X112890000Y-94310000D03*
X109040000Y-80390000D03*
D36*
X102210000Y-79150000D03*
D37*
X153390000Y-103750000D03*
X117340000Y-83360000D03*
D36*
X102210000Y-111150000D03*
X100210000Y-105150000D03*
D37*
X167890000Y-109720000D03*
D36*
X101210000Y-107150000D03*
D37*
X129785000Y-119770000D03*
X171160000Y-88420000D03*
D36*
X192510000Y-118100000D03*
X192510000Y-93100000D03*
X101210000Y-76150000D03*
X191510000Y-141100000D03*
X191510000Y-90100000D03*
D37*
X165600000Y-109130000D03*
X154220000Y-125460000D03*
X164540000Y-111150000D03*
D36*
X102210000Y-92150000D03*
X131400000Y-128500000D03*
X192510000Y-134100000D03*
D37*
X114560000Y-104240000D03*
D36*
X101210000Y-111150000D03*
X101210000Y-79150000D03*
D37*
X154380000Y-118760000D03*
D36*
X192510000Y-110100000D03*
X102210000Y-126150000D03*
X102210000Y-90150000D03*
X191510000Y-124100000D03*
X192510000Y-99100000D03*
X100210000Y-96150000D03*
X191510000Y-106100000D03*
X192510000Y-98100000D03*
D37*
X127650000Y-98690000D03*
D36*
X191510000Y-74100000D03*
X123070000Y-87000000D03*
D37*
X118260000Y-130160000D03*
D36*
X102210000Y-114150000D03*
X191510000Y-101100000D03*
X100210000Y-136150000D03*
X191510000Y-92100000D03*
X192510000Y-129100000D03*
X102210000Y-140150000D03*
X101210000Y-70150000D03*
X191510000Y-88100000D03*
X192510000Y-94100000D03*
X100210000Y-80150000D03*
X102210000Y-129150000D03*
X100210000Y-119150000D03*
D37*
X117980000Y-99020000D03*
D36*
X101210000Y-88150000D03*
X102210000Y-73150000D03*
X191510000Y-107100000D03*
D37*
X118260000Y-132710000D03*
X154910000Y-102690000D03*
D36*
X193510000Y-95100000D03*
D37*
X111090000Y-79000000D03*
D36*
X191510000Y-89100000D03*
X101210000Y-72150000D03*
X193510000Y-78100000D03*
X191510000Y-137100000D03*
X191510000Y-119100000D03*
X193510000Y-123100000D03*
X138060000Y-130150000D03*
D37*
X110740000Y-114740000D03*
X169030000Y-119170000D03*
D36*
X193510000Y-122100000D03*
X102210000Y-135150000D03*
D37*
X162040000Y-108560000D03*
D36*
X192510000Y-75100000D03*
X101210000Y-83150000D03*
D37*
X130260000Y-95100000D03*
X174710000Y-65070000D03*
X151730000Y-95490000D03*
X132460000Y-139830000D03*
D36*
X102210000Y-116150000D03*
X193510000Y-109100000D03*
X192510000Y-87100000D03*
X192510000Y-114100000D03*
X102210000Y-72150000D03*
X192510000Y-119100000D03*
X191510000Y-105100000D03*
X101210000Y-112150000D03*
X102210000Y-96150000D03*
X102210000Y-68150000D03*
X193510000Y-93100000D03*
X191510000Y-91100000D03*
X101210000Y-124150000D03*
X193510000Y-119100000D03*
X102210000Y-120150000D03*
X100210000Y-97150000D03*
D37*
X121190000Y-98500000D03*
D36*
X101210000Y-141150000D03*
X191510000Y-81100000D03*
X101210000Y-142150000D03*
X102210000Y-141150000D03*
X101210000Y-98150000D03*
D37*
X150780000Y-88130000D03*
D36*
X101210000Y-90150000D03*
X191510000Y-110100000D03*
X191510000Y-83100000D03*
X193510000Y-104100000D03*
X191510000Y-131100000D03*
X192510000Y-143100000D03*
X191510000Y-138100000D03*
D37*
X113960000Y-99040000D03*
X115660000Y-83340000D03*
D36*
X193510000Y-94100000D03*
X193510000Y-115100000D03*
X193510000Y-117100000D03*
X191510000Y-118100000D03*
D37*
X107760000Y-73320000D03*
D36*
X193510000Y-126100000D03*
D37*
X129650000Y-117680000D03*
D36*
X191510000Y-122100000D03*
X191510000Y-125100000D03*
X102210000Y-121150000D03*
D37*
X168870000Y-96190000D03*
D36*
X192510000Y-121100000D03*
X101210000Y-130150000D03*
X101210000Y-137150000D03*
X100210000Y-79150000D03*
X101210000Y-75150000D03*
X102210000Y-88150000D03*
X193510000Y-90100000D03*
X101210000Y-133150000D03*
X193510000Y-84100000D03*
X193510000Y-80100000D03*
D37*
X171221023Y-118890000D03*
D36*
X191510000Y-69100000D03*
X101210000Y-77150000D03*
X192510000Y-113100000D03*
X102210000Y-85150000D03*
D37*
X115740000Y-75800000D03*
D36*
X173139815Y-135814566D03*
D37*
X167330000Y-84290000D03*
D36*
X100210000Y-106150000D03*
X102210000Y-128150000D03*
X191510000Y-104100000D03*
X191510000Y-126100000D03*
X100210000Y-139150000D03*
D37*
X153490000Y-89080000D03*
D36*
X171210000Y-132900000D03*
X192510000Y-92100000D03*
X102210000Y-67150000D03*
X101210000Y-120150000D03*
D37*
X152020000Y-107910000D03*
D36*
X101210000Y-97150000D03*
X134060000Y-132450000D03*
X102210000Y-138150000D03*
X191510000Y-130100000D03*
D37*
X171200000Y-91650000D03*
X151880000Y-108760000D03*
D36*
X193510000Y-127100000D03*
X101210000Y-139150000D03*
D37*
X169440000Y-104230000D03*
D36*
X193510000Y-97100000D03*
X193510000Y-67100000D03*
X101210000Y-101150000D03*
D37*
X110210000Y-115850000D03*
D36*
X192510000Y-122100000D03*
X102210000Y-97150000D03*
X102210000Y-124150000D03*
X101210000Y-126150000D03*
X191510000Y-113100000D03*
X102210000Y-94150000D03*
X191510000Y-120100000D03*
X100210000Y-128150000D03*
D37*
X179400000Y-118960000D03*
D36*
X193510000Y-91100000D03*
X156465736Y-91441500D03*
D37*
X112320000Y-120650000D03*
D36*
X102210000Y-113150000D03*
D37*
X130660000Y-95370000D03*
D36*
X101210000Y-110150000D03*
X102210000Y-83150000D03*
X100210000Y-92150000D03*
X193510000Y-87100000D03*
X100210000Y-90150000D03*
X102210000Y-100150000D03*
D37*
X125620000Y-101150000D03*
D36*
X193510000Y-113100000D03*
X101210000Y-100150000D03*
X100210000Y-71150000D03*
X192510000Y-77100000D03*
D37*
X167460000Y-110000000D03*
D36*
X191510000Y-117100000D03*
D37*
X157070000Y-64480000D03*
X170490000Y-85150000D03*
D36*
X193510000Y-102100000D03*
X193510000Y-86100000D03*
D37*
X153690000Y-112760000D03*
D36*
X100210000Y-104150000D03*
D37*
X144100000Y-68460000D03*
D36*
X193510000Y-134100000D03*
X192510000Y-142100000D03*
X100210000Y-99150000D03*
X102210000Y-82150000D03*
X191510000Y-99100000D03*
X100210000Y-94150000D03*
X192510000Y-91100000D03*
D37*
X150290000Y-115890000D03*
D36*
X100210000Y-100150000D03*
X101210000Y-122150000D03*
D37*
X105120000Y-113230000D03*
D36*
X192510000Y-115100000D03*
X192510000Y-69100000D03*
X191510000Y-72100000D03*
D37*
X171160000Y-99910000D03*
D36*
X136610000Y-127650000D03*
X193510000Y-81100000D03*
X100210000Y-68150000D03*
X101210000Y-113150000D03*
X192510000Y-106100000D03*
D37*
X119220000Y-78740000D03*
D36*
X193510000Y-79100000D03*
X191510000Y-70100000D03*
X101210000Y-117150000D03*
D37*
X148820000Y-132540000D03*
D36*
X101210000Y-95150000D03*
D37*
X115950000Y-117510000D03*
D36*
X192510000Y-108100000D03*
X192510000Y-123100000D03*
X193510000Y-125100000D03*
X101210000Y-92150000D03*
D37*
X159280000Y-126790000D03*
D36*
X100210000Y-143150000D03*
X192510000Y-90100000D03*
X192510000Y-140100000D03*
D37*
X133000000Y-118620000D03*
D36*
X193510000Y-89100000D03*
D37*
X118320000Y-119030000D03*
D36*
X100210000Y-140150000D03*
X193510000Y-69100000D03*
X137560000Y-132350000D03*
X193510000Y-116100000D03*
X102210000Y-76150000D03*
X193510000Y-92100000D03*
X100210000Y-82150000D03*
X193510000Y-133100000D03*
D37*
X162960000Y-106800000D03*
D36*
X102210000Y-109150000D03*
X102210000Y-131150000D03*
X102210000Y-108150000D03*
X102210000Y-130150000D03*
X191510000Y-79100000D03*
X133094131Y-135863877D03*
X140110000Y-127650000D03*
X132860000Y-127400000D03*
X139610000Y-135900000D03*
D37*
X138030000Y-120810000D03*
X138120000Y-117640000D03*
X181760000Y-131610000D03*
X179850000Y-77350000D03*
X151120000Y-92210000D03*
X148040000Y-88330000D03*
X128180000Y-130720000D03*
X118242000Y-145322500D03*
X138050000Y-123220000D03*
X132040000Y-119370000D03*
X128310000Y-125405000D03*
X142250000Y-87670000D03*
X175250000Y-86710000D03*
X127100000Y-86730000D03*
X143150000Y-129360000D03*
X124080000Y-89590000D03*
X139210000Y-108620000D03*
X139219000Y-115611000D03*
X126050000Y-110910000D03*
X124490000Y-114140000D03*
D36*
X126170000Y-89110000D03*
D37*
X135750000Y-117050000D03*
X124539292Y-100579294D03*
X140240000Y-116650000D03*
X177670000Y-114790000D03*
X132670000Y-89110000D03*
X154370000Y-133110000D03*
X151200000Y-110398500D03*
X116620000Y-106310000D03*
X142570000Y-105680000D03*
X155290000Y-133080000D03*
X126941907Y-133265021D03*
D36*
X178610000Y-135900000D03*
X179110000Y-127650000D03*
X171110000Y-127650000D03*
X171860000Y-135900000D03*
D37*
X181660000Y-145490000D03*
X173150000Y-130650000D03*
X173770000Y-110540000D03*
X150050000Y-105182500D03*
X150740000Y-97135000D03*
X140110000Y-104960000D03*
X145590157Y-104082915D03*
D36*
X134960000Y-129550000D03*
D37*
X150240000Y-90290000D03*
X159660000Y-91450000D03*
X157090000Y-103810000D03*
X149620000Y-95145000D03*
X136430000Y-105030000D03*
X160140000Y-97416500D03*
X152680000Y-102240000D03*
X163410000Y-110540000D03*
X144375000Y-98550000D03*
X135230000Y-96980000D03*
X143120000Y-96770000D03*
X128437619Y-131188632D03*
X112970000Y-130420000D03*
X112940000Y-125780000D03*
X167670549Y-131209451D03*
X167384171Y-132068587D03*
X136550000Y-138520000D03*
X124130000Y-115720000D03*
X163600000Y-115230000D03*
X176050595Y-138689405D03*
X179515000Y-70480000D03*
X144126424Y-133136424D03*
D36*
X131360000Y-133650000D03*
D37*
X142010000Y-125880000D03*
X140710000Y-126350000D03*
X143650000Y-126380000D03*
X126890000Y-132170000D03*
X184990000Y-130460000D03*
X165880000Y-128200000D03*
D36*
X170360000Y-133650000D03*
D37*
X129530000Y-126340000D03*
X167710000Y-126390000D03*
D36*
X138360000Y-135900000D03*
X177360000Y-135900000D03*
D37*
X122280000Y-125000000D03*
X168480000Y-113850000D03*
X161610000Y-124980000D03*
X157920000Y-123440000D03*
X176636144Y-138702197D03*
X126620000Y-121360000D03*
X124891938Y-117795000D03*
X166140000Y-122470000D03*
X164230000Y-114140000D03*
X144290000Y-130170000D03*
X179445000Y-127040000D03*
X181850000Y-127220000D03*
X184250000Y-127230000D03*
X128730000Y-133710000D03*
X120180000Y-107180000D03*
X125680000Y-106500000D03*
X175180000Y-139310000D03*
X114550000Y-87830000D03*
X116240000Y-87840000D03*
X176810000Y-89280000D03*
X173560000Y-89280000D03*
X120348879Y-105345292D03*
X165154213Y-132545787D03*
X145760000Y-115430000D03*
X165392359Y-132950787D03*
X126830000Y-108460000D03*
X174772837Y-138557163D03*
X122835000Y-107830000D03*
X135460000Y-138550000D03*
X123240000Y-105850000D03*
X135960000Y-138590000D03*
X119890000Y-105230000D03*
X128240000Y-133330000D03*
X111115994Y-74594000D03*
X147250000Y-144260000D03*
X120602442Y-138422442D03*
X162360000Y-104120000D03*
X106650000Y-116890000D03*
X173876536Y-129163464D03*
X149320000Y-134560000D03*
X136312029Y-130047971D03*
X178300000Y-110670000D03*
X134472476Y-124130582D03*
X144560000Y-108820000D03*
X134343380Y-115659377D03*
X178230000Y-109150000D03*
X166666000Y-93050000D03*
X165855000Y-93050000D03*
X172979000Y-83069000D03*
X163710000Y-92900000D03*
X176760000Y-132170000D03*
X137240000Y-131690000D03*
X128630000Y-142130000D03*
X120030000Y-137690000D03*
X162940000Y-108690000D03*
X143520000Y-134725000D03*
X172840000Y-122340000D03*
X144540000Y-106280000D03*
X142230000Y-107600000D03*
X182339816Y-134700184D03*
X149780000Y-108320000D03*
X173471379Y-122398621D03*
X137969126Y-102140000D03*
X139178621Y-97368621D03*
X122940000Y-105200000D03*
X130550000Y-140140000D03*
X131220000Y-143660000D03*
X140070000Y-91580000D03*
X139384000Y-102130268D03*
X140029000Y-108840000D03*
X139181379Y-98511379D03*
X150010000Y-113600000D03*
X165950000Y-108330000D03*
X143280000Y-109260000D03*
X140030000Y-108190000D03*
X142520000Y-133020000D03*
X133865000Y-124095864D03*
X133865000Y-115611000D03*
X144500000Y-106920000D03*
D36*
X164830000Y-91140000D03*
X164870000Y-97240000D03*
X164880000Y-103380000D03*
D37*
X138180000Y-138440000D03*
X139900000Y-100540000D03*
X148085000Y-101790000D03*
X160710000Y-101790000D03*
X142300000Y-101830000D03*
X181510000Y-135650000D03*
X142926512Y-133160177D03*
X148080000Y-103100000D03*
X155785230Y-96325001D03*
X163550000Y-96320000D03*
X139660000Y-102460000D03*
X143523538Y-133917387D03*
X182179667Y-135112793D03*
X149580000Y-102570000D03*
X142220000Y-99900000D03*
X177760000Y-138610000D03*
X156007361Y-89607361D03*
X143830000Y-100050000D03*
X157270000Y-93690000D03*
X145750000Y-100560000D03*
X181860670Y-135401137D03*
X143331512Y-133358578D03*
X148190000Y-101140000D03*
X174840000Y-123791921D03*
X142631379Y-95061379D03*
X143787129Y-97407129D03*
X132010000Y-123990000D03*
X135300000Y-105570000D03*
X139585000Y-94820000D03*
X135648705Y-124161295D03*
X137969126Y-98459459D03*
X145511250Y-95110250D03*
X132526676Y-123933918D03*
X142250000Y-96720000D03*
X134856425Y-115719089D03*
X135102326Y-124187674D03*
X161300000Y-102890000D03*
X159690000Y-102975000D03*
X174340000Y-123540000D03*
X142270000Y-96110000D03*
X147990000Y-94740000D03*
X172217402Y-121962598D03*
X156634328Y-97712914D03*
X157270000Y-99770000D03*
X150750000Y-107640000D03*
X142640000Y-95560000D03*
X171626023Y-121943977D03*
X148070000Y-96730000D03*
X165330000Y-134245000D03*
X139880000Y-88330000D03*
X139680000Y-89010000D03*
X127346906Y-134350925D03*
X164670000Y-134745000D03*
X148360000Y-89010000D03*
X127530000Y-134740000D03*
X145370000Y-89640000D03*
X145480000Y-90950000D03*
X172530000Y-138900000D03*
X145540000Y-91580000D03*
X133460000Y-138360000D03*
X185890000Y-76610000D03*
X185890000Y-69540000D03*
X184670000Y-76660000D03*
X184670000Y-71480000D03*
X121920476Y-118100000D03*
X175340000Y-124183302D03*
X167320000Y-124660000D03*
X167750000Y-123480000D03*
X163820000Y-135986000D03*
X127810000Y-135130000D03*
X128440000Y-122440000D03*
X161020000Y-117800000D03*
X131090000Y-138090000D03*
X163498379Y-135091621D03*
X175840000Y-124520000D03*
X168490000Y-120400000D03*
X144430481Y-132832367D03*
X183370000Y-66960000D03*
X187180000Y-71920000D03*
X143388621Y-128548621D03*
X183430000Y-74610000D03*
X142957242Y-128407242D03*
X182070000Y-131190000D03*
X183400000Y-79210000D03*
X183360000Y-84410000D03*
X181890000Y-128380000D03*
X187190000Y-84430000D03*
X182311313Y-128466009D03*
X165720000Y-128620000D03*
X167650000Y-129148700D03*
X126510000Y-128660000D03*
X128690000Y-130251300D03*
D38*
X192500000Y-67790000D02*
X192500000Y-143139000D01*
X101161000Y-67790000D02*
X101161000Y-143139000D01*
M02*
