%TF.GenerationSoftware,KiCad,Pcbnew,9.0.7*%
%TF.CreationDate,2026-02-27T14:58:18-07:00*%
%TF.ProjectId,Battery_Board_2.0,42617474-6572-4795-9f42-6f6172645f32,rev?*%
%TF.SameCoordinates,Original*%
%TF.FileFunction,Paste,Bot*%
%TF.FilePolarity,Positive*%
%FSLAX46Y46*%
G04 Gerber Fmt 4.6, Leading zero omitted, Abs format (unit mm)*
G04 Created by KiCad (PCBNEW 9.0.7) date 2026-02-27 14:58:18*
%MOMM*%
%LPD*%
G01*
G04 APERTURE LIST*
G04 Aperture macros list*
%AMRoundRect*
0 Rectangle with rounded corners*
0 $1 Rounding radius*
0 $2 $3 $4 $5 $6 $7 $8 $9 X,Y pos of 4 corners*
0 Add a 4 corners polygon primitive as box body*
4,1,4,$2,$3,$4,$5,$6,$7,$8,$9,$2,$3,0*
0 Add four circle primitives for the rounded corners*
1,1,$1+$1,$2,$3*
1,1,$1+$1,$4,$5*
1,1,$1+$1,$6,$7*
1,1,$1+$1,$8,$9*
0 Add four rect primitives between the rounded corners*
20,1,$1+$1,$2,$3,$4,$5,0*
20,1,$1+$1,$4,$5,$6,$7,0*
20,1,$1+$1,$6,$7,$8,$9,0*
20,1,$1+$1,$8,$9,$2,$3,0*%
G04 Aperture macros list end*
%ADD10RoundRect,0.237500X0.300000X0.237500X-0.300000X0.237500X-0.300000X-0.237500X0.300000X-0.237500X0*%
%ADD11RoundRect,0.237500X-0.237500X0.300000X-0.237500X-0.300000X0.237500X-0.300000X0.237500X0.300000X0*%
%ADD12RoundRect,0.237500X-0.300000X-0.237500X0.300000X-0.237500X0.300000X0.237500X-0.300000X0.237500X0*%
%ADD13R,0.600000X0.350000*%
%ADD14R,1.100000X1.700000*%
%ADD15R,1.800000X1.000000*%
%ADD16RoundRect,0.250000X-0.350000X-0.450000X0.350000X-0.450000X0.350000X0.450000X-0.350000X0.450000X0*%
%ADD17RoundRect,0.237500X0.237500X-0.300000X0.237500X0.300000X-0.237500X0.300000X-0.237500X-0.300000X0*%
%ADD18RoundRect,0.250000X0.475000X-0.337500X0.475000X0.337500X-0.475000X0.337500X-0.475000X-0.337500X0*%
%ADD19RoundRect,0.250000X-0.337500X-0.475000X0.337500X-0.475000X0.337500X0.475000X-0.337500X0.475000X0*%
%ADD20RoundRect,0.250000X0.350000X0.450000X-0.350000X0.450000X-0.350000X-0.450000X0.350000X-0.450000X0*%
G04 APERTURE END LIST*
D10*
%TO.C,C29*%
X145240000Y-121091000D03*
X143515000Y-121091000D03*
%TD*%
D11*
%TO.C,C1_RETRY1*%
X131490000Y-120616000D03*
X131490000Y-122341000D03*
%TD*%
D12*
%TO.C,C3*%
X151627500Y-119091000D03*
X153352500Y-119091000D03*
%TD*%
D13*
%TO.C,IC2*%
X131590000Y-117691000D03*
X131590000Y-118341000D03*
X131590000Y-118991000D03*
X129490000Y-118991000D03*
X129490000Y-118341000D03*
X129490000Y-117691000D03*
D14*
X130540000Y-118341000D03*
%TD*%
D12*
%TO.C,C10*%
X147407500Y-122896000D03*
X149132500Y-122896000D03*
%TD*%
D15*
%TO.C,Y1*%
X148430000Y-126991000D03*
X148430000Y-124441000D03*
%TD*%
D10*
%TO.C,C6*%
X145240000Y-122591000D03*
X143515000Y-122591000D03*
%TD*%
D12*
%TO.C,C8*%
X147427500Y-128546000D03*
X149152500Y-128546000D03*
%TD*%
D11*
%TO.C,C4*%
X153490000Y-127978500D03*
X153490000Y-129703500D03*
%TD*%
D16*
%TO.C,R1_ILIM1*%
X133290000Y-118341000D03*
X135290000Y-118341000D03*
%TD*%
D10*
%TO.C,C32*%
X145240000Y-129591000D03*
X143515000Y-129591000D03*
%TD*%
%TO.C,C5*%
X145240000Y-131091000D03*
X143515000Y-131091000D03*
%TD*%
%TO.C,C1*%
X145240000Y-119591000D03*
X143515000Y-119591000D03*
%TD*%
D17*
%TO.C,C33*%
X146840000Y-121316000D03*
X146840000Y-119591000D03*
%TD*%
D10*
%TO.C,C7*%
X133852500Y-124591000D03*
X132127500Y-124591000D03*
%TD*%
D18*
%TO.C,C2*%
X151740000Y-129628500D03*
X151740000Y-127553500D03*
%TD*%
D19*
%TO.C,C35*%
X143665000Y-127841000D03*
X145740000Y-127841000D03*
%TD*%
%TO.C,C34*%
X143665000Y-125841000D03*
X145740000Y-125841000D03*
%TD*%
D16*
%TO.C,R28*%
X137740000Y-120341000D03*
X139740000Y-120341000D03*
%TD*%
D12*
%TO.C,C30*%
X151627500Y-120591000D03*
X153352500Y-120591000D03*
%TD*%
D16*
%TO.C,R27*%
X135910000Y-122341000D03*
X137910000Y-122341000D03*
%TD*%
%TO.C,R26*%
X137740000Y-124341000D03*
X139740000Y-124341000D03*
%TD*%
D12*
%TO.C,C9*%
X129740000Y-116091000D03*
X131465000Y-116091000D03*
%TD*%
D20*
%TO.C,R1_FAULT1*%
X135240000Y-120341000D03*
X133240000Y-120341000D03*
%TD*%
D10*
%TO.C,C31*%
X145240000Y-124091000D03*
X143515000Y-124091000D03*
%TD*%
M02*
