%TF.GenerationSoftware,KiCad,Pcbnew,9.0.7*%
%TF.CreationDate,2026-02-27T14:58:18-07:00*%
%TF.ProjectId,Battery_Board_2.0,42617474-6572-4795-9f42-6f6172645f32,rev?*%
%TF.SameCoordinates,Original*%
%TF.FileFunction,Paste,Top*%
%TF.FilePolarity,Positive*%
%FSLAX46Y46*%
G04 Gerber Fmt 4.6, Leading zero omitted, Abs format (unit mm)*
G04 Created by KiCad (PCBNEW 9.0.7) date 2026-02-27 14:58:18*
%MOMM*%
%LPD*%
G01*
G04 APERTURE LIST*
G04 Aperture macros list*
%AMRoundRect*
0 Rectangle with rounded corners*
0 $1 Rounding radius*
0 $2 $3 $4 $5 $6 $7 $8 $9 X,Y pos of 4 corners*
0 Add a 4 corners polygon primitive as box body*
4,1,4,$2,$3,$4,$5,$6,$7,$8,$9,$2,$3,0*
0 Add four circle primitives for the rounded corners*
1,1,$1+$1,$2,$3*
1,1,$1+$1,$4,$5*
1,1,$1+$1,$6,$7*
1,1,$1+$1,$8,$9*
0 Add four rect primitives between the rounded corners*
20,1,$1+$1,$2,$3,$4,$5,0*
20,1,$1+$1,$4,$5,$6,$7,0*
20,1,$1+$1,$6,$7,$8,$9,0*
20,1,$1+$1,$8,$9,$2,$3,0*%
%AMFreePoly0*
4,1,21,1.372500,0.787500,0.862500,0.787500,0.862500,0.532500,1.372500,0.532500,1.372500,0.127500,0.862500,0.127500,0.862500,-0.127500,1.372500,-0.127500,1.372500,-0.532500,0.862500,-0.532500,0.862500,-0.787500,1.372500,-0.787500,1.372500,-1.195000,0.612500,-1.195000,0.612500,-1.117500,-0.862500,-1.117500,-0.862500,1.117500,0.612500,1.117500,0.612500,1.195000,1.372500,1.195000,
1.372500,0.787500,1.372500,0.787500,$1*%
G04 Aperture macros list end*
%ADD10C,0.000000*%
%ADD11RoundRect,0.090000X-0.139000X-0.090000X0.139000X-0.090000X0.139000X0.090000X-0.139000X0.090000X0*%
%ADD12RoundRect,0.237500X-0.300000X-0.237500X0.300000X-0.237500X0.300000X0.237500X-0.300000X0.237500X0*%
%ADD13RoundRect,0.140000X-0.170000X0.140000X-0.170000X-0.140000X0.170000X-0.140000X0.170000X0.140000X0*%
%ADD14RoundRect,0.212500X-0.212500X-0.212500X0.212500X-0.212500X0.212500X0.212500X-0.212500X0.212500X0*%
%ADD15RoundRect,0.087500X-0.425000X-0.087500X0.425000X-0.087500X0.425000X0.087500X-0.425000X0.087500X0*%
%ADD16RoundRect,0.087500X-0.087500X-0.425000X0.087500X-0.425000X0.087500X0.425000X-0.087500X0.425000X0*%
%ADD17RoundRect,0.165000X-0.165000X0.165000X-0.165000X-0.165000X0.165000X-0.165000X0.165000X0.165000X0*%
%ADD18RoundRect,0.062500X-0.062500X0.325000X-0.062500X-0.325000X0.062500X-0.325000X0.062500X0.325000X0*%
%ADD19RoundRect,0.062500X-0.325000X0.062500X-0.325000X-0.062500X0.325000X-0.062500X0.325000X0.062500X0*%
%ADD20RoundRect,0.250000X-0.312500X-0.625000X0.312500X-0.625000X0.312500X0.625000X-0.312500X0.625000X0*%
%ADD21RoundRect,0.182500X-0.182500X-0.182500X0.182500X-0.182500X0.182500X0.182500X-0.182500X0.182500X0*%
%ADD22RoundRect,0.062500X-0.350000X-0.062500X0.350000X-0.062500X0.350000X0.062500X-0.350000X0.062500X0*%
%ADD23RoundRect,0.062500X-0.062500X-0.350000X0.062500X-0.350000X0.062500X0.350000X-0.062500X0.350000X0*%
%ADD24RoundRect,0.150000X0.150000X-0.875000X0.150000X0.875000X-0.150000X0.875000X-0.150000X-0.875000X0*%
%ADD25RoundRect,0.079500X0.100500X-0.079500X0.100500X0.079500X-0.100500X0.079500X-0.100500X-0.079500X0*%
%ADD26RoundRect,0.250000X-1.400000X-1.000000X1.400000X-1.000000X1.400000X1.000000X-1.400000X1.000000X0*%
%ADD27R,0.750000X0.650000*%
%ADD28RoundRect,0.062500X-0.187500X-0.062500X0.187500X-0.062500X0.187500X0.062500X-0.187500X0.062500X0*%
%ADD29RoundRect,0.218750X0.218750X0.381250X-0.218750X0.381250X-0.218750X-0.381250X0.218750X-0.381250X0*%
%ADD30RoundRect,0.100000X-0.100000X0.562500X-0.100000X-0.562500X0.100000X-0.562500X0.100000X0.562500X0*%
%ADD31RoundRect,0.250000X-0.450000X0.262500X-0.450000X-0.262500X0.450000X-0.262500X0.450000X0.262500X0*%
%ADD32RoundRect,0.250000X-0.262500X-0.450000X0.262500X-0.450000X0.262500X0.450000X-0.262500X0.450000X0*%
%ADD33RoundRect,0.237500X-0.250000X-0.237500X0.250000X-0.237500X0.250000X0.237500X-0.250000X0.237500X0*%
%ADD34RoundRect,0.079500X0.079500X0.100500X-0.079500X0.100500X-0.079500X-0.100500X0.079500X-0.100500X0*%
%ADD35RoundRect,0.237500X0.237500X-0.250000X0.237500X0.250000X-0.237500X0.250000X-0.237500X-0.250000X0*%
%ADD36RoundRect,0.079500X-0.079500X-0.100500X0.079500X-0.100500X0.079500X0.100500X-0.079500X0.100500X0*%
%ADD37RoundRect,0.250000X0.450000X-0.262500X0.450000X0.262500X-0.450000X0.262500X-0.450000X-0.262500X0*%
%ADD38RoundRect,0.075000X-0.725000X-0.075000X0.725000X-0.075000X0.725000X0.075000X-0.725000X0.075000X0*%
%ADD39RoundRect,0.075000X-0.075000X-0.725000X0.075000X-0.725000X0.075000X0.725000X-0.075000X0.725000X0*%
%ADD40RoundRect,0.250000X0.625000X-0.312500X0.625000X0.312500X-0.625000X0.312500X-0.625000X-0.312500X0*%
%ADD41RoundRect,0.150000X0.825000X0.150000X-0.825000X0.150000X-0.825000X-0.150000X0.825000X-0.150000X0*%
%ADD42RoundRect,0.249999X0.450001X1.075001X-0.450001X1.075001X-0.450001X-1.075001X0.450001X-1.075001X0*%
%ADD43R,0.600000X0.350000*%
%ADD44R,1.100000X1.700000*%
%ADD45R,2.700000X3.600000*%
%ADD46RoundRect,0.237500X0.300000X0.237500X-0.300000X0.237500X-0.300000X-0.237500X0.300000X-0.237500X0*%
%ADD47RoundRect,0.250000X-0.625000X0.312500X-0.625000X-0.312500X0.625000X-0.312500X0.625000X0.312500X0*%
%ADD48RoundRect,0.250000X0.312500X0.625000X-0.312500X0.625000X-0.312500X-0.625000X0.312500X-0.625000X0*%
%ADD49RoundRect,0.250000X-0.450000X0.350000X-0.450000X-0.350000X0.450000X-0.350000X0.450000X0.350000X0*%
%ADD50RoundRect,0.250000X-0.650000X0.325000X-0.650000X-0.325000X0.650000X-0.325000X0.650000X0.325000X0*%
%ADD51RoundRect,0.150000X-0.150000X0.587500X-0.150000X-0.587500X0.150000X-0.587500X0.150000X0.587500X0*%
%ADD52RoundRect,0.250000X-0.350000X-0.450000X0.350000X-0.450000X0.350000X0.450000X-0.350000X0.450000X0*%
%ADD53RoundRect,0.225000X-0.250000X0.225000X-0.250000X-0.225000X0.250000X-0.225000X0.250000X0.225000X0*%
%ADD54R,0.600000X1.550000*%
%ADD55R,3.100000X2.600000*%
%ADD56RoundRect,0.250000X0.262500X0.450000X-0.262500X0.450000X-0.262500X-0.450000X0.262500X-0.450000X0*%
%ADD57RoundRect,0.250000X-1.000000X-0.650000X1.000000X-0.650000X1.000000X0.650000X-1.000000X0.650000X0*%
%ADD58RoundRect,0.250000X0.350000X0.450000X-0.350000X0.450000X-0.350000X-0.450000X0.350000X-0.450000X0*%
%ADD59R,0.533400X1.473200*%
%ADD60RoundRect,0.237500X-0.237500X0.250000X-0.237500X-0.250000X0.237500X-0.250000X0.237500X0.250000X0*%
%ADD61RoundRect,0.079500X-0.100500X0.079500X-0.100500X-0.079500X0.100500X-0.079500X0.100500X0.079500X0*%
%ADD62R,0.812800X0.254000*%
%ADD63RoundRect,0.225000X0.225000X0.250000X-0.225000X0.250000X-0.225000X-0.250000X0.225000X-0.250000X0*%
%ADD64RoundRect,0.250000X0.450000X-0.350000X0.450000X0.350000X-0.450000X0.350000X-0.450000X-0.350000X0*%
%ADD65RoundRect,0.237500X-0.237500X0.300000X-0.237500X-0.300000X0.237500X-0.300000X0.237500X0.300000X0*%
%ADD66RoundRect,0.062500X0.187500X0.062500X-0.187500X0.062500X-0.187500X-0.062500X0.187500X-0.062500X0*%
%ADD67R,0.990000X0.405000*%
%ADD68FreePoly0,180.000000*%
%ADD69R,0.990600X0.889000*%
%ADD70R,0.550000X1.700000*%
%ADD71RoundRect,0.225000X-0.225000X-0.250000X0.225000X-0.250000X0.225000X0.250000X-0.225000X0.250000X0*%
%ADD72RoundRect,0.125000X-0.125000X0.125000X-0.125000X-0.125000X0.125000X-0.125000X0.125000X0.125000X0*%
G04 APERTURE END LIST*
D10*
%TO.C,U114*%
G36*
X160848500Y-132972178D02*
G01*
X160707079Y-133113599D01*
X160591630Y-133113599D01*
X160591630Y-132869429D01*
X160848500Y-132869429D01*
X160848500Y-132972178D01*
G37*
G36*
X160848500Y-135029820D02*
G01*
X160848500Y-135132569D01*
X160591630Y-135132569D01*
X160591630Y-134888399D01*
X160707079Y-134888399D01*
X160848500Y-135029820D01*
G37*
G36*
X162092770Y-133113599D02*
G01*
X161977321Y-133113599D01*
X161835900Y-132972178D01*
X161835900Y-132869429D01*
X162092770Y-132869429D01*
X162092770Y-133113599D01*
G37*
G36*
X162092770Y-135132569D02*
G01*
X161835900Y-135132569D01*
X161835900Y-135029820D01*
X161977321Y-134888399D01*
X162092770Y-134888399D01*
X162092770Y-135132569D01*
G37*
G36*
X160848500Y-133455020D02*
G01*
X160848500Y-133759578D01*
X160707079Y-133900999D01*
X160591630Y-133900999D01*
X160591630Y-133313599D01*
X160707079Y-133313599D01*
X160848500Y-133455020D01*
G37*
G36*
X160848500Y-134242420D02*
G01*
X160848500Y-134546978D01*
X160707079Y-134688399D01*
X160591630Y-134688399D01*
X160591630Y-134100999D01*
X160707079Y-134100999D01*
X160848500Y-134242420D01*
G37*
G36*
X161635900Y-132972178D02*
G01*
X161494479Y-133113599D01*
X161189921Y-133113599D01*
X161048500Y-132972178D01*
X161048500Y-132869429D01*
X161635900Y-132869429D01*
X161635900Y-132972178D01*
G37*
G36*
X161635900Y-135029820D02*
G01*
X161635900Y-135132569D01*
X161048500Y-135132569D01*
X161048500Y-135029820D01*
X161189921Y-134888399D01*
X161494479Y-134888399D01*
X161635900Y-135029820D01*
G37*
G36*
X162092770Y-133900999D02*
G01*
X161977321Y-133900999D01*
X161835900Y-133759578D01*
X161835900Y-133455020D01*
X161977321Y-133313599D01*
X162092770Y-133313599D01*
X162092770Y-133900999D01*
G37*
G36*
X162092770Y-134688399D02*
G01*
X161977321Y-134688399D01*
X161835900Y-134546978D01*
X161835900Y-134242420D01*
X161977321Y-134100999D01*
X162092770Y-134100999D01*
X162092770Y-134688399D01*
G37*
G36*
X161635900Y-133455020D02*
G01*
X161635900Y-133759578D01*
X161494479Y-133900999D01*
X161189921Y-133900999D01*
X161048500Y-133759578D01*
X161048500Y-133455020D01*
X161189921Y-133313599D01*
X161494479Y-133313599D01*
X161635900Y-133455020D01*
G37*
G36*
X161635900Y-134242420D02*
G01*
X161635900Y-134546978D01*
X161494479Y-134688399D01*
X161189921Y-134688399D01*
X161048500Y-134546978D01*
X161048500Y-134242420D01*
X161189921Y-134100999D01*
X161494479Y-134100999D01*
X161635900Y-134242420D01*
G37*
%TD*%
D11*
%TO.C,D5*%
X136557500Y-122341000D03*
X137422500Y-122341000D03*
%TD*%
D12*
%TO.C,C2_RETRY1*%
X169967500Y-121901000D03*
X171692500Y-121901000D03*
%TD*%
D13*
%TO.C,C92*%
X112090000Y-118360000D03*
X112090000Y-119320000D03*
%TD*%
D14*
%TO.C,U34*%
X145850000Y-77151000D03*
X145850000Y-78201000D03*
X146900000Y-77151000D03*
X146900000Y-78201000D03*
D15*
X144512500Y-76701000D03*
X144512500Y-77351000D03*
X144512500Y-78001000D03*
X144512500Y-78651000D03*
D16*
X145400000Y-79538500D03*
X146050000Y-79538500D03*
X146700000Y-79538500D03*
X147350000Y-79538500D03*
D15*
X148237500Y-78651000D03*
X148237500Y-78001000D03*
X148237500Y-77351000D03*
X148237500Y-76701000D03*
D16*
X147350000Y-75813500D03*
X146700000Y-75813500D03*
X146050000Y-75813500D03*
X145400000Y-75813500D03*
%TD*%
D17*
%TO.C,U50*%
X161897500Y-99383500D03*
X161077500Y-99383500D03*
X160257500Y-99383500D03*
X161897500Y-100203500D03*
X161077500Y-100203500D03*
X160257500Y-100203500D03*
X161897500Y-101023500D03*
X161077500Y-101023500D03*
X160257500Y-101023500D03*
D18*
X162327500Y-98216000D03*
X161827500Y-98216000D03*
X161327500Y-98216000D03*
X160827500Y-98216000D03*
X160327500Y-98216000D03*
X159827500Y-98216000D03*
D19*
X159090000Y-98953500D03*
X159090000Y-99453500D03*
X159090000Y-99953500D03*
X159090000Y-100453500D03*
X159090000Y-100953500D03*
X159090000Y-101453500D03*
D18*
X159827500Y-102191000D03*
X160327500Y-102191000D03*
X160827500Y-102191000D03*
X161327500Y-102191000D03*
X161827500Y-102191000D03*
X162327500Y-102191000D03*
D19*
X163065000Y-101453500D03*
X163065000Y-100953500D03*
X163065000Y-100453500D03*
X163065000Y-99953500D03*
X163065000Y-99453500D03*
X163065000Y-98953500D03*
%TD*%
D20*
%TO.C,R45*%
X167905000Y-74481000D03*
X170830000Y-74481000D03*
%TD*%
D14*
%TO.C,U17*%
X157840000Y-77061000D03*
X157840000Y-78111000D03*
X158890000Y-77061000D03*
X158890000Y-78111000D03*
D15*
X156502500Y-76611000D03*
X156502500Y-77261000D03*
X156502500Y-77911000D03*
X156502500Y-78561000D03*
D16*
X157390000Y-79448500D03*
X158040000Y-79448500D03*
X158690000Y-79448500D03*
X159340000Y-79448500D03*
D15*
X160227500Y-78561000D03*
X160227500Y-77911000D03*
X160227500Y-77261000D03*
X160227500Y-76611000D03*
D16*
X159340000Y-75723500D03*
X158690000Y-75723500D03*
X158040000Y-75723500D03*
X157390000Y-75723500D03*
%TD*%
D21*
%TO.C,U22*%
X184930000Y-115361798D03*
X184930000Y-116201798D03*
X185770000Y-115361798D03*
X185770000Y-116201798D03*
D22*
X183887500Y-115031798D03*
X183887500Y-115531798D03*
X183887500Y-116031798D03*
X183887500Y-116531798D03*
D23*
X184600000Y-117244298D03*
X185100000Y-117244298D03*
X185600000Y-117244298D03*
X186100000Y-117244298D03*
D22*
X186812500Y-116531798D03*
X186812500Y-116031798D03*
X186812500Y-115531798D03*
X186812500Y-115031798D03*
D23*
X186100000Y-114319298D03*
X185600000Y-114319298D03*
X185100000Y-114319298D03*
X184600000Y-114319298D03*
%TD*%
D24*
%TO.C,U19*%
X122442500Y-95541000D03*
X123712500Y-95541000D03*
X124982500Y-95541000D03*
X126252500Y-95541000D03*
X127522500Y-95541000D03*
X128792500Y-95541000D03*
X130062500Y-95541000D03*
X131332500Y-95541000D03*
X132602500Y-95541000D03*
X133872500Y-95541000D03*
X133872500Y-86241000D03*
X132602500Y-86241000D03*
X131332500Y-86241000D03*
X130062500Y-86241000D03*
X128792500Y-86241000D03*
X127522500Y-86241000D03*
X126252500Y-86241000D03*
X124982500Y-86241000D03*
X123712500Y-86241000D03*
X122442500Y-86241000D03*
%TD*%
D25*
%TO.C,C85*%
X188937500Y-100903500D03*
X188937500Y-100213500D03*
%TD*%
D26*
%TO.C,D6*%
X112940000Y-102011000D03*
X112940000Y-108811000D03*
%TD*%
D25*
%TO.C,C80*%
X151367500Y-98705000D03*
X151367500Y-98015000D03*
%TD*%
D27*
%TO.C,U11*%
X181470000Y-109821000D03*
X181470000Y-110621000D03*
D28*
X180520000Y-109471000D03*
X180520000Y-109971000D03*
X180520000Y-110471000D03*
X180520000Y-110971000D03*
X182420000Y-110971000D03*
X182420000Y-110471000D03*
X182420000Y-109971000D03*
X182420000Y-109471000D03*
%TD*%
D12*
%TO.C,C5_RETRY1*%
X131157500Y-128794000D03*
X132882500Y-128794000D03*
%TD*%
D29*
%TO.C,L20*%
X114840000Y-121570000D03*
X112715000Y-121570000D03*
%TD*%
D30*
%TO.C,U13*%
X181762500Y-88880000D03*
X181112500Y-88880000D03*
X180462500Y-88880000D03*
X180462500Y-90655000D03*
X181112500Y-90655000D03*
X181762500Y-90655000D03*
%TD*%
%TO.C,U28*%
X176602500Y-88910000D03*
X175952500Y-88910000D03*
X175302500Y-88910000D03*
X175302500Y-90685000D03*
X175952500Y-90685000D03*
X176602500Y-90685000D03*
%TD*%
D14*
%TO.C,U18*%
X111520000Y-77091000D03*
X111520000Y-78141000D03*
X112570000Y-77091000D03*
X112570000Y-78141000D03*
D15*
X110182500Y-76641000D03*
X110182500Y-77291000D03*
X110182500Y-77941000D03*
X110182500Y-78591000D03*
D16*
X111070000Y-79478500D03*
X111720000Y-79478500D03*
X112370000Y-79478500D03*
X113020000Y-79478500D03*
D15*
X113907500Y-78591000D03*
X113907500Y-77941000D03*
X113907500Y-77291000D03*
X113907500Y-76641000D03*
D16*
X113020000Y-75753500D03*
X112370000Y-75753500D03*
X111720000Y-75753500D03*
X111070000Y-75753500D03*
%TD*%
D30*
%TO.C,U2*%
X179182500Y-88882500D03*
X178532500Y-88882500D03*
X177882500Y-88882500D03*
X177882500Y-90657500D03*
X178532500Y-90657500D03*
X179182500Y-90657500D03*
%TD*%
D25*
%TO.C,C991*%
X164197500Y-98943500D03*
X164197500Y-98253500D03*
%TD*%
D31*
%TO.C,R82*%
X157380000Y-101087500D03*
X157380000Y-102912500D03*
%TD*%
D32*
%TO.C,R43*%
X119302500Y-80821000D03*
X121127500Y-80821000D03*
%TD*%
D27*
%TO.C,U10*%
X136607500Y-90681000D03*
X136607500Y-91481000D03*
D28*
X135657500Y-90331000D03*
X135657500Y-90831000D03*
X135657500Y-91331000D03*
X135657500Y-91831000D03*
X137557500Y-91831000D03*
X137557500Y-91331000D03*
X137557500Y-90831000D03*
X137557500Y-90331000D03*
%TD*%
D31*
%TO.C,R85*%
X156170000Y-93470000D03*
X156170000Y-95295000D03*
%TD*%
D32*
%TO.C,R87*%
X152552500Y-95380000D03*
X154377500Y-95380000D03*
%TD*%
D33*
%TO.C,R128*%
X164757500Y-135441000D03*
X166582500Y-135441000D03*
%TD*%
D34*
%TO.C,C105*%
X168745000Y-100133500D03*
X168055000Y-100133500D03*
%TD*%
D32*
%TO.C,R67*%
X152575000Y-97340000D03*
X154400000Y-97340000D03*
%TD*%
D35*
%TO.C,R19*%
X117300000Y-119513500D03*
X117300000Y-117688500D03*
%TD*%
D36*
%TO.C,C89*%
X163215000Y-107367500D03*
X163905000Y-107367500D03*
%TD*%
D12*
%TO.C,C25*%
X134697500Y-114474000D03*
X136422500Y-114474000D03*
%TD*%
D37*
%TO.C,R83*%
X155460000Y-102912500D03*
X155460000Y-101087500D03*
%TD*%
D32*
%TO.C,R48*%
X165390000Y-83428500D03*
X167215000Y-83428500D03*
%TD*%
D38*
%TO.C,U16*%
X140520654Y-118785857D03*
X140520654Y-119285857D03*
X140520654Y-119785857D03*
X140520654Y-120285857D03*
X140520654Y-120785857D03*
X140520654Y-121285857D03*
X140520654Y-121785857D03*
X140520654Y-122285857D03*
X140520654Y-122785857D03*
X140520654Y-123285857D03*
X140520654Y-123785857D03*
X140520654Y-124285857D03*
X140520654Y-124785857D03*
X140520654Y-125285857D03*
X140520654Y-125785857D03*
X140520654Y-126285857D03*
X140520654Y-126785857D03*
X140520654Y-127285857D03*
X140520654Y-127785857D03*
X140520654Y-128285857D03*
X140520654Y-128785857D03*
X140520654Y-129285857D03*
X140520654Y-129785857D03*
X140520654Y-130285857D03*
X140520654Y-130785857D03*
D39*
X142195654Y-132460857D03*
X142695654Y-132460857D03*
X143195654Y-132460857D03*
X143695654Y-132460857D03*
X144195654Y-132460857D03*
X144695654Y-132460857D03*
X145195654Y-132460857D03*
X145695654Y-132460857D03*
X146195654Y-132460857D03*
X146695654Y-132460857D03*
X147195654Y-132460857D03*
X147695654Y-132460857D03*
X148195654Y-132460857D03*
X148695654Y-132460857D03*
X149195654Y-132460857D03*
X149695654Y-132460857D03*
X150195654Y-132460857D03*
X150695654Y-132460857D03*
X151195654Y-132460857D03*
X151695654Y-132460857D03*
X152195654Y-132460857D03*
X152695654Y-132460857D03*
X153195654Y-132460857D03*
X153695654Y-132460857D03*
X154195654Y-132460857D03*
D38*
X155870654Y-130785857D03*
X155870654Y-130285857D03*
X155870654Y-129785857D03*
X155870654Y-129285857D03*
X155870654Y-128785857D03*
X155870654Y-128285857D03*
X155870654Y-127785857D03*
X155870654Y-127285857D03*
X155870654Y-126785857D03*
X155870654Y-126285857D03*
X155870654Y-125785857D03*
X155870654Y-125285857D03*
X155870654Y-124785857D03*
X155870654Y-124285857D03*
X155870654Y-123785857D03*
X155870654Y-123285857D03*
X155870654Y-122785857D03*
X155870654Y-122285857D03*
X155870654Y-121785857D03*
X155870654Y-121285857D03*
X155870654Y-120785857D03*
X155870654Y-120285857D03*
X155870654Y-119785857D03*
X155870654Y-119285857D03*
X155870654Y-118785857D03*
D39*
X154195654Y-117110857D03*
X153695654Y-117110857D03*
X153195654Y-117110857D03*
X152695654Y-117110857D03*
X152195654Y-117110857D03*
X151695654Y-117110857D03*
X151195654Y-117110857D03*
X150695654Y-117110857D03*
X150195654Y-117110857D03*
X149695654Y-117110857D03*
X149195654Y-117110857D03*
X148695654Y-117110857D03*
X148195654Y-117110857D03*
X147695654Y-117110857D03*
X147195654Y-117110857D03*
X146695654Y-117110857D03*
X146195654Y-117110857D03*
X145695654Y-117110857D03*
X145195654Y-117110857D03*
X144695654Y-117110857D03*
X144195654Y-117110857D03*
X143695654Y-117110857D03*
X143195654Y-117110857D03*
X142695654Y-117110857D03*
X142195654Y-117110857D03*
%TD*%
D40*
%TO.C,R35*%
X154605000Y-79006000D03*
X154605000Y-76081000D03*
%TD*%
D30*
%TO.C,U29*%
X174025000Y-88940000D03*
X173375000Y-88940000D03*
X172725000Y-88940000D03*
X172725000Y-90715000D03*
X173375000Y-90715000D03*
X174025000Y-90715000D03*
%TD*%
%TO.C,U26*%
X156000000Y-88967500D03*
X155350000Y-88967500D03*
X154700000Y-88967500D03*
X154700000Y-90742500D03*
X155350000Y-90742500D03*
X156000000Y-90742500D03*
%TD*%
D32*
%TO.C,R88*%
X155965000Y-97050000D03*
X157790000Y-97050000D03*
%TD*%
D41*
%TO.C,U3*%
X165855000Y-121818500D03*
X165855000Y-120548500D03*
X165855000Y-119278500D03*
X165855000Y-118008500D03*
X160905000Y-118008500D03*
X160905000Y-119278500D03*
X160905000Y-120548500D03*
X160905000Y-121818500D03*
%TD*%
D42*
%TO.C,RSR2*%
X166827500Y-94403500D03*
X162027500Y-94403500D03*
%TD*%
D31*
%TO.C,R81*%
X131380000Y-97667500D03*
X131380000Y-99492500D03*
%TD*%
D43*
%TO.C,IC8*%
X131210000Y-114424000D03*
X131210000Y-115074000D03*
X131210000Y-115724000D03*
X133310000Y-115724000D03*
X133310000Y-115074000D03*
X133310000Y-114424000D03*
D44*
X132260000Y-115074000D03*
%TD*%
D30*
%TO.C,U27*%
X168882500Y-88950000D03*
X168232500Y-88950000D03*
X167582500Y-88950000D03*
X167582500Y-90725000D03*
X168232500Y-90725000D03*
X168882500Y-90725000D03*
%TD*%
D31*
%TO.C,R65*%
X156090000Y-104475000D03*
X156090000Y-106300000D03*
%TD*%
D45*
%TO.C,L25*%
X170830000Y-100113500D03*
X179130000Y-100113500D03*
%TD*%
D36*
%TO.C,C65*%
X186915000Y-117944298D03*
X187605000Y-117944298D03*
%TD*%
D46*
%TO.C,C11*%
X171702500Y-117721000D03*
X169977500Y-117721000D03*
%TD*%
D47*
%TO.C,R4*%
X130980000Y-76098500D03*
X130980000Y-79023500D03*
%TD*%
D37*
%TO.C,R64*%
X158020000Y-106320000D03*
X158020000Y-104495000D03*
%TD*%
D40*
%TO.C,R39*%
X115800000Y-79031000D03*
X115800000Y-76106000D03*
%TD*%
D30*
%TO.C,U24*%
X163732500Y-88960000D03*
X163082500Y-88960000D03*
X162432500Y-88960000D03*
X162432500Y-90735000D03*
X163082500Y-90735000D03*
X163732500Y-90735000D03*
%TD*%
%TO.C,U23*%
X171462500Y-88942500D03*
X170812500Y-88942500D03*
X170162500Y-88942500D03*
X170162500Y-90717500D03*
X170812500Y-90717500D03*
X171462500Y-90717500D03*
%TD*%
D14*
%TO.C,U33*%
X168870000Y-77721000D03*
X168870000Y-78771000D03*
X169920000Y-77721000D03*
X169920000Y-78771000D03*
D15*
X167532500Y-77271000D03*
X167532500Y-77921000D03*
X167532500Y-78571000D03*
X167532500Y-79221000D03*
D16*
X168420000Y-80108500D03*
X169070000Y-80108500D03*
X169720000Y-80108500D03*
X170370000Y-80108500D03*
D15*
X171257500Y-79221000D03*
X171257500Y-78571000D03*
X171257500Y-77921000D03*
X171257500Y-77271000D03*
D16*
X170370000Y-76383500D03*
X169720000Y-76383500D03*
X169070000Y-76383500D03*
X168420000Y-76383500D03*
%TD*%
D48*
%TO.C,R47*%
X124757500Y-73811000D03*
X121832500Y-73811000D03*
%TD*%
D49*
%TO.C,R2_ILIM1*%
X168150000Y-122011000D03*
X168150000Y-124011000D03*
%TD*%
D50*
%TO.C,C68*%
X180020000Y-118840000D03*
X180020000Y-121790000D03*
%TD*%
D30*
%TO.C,U25*%
X161222500Y-88917500D03*
X160572500Y-88917500D03*
X159922500Y-88917500D03*
X159922500Y-90692500D03*
X160572500Y-90692500D03*
X161222500Y-90692500D03*
%TD*%
D35*
%TO.C,R17*%
X183860000Y-111163500D03*
X183860000Y-109338500D03*
%TD*%
D51*
%TO.C,Q200*%
X156945000Y-136396000D03*
X155045000Y-136396000D03*
X155995000Y-138271000D03*
%TD*%
D31*
%TO.C,R57*%
X106780000Y-90258500D03*
X106780000Y-92083500D03*
%TD*%
D52*
%TO.C,R7_ILIM1*%
X132855000Y-103037500D03*
X134855000Y-103037500D03*
%TD*%
D53*
%TO.C,C61*%
X108290000Y-101196000D03*
X108290000Y-102746000D03*
%TD*%
D47*
%TO.C,R40*%
X173167500Y-76798500D03*
X173167500Y-79723500D03*
%TD*%
D40*
%TO.C,R52*%
X165575000Y-79073500D03*
X165575000Y-76148500D03*
%TD*%
D54*
%TO.C,U221*%
X110655000Y-116008500D03*
X109385000Y-116008500D03*
X108115000Y-116008500D03*
X106845000Y-116008500D03*
X106845000Y-121408500D03*
X108115000Y-121408500D03*
X109385000Y-121408500D03*
X110655000Y-121408500D03*
D55*
X108750000Y-118708500D03*
%TD*%
D49*
%TO.C,R6_FAULT1*%
X134860000Y-116064000D03*
X134860000Y-118064000D03*
%TD*%
D56*
%TO.C,R33*%
X162410000Y-80841000D03*
X160585000Y-80841000D03*
%TD*%
D57*
%TO.C,D7*%
X175080000Y-68201000D03*
X179080000Y-68201000D03*
%TD*%
D58*
%TO.C,R5_ILIM1*%
X129490000Y-127634000D03*
X127490000Y-127634000D03*
%TD*%
D14*
%TO.C,U15*%
X179962500Y-77681000D03*
X179962500Y-78731000D03*
X181012500Y-77681000D03*
X181012500Y-78731000D03*
D15*
X178625000Y-77231000D03*
X178625000Y-77881000D03*
X178625000Y-78531000D03*
X178625000Y-79181000D03*
D16*
X179512500Y-80068500D03*
X180162500Y-80068500D03*
X180812500Y-80068500D03*
X181462500Y-80068500D03*
D15*
X182350000Y-79181000D03*
X182350000Y-78531000D03*
X182350000Y-77881000D03*
X182350000Y-77231000D03*
D16*
X181462500Y-76343500D03*
X180812500Y-76343500D03*
X180162500Y-76343500D03*
X179512500Y-76343500D03*
%TD*%
D13*
%TO.C,C66*%
X111750000Y-96320000D03*
X111750000Y-97280000D03*
%TD*%
D11*
%TO.C,D14*%
X136557500Y-121591000D03*
X137422500Y-121591000D03*
%TD*%
D59*
%TO.C,U6*%
X130010000Y-106581000D03*
X128740000Y-106581000D03*
X127470000Y-106581000D03*
X126200000Y-106581000D03*
X126200000Y-114074000D03*
X127470000Y-114074000D03*
X128740000Y-114074000D03*
X130010000Y-114074000D03*
%TD*%
D53*
%TO.C,C90*%
X109140000Y-123206000D03*
X109140000Y-124756000D03*
%TD*%
%TO.C,C91*%
X107630000Y-123196000D03*
X107630000Y-124746000D03*
%TD*%
D60*
%TO.C,R16*%
X145877500Y-95297500D03*
X145877500Y-97122500D03*
%TD*%
D29*
%TO.C,L1*%
X184625000Y-112760000D03*
X182500000Y-112760000D03*
%TD*%
%TO.C,L2*%
X114122500Y-99450000D03*
X111997500Y-99450000D03*
%TD*%
D32*
%TO.C,R31*%
X154345000Y-80841000D03*
X156170000Y-80841000D03*
%TD*%
D59*
%TO.C,U5*%
X129720000Y-118121000D03*
X128450000Y-118121000D03*
X127180000Y-118121000D03*
X125910000Y-118121000D03*
X125910000Y-125614000D03*
X127180000Y-125614000D03*
X128450000Y-125614000D03*
X129720000Y-125614000D03*
%TD*%
D11*
%TO.C,D1*%
X136557500Y-123091000D03*
X137422500Y-123091000D03*
%TD*%
D25*
%TO.C,C84*%
X188157500Y-100898500D03*
X188157500Y-100208500D03*
%TD*%
D61*
%TO.C,C82*%
X164187500Y-96623500D03*
X164187500Y-97313500D03*
%TD*%
D43*
%TO.C,IC7*%
X130980000Y-126064000D03*
X130980000Y-126714000D03*
X130980000Y-127364000D03*
X133080000Y-127364000D03*
X133080000Y-126714000D03*
X133080000Y-126064000D03*
D44*
X132030000Y-126714000D03*
%TD*%
D33*
%TO.C,R13*%
X177930000Y-115761000D03*
X179755000Y-115761000D03*
%TD*%
D30*
%TO.C,U30*%
X166312500Y-88952500D03*
X165662500Y-88952500D03*
X165012500Y-88952500D03*
X165012500Y-90727500D03*
X165662500Y-90727500D03*
X166312500Y-90727500D03*
%TD*%
D32*
%TO.C,R51*%
X142350000Y-80896000D03*
X144175000Y-80896000D03*
%TD*%
D49*
%TO.C,R5_FAULT1*%
X134620000Y-127764000D03*
X134620000Y-129764000D03*
%TD*%
D12*
%TO.C,C144*%
X158957200Y-131370999D03*
X160682200Y-131370999D03*
%TD*%
D32*
%TO.C,R25*%
X182065000Y-119040000D03*
X183890000Y-119040000D03*
%TD*%
D30*
%TO.C,U31*%
X158560000Y-88915000D03*
X157910000Y-88915000D03*
X157260000Y-88915000D03*
X157260000Y-90690000D03*
X157910000Y-90690000D03*
X158560000Y-90690000D03*
%TD*%
D27*
%TO.C,U14*%
X114920000Y-118181000D03*
X114920000Y-118981000D03*
D28*
X113970000Y-117831000D03*
X113970000Y-118331000D03*
X113970000Y-118831000D03*
X113970000Y-119331000D03*
X115870000Y-119331000D03*
X115870000Y-118831000D03*
X115870000Y-118331000D03*
X115870000Y-117831000D03*
%TD*%
D20*
%TO.C,R46*%
X144927500Y-73911000D03*
X147852500Y-73911000D03*
%TD*%
D14*
%TO.C,U4*%
X134280000Y-77081000D03*
X134280000Y-78131000D03*
X135330000Y-77081000D03*
X135330000Y-78131000D03*
D15*
X132942500Y-76631000D03*
X132942500Y-77281000D03*
X132942500Y-77931000D03*
X132942500Y-78581000D03*
D16*
X133830000Y-79468500D03*
X134480000Y-79468500D03*
X135130000Y-79468500D03*
X135780000Y-79468500D03*
D15*
X136667500Y-78581000D03*
X136667500Y-77931000D03*
X136667500Y-77281000D03*
X136667500Y-76631000D03*
D16*
X135780000Y-75743500D03*
X135130000Y-75743500D03*
X134480000Y-75743500D03*
X133830000Y-75743500D03*
%TD*%
D27*
%TO.C,U8*%
X155142500Y-113808500D03*
X155142500Y-114608500D03*
D28*
X154192500Y-113458500D03*
X154192500Y-113958500D03*
X154192500Y-114458500D03*
X154192500Y-114958500D03*
X156092500Y-114958500D03*
X156092500Y-114458500D03*
X156092500Y-113958500D03*
X156092500Y-113458500D03*
%TD*%
D37*
%TO.C,R571*%
X106750000Y-114163500D03*
X106750000Y-112338500D03*
%TD*%
D47*
%TO.C,R1*%
X184295000Y-76783500D03*
X184295000Y-79708500D03*
%TD*%
D37*
%TO.C,R60*%
X159960000Y-106322500D03*
X159960000Y-104497500D03*
%TD*%
D32*
%TO.C,R5*%
X130795000Y-80823500D03*
X132620000Y-80823500D03*
%TD*%
D62*
%TO.C,U114*%
X159894400Y-133000998D03*
X159894400Y-133501000D03*
X159894400Y-134000999D03*
X159894400Y-134500998D03*
X159894400Y-135001000D03*
X162790000Y-135001000D03*
X162790000Y-134500998D03*
X162790000Y-134000999D03*
X162790000Y-133501000D03*
X162790000Y-133000998D03*
%TD*%
D35*
%TO.C,R15*%
X157562500Y-115181000D03*
X157562500Y-113356000D03*
%TD*%
D46*
%TO.C,C26*%
X127900000Y-104397500D03*
X126175000Y-104397500D03*
%TD*%
D34*
%TO.C,D51*%
X157745000Y-99213500D03*
X157055000Y-99213500D03*
%TD*%
D33*
%TO.C,R14*%
X177940000Y-114191000D03*
X179765000Y-114191000D03*
%TD*%
D59*
%TO.C,U7*%
X132565000Y-112570500D03*
X133835000Y-112570500D03*
X135105000Y-112570500D03*
X136375000Y-112570500D03*
X136375000Y-105077500D03*
X135105000Y-105077500D03*
X133835000Y-105077500D03*
X132565000Y-105077500D03*
%TD*%
D47*
%TO.C,R41*%
X150140000Y-76166000D03*
X150140000Y-79091000D03*
%TD*%
D56*
%TO.C,R49*%
X150415000Y-80896000D03*
X148590000Y-80896000D03*
%TD*%
D63*
%TO.C,C94*%
X108820000Y-110761000D03*
X107270000Y-110761000D03*
%TD*%
D40*
%TO.C,R53*%
X142600000Y-79111000D03*
X142600000Y-76186000D03*
%TD*%
D43*
%TO.C,IC9*%
X131395000Y-104467500D03*
X131395000Y-103817500D03*
X131395000Y-103167500D03*
X129295000Y-103167500D03*
X129295000Y-103817500D03*
X129295000Y-104467500D03*
D44*
X130345000Y-103817500D03*
%TD*%
D31*
%TO.C,R59*%
X161890000Y-104500000D03*
X161890000Y-106325000D03*
%TD*%
D56*
%TO.C,R66*%
X154417500Y-99300000D03*
X152592500Y-99300000D03*
%TD*%
D34*
%TO.C,D52*%
X157752500Y-98443500D03*
X157062500Y-98443500D03*
%TD*%
D14*
%TO.C,U32*%
X122770000Y-77051000D03*
X122770000Y-78101000D03*
X123820000Y-77051000D03*
X123820000Y-78101000D03*
D15*
X121432500Y-76601000D03*
X121432500Y-77251000D03*
X121432500Y-77901000D03*
X121432500Y-78551000D03*
D16*
X122320000Y-79438500D03*
X122970000Y-79438500D03*
X123620000Y-79438500D03*
X124270000Y-79438500D03*
D15*
X125157500Y-78551000D03*
X125157500Y-77901000D03*
X125157500Y-77251000D03*
X125157500Y-76601000D03*
D16*
X124270000Y-75713500D03*
X123620000Y-75713500D03*
X122970000Y-75713500D03*
X122320000Y-75713500D03*
%TD*%
D53*
%TO.C,C63*%
X106800000Y-101146000D03*
X106800000Y-102696000D03*
%TD*%
D26*
%TO.C,D60*%
X113220000Y-124071000D03*
X113220000Y-130871000D03*
%TD*%
D40*
%TO.C,R36*%
X138600000Y-79076000D03*
X138600000Y-76151000D03*
%TD*%
D31*
%TO.C,R86*%
X160080000Y-93487500D03*
X160080000Y-95312500D03*
%TD*%
D32*
%TO.C,R22*%
X176495000Y-83413500D03*
X178320000Y-83413500D03*
%TD*%
D56*
%TO.C,R55*%
X183897500Y-120980000D03*
X182072500Y-120980000D03*
%TD*%
D64*
%TO.C,R2_FAULT1*%
X173480000Y-120951000D03*
X173480000Y-118951000D03*
%TD*%
D61*
%TO.C,C83*%
X163407500Y-96618500D03*
X163407500Y-97308500D03*
%TD*%
D32*
%TO.C,R44*%
X119302500Y-82761000D03*
X121127500Y-82761000D03*
%TD*%
D31*
%TO.C,R570*%
X108700000Y-112338500D03*
X108700000Y-114163500D03*
%TD*%
%TO.C,R80*%
X126100000Y-97627500D03*
X126100000Y-99452500D03*
%TD*%
D65*
%TO.C,C21*%
X176362500Y-114118500D03*
X176362500Y-115843500D03*
%TD*%
D35*
%TO.C,R18*%
X116740000Y-96493500D03*
X116740000Y-94668500D03*
%TD*%
D48*
%TO.C,R21*%
X136242500Y-73831000D03*
X133317500Y-73831000D03*
%TD*%
D25*
%TO.C,D50*%
X161690000Y-97195000D03*
X161690000Y-96505000D03*
%TD*%
D27*
%TO.C,U9*%
X148317500Y-96552500D03*
X148317500Y-95752500D03*
D66*
X149267500Y-96902500D03*
X149267500Y-96402500D03*
X149267500Y-95902500D03*
X149267500Y-95402500D03*
X147367500Y-95402500D03*
X147367500Y-95902500D03*
X147367500Y-96402500D03*
X147367500Y-96902500D03*
%TD*%
D30*
%TO.C,U1*%
X184355000Y-88890000D03*
X183705000Y-88890000D03*
X183055000Y-88890000D03*
X183055000Y-90665000D03*
X183705000Y-90665000D03*
X184355000Y-90665000D03*
%TD*%
D56*
%TO.C,R37*%
X116095000Y-80866000D03*
X114270000Y-80866000D03*
%TD*%
D32*
%TO.C,R32*%
X176485000Y-81503500D03*
X178310000Y-81503500D03*
%TD*%
D52*
%TO.C,FB1*%
X138740000Y-133091000D03*
X140740000Y-133091000D03*
%TD*%
D37*
%TO.C,R23*%
X182220000Y-117262500D03*
X182220000Y-115437500D03*
%TD*%
D32*
%TO.C,R50*%
X165397500Y-81488500D03*
X167222500Y-81488500D03*
%TD*%
D37*
%TO.C,R58*%
X108740000Y-92083500D03*
X108740000Y-90258500D03*
%TD*%
D43*
%TO.C,IC3*%
X169880000Y-119151000D03*
X169880000Y-119801000D03*
X169880000Y-120451000D03*
X171980000Y-120451000D03*
X171980000Y-119801000D03*
X171980000Y-119151000D03*
D44*
X170930000Y-119801000D03*
%TD*%
D20*
%TO.C,R12*%
X179062500Y-74426000D03*
X181987500Y-74426000D03*
%TD*%
D37*
%TO.C,R84*%
X158140000Y-95312500D03*
X158140000Y-93487500D03*
%TD*%
D67*
%TO.C,Q101*%
X168440000Y-103363500D03*
X168440000Y-102703500D03*
X168440000Y-102043500D03*
X168440000Y-101383500D03*
D68*
X166447500Y-102373500D03*
%TD*%
D54*
%TO.C,U21*%
X110435000Y-93961000D03*
X109165000Y-93961000D03*
X107895000Y-93961000D03*
X106625000Y-93961000D03*
X106625000Y-99361000D03*
X107895000Y-99361000D03*
X109165000Y-99361000D03*
X110435000Y-99361000D03*
D55*
X108530000Y-96661000D03*
%TD*%
D33*
%TO.C,R129*%
X164759700Y-133940999D03*
X166584700Y-133940999D03*
%TD*%
D27*
%TO.C,U12*%
X114310000Y-95011000D03*
X114310000Y-95811000D03*
D28*
X113360000Y-94661000D03*
X113360000Y-95161000D03*
X113360000Y-95661000D03*
X113360000Y-96161000D03*
X115260000Y-96161000D03*
X115260000Y-95661000D03*
X115260000Y-95161000D03*
X115260000Y-94661000D03*
%TD*%
D58*
%TO.C,R7_FAULT1*%
X127860000Y-102670000D03*
X125860000Y-102670000D03*
%TD*%
D12*
%TO.C,C43*%
X162299700Y-131370999D03*
X164024700Y-131370999D03*
%TD*%
D61*
%TO.C,C64*%
X188350000Y-117269298D03*
X188350000Y-117959298D03*
%TD*%
D40*
%TO.C,R34*%
X176715000Y-79698500D03*
X176715000Y-76773500D03*
%TD*%
D32*
%TO.C,R6*%
X130825000Y-82743500D03*
X132650000Y-82743500D03*
%TD*%
D53*
%TO.C,C62*%
X189000000Y-114445000D03*
X189000000Y-115995000D03*
%TD*%
D42*
%TO.C,RSR1*%
X186670000Y-100193500D03*
X181870000Y-100193500D03*
%TD*%
D69*
%TO.C,SW1*%
X132189999Y-120541002D03*
X133790001Y-120541002D03*
X133790001Y-124640998D03*
X132189999Y-124640998D03*
D70*
X131564999Y-122591000D03*
%TD*%
D46*
%TO.C,C7_RETRY1*%
X131220000Y-101767500D03*
X129495000Y-101767500D03*
%TD*%
D56*
%TO.C,R91*%
X170442500Y-93690000D03*
X168617500Y-93690000D03*
%TD*%
D12*
%TO.C,C6_RETRY1*%
X131367500Y-117144000D03*
X133092500Y-117144000D03*
%TD*%
D58*
%TO.C,R6_ILIM1*%
X129710000Y-116074000D03*
X127710000Y-116074000D03*
%TD*%
D32*
%TO.C,R38*%
X108040000Y-80846000D03*
X109865000Y-80846000D03*
%TD*%
D71*
%TO.C,C67*%
X113095000Y-92961000D03*
X114645000Y-92961000D03*
%TD*%
D51*
%TO.C,Q201*%
X141035000Y-136373500D03*
X139135000Y-136373500D03*
X140085000Y-138248500D03*
%TD*%
D12*
%TO.C,C22*%
X134477500Y-126134000D03*
X136202500Y-126134000D03*
%TD*%
D40*
%TO.C,R54*%
X127057500Y-78986000D03*
X127057500Y-76061000D03*
%TD*%
D67*
%TO.C,Q100*%
X168450000Y-98896000D03*
X168450000Y-98236000D03*
X168450000Y-97576000D03*
X168450000Y-96916000D03*
D68*
X166457500Y-97906000D03*
%TD*%
D72*
%TO.C,D53*%
X163810000Y-104270000D03*
X163810000Y-106470000D03*
%TD*%
D20*
%TO.C,R20*%
X156922500Y-73826000D03*
X159847500Y-73826000D03*
%TD*%
D47*
%TO.C,R2*%
X162125000Y-76063500D03*
X162125000Y-78988500D03*
%TD*%
%TO.C,R42*%
X119527500Y-76091000D03*
X119527500Y-79016000D03*
%TD*%
M02*
