%TF.GenerationSoftware,KiCad,Pcbnew,9.0.4*%
%TF.CreationDate,2025-12-11T07:36:02-07:00*%
%TF.ProjectId,command_data_handling_v0.5,636f6d6d-616e-4645-9f64-6174615f6861,v0.1*%
%TF.SameCoordinates,Original*%
%TF.FileFunction,Soldermask,Top*%
%TF.FilePolarity,Negative*%
%FSLAX46Y46*%
G04 Gerber Fmt 4.6, Leading zero omitted, Abs format (unit mm)*
G04 Created by KiCad (PCBNEW 9.0.4) date 2025-12-11 07:36:02*
%MOMM*%
%LPD*%
G01*
G04 APERTURE LIST*
G04 Aperture macros list*
%AMRoundRect*
0 Rectangle with rounded corners*
0 $1 Rounding radius*
0 $2 $3 $4 $5 $6 $7 $8 $9 X,Y pos of 4 corners*
0 Add a 4 corners polygon primitive as box body*
4,1,4,$2,$3,$4,$5,$6,$7,$8,$9,$2,$3,0*
0 Add four circle primitives for the rounded corners*
1,1,$1+$1,$2,$3*
1,1,$1+$1,$4,$5*
1,1,$1+$1,$6,$7*
1,1,$1+$1,$8,$9*
0 Add four rect primitives between the rounded corners*
20,1,$1+$1,$2,$3,$4,$5,0*
20,1,$1+$1,$4,$5,$6,$7,0*
20,1,$1+$1,$6,$7,$8,$9,0*
20,1,$1+$1,$8,$9,$2,$3,0*%
G04 Aperture macros list end*
%ADD10R,1.473200X0.533400*%
%ADD11R,1.475000X0.450000*%
%ADD12R,0.600000X0.350000*%
%ADD13R,1.100000X1.700000*%
%ADD14RoundRect,0.250000X0.450000X-0.350000X0.450000X0.350000X-0.450000X0.350000X-0.450000X-0.350000X0*%
%ADD15RoundRect,0.075000X-0.700000X-0.075000X0.700000X-0.075000X0.700000X0.075000X-0.700000X0.075000X0*%
%ADD16RoundRect,0.075000X-0.075000X-0.700000X0.075000X-0.700000X0.075000X0.700000X-0.075000X0.700000X0*%
%ADD17RoundRect,0.250000X-0.450000X0.350000X-0.450000X-0.350000X0.450000X-0.350000X0.450000X0.350000X0*%
%ADD18RoundRect,0.150000X0.587500X0.150000X-0.587500X0.150000X-0.587500X-0.150000X0.587500X-0.150000X0*%
%ADD19C,1.400000*%
%ADD20RoundRect,0.150000X0.150000X-0.825000X0.150000X0.825000X-0.150000X0.825000X-0.150000X-0.825000X0*%
%ADD21RoundRect,0.100000X-0.217500X-0.100000X0.217500X-0.100000X0.217500X0.100000X-0.217500X0.100000X0*%
%ADD22RoundRect,0.150000X0.150000X-0.587500X0.150000X0.587500X-0.150000X0.587500X-0.150000X-0.587500X0*%
%ADD23RoundRect,0.250000X0.350000X0.450000X-0.350000X0.450000X-0.350000X-0.450000X0.350000X-0.450000X0*%
%ADD24RoundRect,0.150000X-0.587500X-0.150000X0.587500X-0.150000X0.587500X0.150000X-0.587500X0.150000X0*%
%ADD25RoundRect,0.150000X-0.150000X0.587500X-0.150000X-0.587500X0.150000X-0.587500X0.150000X0.587500X0*%
%ADD26RoundRect,0.250000X-0.350000X-0.450000X0.350000X-0.450000X0.350000X0.450000X-0.350000X0.450000X0*%
%ADD27RoundRect,0.237500X-0.300000X-0.237500X0.300000X-0.237500X0.300000X0.237500X-0.300000X0.237500X0*%
%ADD28RoundRect,0.237500X-0.250000X-0.237500X0.250000X-0.237500X0.250000X0.237500X-0.250000X0.237500X0*%
%ADD29R,1.700000X1.700000*%
%ADD30C,1.700000*%
%ADD31R,0.900000X1.000000*%
%ADD32RoundRect,0.250000X0.650000X-1.000000X0.650000X1.000000X-0.650000X1.000000X-0.650000X-1.000000X0*%
%ADD33RoundRect,0.250000X-0.337500X-0.475000X0.337500X-0.475000X0.337500X0.475000X-0.337500X0.475000X0*%
%ADD34C,0.290000*%
%ADD35RoundRect,0.237500X0.300000X0.237500X-0.300000X0.237500X-0.300000X-0.237500X0.300000X-0.237500X0*%
%ADD36RoundRect,0.102000X0.695000X0.695000X-0.695000X0.695000X-0.695000X-0.695000X0.695000X-0.695000X0*%
%ADD37C,1.594000*%
%ADD38C,0.600000*%
%ADD39C,4.000000*%
G04 APERTURE END LIST*
D10*
%TO.C,U7*%
X180166000Y-104750000D03*
X180166000Y-106020000D03*
X180166000Y-107290000D03*
X180166000Y-108560000D03*
X187659000Y-108560000D03*
X187659000Y-107290000D03*
X187659000Y-106020000D03*
X187659000Y-104750000D03*
%TD*%
D11*
%TO.C,IC9*%
X167000000Y-109775000D03*
X167000000Y-109125000D03*
X167000000Y-108475000D03*
X167000000Y-107825000D03*
X167000000Y-107175000D03*
X167000000Y-106525000D03*
X167000000Y-105875000D03*
X167000000Y-105225000D03*
X161124000Y-105225000D03*
X161124000Y-105875000D03*
X161124000Y-106525000D03*
X161124000Y-107175000D03*
X161124000Y-107825000D03*
X161124000Y-108475000D03*
X161124000Y-109125000D03*
X161124000Y-109775000D03*
%TD*%
D12*
%TO.C,IC1*%
X140325000Y-97574982D03*
X140325000Y-96924982D03*
X140325000Y-96274982D03*
X138225000Y-96274982D03*
X138225000Y-96924982D03*
X138225000Y-97574982D03*
D13*
X139275000Y-96924982D03*
%TD*%
D14*
%TO.C,R48*%
X158099000Y-135899330D03*
X158099000Y-133899330D03*
%TD*%
D15*
%TO.C,U4*%
X170650000Y-129500000D03*
X170650000Y-130000000D03*
X170650000Y-130500000D03*
X170650000Y-131000000D03*
X170650000Y-131500000D03*
X170650000Y-132000000D03*
X170650000Y-132500000D03*
X170650000Y-133000000D03*
X170650000Y-133500000D03*
X170650000Y-134000000D03*
X170650000Y-134500000D03*
X170650000Y-135000000D03*
X170650000Y-135500000D03*
X170650000Y-136000000D03*
X170650000Y-136500000D03*
X170650000Y-137000000D03*
D16*
X172575000Y-138925000D03*
X173075000Y-138925000D03*
X173575000Y-138925000D03*
X174075000Y-138925000D03*
X174575000Y-138925000D03*
X175075000Y-138925000D03*
X175575000Y-138925000D03*
X176075000Y-138925000D03*
X176575000Y-138925000D03*
X177075000Y-138925000D03*
X177575000Y-138925000D03*
X178075000Y-138925000D03*
X178575000Y-138925000D03*
X179075000Y-138925000D03*
X179575000Y-138925000D03*
X180075000Y-138925000D03*
D15*
X182000000Y-137000000D03*
X182000000Y-136500000D03*
X182000000Y-136000000D03*
X182000000Y-135500000D03*
X182000000Y-135000000D03*
X182000000Y-134500000D03*
X182000000Y-134000000D03*
X182000000Y-133500000D03*
X182000000Y-133000000D03*
X182000000Y-132500000D03*
X182000000Y-132000000D03*
X182000000Y-131500000D03*
X182000000Y-131000000D03*
X182000000Y-130500000D03*
X182000000Y-130000000D03*
X182000000Y-129500000D03*
D16*
X180075000Y-127575000D03*
X179575000Y-127575000D03*
X179075000Y-127575000D03*
X178575000Y-127575000D03*
X178075000Y-127575000D03*
X177575000Y-127575000D03*
X177075000Y-127575000D03*
X176575000Y-127575000D03*
X176075000Y-127575000D03*
X175575000Y-127575000D03*
X175075000Y-127575000D03*
X174575000Y-127575000D03*
X174075000Y-127575000D03*
X173575000Y-127575000D03*
X173075000Y-127575000D03*
X172575000Y-127575000D03*
%TD*%
D17*
%TO.C,R2_ILIM1*%
X183036250Y-70250000D03*
X183036250Y-72250000D03*
%TD*%
D12*
%TO.C,IC4*%
X181286250Y-72800000D03*
X181286250Y-72150000D03*
X181286250Y-71500000D03*
X179186250Y-71500000D03*
X179186250Y-72150000D03*
X179186250Y-72800000D03*
D13*
X180236250Y-72150000D03*
%TD*%
D18*
%TO.C,Q12*%
X125568750Y-120250000D03*
X125568750Y-118350000D03*
X123693750Y-119300000D03*
%TD*%
D19*
%TO.C,JP2*%
X173500000Y-148000000D03*
X170960000Y-148000000D03*
%TD*%
D20*
%TO.C,U2*%
X185055029Y-84725000D03*
X186325029Y-84725000D03*
X187595029Y-84725000D03*
X188865029Y-84725000D03*
X188865029Y-79775000D03*
X187595029Y-79775000D03*
X186325029Y-79775000D03*
X185055029Y-79775000D03*
%TD*%
D12*
%TO.C,IC5*%
X181305029Y-82900000D03*
X181305029Y-82250000D03*
X181305029Y-81600000D03*
X179205029Y-81600000D03*
X179205029Y-82250000D03*
X179205029Y-82900000D03*
D13*
X180255029Y-82250000D03*
%TD*%
D18*
%TO.C,Q5*%
X113073660Y-124950000D03*
X113073660Y-123050000D03*
X111198660Y-124000000D03*
%TD*%
D21*
%TO.C,D3*%
X128935000Y-129500000D03*
X129750000Y-129500000D03*
%TD*%
D22*
%TO.C,Q9*%
X152399000Y-139836830D03*
X154299000Y-139836830D03*
X153349000Y-137961830D03*
%TD*%
D18*
%TO.C,Q17*%
X164937500Y-119950000D03*
X164937500Y-118050000D03*
X163062500Y-119000000D03*
%TD*%
D23*
%TO.C,R17*%
X153750000Y-92250000D03*
X151750000Y-92250000D03*
%TD*%
D24*
%TO.C,Q15*%
X131631250Y-118350000D03*
X131631250Y-120250000D03*
X133506250Y-119300000D03*
%TD*%
D21*
%TO.C,D4*%
X167910000Y-131000000D03*
X168725000Y-131000000D03*
%TD*%
D25*
%TO.C,Q2*%
X117036160Y-137000000D03*
X115136160Y-137000000D03*
X116086160Y-138875000D03*
%TD*%
D26*
%TO.C,R8*%
X136000000Y-143250000D03*
X138000000Y-143250000D03*
%TD*%
D22*
%TO.C,Q4*%
X111686160Y-138875000D03*
X113586160Y-138875000D03*
X112636160Y-137000000D03*
%TD*%
D27*
%TO.C,C3*%
X138462500Y-99074982D03*
X140187500Y-99074982D03*
%TD*%
D28*
%TO.C,R11*%
X178925000Y-112500000D03*
X180750000Y-112500000D03*
%TD*%
D19*
%TO.C,JP1*%
X123500000Y-148000000D03*
X126040000Y-148000000D03*
%TD*%
D29*
%TO.C,J2*%
X145200000Y-115720000D03*
D30*
X145200000Y-118260000D03*
X145200000Y-120800000D03*
X145200000Y-123340000D03*
X145200000Y-125880000D03*
%TD*%
D26*
%TO.C,R7*%
X176250000Y-143000000D03*
X178250000Y-143000000D03*
%TD*%
D17*
%TO.C,R4_FAULT1*%
X177500000Y-80250000D03*
X177500000Y-82250000D03*
%TD*%
D14*
%TO.C,R33*%
X111086160Y-135000000D03*
X111086160Y-133000000D03*
%TD*%
D31*
%TO.C,S2*%
X176650000Y-147500000D03*
X180750000Y-147500000D03*
X180750000Y-145900000D03*
X176650000Y-145900000D03*
%TD*%
D26*
%TO.C,R56*%
X127631250Y-118050000D03*
X129631250Y-118050000D03*
%TD*%
D24*
%TO.C,Q8*%
X156399000Y-127711830D03*
X156399000Y-129611830D03*
X158274000Y-128661830D03*
%TD*%
D18*
%TO.C,Q10*%
X153899000Y-125961830D03*
X153899000Y-124061830D03*
X152024000Y-125011830D03*
%TD*%
D27*
%TO.C,C24*%
X179423750Y-74250000D03*
X181148750Y-74250000D03*
%TD*%
D23*
%TO.C,R38*%
X117336160Y-124250000D03*
X115336160Y-124250000D03*
%TD*%
D32*
%TO.C,D8*%
X147250000Y-89500000D03*
X147250000Y-85500000D03*
%TD*%
D24*
%TO.C,Q16*%
X167200000Y-123600000D03*
X167200000Y-125500000D03*
X169075000Y-124550000D03*
%TD*%
D21*
%TO.C,D5*%
X167910000Y-130250000D03*
X168725000Y-130250000D03*
%TD*%
D32*
%TO.C,D7*%
X143750000Y-89500000D03*
X143750000Y-85500000D03*
%TD*%
D33*
%TO.C,C54*%
X156111500Y-131711830D03*
X158186500Y-131711830D03*
%TD*%
D29*
%TO.C,J3*%
X183800000Y-116580000D03*
D30*
X183800000Y-119120000D03*
X183800000Y-121660000D03*
X183800000Y-124200000D03*
X183800000Y-126740000D03*
%TD*%
D24*
%TO.C,Q20*%
X170862500Y-118050000D03*
X170862500Y-119950000D03*
X172737500Y-119000000D03*
%TD*%
D28*
%TO.C,R10*%
X178925000Y-111000000D03*
X180750000Y-111000000D03*
%TD*%
D15*
%TO.C,U3*%
X131650000Y-129500000D03*
X131650000Y-130000000D03*
X131650000Y-130500000D03*
X131650000Y-131000000D03*
X131650000Y-131500000D03*
X131650000Y-132000000D03*
X131650000Y-132500000D03*
X131650000Y-133000000D03*
X131650000Y-133500000D03*
X131650000Y-134000000D03*
X131650000Y-134500000D03*
X131650000Y-135000000D03*
X131650000Y-135500000D03*
X131650000Y-136000000D03*
X131650000Y-136500000D03*
X131650000Y-137000000D03*
D16*
X133575000Y-138925000D03*
X134075000Y-138925000D03*
X134575000Y-138925000D03*
X135075000Y-138925000D03*
X135575000Y-138925000D03*
X136075000Y-138925000D03*
X136575000Y-138925000D03*
X137075000Y-138925000D03*
X137575000Y-138925000D03*
X138075000Y-138925000D03*
X138575000Y-138925000D03*
X139075000Y-138925000D03*
X139575000Y-138925000D03*
X140075000Y-138925000D03*
X140575000Y-138925000D03*
X141075000Y-138925000D03*
D15*
X143000000Y-137000000D03*
X143000000Y-136500000D03*
X143000000Y-136000000D03*
X143000000Y-135500000D03*
X143000000Y-135000000D03*
X143000000Y-134500000D03*
X143000000Y-134000000D03*
X143000000Y-133500000D03*
X143000000Y-133000000D03*
X143000000Y-132500000D03*
X143000000Y-132000000D03*
X143000000Y-131500000D03*
X143000000Y-131000000D03*
X143000000Y-130500000D03*
X143000000Y-130000000D03*
X143000000Y-129500000D03*
D16*
X141075000Y-127575000D03*
X140575000Y-127575000D03*
X140075000Y-127575000D03*
X139575000Y-127575000D03*
X139075000Y-127575000D03*
X138575000Y-127575000D03*
X138075000Y-127575000D03*
X137575000Y-127575000D03*
X137075000Y-127575000D03*
X136575000Y-127575000D03*
X136075000Y-127575000D03*
X135575000Y-127575000D03*
X135075000Y-127575000D03*
X134575000Y-127575000D03*
X134075000Y-127575000D03*
X133575000Y-127575000D03*
%TD*%
D33*
%TO.C,C47*%
X111311160Y-130750000D03*
X113386160Y-130750000D03*
%TD*%
D25*
%TO.C,Q7*%
X157799000Y-137961830D03*
X155899000Y-137961830D03*
X156849000Y-139836830D03*
%TD*%
D23*
%TO.C,R57*%
X169000000Y-121800000D03*
X167000000Y-121800000D03*
%TD*%
D33*
%TO.C,C48*%
X115136160Y-130750000D03*
X117211160Y-130750000D03*
%TD*%
D34*
%TO.C,IC16*%
X122225000Y-91174982D03*
X122225000Y-91674982D03*
X122225000Y-92174982D03*
X122225000Y-92674982D03*
X122225000Y-93174982D03*
X122225000Y-93674982D03*
X122225000Y-94174982D03*
X122225000Y-94674982D03*
X122225000Y-95174982D03*
X122225000Y-95674982D03*
X122225000Y-96174982D03*
X122225000Y-96674982D03*
X122225000Y-97174982D03*
X122225000Y-97674982D03*
X121725000Y-91174982D03*
X121725000Y-91674982D03*
X121725000Y-92174982D03*
X121725000Y-92674982D03*
X121725000Y-93174982D03*
X121725000Y-93674982D03*
X121725000Y-94174982D03*
X121725000Y-94674982D03*
X121725000Y-95174982D03*
X121725000Y-95674982D03*
X121725000Y-96174982D03*
X121725000Y-96674982D03*
X121725000Y-97174982D03*
X121725000Y-97674982D03*
X121225000Y-91174982D03*
X121225000Y-91674982D03*
X121225000Y-92174982D03*
X121225000Y-92674982D03*
X121225000Y-93174982D03*
X121225000Y-93674982D03*
X121225000Y-94174982D03*
X121225000Y-94674982D03*
X121225000Y-95174982D03*
X121225000Y-95674982D03*
X121225000Y-96174982D03*
X121225000Y-96674982D03*
X121225000Y-97174982D03*
X121225000Y-97674982D03*
X120725000Y-91174982D03*
X120725000Y-91674982D03*
X120725000Y-92174982D03*
X120725000Y-92674982D03*
X120725000Y-96674982D03*
X120725000Y-97174982D03*
X120725000Y-97674982D03*
X120225000Y-91174982D03*
X120225000Y-91674982D03*
X120225000Y-92174982D03*
X120225000Y-93174982D03*
X120225000Y-93674982D03*
X120225000Y-94174982D03*
X120225000Y-94674982D03*
X120225000Y-95174982D03*
X120225000Y-95674982D03*
X120225000Y-96674982D03*
X120225000Y-97174982D03*
X120225000Y-97674982D03*
X119725000Y-91174982D03*
X119725000Y-91674982D03*
X119725000Y-92174982D03*
X119725000Y-93174982D03*
X119725000Y-95674982D03*
X119725000Y-96674982D03*
X119725000Y-97174982D03*
X119725000Y-97674982D03*
X119225000Y-91174982D03*
X119225000Y-91674982D03*
X119225000Y-92174982D03*
X119225000Y-93174982D03*
X119225000Y-95674982D03*
X119225000Y-96674982D03*
X119225000Y-97174982D03*
X119225000Y-97674982D03*
X118725000Y-91174982D03*
X118725000Y-91674982D03*
X118725000Y-92174982D03*
X118725000Y-93174982D03*
X118725000Y-95674982D03*
X118725000Y-96674982D03*
X118725000Y-97174982D03*
X118725000Y-97674982D03*
X118225000Y-91174982D03*
X118225000Y-91674982D03*
X118225000Y-92174982D03*
X118225000Y-93174982D03*
X118225000Y-95674982D03*
X118225000Y-96674982D03*
X118225000Y-97174982D03*
X118225000Y-97674982D03*
X117725000Y-91174982D03*
X117725000Y-91674982D03*
X117725000Y-92174982D03*
X117725000Y-93174982D03*
X117725000Y-93674982D03*
X117725000Y-94174982D03*
X117725000Y-94674982D03*
X117725000Y-95174982D03*
X117725000Y-95674982D03*
X117725000Y-96674982D03*
X117725000Y-97174982D03*
X117725000Y-97674982D03*
X117225000Y-91174982D03*
X117225000Y-91674982D03*
X117225000Y-92174982D03*
X117225000Y-96674982D03*
X117225000Y-97174982D03*
X117225000Y-97674982D03*
X116725000Y-91174982D03*
X116725000Y-91674982D03*
X116725000Y-92174982D03*
X116725000Y-92674982D03*
X116725000Y-93174982D03*
X116725000Y-93674982D03*
X116725000Y-94174982D03*
X116725000Y-94674982D03*
X116725000Y-95174982D03*
X116725000Y-95674982D03*
X116725000Y-96174982D03*
X116725000Y-96674982D03*
X116725000Y-97174982D03*
X116725000Y-97674982D03*
X116225000Y-91174982D03*
X116225000Y-91674982D03*
X116225000Y-92174982D03*
X116225000Y-92674982D03*
X116225000Y-93174982D03*
X116225000Y-93674982D03*
X116225000Y-94174982D03*
X116225000Y-94674982D03*
X116225000Y-95174982D03*
X116225000Y-95674982D03*
X116225000Y-96174982D03*
X116225000Y-96674982D03*
X116225000Y-97174982D03*
X116225000Y-97674982D03*
X115725000Y-91174982D03*
X115725000Y-91674982D03*
X115725000Y-92174982D03*
X115725000Y-92674982D03*
X115725000Y-93174982D03*
X115725000Y-93674982D03*
X115725000Y-94174982D03*
X115725000Y-94674982D03*
X115725000Y-95174982D03*
X115725000Y-95674982D03*
X115725000Y-96174982D03*
X115725000Y-96674982D03*
X115725000Y-97174982D03*
X115725000Y-97674982D03*
%TD*%
D18*
%TO.C,Q1*%
X113073660Y-128700000D03*
X113073660Y-126800000D03*
X111198660Y-127750000D03*
%TD*%
D23*
%TO.C,R58*%
X169000000Y-119800000D03*
X167000000Y-119800000D03*
%TD*%
D27*
%TO.C,C31*%
X148025000Y-92250000D03*
X149750000Y-92250000D03*
%TD*%
D35*
%TO.C,C4_RETRY1*%
X181180029Y-80000000D03*
X179455029Y-80000000D03*
%TD*%
D27*
%TO.C,C26*%
X179025000Y-114000000D03*
X180750000Y-114000000D03*
%TD*%
D20*
%TO.C,U1*%
X185018750Y-75070000D03*
X186288750Y-75070000D03*
X187558750Y-75070000D03*
X188828750Y-75070000D03*
X188828750Y-70120000D03*
X187558750Y-70120000D03*
X186288750Y-70120000D03*
X185018750Y-70120000D03*
%TD*%
D14*
%TO.C,R47*%
X156099000Y-135899330D03*
X156099000Y-133899330D03*
%TD*%
D27*
%TO.C,C58*%
X166937500Y-116000000D03*
X168662500Y-116000000D03*
%TD*%
%TO.C,C25*%
X179480029Y-84500000D03*
X181205029Y-84500000D03*
%TD*%
D14*
%TO.C,R37*%
X117136160Y-135000000D03*
X117136160Y-133000000D03*
%TD*%
D10*
%TO.C,U6*%
X180166000Y-98595000D03*
X180166000Y-99865000D03*
X180166000Y-101135000D03*
X180166000Y-102405000D03*
X187659000Y-102405000D03*
X187659000Y-101135000D03*
X187659000Y-99865000D03*
X187659000Y-98595000D03*
%TD*%
D23*
%TO.C,R49*%
X158149000Y-125211830D03*
X156149000Y-125211830D03*
%TD*%
D11*
%TO.C,IC11*%
X167000000Y-98300000D03*
X167000000Y-97650000D03*
X167000000Y-97000000D03*
X167000000Y-96350000D03*
X167000000Y-95700000D03*
X167000000Y-95050000D03*
X167000000Y-94400000D03*
X167000000Y-93750000D03*
X161124000Y-93750000D03*
X161124000Y-94400000D03*
X161124000Y-95050000D03*
X161124000Y-95700000D03*
X161124000Y-96350000D03*
X161124000Y-97000000D03*
X161124000Y-97650000D03*
X161124000Y-98300000D03*
%TD*%
D23*
%TO.C,R50*%
X129631250Y-122050000D03*
X127631250Y-122050000D03*
%TD*%
D17*
%TO.C,R2_FAULT1*%
X177536250Y-70250000D03*
X177536250Y-72250000D03*
%TD*%
%TO.C,R4_ILIM1*%
X182955029Y-80000000D03*
X182955029Y-82000000D03*
%TD*%
D35*
%TO.C,C30*%
X145600000Y-92000000D03*
X143875000Y-92000000D03*
%TD*%
D17*
%TO.C,R7_ILIM1*%
X142088095Y-95074982D03*
X142088095Y-97074982D03*
%TD*%
D35*
%TO.C,C2_RETRY1*%
X181148750Y-70000000D03*
X179423750Y-70000000D03*
%TD*%
D32*
%TO.C,D9*%
X150750000Y-89500000D03*
X150750000Y-85500000D03*
%TD*%
D27*
%TO.C,C56*%
X127656250Y-116300000D03*
X129381250Y-116300000D03*
%TD*%
D18*
%TO.C,Q6*%
X153899000Y-129661830D03*
X153899000Y-127761830D03*
X152024000Y-128711830D03*
%TD*%
D33*
%TO.C,C53*%
X152111500Y-131711830D03*
X154186500Y-131711830D03*
%TD*%
D17*
%TO.C,R7_FAULT1*%
X136588095Y-95324982D03*
X136588095Y-97324982D03*
%TD*%
D31*
%TO.C,S1*%
X116150000Y-147500000D03*
X120250000Y-147500000D03*
X120250000Y-145900000D03*
X116150000Y-145900000D03*
%TD*%
D21*
%TO.C,D2*%
X128935000Y-130250000D03*
X129750000Y-130250000D03*
%TD*%
D11*
%TO.C,IC10*%
X167000000Y-104025000D03*
X167000000Y-103375000D03*
X167000000Y-102725000D03*
X167000000Y-102075000D03*
X167000000Y-101425000D03*
X167000000Y-100775000D03*
X167000000Y-100125000D03*
X167000000Y-99475000D03*
X161124000Y-99475000D03*
X161124000Y-100125000D03*
X161124000Y-100775000D03*
X161124000Y-101425000D03*
X161124000Y-102075000D03*
X161124000Y-102725000D03*
X161124000Y-103375000D03*
X161124000Y-104025000D03*
%TD*%
D21*
%TO.C,D6*%
X167910000Y-129500000D03*
X168725000Y-129500000D03*
%TD*%
D23*
%TO.C,R9*%
X174500000Y-143000000D03*
X172500000Y-143000000D03*
%TD*%
%TO.C,R51*%
X129631250Y-120050000D03*
X127631250Y-120050000D03*
%TD*%
D14*
%TO.C,R44*%
X152099000Y-135899330D03*
X152099000Y-133899330D03*
%TD*%
D11*
%TO.C,IC15*%
X134723515Y-104299982D03*
X134723515Y-104949982D03*
X134723515Y-105599982D03*
X134723515Y-106249982D03*
X134723515Y-106899982D03*
X134723515Y-107549982D03*
X134723515Y-108199982D03*
X134723515Y-108849982D03*
X140599515Y-108849982D03*
X140599515Y-108199982D03*
X140599515Y-107549982D03*
X140599515Y-106899982D03*
X140599515Y-106249982D03*
X140599515Y-105599982D03*
X140599515Y-104949982D03*
X140599515Y-104299982D03*
%TD*%
D26*
%TO.C,R63*%
X167000000Y-117800000D03*
X169000000Y-117800000D03*
%TD*%
D14*
%TO.C,R46*%
X154099000Y-135899330D03*
X154099000Y-133899330D03*
%TD*%
D36*
%TO.C,J1*%
X124657500Y-77650000D03*
D37*
X124657500Y-80190000D03*
X127197500Y-77650000D03*
X127197500Y-80190000D03*
X129737500Y-77650000D03*
X129737500Y-80190000D03*
X132277500Y-77650000D03*
X132277500Y-80190000D03*
X134817500Y-77650000D03*
X134817500Y-80190000D03*
X137357500Y-77650000D03*
X137357500Y-80190000D03*
X139897500Y-77650000D03*
X139897500Y-80190000D03*
X142437500Y-77650000D03*
X142437500Y-80190000D03*
X144977500Y-77650000D03*
X144977500Y-80190000D03*
X147517500Y-77650000D03*
X147517500Y-80190000D03*
X150057500Y-77650000D03*
X150057500Y-80190000D03*
X152597500Y-77650000D03*
X152597500Y-80190000D03*
X155137500Y-77650000D03*
X155137500Y-80190000D03*
X157677500Y-77650000D03*
X157677500Y-80190000D03*
X160217500Y-77650000D03*
X160217500Y-80190000D03*
X162757500Y-77650000D03*
X162757500Y-80190000D03*
X165297500Y-77650000D03*
X165297500Y-80190000D03*
X167837500Y-77650000D03*
X167837500Y-80190000D03*
X170377500Y-77650000D03*
X170377500Y-80190000D03*
X172917500Y-77650000D03*
X172917500Y-80190000D03*
%TD*%
D21*
%TO.C,D1*%
X128935000Y-131000000D03*
X129750000Y-131000000D03*
%TD*%
D14*
%TO.C,R36*%
X115136160Y-135000000D03*
X115136160Y-133000000D03*
%TD*%
D10*
%TO.C,U5*%
X180169500Y-92505600D03*
X180169500Y-93775600D03*
X180169500Y-95045600D03*
X180169500Y-96315600D03*
X187662500Y-96315600D03*
X187662500Y-95045600D03*
X187662500Y-93775600D03*
X187662500Y-92505600D03*
%TD*%
D35*
%TO.C,C7_RETRY1*%
X140187500Y-94824982D03*
X138462500Y-94824982D03*
%TD*%
D14*
%TO.C,R35*%
X113086160Y-135000000D03*
X113086160Y-133000000D03*
%TD*%
D11*
%TO.C,IC12*%
X167000000Y-92525000D03*
X167000000Y-91875000D03*
X167000000Y-91225000D03*
X167000000Y-90575000D03*
X167000000Y-89925000D03*
X167000000Y-89275000D03*
X167000000Y-88625000D03*
X167000000Y-87975000D03*
X161124000Y-87975000D03*
X161124000Y-88625000D03*
X161124000Y-89275000D03*
X161124000Y-89925000D03*
X161124000Y-90575000D03*
X161124000Y-91225000D03*
X161124000Y-91875000D03*
X161124000Y-92525000D03*
%TD*%
D24*
%TO.C,Q11*%
X127756250Y-123850000D03*
X127756250Y-125750000D03*
X129631250Y-124800000D03*
%TD*%
%TO.C,Q3*%
X115448660Y-126800000D03*
X115448660Y-128700000D03*
X117323660Y-127750000D03*
%TD*%
D38*
X193150000Y-130950000D03*
X101850000Y-103000000D03*
X102850000Y-137000000D03*
X102850000Y-87000000D03*
X103850000Y-73000000D03*
X101850000Y-137000000D03*
X112416160Y-127700521D03*
X195150000Y-100950000D03*
X133850000Y-134825735D03*
X101850000Y-91000000D03*
X103850000Y-83000000D03*
X103850000Y-108000000D03*
X101850000Y-133000000D03*
X194150000Y-97950000D03*
X101850000Y-79000000D03*
X195150000Y-83950000D03*
X163100000Y-114600000D03*
X103850000Y-121000000D03*
X101850000Y-132000000D03*
X195150000Y-72950000D03*
X102850000Y-111000000D03*
X103850000Y-134000000D03*
X129400000Y-94900000D03*
X103850000Y-138000000D03*
X195150000Y-137950000D03*
X194150000Y-140950000D03*
X102850000Y-82000000D03*
X194150000Y-90950000D03*
X101850000Y-104000000D03*
X194150000Y-101950000D03*
X101850000Y-114000000D03*
X195150000Y-89950000D03*
X193150000Y-68950000D03*
X195150000Y-106950000D03*
X102850000Y-84000000D03*
X103850000Y-71000000D03*
X103850000Y-95000000D03*
X102850000Y-125000000D03*
X195150000Y-112950000D03*
X121725000Y-98712482D03*
X195150000Y-102950000D03*
X147300000Y-132600000D03*
X103850000Y-101000000D03*
X195150000Y-97950000D03*
X193150000Y-136950000D03*
X103850000Y-104000000D03*
X195150000Y-109950000D03*
X195150000Y-131950000D03*
X195150000Y-144950000D03*
X103850000Y-117000000D03*
X122881250Y-122050000D03*
X141200000Y-132100000D03*
X164500000Y-85000000D03*
X101850000Y-112000000D03*
X193150000Y-115950000D03*
X193150000Y-113950000D03*
X103850000Y-77000000D03*
X194150000Y-105950000D03*
X103850000Y-136000000D03*
X195150000Y-99950000D03*
X173100000Y-73600000D03*
X194150000Y-86950000D03*
X193150000Y-85950000D03*
X195150000Y-138950000D03*
X102850000Y-136000000D03*
X103850000Y-141000000D03*
X163200000Y-134900000D03*
X101850000Y-136000000D03*
X193150000Y-97950000D03*
X195150000Y-107950000D03*
X193150000Y-134950000D03*
X195150000Y-133950000D03*
X118336160Y-119550000D03*
X102850000Y-80000000D03*
X103850000Y-103000000D03*
X159436500Y-120211830D03*
X194150000Y-112950000D03*
X101850000Y-97000000D03*
X193150000Y-137950000D03*
X102850000Y-91000000D03*
X133250000Y-130750000D03*
X102850000Y-140000000D03*
X195150000Y-104950000D03*
X194150000Y-96950000D03*
X194150000Y-137950000D03*
X152600000Y-101000000D03*
X102850000Y-95000000D03*
X193150000Y-117950000D03*
X195150000Y-122950000D03*
X194150000Y-82950000D03*
X103850000Y-119000000D03*
X195150000Y-113950000D03*
X162300000Y-128700000D03*
X194150000Y-129950000D03*
X195150000Y-74950000D03*
X101850000Y-95000000D03*
X162400000Y-84900000D03*
X194150000Y-68950000D03*
X194150000Y-113950000D03*
X152600000Y-102700000D03*
X148000000Y-102700000D03*
X101850000Y-88000000D03*
X102850000Y-83000000D03*
X194150000Y-87950000D03*
X194150000Y-73950000D03*
X195150000Y-143950000D03*
X193150000Y-95950000D03*
X193150000Y-83950000D03*
X194150000Y-136950000D03*
X194150000Y-138950000D03*
X144300000Y-106500000D03*
X101850000Y-69000000D03*
X102850000Y-127000000D03*
X101850000Y-116000000D03*
X149200000Y-96500000D03*
X103850000Y-105000000D03*
X148900000Y-113600000D03*
X141000000Y-140250000D03*
X133881250Y-120300000D03*
X101850000Y-83000000D03*
X193150000Y-99950000D03*
X172250000Y-130750000D03*
X181100000Y-117000000D03*
X103850000Y-100000000D03*
X193150000Y-112950000D03*
X102850000Y-104000000D03*
X147400000Y-139500000D03*
X193150000Y-72950000D03*
X194150000Y-98950000D03*
X102850000Y-96000000D03*
X193150000Y-77950000D03*
X193150000Y-143950000D03*
X101850000Y-75000000D03*
X193150000Y-94950000D03*
X102850000Y-105000000D03*
X103850000Y-120000000D03*
X145400000Y-95900000D03*
X195150000Y-142950000D03*
X194150000Y-83950000D03*
X101850000Y-72000000D03*
X194150000Y-125950000D03*
X193150000Y-141950000D03*
X103850000Y-93000000D03*
X103850000Y-107000000D03*
X194150000Y-89950000D03*
X194150000Y-104950000D03*
X103850000Y-86000000D03*
X193150000Y-140950000D03*
X193150000Y-135950000D03*
X194150000Y-142950000D03*
X194150000Y-127950000D03*
X102850000Y-108000000D03*
X177200000Y-112000000D03*
X103850000Y-91000000D03*
X193150000Y-109950000D03*
X173900000Y-83600000D03*
X194150000Y-74950000D03*
X194150000Y-133950000D03*
X162600000Y-113100000D03*
X195150000Y-101950000D03*
X177000000Y-130000000D03*
X194150000Y-77950000D03*
X102850000Y-76000000D03*
X186286250Y-76750000D03*
X103850000Y-139000000D03*
X103850000Y-124000000D03*
X102850000Y-118000000D03*
X168250000Y-99250000D03*
X116114205Y-128002285D03*
X182955029Y-83150000D03*
X102850000Y-70000000D03*
X193150000Y-103950000D03*
X103850000Y-106000000D03*
X193150000Y-76950000D03*
X184813500Y-96200000D03*
X103850000Y-72000000D03*
X195150000Y-141950000D03*
X194150000Y-80950000D03*
X194150000Y-128950000D03*
X195150000Y-86950000D03*
X170000000Y-116000000D03*
X178475000Y-93100000D03*
X122700000Y-127000000D03*
X114046000Y-140208000D03*
X193150000Y-128950000D03*
X195150000Y-69950000D03*
X146750000Y-92250000D03*
X102850000Y-130000000D03*
X194150000Y-139950000D03*
X194150000Y-79950000D03*
X101850000Y-140000000D03*
X102850000Y-117000000D03*
X101850000Y-93000000D03*
X102850000Y-134000000D03*
X101850000Y-139000000D03*
X101850000Y-74000000D03*
X194150000Y-108950000D03*
X153750000Y-90750000D03*
X194150000Y-106950000D03*
X139098207Y-120450566D03*
X102850000Y-145000000D03*
X193150000Y-86950000D03*
X141738615Y-130299920D03*
X102850000Y-93000000D03*
X194150000Y-71950000D03*
X101850000Y-125000000D03*
X193150000Y-133950000D03*
X195150000Y-111950000D03*
X133300000Y-97500000D03*
X128425000Y-108825000D03*
X102850000Y-75000000D03*
X101850000Y-143000000D03*
X121600000Y-116600000D03*
X101850000Y-86000000D03*
X195150000Y-130950000D03*
X195150000Y-78950000D03*
X102850000Y-69000000D03*
X101850000Y-71000000D03*
X101850000Y-87000000D03*
X101850000Y-115000000D03*
X101850000Y-124000000D03*
X194150000Y-121950000D03*
X141250000Y-134000000D03*
X103850000Y-114000000D03*
X103850000Y-144000000D03*
X114725000Y-86462482D03*
X155900000Y-90800000D03*
X150300000Y-102700000D03*
X159936500Y-136711830D03*
X194150000Y-75950000D03*
X193150000Y-78950000D03*
X101850000Y-77000000D03*
X103850000Y-79000000D03*
X193150000Y-81950000D03*
X180750000Y-115400000D03*
X101850000Y-110000000D03*
X193150000Y-129950000D03*
X173218700Y-141010793D03*
X194150000Y-117950000D03*
X102850000Y-101000000D03*
X185365515Y-105165515D03*
X103850000Y-135000000D03*
X193150000Y-116950000D03*
X194150000Y-85950000D03*
X193150000Y-79950000D03*
X194150000Y-102950000D03*
X117904752Y-109200690D03*
X183036250Y-73500000D03*
X101850000Y-113000000D03*
X150300000Y-104400000D03*
X135400000Y-90100000D03*
X103850000Y-76000000D03*
X102850000Y-121000000D03*
X102850000Y-107000000D03*
X193150000Y-74950000D03*
X113425000Y-95825000D03*
X195150000Y-132950000D03*
X101850000Y-129000000D03*
X101850000Y-76000000D03*
X193150000Y-96950000D03*
X195150000Y-73950000D03*
X194150000Y-103950000D03*
X102850000Y-73000000D03*
X193150000Y-101950000D03*
X102850000Y-98000000D03*
X151300000Y-96500000D03*
X103850000Y-112000000D03*
X193150000Y-98950000D03*
X193150000Y-104950000D03*
X118725000Y-86462482D03*
X101850000Y-100000000D03*
X101850000Y-117000000D03*
X153241500Y-128700510D03*
X101850000Y-89000000D03*
X194150000Y-131950000D03*
X195150000Y-71950000D03*
X102850000Y-131000000D03*
X194150000Y-118950000D03*
X101850000Y-134000000D03*
X102850000Y-138000000D03*
X101850000Y-90000000D03*
X195150000Y-136950000D03*
X180750000Y-144750000D03*
X102850000Y-129000000D03*
X102850000Y-106000000D03*
X155224000Y-123117229D03*
X186300000Y-119800000D03*
X195150000Y-119950000D03*
X112086160Y-120550000D03*
X195150000Y-76950000D03*
X102850000Y-142000000D03*
X101850000Y-131000000D03*
X195150000Y-108950000D03*
X173000000Y-74800000D03*
X103850000Y-80000000D03*
X168250000Y-105000000D03*
X173200000Y-84200000D03*
X113000000Y-90024982D03*
X171975000Y-96350000D03*
X147400000Y-137900000D03*
X102850000Y-86000000D03*
X101850000Y-119000000D03*
X103850000Y-88000000D03*
X101850000Y-120000000D03*
X102850000Y-120000000D03*
X195150000Y-77950000D03*
X103850000Y-97000000D03*
X195150000Y-139950000D03*
X101850000Y-78000000D03*
X179018190Y-136949857D03*
X148000000Y-115700000D03*
X101850000Y-144000000D03*
X101850000Y-85000000D03*
X178750000Y-102250000D03*
X150300000Y-101000000D03*
X103850000Y-129000000D03*
X102850000Y-123000000D03*
X103850000Y-125000000D03*
X102850000Y-116000000D03*
X193150000Y-144950000D03*
X103850000Y-109000000D03*
X147100000Y-131500000D03*
X162250000Y-121750000D03*
X101850000Y-80000000D03*
X193150000Y-88950000D03*
X194150000Y-81950000D03*
X194150000Y-72950000D03*
X193150000Y-87950000D03*
X102850000Y-89000000D03*
X195150000Y-125950000D03*
X194150000Y-126950000D03*
X153874000Y-121285905D03*
X195150000Y-115950000D03*
X160300000Y-143000000D03*
X101850000Y-122000000D03*
X135779815Y-137664566D03*
X101850000Y-126000000D03*
X103850000Y-127000000D03*
X195150000Y-75950000D03*
X194150000Y-110950000D03*
X193150000Y-122950000D03*
X193150000Y-110950000D03*
X195150000Y-140950000D03*
X101850000Y-135000000D03*
X101850000Y-118000000D03*
X101850000Y-128000000D03*
X194150000Y-132950000D03*
X195150000Y-129950000D03*
X102850000Y-88000000D03*
X103850000Y-145000000D03*
X101850000Y-123000000D03*
X102850000Y-110000000D03*
X194150000Y-69950000D03*
X103850000Y-89000000D03*
X103850000Y-82000000D03*
X102850000Y-71000000D03*
X121000000Y-145750000D03*
X180462733Y-130462734D03*
X101850000Y-109000000D03*
X195150000Y-84950000D03*
X101850000Y-127000000D03*
X102850000Y-133000000D03*
X193150000Y-69950000D03*
X101850000Y-111000000D03*
X101850000Y-105000000D03*
X152600000Y-104400000D03*
X193150000Y-124950000D03*
X194150000Y-134950000D03*
X195150000Y-121950000D03*
X194150000Y-84950000D03*
X103850000Y-81000000D03*
X103850000Y-113000000D03*
X101850000Y-107000000D03*
X176700000Y-115500000D03*
X123600000Y-128400000D03*
X165800000Y-84700000D03*
X179250000Y-79000000D03*
X102850000Y-109000000D03*
X155186500Y-140211830D03*
X138338095Y-93824982D03*
X130631250Y-116300000D03*
X194150000Y-119950000D03*
X168250000Y-93500000D03*
X194150000Y-94950000D03*
X102850000Y-78000000D03*
X193150000Y-142950000D03*
X193150000Y-91950000D03*
X103850000Y-94000000D03*
X194150000Y-135950000D03*
X102850000Y-113000000D03*
X102850000Y-81000000D03*
X194150000Y-111950000D03*
X117725000Y-99212482D03*
X148000000Y-104400000D03*
X103850000Y-128000000D03*
X103850000Y-92000000D03*
X193150000Y-125950000D03*
X132200000Y-86900000D03*
X147000000Y-141300000D03*
X194150000Y-100950000D03*
X164600000Y-136700000D03*
X101850000Y-98000000D03*
X125800000Y-102200000D03*
X193150000Y-107950000D03*
X194150000Y-99950000D03*
X188200000Y-115500000D03*
X193150000Y-75950000D03*
X103850000Y-116000000D03*
X193150000Y-102950000D03*
X101850000Y-138000000D03*
X193150000Y-93950000D03*
X194150000Y-130950000D03*
X103850000Y-142000000D03*
X102850000Y-72000000D03*
X147200000Y-142800000D03*
X193150000Y-89950000D03*
X143100000Y-106300000D03*
X194150000Y-95950000D03*
X172225000Y-102900000D03*
X101850000Y-82000000D03*
X103850000Y-131000000D03*
X101850000Y-121000000D03*
X102850000Y-90000000D03*
X103850000Y-75000000D03*
X193150000Y-108950000D03*
X195150000Y-96950000D03*
X193150000Y-90950000D03*
X178475000Y-105700000D03*
X102850000Y-74000000D03*
X195150000Y-79950000D03*
X193150000Y-138950000D03*
X193150000Y-120950000D03*
X195150000Y-124950000D03*
X139700000Y-132000000D03*
X119336160Y-136050000D03*
X195150000Y-123950000D03*
X103850000Y-137000000D03*
X194150000Y-76950000D03*
X173000000Y-120000000D03*
X102850000Y-85000000D03*
X103850000Y-118000000D03*
X113475000Y-94174982D03*
X195150000Y-110950000D03*
X194150000Y-88950000D03*
X194150000Y-115950000D03*
X103850000Y-74000000D03*
X194150000Y-120950000D03*
X193150000Y-106950000D03*
X102850000Y-114000000D03*
X130000000Y-98900000D03*
X103850000Y-98000000D03*
X103850000Y-70000000D03*
X195150000Y-94950000D03*
X193150000Y-92950000D03*
X102850000Y-126000000D03*
X133411515Y-108924982D03*
X195150000Y-120950000D03*
X103850000Y-122000000D03*
X101850000Y-99000000D03*
X162600000Y-129900000D03*
X102850000Y-143000000D03*
X193150000Y-82950000D03*
X102850000Y-144000000D03*
X103850000Y-143000000D03*
X102850000Y-100000000D03*
X102850000Y-92000000D03*
X193150000Y-111950000D03*
X118725000Y-90674982D03*
X193150000Y-84950000D03*
X195150000Y-105950000D03*
X193150000Y-132950000D03*
X194150000Y-144950000D03*
X193150000Y-139950000D03*
X195150000Y-95950000D03*
X195150000Y-116950000D03*
X195150000Y-118950000D03*
X193150000Y-119950000D03*
X195150000Y-127950000D03*
X134000000Y-140500000D03*
X123081000Y-95268761D03*
X193150000Y-123950000D03*
X193150000Y-126950000D03*
X103850000Y-123000000D03*
X194150000Y-122950000D03*
X102850000Y-132000000D03*
X140200000Y-142600000D03*
X102850000Y-139000000D03*
X101850000Y-81000000D03*
X134000000Y-94700000D03*
X150400000Y-142000000D03*
X102850000Y-77000000D03*
X103850000Y-90000000D03*
X195150000Y-91950000D03*
X102850000Y-135000000D03*
X173700000Y-71200000D03*
X195150000Y-85950000D03*
X195150000Y-81950000D03*
X193150000Y-70950000D03*
X102850000Y-79000000D03*
X194150000Y-114950000D03*
X103850000Y-87000000D03*
X174779815Y-137664566D03*
X143200000Y-140200000D03*
X101850000Y-108000000D03*
X103850000Y-130000000D03*
X193150000Y-105950000D03*
X193150000Y-127950000D03*
X101850000Y-141000000D03*
X172850000Y-134750000D03*
X172549265Y-126299265D03*
X194150000Y-93950000D03*
X103850000Y-69000000D03*
X102850000Y-122000000D03*
X120225000Y-90674982D03*
X102850000Y-99000000D03*
X161900000Y-114200000D03*
X135700000Y-134300000D03*
X103850000Y-140000000D03*
X193150000Y-131950000D03*
X195150000Y-128950000D03*
X180250000Y-134000000D03*
X115700000Y-89800000D03*
X102850000Y-141000000D03*
X195150000Y-98950000D03*
X147400000Y-130700000D03*
X195150000Y-68950000D03*
X102850000Y-103000000D03*
X178750000Y-96250000D03*
X194150000Y-123950000D03*
X103850000Y-99000000D03*
X103850000Y-126000000D03*
X102850000Y-128000000D03*
X193150000Y-114950000D03*
X103850000Y-96000000D03*
X193150000Y-121950000D03*
X101850000Y-130000000D03*
X195150000Y-92950000D03*
X178300000Y-116500000D03*
X103850000Y-115000000D03*
X102850000Y-112000000D03*
X185127320Y-98815500D03*
X163200000Y-139500000D03*
X103850000Y-85000000D03*
X163500000Y-142500000D03*
X101850000Y-94000000D03*
X178400000Y-133800000D03*
X195150000Y-88950000D03*
X101850000Y-92000000D03*
X103850000Y-102000000D03*
X114535424Y-122350846D03*
X195150000Y-114950000D03*
X102850000Y-102000000D03*
X101850000Y-73000000D03*
X194150000Y-78950000D03*
X193150000Y-118950000D03*
X195150000Y-103950000D03*
X195150000Y-87950000D03*
X101850000Y-106000000D03*
X195150000Y-135950000D03*
X194150000Y-143950000D03*
X149200000Y-130500000D03*
X127700000Y-102300000D03*
X101850000Y-101000000D03*
X103850000Y-84000000D03*
X193150000Y-100950000D03*
X101850000Y-96000000D03*
X194150000Y-92950000D03*
X101850000Y-102000000D03*
X165300000Y-89300000D03*
X169100000Y-87200000D03*
X102850000Y-124000000D03*
X126700000Y-102200000D03*
X129000000Y-85700000D03*
X177300000Y-113200000D03*
X168250000Y-87750000D03*
X194150000Y-116950000D03*
X194150000Y-70950000D03*
X193150000Y-73950000D03*
X172225000Y-108950000D03*
X138250000Y-129500000D03*
X195150000Y-82950000D03*
X101850000Y-70000000D03*
X102850000Y-115000000D03*
X194150000Y-107950000D03*
X178475000Y-99400000D03*
X177300000Y-102800000D03*
X148000000Y-101000000D03*
X122900000Y-116200000D03*
X157000000Y-128900000D03*
X195150000Y-80950000D03*
X193150000Y-71950000D03*
X102850000Y-119000000D03*
X177481671Y-120036657D03*
X102850000Y-97000000D03*
X194150000Y-109950000D03*
X194150000Y-124950000D03*
X195150000Y-126950000D03*
X102850000Y-94000000D03*
X142088095Y-98074982D03*
X186305029Y-86500000D03*
X101850000Y-145000000D03*
X194150000Y-91950000D03*
X194150000Y-141950000D03*
X195150000Y-90950000D03*
X101850000Y-142000000D03*
X195150000Y-70950000D03*
X139200000Y-134200000D03*
X195150000Y-117950000D03*
X103850000Y-78000000D03*
X195150000Y-93950000D03*
X101850000Y-84000000D03*
X195150000Y-134950000D03*
X178750000Y-108500000D03*
X103850000Y-111000000D03*
X103850000Y-133000000D03*
X124225000Y-86462482D03*
X174400000Y-81900000D03*
X158200000Y-143200000D03*
X132674265Y-126674265D03*
X103850000Y-110000000D03*
X103850000Y-132000000D03*
X179286250Y-69000000D03*
X193150000Y-80950000D03*
X141850000Y-123200000D03*
X134734131Y-137713877D03*
X141750000Y-129500000D03*
X134500000Y-129250000D03*
X141250000Y-137750000D03*
X181250000Y-79000000D03*
X186150000Y-131500000D03*
X170612235Y-90362235D03*
X170750000Y-88500000D03*
X118650000Y-121882105D03*
X124495693Y-135932000D03*
X125348000Y-128420191D03*
X115000000Y-147500000D03*
X134750000Y-119250000D03*
X127252791Y-132601320D03*
X170750000Y-87699997D03*
X138573530Y-104962967D03*
X138325000Y-106411497D03*
X138874198Y-102364001D03*
X137360039Y-101160039D03*
X152250000Y-141500000D03*
X141000000Y-116500000D03*
X176250000Y-72250000D03*
X142500000Y-85500000D03*
X159100001Y-106043728D03*
X116000000Y-140250000D03*
X142726570Y-113580000D03*
X180000000Y-86000000D03*
X156750000Y-141000000D03*
X176481000Y-82100000D03*
X112268000Y-140208000D03*
X159000000Y-105250000D03*
X157597128Y-85579000D03*
X178000000Y-141750000D03*
X181150000Y-123800000D03*
X180250000Y-137750000D03*
X180750000Y-129500000D03*
X172750000Y-129500000D03*
X173500000Y-137750000D03*
X175750000Y-147500000D03*
X164685569Y-127587042D03*
X179809622Y-126209622D03*
X173250000Y-118250000D03*
X176902000Y-84999000D03*
X164948528Y-113100000D03*
X135275000Y-97449247D03*
X171000000Y-98000000D03*
X173750000Y-90500000D03*
X182250000Y-92750000D03*
X181564782Y-106532500D03*
X136600000Y-131400000D03*
X174499000Y-84999000D03*
X163775735Y-113624265D03*
X118492462Y-92667886D03*
X162750000Y-105500000D03*
X182242900Y-100498306D03*
X171800000Y-128200000D03*
X171250000Y-103750000D03*
X161200000Y-138600000D03*
X170200000Y-83400000D03*
X171400000Y-84000000D03*
X149600000Y-93700000D03*
X128641600Y-104175598D03*
X135811515Y-104368402D03*
X117960525Y-104110525D03*
X119475000Y-90674982D03*
X113690190Y-90366896D03*
X114725000Y-97424982D03*
X120725000Y-93462482D03*
X113975000Y-93174982D03*
X117725000Y-98462482D03*
X139000000Y-142000000D03*
X123900000Y-140750000D03*
X125100000Y-142000000D03*
X161950735Y-143650000D03*
X163521416Y-145632000D03*
X149026265Y-124572265D03*
X151500000Y-116350000D03*
X133000000Y-135500000D03*
X159750000Y-109750000D03*
X110475000Y-103625000D03*
X160000000Y-98250000D03*
X121230988Y-103681788D03*
X159750000Y-104000000D03*
X160000000Y-92500000D03*
X145400000Y-93800000D03*
X158560998Y-85579000D03*
X139343266Y-103056734D03*
X127750000Y-130250000D03*
X128239621Y-129617326D03*
X167250000Y-131000000D03*
X167250000Y-129500000D03*
X172000000Y-135500000D03*
X131400000Y-128000000D03*
X169624265Y-127975735D03*
X140000000Y-137750000D03*
X179000000Y-137750000D03*
X123475000Y-90674982D03*
X133250000Y-124500000D03*
X127631250Y-115300000D03*
X172415687Y-124550000D03*
X113400000Y-95000000D03*
X139400000Y-107000000D03*
X166000000Y-115750000D03*
X128259093Y-130867112D03*
X124225000Y-94875000D03*
X166971609Y-130250002D03*
X136000000Y-108200000D03*
X117225000Y-92924982D03*
X124225000Y-92774991D03*
X124871917Y-90838724D03*
X122800000Y-91200000D03*
X123975000Y-85161482D03*
X120925003Y-90674982D03*
X117725000Y-90674982D03*
X124225000Y-93474994D03*
X124225000Y-95575003D03*
X124225000Y-94174997D03*
X171629710Y-110620283D03*
X178874000Y-131949997D03*
X180074000Y-131699997D03*
X183979660Y-110620283D03*
X136150000Y-124250000D03*
X188896600Y-113750000D03*
X150632526Y-144167474D03*
X181750000Y-115400000D03*
X168750000Y-110500000D03*
X178874000Y-132750000D03*
X137415000Y-114615122D03*
X170833394Y-110697001D03*
X180074000Y-132500000D03*
X184000000Y-108750000D03*
X174000000Y-115500000D03*
X140800000Y-115200000D03*
X182000000Y-111220283D03*
X175323000Y-117897283D03*
X173005046Y-123986124D03*
X172300471Y-115152000D03*
X168500000Y-106500000D03*
X186081378Y-135540689D03*
X159127883Y-107688337D03*
X169632394Y-110697000D03*
X173400000Y-123250000D03*
X109275800Y-104875000D03*
X153600000Y-144600000D03*
X158593064Y-109720382D03*
X152274600Y-143451864D03*
X120106306Y-104806470D03*
X155200000Y-114600000D03*
X144000000Y-102600000D03*
X141517982Y-90482018D03*
X188895600Y-107505871D03*
X186600000Y-101783875D03*
X186414500Y-96250000D03*
X166249500Y-86850000D03*
X158901318Y-108900000D03*
X152324266Y-116374263D03*
X149626265Y-124006577D03*
X169000000Y-108000000D03*
X135049265Y-124950735D03*
X163046000Y-93885973D03*
X187250000Y-91000000D03*
X184200000Y-96700000D03*
X184600000Y-102800000D03*
X149100000Y-141250000D03*
X159350000Y-101250000D03*
X164451946Y-86850000D03*
X179142708Y-88100000D03*
X168550000Y-113100000D03*
X166000000Y-110697000D03*
X162750000Y-102025000D03*
X188058465Y-130000000D03*
X184250000Y-137500000D03*
X187950735Y-126200735D03*
X165850000Y-103500000D03*
X153123900Y-116349999D03*
X150299265Y-123299265D03*
X153920001Y-114150243D03*
X186500000Y-107250000D03*
X168999000Y-100000000D03*
X159350000Y-102750000D03*
X149000000Y-134250000D03*
X168250000Y-102750000D03*
X185742761Y-136265494D03*
X162675000Y-100425000D03*
X188100000Y-125250000D03*
X188750000Y-129250000D03*
X179000000Y-140500000D03*
X178350000Y-88000000D03*
X165300473Y-86850000D03*
X169248000Y-102000000D03*
X186950735Y-127200735D03*
X187000000Y-130616930D03*
X185250000Y-137000000D03*
X165250000Y-101750000D03*
X157250000Y-116350000D03*
X159350000Y-94285973D03*
X176692846Y-128761313D03*
X173391757Y-86707354D03*
X177750000Y-86750000D03*
X168999000Y-97700000D03*
X133448527Y-125900000D03*
X159250000Y-95199997D03*
X141750000Y-117000000D03*
X139350000Y-125296859D03*
X137749000Y-125750000D03*
X132200735Y-125450735D03*
X168750000Y-95750000D03*
X159350001Y-96793728D03*
X136250236Y-123401764D03*
X136000000Y-121450000D03*
X163046000Y-95835973D03*
X166989406Y-113348000D03*
X178750000Y-104750000D03*
X178000000Y-109500000D03*
X156749000Y-96500000D03*
X157500000Y-112000000D03*
X174299236Y-122450764D03*
X169500000Y-115152000D03*
X159748793Y-114749000D03*
X159250000Y-96000000D03*
X171850000Y-125150000D03*
X168250000Y-95000000D03*
X165250000Y-92250000D03*
X164660476Y-109340231D03*
X173500000Y-87500000D03*
X177150000Y-87500000D03*
X163046000Y-98000000D03*
X167789408Y-113348001D03*
X168250000Y-97000000D03*
X162499000Y-108251368D03*
X162499000Y-106500000D03*
X171250000Y-125750000D03*
X178265880Y-124750307D03*
X143811515Y-108124982D03*
X134000000Y-102364000D03*
X133200000Y-105599982D03*
X165737510Y-133168711D03*
X142011515Y-106724979D03*
X180199000Y-125000000D03*
X165708664Y-132291336D03*
X132678371Y-108078371D03*
X128425000Y-105625000D03*
X177000000Y-140250000D03*
X105973000Y-119600000D03*
X122625000Y-107625000D03*
X107800000Y-110800000D03*
X167250000Y-134750000D03*
X120004575Y-108225625D03*
X176000000Y-140250000D03*
X110953342Y-101660025D03*
X128310525Y-107510525D03*
X116400000Y-102200000D03*
X118801250Y-113497277D03*
X137922000Y-140462000D03*
X122825000Y-106225000D03*
X123066386Y-110052386D03*
X136906000Y-140462000D03*
X120025000Y-106425000D03*
X108379000Y-110200000D03*
X166500000Y-134100000D03*
X111200000Y-102400000D03*
X185100000Y-133398528D03*
X117697052Y-105850000D03*
X107220000Y-109455905D03*
X184500000Y-134897826D03*
X185100000Y-134198531D03*
X112800000Y-106400000D03*
X106586500Y-118166256D03*
X117200000Y-112400000D03*
X117844627Y-107150000D03*
X144822258Y-133501884D03*
X111768485Y-107112275D03*
X145712043Y-133460629D03*
X107400000Y-108200000D03*
X180607772Y-133284456D03*
X109225000Y-106399200D03*
X114150990Y-107168250D03*
X118405977Y-112824847D03*
X141732000Y-133350000D03*
X112025000Y-105625000D03*
X145917735Y-134233735D03*
X161450000Y-125200000D03*
X158434370Y-111543738D03*
X161250000Y-116350000D03*
X157349000Y-89000000D03*
X159350000Y-89033027D03*
X160373897Y-114123897D03*
X159250000Y-90500000D03*
X129750000Y-136144000D03*
X160600000Y-124600001D03*
X160549265Y-113100000D03*
X159100085Y-111100085D03*
X159000000Y-118679580D03*
X129750000Y-137160000D03*
X168500000Y-89975000D03*
X189500000Y-128250000D03*
X173975000Y-140750000D03*
X188846679Y-124962816D03*
X168999000Y-91175000D03*
X134995000Y-141200000D03*
X168500000Y-91925000D03*
X156541999Y-136979329D03*
X122381250Y-119300000D03*
X170500000Y-124500000D03*
X116086160Y-136550000D03*
X130881250Y-124800000D03*
X162500000Y-120000000D03*
X126549000Y-130469718D03*
X165886569Y-129636569D03*
X176501000Y-84000000D03*
X185000000Y-72000000D03*
X186750000Y-77951000D03*
X189832815Y-77832815D03*
X184400000Y-129600000D03*
D39*
X194150000Y-68950000D02*
X194150000Y-144750000D01*
X102850000Y-68950000D02*
X102850000Y-144750000D01*
M02*
