%TF.GenerationSoftware,KiCad,Pcbnew,9.0.4*%
%TF.CreationDate,2026-04-30T20:13:39-06:00*%
%TF.ProjectId,ADCS_V3,41444353-5f56-4332-9e6b-696361645f70,v0.1*%
%TF.SameCoordinates,Original*%
%TF.FileFunction,Paste,Bot*%
%TF.FilePolarity,Positive*%
%FSLAX46Y46*%
G04 Gerber Fmt 4.6, Leading zero omitted, Abs format (unit mm)*
G04 Created by KiCad (PCBNEW 9.0.4) date 2026-04-30 20:13:39*
%MOMM*%
%LPD*%
G01*
G04 APERTURE LIST*
G04 Aperture macros list*
%AMRoundRect*
0 Rectangle with rounded corners*
0 $1 Rounding radius*
0 $2 $3 $4 $5 $6 $7 $8 $9 X,Y pos of 4 corners*
0 Add a 4 corners polygon primitive as box body*
4,1,4,$2,$3,$4,$5,$6,$7,$8,$9,$2,$3,0*
0 Add four circle primitives for the rounded corners*
1,1,$1+$1,$2,$3*
1,1,$1+$1,$4,$5*
1,1,$1+$1,$6,$7*
1,1,$1+$1,$8,$9*
0 Add four rect primitives between the rounded corners*
20,1,$1+$1,$2,$3,$4,$5,0*
20,1,$1+$1,$4,$5,$6,$7,0*
20,1,$1+$1,$6,$7,$8,$9,0*
20,1,$1+$1,$8,$9,$2,$3,0*%
G04 Aperture macros list end*
%ADD10RoundRect,0.237500X-0.237500X0.300000X-0.237500X-0.300000X0.237500X-0.300000X0.237500X0.300000X0*%
%ADD11R,0.406400X0.508000*%
%ADD12R,0.508000X0.406400*%
%ADD13RoundRect,0.250000X0.350000X0.450000X-0.350000X0.450000X-0.350000X-0.450000X0.350000X-0.450000X0*%
%ADD14RoundRect,0.250000X0.450000X-0.350000X0.450000X0.350000X-0.450000X0.350000X-0.450000X-0.350000X0*%
%ADD15RoundRect,0.225000X-0.225000X-0.250000X0.225000X-0.250000X0.225000X0.250000X-0.225000X0.250000X0*%
%ADD16RoundRect,0.150000X0.587500X0.150000X-0.587500X0.150000X-0.587500X-0.150000X0.587500X-0.150000X0*%
%ADD17RoundRect,0.237500X0.300000X0.237500X-0.300000X0.237500X-0.300000X-0.237500X0.300000X-0.237500X0*%
%ADD18RoundRect,0.200000X0.200000X0.275000X-0.200000X0.275000X-0.200000X-0.275000X0.200000X-0.275000X0*%
%ADD19RoundRect,0.150000X-0.150000X0.587500X-0.150000X-0.587500X0.150000X-0.587500X0.150000X0.587500X0*%
%ADD20RoundRect,0.237500X-0.300000X-0.237500X0.300000X-0.237500X0.300000X0.237500X-0.300000X0.237500X0*%
%ADD21RoundRect,0.250000X-0.450000X0.350000X-0.450000X-0.350000X0.450000X-0.350000X0.450000X0.350000X0*%
%ADD22RoundRect,0.250000X-0.350000X-0.450000X0.350000X-0.450000X0.350000X0.450000X-0.350000X0.450000X0*%
%ADD23R,0.600000X0.350000*%
%ADD24R,1.100000X1.700000*%
%ADD25RoundRect,0.200000X-0.200000X-0.275000X0.200000X-0.275000X0.200000X0.275000X-0.200000X0.275000X0*%
%ADD26RoundRect,0.150000X-0.587500X-0.150000X0.587500X-0.150000X0.587500X0.150000X-0.587500X0.150000X0*%
%ADD27RoundRect,0.225000X-0.250000X0.225000X-0.250000X-0.225000X0.250000X-0.225000X0.250000X0.225000X0*%
%ADD28RoundRect,0.200000X-0.275000X0.200000X-0.275000X-0.200000X0.275000X-0.200000X0.275000X0.200000X0*%
%ADD29RoundRect,0.225000X0.250000X-0.225000X0.250000X0.225000X-0.250000X0.225000X-0.250000X-0.225000X0*%
%ADD30RoundRect,0.225000X0.225000X0.250000X-0.225000X0.250000X-0.225000X-0.250000X0.225000X-0.250000X0*%
%ADD31R,0.304800X0.533400*%
%ADD32R,0.533400X0.304800*%
%ADD33RoundRect,0.250000X-0.337500X-0.475000X0.337500X-0.475000X0.337500X0.475000X-0.337500X0.475000X0*%
%ADD34R,1.800000X1.000000*%
%ADD35RoundRect,0.250000X0.337500X0.475000X-0.337500X0.475000X-0.337500X-0.475000X0.337500X-0.475000X0*%
G04 APERTURE END LIST*
D10*
%TO.C,C55*%
X99596800Y-78899100D03*
X99596800Y-80624100D03*
%TD*%
D11*
%TO.C,U5*%
X128792501Y-97632550D03*
X129442499Y-97632550D03*
X130092501Y-97632550D03*
X130742499Y-97632550D03*
D12*
X131545500Y-98435551D03*
X131545500Y-99085549D03*
X131545500Y-99735551D03*
X131545500Y-100385549D03*
D11*
X130742499Y-101188550D03*
X130092501Y-101188550D03*
X129442499Y-101188550D03*
X128792501Y-101188550D03*
D12*
X127989500Y-100385549D03*
X127989500Y-99735551D03*
X127989500Y-99085549D03*
X127989500Y-98435551D03*
%TD*%
D13*
%TO.C,FB1*%
X98280000Y-107230000D03*
X96280000Y-107230000D03*
%TD*%
D14*
%TO.C,R34*%
X108997500Y-118712500D03*
X108997500Y-116712500D03*
%TD*%
D15*
%TO.C,C4*%
X139747499Y-100283000D03*
X141297499Y-100283000D03*
%TD*%
D16*
%TO.C,Q3*%
X106855000Y-116450000D03*
X106855000Y-118350000D03*
X104980000Y-117400000D03*
%TD*%
D17*
%TO.C,C42*%
X96490000Y-103560000D03*
X94765000Y-103560000D03*
%TD*%
D18*
%TO.C,R7*%
X143230000Y-113558000D03*
X141580000Y-113558000D03*
%TD*%
D13*
%TO.C,R37*%
X105310000Y-124080000D03*
X103310000Y-124080000D03*
%TD*%
D16*
%TO.C,Q11*%
X164132500Y-126047500D03*
X164132500Y-127947500D03*
X162257500Y-126997500D03*
%TD*%
D19*
%TO.C,Q7*%
X98740000Y-132340000D03*
X100640000Y-132340000D03*
X99690000Y-134215000D03*
%TD*%
D20*
%TO.C,C40*%
X94765000Y-102080000D03*
X96490000Y-102080000D03*
%TD*%
D10*
%TO.C,C57*%
X99215000Y-69677500D03*
X99215000Y-71402500D03*
%TD*%
D13*
%TO.C,R44*%
X164055000Y-124250000D03*
X162055000Y-124250000D03*
%TD*%
D17*
%TO.C,C5_RETRY1*%
X104006800Y-82581600D03*
X102281800Y-82581600D03*
%TD*%
D21*
%TO.C,R40*%
X98690000Y-128340000D03*
X98690000Y-130340000D03*
%TD*%
D18*
%TO.C,R5*%
X134522500Y-97755000D03*
X132872500Y-97755000D03*
%TD*%
D22*
%TO.C,R45*%
X164647500Y-114740000D03*
X166647500Y-114740000D03*
%TD*%
D23*
%TO.C,IC8*%
X103955000Y-69930000D03*
X103955000Y-70580000D03*
X103955000Y-71230000D03*
X101855000Y-71230000D03*
X101855000Y-70580000D03*
X101855000Y-69930000D03*
D24*
X102905000Y-70580000D03*
%TD*%
D10*
%TO.C,C63*%
X161275000Y-128690000D03*
X161275000Y-130415000D03*
%TD*%
D21*
%TO.C,R35*%
X98400000Y-124350000D03*
X98400000Y-126350000D03*
%TD*%
D14*
%TO.C,R6_FAULT1*%
X97256800Y-62261600D03*
X97256800Y-60261600D03*
%TD*%
D20*
%TO.C,C28*%
X98107500Y-103550000D03*
X99832500Y-103550000D03*
%TD*%
D17*
%TO.C,C34*%
X96477500Y-99030000D03*
X94752500Y-99030000D03*
%TD*%
D18*
%TO.C,R6*%
X144930000Y-115078000D03*
X143280000Y-115078000D03*
%TD*%
D25*
%TO.C,R2*%
X136502499Y-102048000D03*
X138152499Y-102048000D03*
%TD*%
D26*
%TO.C,Q9*%
X159340000Y-126780000D03*
X159340000Y-124880000D03*
X161215000Y-125830000D03*
%TD*%
D20*
%TO.C,C46*%
X158667500Y-111405000D03*
X160392500Y-111405000D03*
%TD*%
D22*
%TO.C,R43*%
X161765000Y-119240000D03*
X163765000Y-119240000D03*
%TD*%
D27*
%TO.C,C8*%
X140547500Y-94315000D03*
X140547500Y-95865000D03*
%TD*%
%TO.C,C14*%
X134037500Y-92575000D03*
X134037500Y-94125000D03*
%TD*%
D28*
%TO.C,R9*%
X124689500Y-97660551D03*
X124689500Y-99310551D03*
%TD*%
D20*
%TO.C,C60*%
X105055000Y-112892500D03*
X106780000Y-112892500D03*
%TD*%
D29*
%TO.C,C10*%
X142122500Y-95865000D03*
X142122500Y-94315000D03*
%TD*%
D30*
%TO.C,C5*%
X127402501Y-93305800D03*
X125852501Y-93305800D03*
%TD*%
D20*
%TO.C,C41*%
X153957500Y-102180000D03*
X155682500Y-102180000D03*
%TD*%
D26*
%TO.C,Q10*%
X161907500Y-117297500D03*
X161907500Y-115397500D03*
X163782500Y-116347500D03*
%TD*%
D17*
%TO.C,C35*%
X96470000Y-100550000D03*
X94745000Y-100550000D03*
%TD*%
D23*
%TO.C,IC9*%
X103860300Y-60746600D03*
X103860300Y-61396600D03*
X103860300Y-62046600D03*
X101760300Y-62046600D03*
X101760300Y-61396600D03*
X101760300Y-60746600D03*
D24*
X102810300Y-61396600D03*
%TD*%
D25*
%TO.C,R4*%
X140497500Y-92590000D03*
X142147500Y-92590000D03*
%TD*%
%TO.C,R3*%
X128902501Y-91585800D03*
X130552501Y-91585800D03*
%TD*%
D29*
%TO.C,C11*%
X134497500Y-100955000D03*
X134497500Y-99405000D03*
%TD*%
D14*
%TO.C,R7_FAULT1*%
X97485000Y-71580000D03*
X97485000Y-69580000D03*
%TD*%
D26*
%TO.C,Q5*%
X102140000Y-117195000D03*
X102140000Y-115295000D03*
X104015000Y-116245000D03*
%TD*%
D31*
%TO.C,U1*%
X136587499Y-98245800D03*
X137087500Y-98245800D03*
X137587500Y-98245800D03*
X138087501Y-98245800D03*
D32*
X138264600Y-98926901D03*
X138264600Y-99426900D03*
X138264600Y-99926899D03*
D31*
X138087501Y-100608000D03*
X137587500Y-100608000D03*
X137087500Y-100608000D03*
X136587499Y-100608000D03*
D32*
X136410400Y-99926899D03*
X136410400Y-99426900D03*
X136410400Y-98926901D03*
%TD*%
D17*
%TO.C,C43*%
X155690000Y-103710000D03*
X153965000Y-103710000D03*
%TD*%
D21*
%TO.C,R42*%
X157275000Y-124610000D03*
X157275000Y-126610000D03*
%TD*%
D10*
%TO.C,C56*%
X99006800Y-60409100D03*
X99006800Y-62134100D03*
%TD*%
D15*
%TO.C,C12*%
X132437500Y-95850000D03*
X133987500Y-95850000D03*
%TD*%
D22*
%TO.C,R38*%
X104937500Y-114632500D03*
X106937500Y-114632500D03*
%TD*%
D21*
%TO.C,R47*%
X157435000Y-128600000D03*
X157435000Y-130600000D03*
%TD*%
D33*
%TO.C,C31*%
X157342500Y-105450000D03*
X159417500Y-105450000D03*
%TD*%
D15*
%TO.C,C3*%
X125827501Y-94980800D03*
X127377501Y-94980800D03*
%TD*%
D27*
%TO.C,C15*%
X126314500Y-97735551D03*
X126314500Y-99285551D03*
%TD*%
D14*
%TO.C,R5_FAULT1*%
X97816800Y-80691600D03*
X97816800Y-78691600D03*
%TD*%
D20*
%TO.C,C47*%
X158667500Y-112935000D03*
X160392500Y-112935000D03*
%TD*%
D13*
%TO.C,R7_ILIM1*%
X103725000Y-67900000D03*
X101725000Y-67900000D03*
%TD*%
D34*
%TO.C,Y1*%
X102840000Y-113605000D03*
X102840000Y-111055000D03*
%TD*%
D23*
%TO.C,IC7*%
X104196800Y-78971600D03*
X104196800Y-79621600D03*
X104196800Y-80271600D03*
X102096800Y-80271600D03*
X102096800Y-79621600D03*
X102096800Y-78971600D03*
D24*
X103146800Y-79621600D03*
%TD*%
D27*
%TO.C,C9*%
X132980000Y-99405000D03*
X132980000Y-100955000D03*
%TD*%
D17*
%TO.C,C38*%
X155672500Y-100680000D03*
X153947500Y-100680000D03*
%TD*%
D19*
%TO.C,Q12*%
X157495000Y-132765000D03*
X159395000Y-132765000D03*
X158445000Y-134640000D03*
%TD*%
D14*
%TO.C,R41*%
X168815000Y-118790000D03*
X168815000Y-116790000D03*
%TD*%
D22*
%TO.C,R36*%
X102027500Y-119012500D03*
X104027500Y-119012500D03*
%TD*%
D33*
%TO.C,C30*%
X98152500Y-105280000D03*
X100227500Y-105280000D03*
%TD*%
D17*
%TO.C,C7_RETRY1*%
X103710000Y-73470000D03*
X101985000Y-73470000D03*
%TD*%
D28*
%TO.C,R8*%
X132412500Y-92500000D03*
X132412500Y-94150000D03*
%TD*%
D35*
%TO.C,C32*%
X96437500Y-105280000D03*
X94362500Y-105280000D03*
%TD*%
D21*
%TO.C,R24*%
X107290000Y-124030000D03*
X107290000Y-126030000D03*
%TD*%
D17*
%TO.C,C37*%
X155672500Y-99170000D03*
X153947500Y-99170000D03*
%TD*%
D34*
%TO.C,Y2*%
X162370000Y-113390000D03*
X162370000Y-110840000D03*
%TD*%
D13*
%TO.C,R6_ILIM1*%
X103736800Y-58361600D03*
X101736800Y-58361600D03*
%TD*%
D20*
%TO.C,C29*%
X157277500Y-103670000D03*
X159002500Y-103670000D03*
%TD*%
D13*
%TO.C,FB2*%
X157580000Y-107440000D03*
X155580000Y-107440000D03*
%TD*%
D16*
%TO.C,Q6*%
X105285000Y-125912500D03*
X105285000Y-127812500D03*
X103410000Y-126862500D03*
%TD*%
D17*
%TO.C,C6_RETRY1*%
X103599300Y-64071600D03*
X101874300Y-64071600D03*
%TD*%
D13*
%TO.C,R5_ILIM1*%
X104056800Y-76711600D03*
X102056800Y-76711600D03*
%TD*%
D15*
%TO.C,C13*%
X124739500Y-100925551D03*
X126289500Y-100925551D03*
%TD*%
D35*
%TO.C,C33*%
X155640000Y-105460000D03*
X153565000Y-105460000D03*
%TD*%
D31*
%TO.C,U2*%
X129027499Y-93065800D03*
X129527500Y-93065800D03*
X130027500Y-93065800D03*
X130527501Y-93065800D03*
D32*
X130704600Y-93746901D03*
X130704600Y-94246900D03*
X130704600Y-94746899D03*
D31*
X130527501Y-95428000D03*
X130027500Y-95428000D03*
X129527500Y-95428000D03*
X129027499Y-95428000D03*
D32*
X128850400Y-94746899D03*
X128850400Y-94246900D03*
X128850400Y-93746901D03*
%TD*%
D30*
%TO.C,C2*%
X141322499Y-98608000D03*
X139772499Y-98608000D03*
%TD*%
D20*
%TO.C,C44*%
X99117500Y-111500000D03*
X100842500Y-111500000D03*
%TD*%
D16*
%TO.C,Q8*%
X166807500Y-116637500D03*
X166807500Y-118537500D03*
X164932500Y-117587500D03*
%TD*%
D20*
%TO.C,C45*%
X99117500Y-112990000D03*
X100842500Y-112990000D03*
%TD*%
%TO.C,C62*%
X164755000Y-113010000D03*
X166480000Y-113010000D03*
%TD*%
D21*
%TO.C,R46*%
X159545000Y-128540000D03*
X159545000Y-130540000D03*
%TD*%
%TO.C,R25*%
X166160000Y-124100000D03*
X166160000Y-126100000D03*
%TD*%
D26*
%TO.C,Q4*%
X100482500Y-126672500D03*
X100482500Y-124772500D03*
X102357500Y-125722500D03*
%TD*%
D21*
%TO.C,R39*%
X100710000Y-128320000D03*
X100710000Y-130320000D03*
%TD*%
D10*
%TO.C,C61*%
X102480000Y-128427500D03*
X102480000Y-130152500D03*
%TD*%
D11*
%TO.C,U4*%
X136362501Y-92422550D03*
X137012499Y-92422550D03*
X137662501Y-92422550D03*
X138312499Y-92422550D03*
D12*
X139115500Y-93225551D03*
X139115500Y-93875549D03*
X139115500Y-94525551D03*
X139115500Y-95175549D03*
D11*
X138312499Y-95978550D03*
X137662501Y-95978550D03*
X137012499Y-95978550D03*
X136362501Y-95978550D03*
D12*
X135559500Y-95175549D03*
X135559500Y-94525551D03*
X135559500Y-93875549D03*
X135559500Y-93225551D03*
%TD*%
M02*
