M48
; DRILL file {KiCad 9.0.7} date 2026-02-27T14:58:14-0700
; FORMAT={-:-/ absolute / metric / decimal}
; #@! TF.CreationDate,2026-02-27T14:58:14-07:00
; #@! TF.GenerationSoftware,Kicad,Pcbnew,9.0.7
; #@! TF.FileFunction,Plated,1,4,PTH
FMAT,2
METRIC
; #@! TA.AperFunction,Plated,PTH,ComponentDrill
T1C0.200
; #@! TA.AperFunction,Plated,PTH,ComponentDrill
T2C0.250
; #@! TA.AperFunction,Plated,PTH,ViaDrill
T3C0.300
; #@! TA.AperFunction,Plated,PTH,ComponentDrill
T4C0.300
; #@! TA.AperFunction,Plated,PTH,ComponentDrill
T5C0.650
; #@! TA.AperFunction,Plated,PTH,ComponentDrill
T6C0.800
; #@! TA.AperFunction,Plated,PTH,ComponentDrill
T7C1.000
; #@! TA.AperFunction,Plated,PTH,ComponentDrill
T8C1.040
%
G90
G05
T1
X184.76Y-115.192
X184.76Y-116.372
X185.94Y-115.192
X185.94Y-116.372
T2
X114.31Y-94.911
X114.31Y-95.911
X114.92Y-118.081
X114.92Y-119.081
X136.607Y-90.581
X136.607Y-91.581
X148.317Y-95.652
X148.317Y-96.652
X155.142Y-113.709
X155.142Y-114.709
X181.47Y-109.721
X181.47Y-110.721
T3
X101.35Y-59.749
X101.35Y-60.749
X101.35Y-61.749
X101.35Y-62.749
X101.35Y-63.749
X101.35Y-64.749
X101.35Y-65.749
X101.35Y-66.749
X101.35Y-67.749
X101.35Y-68.749
X101.35Y-69.749
X101.35Y-70.749
X101.35Y-71.749
X101.35Y-72.749
X101.35Y-73.749
X101.35Y-74.749
X101.35Y-75.749
X101.35Y-76.749
X101.35Y-77.749
X101.35Y-78.749
X101.35Y-79.749
X101.35Y-80.749
X101.35Y-81.749
X101.35Y-82.749
X101.35Y-83.749
X101.35Y-84.749
X101.35Y-85.749
X101.35Y-86.749
X101.35Y-87.749
X101.35Y-88.749
X101.35Y-89.749
X101.35Y-90.749
X101.35Y-91.749
X101.35Y-92.749
X101.35Y-93.749
X101.35Y-94.749
X101.35Y-95.749
X101.35Y-96.749
X101.35Y-97.749
X101.35Y-98.749
X101.35Y-99.749
X101.35Y-100.749
X101.35Y-101.749
X101.35Y-102.749
X101.35Y-103.749
X101.35Y-104.749
X101.35Y-105.749
X101.35Y-106.749
X101.35Y-107.749
X101.35Y-108.749
X101.35Y-109.749
X101.35Y-110.749
X101.35Y-111.749
X101.35Y-112.749
X101.35Y-113.749
X101.35Y-114.749
X101.35Y-115.749
X101.35Y-116.749
X101.35Y-117.749
X101.35Y-118.749
X101.35Y-119.749
X101.35Y-120.749
X101.35Y-121.749
X101.35Y-122.749
X101.35Y-123.749
X101.35Y-124.749
X101.35Y-125.749
X101.35Y-126.749
X101.35Y-127.749
X101.35Y-128.749
X101.35Y-129.749
X101.35Y-130.749
X101.35Y-131.749
X101.35Y-132.749
X101.35Y-133.749
X101.35Y-134.749
X101.35Y-135.749
X102.35Y-59.749
X102.35Y-60.749
X102.35Y-61.749
X102.35Y-62.749
X102.35Y-63.749
X102.35Y-64.749
X102.35Y-65.749
X102.35Y-66.749
X102.35Y-67.749
X102.35Y-68.749
X102.35Y-69.749
X102.35Y-70.749
X102.35Y-71.749
X102.35Y-72.749
X102.35Y-73.749
X102.35Y-74.749
X102.35Y-75.749
X102.35Y-76.749
X102.35Y-77.749
X102.35Y-78.749
X102.35Y-79.749
X102.35Y-80.749
X102.35Y-81.749
X102.35Y-82.749
X102.35Y-83.749
X102.35Y-84.749
X102.35Y-85.749
X102.35Y-86.749
X102.35Y-87.749
X102.35Y-88.749
X102.35Y-89.749
X102.35Y-90.749
X102.35Y-91.749
X102.35Y-92.749
X102.35Y-93.749
X102.35Y-94.749
X102.35Y-95.749
X102.35Y-96.749
X102.35Y-97.749
X102.35Y-98.749
X102.35Y-99.749
X102.35Y-100.749
X102.35Y-101.749
X102.35Y-102.749
X102.35Y-103.749
X102.35Y-104.749
X102.35Y-105.749
X102.35Y-106.749
X102.35Y-107.749
X102.35Y-108.749
X102.35Y-109.749
X102.35Y-110.749
X102.35Y-111.749
X102.35Y-112.749
X102.35Y-113.749
X102.35Y-114.749
X102.35Y-115.749
X102.35Y-116.749
X102.35Y-117.749
X102.35Y-118.749
X102.35Y-119.749
X102.35Y-120.749
X102.35Y-121.749
X102.35Y-122.749
X102.35Y-123.749
X102.35Y-124.749
X102.35Y-125.749
X102.35Y-126.749
X102.35Y-127.749
X102.35Y-128.749
X102.35Y-129.749
X102.35Y-130.749
X102.35Y-131.749
X102.35Y-132.749
X102.35Y-133.749
X102.35Y-134.749
X102.35Y-135.749
X103.35Y-59.749
X103.35Y-60.749
X103.35Y-61.749
X103.35Y-62.749
X103.35Y-63.749
X103.35Y-64.749
X103.35Y-65.749
X103.35Y-66.749
X103.35Y-67.749
X103.35Y-68.749
X103.35Y-69.749
X103.35Y-70.749
X103.35Y-71.749
X103.35Y-72.749
X103.35Y-73.749
X103.35Y-74.749
X103.35Y-75.749
X103.35Y-76.749
X103.35Y-77.749
X103.35Y-78.749
X103.35Y-79.749
X103.35Y-80.749
X103.35Y-81.749
X103.35Y-82.749
X103.35Y-83.749
X103.35Y-84.749
X103.35Y-85.749
X103.35Y-86.749
X103.35Y-87.749
X103.35Y-88.749
X103.35Y-89.749
X103.35Y-90.749
X103.35Y-91.749
X103.35Y-92.749
X103.35Y-93.749
X103.35Y-94.749
X103.35Y-95.749
X103.35Y-96.749
X103.35Y-97.749
X103.35Y-98.749
X103.35Y-99.749
X103.35Y-100.749
X103.35Y-101.749
X103.35Y-102.749
X103.35Y-103.749
X103.35Y-104.749
X103.35Y-105.749
X103.35Y-106.749
X103.35Y-107.749
X103.35Y-108.749
X103.35Y-109.749
X103.35Y-110.749
X103.35Y-111.749
X103.35Y-112.749
X103.35Y-113.749
X103.35Y-114.749
X103.35Y-115.749
X103.35Y-116.749
X103.35Y-117.749
X103.35Y-118.749
X103.35Y-119.749
X103.35Y-120.749
X103.35Y-121.749
X103.35Y-122.749
X103.35Y-123.749
X103.35Y-124.749
X103.35Y-125.749
X103.35Y-126.749
X103.35Y-127.749
X103.35Y-128.749
X103.35Y-129.749
X103.35Y-130.749
X103.35Y-131.749
X103.35Y-132.749
X103.35Y-133.749
X103.35Y-134.749
X103.35Y-135.749
X105.76Y-123.19
X106.738Y-101.821
X106.98Y-132.78
X107.88Y-59.62
X108.23Y-88.97
X108.81Y-71.65
X109.04Y-78.22
X109.86Y-82.09
X110.12Y-102.85
X110.57Y-89.17
X110.67Y-106.49
X110.794Y-73.904
X111.74Y-80.321
X112.64Y-95.17
X112.82Y-97.28
X113.07Y-80.58
X113.31Y-84.86
X113.38Y-94.1
X113.515Y-117.28
X114.04Y-87.47
X114.15Y-66.72
X115.04Y-100.056
X115.8Y-75.12
X115.9Y-134.69
X116.02Y-84.94
X117.25Y-81.04
X117.3Y-87.45
X117.77Y-107.48
X117.79Y-94.72
X119.35Y-105.28
X120.09Y-59.62
X120.205Y-77.93
X120.25Y-82.82
X120.28Y-115.17
X120.49Y-99.93
X121.0Y-111.16
X121.61Y-97.92
X122.5Y-100.4
X122.59Y-81.71
X122.59Y-118.69
X122.97Y-80.27
X123.64Y-110.33
X124.275Y-104.255
X124.81Y-133.88
X124.97Y-97.33
X125.02Y-98.122
X125.3Y-91.39
X125.942Y-116.24
X126.2Y-74.77
X126.26Y-84.78
X126.385Y-101.48
X127.19Y-119.26
X127.2Y-124.44
X127.21Y-101.41
X127.52Y-98.81
X127.965Y-105.41
X128.685Y-116.09
X128.74Y-107.71
X128.765Y-119.162
X128.79Y-97.72
X129.708Y-120.104
X129.79Y-131.12
X130.06Y-84.82
X130.09Y-100.55
X130.44Y-64.96
X130.58Y-106.59
X130.66Y-91.69
X130.77Y-59.27
X130.86Y-105.34
X131.584Y-109.811
X131.595Y-77.956
X131.65Y-113.72
X131.8Y-81.79
X131.82Y-112.57
X132.01Y-133.16
X132.02Y-129.861
X132.034Y-98.583
X132.181Y-123.695
X132.182Y-117.816
X132.5Y-73.81
X132.73Y-100.025
X133.002Y-108.392
X133.35Y-129.86
X133.65Y-99.5
X133.76Y-111.4
X133.8Y-123.16
X133.95Y-121.77
X134.16Y-81.45
X134.89Y-101.075
X134.95Y-92.18
X134.99Y-122.29
X135.13Y-82.743
X135.24Y-126.135
X135.27Y-115.039
X135.56Y-89.51
X135.68Y-97.88
X135.8Y-127.7
X136.185Y-127.086
X136.45Y-95.05
X136.58Y-123.67
X136.62Y-121.0
X136.63Y-88.76
X136.67Y-86.0
X136.73Y-137.64
X136.83Y-111.19
X137.05Y-105.02
X137.17Y-73.78
X137.38Y-129.761
X137.76Y-126.08
X137.81Y-84.53
X137.81Y-116.58
X137.94Y-136.56
X138.375Y-108.625
X138.59Y-80.0
X138.765Y-120.654
X138.935Y-122.311
X139.095Y-125.547
X139.107Y-126.298
X139.189Y-123.879
X139.19Y-59.45
X139.222Y-123.104
X139.39Y-117.02
X139.86Y-90.11
X140.38Y-89.01
X140.56Y-104.72
X140.95Y-76.98
X141.42Y-76.23
X141.71Y-122.767
X141.78Y-135.9
X141.82Y-121.96
X142.1Y-128.44
X142.34Y-82.1
X142.61Y-121.06
X142.66Y-122.63
X142.67Y-119.6
X142.67Y-129.86
X142.7Y-131.09
X142.721Y-118.137
X142.88Y-134.3
X142.95Y-99.27
X143.068Y-73.142
X143.3Y-78.026
X143.81Y-134.05
X143.85Y-74.14
X144.84Y-93.78
X144.93Y-107.86
X145.61Y-80.9
X145.69Y-115.8
X145.7Y-86.59
X145.81Y-111.09
X145.87Y-133.998
X146.499Y-115.9
X146.58Y-133.85
X146.61Y-131.09
X146.67Y-103.4
X146.68Y-80.43
X146.823Y-118.332
X146.9Y-129.76
X147.05Y-90.15
X147.44Y-65.21
X147.567Y-118.333
X147.6Y-86.73
X147.671Y-113.135
X147.688Y-134.198
X148.21Y-120.78
X148.56Y-118.89
X148.6Y-81.98
X149.108Y-115.886
X149.267Y-97.47
X149.29Y-102.845
X149.322Y-130.366
X149.72Y-129.76
X149.92Y-124.52
X149.94Y-96.02
X150.1Y-102.88
X150.12Y-121.12
X150.187Y-115.884
X150.24Y-90.44
X150.4Y-125.57
X150.45Y-74.56
X150.54Y-93.04
X150.76Y-122.3
X151.03Y-82.76
X151.07Y-59.1
X151.11Y-125.99
X151.22Y-80.821
X151.35Y-96.8
X151.48Y-79.06
X151.63Y-123.61
X152.279Y-115.188
X152.348Y-113.609
X152.41Y-130.47
X152.895Y-114.134
X152.988Y-115.338
X153.18Y-92.88
X153.23Y-122.28
X153.35Y-76.1
X153.394Y-115.939
X153.43Y-125.14
X153.49Y-130.56
X153.724Y-112.234
X153.73Y-133.89
X153.774Y-122.811
X154.06Y-120.01
X154.21Y-119.08
X154.23Y-115.97
X154.25Y-102.89
X154.32Y-87.64
X154.69Y-132.5
X154.73Y-107.9
X154.86Y-82.085
X155.35Y-80.821
X155.38Y-77.936
X155.92Y-73.83
X156.0Y-91.79
X156.24Y-117.82
X156.43Y-109.11
X156.5Y-87.43
X156.94Y-135.24
X157.422Y-118.73
X157.64Y-130.811
X157.947Y-119.23
X157.993Y-120.206
X158.07Y-80.316
X158.55Y-91.83
X158.601Y-102.912
X158.601Y-123.286
X158.73Y-73.86
X159.126Y-124.739
X159.279Y-128.311
X159.486Y-81.314
X159.52Y-80.59
X159.57Y-65.21
X159.61Y-87.37
X159.84Y-128.77
X159.86Y-136.25
X160.2Y-103.2
X160.393Y-126.311
X160.446Y-129.167
X160.961Y-126.761
X161.151Y-129.338
X161.22Y-91.89
X161.472Y-80.82
X161.526Y-127.261
X161.846Y-129.545
X162.0Y-77.85
X162.13Y-82.52
X162.143Y-87.637
X162.16Y-127.77
X162.21Y-120.53
X162.39Y-119.79
X162.63Y-59.76
X162.689Y-125.261
X163.17Y-94.38
X163.24Y-125.78
X163.69Y-134.5
X163.71Y-97.97
X163.72Y-103.435
X163.73Y-91.97
X163.82Y-129.81
X164.0Y-100.478
X164.32Y-95.89
X164.42Y-118.02
X164.53Y-99.953
X164.802Y-87.618
X165.58Y-75.21
X165.685Y-104.74
X166.244Y-77.966
X166.27Y-82.52
X166.31Y-91.84
X166.58Y-87.04
X166.757Y-122.397
X166.83Y-131.61
X166.89Y-73.935
X166.94Y-126.7
X167.11Y-110.69
X168.14Y-87.55
X168.48Y-129.08
X168.87Y-91.77
X169.07Y-81.489
X169.17Y-73.585
X169.395Y-96.9
X169.49Y-112.29
X169.56Y-109.5
X169.72Y-83.428
X169.78Y-114.09
X169.99Y-85.83
X170.07Y-102.92
X170.34Y-95.73
X170.51Y-64.48
X170.65Y-87.51
X171.45Y-91.87
X171.46Y-80.83
X172.5Y-112.29
X172.64Y-108.84
X172.81Y-78.58
X172.9Y-97.59
X173.22Y-87.53
X174.04Y-91.81
X174.04Y-115.85
X174.55Y-117.09
X174.85Y-64.3
X175.03Y-108.22
X175.05Y-66.5
X175.13Y-97.59
X175.31Y-86.08
X175.73Y-87.47
X176.08Y-59.02
X176.45Y-119.38
X176.6Y-91.81
X176.7Y-75.62
X177.4Y-78.51
X177.44Y-81.5
X177.52Y-83.38
X177.63Y-133.44
X177.65Y-118.89
X177.69Y-97.17
X178.18Y-74.42
X178.34Y-87.45
X178.477Y-110.677
X178.68Y-63.74
X178.69Y-123.62
X178.82Y-80.19
X179.066Y-111.1
X179.19Y-91.74
X179.71Y-84.7
X180.38Y-106.2
X180.84Y-115.73
X180.9Y-114.16
X181.05Y-87.45
X181.5Y-111.88
X181.76Y-91.86
X182.11Y-70.58
X182.14Y-129.74
X182.438Y-87.59
X182.6Y-80.62
X182.81Y-66.63
X182.996Y-92.631
X183.53Y-83.63
X183.9Y-97.16
X184.36Y-92.01
X184.42Y-107.19
X184.54Y-78.3
X184.71Y-70.43
X184.75Y-102.79
X185.37Y-73.07
X185.41Y-60.42
X186.52Y-79.92
X186.66Y-91.59
X187.38Y-122.98
X187.841Y-94.93
X191.5Y-59.749
X191.5Y-60.749
X191.5Y-61.749
X191.5Y-62.749
X191.5Y-63.749
X191.5Y-64.749
X191.5Y-65.749
X191.5Y-66.749
X191.5Y-67.749
X191.5Y-68.749
X191.5Y-69.749
X191.5Y-70.749
X191.5Y-71.749
X191.5Y-72.749
X191.5Y-73.749
X191.5Y-74.749
X191.5Y-75.749
X191.5Y-76.749
X191.5Y-77.749
X191.5Y-78.749
X191.5Y-79.749
X191.5Y-80.749
X191.5Y-81.749
X191.5Y-82.749
X191.5Y-83.749
X191.5Y-84.749
X191.5Y-85.749
X191.5Y-86.749
X191.5Y-87.749
X191.5Y-88.749
X191.5Y-89.749
X191.5Y-90.749
X191.5Y-91.749
X191.5Y-92.749
X191.5Y-93.749
X191.5Y-94.749
X191.5Y-95.749
X191.5Y-96.749
X191.5Y-97.749
X191.5Y-98.749
X191.5Y-99.749
X191.5Y-100.749
X191.5Y-101.749
X191.5Y-102.749
X191.5Y-103.749
X191.5Y-104.749
X191.5Y-105.749
X191.5Y-106.749
X191.5Y-107.749
X191.5Y-108.749
X191.5Y-109.749
X191.5Y-110.749
X191.5Y-111.749
X191.5Y-112.749
X191.5Y-113.749
X191.5Y-114.749
X191.5Y-115.749
X191.5Y-116.749
X191.5Y-117.749
X191.5Y-118.749
X191.5Y-119.749
X191.5Y-120.749
X191.5Y-121.749
X191.5Y-122.749
X191.5Y-123.749
X191.5Y-124.749
X191.5Y-125.749
X191.5Y-126.749
X191.5Y-127.749
X191.5Y-128.749
X191.5Y-129.749
X191.5Y-130.749
X191.5Y-131.749
X191.5Y-132.749
X191.5Y-133.749
X191.5Y-134.749
X191.5Y-135.749
X192.5Y-59.749
X192.5Y-60.749
X192.5Y-61.749
X192.5Y-62.749
X192.5Y-63.749
X192.5Y-64.749
X192.5Y-65.749
X192.5Y-66.749
X192.5Y-67.749
X192.5Y-68.749
X192.5Y-69.749
X192.5Y-70.749
X192.5Y-71.749
X192.5Y-72.749
X192.5Y-73.749
X192.5Y-74.749
X192.5Y-75.749
X192.5Y-76.749
X192.5Y-77.749
X192.5Y-78.749
X192.5Y-79.749
X192.5Y-80.749
X192.5Y-81.749
X192.5Y-82.749
X192.5Y-83.749
X192.5Y-84.749
X192.5Y-85.749
X192.5Y-86.749
X192.5Y-87.749
X192.5Y-88.749
X192.5Y-89.749
X192.5Y-90.749
X192.5Y-91.749
X192.5Y-92.749
X192.5Y-93.749
X192.5Y-94.749
X192.5Y-95.749
X192.5Y-96.749
X192.5Y-97.749
X192.5Y-98.749
X192.5Y-99.749
X192.5Y-100.749
X192.5Y-101.749
X192.5Y-102.749
X192.5Y-103.749
X192.5Y-104.749
X192.5Y-105.749
X192.5Y-106.749
X192.5Y-107.749
X192.5Y-108.749
X192.5Y-109.749
X192.5Y-110.749
X192.5Y-111.749
X192.5Y-112.749
X192.5Y-113.749
X192.5Y-114.749
X192.5Y-115.749
X192.5Y-116.749
X192.5Y-117.749
X192.5Y-118.749
X192.5Y-119.749
X192.5Y-120.749
X192.5Y-121.749
X192.5Y-122.749
X192.5Y-123.749
X192.5Y-124.749
X192.5Y-125.749
X192.5Y-126.749
X192.5Y-127.749
X192.5Y-128.749
X192.5Y-129.749
X192.5Y-130.749
X192.5Y-131.749
X192.5Y-132.749
X192.5Y-133.749
X192.5Y-134.749
X192.5Y-135.749
X193.5Y-59.749
X193.5Y-60.749
X193.5Y-61.749
X193.5Y-62.749
X193.5Y-63.749
X193.5Y-64.749
X193.5Y-65.749
X193.5Y-66.749
X193.5Y-67.749
X193.5Y-68.749
X193.5Y-69.749
X193.5Y-70.749
X193.5Y-71.749
X193.5Y-72.749
X193.5Y-73.749
X193.5Y-74.749
X193.5Y-75.749
X193.5Y-76.749
X193.5Y-77.749
X193.5Y-78.749
X193.5Y-79.749
X193.5Y-80.749
X193.5Y-81.749
X193.5Y-82.749
X193.5Y-83.749
X193.5Y-84.749
X193.5Y-85.749
X193.5Y-86.749
X193.5Y-87.749
X193.5Y-88.749
X193.5Y-89.749
X193.5Y-90.749
X193.5Y-91.749
X193.5Y-92.749
X193.5Y-93.749
X193.5Y-94.749
X193.5Y-95.749
X193.5Y-96.749
X193.5Y-97.749
X193.5Y-98.749
X193.5Y-99.749
X193.5Y-100.749
X193.5Y-101.749
X193.5Y-102.749
X193.5Y-103.749
X193.5Y-104.749
X193.5Y-105.749
X193.5Y-106.749
X193.5Y-107.749
X193.5Y-108.749
X193.5Y-109.749
X193.5Y-110.749
X193.5Y-111.749
X193.5Y-112.749
X193.5Y-113.749
X193.5Y-114.749
X193.5Y-115.749
X193.5Y-116.749
X193.5Y-117.749
X193.5Y-118.749
X193.5Y-119.749
X193.5Y-120.749
X193.5Y-121.749
X193.5Y-122.749
X193.5Y-123.749
X193.5Y-124.749
X193.5Y-125.749
X193.5Y-126.749
X193.5Y-127.749
X193.5Y-128.749
X193.5Y-129.749
X193.5Y-130.749
X193.5Y-131.749
X193.5Y-132.749
X193.5Y-133.749
X193.5Y-134.749
X193.5Y-135.749
T4
X106.73Y-96.061
X106.73Y-97.261
X106.95Y-118.108
X106.95Y-119.308
X107.83Y-96.061
X107.83Y-97.261
X108.05Y-118.108
X108.05Y-119.308
X109.13Y-96.061
X109.13Y-97.261
X109.35Y-118.108
X109.35Y-119.308
X110.33Y-96.061
X110.33Y-97.261
X110.55Y-118.108
X110.55Y-119.308
T6
X164.692Y-137.431
X167.232Y-137.431
T7
X135.53Y-132.821
X135.53Y-135.361
X143.69Y-137.121
X146.23Y-137.121
X149.86Y-137.131
X152.4Y-137.131
X170.98Y-124.611
X170.98Y-127.151
X170.98Y-129.691
X170.98Y-132.231
X170.98Y-134.771
T8
X123.36Y-67.79
X123.36Y-70.33
X125.9Y-67.79
X125.9Y-70.33
X128.44Y-67.79
X128.44Y-70.33
X130.98Y-67.79
X130.98Y-70.33
X133.52Y-67.79
X133.52Y-70.33
X136.06Y-67.79
X136.06Y-70.33
X138.6Y-67.79
X138.6Y-70.33
X141.14Y-67.79
X141.14Y-70.33
X143.68Y-67.79
X143.68Y-70.33
X146.22Y-67.79
X146.22Y-70.33
X148.76Y-67.79
X148.76Y-70.33
X151.3Y-67.79
X151.3Y-70.33
X153.84Y-67.79
X153.84Y-70.33
X156.38Y-67.79
X156.38Y-70.33
X158.92Y-67.79
X158.92Y-70.33
X161.46Y-67.79
X161.46Y-70.33
X164.0Y-67.79
X164.0Y-70.33
X166.54Y-67.79
X166.54Y-70.33
X169.08Y-67.79
X169.08Y-70.33
X171.62Y-67.79
X171.62Y-70.33
T5
G00X108.415Y-64.541
M15
G01X108.415Y-68.391
M16
G05
G00X108.415Y-108.323
M15
G01X108.415Y-104.473
M16
G05
G00X108.415Y-126.541
M15
G01X108.415Y-130.391
M16
G05
G00X142.565Y-86.541
M15
G01X142.565Y-90.391
M16
G05
G00X142.565Y-108.323
M15
G01X142.565Y-104.473
M16
G05
G00X152.415Y-86.541
M15
G01X152.415Y-90.391
M16
G05
G00X152.415Y-104.473
M15
G01X152.415Y-108.323
M16
G05
G00X186.565Y-64.541
M15
G01X186.565Y-68.391
M16
G05
G00X186.565Y-104.473
M15
G01X186.565Y-108.323
M16
G05
G00X186.565Y-126.541
M15
G01X186.565Y-130.391
M16
G05
M30
