%TF.GenerationSoftware,KiCad,Pcbnew,9.0.4*%
%TF.CreationDate,2026-03-02T14:47:10-07:00*%
%TF.ProjectId,ADCS_V2,41444353-5f56-4322-9e6b-696361645f70,v0.1*%
%TF.SameCoordinates,Original*%
%TF.FileFunction,Paste,Top*%
%TF.FilePolarity,Positive*%
%FSLAX46Y46*%
G04 Gerber Fmt 4.6, Leading zero omitted, Abs format (unit mm)*
G04 Created by KiCad (PCBNEW 9.0.4) date 2026-03-02 14:47:10*
%MOMM*%
%LPD*%
G01*
G04 APERTURE LIST*
G04 Aperture macros list*
%AMRoundRect*
0 Rectangle with rounded corners*
0 $1 Rounding radius*
0 $2 $3 $4 $5 $6 $7 $8 $9 X,Y pos of 4 corners*
0 Add a 4 corners polygon primitive as box body*
4,1,4,$2,$3,$4,$5,$6,$7,$8,$9,$2,$3,0*
0 Add four circle primitives for the rounded corners*
1,1,$1+$1,$2,$3*
1,1,$1+$1,$4,$5*
1,1,$1+$1,$6,$7*
1,1,$1+$1,$8,$9*
0 Add four rect primitives between the rounded corners*
20,1,$1+$1,$2,$3,$4,$5,0*
20,1,$1+$1,$4,$5,$6,$7,0*
20,1,$1+$1,$6,$7,$8,$9,0*
20,1,$1+$1,$8,$9,$2,$3,0*%
G04 Aperture macros list end*
%ADD10C,0.010000*%
%ADD11R,0.450000X1.475000*%
%ADD12RoundRect,0.090000X-0.090000X0.139000X-0.090000X-0.139000X0.090000X-0.139000X0.090000X0.139000X0*%
%ADD13R,0.350000X0.600000*%
%ADD14R,1.700000X1.100000*%
%ADD15RoundRect,0.150000X-0.150000X0.825000X-0.150000X-0.825000X0.150000X-0.825000X0.150000X0.825000X0*%
%ADD16RoundRect,0.250000X-0.337500X-0.475000X0.337500X-0.475000X0.337500X0.475000X-0.337500X0.475000X0*%
%ADD17RoundRect,0.237500X-0.237500X0.300000X-0.237500X-0.300000X0.237500X-0.300000X0.237500X0.300000X0*%
%ADD18RoundRect,0.225000X0.225000X0.250000X-0.225000X0.250000X-0.225000X-0.250000X0.225000X-0.250000X0*%
%ADD19R,1.473200X0.533400*%
%ADD20RoundRect,0.250000X0.450000X-0.350000X0.450000X0.350000X-0.450000X0.350000X-0.450000X-0.350000X0*%
%ADD21R,0.600000X0.350000*%
%ADD22R,1.100000X1.700000*%
%ADD23R,0.254000X0.812800*%
%ADD24R,0.812800X0.254000*%
%ADD25R,1.676400X1.676400*%
%ADD26R,0.750000X0.650000*%
%ADD27RoundRect,0.062500X-0.187500X-0.062500X0.187500X-0.062500X0.187500X0.062500X-0.187500X0.062500X0*%
%ADD28RoundRect,0.225000X-0.225000X-0.250000X0.225000X-0.250000X0.225000X0.250000X-0.225000X0.250000X0*%
%ADD29R,1.000000X0.900000*%
%ADD30R,0.550000X1.700000*%
%ADD31RoundRect,0.062500X0.187500X0.062500X-0.187500X0.062500X-0.187500X-0.062500X0.187500X-0.062500X0*%
%ADD32RoundRect,0.030000X0.270000X0.090000X-0.270000X0.090000X-0.270000X-0.090000X0.270000X-0.090000X0*%
%ADD33RoundRect,0.237500X0.300000X0.237500X-0.300000X0.237500X-0.300000X-0.237500X0.300000X-0.237500X0*%
%ADD34RoundRect,0.250000X-0.350000X-0.450000X0.350000X-0.450000X0.350000X0.450000X-0.350000X0.450000X0*%
%ADD35RoundRect,0.250000X0.650000X-1.000000X0.650000X1.000000X-0.650000X1.000000X-0.650000X-1.000000X0*%
%ADD36RoundRect,0.030000X-0.270000X-0.090000X0.270000X-0.090000X0.270000X0.090000X-0.270000X0.090000X0*%
%ADD37RoundRect,0.237500X-0.237500X0.250000X-0.237500X-0.250000X0.237500X-0.250000X0.237500X0.250000X0*%
%ADD38RoundRect,0.237500X0.237500X-0.300000X0.237500X0.300000X-0.237500X0.300000X-0.237500X-0.300000X0*%
%ADD39RoundRect,0.237500X-0.300000X-0.237500X0.300000X-0.237500X0.300000X0.237500X-0.300000X0.237500X0*%
%ADD40RoundRect,0.150000X-0.587500X-0.150000X0.587500X-0.150000X0.587500X0.150000X-0.587500X0.150000X0*%
%ADD41RoundRect,0.237500X0.237500X-0.250000X0.237500X0.250000X-0.237500X0.250000X-0.237500X-0.250000X0*%
%ADD42RoundRect,0.250000X-0.450000X0.350000X-0.450000X-0.350000X0.450000X-0.350000X0.450000X0.350000X0*%
%ADD43RoundRect,0.150000X0.512500X0.150000X-0.512500X0.150000X-0.512500X-0.150000X0.512500X-0.150000X0*%
%ADD44RoundRect,0.225000X-0.250000X0.225000X-0.250000X-0.225000X0.250000X-0.225000X0.250000X0.225000X0*%
%ADD45RoundRect,0.150000X0.587500X0.150000X-0.587500X0.150000X-0.587500X-0.150000X0.587500X-0.150000X0*%
%ADD46RoundRect,0.075000X-0.700000X-0.075000X0.700000X-0.075000X0.700000X0.075000X-0.700000X0.075000X0*%
%ADD47RoundRect,0.075000X-0.075000X-0.700000X0.075000X-0.700000X0.075000X0.700000X-0.075000X0.700000X0*%
%ADD48RoundRect,0.200000X0.275000X-0.200000X0.275000X0.200000X-0.275000X0.200000X-0.275000X-0.200000X0*%
%ADD49RoundRect,0.250000X0.350000X0.450000X-0.350000X0.450000X-0.350000X-0.450000X0.350000X-0.450000X0*%
G04 APERTURE END LIST*
D10*
%TO.C,U9*%
X105623000Y-130176000D02*
X105625000Y-130176000D01*
X105628000Y-130177000D01*
X105630000Y-130177000D01*
X105633000Y-130178000D01*
X105635000Y-130179000D01*
X105638000Y-130180000D01*
X105640000Y-130182000D01*
X105642000Y-130183000D01*
X105644000Y-130185000D01*
X105646000Y-130186000D01*
X105648000Y-130188000D01*
X105650000Y-130190000D01*
X105652000Y-130192000D01*
X105654000Y-130194000D01*
X105655000Y-130196000D01*
X105657000Y-130198000D01*
X105658000Y-130200000D01*
X105660000Y-130202000D01*
X105661000Y-130205000D01*
X105662000Y-130207000D01*
X105663000Y-130210000D01*
X105663000Y-130212000D01*
X105664000Y-130215000D01*
X105664000Y-130217000D01*
X105665000Y-130220000D01*
X105665000Y-130222000D01*
X105665000Y-130225000D01*
X105665000Y-130515000D01*
X105415000Y-130515000D01*
X105415000Y-130225000D01*
X105415000Y-130222000D01*
X105415000Y-130220000D01*
X105416000Y-130217000D01*
X105416000Y-130215000D01*
X105417000Y-130212000D01*
X105417000Y-130210000D01*
X105418000Y-130207000D01*
X105419000Y-130205000D01*
X105420000Y-130202000D01*
X105422000Y-130200000D01*
X105423000Y-130198000D01*
X105425000Y-130196000D01*
X105426000Y-130194000D01*
X105428000Y-130192000D01*
X105430000Y-130190000D01*
X105432000Y-130188000D01*
X105434000Y-130186000D01*
X105436000Y-130185000D01*
X105438000Y-130183000D01*
X105440000Y-130182000D01*
X105442000Y-130180000D01*
X105445000Y-130179000D01*
X105447000Y-130178000D01*
X105450000Y-130177000D01*
X105452000Y-130177000D01*
X105455000Y-130176000D01*
X105457000Y-130176000D01*
X105460000Y-130175000D01*
X105462000Y-130175000D01*
X105465000Y-130175000D01*
X105615000Y-130175000D01*
X105618000Y-130175000D01*
X105620000Y-130175000D01*
X105623000Y-130176000D01*
G36*
X105623000Y-130176000D02*
G01*
X105625000Y-130176000D01*
X105628000Y-130177000D01*
X105630000Y-130177000D01*
X105633000Y-130178000D01*
X105635000Y-130179000D01*
X105638000Y-130180000D01*
X105640000Y-130182000D01*
X105642000Y-130183000D01*
X105644000Y-130185000D01*
X105646000Y-130186000D01*
X105648000Y-130188000D01*
X105650000Y-130190000D01*
X105652000Y-130192000D01*
X105654000Y-130194000D01*
X105655000Y-130196000D01*
X105657000Y-130198000D01*
X105658000Y-130200000D01*
X105660000Y-130202000D01*
X105661000Y-130205000D01*
X105662000Y-130207000D01*
X105663000Y-130210000D01*
X105663000Y-130212000D01*
X105664000Y-130215000D01*
X105664000Y-130217000D01*
X105665000Y-130220000D01*
X105665000Y-130222000D01*
X105665000Y-130225000D01*
X105665000Y-130515000D01*
X105415000Y-130515000D01*
X105415000Y-130225000D01*
X105415000Y-130222000D01*
X105415000Y-130220000D01*
X105416000Y-130217000D01*
X105416000Y-130215000D01*
X105417000Y-130212000D01*
X105417000Y-130210000D01*
X105418000Y-130207000D01*
X105419000Y-130205000D01*
X105420000Y-130202000D01*
X105422000Y-130200000D01*
X105423000Y-130198000D01*
X105425000Y-130196000D01*
X105426000Y-130194000D01*
X105428000Y-130192000D01*
X105430000Y-130190000D01*
X105432000Y-130188000D01*
X105434000Y-130186000D01*
X105436000Y-130185000D01*
X105438000Y-130183000D01*
X105440000Y-130182000D01*
X105442000Y-130180000D01*
X105445000Y-130179000D01*
X105447000Y-130178000D01*
X105450000Y-130177000D01*
X105452000Y-130177000D01*
X105455000Y-130176000D01*
X105457000Y-130176000D01*
X105460000Y-130175000D01*
X105462000Y-130175000D01*
X105465000Y-130175000D01*
X105615000Y-130175000D01*
X105618000Y-130175000D01*
X105620000Y-130175000D01*
X105623000Y-130176000D01*
G37*
X105665000Y-133525000D02*
X105665000Y-133528000D01*
X105665000Y-133530000D01*
X105664000Y-133533000D01*
X105664000Y-133535000D01*
X105663000Y-133538000D01*
X105663000Y-133540000D01*
X105662000Y-133543000D01*
X105661000Y-133545000D01*
X105660000Y-133548000D01*
X105658000Y-133550000D01*
X105657000Y-133552000D01*
X105655000Y-133554000D01*
X105654000Y-133556000D01*
X105652000Y-133558000D01*
X105650000Y-133560000D01*
X105648000Y-133562000D01*
X105646000Y-133564000D01*
X105644000Y-133565000D01*
X105642000Y-133567000D01*
X105640000Y-133568000D01*
X105638000Y-133570000D01*
X105635000Y-133571000D01*
X105633000Y-133572000D01*
X105630000Y-133573000D01*
X105628000Y-133573000D01*
X105625000Y-133574000D01*
X105623000Y-133574000D01*
X105620000Y-133575000D01*
X105618000Y-133575000D01*
X105615000Y-133575000D01*
X105465000Y-133575000D01*
X105462000Y-133575000D01*
X105460000Y-133575000D01*
X105457000Y-133574000D01*
X105455000Y-133574000D01*
X105452000Y-133573000D01*
X105450000Y-133573000D01*
X105447000Y-133572000D01*
X105445000Y-133571000D01*
X105442000Y-133570000D01*
X105440000Y-133568000D01*
X105438000Y-133567000D01*
X105436000Y-133565000D01*
X105434000Y-133564000D01*
X105432000Y-133562000D01*
X105430000Y-133560000D01*
X105428000Y-133558000D01*
X105426000Y-133556000D01*
X105425000Y-133554000D01*
X105423000Y-133552000D01*
X105422000Y-133550000D01*
X105420000Y-133548000D01*
X105419000Y-133545000D01*
X105418000Y-133543000D01*
X105417000Y-133540000D01*
X105417000Y-133538000D01*
X105416000Y-133535000D01*
X105416000Y-133533000D01*
X105415000Y-133530000D01*
X105415000Y-133528000D01*
X105415000Y-133525000D01*
X105415000Y-133235000D01*
X105665000Y-133235000D01*
X105665000Y-133525000D01*
G36*
X105665000Y-133525000D02*
G01*
X105665000Y-133528000D01*
X105665000Y-133530000D01*
X105664000Y-133533000D01*
X105664000Y-133535000D01*
X105663000Y-133538000D01*
X105663000Y-133540000D01*
X105662000Y-133543000D01*
X105661000Y-133545000D01*
X105660000Y-133548000D01*
X105658000Y-133550000D01*
X105657000Y-133552000D01*
X105655000Y-133554000D01*
X105654000Y-133556000D01*
X105652000Y-133558000D01*
X105650000Y-133560000D01*
X105648000Y-133562000D01*
X105646000Y-133564000D01*
X105644000Y-133565000D01*
X105642000Y-133567000D01*
X105640000Y-133568000D01*
X105638000Y-133570000D01*
X105635000Y-133571000D01*
X105633000Y-133572000D01*
X105630000Y-133573000D01*
X105628000Y-133573000D01*
X105625000Y-133574000D01*
X105623000Y-133574000D01*
X105620000Y-133575000D01*
X105618000Y-133575000D01*
X105615000Y-133575000D01*
X105465000Y-133575000D01*
X105462000Y-133575000D01*
X105460000Y-133575000D01*
X105457000Y-133574000D01*
X105455000Y-133574000D01*
X105452000Y-133573000D01*
X105450000Y-133573000D01*
X105447000Y-133572000D01*
X105445000Y-133571000D01*
X105442000Y-133570000D01*
X105440000Y-133568000D01*
X105438000Y-133567000D01*
X105436000Y-133565000D01*
X105434000Y-133564000D01*
X105432000Y-133562000D01*
X105430000Y-133560000D01*
X105428000Y-133558000D01*
X105426000Y-133556000D01*
X105425000Y-133554000D01*
X105423000Y-133552000D01*
X105422000Y-133550000D01*
X105420000Y-133548000D01*
X105419000Y-133545000D01*
X105418000Y-133543000D01*
X105417000Y-133540000D01*
X105417000Y-133538000D01*
X105416000Y-133535000D01*
X105416000Y-133533000D01*
X105415000Y-133530000D01*
X105415000Y-133528000D01*
X105415000Y-133525000D01*
X105415000Y-133235000D01*
X105665000Y-133235000D01*
X105665000Y-133525000D01*
G37*
X106123000Y-130176000D02*
X106125000Y-130176000D01*
X106128000Y-130177000D01*
X106130000Y-130177000D01*
X106133000Y-130178000D01*
X106135000Y-130179000D01*
X106138000Y-130180000D01*
X106140000Y-130182000D01*
X106142000Y-130183000D01*
X106144000Y-130185000D01*
X106146000Y-130186000D01*
X106148000Y-130188000D01*
X106150000Y-130190000D01*
X106152000Y-130192000D01*
X106154000Y-130194000D01*
X106155000Y-130196000D01*
X106157000Y-130198000D01*
X106158000Y-130200000D01*
X106160000Y-130202000D01*
X106161000Y-130205000D01*
X106162000Y-130207000D01*
X106163000Y-130210000D01*
X106163000Y-130212000D01*
X106164000Y-130215000D01*
X106164000Y-130217000D01*
X106165000Y-130220000D01*
X106165000Y-130222000D01*
X106165000Y-130225000D01*
X106165000Y-130515000D01*
X105915000Y-130515000D01*
X105915000Y-130225000D01*
X105915000Y-130222000D01*
X105915000Y-130220000D01*
X105916000Y-130217000D01*
X105916000Y-130215000D01*
X105917000Y-130212000D01*
X105917000Y-130210000D01*
X105918000Y-130207000D01*
X105919000Y-130205000D01*
X105920000Y-130202000D01*
X105922000Y-130200000D01*
X105923000Y-130198000D01*
X105925000Y-130196000D01*
X105926000Y-130194000D01*
X105928000Y-130192000D01*
X105930000Y-130190000D01*
X105932000Y-130188000D01*
X105934000Y-130186000D01*
X105936000Y-130185000D01*
X105938000Y-130183000D01*
X105940000Y-130182000D01*
X105942000Y-130180000D01*
X105945000Y-130179000D01*
X105947000Y-130178000D01*
X105950000Y-130177000D01*
X105952000Y-130177000D01*
X105955000Y-130176000D01*
X105957000Y-130176000D01*
X105960000Y-130175000D01*
X105962000Y-130175000D01*
X105965000Y-130175000D01*
X106115000Y-130175000D01*
X106118000Y-130175000D01*
X106120000Y-130175000D01*
X106123000Y-130176000D01*
G36*
X106123000Y-130176000D02*
G01*
X106125000Y-130176000D01*
X106128000Y-130177000D01*
X106130000Y-130177000D01*
X106133000Y-130178000D01*
X106135000Y-130179000D01*
X106138000Y-130180000D01*
X106140000Y-130182000D01*
X106142000Y-130183000D01*
X106144000Y-130185000D01*
X106146000Y-130186000D01*
X106148000Y-130188000D01*
X106150000Y-130190000D01*
X106152000Y-130192000D01*
X106154000Y-130194000D01*
X106155000Y-130196000D01*
X106157000Y-130198000D01*
X106158000Y-130200000D01*
X106160000Y-130202000D01*
X106161000Y-130205000D01*
X106162000Y-130207000D01*
X106163000Y-130210000D01*
X106163000Y-130212000D01*
X106164000Y-130215000D01*
X106164000Y-130217000D01*
X106165000Y-130220000D01*
X106165000Y-130222000D01*
X106165000Y-130225000D01*
X106165000Y-130515000D01*
X105915000Y-130515000D01*
X105915000Y-130225000D01*
X105915000Y-130222000D01*
X105915000Y-130220000D01*
X105916000Y-130217000D01*
X105916000Y-130215000D01*
X105917000Y-130212000D01*
X105917000Y-130210000D01*
X105918000Y-130207000D01*
X105919000Y-130205000D01*
X105920000Y-130202000D01*
X105922000Y-130200000D01*
X105923000Y-130198000D01*
X105925000Y-130196000D01*
X105926000Y-130194000D01*
X105928000Y-130192000D01*
X105930000Y-130190000D01*
X105932000Y-130188000D01*
X105934000Y-130186000D01*
X105936000Y-130185000D01*
X105938000Y-130183000D01*
X105940000Y-130182000D01*
X105942000Y-130180000D01*
X105945000Y-130179000D01*
X105947000Y-130178000D01*
X105950000Y-130177000D01*
X105952000Y-130177000D01*
X105955000Y-130176000D01*
X105957000Y-130176000D01*
X105960000Y-130175000D01*
X105962000Y-130175000D01*
X105965000Y-130175000D01*
X106115000Y-130175000D01*
X106118000Y-130175000D01*
X106120000Y-130175000D01*
X106123000Y-130176000D01*
G37*
X106165000Y-133525000D02*
X106165000Y-133528000D01*
X106165000Y-133530000D01*
X106164000Y-133533000D01*
X106164000Y-133535000D01*
X106163000Y-133538000D01*
X106163000Y-133540000D01*
X106162000Y-133543000D01*
X106161000Y-133545000D01*
X106160000Y-133548000D01*
X106158000Y-133550000D01*
X106157000Y-133552000D01*
X106155000Y-133554000D01*
X106154000Y-133556000D01*
X106152000Y-133558000D01*
X106150000Y-133560000D01*
X106148000Y-133562000D01*
X106146000Y-133564000D01*
X106144000Y-133565000D01*
X106142000Y-133567000D01*
X106140000Y-133568000D01*
X106138000Y-133570000D01*
X106135000Y-133571000D01*
X106133000Y-133572000D01*
X106130000Y-133573000D01*
X106128000Y-133573000D01*
X106125000Y-133574000D01*
X106123000Y-133574000D01*
X106120000Y-133575000D01*
X106118000Y-133575000D01*
X106115000Y-133575000D01*
X105965000Y-133575000D01*
X105962000Y-133575000D01*
X105960000Y-133575000D01*
X105957000Y-133574000D01*
X105955000Y-133574000D01*
X105952000Y-133573000D01*
X105950000Y-133573000D01*
X105947000Y-133572000D01*
X105945000Y-133571000D01*
X105942000Y-133570000D01*
X105940000Y-133568000D01*
X105938000Y-133567000D01*
X105936000Y-133565000D01*
X105934000Y-133564000D01*
X105932000Y-133562000D01*
X105930000Y-133560000D01*
X105928000Y-133558000D01*
X105926000Y-133556000D01*
X105925000Y-133554000D01*
X105923000Y-133552000D01*
X105922000Y-133550000D01*
X105920000Y-133548000D01*
X105919000Y-133545000D01*
X105918000Y-133543000D01*
X105917000Y-133540000D01*
X105917000Y-133538000D01*
X105916000Y-133535000D01*
X105916000Y-133533000D01*
X105915000Y-133530000D01*
X105915000Y-133528000D01*
X105915000Y-133525000D01*
X105915000Y-133235000D01*
X106165000Y-133235000D01*
X106165000Y-133525000D01*
G36*
X106165000Y-133525000D02*
G01*
X106165000Y-133528000D01*
X106165000Y-133530000D01*
X106164000Y-133533000D01*
X106164000Y-133535000D01*
X106163000Y-133538000D01*
X106163000Y-133540000D01*
X106162000Y-133543000D01*
X106161000Y-133545000D01*
X106160000Y-133548000D01*
X106158000Y-133550000D01*
X106157000Y-133552000D01*
X106155000Y-133554000D01*
X106154000Y-133556000D01*
X106152000Y-133558000D01*
X106150000Y-133560000D01*
X106148000Y-133562000D01*
X106146000Y-133564000D01*
X106144000Y-133565000D01*
X106142000Y-133567000D01*
X106140000Y-133568000D01*
X106138000Y-133570000D01*
X106135000Y-133571000D01*
X106133000Y-133572000D01*
X106130000Y-133573000D01*
X106128000Y-133573000D01*
X106125000Y-133574000D01*
X106123000Y-133574000D01*
X106120000Y-133575000D01*
X106118000Y-133575000D01*
X106115000Y-133575000D01*
X105965000Y-133575000D01*
X105962000Y-133575000D01*
X105960000Y-133575000D01*
X105957000Y-133574000D01*
X105955000Y-133574000D01*
X105952000Y-133573000D01*
X105950000Y-133573000D01*
X105947000Y-133572000D01*
X105945000Y-133571000D01*
X105942000Y-133570000D01*
X105940000Y-133568000D01*
X105938000Y-133567000D01*
X105936000Y-133565000D01*
X105934000Y-133564000D01*
X105932000Y-133562000D01*
X105930000Y-133560000D01*
X105928000Y-133558000D01*
X105926000Y-133556000D01*
X105925000Y-133554000D01*
X105923000Y-133552000D01*
X105922000Y-133550000D01*
X105920000Y-133548000D01*
X105919000Y-133545000D01*
X105918000Y-133543000D01*
X105917000Y-133540000D01*
X105917000Y-133538000D01*
X105916000Y-133535000D01*
X105916000Y-133533000D01*
X105915000Y-133530000D01*
X105915000Y-133528000D01*
X105915000Y-133525000D01*
X105915000Y-133235000D01*
X106165000Y-133235000D01*
X106165000Y-133525000D01*
G37*
X106498000Y-130716000D02*
X106500000Y-130716000D01*
X106503000Y-130717000D01*
X106505000Y-130717000D01*
X106508000Y-130718000D01*
X106510000Y-130719000D01*
X106513000Y-130720000D01*
X106515000Y-130722000D01*
X106517000Y-130723000D01*
X106519000Y-130725000D01*
X106521000Y-130726000D01*
X106523000Y-130728000D01*
X106525000Y-130730000D01*
X106527000Y-130732000D01*
X106529000Y-130734000D01*
X106530000Y-130736000D01*
X106532000Y-130738000D01*
X106533000Y-130740000D01*
X106535000Y-130742000D01*
X106536000Y-130745000D01*
X106537000Y-130747000D01*
X106538000Y-130750000D01*
X106538000Y-130752000D01*
X106539000Y-130755000D01*
X106539000Y-130757000D01*
X106540000Y-130760000D01*
X106540000Y-130762000D01*
X106540000Y-130765000D01*
X106540000Y-131725000D01*
X106540000Y-131728000D01*
X106540000Y-131730000D01*
X106539000Y-131733000D01*
X106539000Y-131735000D01*
X106538000Y-131738000D01*
X106538000Y-131740000D01*
X106537000Y-131743000D01*
X106536000Y-131745000D01*
X106535000Y-131748000D01*
X106533000Y-131750000D01*
X106532000Y-131752000D01*
X106530000Y-131754000D01*
X106529000Y-131756000D01*
X106527000Y-131758000D01*
X106525000Y-131760000D01*
X106523000Y-131762000D01*
X106521000Y-131764000D01*
X106519000Y-131765000D01*
X106517000Y-131767000D01*
X106515000Y-131768000D01*
X106513000Y-131770000D01*
X106510000Y-131771000D01*
X106508000Y-131772000D01*
X106505000Y-131773000D01*
X106503000Y-131773000D01*
X106500000Y-131774000D01*
X106498000Y-131774000D01*
X106495000Y-131775000D01*
X106493000Y-131775000D01*
X106490000Y-131775000D01*
X105090000Y-131775000D01*
X105087000Y-131775000D01*
X105085000Y-131775000D01*
X105082000Y-131774000D01*
X105080000Y-131774000D01*
X105077000Y-131773000D01*
X105075000Y-131773000D01*
X105072000Y-131772000D01*
X105070000Y-131771000D01*
X105067000Y-131770000D01*
X105065000Y-131768000D01*
X105063000Y-131767000D01*
X105061000Y-131765000D01*
X105059000Y-131764000D01*
X105057000Y-131762000D01*
X105055000Y-131760000D01*
X105053000Y-131758000D01*
X105051000Y-131756000D01*
X105050000Y-131754000D01*
X105048000Y-131752000D01*
X105047000Y-131750000D01*
X105045000Y-131748000D01*
X105044000Y-131745000D01*
X105043000Y-131743000D01*
X105042000Y-131740000D01*
X105042000Y-131738000D01*
X105041000Y-131735000D01*
X105041000Y-131733000D01*
X105040000Y-131730000D01*
X105040000Y-131728000D01*
X105040000Y-131725000D01*
X105040000Y-130765000D01*
X105040000Y-130762000D01*
X105040000Y-130760000D01*
X105041000Y-130757000D01*
X105041000Y-130755000D01*
X105042000Y-130752000D01*
X105042000Y-130750000D01*
X105043000Y-130747000D01*
X105044000Y-130745000D01*
X105045000Y-130742000D01*
X105047000Y-130740000D01*
X105048000Y-130738000D01*
X105050000Y-130736000D01*
X105051000Y-130734000D01*
X105053000Y-130732000D01*
X105055000Y-130730000D01*
X105057000Y-130728000D01*
X105059000Y-130726000D01*
X105061000Y-130725000D01*
X105063000Y-130723000D01*
X105065000Y-130722000D01*
X105067000Y-130720000D01*
X105070000Y-130719000D01*
X105072000Y-130718000D01*
X105075000Y-130717000D01*
X105077000Y-130717000D01*
X105080000Y-130716000D01*
X105082000Y-130716000D01*
X105085000Y-130715000D01*
X105087000Y-130715000D01*
X105090000Y-130715000D01*
X106490000Y-130715000D01*
X106493000Y-130715000D01*
X106495000Y-130715000D01*
X106498000Y-130716000D01*
G36*
X106498000Y-130716000D02*
G01*
X106500000Y-130716000D01*
X106503000Y-130717000D01*
X106505000Y-130717000D01*
X106508000Y-130718000D01*
X106510000Y-130719000D01*
X106513000Y-130720000D01*
X106515000Y-130722000D01*
X106517000Y-130723000D01*
X106519000Y-130725000D01*
X106521000Y-130726000D01*
X106523000Y-130728000D01*
X106525000Y-130730000D01*
X106527000Y-130732000D01*
X106529000Y-130734000D01*
X106530000Y-130736000D01*
X106532000Y-130738000D01*
X106533000Y-130740000D01*
X106535000Y-130742000D01*
X106536000Y-130745000D01*
X106537000Y-130747000D01*
X106538000Y-130750000D01*
X106538000Y-130752000D01*
X106539000Y-130755000D01*
X106539000Y-130757000D01*
X106540000Y-130760000D01*
X106540000Y-130762000D01*
X106540000Y-130765000D01*
X106540000Y-131725000D01*
X106540000Y-131728000D01*
X106540000Y-131730000D01*
X106539000Y-131733000D01*
X106539000Y-131735000D01*
X106538000Y-131738000D01*
X106538000Y-131740000D01*
X106537000Y-131743000D01*
X106536000Y-131745000D01*
X106535000Y-131748000D01*
X106533000Y-131750000D01*
X106532000Y-131752000D01*
X106530000Y-131754000D01*
X106529000Y-131756000D01*
X106527000Y-131758000D01*
X106525000Y-131760000D01*
X106523000Y-131762000D01*
X106521000Y-131764000D01*
X106519000Y-131765000D01*
X106517000Y-131767000D01*
X106515000Y-131768000D01*
X106513000Y-131770000D01*
X106510000Y-131771000D01*
X106508000Y-131772000D01*
X106505000Y-131773000D01*
X106503000Y-131773000D01*
X106500000Y-131774000D01*
X106498000Y-131774000D01*
X106495000Y-131775000D01*
X106493000Y-131775000D01*
X106490000Y-131775000D01*
X105090000Y-131775000D01*
X105087000Y-131775000D01*
X105085000Y-131775000D01*
X105082000Y-131774000D01*
X105080000Y-131774000D01*
X105077000Y-131773000D01*
X105075000Y-131773000D01*
X105072000Y-131772000D01*
X105070000Y-131771000D01*
X105067000Y-131770000D01*
X105065000Y-131768000D01*
X105063000Y-131767000D01*
X105061000Y-131765000D01*
X105059000Y-131764000D01*
X105057000Y-131762000D01*
X105055000Y-131760000D01*
X105053000Y-131758000D01*
X105051000Y-131756000D01*
X105050000Y-131754000D01*
X105048000Y-131752000D01*
X105047000Y-131750000D01*
X105045000Y-131748000D01*
X105044000Y-131745000D01*
X105043000Y-131743000D01*
X105042000Y-131740000D01*
X105042000Y-131738000D01*
X105041000Y-131735000D01*
X105041000Y-131733000D01*
X105040000Y-131730000D01*
X105040000Y-131728000D01*
X105040000Y-131725000D01*
X105040000Y-130765000D01*
X105040000Y-130762000D01*
X105040000Y-130760000D01*
X105041000Y-130757000D01*
X105041000Y-130755000D01*
X105042000Y-130752000D01*
X105042000Y-130750000D01*
X105043000Y-130747000D01*
X105044000Y-130745000D01*
X105045000Y-130742000D01*
X105047000Y-130740000D01*
X105048000Y-130738000D01*
X105050000Y-130736000D01*
X105051000Y-130734000D01*
X105053000Y-130732000D01*
X105055000Y-130730000D01*
X105057000Y-130728000D01*
X105059000Y-130726000D01*
X105061000Y-130725000D01*
X105063000Y-130723000D01*
X105065000Y-130722000D01*
X105067000Y-130720000D01*
X105070000Y-130719000D01*
X105072000Y-130718000D01*
X105075000Y-130717000D01*
X105077000Y-130717000D01*
X105080000Y-130716000D01*
X105082000Y-130716000D01*
X105085000Y-130715000D01*
X105087000Y-130715000D01*
X105090000Y-130715000D01*
X106490000Y-130715000D01*
X106493000Y-130715000D01*
X106495000Y-130715000D01*
X106498000Y-130716000D01*
G37*
X106498000Y-131976000D02*
X106500000Y-131976000D01*
X106503000Y-131977000D01*
X106505000Y-131977000D01*
X106508000Y-131978000D01*
X106510000Y-131979000D01*
X106513000Y-131980000D01*
X106515000Y-131982000D01*
X106517000Y-131983000D01*
X106519000Y-131985000D01*
X106521000Y-131986000D01*
X106523000Y-131988000D01*
X106525000Y-131990000D01*
X106527000Y-131992000D01*
X106529000Y-131994000D01*
X106530000Y-131996000D01*
X106532000Y-131998000D01*
X106533000Y-132000000D01*
X106535000Y-132002000D01*
X106536000Y-132005000D01*
X106537000Y-132007000D01*
X106538000Y-132010000D01*
X106538000Y-132012000D01*
X106539000Y-132015000D01*
X106539000Y-132017000D01*
X106540000Y-132020000D01*
X106540000Y-132022000D01*
X106540000Y-132025000D01*
X106540000Y-132985000D01*
X106540000Y-132988000D01*
X106540000Y-132990000D01*
X106539000Y-132993000D01*
X106539000Y-132995000D01*
X106538000Y-132998000D01*
X106538000Y-133000000D01*
X106537000Y-133003000D01*
X106536000Y-133005000D01*
X106535000Y-133008000D01*
X106533000Y-133010000D01*
X106532000Y-133012000D01*
X106530000Y-133014000D01*
X106529000Y-133016000D01*
X106527000Y-133018000D01*
X106525000Y-133020000D01*
X106523000Y-133022000D01*
X106521000Y-133024000D01*
X106519000Y-133025000D01*
X106517000Y-133027000D01*
X106515000Y-133028000D01*
X106513000Y-133030000D01*
X106510000Y-133031000D01*
X106508000Y-133032000D01*
X106505000Y-133033000D01*
X106503000Y-133033000D01*
X106500000Y-133034000D01*
X106498000Y-133034000D01*
X106495000Y-133035000D01*
X106493000Y-133035000D01*
X106490000Y-133035000D01*
X105090000Y-133035000D01*
X105087000Y-133035000D01*
X105085000Y-133035000D01*
X105082000Y-133034000D01*
X105080000Y-133034000D01*
X105077000Y-133033000D01*
X105075000Y-133033000D01*
X105072000Y-133032000D01*
X105070000Y-133031000D01*
X105067000Y-133030000D01*
X105065000Y-133028000D01*
X105063000Y-133027000D01*
X105061000Y-133025000D01*
X105059000Y-133024000D01*
X105057000Y-133022000D01*
X105055000Y-133020000D01*
X105053000Y-133018000D01*
X105051000Y-133016000D01*
X105050000Y-133014000D01*
X105048000Y-133012000D01*
X105047000Y-133010000D01*
X105045000Y-133008000D01*
X105044000Y-133005000D01*
X105043000Y-133003000D01*
X105042000Y-133000000D01*
X105042000Y-132998000D01*
X105041000Y-132995000D01*
X105041000Y-132993000D01*
X105040000Y-132990000D01*
X105040000Y-132988000D01*
X105040000Y-132985000D01*
X105040000Y-132025000D01*
X105040000Y-132022000D01*
X105040000Y-132020000D01*
X105041000Y-132017000D01*
X105041000Y-132015000D01*
X105042000Y-132012000D01*
X105042000Y-132010000D01*
X105043000Y-132007000D01*
X105044000Y-132005000D01*
X105045000Y-132002000D01*
X105047000Y-132000000D01*
X105048000Y-131998000D01*
X105050000Y-131996000D01*
X105051000Y-131994000D01*
X105053000Y-131992000D01*
X105055000Y-131990000D01*
X105057000Y-131988000D01*
X105059000Y-131986000D01*
X105061000Y-131985000D01*
X105063000Y-131983000D01*
X105065000Y-131982000D01*
X105067000Y-131980000D01*
X105070000Y-131979000D01*
X105072000Y-131978000D01*
X105075000Y-131977000D01*
X105077000Y-131977000D01*
X105080000Y-131976000D01*
X105082000Y-131976000D01*
X105085000Y-131975000D01*
X105087000Y-131975000D01*
X105090000Y-131975000D01*
X106490000Y-131975000D01*
X106493000Y-131975000D01*
X106495000Y-131975000D01*
X106498000Y-131976000D01*
G36*
X106498000Y-131976000D02*
G01*
X106500000Y-131976000D01*
X106503000Y-131977000D01*
X106505000Y-131977000D01*
X106508000Y-131978000D01*
X106510000Y-131979000D01*
X106513000Y-131980000D01*
X106515000Y-131982000D01*
X106517000Y-131983000D01*
X106519000Y-131985000D01*
X106521000Y-131986000D01*
X106523000Y-131988000D01*
X106525000Y-131990000D01*
X106527000Y-131992000D01*
X106529000Y-131994000D01*
X106530000Y-131996000D01*
X106532000Y-131998000D01*
X106533000Y-132000000D01*
X106535000Y-132002000D01*
X106536000Y-132005000D01*
X106537000Y-132007000D01*
X106538000Y-132010000D01*
X106538000Y-132012000D01*
X106539000Y-132015000D01*
X106539000Y-132017000D01*
X106540000Y-132020000D01*
X106540000Y-132022000D01*
X106540000Y-132025000D01*
X106540000Y-132985000D01*
X106540000Y-132988000D01*
X106540000Y-132990000D01*
X106539000Y-132993000D01*
X106539000Y-132995000D01*
X106538000Y-132998000D01*
X106538000Y-133000000D01*
X106537000Y-133003000D01*
X106536000Y-133005000D01*
X106535000Y-133008000D01*
X106533000Y-133010000D01*
X106532000Y-133012000D01*
X106530000Y-133014000D01*
X106529000Y-133016000D01*
X106527000Y-133018000D01*
X106525000Y-133020000D01*
X106523000Y-133022000D01*
X106521000Y-133024000D01*
X106519000Y-133025000D01*
X106517000Y-133027000D01*
X106515000Y-133028000D01*
X106513000Y-133030000D01*
X106510000Y-133031000D01*
X106508000Y-133032000D01*
X106505000Y-133033000D01*
X106503000Y-133033000D01*
X106500000Y-133034000D01*
X106498000Y-133034000D01*
X106495000Y-133035000D01*
X106493000Y-133035000D01*
X106490000Y-133035000D01*
X105090000Y-133035000D01*
X105087000Y-133035000D01*
X105085000Y-133035000D01*
X105082000Y-133034000D01*
X105080000Y-133034000D01*
X105077000Y-133033000D01*
X105075000Y-133033000D01*
X105072000Y-133032000D01*
X105070000Y-133031000D01*
X105067000Y-133030000D01*
X105065000Y-133028000D01*
X105063000Y-133027000D01*
X105061000Y-133025000D01*
X105059000Y-133024000D01*
X105057000Y-133022000D01*
X105055000Y-133020000D01*
X105053000Y-133018000D01*
X105051000Y-133016000D01*
X105050000Y-133014000D01*
X105048000Y-133012000D01*
X105047000Y-133010000D01*
X105045000Y-133008000D01*
X105044000Y-133005000D01*
X105043000Y-133003000D01*
X105042000Y-133000000D01*
X105042000Y-132998000D01*
X105041000Y-132995000D01*
X105041000Y-132993000D01*
X105040000Y-132990000D01*
X105040000Y-132988000D01*
X105040000Y-132985000D01*
X105040000Y-132025000D01*
X105040000Y-132022000D01*
X105040000Y-132020000D01*
X105041000Y-132017000D01*
X105041000Y-132015000D01*
X105042000Y-132012000D01*
X105042000Y-132010000D01*
X105043000Y-132007000D01*
X105044000Y-132005000D01*
X105045000Y-132002000D01*
X105047000Y-132000000D01*
X105048000Y-131998000D01*
X105050000Y-131996000D01*
X105051000Y-131994000D01*
X105053000Y-131992000D01*
X105055000Y-131990000D01*
X105057000Y-131988000D01*
X105059000Y-131986000D01*
X105061000Y-131985000D01*
X105063000Y-131983000D01*
X105065000Y-131982000D01*
X105067000Y-131980000D01*
X105070000Y-131979000D01*
X105072000Y-131978000D01*
X105075000Y-131977000D01*
X105077000Y-131977000D01*
X105080000Y-131976000D01*
X105082000Y-131976000D01*
X105085000Y-131975000D01*
X105087000Y-131975000D01*
X105090000Y-131975000D01*
X106490000Y-131975000D01*
X106493000Y-131975000D01*
X106495000Y-131975000D01*
X106498000Y-131976000D01*
G37*
%TO.C,U10*%
X163510500Y-130326000D02*
X163512500Y-130326000D01*
X163515500Y-130327000D01*
X163517500Y-130327000D01*
X163520500Y-130328000D01*
X163522500Y-130329000D01*
X163525500Y-130330000D01*
X163527500Y-130332000D01*
X163529500Y-130333000D01*
X163531500Y-130335000D01*
X163533500Y-130336000D01*
X163535500Y-130338000D01*
X163537500Y-130340000D01*
X163539500Y-130342000D01*
X163541500Y-130344000D01*
X163542500Y-130346000D01*
X163544500Y-130348000D01*
X163545500Y-130350000D01*
X163547500Y-130352000D01*
X163548500Y-130355000D01*
X163549500Y-130357000D01*
X163550500Y-130360000D01*
X163550500Y-130362000D01*
X163551500Y-130365000D01*
X163551500Y-130367000D01*
X163552500Y-130370000D01*
X163552500Y-130372000D01*
X163552500Y-130375000D01*
X163552500Y-130665000D01*
X163302500Y-130665000D01*
X163302500Y-130375000D01*
X163302500Y-130372000D01*
X163302500Y-130370000D01*
X163303500Y-130367000D01*
X163303500Y-130365000D01*
X163304500Y-130362000D01*
X163304500Y-130360000D01*
X163305500Y-130357000D01*
X163306500Y-130355000D01*
X163307500Y-130352000D01*
X163309500Y-130350000D01*
X163310500Y-130348000D01*
X163312500Y-130346000D01*
X163313500Y-130344000D01*
X163315500Y-130342000D01*
X163317500Y-130340000D01*
X163319500Y-130338000D01*
X163321500Y-130336000D01*
X163323500Y-130335000D01*
X163325500Y-130333000D01*
X163327500Y-130332000D01*
X163329500Y-130330000D01*
X163332500Y-130329000D01*
X163334500Y-130328000D01*
X163337500Y-130327000D01*
X163339500Y-130327000D01*
X163342500Y-130326000D01*
X163344500Y-130326000D01*
X163347500Y-130325000D01*
X163349500Y-130325000D01*
X163352500Y-130325000D01*
X163502500Y-130325000D01*
X163505500Y-130325000D01*
X163507500Y-130325000D01*
X163510500Y-130326000D01*
G36*
X163510500Y-130326000D02*
G01*
X163512500Y-130326000D01*
X163515500Y-130327000D01*
X163517500Y-130327000D01*
X163520500Y-130328000D01*
X163522500Y-130329000D01*
X163525500Y-130330000D01*
X163527500Y-130332000D01*
X163529500Y-130333000D01*
X163531500Y-130335000D01*
X163533500Y-130336000D01*
X163535500Y-130338000D01*
X163537500Y-130340000D01*
X163539500Y-130342000D01*
X163541500Y-130344000D01*
X163542500Y-130346000D01*
X163544500Y-130348000D01*
X163545500Y-130350000D01*
X163547500Y-130352000D01*
X163548500Y-130355000D01*
X163549500Y-130357000D01*
X163550500Y-130360000D01*
X163550500Y-130362000D01*
X163551500Y-130365000D01*
X163551500Y-130367000D01*
X163552500Y-130370000D01*
X163552500Y-130372000D01*
X163552500Y-130375000D01*
X163552500Y-130665000D01*
X163302500Y-130665000D01*
X163302500Y-130375000D01*
X163302500Y-130372000D01*
X163302500Y-130370000D01*
X163303500Y-130367000D01*
X163303500Y-130365000D01*
X163304500Y-130362000D01*
X163304500Y-130360000D01*
X163305500Y-130357000D01*
X163306500Y-130355000D01*
X163307500Y-130352000D01*
X163309500Y-130350000D01*
X163310500Y-130348000D01*
X163312500Y-130346000D01*
X163313500Y-130344000D01*
X163315500Y-130342000D01*
X163317500Y-130340000D01*
X163319500Y-130338000D01*
X163321500Y-130336000D01*
X163323500Y-130335000D01*
X163325500Y-130333000D01*
X163327500Y-130332000D01*
X163329500Y-130330000D01*
X163332500Y-130329000D01*
X163334500Y-130328000D01*
X163337500Y-130327000D01*
X163339500Y-130327000D01*
X163342500Y-130326000D01*
X163344500Y-130326000D01*
X163347500Y-130325000D01*
X163349500Y-130325000D01*
X163352500Y-130325000D01*
X163502500Y-130325000D01*
X163505500Y-130325000D01*
X163507500Y-130325000D01*
X163510500Y-130326000D01*
G37*
X163552500Y-133675000D02*
X163552500Y-133678000D01*
X163552500Y-133680000D01*
X163551500Y-133683000D01*
X163551500Y-133685000D01*
X163550500Y-133688000D01*
X163550500Y-133690000D01*
X163549500Y-133693000D01*
X163548500Y-133695000D01*
X163547500Y-133698000D01*
X163545500Y-133700000D01*
X163544500Y-133702000D01*
X163542500Y-133704000D01*
X163541500Y-133706000D01*
X163539500Y-133708000D01*
X163537500Y-133710000D01*
X163535500Y-133712000D01*
X163533500Y-133714000D01*
X163531500Y-133715000D01*
X163529500Y-133717000D01*
X163527500Y-133718000D01*
X163525500Y-133720000D01*
X163522500Y-133721000D01*
X163520500Y-133722000D01*
X163517500Y-133723000D01*
X163515500Y-133723000D01*
X163512500Y-133724000D01*
X163510500Y-133724000D01*
X163507500Y-133725000D01*
X163505500Y-133725000D01*
X163502500Y-133725000D01*
X163352500Y-133725000D01*
X163349500Y-133725000D01*
X163347500Y-133725000D01*
X163344500Y-133724000D01*
X163342500Y-133724000D01*
X163339500Y-133723000D01*
X163337500Y-133723000D01*
X163334500Y-133722000D01*
X163332500Y-133721000D01*
X163329500Y-133720000D01*
X163327500Y-133718000D01*
X163325500Y-133717000D01*
X163323500Y-133715000D01*
X163321500Y-133714000D01*
X163319500Y-133712000D01*
X163317500Y-133710000D01*
X163315500Y-133708000D01*
X163313500Y-133706000D01*
X163312500Y-133704000D01*
X163310500Y-133702000D01*
X163309500Y-133700000D01*
X163307500Y-133698000D01*
X163306500Y-133695000D01*
X163305500Y-133693000D01*
X163304500Y-133690000D01*
X163304500Y-133688000D01*
X163303500Y-133685000D01*
X163303500Y-133683000D01*
X163302500Y-133680000D01*
X163302500Y-133678000D01*
X163302500Y-133675000D01*
X163302500Y-133385000D01*
X163552500Y-133385000D01*
X163552500Y-133675000D01*
G36*
X163552500Y-133675000D02*
G01*
X163552500Y-133678000D01*
X163552500Y-133680000D01*
X163551500Y-133683000D01*
X163551500Y-133685000D01*
X163550500Y-133688000D01*
X163550500Y-133690000D01*
X163549500Y-133693000D01*
X163548500Y-133695000D01*
X163547500Y-133698000D01*
X163545500Y-133700000D01*
X163544500Y-133702000D01*
X163542500Y-133704000D01*
X163541500Y-133706000D01*
X163539500Y-133708000D01*
X163537500Y-133710000D01*
X163535500Y-133712000D01*
X163533500Y-133714000D01*
X163531500Y-133715000D01*
X163529500Y-133717000D01*
X163527500Y-133718000D01*
X163525500Y-133720000D01*
X163522500Y-133721000D01*
X163520500Y-133722000D01*
X163517500Y-133723000D01*
X163515500Y-133723000D01*
X163512500Y-133724000D01*
X163510500Y-133724000D01*
X163507500Y-133725000D01*
X163505500Y-133725000D01*
X163502500Y-133725000D01*
X163352500Y-133725000D01*
X163349500Y-133725000D01*
X163347500Y-133725000D01*
X163344500Y-133724000D01*
X163342500Y-133724000D01*
X163339500Y-133723000D01*
X163337500Y-133723000D01*
X163334500Y-133722000D01*
X163332500Y-133721000D01*
X163329500Y-133720000D01*
X163327500Y-133718000D01*
X163325500Y-133717000D01*
X163323500Y-133715000D01*
X163321500Y-133714000D01*
X163319500Y-133712000D01*
X163317500Y-133710000D01*
X163315500Y-133708000D01*
X163313500Y-133706000D01*
X163312500Y-133704000D01*
X163310500Y-133702000D01*
X163309500Y-133700000D01*
X163307500Y-133698000D01*
X163306500Y-133695000D01*
X163305500Y-133693000D01*
X163304500Y-133690000D01*
X163304500Y-133688000D01*
X163303500Y-133685000D01*
X163303500Y-133683000D01*
X163302500Y-133680000D01*
X163302500Y-133678000D01*
X163302500Y-133675000D01*
X163302500Y-133385000D01*
X163552500Y-133385000D01*
X163552500Y-133675000D01*
G37*
X164010500Y-130326000D02*
X164012500Y-130326000D01*
X164015500Y-130327000D01*
X164017500Y-130327000D01*
X164020500Y-130328000D01*
X164022500Y-130329000D01*
X164025500Y-130330000D01*
X164027500Y-130332000D01*
X164029500Y-130333000D01*
X164031500Y-130335000D01*
X164033500Y-130336000D01*
X164035500Y-130338000D01*
X164037500Y-130340000D01*
X164039500Y-130342000D01*
X164041500Y-130344000D01*
X164042500Y-130346000D01*
X164044500Y-130348000D01*
X164045500Y-130350000D01*
X164047500Y-130352000D01*
X164048500Y-130355000D01*
X164049500Y-130357000D01*
X164050500Y-130360000D01*
X164050500Y-130362000D01*
X164051500Y-130365000D01*
X164051500Y-130367000D01*
X164052500Y-130370000D01*
X164052500Y-130372000D01*
X164052500Y-130375000D01*
X164052500Y-130665000D01*
X163802500Y-130665000D01*
X163802500Y-130375000D01*
X163802500Y-130372000D01*
X163802500Y-130370000D01*
X163803500Y-130367000D01*
X163803500Y-130365000D01*
X163804500Y-130362000D01*
X163804500Y-130360000D01*
X163805500Y-130357000D01*
X163806500Y-130355000D01*
X163807500Y-130352000D01*
X163809500Y-130350000D01*
X163810500Y-130348000D01*
X163812500Y-130346000D01*
X163813500Y-130344000D01*
X163815500Y-130342000D01*
X163817500Y-130340000D01*
X163819500Y-130338000D01*
X163821500Y-130336000D01*
X163823500Y-130335000D01*
X163825500Y-130333000D01*
X163827500Y-130332000D01*
X163829500Y-130330000D01*
X163832500Y-130329000D01*
X163834500Y-130328000D01*
X163837500Y-130327000D01*
X163839500Y-130327000D01*
X163842500Y-130326000D01*
X163844500Y-130326000D01*
X163847500Y-130325000D01*
X163849500Y-130325000D01*
X163852500Y-130325000D01*
X164002500Y-130325000D01*
X164005500Y-130325000D01*
X164007500Y-130325000D01*
X164010500Y-130326000D01*
G36*
X164010500Y-130326000D02*
G01*
X164012500Y-130326000D01*
X164015500Y-130327000D01*
X164017500Y-130327000D01*
X164020500Y-130328000D01*
X164022500Y-130329000D01*
X164025500Y-130330000D01*
X164027500Y-130332000D01*
X164029500Y-130333000D01*
X164031500Y-130335000D01*
X164033500Y-130336000D01*
X164035500Y-130338000D01*
X164037500Y-130340000D01*
X164039500Y-130342000D01*
X164041500Y-130344000D01*
X164042500Y-130346000D01*
X164044500Y-130348000D01*
X164045500Y-130350000D01*
X164047500Y-130352000D01*
X164048500Y-130355000D01*
X164049500Y-130357000D01*
X164050500Y-130360000D01*
X164050500Y-130362000D01*
X164051500Y-130365000D01*
X164051500Y-130367000D01*
X164052500Y-130370000D01*
X164052500Y-130372000D01*
X164052500Y-130375000D01*
X164052500Y-130665000D01*
X163802500Y-130665000D01*
X163802500Y-130375000D01*
X163802500Y-130372000D01*
X163802500Y-130370000D01*
X163803500Y-130367000D01*
X163803500Y-130365000D01*
X163804500Y-130362000D01*
X163804500Y-130360000D01*
X163805500Y-130357000D01*
X163806500Y-130355000D01*
X163807500Y-130352000D01*
X163809500Y-130350000D01*
X163810500Y-130348000D01*
X163812500Y-130346000D01*
X163813500Y-130344000D01*
X163815500Y-130342000D01*
X163817500Y-130340000D01*
X163819500Y-130338000D01*
X163821500Y-130336000D01*
X163823500Y-130335000D01*
X163825500Y-130333000D01*
X163827500Y-130332000D01*
X163829500Y-130330000D01*
X163832500Y-130329000D01*
X163834500Y-130328000D01*
X163837500Y-130327000D01*
X163839500Y-130327000D01*
X163842500Y-130326000D01*
X163844500Y-130326000D01*
X163847500Y-130325000D01*
X163849500Y-130325000D01*
X163852500Y-130325000D01*
X164002500Y-130325000D01*
X164005500Y-130325000D01*
X164007500Y-130325000D01*
X164010500Y-130326000D01*
G37*
X164052500Y-133675000D02*
X164052500Y-133678000D01*
X164052500Y-133680000D01*
X164051500Y-133683000D01*
X164051500Y-133685000D01*
X164050500Y-133688000D01*
X164050500Y-133690000D01*
X164049500Y-133693000D01*
X164048500Y-133695000D01*
X164047500Y-133698000D01*
X164045500Y-133700000D01*
X164044500Y-133702000D01*
X164042500Y-133704000D01*
X164041500Y-133706000D01*
X164039500Y-133708000D01*
X164037500Y-133710000D01*
X164035500Y-133712000D01*
X164033500Y-133714000D01*
X164031500Y-133715000D01*
X164029500Y-133717000D01*
X164027500Y-133718000D01*
X164025500Y-133720000D01*
X164022500Y-133721000D01*
X164020500Y-133722000D01*
X164017500Y-133723000D01*
X164015500Y-133723000D01*
X164012500Y-133724000D01*
X164010500Y-133724000D01*
X164007500Y-133725000D01*
X164005500Y-133725000D01*
X164002500Y-133725000D01*
X163852500Y-133725000D01*
X163849500Y-133725000D01*
X163847500Y-133725000D01*
X163844500Y-133724000D01*
X163842500Y-133724000D01*
X163839500Y-133723000D01*
X163837500Y-133723000D01*
X163834500Y-133722000D01*
X163832500Y-133721000D01*
X163829500Y-133720000D01*
X163827500Y-133718000D01*
X163825500Y-133717000D01*
X163823500Y-133715000D01*
X163821500Y-133714000D01*
X163819500Y-133712000D01*
X163817500Y-133710000D01*
X163815500Y-133708000D01*
X163813500Y-133706000D01*
X163812500Y-133704000D01*
X163810500Y-133702000D01*
X163809500Y-133700000D01*
X163807500Y-133698000D01*
X163806500Y-133695000D01*
X163805500Y-133693000D01*
X163804500Y-133690000D01*
X163804500Y-133688000D01*
X163803500Y-133685000D01*
X163803500Y-133683000D01*
X163802500Y-133680000D01*
X163802500Y-133678000D01*
X163802500Y-133675000D01*
X163802500Y-133385000D01*
X164052500Y-133385000D01*
X164052500Y-133675000D01*
G36*
X164052500Y-133675000D02*
G01*
X164052500Y-133678000D01*
X164052500Y-133680000D01*
X164051500Y-133683000D01*
X164051500Y-133685000D01*
X164050500Y-133688000D01*
X164050500Y-133690000D01*
X164049500Y-133693000D01*
X164048500Y-133695000D01*
X164047500Y-133698000D01*
X164045500Y-133700000D01*
X164044500Y-133702000D01*
X164042500Y-133704000D01*
X164041500Y-133706000D01*
X164039500Y-133708000D01*
X164037500Y-133710000D01*
X164035500Y-133712000D01*
X164033500Y-133714000D01*
X164031500Y-133715000D01*
X164029500Y-133717000D01*
X164027500Y-133718000D01*
X164025500Y-133720000D01*
X164022500Y-133721000D01*
X164020500Y-133722000D01*
X164017500Y-133723000D01*
X164015500Y-133723000D01*
X164012500Y-133724000D01*
X164010500Y-133724000D01*
X164007500Y-133725000D01*
X164005500Y-133725000D01*
X164002500Y-133725000D01*
X163852500Y-133725000D01*
X163849500Y-133725000D01*
X163847500Y-133725000D01*
X163844500Y-133724000D01*
X163842500Y-133724000D01*
X163839500Y-133723000D01*
X163837500Y-133723000D01*
X163834500Y-133722000D01*
X163832500Y-133721000D01*
X163829500Y-133720000D01*
X163827500Y-133718000D01*
X163825500Y-133717000D01*
X163823500Y-133715000D01*
X163821500Y-133714000D01*
X163819500Y-133712000D01*
X163817500Y-133710000D01*
X163815500Y-133708000D01*
X163813500Y-133706000D01*
X163812500Y-133704000D01*
X163810500Y-133702000D01*
X163809500Y-133700000D01*
X163807500Y-133698000D01*
X163806500Y-133695000D01*
X163805500Y-133693000D01*
X163804500Y-133690000D01*
X163804500Y-133688000D01*
X163803500Y-133685000D01*
X163803500Y-133683000D01*
X163802500Y-133680000D01*
X163802500Y-133678000D01*
X163802500Y-133675000D01*
X163802500Y-133385000D01*
X164052500Y-133385000D01*
X164052500Y-133675000D01*
G37*
X164385500Y-130866000D02*
X164387500Y-130866000D01*
X164390500Y-130867000D01*
X164392500Y-130867000D01*
X164395500Y-130868000D01*
X164397500Y-130869000D01*
X164400500Y-130870000D01*
X164402500Y-130872000D01*
X164404500Y-130873000D01*
X164406500Y-130875000D01*
X164408500Y-130876000D01*
X164410500Y-130878000D01*
X164412500Y-130880000D01*
X164414500Y-130882000D01*
X164416500Y-130884000D01*
X164417500Y-130886000D01*
X164419500Y-130888000D01*
X164420500Y-130890000D01*
X164422500Y-130892000D01*
X164423500Y-130895000D01*
X164424500Y-130897000D01*
X164425500Y-130900000D01*
X164425500Y-130902000D01*
X164426500Y-130905000D01*
X164426500Y-130907000D01*
X164427500Y-130910000D01*
X164427500Y-130912000D01*
X164427500Y-130915000D01*
X164427500Y-131875000D01*
X164427500Y-131878000D01*
X164427500Y-131880000D01*
X164426500Y-131883000D01*
X164426500Y-131885000D01*
X164425500Y-131888000D01*
X164425500Y-131890000D01*
X164424500Y-131893000D01*
X164423500Y-131895000D01*
X164422500Y-131898000D01*
X164420500Y-131900000D01*
X164419500Y-131902000D01*
X164417500Y-131904000D01*
X164416500Y-131906000D01*
X164414500Y-131908000D01*
X164412500Y-131910000D01*
X164410500Y-131912000D01*
X164408500Y-131914000D01*
X164406500Y-131915000D01*
X164404500Y-131917000D01*
X164402500Y-131918000D01*
X164400500Y-131920000D01*
X164397500Y-131921000D01*
X164395500Y-131922000D01*
X164392500Y-131923000D01*
X164390500Y-131923000D01*
X164387500Y-131924000D01*
X164385500Y-131924000D01*
X164382500Y-131925000D01*
X164380500Y-131925000D01*
X164377500Y-131925000D01*
X162977500Y-131925000D01*
X162974500Y-131925000D01*
X162972500Y-131925000D01*
X162969500Y-131924000D01*
X162967500Y-131924000D01*
X162964500Y-131923000D01*
X162962500Y-131923000D01*
X162959500Y-131922000D01*
X162957500Y-131921000D01*
X162954500Y-131920000D01*
X162952500Y-131918000D01*
X162950500Y-131917000D01*
X162948500Y-131915000D01*
X162946500Y-131914000D01*
X162944500Y-131912000D01*
X162942500Y-131910000D01*
X162940500Y-131908000D01*
X162938500Y-131906000D01*
X162937500Y-131904000D01*
X162935500Y-131902000D01*
X162934500Y-131900000D01*
X162932500Y-131898000D01*
X162931500Y-131895000D01*
X162930500Y-131893000D01*
X162929500Y-131890000D01*
X162929500Y-131888000D01*
X162928500Y-131885000D01*
X162928500Y-131883000D01*
X162927500Y-131880000D01*
X162927500Y-131878000D01*
X162927500Y-131875000D01*
X162927500Y-130915000D01*
X162927500Y-130912000D01*
X162927500Y-130910000D01*
X162928500Y-130907000D01*
X162928500Y-130905000D01*
X162929500Y-130902000D01*
X162929500Y-130900000D01*
X162930500Y-130897000D01*
X162931500Y-130895000D01*
X162932500Y-130892000D01*
X162934500Y-130890000D01*
X162935500Y-130888000D01*
X162937500Y-130886000D01*
X162938500Y-130884000D01*
X162940500Y-130882000D01*
X162942500Y-130880000D01*
X162944500Y-130878000D01*
X162946500Y-130876000D01*
X162948500Y-130875000D01*
X162950500Y-130873000D01*
X162952500Y-130872000D01*
X162954500Y-130870000D01*
X162957500Y-130869000D01*
X162959500Y-130868000D01*
X162962500Y-130867000D01*
X162964500Y-130867000D01*
X162967500Y-130866000D01*
X162969500Y-130866000D01*
X162972500Y-130865000D01*
X162974500Y-130865000D01*
X162977500Y-130865000D01*
X164377500Y-130865000D01*
X164380500Y-130865000D01*
X164382500Y-130865000D01*
X164385500Y-130866000D01*
G36*
X164385500Y-130866000D02*
G01*
X164387500Y-130866000D01*
X164390500Y-130867000D01*
X164392500Y-130867000D01*
X164395500Y-130868000D01*
X164397500Y-130869000D01*
X164400500Y-130870000D01*
X164402500Y-130872000D01*
X164404500Y-130873000D01*
X164406500Y-130875000D01*
X164408500Y-130876000D01*
X164410500Y-130878000D01*
X164412500Y-130880000D01*
X164414500Y-130882000D01*
X164416500Y-130884000D01*
X164417500Y-130886000D01*
X164419500Y-130888000D01*
X164420500Y-130890000D01*
X164422500Y-130892000D01*
X164423500Y-130895000D01*
X164424500Y-130897000D01*
X164425500Y-130900000D01*
X164425500Y-130902000D01*
X164426500Y-130905000D01*
X164426500Y-130907000D01*
X164427500Y-130910000D01*
X164427500Y-130912000D01*
X164427500Y-130915000D01*
X164427500Y-131875000D01*
X164427500Y-131878000D01*
X164427500Y-131880000D01*
X164426500Y-131883000D01*
X164426500Y-131885000D01*
X164425500Y-131888000D01*
X164425500Y-131890000D01*
X164424500Y-131893000D01*
X164423500Y-131895000D01*
X164422500Y-131898000D01*
X164420500Y-131900000D01*
X164419500Y-131902000D01*
X164417500Y-131904000D01*
X164416500Y-131906000D01*
X164414500Y-131908000D01*
X164412500Y-131910000D01*
X164410500Y-131912000D01*
X164408500Y-131914000D01*
X164406500Y-131915000D01*
X164404500Y-131917000D01*
X164402500Y-131918000D01*
X164400500Y-131920000D01*
X164397500Y-131921000D01*
X164395500Y-131922000D01*
X164392500Y-131923000D01*
X164390500Y-131923000D01*
X164387500Y-131924000D01*
X164385500Y-131924000D01*
X164382500Y-131925000D01*
X164380500Y-131925000D01*
X164377500Y-131925000D01*
X162977500Y-131925000D01*
X162974500Y-131925000D01*
X162972500Y-131925000D01*
X162969500Y-131924000D01*
X162967500Y-131924000D01*
X162964500Y-131923000D01*
X162962500Y-131923000D01*
X162959500Y-131922000D01*
X162957500Y-131921000D01*
X162954500Y-131920000D01*
X162952500Y-131918000D01*
X162950500Y-131917000D01*
X162948500Y-131915000D01*
X162946500Y-131914000D01*
X162944500Y-131912000D01*
X162942500Y-131910000D01*
X162940500Y-131908000D01*
X162938500Y-131906000D01*
X162937500Y-131904000D01*
X162935500Y-131902000D01*
X162934500Y-131900000D01*
X162932500Y-131898000D01*
X162931500Y-131895000D01*
X162930500Y-131893000D01*
X162929500Y-131890000D01*
X162929500Y-131888000D01*
X162928500Y-131885000D01*
X162928500Y-131883000D01*
X162927500Y-131880000D01*
X162927500Y-131878000D01*
X162927500Y-131875000D01*
X162927500Y-130915000D01*
X162927500Y-130912000D01*
X162927500Y-130910000D01*
X162928500Y-130907000D01*
X162928500Y-130905000D01*
X162929500Y-130902000D01*
X162929500Y-130900000D01*
X162930500Y-130897000D01*
X162931500Y-130895000D01*
X162932500Y-130892000D01*
X162934500Y-130890000D01*
X162935500Y-130888000D01*
X162937500Y-130886000D01*
X162938500Y-130884000D01*
X162940500Y-130882000D01*
X162942500Y-130880000D01*
X162944500Y-130878000D01*
X162946500Y-130876000D01*
X162948500Y-130875000D01*
X162950500Y-130873000D01*
X162952500Y-130872000D01*
X162954500Y-130870000D01*
X162957500Y-130869000D01*
X162959500Y-130868000D01*
X162962500Y-130867000D01*
X162964500Y-130867000D01*
X162967500Y-130866000D01*
X162969500Y-130866000D01*
X162972500Y-130865000D01*
X162974500Y-130865000D01*
X162977500Y-130865000D01*
X164377500Y-130865000D01*
X164380500Y-130865000D01*
X164382500Y-130865000D01*
X164385500Y-130866000D01*
G37*
X164385500Y-132126000D02*
X164387500Y-132126000D01*
X164390500Y-132127000D01*
X164392500Y-132127000D01*
X164395500Y-132128000D01*
X164397500Y-132129000D01*
X164400500Y-132130000D01*
X164402500Y-132132000D01*
X164404500Y-132133000D01*
X164406500Y-132135000D01*
X164408500Y-132136000D01*
X164410500Y-132138000D01*
X164412500Y-132140000D01*
X164414500Y-132142000D01*
X164416500Y-132144000D01*
X164417500Y-132146000D01*
X164419500Y-132148000D01*
X164420500Y-132150000D01*
X164422500Y-132152000D01*
X164423500Y-132155000D01*
X164424500Y-132157000D01*
X164425500Y-132160000D01*
X164425500Y-132162000D01*
X164426500Y-132165000D01*
X164426500Y-132167000D01*
X164427500Y-132170000D01*
X164427500Y-132172000D01*
X164427500Y-132175000D01*
X164427500Y-133135000D01*
X164427500Y-133138000D01*
X164427500Y-133140000D01*
X164426500Y-133143000D01*
X164426500Y-133145000D01*
X164425500Y-133148000D01*
X164425500Y-133150000D01*
X164424500Y-133153000D01*
X164423500Y-133155000D01*
X164422500Y-133158000D01*
X164420500Y-133160000D01*
X164419500Y-133162000D01*
X164417500Y-133164000D01*
X164416500Y-133166000D01*
X164414500Y-133168000D01*
X164412500Y-133170000D01*
X164410500Y-133172000D01*
X164408500Y-133174000D01*
X164406500Y-133175000D01*
X164404500Y-133177000D01*
X164402500Y-133178000D01*
X164400500Y-133180000D01*
X164397500Y-133181000D01*
X164395500Y-133182000D01*
X164392500Y-133183000D01*
X164390500Y-133183000D01*
X164387500Y-133184000D01*
X164385500Y-133184000D01*
X164382500Y-133185000D01*
X164380500Y-133185000D01*
X164377500Y-133185000D01*
X162977500Y-133185000D01*
X162974500Y-133185000D01*
X162972500Y-133185000D01*
X162969500Y-133184000D01*
X162967500Y-133184000D01*
X162964500Y-133183000D01*
X162962500Y-133183000D01*
X162959500Y-133182000D01*
X162957500Y-133181000D01*
X162954500Y-133180000D01*
X162952500Y-133178000D01*
X162950500Y-133177000D01*
X162948500Y-133175000D01*
X162946500Y-133174000D01*
X162944500Y-133172000D01*
X162942500Y-133170000D01*
X162940500Y-133168000D01*
X162938500Y-133166000D01*
X162937500Y-133164000D01*
X162935500Y-133162000D01*
X162934500Y-133160000D01*
X162932500Y-133158000D01*
X162931500Y-133155000D01*
X162930500Y-133153000D01*
X162929500Y-133150000D01*
X162929500Y-133148000D01*
X162928500Y-133145000D01*
X162928500Y-133143000D01*
X162927500Y-133140000D01*
X162927500Y-133138000D01*
X162927500Y-133135000D01*
X162927500Y-132175000D01*
X162927500Y-132172000D01*
X162927500Y-132170000D01*
X162928500Y-132167000D01*
X162928500Y-132165000D01*
X162929500Y-132162000D01*
X162929500Y-132160000D01*
X162930500Y-132157000D01*
X162931500Y-132155000D01*
X162932500Y-132152000D01*
X162934500Y-132150000D01*
X162935500Y-132148000D01*
X162937500Y-132146000D01*
X162938500Y-132144000D01*
X162940500Y-132142000D01*
X162942500Y-132140000D01*
X162944500Y-132138000D01*
X162946500Y-132136000D01*
X162948500Y-132135000D01*
X162950500Y-132133000D01*
X162952500Y-132132000D01*
X162954500Y-132130000D01*
X162957500Y-132129000D01*
X162959500Y-132128000D01*
X162962500Y-132127000D01*
X162964500Y-132127000D01*
X162967500Y-132126000D01*
X162969500Y-132126000D01*
X162972500Y-132125000D01*
X162974500Y-132125000D01*
X162977500Y-132125000D01*
X164377500Y-132125000D01*
X164380500Y-132125000D01*
X164382500Y-132125000D01*
X164385500Y-132126000D01*
G36*
X164385500Y-132126000D02*
G01*
X164387500Y-132126000D01*
X164390500Y-132127000D01*
X164392500Y-132127000D01*
X164395500Y-132128000D01*
X164397500Y-132129000D01*
X164400500Y-132130000D01*
X164402500Y-132132000D01*
X164404500Y-132133000D01*
X164406500Y-132135000D01*
X164408500Y-132136000D01*
X164410500Y-132138000D01*
X164412500Y-132140000D01*
X164414500Y-132142000D01*
X164416500Y-132144000D01*
X164417500Y-132146000D01*
X164419500Y-132148000D01*
X164420500Y-132150000D01*
X164422500Y-132152000D01*
X164423500Y-132155000D01*
X164424500Y-132157000D01*
X164425500Y-132160000D01*
X164425500Y-132162000D01*
X164426500Y-132165000D01*
X164426500Y-132167000D01*
X164427500Y-132170000D01*
X164427500Y-132172000D01*
X164427500Y-132175000D01*
X164427500Y-133135000D01*
X164427500Y-133138000D01*
X164427500Y-133140000D01*
X164426500Y-133143000D01*
X164426500Y-133145000D01*
X164425500Y-133148000D01*
X164425500Y-133150000D01*
X164424500Y-133153000D01*
X164423500Y-133155000D01*
X164422500Y-133158000D01*
X164420500Y-133160000D01*
X164419500Y-133162000D01*
X164417500Y-133164000D01*
X164416500Y-133166000D01*
X164414500Y-133168000D01*
X164412500Y-133170000D01*
X164410500Y-133172000D01*
X164408500Y-133174000D01*
X164406500Y-133175000D01*
X164404500Y-133177000D01*
X164402500Y-133178000D01*
X164400500Y-133180000D01*
X164397500Y-133181000D01*
X164395500Y-133182000D01*
X164392500Y-133183000D01*
X164390500Y-133183000D01*
X164387500Y-133184000D01*
X164385500Y-133184000D01*
X164382500Y-133185000D01*
X164380500Y-133185000D01*
X164377500Y-133185000D01*
X162977500Y-133185000D01*
X162974500Y-133185000D01*
X162972500Y-133185000D01*
X162969500Y-133184000D01*
X162967500Y-133184000D01*
X162964500Y-133183000D01*
X162962500Y-133183000D01*
X162959500Y-133182000D01*
X162957500Y-133181000D01*
X162954500Y-133180000D01*
X162952500Y-133178000D01*
X162950500Y-133177000D01*
X162948500Y-133175000D01*
X162946500Y-133174000D01*
X162944500Y-133172000D01*
X162942500Y-133170000D01*
X162940500Y-133168000D01*
X162938500Y-133166000D01*
X162937500Y-133164000D01*
X162935500Y-133162000D01*
X162934500Y-133160000D01*
X162932500Y-133158000D01*
X162931500Y-133155000D01*
X162930500Y-133153000D01*
X162929500Y-133150000D01*
X162929500Y-133148000D01*
X162928500Y-133145000D01*
X162928500Y-133143000D01*
X162927500Y-133140000D01*
X162927500Y-133138000D01*
X162927500Y-133135000D01*
X162927500Y-132175000D01*
X162927500Y-132172000D01*
X162927500Y-132170000D01*
X162928500Y-132167000D01*
X162928500Y-132165000D01*
X162929500Y-132162000D01*
X162929500Y-132160000D01*
X162930500Y-132157000D01*
X162931500Y-132155000D01*
X162932500Y-132152000D01*
X162934500Y-132150000D01*
X162935500Y-132148000D01*
X162937500Y-132146000D01*
X162938500Y-132144000D01*
X162940500Y-132142000D01*
X162942500Y-132140000D01*
X162944500Y-132138000D01*
X162946500Y-132136000D01*
X162948500Y-132135000D01*
X162950500Y-132133000D01*
X162952500Y-132132000D01*
X162954500Y-132130000D01*
X162957500Y-132129000D01*
X162959500Y-132128000D01*
X162962500Y-132127000D01*
X162964500Y-132127000D01*
X162967500Y-132126000D01*
X162969500Y-132126000D01*
X162972500Y-132125000D01*
X162974500Y-132125000D01*
X162977500Y-132125000D01*
X164377500Y-132125000D01*
X164380500Y-132125000D01*
X164382500Y-132125000D01*
X164385500Y-132126000D01*
G37*
%TD*%
D11*
%TO.C,IC11*%
X142595000Y-127998000D03*
X143245000Y-127998000D03*
X143895000Y-127998000D03*
X144545000Y-127998000D03*
X145195000Y-127998000D03*
X145845000Y-127998000D03*
X146495000Y-127998000D03*
X147145000Y-127998000D03*
X147145000Y-122122000D03*
X146495000Y-122122000D03*
X145845000Y-122122000D03*
X145195000Y-122122000D03*
X144545000Y-122122000D03*
X143895000Y-122122000D03*
X143245000Y-122122000D03*
X142595000Y-122122000D03*
%TD*%
D12*
%TO.C,D6*%
X169440000Y-105122500D03*
X169440000Y-105987500D03*
%TD*%
D13*
%TO.C,IC3*%
X103625000Y-94500000D03*
X104275000Y-94500000D03*
X104925000Y-94500000D03*
X104925000Y-92400000D03*
X104275000Y-92400000D03*
X103625000Y-92400000D03*
D14*
X104275000Y-93450000D03*
%TD*%
D15*
%TO.C,U11*%
X153070000Y-71310000D03*
X151800000Y-71310000D03*
X150530000Y-71310000D03*
X149260000Y-71310000D03*
X149260000Y-76260000D03*
X150530000Y-76260000D03*
X151800000Y-76260000D03*
X153070000Y-76260000D03*
%TD*%
D16*
%TO.C,C49*%
X168972500Y-124020000D03*
X171047500Y-124020000D03*
%TD*%
D17*
%TO.C,C27*%
X159925000Y-130987500D03*
X159925000Y-132712500D03*
%TD*%
D18*
%TO.C,C18*%
X127357500Y-97270000D03*
X125807500Y-97270000D03*
%TD*%
D11*
%TO.C,IC2*%
X147037500Y-110910000D03*
X146387500Y-110910000D03*
X145737500Y-110910000D03*
X145087500Y-110910000D03*
X144437500Y-110910000D03*
X143787500Y-110910000D03*
X143137500Y-110910000D03*
X142487500Y-110910000D03*
X142487500Y-116786000D03*
X143137500Y-116786000D03*
X143787500Y-116786000D03*
X144437500Y-116786000D03*
X145087500Y-116786000D03*
X145737500Y-116786000D03*
X146387500Y-116786000D03*
X147037500Y-116786000D03*
%TD*%
D19*
%TO.C,U16*%
X99216800Y-68741600D03*
X99216800Y-70011600D03*
X99216800Y-71281600D03*
X99216800Y-72551600D03*
X106709800Y-72551600D03*
X106709800Y-71281600D03*
X106709800Y-70011600D03*
X106709800Y-68741600D03*
%TD*%
D20*
%TO.C,R2_FAULT1*%
X152200000Y-80920000D03*
X152200000Y-78920000D03*
%TD*%
D18*
%TO.C,C16*%
X134802500Y-88445600D03*
X133252500Y-88445600D03*
%TD*%
D21*
%TO.C,IC5*%
X148050000Y-79195000D03*
X148050000Y-79845000D03*
X148050000Y-80495000D03*
X150150000Y-80495000D03*
X150150000Y-79845000D03*
X150150000Y-79195000D03*
D22*
X149100000Y-79845000D03*
%TD*%
D19*
%TO.C,U15*%
X99596800Y-77851600D03*
X99596800Y-79121600D03*
X99596800Y-80391600D03*
X99596800Y-81661600D03*
X107089800Y-81661600D03*
X107089800Y-80391600D03*
X107089800Y-79121600D03*
X107089800Y-77851600D03*
%TD*%
D23*
%TO.C,U8*%
X125707499Y-101895000D03*
X126207500Y-101895000D03*
X126707500Y-101895000D03*
X127207501Y-101895000D03*
D24*
X127905300Y-101197201D03*
X127905300Y-100697200D03*
X127905300Y-100197200D03*
X127905300Y-99697199D03*
D23*
X127207501Y-98999400D03*
X126707500Y-98999400D03*
X126207500Y-98999400D03*
X125707499Y-98999400D03*
D24*
X125009700Y-99697199D03*
X125009700Y-100197200D03*
X125009700Y-100697200D03*
X125009700Y-101197201D03*
D25*
X126457500Y-100447200D03*
%TD*%
D26*
%TO.C,U19*%
X157030000Y-123410000D03*
X157030000Y-124210000D03*
D27*
X156080000Y-123060000D03*
X156080000Y-123560000D03*
X156080000Y-124060000D03*
X156080000Y-124560000D03*
X157980000Y-124560000D03*
X157980000Y-124060000D03*
X157980000Y-123560000D03*
X157980000Y-123060000D03*
%TD*%
D28*
%TO.C,C20*%
X140949700Y-97284999D03*
X142499700Y-97284999D03*
%TD*%
D19*
%TO.C,U17*%
X99013800Y-59441600D03*
X99013800Y-60711600D03*
X99013800Y-61981600D03*
X99013800Y-63251600D03*
X106506800Y-63251600D03*
X106506800Y-61981600D03*
X106506800Y-60711600D03*
X106506800Y-59441600D03*
%TD*%
D29*
%TO.C,SW2*%
X153960000Y-137320000D03*
X155560000Y-137320000D03*
X155560000Y-133220000D03*
X153960000Y-133220000D03*
D30*
X153335000Y-135270000D03*
%TD*%
D26*
%TO.C,U18*%
X115570000Y-123920000D03*
X115570000Y-123120000D03*
D31*
X116520000Y-124270000D03*
X116520000Y-123770000D03*
X116520000Y-123270000D03*
X116520000Y-122770000D03*
X114620000Y-122770000D03*
X114620000Y-123270000D03*
X114620000Y-123770000D03*
X114620000Y-124270000D03*
%TD*%
D32*
%TO.C,U9*%
X107190000Y-132875000D03*
X107190000Y-132375000D03*
X107190000Y-131875000D03*
X107190000Y-131375000D03*
X107190000Y-130875000D03*
X104390000Y-130875000D03*
X104390000Y-131375000D03*
X104390000Y-131875000D03*
X104390000Y-132375000D03*
X104390000Y-132875000D03*
%TD*%
D33*
%TO.C,C3_RETRY1*%
X164487500Y-91060000D03*
X162762500Y-91060000D03*
%TD*%
D20*
%TO.C,R33*%
X126430000Y-73060000D03*
X126430000Y-71060000D03*
%TD*%
D34*
%TO.C,R3_FAULT1*%
X162525000Y-96250000D03*
X164525000Y-96250000D03*
%TD*%
D20*
%TO.C,R19*%
X160060000Y-103735000D03*
X160060000Y-101735000D03*
%TD*%
%TO.C,R1_ILIM1*%
X106660000Y-94590000D03*
X106660000Y-92590000D03*
%TD*%
D15*
%TO.C,U12*%
X162945000Y-71335000D03*
X161675000Y-71335000D03*
X160405000Y-71335000D03*
X159135000Y-71335000D03*
X159135000Y-76285000D03*
X160405000Y-76285000D03*
X161675000Y-76285000D03*
X162945000Y-76285000D03*
%TD*%
D35*
%TO.C,D7*%
X116270000Y-75920000D03*
X116270000Y-71920000D03*
%TD*%
D18*
%TO.C,C1*%
X136350000Y-98500000D03*
X134800000Y-98500000D03*
%TD*%
D36*
%TO.C,U10*%
X162277500Y-131025000D03*
X162277500Y-131525000D03*
X162277500Y-132025000D03*
X162277500Y-132525000D03*
X162277500Y-133025000D03*
X165077500Y-133025000D03*
X165077500Y-132525000D03*
X165077500Y-132025000D03*
X165077500Y-131525000D03*
X165077500Y-131025000D03*
%TD*%
D12*
%TO.C,D5*%
X110310000Y-105145000D03*
X110310000Y-106010000D03*
%TD*%
D37*
%TO.C,R27*%
X139167500Y-124097500D03*
X139167500Y-125922500D03*
%TD*%
D12*
%TO.C,D3*%
X167480000Y-105062500D03*
X167480000Y-105927500D03*
%TD*%
D20*
%TO.C,R11*%
X158750000Y-137275000D03*
X158750000Y-135275000D03*
%TD*%
D38*
%TO.C,C25*%
X158350000Y-132637500D03*
X158350000Y-130912500D03*
%TD*%
D29*
%TO.C,SW1*%
X114300000Y-137250000D03*
X115900000Y-137250000D03*
X115900000Y-133150000D03*
X114300000Y-133150000D03*
D30*
X113675000Y-135200000D03*
%TD*%
D37*
%TO.C,R26*%
X137637500Y-124067500D03*
X137637500Y-125892500D03*
%TD*%
D38*
%TO.C,C24*%
X110745000Y-132587500D03*
X110745000Y-130862500D03*
%TD*%
D39*
%TO.C,C4_RETRY1*%
X162717500Y-82735000D03*
X164442500Y-82735000D03*
%TD*%
D33*
%TO.C,C51*%
X155892500Y-130630000D03*
X154167500Y-130630000D03*
%TD*%
%TO.C,C1_RETRY1*%
X104742500Y-90940000D03*
X103017500Y-90940000D03*
%TD*%
D38*
%TO.C,C23*%
X161965000Y-94462500D03*
X161965000Y-92737500D03*
%TD*%
D40*
%TO.C,Q2*%
X160812500Y-135287500D03*
X160812500Y-137187500D03*
X162687500Y-136237500D03*
%TD*%
D20*
%TO.C,R15*%
X169630000Y-132920000D03*
X169630000Y-130920000D03*
%TD*%
D34*
%TO.C,R4_ILIM1*%
X158855000Y-82835000D03*
X160855000Y-82835000D03*
%TD*%
D41*
%TO.C,R28*%
X159485000Y-124635000D03*
X159485000Y-122810000D03*
%TD*%
D20*
%TO.C,R4_FAULT1*%
X162530000Y-80885000D03*
X162530000Y-78885000D03*
%TD*%
D11*
%TO.C,IC13*%
X121185000Y-127968000D03*
X121835000Y-127968000D03*
X122485000Y-127968000D03*
X123135000Y-127968000D03*
X123785000Y-127968000D03*
X124435000Y-127968000D03*
X125085000Y-127968000D03*
X125735000Y-127968000D03*
X125735000Y-122092000D03*
X125085000Y-122092000D03*
X124435000Y-122092000D03*
X123785000Y-122092000D03*
X123135000Y-122092000D03*
X122485000Y-122092000D03*
X121835000Y-122092000D03*
X121185000Y-122092000D03*
%TD*%
%TO.C,IC12*%
X125640000Y-110872000D03*
X124990000Y-110872000D03*
X124340000Y-110872000D03*
X123690000Y-110872000D03*
X123040000Y-110872000D03*
X122390000Y-110872000D03*
X121740000Y-110872000D03*
X121090000Y-110872000D03*
X121090000Y-116748000D03*
X121740000Y-116748000D03*
X122390000Y-116748000D03*
X123040000Y-116748000D03*
X123690000Y-116748000D03*
X124340000Y-116748000D03*
X124990000Y-116748000D03*
X125640000Y-116748000D03*
%TD*%
D42*
%TO.C,R10*%
X110270000Y-135225000D03*
X110270000Y-137225000D03*
%TD*%
D20*
%TO.C,R16*%
X108220000Y-103715000D03*
X108220000Y-101715000D03*
%TD*%
%TO.C,R20*%
X110330000Y-103750000D03*
X110330000Y-101750000D03*
%TD*%
D43*
%TO.C,U3*%
X135125000Y-96800000D03*
X135125000Y-95850000D03*
X135125000Y-94900000D03*
X132850000Y-94900000D03*
X132850000Y-95850000D03*
X132850000Y-96800000D03*
%TD*%
D17*
%TO.C,C54*%
X140657500Y-124127500D03*
X140657500Y-125852500D03*
%TD*%
D44*
%TO.C,C7*%
X131050000Y-95075000D03*
X131050000Y-96625000D03*
%TD*%
D28*
%TO.C,C17*%
X140924700Y-95609999D03*
X142474700Y-95609999D03*
%TD*%
D17*
%TO.C,C59*%
X126340000Y-74777500D03*
X126340000Y-76502500D03*
%TD*%
D23*
%TO.C,U6*%
X133227500Y-93270600D03*
X133727501Y-93270600D03*
X134227501Y-93270600D03*
X134727502Y-93270600D03*
D24*
X135425301Y-92572801D03*
X135425301Y-92072800D03*
X135425301Y-91572800D03*
X135425301Y-91072799D03*
D23*
X134727502Y-90375000D03*
X134227501Y-90375000D03*
X133727501Y-90375000D03*
X133227500Y-90375000D03*
D24*
X132529701Y-91072799D03*
X132529701Y-91572800D03*
X132529701Y-92072800D03*
X132529701Y-92572801D03*
D25*
X133977501Y-91822800D03*
%TD*%
D45*
%TO.C,Q1*%
X107970000Y-137300000D03*
X107970000Y-135400000D03*
X106095000Y-136350000D03*
%TD*%
D12*
%TO.C,D2*%
X100720000Y-105077500D03*
X100720000Y-105942500D03*
%TD*%
%TO.C,D1*%
X108180000Y-105085000D03*
X108180000Y-105950000D03*
%TD*%
D42*
%TO.C,R13*%
X99795000Y-130890000D03*
X99795000Y-132890000D03*
%TD*%
D28*
%TO.C,C6*%
X131750000Y-98500000D03*
X133300000Y-98500000D03*
%TD*%
D17*
%TO.C,C52*%
X154075000Y-79132500D03*
X154075000Y-80857500D03*
%TD*%
D20*
%TO.C,R17*%
X100740000Y-103725000D03*
X100740000Y-101725000D03*
%TD*%
D17*
%TO.C,C26*%
X109165000Y-130837500D03*
X109165000Y-132562500D03*
%TD*%
%TO.C,C53*%
X164530000Y-78960000D03*
X164530000Y-80685000D03*
%TD*%
D34*
%TO.C,R2_ILIM1*%
X148350000Y-82795000D03*
X150350000Y-82795000D03*
%TD*%
D39*
%TO.C,C36*%
X95985000Y-112430000D03*
X97710000Y-112430000D03*
%TD*%
D11*
%TO.C,IC10*%
X131712500Y-127978000D03*
X132362500Y-127978000D03*
X133012500Y-127978000D03*
X133662500Y-127978000D03*
X134312500Y-127978000D03*
X134962500Y-127978000D03*
X135612500Y-127978000D03*
X136262500Y-127978000D03*
X136262500Y-122102000D03*
X135612500Y-122102000D03*
X134962500Y-122102000D03*
X134312500Y-122102000D03*
X133662500Y-122102000D03*
X133012500Y-122102000D03*
X132362500Y-122102000D03*
X131712500Y-122102000D03*
%TD*%
D46*
%TO.C,U13*%
X100795000Y-111250000D03*
X100795000Y-111750000D03*
X100795000Y-112250000D03*
X100795000Y-112750000D03*
X100795000Y-113250000D03*
X100795000Y-113750000D03*
X100795000Y-114250000D03*
X100795000Y-114750000D03*
X100795000Y-115250000D03*
X100795000Y-115750000D03*
X100795000Y-116250000D03*
X100795000Y-116750000D03*
X100795000Y-117250000D03*
X100795000Y-117750000D03*
X100795000Y-118250000D03*
X100795000Y-118750000D03*
D47*
X102720000Y-120675000D03*
X103220000Y-120675000D03*
X103720000Y-120675000D03*
X104220000Y-120675000D03*
X104720000Y-120675000D03*
X105220000Y-120675000D03*
X105720000Y-120675000D03*
X106220000Y-120675000D03*
X106720000Y-120675000D03*
X107220000Y-120675000D03*
X107720000Y-120675000D03*
X108220000Y-120675000D03*
X108720000Y-120675000D03*
X109220000Y-120675000D03*
X109720000Y-120675000D03*
X110220000Y-120675000D03*
D46*
X112145000Y-118750000D03*
X112145000Y-118250000D03*
X112145000Y-117750000D03*
X112145000Y-117250000D03*
X112145000Y-116750000D03*
X112145000Y-116250000D03*
X112145000Y-115750000D03*
X112145000Y-115250000D03*
X112145000Y-114750000D03*
X112145000Y-114250000D03*
X112145000Y-113750000D03*
X112145000Y-113250000D03*
X112145000Y-112750000D03*
X112145000Y-112250000D03*
X112145000Y-111750000D03*
X112145000Y-111250000D03*
D47*
X110220000Y-109325000D03*
X109720000Y-109325000D03*
X109220000Y-109325000D03*
X108720000Y-109325000D03*
X108220000Y-109325000D03*
X107720000Y-109325000D03*
X107220000Y-109325000D03*
X106720000Y-109325000D03*
X106220000Y-109325000D03*
X105720000Y-109325000D03*
X105220000Y-109325000D03*
X104720000Y-109325000D03*
X104220000Y-109325000D03*
X103720000Y-109325000D03*
X103220000Y-109325000D03*
X102720000Y-109325000D03*
%TD*%
D39*
%TO.C,C2_RETRY1*%
X152237500Y-82870000D03*
X153962500Y-82870000D03*
%TD*%
D17*
%TO.C,C58*%
X113660000Y-74840000D03*
X113660000Y-76565000D03*
%TD*%
D18*
%TO.C,C19*%
X134802500Y-86820600D03*
X133252500Y-86820600D03*
%TD*%
D11*
%TO.C,IC1*%
X136422500Y-110892000D03*
X135772500Y-110892000D03*
X135122500Y-110892000D03*
X134472500Y-110892000D03*
X133822500Y-110892000D03*
X133172500Y-110892000D03*
X132522500Y-110892000D03*
X131872500Y-110892000D03*
X131872500Y-116768000D03*
X132522500Y-116768000D03*
X133172500Y-116768000D03*
X133822500Y-116768000D03*
X134472500Y-116768000D03*
X135122500Y-116768000D03*
X135772500Y-116768000D03*
X136422500Y-116768000D03*
%TD*%
D16*
%TO.C,C48*%
X109702500Y-124050000D03*
X111777500Y-124050000D03*
%TD*%
D34*
%TO.C,R1_FAULT1*%
X102710000Y-96210000D03*
X104710000Y-96210000D03*
%TD*%
D39*
%TO.C,C50*%
X112707500Y-130640000D03*
X114432500Y-130640000D03*
%TD*%
D42*
%TO.C,R12*%
X102020000Y-130890000D03*
X102020000Y-132890000D03*
%TD*%
D48*
%TO.C,R1*%
X136900000Y-96675000D03*
X136900000Y-95025000D03*
%TD*%
D20*
%TO.C,R18*%
X167030000Y-103715000D03*
X167030000Y-101715000D03*
%TD*%
D35*
%TO.C,D8*%
X119940000Y-75890000D03*
X119940000Y-71890000D03*
%TD*%
D39*
%TO.C,C39*%
X155307500Y-111970000D03*
X157032500Y-111970000D03*
%TD*%
D38*
%TO.C,C22*%
X102180000Y-94332500D03*
X102180000Y-92607500D03*
%TD*%
D49*
%TO.C,R22*%
X105310000Y-124080000D03*
X103310000Y-124080000D03*
%TD*%
D35*
%TO.C,D9*%
X123730000Y-75890000D03*
X123730000Y-71890000D03*
%TD*%
D23*
%TO.C,U7*%
X140997499Y-101882800D03*
X141497500Y-101882800D03*
X141997500Y-101882800D03*
X142497501Y-101882800D03*
D24*
X143195300Y-101185001D03*
X143195300Y-100685000D03*
X143195300Y-100185000D03*
X143195300Y-99684999D03*
D23*
X142497501Y-98987200D03*
X141997500Y-98987200D03*
X141497500Y-98987200D03*
X140997499Y-98987200D03*
D24*
X140299700Y-99684999D03*
X140299700Y-100185000D03*
X140299700Y-100685000D03*
X140299700Y-101185001D03*
D25*
X141747500Y-100435000D03*
%TD*%
D49*
%TO.C,R23*%
X164740000Y-123930000D03*
X162740000Y-123930000D03*
%TD*%
D18*
%TO.C,C21*%
X127357500Y-95545000D03*
X125807500Y-95545000D03*
%TD*%
D20*
%TO.C,R14*%
X167560000Y-132930000D03*
X167560000Y-130930000D03*
%TD*%
%TO.C,R21*%
X169050000Y-103750000D03*
X169050000Y-101750000D03*
%TD*%
D46*
%TO.C,U14*%
X160120000Y-111200000D03*
X160120000Y-111700000D03*
X160120000Y-112200000D03*
X160120000Y-112700000D03*
X160120000Y-113200000D03*
X160120000Y-113700000D03*
X160120000Y-114200000D03*
X160120000Y-114700000D03*
X160120000Y-115200000D03*
X160120000Y-115700000D03*
X160120000Y-116200000D03*
X160120000Y-116700000D03*
X160120000Y-117200000D03*
X160120000Y-117700000D03*
X160120000Y-118200000D03*
X160120000Y-118700000D03*
D47*
X162045000Y-120625000D03*
X162545000Y-120625000D03*
X163045000Y-120625000D03*
X163545000Y-120625000D03*
X164045000Y-120625000D03*
X164545000Y-120625000D03*
X165045000Y-120625000D03*
X165545000Y-120625000D03*
X166045000Y-120625000D03*
X166545000Y-120625000D03*
X167045000Y-120625000D03*
X167545000Y-120625000D03*
X168045000Y-120625000D03*
X168545000Y-120625000D03*
X169045000Y-120625000D03*
X169545000Y-120625000D03*
D46*
X171470000Y-118700000D03*
X171470000Y-118200000D03*
X171470000Y-117700000D03*
X171470000Y-117200000D03*
X171470000Y-116700000D03*
X171470000Y-116200000D03*
X171470000Y-115700000D03*
X171470000Y-115200000D03*
X171470000Y-114700000D03*
X171470000Y-114200000D03*
X171470000Y-113700000D03*
X171470000Y-113200000D03*
X171470000Y-112700000D03*
X171470000Y-112200000D03*
X171470000Y-111700000D03*
X171470000Y-111200000D03*
D47*
X169545000Y-109275000D03*
X169045000Y-109275000D03*
X168545000Y-109275000D03*
X168045000Y-109275000D03*
X167545000Y-109275000D03*
X167045000Y-109275000D03*
X166545000Y-109275000D03*
X166045000Y-109275000D03*
X165545000Y-109275000D03*
X165045000Y-109275000D03*
X164545000Y-109275000D03*
X164045000Y-109275000D03*
X163545000Y-109275000D03*
X163045000Y-109275000D03*
X162545000Y-109275000D03*
X162045000Y-109275000D03*
%TD*%
D21*
%TO.C,IC6*%
X158555000Y-79135000D03*
X158555000Y-79785000D03*
X158555000Y-80435000D03*
X160655000Y-80435000D03*
X160655000Y-79785000D03*
X160655000Y-79135000D03*
D22*
X159605000Y-79785000D03*
%TD*%
D20*
%TO.C,R3_ILIM1*%
X166475000Y-94480000D03*
X166475000Y-92480000D03*
%TD*%
D12*
%TO.C,D4*%
X160060000Y-105110000D03*
X160060000Y-105975000D03*
%TD*%
D13*
%TO.C,IC4*%
X163395000Y-94590000D03*
X164045000Y-94590000D03*
X164695000Y-94590000D03*
X164695000Y-92490000D03*
X164045000Y-92490000D03*
X163395000Y-92490000D03*
D14*
X164045000Y-93540000D03*
%TD*%
M02*
