M48
; DRILL file {KiCad 9.0.4} date 2026-03-02T14:47:05-0700
; FORMAT={-:-/ absolute / metric / decimal}
; #@! TF.CreationDate,2026-03-02T14:47:05-07:00
; #@! TF.GenerationSoftware,Kicad,Pcbnew,9.0.4
; #@! TF.FileFunction,Plated,1,4,PTH
FMAT,2
METRIC
; #@! TA.AperFunction,Plated,PTH,ViaDrill
T1C0.300
; #@! TA.AperFunction,Plated,PTH,ComponentDrill
T2C0.300
; #@! TA.AperFunction,Plated,PTH,ComponentDrill
T3C0.800
; #@! TA.AperFunction,Plated,PTH,ComponentDrill
T4C1.000
; #@! TA.AperFunction,Plated,PTH,ComponentDrill
T5C1.040
%
G90
G05
T1
X87.675Y-64.8
X87.675Y-65.8
X87.675Y-66.8
X87.675Y-67.8
X87.675Y-68.8
X87.675Y-69.8
X87.675Y-70.8
X87.675Y-71.8
X87.675Y-72.8
X87.675Y-73.8
X87.675Y-74.8
X87.675Y-75.8
X87.675Y-76.8
X87.675Y-77.8
X87.675Y-78.8
X87.675Y-79.8
X87.675Y-80.8
X87.675Y-81.8
X87.675Y-82.8
X87.675Y-83.8
X87.675Y-84.8
X87.675Y-85.8
X87.675Y-86.8
X87.675Y-87.8
X87.675Y-88.8
X87.675Y-89.8
X87.675Y-90.8
X87.675Y-91.8
X87.675Y-92.8
X87.675Y-93.8
X87.675Y-94.8
X87.675Y-95.8
X87.675Y-96.8
X87.675Y-97.8
X87.675Y-98.8
X87.675Y-99.8
X87.675Y-100.8
X87.675Y-101.8
X87.675Y-102.8
X87.675Y-103.8
X87.675Y-104.8
X87.675Y-105.8
X87.675Y-106.8
X87.675Y-107.8
X87.675Y-108.8
X87.675Y-109.8
X87.675Y-110.8
X87.675Y-111.8
X87.675Y-112.8
X87.675Y-113.8
X87.675Y-114.8
X87.675Y-115.8
X87.675Y-116.8
X87.675Y-117.8
X87.675Y-118.8
X87.675Y-119.8
X87.675Y-120.8
X87.675Y-121.8
X87.675Y-122.8
X87.675Y-123.8
X87.675Y-124.8
X87.675Y-125.8
X87.675Y-126.8
X88.675Y-64.8
X88.675Y-65.8
X88.675Y-66.8
X88.675Y-67.8
X88.675Y-68.8
X88.675Y-69.8
X88.675Y-70.8
X88.675Y-71.8
X88.675Y-72.8
X88.675Y-73.8
X88.675Y-74.8
X88.675Y-75.8
X88.675Y-76.8
X88.675Y-77.8
X88.675Y-78.8
X88.675Y-79.8
X88.675Y-80.8
X88.675Y-81.8
X88.675Y-82.8
X88.675Y-83.8
X88.675Y-84.8
X88.675Y-85.8
X88.675Y-86.8
X88.675Y-87.8
X88.675Y-88.8
X88.675Y-89.8
X88.675Y-90.8
X88.675Y-91.8
X88.675Y-92.8
X88.675Y-93.8
X88.675Y-94.8
X88.675Y-95.8
X88.675Y-96.8
X88.675Y-97.8
X88.675Y-98.8
X88.675Y-99.8
X88.675Y-100.8
X88.675Y-101.8
X88.675Y-102.8
X88.675Y-103.8
X88.675Y-104.8
X88.675Y-105.8
X88.675Y-106.8
X88.675Y-107.8
X88.675Y-108.8
X88.675Y-109.8
X88.675Y-110.8
X88.675Y-111.8
X88.675Y-112.8
X88.675Y-113.8
X88.675Y-114.8
X88.675Y-115.8
X88.675Y-116.8
X88.675Y-117.8
X88.675Y-118.8
X88.675Y-119.8
X88.675Y-120.8
X88.675Y-121.8
X88.675Y-122.8
X88.675Y-123.8
X88.675Y-124.8
X88.675Y-125.8
X88.675Y-126.8
X89.675Y-64.8
X89.675Y-65.8
X89.675Y-66.8
X89.675Y-67.8
X89.675Y-68.8
X89.675Y-69.8
X89.675Y-70.8
X89.675Y-71.8
X89.675Y-72.8
X89.675Y-73.8
X89.675Y-74.8
X89.675Y-75.8
X89.675Y-76.8
X89.675Y-77.8
X89.675Y-78.8
X89.675Y-79.8
X89.675Y-80.8
X89.675Y-81.8
X89.675Y-82.8
X89.675Y-83.8
X89.675Y-84.8
X89.675Y-85.8
X89.675Y-86.8
X89.675Y-87.8
X89.675Y-88.8
X89.675Y-89.8
X89.675Y-90.8
X89.675Y-91.8
X89.675Y-92.8
X89.675Y-93.8
X89.675Y-94.8
X89.675Y-95.8
X89.675Y-96.8
X89.675Y-97.8
X89.675Y-98.8
X89.675Y-99.8
X89.675Y-100.8
X89.675Y-101.8
X89.675Y-102.8
X89.675Y-103.8
X89.675Y-104.8
X89.675Y-105.8
X89.675Y-106.8
X89.675Y-107.8
X89.675Y-108.8
X89.675Y-109.8
X89.675Y-110.8
X89.675Y-111.8
X89.675Y-112.8
X89.675Y-113.8
X89.675Y-114.8
X89.675Y-115.8
X89.675Y-116.8
X89.675Y-117.8
X89.675Y-118.8
X89.675Y-119.8
X89.675Y-120.8
X89.675Y-121.8
X89.675Y-122.8
X89.675Y-123.8
X89.675Y-124.8
X89.675Y-125.8
X89.675Y-126.8
X91.659Y-94.27
X94.62Y-107.07
X96.325Y-118.8
X96.375Y-88.0
X97.125Y-108.9
X97.74Y-117.23
X97.89Y-99.07
X98.01Y-101.91
X98.179Y-75.25
X98.915Y-58.14
X99.08Y-121.81
X99.17Y-116.63
X99.215Y-67.33
X100.355Y-72.51
X100.555Y-67.34
X100.74Y-134.62
X100.81Y-119.57
X100.925Y-69.93
X101.095Y-80.77
X101.164Y-59.542
X101.27Y-121.08
X101.275Y-123.075
X101.425Y-78.899
X101.63Y-90.83
X101.695Y-60.14
X102.12Y-112.23
X103.32Y-107.328
X103.44Y-131.275
X103.54Y-112.55
X103.615Y-65.14
X103.8Y-72.34
X103.81Y-107.96
X104.41Y-107.08
X104.73Y-110.82
X104.841Y-105.801
X104.945Y-60.7
X105.139Y-119.4
X105.445Y-68.78
X105.595Y-77.83
X105.725Y-67.09
X105.79Y-105.14
X106.279Y-122.171
X106.45Y-125.025
X106.5Y-74.04
X106.725Y-127.7
X107.237Y-122.28
X107.5Y-119.23
X107.56Y-111.475
X107.825Y-58.874
X107.85Y-112.94
X107.9Y-100.48
X107.992Y-117.852
X108.11Y-130.8
X108.127Y-77.18
X108.442Y-111.508
X108.48Y-110.66
X108.48Y-115.01
X108.62Y-122.28
X109.2Y-75.075
X109.238Y-110.916
X109.275Y-80.79
X109.7Y-62.5
X110.26Y-126.329
X110.599Y-114.92
X110.599Y-116.1
X111.07Y-82.189
X112.4Y-107.475
X112.66Y-127.529
X112.8Y-126.025
X113.03Y-123.13
X113.58Y-124.87
X113.697Y-110.547
X113.82Y-113.2
X113.89Y-112.37
X113.95Y-71.925
X114.1Y-85.075
X114.3Y-131.92
X115.01Y-135.11
X115.768Y-118.043
X116.321Y-113.69
X116.825Y-116.925
X117.14Y-113.72
X117.79Y-132.05
X118.275Y-129.15
X118.35Y-117.12
X118.713Y-125.514
X118.95Y-107.74
X119.1Y-113.375
X119.12Y-81.3
X119.129Y-110.141
X119.507Y-125.18
X119.74Y-119.37
X119.88Y-78.3
X120.33Y-79.19
X120.34Y-127.97
X121.6Y-81.11
X121.76Y-118.04
X121.82Y-123.44
X122.45Y-113.37
X122.45Y-126.38
X122.69Y-118.04
X122.84Y-123.48
X123.03Y-109.541
X123.266Y-115.091
X123.67Y-118.061
X123.78Y-105.31
X123.913Y-98.535
X124.07Y-100.25
X124.35Y-112.829
X124.46Y-115.091
X124.51Y-129.31
X124.725Y-87.175
X124.86Y-126.27
X124.98Y-108.941
X125.24Y-123.52
X127.14Y-121.68
X128.13Y-102.002
X128.219Y-121.12
X128.24Y-92.54
X128.55Y-124.125
X128.575Y-118.025
X128.735Y-96.515
X129.5Y-126.675
X129.58Y-94.59
X129.72Y-92.21
X129.938Y-93.77
X129.95Y-99.03
X130.06Y-96.62
X130.15Y-121.2
X130.27Y-116.58
X130.27Y-117.999
X130.68Y-100.02
X130.76Y-128.02
X130.87Y-110.87
X130.88Y-109.48
X131.13Y-90.47
X131.55Y-101.55
X131.96Y-118.061
X132.411Y-129.559
X132.44Y-89.47
X132.56Y-101.97
X133.0Y-126.4
X133.172Y-108.99
X133.19Y-118.06
X133.31Y-129.8
X134.16Y-102.37
X134.18Y-115.109
X134.25Y-124.199
X134.31Y-129.06
X134.42Y-112.37
X134.833Y-125.892
X134.91Y-118.64
X135.08Y-109.55
X135.32Y-125.0
X135.541Y-99.351
X135.56Y-129.559
X135.58Y-126.51
X135.69Y-118.41
X135.775Y-104.45
X135.875Y-76.15
X136.59Y-93.54
X136.795Y-91.48
X137.239Y-99.771
X137.52Y-110.87
X137.66Y-97.488
X137.7Y-93.32
X137.9Y-129.45
X138.375Y-121.775
X138.55Y-107.4
X139.5Y-102.391
X139.62Y-97.21
X139.69Y-114.58
X139.868Y-93.469
X140.705Y-126.895
X140.719Y-128.019
X140.8Y-105.17
X140.979Y-109.94
X140.979Y-115.289
X141.34Y-121.54
X141.797Y-96.661
X142.267Y-115.093
X142.43Y-103.44
X142.8Y-119.05
X142.95Y-130.4
X143.12Y-108.23
X143.195Y-112.358
X143.51Y-125.252
X143.77Y-107.63
X143.78Y-129.42
X143.9Y-104.9
X144.87Y-94.39
X144.901Y-119.01
X144.95Y-112.33
X145.631Y-123.499
X145.75Y-108.3
X145.845Y-129.18
X146.091Y-119.519
X146.41Y-123.68
X146.46Y-106.44
X147.04Y-83.92
X147.07Y-130.381
X147.65Y-131.76
X147.96Y-110.89
X148.05Y-110.0
X148.41Y-121.856
X148.65Y-84.55
X149.29Y-121.12
X149.42Y-116.56
X149.96Y-85.3
X150.02Y-74.24
X150.74Y-110.65
X151.04Y-77.97
X151.19Y-111.53
X151.2Y-121.35
X152.87Y-123.57
X153.16Y-128.46
X154.28Y-106.91
X154.767Y-126.294
X155.119Y-128.369
X155.13Y-134.79
X155.466Y-125.904
X157.09Y-99.38
X157.603Y-117.2
X158.43Y-105.39
X158.47Y-114.03
X158.86Y-116.489
X159.28Y-73.18
X159.856Y-119.896
X160.49Y-136.34
X160.596Y-127.494
X160.639Y-94.47
X160.875Y-69.5
X160.97Y-78.06
X161.0Y-125.03
X161.06Y-120.68
X161.11Y-131.76
X161.15Y-133.75
X161.24Y-81.32
X161.78Y-112.14
X162.66Y-112.18
X162.93Y-73.18
X162.946Y-74.56
X163.138Y-107.173
X163.16Y-117.18
X163.476Y-122.456
X163.53Y-107.87
X163.975Y-101.7
X164.66Y-107.72
X164.755Y-111.79
X164.96Y-119.0
X165.08Y-110.76
X165.57Y-116.471
X166.343Y-117.727
X166.79Y-119.337
X167.606Y-119.305
X167.66Y-112.31
X167.83Y-117.799
X167.95Y-123.19
X168.57Y-112.41
X169.84Y-112.41
X170.094Y-114.686
X170.145Y-118.979
X171.48Y-119.72
X172.3Y-129.05
X172.85Y-115.1
X172.891Y-129.589
X172.99Y-111.71
X173.25Y-75.575
X173.547Y-124.15
X173.55Y-112.441
X173.55Y-113.899
X173.71Y-117.43
X174.15Y-109.51
X174.88Y-109.182
X178.675Y-64.95
X178.675Y-65.95
X178.675Y-66.95
X178.675Y-67.95
X178.675Y-68.95
X178.675Y-69.95
X178.675Y-70.95
X178.675Y-71.95
X178.675Y-72.95
X178.675Y-73.95
X178.675Y-74.95
X178.675Y-75.95
X178.675Y-76.95
X178.675Y-77.95
X178.675Y-78.95
X178.675Y-79.95
X178.675Y-80.95
X178.675Y-81.95
X178.675Y-82.95
X178.675Y-83.95
X178.675Y-84.95
X178.675Y-85.95
X178.675Y-86.95
X178.675Y-87.95
X178.675Y-88.95
X178.675Y-89.95
X178.675Y-90.95
X178.675Y-91.95
X178.675Y-92.95
X178.675Y-93.95
X178.675Y-94.95
X178.675Y-95.95
X178.675Y-96.95
X178.675Y-97.95
X178.675Y-98.95
X178.675Y-99.95
X178.675Y-100.95
X178.675Y-101.95
X178.675Y-102.95
X178.675Y-103.95
X178.675Y-104.95
X178.675Y-105.95
X178.675Y-106.95
X178.675Y-107.95
X178.675Y-108.95
X178.675Y-109.95
X178.675Y-110.95
X178.675Y-111.95
X178.675Y-112.95
X178.675Y-113.95
X178.675Y-114.95
X178.675Y-115.95
X178.675Y-116.95
X178.675Y-117.95
X178.675Y-118.95
X178.675Y-119.95
X178.675Y-120.95
X178.675Y-121.95
X178.675Y-122.95
X178.675Y-123.95
X178.675Y-124.95
X178.675Y-125.95
X178.675Y-126.95
X179.675Y-64.95
X179.675Y-65.95
X179.675Y-66.95
X179.675Y-67.95
X179.675Y-68.95
X179.675Y-69.95
X179.675Y-70.95
X179.675Y-71.95
X179.675Y-72.95
X179.675Y-73.95
X179.675Y-74.95
X179.675Y-75.95
X179.675Y-76.95
X179.675Y-77.95
X179.675Y-78.95
X179.675Y-79.95
X179.675Y-80.95
X179.675Y-81.95
X179.675Y-82.95
X179.675Y-83.95
X179.675Y-84.95
X179.675Y-85.95
X179.675Y-86.95
X179.675Y-87.95
X179.675Y-88.95
X179.675Y-89.95
X179.675Y-90.95
X179.675Y-91.95
X179.675Y-92.95
X179.675Y-93.95
X179.675Y-94.95
X179.675Y-95.95
X179.675Y-96.95
X179.675Y-97.95
X179.675Y-98.95
X179.675Y-99.95
X179.675Y-100.95
X179.675Y-101.95
X179.675Y-102.95
X179.675Y-103.95
X179.675Y-104.95
X179.675Y-105.95
X179.675Y-106.95
X179.675Y-107.95
X179.675Y-108.95
X179.675Y-109.95
X179.675Y-110.95
X179.675Y-111.95
X179.675Y-112.95
X179.675Y-113.95
X179.675Y-114.95
X179.675Y-115.95
X179.675Y-116.95
X179.675Y-117.95
X179.675Y-118.95
X179.675Y-119.95
X179.675Y-120.95
X179.675Y-121.95
X179.675Y-122.95
X179.675Y-123.95
X179.675Y-124.95
X179.675Y-125.95
X179.675Y-126.95
X180.675Y-64.95
X180.675Y-65.95
X180.675Y-66.95
X180.675Y-67.95
X180.675Y-68.95
X180.675Y-69.95
X180.675Y-70.95
X180.675Y-71.95
X180.675Y-72.95
X180.675Y-73.95
X180.675Y-74.95
X180.675Y-75.95
X180.675Y-76.95
X180.675Y-77.95
X180.675Y-78.95
X180.675Y-79.95
X180.675Y-80.95
X180.675Y-81.95
X180.675Y-82.95
X180.675Y-83.95
X180.675Y-84.95
X180.675Y-85.95
X180.675Y-86.95
X180.675Y-87.95
X180.675Y-88.95
X180.675Y-89.95
X180.675Y-90.95
X180.675Y-91.95
X180.675Y-92.95
X180.675Y-93.95
X180.675Y-94.95
X180.675Y-95.95
X180.675Y-96.95
X180.675Y-97.95
X180.675Y-98.95
X180.675Y-99.95
X180.675Y-100.95
X180.675Y-101.95
X180.675Y-102.95
X180.675Y-103.95
X180.675Y-104.95
X180.675Y-105.95
X180.675Y-106.95
X180.675Y-107.95
X180.675Y-108.95
X180.675Y-109.95
X180.675Y-110.95
X180.675Y-111.95
X180.675Y-112.95
X180.675Y-113.95
X180.675Y-114.95
X180.675Y-115.95
X180.675Y-116.95
X180.675Y-117.95
X180.675Y-118.95
X180.675Y-119.95
X180.675Y-120.95
X180.675Y-121.95
X180.675Y-122.95
X180.675Y-123.95
X180.675Y-124.95
X180.675Y-125.95
X180.675Y-126.95
T2
X105.215Y-131.875
X105.79Y-130.925
X105.79Y-132.825
X106.365Y-131.875
X163.102Y-132.025
X163.677Y-131.075
X163.677Y-132.975
X164.252Y-132.025
T3
X101.025Y-136.85
X103.565Y-136.85
X165.185Y-136.975
X167.725Y-136.975
T4
X94.21Y-115.06
X96.75Y-115.06
X114.57Y-97.03
X114.57Y-99.57
X114.57Y-102.11
X114.57Y-104.65
X114.57Y-107.19
X153.495Y-114.72
X156.035Y-114.72
X172.7Y-96.96
X172.7Y-99.5
X172.7Y-102.04
X172.7Y-104.58
X172.7Y-107.12
T5
X110.057Y-66.347
X110.057Y-68.888
X112.597Y-66.347
X112.597Y-68.888
X115.137Y-66.347
X115.137Y-68.888
X117.677Y-66.347
X117.677Y-68.888
X120.218Y-66.347
X120.218Y-68.888
X122.757Y-66.347
X122.757Y-68.888
X125.297Y-66.347
X125.297Y-68.888
X127.837Y-66.347
X127.837Y-68.888
X130.377Y-66.347
X130.377Y-68.888
X132.917Y-66.347
X132.917Y-68.888
X135.457Y-66.347
X135.457Y-68.888
X137.998Y-66.347
X137.998Y-68.888
X140.537Y-66.347
X140.537Y-68.888
X143.077Y-66.347
X143.077Y-68.888
X145.618Y-66.347
X145.618Y-68.888
X148.157Y-66.347
X148.157Y-68.888
X150.697Y-66.347
X150.697Y-68.888
X153.237Y-66.347
X153.237Y-68.888
X155.778Y-66.347
X155.778Y-68.888
X158.317Y-66.347
X158.317Y-68.888
M30
